<svg width="28" height="28" viewBox="0 0 28 28" fill="none" xmlns="http://www.w3.org/2000/svg">
<path d="M12.7684 13.046C12.1794 12.9946 11.6518 12.9689 11.1331 12.9089C9.04943 12.686 7.17676 12.1715 5.66455 11.1684C4.46885 10.3711 3.71274 9.41085 3.18523 8.36487C2.60496 7.20743 2.34999 6.01569 2.13899 4.81539C1.99832 3.98375 1.80491 3.16069 1.40927 2.36335C1.33014 2.20045 1.22464 2.04609 1.11914 1.90034C0.785043 1.43736 1.18947 0.991548 1.95436 1.00012C6.06898 1.01727 9.52419 2.0204 12.2233 4.07807C13.6828 5.19264 14.5707 6.51296 15.1686 7.92761C15.7752 9.3594 16.0302 10.8255 15.9862 12.3173C15.9862 12.3859 15.9862 12.463 15.9862 12.5316C15.9862 12.5402 16.0038 12.5488 16.0302 12.5745C16.0742 12.5402 16.1269 12.5145 16.1621 12.4802C17.5072 11.0741 19.4415 10.1653 21.7977 9.64233C22.8175 9.41941 23.8814 9.28222 24.9364 9.14504C25.587 9.05931 25.9914 9.31654 26.0002 9.75379C26.0266 11.5542 25.3672 13.2261 23.6616 14.6664C22.2637 15.8496 20.391 16.5526 18.2194 16.947C18.0084 16.9813 17.7886 17.0156 17.4897 17.067C17.5776 16.8527 17.6303 16.6727 17.7182 16.4926C18.1754 15.5838 18.9843 14.8379 20.1448 14.2549C20.3382 14.1606 20.3734 14.092 20.2064 13.9634C19.9602 13.7748 19.7404 13.569 19.4678 13.329C19.0107 13.6119 18.5447 13.8691 18.1315 14.1606C17.0852 14.8893 16.3115 15.7124 16.0214 16.7156C15.9599 16.9213 15.9423 17.1356 15.9335 17.35C15.9247 18.1645 15.9247 18.979 15.9335 19.7934C15.9335 19.9478 15.872 20.0078 15.6258 19.9992C15.1774 19.9821 14.7202 19.9992 14.2367 19.9992C14.2279 19.922 14.2191 19.8535 14.2191 19.7849C14.2191 17.4871 14.2367 15.198 14.2191 12.9003C14.2015 9.94239 12.4255 7.5332 8.9703 5.65558C8.87359 5.60414 8.76808 5.5527 8.6362 5.49268C8.34607 5.74989 8.07353 5.99854 7.7834 6.26433C11.0979 7.97905 12.7684 10.2167 12.7684 13.046Z" stroke="#C1C1C1" stroke-linejoin="round"/>
<path d="M13.956 26.8497C9.97641 26.8497 5.99686 26.8497 2.01731 26.8497C1.50439 26.8497 1.10643 26.6532 1.06221 26.3495C1.03568 26.1977 1.09759 26.0101 1.2214 25.8761C1.6282 25.4206 2.07038 24.983 2.52139 24.5453C3.19349 23.8933 4.12206 23.5361 5.29823 23.5093C5.89959 23.4914 6.40366 23.3575 6.82815 23.0538C7.38528 22.6697 7.97779 22.2946 8.55262 21.9105C9.27778 21.4282 10.1444 21.196 11.1438 21.196C11.9131 21.196 12.6825 21.1424 13.4342 21.3211C13.956 21.4461 14.4158 21.6337 14.8049 21.9016C15.0614 22.0803 15.3179 22.2589 15.5743 22.4286C15.9457 22.6787 16.3879 22.8037 16.9097 22.8037C18.1301 22.8037 19.3593 22.8037 20.5797 22.8037C21.6144 22.8037 22.5164 23.0359 23.2504 23.5361C24.3559 24.2863 25.4613 25.0366 26.5579 25.7958C26.8497 25.9923 26.9293 26.2513 26.779 26.4835C26.6109 26.7336 26.3014 26.8408 25.8946 26.8408C21.9151 26.8497 17.9355 26.8497 13.956 26.8497Z" stroke="#C1C1C1" stroke-linejoin="round"/>
<path d="M25.9677 2.69606C25.9677 5.35766 23.1113 7.60842 19.229 8.0014C18.9372 8.0282 18.6365 8.03713 18.3447 8.05499C18.1766 8.06392 18.097 8.02816 18.0794 7.90312C17.7964 6.00963 18.6896 4.42875 20.7766 3.16941C22.1297 2.35663 23.7303 1.94578 25.5255 1.88326C25.7908 1.87433 25.9058 1.92792 25.9146 2.10655C25.9235 2.30304 25.95 2.49957 25.9677 2.69606Z" stroke="#C1C1C1" stroke-linejoin="round"/>
</svg>
