<svg width="35" height="50" viewBox="0 0 35 50" fill="none" xmlns="http://www.w3.org/2000/svg">
<path d="M16.7679 12.046C16.1789 11.9946 15.6514 11.9689 15.1326 11.9089C13.0489 11.686 11.1763 11.1715 9.66406 10.1684C8.46836 9.37106 7.71225 8.41085 7.18474 7.36487C6.60447 6.20743 6.3495 5.01569 6.1385 3.81539C5.99783 2.98375 5.80442 2.16069 5.40878 1.36335C5.32965 1.20045 5.22415 1.04609 5.11865 0.90034C4.78455 0.437365 5.18898 -0.00845191 5.95388 0.000121697C10.0685 0.0172689 13.5237 1.0204 16.2228 3.07807C17.6823 4.19264 18.5703 5.51296 19.1681 6.92761C19.7748 8.3594 20.0297 9.82548 19.9858 11.3173C19.9858 11.3859 19.9858 11.463 19.9858 11.5316C19.9858 11.5402 20.0033 11.5488 20.0297 11.5745C20.0737 11.5402 20.1264 11.5145 20.1616 11.4802C21.5068 10.0741 23.441 9.16532 25.7972 8.64233C26.8171 8.41941 27.8809 8.28222 28.9359 8.14504C29.5865 8.05931 29.9909 8.31654 29.9997 8.75379C30.0261 10.5542 29.3667 12.2261 27.6611 13.6664C26.2632 14.8496 24.3905 15.5526 22.2189 15.947C22.0079 15.9813 21.7881 16.0156 21.4892 16.067C21.5771 15.8527 21.6298 15.6727 21.7178 15.4926C22.1749 14.5838 22.9838 13.8379 24.1443 13.2549C24.3378 13.1606 24.3729 13.092 24.2059 12.9634C23.9597 12.7748 23.7399 12.569 23.4674 12.329C23.0102 12.6119 22.5442 12.8691 22.131 13.1606C21.0847 13.8893 20.3111 14.7124 20.0209 15.7156C19.9594 15.9213 19.9418 16.1356 19.933 16.35C19.9242 17.1645 19.9242 17.979 19.933 18.7934C19.933 18.9478 19.8715 19.0078 19.6253 18.9992C19.1769 18.9821 18.7197 18.9992 18.2362 18.9992C18.2274 18.922 18.2186 18.8535 18.2186 18.7849C18.2186 16.4871 18.2362 14.198 18.2186 11.9003C18.201 8.94239 16.425 6.5332 12.9698 4.65558C12.8731 4.60414 12.7676 4.5527 12.6357 4.49268C12.3456 4.74989 12.073 4.99855 11.7829 5.26433C15.0975 6.97905 16.7679 9.21673 16.7679 12.046Z" fill="#63F23B"/>
<path d="M17.9555 25.8497C13.9759 25.8497 9.99637 25.8497 6.01682 25.8497C5.5039 25.8497 5.10594 25.6532 5.06173 25.3495C5.0352 25.1977 5.09711 25.0101 5.22091 24.8761C5.62771 24.4206 6.06989 23.983 6.5209 23.5453C7.19301 22.8933 8.12157 22.5361 9.29775 22.5093C9.8991 22.4914 10.4032 22.3575 10.8277 22.0538C11.3848 21.6697 11.9773 21.2946 12.5521 20.9105C13.2773 20.4282 14.144 20.196 15.1433 20.196C15.9126 20.196 16.682 20.1424 17.4337 20.3211C17.9555 20.4461 18.4153 20.6337 18.8045 20.9016C19.0609 21.0803 19.3174 21.2589 19.5738 21.4286C19.9453 21.6787 20.3874 21.8037 20.9092 21.8037C22.1296 21.8037 23.3588 21.8037 24.5792 21.8037C25.6139 21.8037 26.5159 22.0359 27.2499 22.5361C28.3554 23.2863 29.4608 24.0366 30.5574 24.7958C30.8492 24.9923 30.9288 25.2513 30.7785 25.4835C30.6105 25.7336 30.3009 25.8408 29.8941 25.8408C25.9146 25.8497 21.935 25.8497 17.9555 25.8497Z" fill="#63F23B"/>
<path d="M29.9672 1.69606C29.9672 4.35766 27.1108 6.60842 23.2285 7.0014C22.9367 7.0282 22.636 7.03713 22.3442 7.05499C22.1761 7.06392 22.0966 7.02816 22.0789 6.90312C21.7959 5.00963 22.6891 3.42875 24.7761 2.1694C26.1292 1.35663 27.7298 0.94578 29.525 0.88326C29.7903 0.874328 29.9053 0.927917 29.9142 1.10655C29.923 1.30304 29.9495 1.49957 29.9672 1.69606Z" fill="#63F23B"/>
<path d="M4.44324 34.5356C7.24324 34.5356 8.53924 35.8796 8.53924 37.9116C8.53924 39.9276 7.22724 41.4476 4.95524 41.4476H2.39524V45.2876H1.37124V34.5356H4.44324ZM4.95524 40.4236C6.34724 40.4236 7.51524 39.7676 7.51524 38.0076C7.51524 36.2476 6.26724 35.5596 4.87524 35.5596H2.39524V40.4236H4.95524ZM11.0984 44.2636H15.7064V45.2876H10.0744V34.5356H11.0984V44.2636ZM26.0759 45.2876L25.0199 42.9836H19.1959L18.1399 45.2876H16.9879L22.1079 34.2796L27.2279 45.2876H26.0759ZM19.6599 41.9596H24.5559L22.1079 36.5836L19.6599 41.9596ZM33.5086 34.5356H34.6606L30.8206 40.4236V45.2876H29.7966V40.4236L25.9566 34.5356H27.1086L30.3086 39.4636L33.5086 34.5356Z" fill="#63F23B"/>
</svg>
