<svg width="35" height="35" viewBox="0 0 35 35" fill="none" xmlns="http://www.w3.org/2000/svg">
<path d="M2.64049 25.1701C4.39049 25.1701 5.20049 26.0101 5.20049 27.2801C5.20049 28.5401 4.38049 29.4901 2.96049 29.4901H1.36049V31.8901H0.720488V25.1701H2.64049ZM2.96049 28.8501C3.83049 28.8501 4.56049 28.4401 4.56049 27.3401C4.56049 26.2401 3.78049 25.8101 2.91049 25.8101H1.36049V28.8501H2.96049ZM10.7999 31.8901H10.0399L8.22994 29.4901H6.79994V31.8901H6.15994V25.1701H8.07994C9.82994 25.1701 10.6399 26.0101 10.6399 27.2801C10.6399 28.3701 10.0299 29.2301 8.93994 29.4401L10.7999 31.8901ZM6.79994 25.8101V28.8501H8.39994C9.26994 28.8501 9.99994 28.4401 9.99994 27.3401C9.99994 26.2401 9.21994 25.8101 8.34994 25.8101H6.79994ZM14.7194 25.0901C16.6194 25.0901 18.1594 26.6301 18.1594 28.5301C18.1594 30.4301 16.6194 31.9701 14.7194 31.9701C12.8194 31.9701 11.2794 30.4301 11.2794 28.5301C11.2794 26.6301 12.8194 25.0901 14.7194 25.0901ZM14.7194 31.3301C16.2794 31.3301 17.5194 30.0901 17.5194 28.5301C17.5194 26.9701 16.2794 25.7301 14.7194 25.7301C13.1594 25.7301 11.9194 26.9701 11.9194 28.5301C11.9194 30.0901 13.1594 31.3301 14.7194 31.3301ZM19.1971 31.8901V25.1701H22.8771V25.8101H19.8371V28.2101H22.3971V28.8501H19.8371V31.8901H19.1971ZM24.6417 31.8901H24.0017V25.1701H24.6417V31.8901ZM26.7218 31.2501H29.6018V31.8901H26.0818V25.1701H26.7218V31.2501ZM34.4005 25.8101H31.3605V28.2101H33.9205V28.8501H31.3605V31.2501H34.4005V31.8901H30.7205V25.1701H34.4005V25.8101Z" fill="#63F23B"/>
<path d="M18.3229 17.5319C18.3545 17.4362 18.3798 17.3661 18.405 17.2959C18.9232 15.6569 19.435 14.0116 19.9531 12.3726C20.0416 12.0983 20.465 11.9261 20.8125 12.0218C20.8757 12.0409 20.9389 12.0601 20.9957 12.092C21.8361 12.5766 22.7524 12.8891 23.6686 13.1889C24.0667 13.3164 24.4584 13.4886 24.8376 13.6863C25.7538 14.1582 26.234 14.9172 26.253 15.9631C26.2593 16.4159 26.2656 16.8686 26.253 17.3278C26.2403 17.9974 25.7664 18.4566 25.103 18.4566C19.713 18.4566 14.3231 18.4566 8.93317 18.4566C8.27601 18.4566 7.80842 17.9911 7.8021 17.3342C7.79578 16.8623 7.79578 16.384 7.8021 15.912C7.81474 14.9745 8.2381 14.2667 9.01531 13.7692C9.59032 13.3993 10.2285 13.1889 10.873 12.9975C11.5871 12.7871 12.2821 12.5256 12.933 12.1493C13.2489 11.9708 13.5585 11.9899 13.8618 12.1749C14.0135 12.2641 14.1083 12.3853 14.1651 12.5639C14.6643 14.1837 15.1761 15.7972 15.6816 17.4107C15.6943 17.449 15.7132 17.4809 15.7701 17.5192C15.8017 17.3533 15.8396 17.1875 15.8649 17.0217C16.0228 16.1416 16.1808 15.2615 16.3325 14.3814C16.3451 14.3113 16.2819 14.2284 16.2693 14.1519C16.1871 13.6544 16.105 13.1506 16.0418 12.6532C16.0229 12.5129 16.105 12.4172 16.263 12.4172C16.7685 12.4172 17.2803 12.4172 17.7858 12.4172C17.9817 12.4172 18.0449 12.5065 18.0133 12.7424C17.9627 13.0996 17.9059 13.4567 17.8427 13.8138C17.8174 13.9733 17.7605 14.1263 17.7163 14.2794C17.71 14.3049 17.71 14.3304 17.71 14.3559C17.8932 15.3891 18.0828 16.4222 18.2723 17.4617C18.266 17.4745 18.2787 17.4872 18.3229 17.5319Z" fill="#63F23B"/>
<path d="M20.7687 7.17483C20.6486 7.58298 20.5349 7.97203 20.4085 8.35468C20.2253 8.91589 19.9915 9.45794 19.6629 9.95538C19.1574 10.7015 18.475 11.1607 17.5777 11.2691C16.6172 11.3839 15.701 11.2628 14.9175 10.625C14.3298 10.1467 13.976 9.50259 13.7232 8.80745C13.5526 8.3419 13.4263 7.85722 13.2872 7.37891C13.2557 7.27049 13.2051 7.23862 13.104 7.19398C12.9334 7.11745 12.7438 7.0154 12.6427 6.86234C12.232 6.26924 12.1562 5.606 12.3837 4.92999C12.4405 4.75143 12.6301 4.62385 12.7438 4.46441C12.7944 4.40064 12.8323 4.31136 12.8386 4.22845C12.8702 3.48229 13.0155 2.76804 13.3504 2.09841C13.9002 1.00787 14.7848 0.344582 15.9727 0.114995C16.9964 -0.0890835 18.0011 -0.0380562 18.9615 0.401987C20.1873 0.963202 20.8698 1.97084 21.1415 3.27184C21.211 3.59071 21.211 3.92235 21.2552 4.2476C21.2679 4.31775 21.3058 4.4198 21.3626 4.45169C21.5775 4.5601 21.7039 4.74504 21.767 4.96187C21.9629 5.61237 21.8934 6.23734 21.5396 6.81769C21.369 7.08554 21.1415 7.27049 20.7687 7.17483Z" fill="#63F23B"/>
</svg>
