<svg width="37" height="34" viewBox="0 0 37 34" fill="none" xmlns="http://www.w3.org/2000/svg">
<path d="M0.720488 30.4233V23.7033H4.40049V24.3433H1.36049V26.7433H3.92049V27.3833H1.36049V30.4233H0.720488ZM10.1652 30.4233H9.40518L7.59518 28.0233H6.16518V30.4233H5.52518V23.7033H7.44518C9.19518 23.7033 10.0052 24.5433 10.0052 25.8133C10.0052 26.9033 9.39518 27.7633 8.30518 27.9733L10.1652 30.4233ZM6.16518 24.3433V27.3833H7.76518C8.63518 27.3833 9.36518 26.9733 9.36518 25.8733C9.36518 24.7733 8.58518 24.3433 7.71518 24.3433H6.16518ZM11.8488 30.4233H11.2088V23.7033H11.8488V30.4233ZM16.9688 24.3433H13.9288V26.7433H16.4888V27.3833H13.9288V29.7833H16.9688V30.4233H13.2888V23.7033H16.9688V24.3433ZM23.5298 30.5833L18.8898 25.2233V30.4233H18.2498V23.5433L22.8898 28.9033V23.7033H23.5298V30.5833ZM26.8185 23.7033C29.0585 23.7033 30.2485 25.2033 30.2485 27.0633C30.2485 28.9233 29.0085 30.4233 26.8185 30.4233H24.9685V23.7033H26.8185ZM26.8785 29.7833C28.5685 29.7833 29.6085 28.6433 29.6085 27.0633C29.6085 25.4833 28.5685 24.3433 26.8785 24.3433H25.6085V29.7833H26.8785ZM33.4288 26.6233C35.0788 26.9533 35.6888 27.4833 35.6888 28.6133C35.6888 29.6233 34.6988 30.5033 33.3088 30.5033C31.7888 30.5033 31.0088 29.5833 30.8888 29.4133L31.2088 28.8433C31.6188 29.3833 32.3388 29.8633 33.3288 29.8633C34.2688 29.8633 35.0488 29.2933 35.0488 28.5733C35.0488 27.9533 34.6588 27.5033 33.3588 27.2633C31.5488 26.9333 31.1288 26.3133 31.1288 25.4133C31.1288 24.4233 31.9988 23.6233 33.3688 23.6233C33.6388 23.6233 34.6088 23.6533 35.3688 24.4233L35.0688 24.9733C34.7388 24.6133 34.1388 24.2633 33.3588 24.2633C32.4888 24.2633 31.7688 24.6533 31.7688 25.3733C31.7688 26.0733 32.2788 26.3933 33.4288 26.6233Z" fill="#63F23B"/>
<path d="M21.0987 4.52956C21.0987 7.03116 19.0667 9.05912 16.5601 9.05912C14.0535 9.05912 12.0216 7.03116 12.0216 4.52956C12.0216 2.02795 14.0535 0 16.5601 0C19.0667 0 21.0987 2.02795 21.0987 4.52956Z" fill="#63F23B"/>
<path d="M23.6057 15.6415C23.6297 15.761 23.7308 15.8535 23.8529 15.8535H25.8787C26.5611 15.8535 27.0746 15.2545 26.8465 14.6125C26.3699 13.2715 25.2295 11.3239 22.6254 11.3239C22.4829 11.3239 22.3448 11.3297 22.2109 11.341C21.7847 11.3768 21.6755 11.8999 21.9617 12.2172C22.9882 13.3556 23.4194 14.7118 23.6057 15.6415Z" fill="#63F23B"/>
<path d="M16.5601 11.3239C20.6125 11.3239 21.7703 14.2128 22.101 15.8635C22.2239 16.4768 21.7253 16.9858 21.0987 16.9858H12.0216C11.3949 16.9858 10.8963 16.4768 11.0192 15.8635C11.35 14.2128 12.5077 11.3239 16.5601 11.3239Z" fill="#63F23B"/>
<path d="M20.9031 8.5928C21.9653 7.56383 22.6254 6.12363 22.6254 4.52956C22.6254 3.73613 22.4619 2.98083 22.1666 2.29537C22.3167 2.2752 22.4698 2.26478 22.6254 2.26478C24.5053 2.26478 26.0293 3.78575 26.0293 5.66195C26.0293 7.53815 24.5053 9.05912 22.6254 9.05912C21.997 9.05912 21.4083 8.88916 20.9031 8.5928Z" fill="#63F23B"/>
</svg>
