<svg width="28" height="36" viewBox="0 0 28 36" fill="none" xmlns="http://www.w3.org/2000/svg">
<path d="M0.400488 25.9148H4.56049V26.5548H2.80049V32.6348H2.16049V26.5548H0.400488V25.9148ZM9.76439 32.6348L9.1044 31.1948H5.46439L4.80439 32.6348H4.08439L7.28439 25.7548L10.4844 32.6348H9.76439ZM5.75439 30.5548H8.81439L7.28439 27.1948L5.75439 30.5548ZM13.5069 28.8348C15.1569 29.1648 15.7669 29.6948 15.7669 30.8248C15.7669 31.8348 14.7769 32.7148 13.3869 32.7148C11.8669 32.7148 11.0869 31.7948 10.9669 31.6248L11.2869 31.0548C11.6969 31.5948 12.4169 32.0748 13.4069 32.0748C14.3469 32.0748 15.1269 31.5048 15.1269 30.7848C15.1269 30.1648 14.7369 29.7148 13.4369 29.4748C11.6269 29.1448 11.2069 28.5248 11.2069 27.6248C11.2069 26.6348 12.0769 25.8348 13.4469 25.8348C13.7169 25.8348 14.6869 25.8648 15.4469 26.6348L15.1469 27.1848C14.8169 26.8248 14.2169 26.4748 13.4369 26.4748C12.5669 26.4748 11.8469 26.8648 11.8469 27.5848C11.8469 28.2848 12.3569 28.6048 13.5069 28.8348ZM18.0826 29.2448L21.2026 32.6348H20.3226L17.5226 29.5948V32.6348H16.8826V25.9148H17.5226V28.9548L20.1626 25.9148H21.0426L18.0826 29.2448ZM24.3858 28.8348C26.0358 29.1648 26.6458 29.6948 26.6458 30.8248C26.6458 31.8348 25.6558 32.7148 24.2658 32.7148C22.7458 32.7148 21.9658 31.7948 21.8458 31.6248L22.1658 31.0548C22.5758 31.5948 23.2958 32.0748 24.2858 32.0748C25.2258 32.0748 26.0058 31.5048 26.0058 30.7848C26.0058 30.1648 25.6158 29.7148 24.3158 29.4748C22.5058 29.1448 22.0858 28.5248 22.0858 27.6248C22.0858 26.6348 22.9558 25.8348 24.3258 25.8348C24.5958 25.8348 25.5658 25.8648 26.3258 26.6348L26.0258 27.1848C25.6958 26.8248 25.0958 26.4748 24.3158 26.4748C23.4458 26.4748 22.7258 26.8648 22.7258 27.5848C22.7258 28.2848 23.2358 28.6048 24.3858 28.8348Z" fill="#63F23B"/>
<path d="M11.7614 3.17766C12.5995 1.16994 13.0186 0.16608 13.6994 0.0269492C13.8784 -0.0096341 14.0634 -0.0096341 14.2425 0.0269492C14.9233 0.16608 15.3424 1.16994 16.1805 3.17766C16.6571 4.31942 16.8954 4.89029 17.3413 5.27858C17.4664 5.38749 17.6022 5.48449 17.7467 5.56821C18.2621 5.8667 18.9055 5.92207 20.1923 6.0328C22.3706 6.22026 23.4597 6.31398 23.7923 6.9107C23.8612 7.03429 23.908 7.1681 23.9309 7.30656C24.0411 7.97513 23.2404 8.6751 21.6391 10.075L21.1944 10.4638C20.4457 11.1183 20.0714 11.4455 19.8549 11.8539C19.725 12.0989 19.6379 12.3628 19.5971 12.6349C19.5291 13.0885 19.6387 13.5633 19.8579 14.5128L19.9363 14.852C20.3294 16.5547 20.526 17.4061 20.2806 17.8246C20.0602 18.2005 19.6542 18.4411 19.2057 18.4617C18.7063 18.4846 18.0028 17.9337 16.5957 16.832C15.6686 16.1061 15.2051 15.7432 14.6905 15.6014C14.2203 15.4718 13.7216 15.4718 13.2514 15.6014C12.7368 15.7432 12.2733 16.1061 11.3462 16.832C9.93909 17.9337 9.23553 18.4846 8.73622 18.4617C8.28771 18.4411 7.88169 18.2005 7.66127 17.8246C7.41587 17.4061 7.61245 16.5547 8.00561 14.852L8.08394 14.5128C8.30318 13.5633 8.41279 13.0885 8.34477 12.6349C8.30396 12.3628 8.21688 12.0989 8.08699 11.8539C7.87048 11.4455 7.49614 11.1183 6.74748 10.4638L6.30279 10.075C4.70143 8.6751 3.90075 7.97513 4.01101 7.30656C4.03385 7.1681 4.08068 7.03429 4.14957 6.9107C4.48216 6.31398 5.5713 6.22026 7.74959 6.0328C9.03636 5.92207 9.67975 5.8667 10.1951 5.56821C10.3397 5.48449 10.4755 5.38749 10.6005 5.27858C11.0465 4.89029 11.2848 4.31942 11.7614 3.17766Z" fill="#63F23B"/>
</svg>
