<svg width="193" height="193" viewBox="0 0 193 193" fill="none" xmlns="http://www.w3.org/2000/svg">
<path d="M96.5 193C149.795 193 193 149.795 193 96.5C193 43.2045 149.795 0 96.5 0C43.2045 0 0 43.2045 0 96.5C0 149.795 43.2045 193 96.5 193Z" fill="#FFF2BB"/>
<path d="M49.4604 91.9142C49.5044 91.1071 49.2183 90.3514 48.4112 89.7864C46.7016 88.5904 43.9281 89.2581 42.0717 89.8011C39.9586 90.4174 37.8601 91.2172 35.9524 92.3178C34.5217 93.1396 32.2471 94.7244 32.9148 96.6908C33.5898 98.6865 36.4734 99.0681 38.2343 99.1928C40.8758 99.3762 43.7153 99.0754 46.1733 98.0555C48.1103 97.2484 50.0914 95.6269 50.0254 93.323C50.0107 92.714 49.7979 92.2518 49.4604 91.9142Z" fill="#6E4931"/>
<path d="M62.1688 92.1416C61.3323 91.5693 60.1584 91.3052 59.0064 91.3639C58.7936 91.3125 58.5809 91.2831 58.3901 91.2758C56.6878 91.1731 54.516 92.2076 54.3032 94.0933C54.0978 95.9497 56.2549 96.1918 57.6197 96.0157C59.2779 95.8029 61.5158 95.0105 62.3009 93.3889C62.4916 92.9707 62.609 92.4498 62.1688 92.1416Z" fill="#6E4931"/>
<path d="M96.8815 92.9341C96.1551 90.0506 91.7233 88.9206 89.2067 88.6418C87.4164 88.4437 85.6114 89.06 84.364 90.3881C83.4322 91.3786 82.9113 92.8754 83.5203 93.9907C83.6377 94.3135 83.8578 94.629 84.1953 94.9225C86.0369 96.5 89.192 96.7715 91.5032 96.8082C93.7044 96.8375 97.6665 96.0378 96.8815 92.9341Z" fill="#6E4931"/>
<path d="M114.505 92.2589C113.559 89.7789 110.712 89.5294 108.562 90.5199C106.853 91.305 104.769 93.2127 105.062 95.2745C104.938 95.5753 104.872 95.9055 104.864 96.265C104.864 96.7053 105.07 96.9914 105.481 97.1455C108.283 98.1654 116.186 96.6612 114.505 92.2589Z" fill="#6E4931"/>
<path d="M152.124 91.9509C151.06 90.887 149.072 90.41 147.611 90.3954C146.093 90.3807 144.449 90.8356 143.084 91.4886C142.042 91.9802 140.348 93.0001 140.678 94.4089C141.059 96.0598 144.148 96.3826 145.418 96.544C146.834 96.7201 148.917 96.588 150.4 95.7736C150.517 95.8029 150.664 95.7809 150.796 95.6855C152.014 94.8271 153.569 93.4036 152.124 91.9509Z" fill="#6E4931"/>
<path d="M165.566 92.3177C165.544 90.9089 163.959 90.3073 162.785 90.1459C160.136 89.779 156.438 90.4761 154.795 92.802C154.178 93.6751 153.804 94.9004 154.699 95.7149C155.418 96.3679 156.541 96.4706 157.473 96.5C159.513 96.5513 162.264 96.3165 164.01 95.1352C164.612 94.7243 165.368 94.0126 165.36 93.2129C165.492 92.934 165.573 92.6405 165.566 92.3177Z" fill="#6E4931"/>
<path d="M175.42 92.5966C175.06 91.54 173.915 91.3492 172.984 91.7748C172.463 92.0096 171.942 92.5012 171.883 93.1102C171.846 93.5357 172.096 93.8219 172.419 93.8732C172.499 93.9539 172.602 94.0273 172.719 94.0714C173.262 94.2621 173.739 94.2034 174.282 94.0347C174.803 93.8586 175.654 93.2936 175.42 92.5966Z" fill="#6E4931"/>
<path d="M24.345 93.8072C24.2349 92.6773 22.7087 91.9802 21.7109 91.9362C20.5296 91.8848 19.3703 92.6772 18.9961 93.7999C18.9521 93.9393 18.9227 94.1007 18.908 94.2548C18.7833 94.5409 18.7686 94.8344 18.9887 95.0692C19.0328 95.1132 19.0768 95.1499 19.1208 95.194C19.2382 95.3627 19.4143 95.5241 19.6051 95.6048C19.6344 95.6195 19.6638 95.6268 19.6931 95.6342C20.3975 96.0524 21.2413 96.1991 22.0924 96.0451C23.1196 95.8543 24.4624 95.0178 24.345 93.8072Z" fill="#6E4931"/>
<path d="M76.7919 91.7454C76.6158 91.6133 76.4031 91.5693 76.1903 91.5766C76.0509 91.5106 75.8821 91.4739 75.7354 91.4739C75.618 91.4739 75.5006 91.4885 75.3832 91.5106C75.3098 91.5252 75.2364 91.5546 75.1631 91.5766C75.1264 91.5913 74.7962 91.6793 75.119 91.5913C74.5247 91.7454 73.8203 92.391 74.1945 93.0514C74.4073 93.4256 74.8916 93.587 75.2878 93.587C75.9335 93.587 76.5278 93.2495 76.8873 92.7212C77.1001 92.413 77.1074 91.9801 76.7919 91.7454Z" fill="#6E4931"/>
<path d="M124.514 93.1395C124.484 93.1102 124.462 93.0808 124.44 93.0441C124.455 92.9928 124.47 92.9341 124.477 92.8754C124.543 92.5159 124.257 92.2737 123.971 92.149C123.831 92.0903 123.56 92.105 123.435 92.1343C123.384 92.149 123.2 92.2077 123.149 92.2297C122.995 92.2884 122.863 92.3765 122.745 92.4938C122.547 92.6626 122.584 92.6333 122.841 92.4131C122.782 92.4572 122.738 92.4939 122.672 92.5526C122.606 92.6113 122.555 92.6626 122.503 92.714C122.437 92.7727 122.371 92.8314 122.32 92.8901C122.07 93.1689 121.88 93.5651 122.048 93.932C122.202 94.2621 122.635 94.4016 122.98 94.2988C123.186 94.2401 123.347 94.1741 123.516 94.0934C123.538 94.1007 123.56 94.1081 123.582 94.1154C123.853 94.2035 124.206 94.0493 124.382 93.8439C124.521 93.6898 124.712 93.345 124.514 93.1395Z" fill="#6E4931"/>
<path d="M177.511 93.5283C174.4 93.1908 171.26 93.455 168.156 93.7411C164.949 94.0346 161.75 94.4382 158.544 94.739C155.308 95.0398 152.006 95.3407 148.763 95.0545C145.645 94.783 142.541 94.3281 139.438 93.9026C136.099 93.455 132.753 93.0368 129.386 92.9194C126.128 92.802 122.907 93.0808 119.693 93.565C113.434 94.5042 107.242 95.8176 100.88 95.8103C94.5995 95.8029 88.4142 94.5923 82.2289 93.6751C78.8831 93.1762 75.5593 92.7506 72.1695 92.846C68.8457 92.9414 65.5512 93.3596 62.2715 93.8732C56.0935 94.8417 49.9742 95.979 43.6935 96.0891C33.3919 96.2652 23.2004 94.4455 12.9429 93.9172C12.9355 94.2547 12.9355 94.5923 12.9355 94.9298C12.9355 140.927 50.2236 178.215 96.2211 178.215C142.219 178.215 179.507 140.927 179.507 94.9298C179.507 94.5409 179.507 94.152 179.499 93.7631C178.824 93.6898 178.171 93.6017 177.511 93.5283Z" fill="#6E4931"/>
<path d="M27.977 103.133C30.8899 104.241 33.8541 104.982 36.9872 105.063C40.0982 105.143 43.1798 104.623 46.1661 103.786C51.8305 102.209 57.062 99.4498 62.9611 98.7087C66.1162 98.3125 69.3446 98.5326 72.5143 98.5546C75.7647 98.5766 79.0151 98.5766 82.2655 98.4446C88.4655 98.1951 94.6362 97.4394 100.66 99.4278C103.492 100.36 106.251 101.504 109.208 101.996C112.429 102.524 115.518 102.025 118.644 101.225C121.527 100.484 124.382 99.5745 127.346 99.1563C130.075 98.7674 132.827 98.9362 135.542 99.3984C138.521 99.9047 141.426 100.756 144.383 101.387C147.479 102.047 150.642 102.414 153.811 102.282C159.601 102.04 165.228 100.286 171.039 100.279C173.769 100.272 176.484 100.602 179.206 100.69C179.242 100.69 179.272 100.69 179.309 100.69C179.441 98.7968 179.507 96.8817 179.507 94.9594C179.507 94.5705 179.507 94.1816 179.499 93.7927C178.839 93.6973 178.186 93.6166 177.526 93.5433C174.422 93.2057 171.274 93.4699 168.171 93.756C164.964 94.0495 161.765 94.4531 158.559 94.7539C155.323 95.0547 152.021 95.3556 148.778 95.0694C145.66 94.7979 142.556 94.343 139.452 93.9174C136.114 93.4699 132.768 93.0517 129.4 92.9343C126.143 92.8169 122.921 93.0957 119.708 93.5799C113.449 94.5191 107.256 95.8325 100.895 95.8251C94.6142 95.8178 88.4289 94.6072 82.2435 93.69C78.8977 93.1911 75.5739 92.7655 72.1841 92.8609C68.8603 92.9563 65.5659 93.3745 62.2861 93.8881C56.1081 94.8566 49.9888 95.9939 43.7081 96.104C33.4066 96.2801 23.2151 94.4604 12.9575 93.9321C12.9502 94.2697 12.9502 94.6071 12.9502 94.9447C12.9502 96.6543 13.0016 98.3492 13.1043 100.029C18.1964 100.073 23.1931 101.313 27.977 103.133Z" fill="#6E4931"/>
<path d="M28.2852 99.0387C30.2736 98.5104 32.1592 97.5712 34.2357 97.3878C35.3803 97.2851 36.5469 97.4685 37.6842 97.5566C38.9242 97.6519 40.1716 97.6813 41.4116 97.5566C43.6641 97.3291 45.968 96.3679 48.2499 96.6174C49.2625 96.7274 50.2236 97.0723 51.2068 97.2924C52.4689 97.5786 53.7309 97.5932 54.9855 97.2557C57.15 96.6687 59.0504 95.4654 61.3616 95.4434C62.4989 95.4361 63.6362 95.6195 64.7588 95.7883C66.0869 95.9864 67.3929 96.0451 68.7356 96.023C70.049 96.001 71.3624 95.913 72.6757 95.869C73.7763 95.8323 74.8182 95.8103 75.8895 96.0818C77.0854 96.3899 78.2667 96.8522 79.5141 96.8962C80.7541 96.9402 81.9134 96.4706 83.0653 96.0744C84.0632 95.7296 85.0464 95.4654 86.1103 95.5535C87.2109 95.6488 88.2821 95.9423 89.3534 96.1845C90.542 96.4559 91.738 96.522 92.934 96.7274C93.9245 96.9035 94.871 97.2557 95.8322 97.5492C97.0575 97.9234 98.3269 98.2022 99.6109 98.2242C100.8 98.2462 101.974 98.0628 103.133 97.85C104.167 97.6593 105.202 97.4391 106.244 97.3511C107.432 97.2484 108.614 97.4245 109.802 97.4538C110.91 97.4832 111.982 97.2631 113.082 97.2117C114.175 97.1603 115.21 97.3511 116.281 97.5052C117.595 97.696 118.761 97.6373 120.023 97.2117C120.992 96.8889 121.916 96.4339 122.907 96.1624C124.572 95.7075 126.436 95.6708 128.153 95.6562C129.004 95.6488 129.863 95.6562 130.714 95.7663C130.728 95.7663 130.75 95.7736 130.765 95.7736C131.719 95.6195 132.702 95.6122 133.649 95.6268C135.255 95.6562 136.848 95.8029 138.447 95.957C139.086 96.0157 139.717 96.0817 140.355 96.1184C141.279 96.1771 142.211 96.1404 143.143 96.1918C145.109 96.2945 147.039 96.544 148.925 97.131C150.656 97.6739 152.307 98.5544 154.149 98.6571C156.225 98.7672 158.221 97.9234 160.173 97.3218C161.134 97.0283 162.103 96.7715 163.1 96.6541C164.208 96.5146 165.338 96.5587 166.446 96.6174C168.662 96.7274 170.885 96.9549 173.079 96.5146C175.06 96.1184 177.041 96.0964 179.052 96.0597C179.198 96.0597 179.338 96.0524 179.485 96.0524C179.492 95.6782 179.492 95.304 179.492 94.9371C179.492 94.5483 179.492 94.1594 179.485 93.7705C178.824 93.6751 178.171 93.5944 177.511 93.521C174.407 93.1835 171.26 93.4477 168.156 93.7338C164.949 94.0273 161.75 94.4309 158.544 94.7317C155.308 95.0325 152.006 95.3333 148.763 95.0472C145.645 94.7757 142.541 94.3208 139.438 93.8952C136.099 93.4477 132.753 93.0294 129.386 92.912C126.128 92.7946 122.907 93.0735 119.693 93.5577C113.434 94.4969 107.242 95.8103 100.88 95.8029C94.5995 95.7956 88.4142 94.5849 82.2289 93.6678C78.8831 93.1688 75.5593 92.7433 72.1695 92.8387C68.8457 92.934 65.5512 93.3523 62.2715 93.8659C56.0935 94.8344 49.9742 95.9717 43.6935 96.0818C33.3919 96.2578 23.2004 94.4382 12.9429 93.9099C12.9355 94.2474 12.9355 94.5849 12.9355 94.9224C12.9355 95.8983 12.9576 96.8742 12.9869 97.8427C16.0319 98.7599 19.3483 98.8846 22.474 99.1194C24.4478 99.2881 26.3334 99.5523 28.2852 99.0387Z" fill="#986749"/>
<path opacity="0.57" d="M149.849 139.034C144.28 139.1 138.829 140.839 133.524 142.366C128.358 143.855 123.098 145.256 117.683 145.205C111.93 145.154 106.332 143.672 100.704 142.674C97.6959 142.138 94.6656 141.757 91.6059 141.771C88.583 141.786 85.5673 142.072 82.5737 142.505C76.7773 143.334 71.0615 144.64 65.2504 145.366C62.4842 145.711 59.7254 145.975 56.9519 145.631C54.5526 145.337 52.2267 144.677 49.9595 143.862C44.8968 142.035 40.1055 139.651 34.764 138.712C31.4475 138.125 28.087 137.882 24.7266 137.684C39.2764 161.971 65.8521 178.23 96.2211 178.23C126.355 178.23 152.755 162.228 167.371 138.249C161.53 138.932 155.719 138.968 149.849 139.034Z" fill="#8C664B"/>
<path opacity="0.57" d="M144.787 156.835C139.526 157.209 134.581 159.366 129.349 159.975C123.905 160.606 118.387 160.848 112.914 160.731C107.528 160.613 102.157 160.041 96.7715 160.048C94.0494 160.056 91.3346 160.268 88.6712 160.841C85.9491 161.42 83.2563 162.095 80.5562 162.77C78.0468 163.394 75.5154 163.974 72.94 164.26C70.3133 164.561 67.6866 164.465 65.0671 164.143C60.2979 163.556 55.6534 162.25 51.1116 160.738C47.6704 159.593 44.2512 158.317 40.8101 157.121C55.5287 170.247 74.9431 178.23 96.2213 178.23C117.426 178.23 136.782 170.306 151.478 157.253C149.255 156.93 147.025 156.681 144.787 156.835Z" fill="#8C664B"/>
<g opacity="0.57">
<path d="M28.1014 114.139C26.8468 114.036 25.6288 114.344 24.9244 115.159C24.2787 115.907 23.9779 116.993 23.9779 117.969C23.9265 120.353 24.9611 122.679 27.7199 122.393C30.0238 122.151 32.1443 120.361 32.4745 118.027C32.79 115.834 30.3833 114.322 28.1014 114.139Z" fill="#8C664B"/>
<path d="M37.2954 124.418C37.2881 124.389 37.2807 124.367 37.2734 124.338C37.2734 124.308 37.2661 124.279 37.2661 124.25C37.2441 124.14 37.1854 124.044 37.0973 123.978C36.9652 123.846 36.7818 123.773 36.591 123.78C36.4149 123.78 36.2462 123.824 36.0774 123.89C35.938 123.949 35.8206 124.022 35.7106 124.125C35.6005 124.206 35.5051 124.316 35.4318 124.433C35.3437 124.616 35.2483 124.807 35.2557 125.02C35.2557 125.071 35.263 125.13 35.2703 125.181C35.2483 125.277 35.241 125.38 35.2703 125.475C35.3144 125.607 35.3877 125.71 35.4978 125.798C35.6665 125.93 35.938 125.923 36.1361 125.893C36.6131 125.812 37.1047 125.431 37.2441 124.961C37.3101 124.771 37.3248 124.624 37.2954 124.418Z" fill="#8C664B"/>
<path d="M48.6462 138.11C48.426 138.095 48.2206 138.161 48.0372 138.264C47.5382 138.264 47.1127 138.667 46.9146 139.093C46.7531 139.445 46.7972 139.9 47.0613 140.193C47.2961 140.45 47.6116 140.641 47.9711 140.648C48.7489 140.663 49.2845 139.959 49.3726 139.254C49.4459 138.733 49.2478 138.146 48.6462 138.11Z" fill="#8C664B"/>
<path d="M24.8219 108.981C24.5871 108.43 24.2349 107.954 23.5306 108.012C23.017 108.049 22.5547 108.372 22.2025 108.746C21.3954 109.612 21.5422 111.101 22.9803 111.02C23.1564 111.043 23.3325 111.065 23.5159 111.065C24.2203 111.043 25.2768 110.338 25.0054 109.502C24.954 109.326 24.8953 109.149 24.8219 108.981Z" fill="#8C664B"/>
<path d="M33.3844 130.494C32.746 130.105 32.0637 130.053 31.4694 130.244C31.44 130.244 31.4107 130.237 31.374 130.237C30.6989 130.222 30.0533 130.567 29.5984 131.037C28.8206 131.844 28.2776 133.304 29.026 134.309C30.0753 135.718 32.7094 134.874 33.7292 133.876C34.7785 132.849 34.6464 131.271 33.3844 130.494Z" fill="#8C664B"/>
<path d="M49.9007 128.689C49.3211 128.689 48.7781 129.716 49.5485 129.716C50.1282 129.716 50.6711 128.689 49.9007 128.689Z" fill="#8C664B"/>
<path d="M53.6281 108.577C52.9971 108.056 52.1019 108.02 51.3022 108.254C51.2655 108.254 51.2288 108.247 51.1921 108.247C50.0842 108.247 48.9469 109.039 48.8002 110.184C48.6681 111.263 49.4238 112.422 50.4437 112.767C51.5663 113.148 52.9164 112.635 53.6721 111.769C54.4866 110.844 54.6553 109.428 53.6281 108.577Z" fill="#8C664B"/>
<path d="M60.4663 109.201C59.7326 109.201 59.0429 110.507 60.0188 110.507C60.7525 110.507 61.4422 109.201 60.4663 109.201Z" fill="#8C664B"/>
<path d="M73.3949 122.393C72.1402 122.496 70.9222 122.188 70.2178 121.374C69.5722 120.625 69.2713 119.539 69.2713 118.563C69.22 116.179 70.2545 113.853 73.0134 114.139C75.3173 114.381 77.4377 116.171 77.7679 118.505C78.0834 120.706 75.6768 122.217 73.3949 122.393Z" fill="#8C664B"/>
<path d="M91.562 114.953C91.2245 114.975 90.909 114.88 90.6302 114.711C89.8598 114.711 89.2068 114.095 88.9059 113.435C88.6565 112.892 88.7225 112.202 89.1334 111.747C89.5003 111.351 89.9772 111.057 90.5275 111.05C91.7161 111.028 92.5379 112.106 92.6773 113.192C92.7874 113.992 92.4792 114.902 91.562 114.953Z" fill="#8C664B"/>
<path d="M62.6089 136.004C62.8804 135.168 61.8311 134.463 61.1194 134.441C60.936 134.434 60.7599 134.456 60.5838 134.485C59.1457 134.397 58.9989 135.894 59.806 136.76C60.1582 137.141 60.6131 137.457 61.1341 137.493C61.8385 137.545 62.1907 137.068 62.4254 136.525C62.4988 136.349 62.5575 136.173 62.6089 136.004Z" fill="#8C664B"/>
<path d="M72.485 105.862C71.8466 106.251 71.1643 106.303 70.5699 106.112C70.5406 106.112 70.5112 106.119 70.4746 106.119C69.7995 106.134 69.1539 105.789 68.6989 105.32C67.9212 104.512 67.3782 103.052 68.1266 102.047C69.1759 100.638 71.81 101.482 72.8298 102.48C73.8791 103.507 73.747 105.092 72.485 105.862Z" fill="#8C664B"/>
<path d="M82.8376 136.987C82.2066 137.508 81.3114 137.545 80.5116 137.31C80.475 137.31 80.4383 137.317 80.4016 137.317C79.2937 137.317 78.1564 136.525 78.0096 135.38C77.8776 134.302 78.6333 133.143 79.6532 132.798C80.7758 132.416 82.1258 132.93 82.8816 133.796C83.696 134.72 83.8648 136.136 82.8376 136.987Z" fill="#8C664B"/>
<path d="M98.0698 136.297C97.3361 136.297 96.6464 134.991 97.6223 134.991C98.356 134.991 99.0457 136.297 98.0698 136.297Z" fill="#8C664B"/>
<path d="M105.643 118.277C105.012 118.226 104.403 118.38 104.058 118.783C103.735 119.158 103.588 119.701 103.588 120.185C103.566 121.373 104.08 122.54 105.459 122.393C106.611 122.269 107.668 121.381 107.836 120.214C107.983 119.128 106.78 118.373 105.643 118.277Z" fill="#8C664B"/>
<path d="M116.89 124.418C116.883 124.389 116.875 124.367 116.868 124.338C116.868 124.308 116.861 124.279 116.861 124.25C116.839 124.14 116.78 124.044 116.692 123.978C116.56 123.846 116.377 123.773 116.186 123.78C116.01 123.78 115.841 123.824 115.672 123.89C115.533 123.949 115.415 124.022 115.305 124.125C115.195 124.206 115.1 124.316 115.026 124.433C114.938 124.616 114.843 124.807 114.85 125.02C114.85 125.071 114.858 125.13 114.865 125.181C114.843 125.277 114.836 125.38 114.865 125.475C114.909 125.607 114.982 125.71 115.093 125.798C115.261 125.93 115.533 125.923 115.731 125.893C116.208 125.812 116.699 125.431 116.839 124.961C116.912 124.771 116.919 124.624 116.89 124.418Z" fill="#8C664B"/>
<path d="M128.248 138.11C128.028 138.095 127.823 138.161 127.639 138.264C127.14 138.264 126.715 138.667 126.517 139.093C126.355 139.445 126.399 139.9 126.663 140.193C126.898 140.45 127.214 140.641 127.573 140.648C128.351 140.663 128.887 139.959 128.975 139.254C129.041 138.733 128.843 138.146 128.248 138.11Z" fill="#8C664B"/>
<path d="M104.417 108.981C104.182 108.43 103.83 107.954 103.125 108.012C102.612 108.049 102.149 108.372 101.797 108.746C100.99 109.612 101.137 111.101 102.575 111.02C102.751 111.043 102.927 111.065 103.111 111.065C103.815 111.043 104.872 110.338 104.6 109.502C104.549 109.326 104.49 109.149 104.417 108.981Z" fill="#8C664B"/>
<path d="M112.986 130.494C112.348 130.105 111.666 130.053 111.071 130.244C111.042 130.244 111.013 130.237 110.976 130.237C110.301 130.222 109.655 130.567 109.2 131.037C108.423 131.844 107.88 133.304 108.628 134.309C109.677 135.718 112.311 134.874 113.331 133.876C114.373 132.849 114.241 131.271 112.986 130.494Z" fill="#8C664B"/>
<path d="M129.503 128.689C128.923 128.689 128.38 129.716 129.151 129.716C129.73 129.716 130.266 128.689 129.503 128.689Z" fill="#8C664B"/>
<path d="M133.223 108.577C132.592 108.056 131.697 108.02 130.897 108.254C130.86 108.254 130.824 108.247 130.787 108.247C129.679 108.247 128.542 109.039 128.395 110.184C128.263 111.263 129.019 112.422 130.038 112.767C131.161 113.148 132.511 112.635 133.267 111.769C134.081 110.844 134.25 109.428 133.223 108.577Z" fill="#8C664B"/>
<path d="M140.062 109.201C139.328 109.201 138.638 110.507 139.614 110.507C140.348 110.507 141.037 109.201 140.062 109.201Z" fill="#8C664B"/>
<path d="M148.514 124.477C147.575 124.55 146.658 124.323 146.137 123.714C145.653 123.156 145.425 122.335 145.425 121.608C145.388 119.818 146.166 118.072 148.228 118.292C149.952 118.475 151.544 119.818 151.794 121.564C152.029 123.2 150.224 124.338 148.514 124.477Z" fill="#8C664B"/>
<path d="M171.165 114.953C170.827 114.975 170.512 114.88 170.233 114.711C169.462 114.711 168.809 114.095 168.508 113.435C168.259 112.892 168.325 112.202 168.736 111.747C169.103 111.351 169.58 111.057 170.13 111.05C171.319 111.028 172.14 112.106 172.28 113.192C172.383 113.992 172.082 114.902 171.165 114.953Z" fill="#8C664B"/>
<path d="M142.211 136.004C142.482 135.168 141.433 134.463 140.721 134.441C140.538 134.434 140.362 134.456 140.186 134.485C138.748 134.397 138.601 135.894 139.408 136.76C139.76 137.141 140.215 137.457 140.736 137.493C141.441 137.545 141.793 137.068 142.028 136.525C142.094 136.349 142.152 136.173 142.211 136.004Z" fill="#8C664B"/>
<path d="M154.457 109.106C154.053 109.355 153.621 109.384 153.246 109.267C153.224 109.267 153.21 109.274 153.188 109.274C152.762 109.282 152.351 109.069 152.065 108.768C151.573 108.254 151.229 107.33 151.706 106.699C152.373 105.804 154.039 106.339 154.684 106.978C155.338 107.616 155.257 108.614 154.457 109.106Z" fill="#8C664B"/>
<path d="M162.433 136.987C161.802 137.508 160.907 137.545 160.107 137.31C160.07 137.31 160.033 137.317 159.997 137.317C158.889 137.317 157.752 136.525 157.605 135.38C157.473 134.302 158.229 133.143 159.248 132.798C160.371 132.416 161.721 132.93 162.477 133.796C163.291 134.72 163.46 136.136 162.433 136.987Z" fill="#8C664B"/>
</g>
<g opacity="0.57">
<path d="M39.423 146.621C39.0562 146.592 38.704 146.68 38.4985 146.914C38.3151 147.135 38.2271 147.45 38.2271 147.729C38.2124 148.426 38.5132 149.101 39.313 149.013C39.9807 148.939 40.597 148.419 40.6997 147.744C40.7878 147.113 40.0907 146.672 39.423 146.621Z" fill="#8C664B"/>
<path d="M40.597 151.794C40.597 151.779 40.5896 151.772 40.5896 151.757C40.5896 151.742 40.5896 151.728 40.5896 151.713C40.5823 151.662 40.553 151.625 40.5163 151.588C40.4576 151.53 40.3769 151.5 40.2888 151.5C40.2081 151.5 40.1347 151.522 40.0614 151.552C40.0027 151.574 39.944 151.61 39.8999 151.662C39.8486 151.698 39.8046 151.742 39.7752 151.801C39.7385 151.882 39.6945 151.97 39.6945 152.065C39.6945 152.087 39.6945 152.117 39.7018 152.139C39.6945 152.183 39.6872 152.227 39.7018 152.271C39.7238 152.329 39.7532 152.381 39.8046 152.417C39.8779 152.476 40.0027 152.476 40.0907 152.461C40.3035 152.425 40.5236 152.256 40.5896 152.043C40.6043 151.948 40.6117 151.882 40.597 151.794Z" fill="#8C664B"/>
<path d="M34.9842 144.845C34.8815 144.596 34.7201 144.383 34.4046 144.405C34.1698 144.42 33.9643 144.567 33.8103 144.735C33.4507 145.124 33.5094 145.799 34.1624 145.755C34.2431 145.77 34.3239 145.777 34.4046 145.77C34.7201 145.763 35.197 145.44 35.0723 145.066C35.0429 144.999 35.0209 144.926 34.9842 144.845Z" fill="#8C664B"/>
<path d="M62.6969 162.741C62.4108 162.565 62.1026 162.543 61.8312 162.631C61.8165 162.631 61.8018 162.624 61.7871 162.624C61.4863 162.616 61.1928 162.771 60.9874 162.983C60.6352 163.35 60.393 164.003 60.7306 164.451C61.2001 165.082 62.3888 164.708 62.8437 164.253C63.328 163.798 63.2619 163.086 62.6969 162.741Z" fill="#8C664B"/>
<path d="M46.2687 153.716C46.0119 153.716 45.7625 154.178 46.1073 154.178C46.3715 154.178 46.6136 153.716 46.2687 153.716Z" fill="#8C664B"/>
<path d="M47.9416 144.669C47.6555 144.434 47.2593 144.42 46.8997 144.523C46.8851 144.523 46.8704 144.523 46.8484 144.523C46.3495 144.523 45.8358 144.875 45.7771 145.396C45.7184 145.88 46.056 146.401 46.5182 146.555C47.0245 146.724 47.6335 146.496 47.971 146.107C48.3305 145.689 48.4039 145.051 47.9416 144.669Z" fill="#8C664B"/>
<path d="M51.0161 144.948C50.686 144.948 50.3778 145.535 50.8107 145.535C51.1482 145.535 51.4564 144.948 51.0161 144.948Z" fill="#8C664B"/>
<path d="M56.1593 153.841C55.5944 153.885 55.044 153.753 54.7285 153.386C54.4424 153.048 54.303 152.564 54.303 152.124C54.281 151.053 54.7432 150.003 55.9832 150.136C57.0178 150.246 57.9716 151.053 58.1257 152.102C58.2651 153.078 57.1792 153.76 56.1593 153.841Z" fill="#8C664B"/>
<path d="M65.001 147.538C64.8469 147.545 64.7075 147.501 64.5828 147.428C64.2379 147.428 63.9444 147.149 63.805 146.856C63.695 146.614 63.7243 146.298 63.9077 146.1C64.0692 145.924 64.2893 145.792 64.5387 145.785C65.0744 145.777 65.4412 146.261 65.5073 146.746C65.5513 147.105 65.4192 147.509 65.001 147.538Z" fill="#8C664B"/>
<path d="M51.9842 157.003C52.109 156.629 51.6321 156.306 51.3166 156.299C51.2358 156.299 51.1551 156.306 51.0744 156.313C50.4287 156.277 50.3627 156.944 50.7222 157.333C50.8837 157.502 51.0891 157.649 51.3166 157.664C51.6321 157.686 51.7935 157.473 51.8962 157.223C51.9329 157.157 51.9549 157.077 51.9842 157.003Z" fill="#8C664B"/>
<path d="M62.5575 157.275C62.4181 157.392 62.2126 157.399 62.0365 157.348C62.0292 157.348 62.0219 157.348 62.0145 157.348C61.7651 157.348 61.5083 157.172 61.4789 156.915C61.4496 156.673 61.6183 156.409 61.8458 156.336C62.0952 156.248 62.4034 156.365 62.5722 156.563C62.7556 156.761 62.7923 157.084 62.5575 157.275Z" fill="#8C664B"/>
<path d="M67.9282 157.135C67.5981 157.135 67.2899 156.548 67.7228 156.548C68.0603 156.548 68.3685 157.135 67.9282 157.135Z" fill="#8C664B"/>
<path d="M72.2648 147.171C71.6998 147.127 71.1495 147.259 70.834 147.626C70.5479 147.964 70.4085 148.455 70.4085 148.888C70.3864 149.959 70.8487 151.009 72.0887 150.877C73.1233 150.766 74.0771 149.959 74.2312 148.91C74.3706 147.934 73.2847 147.252 72.2648 147.171Z" fill="#8C664B"/>
<path d="M76.3958 151.794C76.3958 151.779 76.3885 151.772 76.3885 151.757C76.3885 151.742 76.3885 151.728 76.3885 151.713C76.3811 151.662 76.3518 151.625 76.3151 151.588C76.2564 151.53 76.1757 151.5 76.0876 151.5C76.0069 151.5 75.9336 151.522 75.8602 151.552C75.8015 151.574 75.7428 151.61 75.6988 151.662C75.6474 151.698 75.6034 151.742 75.574 151.801C75.5373 151.882 75.4933 151.97 75.4933 152.065C75.4933 152.087 75.4933 152.117 75.5007 152.139C75.4933 152.183 75.486 152.227 75.5007 152.271C75.5227 152.329 75.552 152.381 75.6034 152.417C75.6768 152.476 75.8015 152.476 75.8895 152.461C76.1023 152.425 76.3224 152.256 76.3885 152.043C76.4031 151.948 76.4105 151.882 76.3958 151.794Z" fill="#8C664B"/>
<path d="M81.5022 157.95C81.3995 157.943 81.3114 157.972 81.2307 158.023C81.0033 158.023 80.8125 158.207 80.7245 158.397C80.6511 158.559 80.6731 158.757 80.7905 158.889C80.9006 159.006 81.04 159.094 81.2014 159.094C81.5536 159.102 81.7884 158.786 81.8324 158.463C81.8617 158.229 81.7737 157.965 81.5022 157.95Z" fill="#8C664B"/>
<path d="M70.7899 144.845C70.6872 144.596 70.5257 144.383 70.2102 144.405C69.9754 144.42 69.77 144.567 69.6159 144.735C69.2564 145.124 69.3151 145.799 69.9681 145.755C70.0488 145.77 70.1295 145.777 70.2102 145.77C70.5257 145.763 71.0027 145.44 70.8779 145.066C70.8486 144.999 70.8192 144.926 70.7899 144.845Z" fill="#8C664B"/>
<path d="M74.6344 161.633C74.3483 161.457 74.0401 161.435 73.7687 161.523C73.754 161.523 73.7393 161.516 73.7246 161.516C73.4238 161.509 73.1303 161.663 72.9249 161.875C72.5727 162.242 72.3305 162.895 72.6681 163.343C73.1376 163.974 74.3263 163.6 74.7812 163.145C75.2655 162.69 75.2068 161.978 74.6344 161.633Z" fill="#8C664B"/>
<path d="M82.0676 153.716C81.8108 153.716 81.5613 154.178 81.9062 154.178C82.1703 154.178 82.4124 153.716 82.0676 153.716Z" fill="#8C664B"/>
<path d="M83.7405 144.669C83.4543 144.434 83.0581 144.42 82.6986 144.523C82.6839 144.523 82.6692 144.523 82.6472 144.523C82.1483 144.523 81.6347 144.875 81.576 145.396C81.5173 145.88 81.8548 146.401 82.317 146.555C82.8233 146.724 83.4323 146.496 83.7698 146.107C84.1293 145.689 84.2027 145.051 83.7405 144.669Z" fill="#8C664B"/>
<path d="M86.8145 144.948C86.4843 144.948 86.1761 145.535 86.609 145.535C86.9466 145.535 87.2547 144.948 86.8145 144.948Z" fill="#8C664B"/>
<path d="M91.9582 153.841C91.3932 153.885 90.8429 153.753 90.5274 153.386C90.2412 153.048 90.1018 152.564 90.1018 152.124C90.0798 151.053 90.5421 150.003 91.7821 150.136C92.8166 150.246 93.7705 151.053 93.9246 152.102C94.064 153.078 92.9854 153.76 91.9582 153.841Z" fill="#8C664B"/>
<path d="M100.807 147.538C100.653 147.545 100.514 147.501 100.389 147.428C100.044 147.428 99.7506 147.149 99.6112 146.856C99.5011 146.614 99.5305 146.298 99.7139 146.1C99.8753 145.924 100.095 145.792 100.345 145.785C100.881 145.777 101.247 146.261 101.313 146.746C101.357 147.105 101.218 147.509 100.807 147.538Z" fill="#8C664B"/>
<path d="M87.7831 157.003C87.9078 156.629 87.4309 156.306 87.1154 156.299C87.0347 156.299 86.954 156.306 86.8733 156.313C86.2276 156.277 86.1615 156.944 86.5211 157.333C86.6825 157.502 86.8879 157.649 87.1154 157.664C87.4309 157.686 87.5923 157.473 87.695 157.223C87.7317 157.157 87.7611 157.077 87.7831 157.003Z" fill="#8C664B"/>
<path d="M96.8811 157.444C96.595 157.678 96.1987 157.693 95.8392 157.59C95.8245 157.59 95.8099 157.59 95.7878 157.59C95.2889 157.59 94.7753 157.238 94.7166 156.717C94.6579 156.233 94.9954 155.712 95.4577 155.558C95.9639 155.389 96.5729 155.617 96.9105 156.005C97.2626 156.424 97.3434 157.062 96.8811 157.444Z" fill="#8C664B"/>
</g>
<g opacity="0.57">
<path d="M110.771 148.257C110.742 148.683 110.852 149.101 111.131 149.336C111.388 149.556 111.762 149.651 112.092 149.651C112.906 149.659 113.699 149.299 113.589 148.36C113.501 147.575 112.877 146.856 112.085 146.753C111.336 146.65 110.83 147.479 110.771 148.257Z" fill="#8C664B"/>
<path d="M116.824 146.819C116.81 146.819 116.795 146.826 116.78 146.826C116.766 146.826 116.751 146.826 116.729 146.834C116.67 146.848 116.626 146.878 116.59 146.922C116.524 146.995 116.487 147.091 116.487 147.193C116.487 147.289 116.509 147.377 116.546 147.465C116.575 147.538 116.619 147.604 116.67 147.656C116.714 147.714 116.773 147.766 116.832 147.802C116.927 147.846 117.03 147.898 117.14 147.89C117.169 147.89 117.199 147.883 117.228 147.883C117.279 147.898 117.331 147.898 117.382 147.883C117.448 147.861 117.507 147.817 117.551 147.766C117.617 147.678 117.617 147.531 117.595 147.428C117.551 147.179 117.345 146.922 117.096 146.848C117.008 146.812 116.927 146.804 116.824 146.819Z" fill="#8C664B"/>
<path d="M108.753 153.481C108.467 153.606 108.218 153.797 108.247 154.164C108.269 154.435 108.438 154.677 108.643 154.861C109.105 155.279 109.891 155.198 109.839 154.435C109.854 154.34 109.861 154.252 109.854 154.149C109.839 153.775 109.458 153.224 109.025 153.371C108.937 153.408 108.841 153.445 108.753 153.481Z" fill="#8C664B"/>
<path d="M133.92 164.113C133.641 163.937 133.333 163.915 133.069 164.003C133.054 164.003 133.04 163.996 133.025 163.996C132.724 163.988 132.438 164.142 132.24 164.348C131.895 164.707 131.653 165.353 131.983 165.793C132.445 166.417 133.612 166.043 134.067 165.602C134.536 165.155 134.478 164.45 133.92 164.113Z" fill="#8C664B"/>
<path d="M133.487 150.598C133.23 150.598 132.988 151.053 133.333 151.053C133.583 151.053 133.825 150.598 133.487 150.598Z" fill="#8C664B"/>
<path d="M133.905 145.755C133.627 145.52 133.23 145.506 132.878 145.616C132.864 145.616 132.849 145.616 132.827 145.616C132.335 145.616 131.829 145.968 131.77 146.474C131.712 146.951 132.049 147.465 132.497 147.619C132.996 147.788 133.59 147.56 133.927 147.179C134.287 146.76 134.36 146.137 133.905 145.755Z" fill="#8C664B"/>
<path d="M138.161 141.969C137.838 141.969 137.53 142.549 137.963 142.549C138.286 142.549 138.594 141.969 138.161 141.969Z" fill="#8C664B"/>
<path d="M143.224 150.73C142.666 150.774 142.13 150.642 141.815 150.282C141.529 149.952 141.397 149.468 141.397 149.035C141.375 147.978 141.837 146.944 143.055 147.076C144.075 147.186 145.014 147.978 145.161 149.013C145.3 149.974 144.236 150.649 143.224 150.73Z" fill="#8C664B"/>
<path d="M151.933 144.515C151.779 144.522 151.647 144.478 151.522 144.412C151.185 144.412 150.891 144.141 150.759 143.847C150.649 143.605 150.678 143.297 150.862 143.099C151.023 142.923 151.236 142.791 151.478 142.791C152.006 142.784 152.366 143.26 152.432 143.737C152.476 144.09 152.344 144.493 151.933 144.515Z" fill="#8C664B"/>
<path d="M139.115 153.841C139.24 153.474 138.77 153.158 138.455 153.151C138.374 153.151 138.293 153.158 138.22 153.166C137.582 153.129 137.523 153.789 137.875 154.171C138.029 154.34 138.235 154.479 138.462 154.494C138.77 154.516 138.932 154.303 139.035 154.061C139.064 153.995 139.086 153.914 139.115 153.841Z" fill="#8C664B"/>
<path d="M148.609 143.723C148.33 143.899 148.022 143.921 147.758 143.833C147.743 143.833 147.729 143.84 147.714 143.84C147.413 143.847 147.127 143.693 146.929 143.488C146.584 143.128 146.342 142.483 146.672 142.042C147.134 141.419 148.301 141.793 148.756 142.233C149.225 142.681 149.167 143.378 148.609 143.723Z" fill="#8C664B"/>
<path d="M149.527 154.105C149.387 154.223 149.189 154.23 149.013 154.179C149.006 154.179 148.998 154.179 148.991 154.179C148.742 154.179 148.492 154.002 148.463 153.746C148.433 153.503 148.602 153.247 148.83 153.173C149.079 153.085 149.38 153.203 149.541 153.393C149.717 153.606 149.754 153.914 149.527 154.105Z" fill="#8C664B"/>
<path d="M154.817 153.973C154.494 153.973 154.186 153.393 154.619 153.393C154.941 153.393 155.25 153.973 154.817 153.973Z" fill="#8C664B"/>
<path d="M107.777 161.853C107.22 161.809 106.684 161.941 106.369 162.301C106.083 162.631 105.95 163.115 105.95 163.548C105.928 164.605 106.391 165.632 107.609 165.507C108.629 165.397 109.568 164.605 109.714 163.57C109.854 162.609 108.79 161.934 107.777 161.853Z" fill="#8C664B"/>
<path d="M111.175 170.232C111.101 170.225 111.035 170.247 110.976 170.284C110.815 170.284 110.676 170.416 110.61 170.555C110.558 170.673 110.573 170.819 110.661 170.915C110.742 171.003 110.844 171.061 110.962 171.061C111.219 171.069 111.395 170.834 111.424 170.607C111.431 170.438 111.365 170.24 111.175 170.232Z" fill="#8C664B"/>
<path d="M157.627 141.874C157.524 141.632 157.37 141.419 157.055 141.441C156.827 141.455 156.622 141.602 156.468 141.764C156.108 142.145 156.174 142.806 156.813 142.769C156.893 142.784 156.967 142.791 157.047 142.783C157.363 142.776 157.825 142.461 157.708 142.094C157.686 142.02 157.664 141.947 157.627 141.874Z" fill="#8C664B"/>
<path d="M111.585 167.143C111.395 167.143 111.218 167.481 111.468 167.481C111.659 167.481 111.835 167.143 111.585 167.143Z" fill="#8C664B"/>
<path d="M125.489 153.812C125.291 154.061 125.277 154.406 125.372 154.721C125.372 154.736 125.372 154.751 125.372 154.765C125.379 155.198 125.687 155.639 126.135 155.69C126.561 155.734 127.008 155.433 127.133 155.037C127.28 154.597 127.074 154.076 126.729 153.782C126.37 153.467 125.82 153.408 125.489 153.812Z" fill="#8C664B"/>
<path d="M125.702 151.141C125.702 151.427 126.216 151.691 126.216 151.31C126.208 151.023 125.695 150.759 125.702 151.141Z" fill="#8C664B"/>
<path d="M127.654 168.244C127.243 168.273 126.847 168.178 126.612 167.907C126.399 167.664 126.304 167.305 126.304 166.989C126.289 166.212 126.627 165.441 127.529 165.544C128.285 165.625 128.982 166.212 129.085 166.975C129.187 167.686 128.402 168.185 127.654 168.244Z" fill="#8C664B"/>
<path d="M134.382 158.016C134.272 158.023 134.169 157.994 134.074 157.935C133.825 157.935 133.604 157.737 133.509 157.517C133.428 157.341 133.45 157.113 133.582 156.967C133.7 156.835 133.861 156.739 134.037 156.739C134.426 156.732 134.698 157.084 134.742 157.444C134.786 157.7 134.683 158.001 134.382 158.016Z" fill="#8C664B"/>
<path d="M115.746 169.543C115.834 169.271 115.489 169.036 115.261 169.029C115.203 169.029 115.144 169.036 115.085 169.044C114.616 169.014 114.564 169.506 114.828 169.785C114.946 169.91 115.093 170.012 115.261 170.027C115.489 170.042 115.606 169.888 115.687 169.711C115.709 169.653 115.731 169.594 115.746 169.543Z" fill="#8C664B"/>
<path d="M124.352 146.467C124.506 146.716 124.528 146.98 124.455 147.215C124.455 147.23 124.462 147.237 124.462 147.252C124.47 147.516 124.338 147.765 124.154 147.949C123.846 148.257 123.274 148.47 122.885 148.184C122.327 147.78 122.65 146.753 123.032 146.349C123.428 145.931 124.044 145.975 124.352 146.467Z" fill="#8C664B"/>
<path d="M122.378 169.858C122.173 170.027 121.88 170.042 121.615 169.961C121.601 169.961 121.593 169.961 121.579 169.961C121.212 169.961 120.845 169.704 120.794 169.323C120.75 168.971 120.999 168.589 121.329 168.479C121.696 168.354 122.136 168.523 122.386 168.809C122.657 169.117 122.716 169.579 122.378 169.858Z" fill="#8C664B"/>
<path d="M106.215 170.834C105.877 170.629 105.517 170.599 105.202 170.702C105.187 170.702 105.173 170.695 105.151 170.695C104.798 170.687 104.454 170.864 104.219 171.12C103.808 171.546 103.522 172.316 103.918 172.845C104.468 173.586 105.855 173.138 106.398 172.617C106.948 172.074 106.875 171.238 106.215 170.834Z" fill="#8C664B"/>
<path d="M65.1037 170.071C65.0156 170.064 64.9349 170.093 64.8689 170.13C64.6708 170.13 64.5094 170.284 64.4287 170.453C64.3626 170.592 64.3846 170.768 64.4874 170.878C64.5827 170.981 64.7001 171.054 64.8395 171.054C65.1404 171.062 65.3532 170.79 65.3825 170.511C65.4119 170.313 65.3385 170.086 65.1037 170.071Z" fill="#8C664B"/>
<path d="M65.5957 166.402C65.3683 166.402 65.1628 166.806 65.4563 166.806C65.6838 166.799 65.8892 166.402 65.5957 166.402Z" fill="#8C664B"/>
<path d="M88.473 174.928C87.9814 174.965 87.5118 174.847 87.2329 174.532C86.9835 174.238 86.8661 173.82 86.8661 173.439C86.8441 172.507 87.2476 171.604 88.3262 171.714C89.2214 171.81 90.0505 172.507 90.1825 173.417C90.2999 174.268 89.3608 174.855 88.473 174.928Z" fill="#8C664B"/>
<path d="M70.548 169.249C70.658 168.926 70.2471 168.647 69.9683 168.64C69.8949 168.64 69.8289 168.647 69.7629 168.655C69.2052 168.618 69.1465 169.205 69.462 169.543C69.6014 169.689 69.7775 169.814 69.9756 169.829C70.2471 169.851 70.3865 169.667 70.4746 169.447C70.4966 169.389 70.5259 169.315 70.548 169.249Z" fill="#8C664B"/>
<path d="M78.4281 169.631C78.186 169.836 77.8338 169.851 77.5256 169.755C77.511 169.755 77.4963 169.755 77.4816 169.755C77.0487 169.755 76.6085 169.447 76.5498 169C76.4984 168.581 76.7919 168.126 77.1881 167.994C77.621 167.848 78.1493 168.046 78.4428 168.383C78.7583 168.75 78.8243 169.3 78.4281 169.631Z" fill="#8C664B"/>
</g>
<path d="M21.1975 93.191C21.0728 92.3692 20.3097 91.8189 19.6127 91.4887C18.0278 90.7257 15.8193 90.7477 14.3739 91.8336C13.6108 92.4132 13.1559 93.3744 13.4934 94.3209C13.7942 95.1501 14.5866 95.5536 15.4304 95.3995C15.4891 95.3922 15.5405 95.3628 15.5992 95.3262C16.8612 95.8985 18.5121 95.8471 19.6787 95.3408C20.4932 94.974 21.3516 94.1815 21.1975 93.191Z" fill="#5A3B25"/>
<path d="M33.4285 91.5913C32.0198 90.7182 30.1708 90.5494 28.5493 90.5788C26.7956 90.6081 24.4771 90.8869 23.3471 92.3911C22.3639 93.6971 23.4132 94.6436 24.5945 95.1939C25.042 95.8396 25.9959 96.2578 26.6489 96.4926C28.9528 97.3071 33.091 97.8647 34.5291 95.2966C35.2849 93.9392 34.6832 92.3617 33.4285 91.5913Z" fill="#5A3B25"/>
<path d="M54.6188 92.802C53.1734 91.8775 51.0969 92.3178 49.6808 93.0882C49.0058 93.455 48.2427 94.0861 48.184 94.9225C48.1767 95.0619 48.1913 95.1867 48.2207 95.2967C48.1913 95.6416 48.3454 95.9644 48.7783 96.1332C48.9984 96.2139 49.2406 96.2799 49.4827 96.3239C49.5047 96.3313 49.5341 96.3386 49.5561 96.3459C49.5854 96.3533 49.6148 96.3533 49.6441 96.3533C50.8401 96.5367 52.2415 96.3386 53.2981 96.0304C54.0465 95.8103 54.8316 95.4508 55.2278 94.7464C55.6754 93.9613 55.3232 93.2496 54.6188 92.802Z" fill="#5A3B25"/>
<path d="M72.2211 89.9992C69.7264 88.5244 66.6815 88.7151 64.2748 90.2706C63.3283 90.8796 62.2351 91.8775 62.081 93.0661C61.9196 94.2695 62.8734 94.3208 63.7979 94.4529C63.8052 94.4529 63.8126 94.4529 63.8126 94.4529C65.0819 95.282 66.8869 95.3774 68.3323 95.2967C69.9539 95.2086 71.9203 94.9152 73.1163 93.6972C74.4663 92.3251 73.6592 90.8503 72.2211 89.9992Z" fill="#5A3B25"/>
<path d="M85.2444 92.6845C84.2466 91.0116 81.6271 90.7328 79.8735 90.7841C78.5015 90.8282 74.7741 91.9214 76.0361 93.9832C76.0361 94.2253 76.1315 94.4528 76.3516 94.6582C77.6944 95.8689 80.3358 96.045 82.0307 95.9276C83.5862 95.8249 86.4771 94.7389 85.2444 92.6845Z" fill="#5A3B25"/>
<path d="M104.761 92.545C102.788 91.7013 100.139 91.4958 98.0625 92.0535C97.0793 92.3176 95.7586 92.9633 95.4064 94.0125C95.333 94.2253 95.3183 94.416 95.3477 94.5775C95.2596 94.6729 95.1716 94.7756 95.0909 94.8783C94.658 95.4286 94.9148 96.0963 95.4944 96.3604C98.1065 97.5417 101.262 97.4537 103.969 96.6172C104.923 96.3237 106.097 95.8248 106.42 94.7682C106.786 93.6016 105.679 92.9413 104.761 92.545Z" fill="#5A3B25"/>
<path d="M122.291 92.413C120.508 91.173 117.969 91.3784 115.944 92.2662C114.777 92.3469 113.691 92.8459 112.789 94.0418C112.605 94.284 112.539 94.7242 112.737 94.981C114.748 97.5931 119.767 95.7074 121.931 94.2106C122.452 93.8584 122.988 92.8972 122.291 92.413Z" fill="#5A3B25"/>
<path d="M135.6 92.3178C133.979 90.6889 131.631 90.6596 129.488 90.6669C128.102 90.6669 124.33 91.3786 125.981 93.6018C126.928 94.8712 129.1 95.282 130.56 95.4288C132.387 95.6049 134.603 95.1573 135.542 93.4037C135.688 93.1176 135.879 92.6039 135.6 92.3178Z" fill="#5A3B25"/>
<path d="M140.722 90.7843C139.122 90.3147 136.693 90.7843 136.128 92.5746C135.842 93.4844 136.459 94.5777 137.236 95.0546C138.234 95.671 139.577 95.1353 140.531 94.607C141.94 93.8219 142.761 91.386 140.722 90.7843Z" fill="#5A3B25"/>
<path d="M155.462 95.8028C155.609 95.5094 155.646 95.1865 155.448 94.9077C155.44 94.893 155.426 94.8857 155.418 94.871C154.971 93.4549 152.755 93.7117 151.596 94.5262C151.236 94.783 150.935 95.2232 151.031 95.6854C151.031 95.6928 151.038 95.7001 151.038 95.7075C151.016 95.8909 151.045 96.089 151.141 96.2945C151.309 96.654 151.588 96.8081 151.911 96.8374C152.806 97.263 154.142 96.9842 154.927 96.4265C155.081 96.3165 155.242 96.155 155.367 95.9643C155.404 95.9202 155.44 95.8615 155.462 95.8028Z" fill="#5A3B25"/>
<path d="M173.681 92.1343C173.079 91.0483 171.582 90.7402 170.408 90.6741C169.608 90.388 168.632 90.366 167.928 90.4173C166.475 90.5274 164.032 91.3345 164.325 93.2349C164.575 94.8344 166.798 94.9151 168.045 94.8857C169.733 94.8491 171.626 94.6436 173.108 93.7851C173.666 93.477 174.003 92.7139 173.681 92.1343Z" fill="#5A3B25"/>
<path d="M177.408 92.3177C177.283 91.8848 176.829 91.6794 176.359 91.7968C175.999 91.8848 175.691 92.0536 175.449 92.2884C175.317 92.3911 175.185 92.5012 175.075 92.6259C175.031 92.6699 174.994 92.7213 174.958 92.78C174.943 92.7946 174.928 92.8093 174.921 92.8313H174.928C174.906 92.868 174.884 92.9047 174.862 92.9414C174.686 93.3156 174.752 93.8145 175.214 93.9319C175.236 93.9393 175.251 93.9393 175.273 93.9393C175.361 93.9906 175.456 94.0273 175.567 94.0493C176.065 94.1227 176.63 93.8586 176.939 93.4477C177.005 93.3963 177.071 93.3303 177.129 93.2716C177.327 93.2129 177.518 93.0368 177.592 92.868C177.68 92.6699 177.665 92.3691 177.408 92.3177Z" fill="#5A3B25"/>
<path d="M24.2058 94.7319C23.7656 93.4772 22.3128 93.4039 21.0435 93.8074C19.9796 93.8001 18.8863 94.1376 18.358 95.1134C17.3895 96.8964 20.0016 97.2559 21.1902 97.2339C22.5036 97.2119 24.8368 96.5296 24.2058 94.7319Z" fill="#82583D"/>
<path d="M39.0053 95.0474C38.7412 94.8933 38.4623 94.8126 38.1688 94.8273C38.0661 94.798 37.9634 94.7833 37.8533 94.7833C37.1343 94.7686 36.5987 95.2675 36.3125 95.8839C36.1951 96.126 36.2905 96.4268 36.5033 96.5883C37.149 97.0725 38.0881 96.9111 38.7191 96.5002C39.1007 96.2434 39.607 95.3923 39.0053 95.0474Z" fill="#82583D"/>
<path d="M56.4824 94.218C56.2183 94.0566 55.9542 93.9832 55.6607 94.0053C55.1397 93.9025 54.5601 94.1227 54.1565 94.4382C53.8263 94.6876 53.5475 95.0692 53.6356 95.5021C53.753 96.0817 54.2959 96.3899 54.8609 96.3825C55.7047 96.3752 56.3871 95.8249 56.7172 95.0838C56.842 94.805 56.7613 94.3795 56.4824 94.218Z" fill="#82583D"/>
<path d="M75.0821 92.4573C74.9427 92.3546 74.774 92.2739 74.5905 92.2152C74.5465 92.1565 74.4878 92.0978 74.4218 92.0391C73.9669 91.6575 73.2625 91.6502 72.7049 91.7382C71.685 91.8997 70.0781 92.8608 70.8852 94.0788C71.4502 94.93 72.9323 95.04 73.8201 94.8272C74.4365 94.6805 75.0161 94.3283 75.3096 93.756C75.5371 93.3011 75.515 92.7655 75.0821 92.4573Z" fill="#82583D"/>
<path d="M92.0755 94.0273C91.9288 93.8365 91.7013 93.6971 91.4225 93.6017C91.3932 93.5724 91.3638 93.5357 91.3345 93.5064C90.9676 93.1395 90.3733 93.0441 89.8744 93.0588C88.8692 93.0808 87.365 93.521 87.0422 94.6216C86.646 95.9717 88.6637 96.1331 89.5148 96.1625C90.2045 96.1918 90.9823 96.1404 91.5693 95.7516C92.1196 95.3774 92.5231 94.629 92.0755 94.0273Z" fill="#82583D"/>
<path d="M110.976 94.4236C110.162 93.8292 108.834 93.9686 108.085 94.607C107.74 94.9005 107.293 95.4435 107.638 95.9204C107.755 96.0818 107.917 96.1919 108.093 96.2432C108.416 96.4046 108.841 96.4193 109.164 96.3899C109.81 96.3313 110.47 96.0891 110.918 95.6049C111.211 95.2894 111.402 94.7317 110.976 94.4236Z" fill="#82583D"/>
<path d="M125.945 92.8828C125.746 92.6113 125.365 92.4573 124.932 92.4646C124.066 92.4646 123.01 92.8755 122.701 93.756C122.562 94.1448 122.643 94.5484 122.914 94.8639C123.237 95.2308 123.619 95.3261 124.081 95.3848C125.079 95.5096 126.48 95.2968 126.825 94.1815C127.052 93.4185 126.583 93.0149 125.945 92.8828Z" fill="#82583D"/>
<path d="M144.405 93.8146C144.236 93.6532 144.031 93.5284 143.803 93.433C143.517 93.1982 143.143 93.0295 142.805 92.9488C141.822 92.7286 140.443 92.9488 140.098 94.0714C139.812 94.9959 140.854 95.4508 141.573 95.5902C142.527 95.7736 143.642 95.7149 144.346 94.9519C144.662 94.607 144.764 94.1521 144.405 93.8146Z" fill="#82583D"/>
<path d="M160.18 93.9465C159.446 93.2935 157.964 93.2568 157.106 93.653C156.864 93.7631 156.636 93.9539 156.504 94.1813C156.196 94.4308 155.998 94.783 156.101 95.2232C156.299 96.0597 157.363 96.0376 158.03 95.9423C158.867 95.8249 159.74 95.4947 160.261 94.805C160.474 94.5262 160.422 94.1666 160.18 93.9465Z" fill="#82583D"/>
<path d="M174.503 93.5797C174.217 93.1761 173.784 93.0881 173.365 93.1982C172.947 93.0734 172.478 93.3449 172.206 93.6457C172.059 93.8071 171.861 94.1153 171.964 94.3501C172.111 94.6876 172.316 94.9591 172.683 95.0618C173.057 95.1719 173.519 95.0912 173.857 94.9077C174.136 94.7463 174.363 94.5849 174.51 94.2914C174.62 94.0639 174.657 93.7998 174.503 93.5797Z" fill="#82583D"/>
</svg>
