<svg width="340" height="340" viewBox="0 0 340 340" fill="none" xmlns="http://www.w3.org/2000/svg">
<path d="M170.5 267C223.795 267 267 223.795 267 170.5C267 117.205 223.795 74 170.5 74C117.205 74 74 117.205 74 170.5C74 223.795 117.205 267 170.5 267Z" fill="#FFF2BB"/>
<path d="M123.46 165.914C123.504 165.107 123.218 164.351 122.411 163.786C120.702 162.59 117.928 163.258 116.072 163.801C113.959 164.417 111.86 165.217 109.952 166.318C108.522 167.14 106.247 168.724 106.915 170.691C107.59 172.687 110.473 173.068 112.234 173.193C114.876 173.376 117.715 173.075 120.173 172.056C122.11 171.248 124.091 169.627 124.025 167.323C124.011 166.714 123.798 166.252 123.46 165.914Z" fill="#6E4931"/>
<path d="M136.168 166.141C135.332 165.569 134.158 165.305 133.006 165.364C132.793 165.312 132.58 165.283 132.39 165.276C130.687 165.173 128.516 166.207 128.303 168.093C128.097 169.949 130.254 170.192 131.619 170.015C133.277 169.803 135.515 169.01 136.3 167.389C136.491 166.97 136.609 166.45 136.168 166.141Z" fill="#6E4931"/>
<path d="M170.881 166.934C170.155 164.051 165.723 162.921 163.207 162.642C161.416 162.444 159.611 163.06 158.364 164.388C157.432 165.379 156.911 166.875 157.52 167.991C157.638 168.314 157.858 168.629 158.195 168.923C160.037 170.5 163.192 170.772 165.503 170.808C167.704 170.838 171.667 170.038 170.881 166.934Z" fill="#6E4931"/>
<path d="M188.505 166.259C187.559 163.779 184.712 163.529 182.562 164.52C180.853 165.305 178.769 167.213 179.062 169.274C178.938 169.575 178.872 169.905 178.864 170.265C178.864 170.705 179.07 170.991 179.481 171.145C182.283 172.165 190.186 170.661 188.505 166.259Z" fill="#6E4931"/>
<path d="M226.124 165.951C225.06 164.887 223.072 164.41 221.611 164.395C220.093 164.381 218.449 164.836 217.084 165.489C216.042 165.98 214.348 167 214.678 168.409C215.059 170.06 218.148 170.383 219.418 170.544C220.834 170.72 222.917 170.588 224.4 169.774C224.517 169.803 224.664 169.781 224.796 169.686C226.014 168.827 227.569 167.404 226.124 165.951Z" fill="#6E4931"/>
<path d="M239.566 166.318C239.544 164.909 237.959 164.307 236.785 164.146C234.136 163.779 230.438 164.476 228.795 166.802C228.178 167.675 227.804 168.9 228.699 169.715C229.418 170.368 230.541 170.471 231.473 170.5C233.513 170.551 236.264 170.317 238.01 169.135C238.612 168.724 239.368 168.013 239.36 167.213C239.492 166.934 239.573 166.641 239.566 166.318Z" fill="#6E4931"/>
<path d="M249.42 166.597C249.061 165.54 247.916 165.349 246.984 165.775C246.463 166.01 245.942 166.501 245.883 167.11C245.847 167.536 246.096 167.822 246.419 167.873C246.5 167.954 246.603 168.028 246.72 168.072C247.263 168.262 247.74 168.204 248.283 168.035C248.804 167.859 249.655 167.294 249.42 166.597Z" fill="#6E4931"/>
<path d="M98.3455 167.807C98.2354 166.677 96.7092 165.98 95.7114 165.936C94.5301 165.885 93.3708 166.677 92.9966 167.8C92.9525 167.94 92.9232 168.101 92.9085 168.255C92.7838 168.541 92.7691 168.835 92.9892 169.069C93.0333 169.113 93.0773 169.15 93.1213 169.194C93.2387 169.363 93.4148 169.524 93.6056 169.605C93.6349 169.62 93.6643 169.627 93.6936 169.634C94.398 170.053 95.2418 170.199 96.0929 170.045C97.1201 169.855 98.4628 169.018 98.3455 167.807Z" fill="#6E4931"/>
<path d="M150.792 165.746C150.616 165.614 150.403 165.569 150.19 165.577C150.051 165.511 149.882 165.474 149.735 165.474C149.618 165.474 149.501 165.489 149.383 165.511C149.31 165.525 149.236 165.555 149.163 165.577C149.126 165.592 148.796 165.68 149.119 165.592C148.525 165.746 147.82 166.391 148.195 167.052C148.407 167.426 148.892 167.587 149.288 167.587C149.933 167.587 150.528 167.25 150.887 166.721C151.1 166.413 151.107 165.98 150.792 165.746Z" fill="#6E4931"/>
<path d="M198.514 167.139C198.484 167.11 198.462 167.081 198.44 167.044C198.455 166.993 198.47 166.934 198.477 166.875C198.543 166.516 198.257 166.273 197.971 166.149C197.831 166.09 197.56 166.105 197.435 166.134C197.384 166.149 197.2 166.207 197.149 166.229C196.995 166.288 196.863 166.376 196.745 166.494C196.547 166.662 196.584 166.633 196.841 166.413C196.782 166.457 196.738 166.494 196.672 166.552C196.606 166.611 196.555 166.662 196.503 166.714C196.437 166.772 196.371 166.831 196.32 166.89C196.07 167.169 195.88 167.565 196.048 167.932C196.202 168.262 196.635 168.401 196.98 168.299C197.186 168.24 197.347 168.174 197.516 168.093C197.538 168.1 197.56 168.108 197.582 168.115C197.853 168.203 198.206 168.049 198.382 167.844C198.521 167.69 198.712 167.345 198.514 167.139Z" fill="#6E4931"/>
<path d="M251.511 167.528C248.4 167.191 245.26 167.455 242.156 167.741C238.949 168.035 235.75 168.438 232.544 168.739C229.308 169.04 226.006 169.341 222.763 169.055C219.645 168.783 216.541 168.328 213.438 167.903C210.099 167.455 206.753 167.037 203.386 166.919C200.128 166.802 196.907 167.081 193.693 167.565C187.434 168.504 181.242 169.818 174.88 169.81C168.6 169.803 162.414 168.592 156.229 167.675C152.883 167.176 149.559 166.751 146.169 166.846C142.846 166.941 139.551 167.36 136.271 167.873C130.093 168.842 123.974 169.979 117.693 170.089C107.392 170.265 97.2004 168.446 86.9429 167.917C86.9355 168.255 86.9355 168.592 86.9355 168.93C86.9355 214.927 124.224 252.215 170.221 252.215C216.219 252.215 253.507 214.927 253.507 168.93C253.507 168.541 253.507 168.152 253.499 167.763C252.824 167.69 252.171 167.602 251.511 167.528Z" fill="#6E4931"/>
<path d="M101.977 177.133C104.89 178.241 107.854 178.982 110.987 179.063C114.098 179.143 117.18 178.622 120.166 177.786C125.83 176.208 131.062 173.45 136.961 172.708C140.116 172.312 143.345 172.532 146.514 172.554C149.765 172.576 153.015 172.576 156.266 172.444C162.466 172.195 168.636 171.439 174.66 173.428C177.492 174.359 180.251 175.504 183.208 175.996C186.429 176.524 189.518 176.025 192.644 175.225C195.527 174.484 198.382 173.574 201.346 173.156C204.075 172.767 206.827 172.936 209.542 173.398C212.521 173.904 215.426 174.756 218.383 175.387C221.479 176.047 224.642 176.414 227.811 176.282C233.601 176.04 239.228 174.286 245.039 174.279C247.769 174.271 250.484 174.601 253.206 174.69C253.242 174.69 253.272 174.69 253.309 174.69C253.441 172.797 253.507 170.881 253.507 168.959C253.507 168.57 253.507 168.181 253.499 167.792C252.839 167.697 252.186 167.616 251.526 167.543C248.422 167.206 245.274 167.47 242.171 167.756C238.964 168.049 235.765 168.453 232.559 168.754C229.323 169.054 226.021 169.355 222.778 169.069C219.66 168.798 216.556 168.343 213.452 167.917C210.114 167.47 206.768 167.051 203.4 166.934C200.143 166.817 196.921 167.095 193.708 167.58C187.449 168.519 181.256 169.832 174.895 169.825C168.614 169.818 162.429 168.607 156.244 167.69C152.898 167.191 149.574 166.765 146.184 166.861C142.86 166.956 139.566 167.374 136.286 167.888C130.108 168.856 123.989 169.994 117.708 170.104C107.407 170.28 97.2151 168.46 86.9575 167.932C86.9502 168.269 86.9502 168.607 86.9502 168.944C86.9502 170.654 87.0016 172.349 87.1043 174.029C92.1964 174.073 97.1931 175.313 101.977 177.133Z" fill="#6E4931"/>
<path d="M102.285 173.039C104.274 172.51 106.159 171.571 108.236 171.388C109.38 171.285 110.547 171.469 111.684 171.557C112.924 171.652 114.172 171.681 115.412 171.557C117.664 171.329 119.968 170.368 122.25 170.617C123.262 170.727 124.224 171.072 125.207 171.292C126.469 171.579 127.731 171.593 128.986 171.256C131.15 170.669 133.05 169.465 135.362 169.443C136.499 169.436 137.636 169.62 138.759 169.788C140.087 169.986 141.393 170.045 142.736 170.023C144.049 170.001 145.362 169.913 146.676 169.869C147.776 169.832 148.818 169.81 149.889 170.082C151.085 170.39 152.267 170.852 153.514 170.896C154.754 170.94 155.913 170.471 157.065 170.074C158.063 169.73 159.046 169.465 160.11 169.553C161.211 169.649 162.282 169.942 163.353 170.184C164.542 170.456 165.738 170.522 166.934 170.727C167.925 170.904 168.871 171.256 169.832 171.549C171.058 171.923 172.327 172.202 173.611 172.224C174.8 172.246 175.974 172.063 177.133 171.85C178.167 171.659 179.202 171.439 180.244 171.351C181.432 171.248 182.614 171.424 183.802 171.454C184.91 171.483 185.982 171.263 187.082 171.212C188.175 171.16 189.21 171.351 190.281 171.505C191.595 171.696 192.761 171.637 194.023 171.212C194.992 170.889 195.916 170.434 196.907 170.162C198.572 169.708 200.436 169.671 202.153 169.656C203.004 169.649 203.863 169.656 204.714 169.766C204.728 169.766 204.75 169.774 204.765 169.774C205.719 169.619 206.702 169.612 207.649 169.627C209.255 169.656 210.848 169.803 212.447 169.957C213.086 170.016 213.717 170.082 214.355 170.118C215.279 170.177 216.211 170.14 217.143 170.192C219.109 170.295 221.039 170.544 222.925 171.131C224.656 171.674 226.307 172.554 228.149 172.657C230.225 172.767 232.221 171.923 234.173 171.322C235.134 171.028 236.103 170.771 237.1 170.654C238.208 170.515 239.338 170.559 240.446 170.617C242.662 170.727 244.885 170.955 247.079 170.515C249.06 170.118 251.041 170.096 253.052 170.06C253.198 170.06 253.338 170.052 253.485 170.052C253.492 169.678 253.492 169.304 253.492 168.937C253.492 168.548 253.492 168.159 253.485 167.771C252.824 167.675 252.171 167.594 251.511 167.521C248.407 167.184 245.26 167.448 242.156 167.734C238.949 168.027 235.75 168.431 232.544 168.732C229.308 169.033 226.006 169.333 222.763 169.047C219.645 168.776 216.541 168.321 213.438 167.895C210.099 167.448 206.753 167.029 203.386 166.912C200.128 166.795 196.907 167.073 193.693 167.558C187.434 168.497 181.242 169.81 174.88 169.803C168.6 169.796 162.414 168.585 156.229 167.668C152.883 167.169 149.559 166.743 146.169 166.839C142.846 166.934 139.551 167.352 136.271 167.866C130.093 168.834 123.974 169.972 117.693 170.082C107.392 170.258 97.2004 168.438 86.9429 167.91C86.9355 168.247 86.9355 168.585 86.9355 168.922C86.9355 169.898 86.9576 170.874 86.9869 171.843C90.0319 172.76 93.3483 172.885 96.474 173.119C98.4478 173.288 100.333 173.552 102.285 173.039Z" fill="#986749"/>
<path opacity="0.57" d="M223.849 213.034C218.28 213.1 212.829 214.839 207.524 216.365C202.358 217.855 197.098 219.256 191.683 219.205C185.93 219.153 180.332 217.671 174.704 216.673C171.696 216.138 168.666 215.756 165.606 215.771C162.583 215.786 159.567 216.072 156.574 216.505C150.777 217.334 145.062 218.64 139.25 219.366C136.484 219.711 133.725 219.975 130.952 219.63C128.553 219.337 126.227 218.677 123.959 217.862C118.897 216.035 114.106 213.65 108.764 212.711C105.448 212.124 102.087 211.882 98.7266 211.684C113.276 235.971 139.852 252.23 170.221 252.23C200.355 252.23 226.755 236.227 241.371 212.249C235.53 212.931 229.719 212.968 223.849 213.034Z" fill="#8C664B"/>
<path opacity="0.57" d="M218.787 230.834C213.526 231.209 208.581 233.366 203.35 233.975C197.905 234.606 192.388 234.848 186.914 234.73C181.529 234.613 176.158 234.041 170.772 234.048C168.05 234.055 165.335 234.268 162.672 234.841C159.95 235.42 157.257 236.095 154.557 236.77C152.047 237.394 149.516 237.974 146.941 238.26C144.314 238.56 141.687 238.465 139.068 238.142C134.298 237.555 129.654 236.249 125.112 234.738C121.671 233.593 118.252 232.316 114.811 231.121C129.529 244.247 148.944 252.23 170.222 252.23C191.427 252.23 210.782 244.306 225.479 231.253C223.256 230.93 221.025 230.68 218.787 230.834Z" fill="#8C664B"/>
<g opacity="0.57">
<path d="M102.102 188.139C100.847 188.036 99.6293 188.344 98.9249 189.159C98.2792 189.907 97.9784 190.993 97.9784 191.969C97.927 194.353 98.9616 196.679 101.72 196.393C104.024 196.151 106.145 194.361 106.475 192.027C106.79 189.834 104.384 188.322 102.102 188.139Z" fill="#8C664B"/>
<path d="M111.295 198.418C111.288 198.389 111.281 198.367 111.273 198.337C111.273 198.308 111.266 198.279 111.266 198.249C111.244 198.139 111.185 198.044 111.097 197.978C110.965 197.846 110.782 197.772 110.591 197.78C110.415 197.78 110.246 197.824 110.077 197.89C109.938 197.949 109.821 198.022 109.711 198.125C109.601 198.205 109.505 198.315 109.432 198.433C109.344 198.616 109.248 198.807 109.256 199.02C109.256 199.071 109.263 199.13 109.27 199.181C109.248 199.277 109.241 199.379 109.27 199.475C109.314 199.607 109.388 199.71 109.498 199.798C109.667 199.93 109.938 199.922 110.136 199.893C110.613 199.812 111.105 199.431 111.244 198.961C111.31 198.77 111.325 198.624 111.295 198.418Z" fill="#8C664B"/>
<path d="M122.647 212.11C122.427 212.095 122.222 212.161 122.038 212.264C121.539 212.264 121.114 212.668 120.916 213.093C120.754 213.445 120.798 213.9 121.062 214.194C121.297 214.451 121.613 214.641 121.972 214.649C122.75 214.663 123.285 213.959 123.374 213.255C123.447 212.734 123.249 212.147 122.647 212.11Z" fill="#8C664B"/>
<path d="M98.8224 182.981C98.5876 182.43 98.2354 181.954 97.5311 182.012C97.0174 182.049 96.5552 182.372 96.203 182.746C95.3959 183.612 95.5427 185.101 96.9808 185.02C97.1569 185.043 97.333 185.065 97.5164 185.065C98.2208 185.043 99.2773 184.338 99.0059 183.502C98.9545 183.326 98.8958 183.149 98.8224 182.981Z" fill="#8C664B"/>
<path d="M107.385 204.494C106.747 204.105 106.065 204.053 105.47 204.244C105.441 204.244 105.412 204.237 105.375 204.237C104.7 204.222 104.054 204.567 103.599 205.037C102.822 205.844 102.279 207.304 103.027 208.309C104.076 209.718 106.71 208.874 107.73 207.876C108.779 206.849 108.647 205.271 107.385 204.494Z" fill="#8C664B"/>
<path d="M123.901 202.689C123.322 202.689 122.779 203.716 123.549 203.716C124.129 203.716 124.672 202.689 123.901 202.689Z" fill="#8C664B"/>
<path d="M127.628 182.577C126.997 182.056 126.102 182.019 125.302 182.254C125.265 182.254 125.229 182.247 125.192 182.247C124.084 182.247 122.947 183.039 122.8 184.184C122.668 185.262 123.424 186.422 124.444 186.767C125.566 187.148 126.916 186.634 127.672 185.769C128.487 184.844 128.655 183.428 127.628 182.577Z" fill="#8C664B"/>
<path d="M134.467 183.201C133.733 183.201 133.043 184.507 134.019 184.507C134.753 184.507 135.443 183.201 134.467 183.201Z" fill="#8C664B"/>
<path d="M147.395 196.393C146.14 196.496 144.922 196.188 144.218 195.373C143.572 194.625 143.271 193.539 143.271 192.563C143.22 190.178 144.255 187.853 147.013 188.139C149.317 188.381 151.438 190.171 151.768 192.504C152.083 194.706 149.677 196.217 147.395 196.393Z" fill="#8C664B"/>
<path d="M165.562 188.953C165.225 188.975 164.909 188.88 164.63 188.711C163.86 188.711 163.207 188.095 162.906 187.434C162.656 186.891 162.723 186.202 163.133 185.747C163.5 185.35 163.977 185.057 164.527 185.05C165.716 185.028 166.538 186.106 166.677 187.192C166.787 187.992 166.479 188.902 165.562 188.953Z" fill="#8C664B"/>
<path d="M136.609 210.004C136.881 209.167 135.832 208.463 135.12 208.441C134.936 208.434 134.76 208.456 134.584 208.485C133.146 208.397 132.999 209.894 133.807 210.759C134.159 211.141 134.614 211.457 135.135 211.493C135.839 211.545 136.191 211.068 136.426 210.525C136.499 210.349 136.558 210.172 136.609 210.004Z" fill="#8C664B"/>
<path d="M146.486 179.862C145.848 180.251 145.165 180.303 144.571 180.112C144.542 180.112 144.512 180.119 144.476 180.119C143.801 180.134 143.155 179.789 142.7 179.32C141.922 178.512 141.379 177.052 142.128 176.047C143.177 174.638 145.811 175.482 146.831 176.48C147.88 177.507 147.748 179.092 146.486 179.862Z" fill="#8C664B"/>
<path d="M156.838 210.987C156.207 211.508 155.312 211.545 154.512 211.31C154.475 211.31 154.439 211.317 154.402 211.317C153.294 211.317 152.157 210.525 152.01 209.38C151.878 208.302 152.634 207.143 153.654 206.798C154.776 206.416 156.126 206.93 156.882 207.796C157.697 208.72 157.865 210.136 156.838 210.987Z" fill="#8C664B"/>
<path d="M172.07 210.297C171.337 210.297 170.647 208.991 171.623 208.991C172.356 208.991 173.046 210.297 172.07 210.297Z" fill="#8C664B"/>
<path d="M179.643 192.277C179.012 192.226 178.403 192.38 178.058 192.783C177.735 193.158 177.589 193.701 177.589 194.185C177.567 195.373 178.08 196.54 179.46 196.393C180.612 196.269 181.668 195.381 181.837 194.214C181.984 193.128 180.78 192.373 179.643 192.277Z" fill="#8C664B"/>
<path d="M190.891 198.418C190.884 198.389 190.876 198.367 190.869 198.337C190.869 198.308 190.862 198.279 190.862 198.249C190.84 198.139 190.781 198.044 190.693 197.978C190.561 197.846 190.378 197.772 190.187 197.78C190.011 197.78 189.842 197.824 189.673 197.89C189.534 197.949 189.416 198.022 189.306 198.125C189.196 198.205 189.101 198.315 189.027 198.433C188.939 198.616 188.844 198.807 188.851 199.02C188.851 199.071 188.859 199.13 188.866 199.181C188.844 199.277 188.837 199.379 188.866 199.475C188.91 199.607 188.983 199.71 189.093 199.798C189.262 199.93 189.534 199.922 189.732 199.893C190.209 199.812 190.7 199.431 190.84 198.961C190.913 198.77 190.92 198.624 190.891 198.418Z" fill="#8C664B"/>
<path d="M202.249 212.11C202.029 212.095 201.823 212.161 201.64 212.264C201.141 212.264 200.715 212.668 200.517 213.093C200.356 213.445 200.4 213.9 200.664 214.194C200.899 214.451 201.214 214.641 201.574 214.649C202.351 214.663 202.887 213.959 202.975 213.255C203.041 212.734 202.843 212.147 202.249 212.11Z" fill="#8C664B"/>
<path d="M178.417 182.981C178.182 182.43 177.83 181.954 177.126 182.012C176.612 182.049 176.15 182.372 175.798 182.746C174.991 183.612 175.137 185.101 176.575 185.02C176.752 185.043 176.928 185.065 177.111 185.065C177.815 185.043 178.872 184.338 178.601 183.502C178.549 183.326 178.491 183.149 178.417 182.981Z" fill="#8C664B"/>
<path d="M186.987 204.494C186.349 204.105 185.666 204.053 185.072 204.244C185.043 204.244 185.013 204.237 184.977 204.237C184.301 204.222 183.656 204.567 183.201 205.037C182.423 205.844 181.88 207.304 182.629 208.309C183.678 209.718 186.312 208.874 187.332 207.876C188.374 206.849 188.242 205.271 186.987 204.494Z" fill="#8C664B"/>
<path d="M203.504 202.689C202.924 202.689 202.381 203.716 203.152 203.716C203.731 203.716 204.267 202.689 203.504 202.689Z" fill="#8C664B"/>
<path d="M207.224 182.577C206.593 182.056 205.698 182.019 204.898 182.254C204.861 182.254 204.825 182.247 204.788 182.247C203.68 182.247 202.543 183.039 202.396 184.184C202.264 185.262 203.02 186.422 204.039 186.767C205.162 187.148 206.512 186.634 207.268 185.769C208.082 184.844 208.251 183.428 207.224 182.577Z" fill="#8C664B"/>
<path d="M214.063 183.201C213.329 183.201 212.639 184.507 213.615 184.507C214.349 184.507 215.038 183.201 214.063 183.201Z" fill="#8C664B"/>
<path d="M222.514 198.477C221.575 198.55 220.658 198.323 220.137 197.714C219.653 197.156 219.425 196.335 219.425 195.608C219.388 193.818 220.166 192.072 222.228 192.292C223.952 192.475 225.544 193.818 225.794 195.564C226.029 197.2 224.224 198.338 222.514 198.477Z" fill="#8C664B"/>
<path d="M245.165 188.953C244.827 188.975 244.512 188.88 244.233 188.711C243.462 188.711 242.809 188.095 242.508 187.434C242.259 186.891 242.325 186.202 242.736 185.747C243.103 185.35 243.58 185.057 244.13 185.05C245.319 185.028 246.14 186.106 246.28 187.192C246.383 187.992 246.082 188.902 245.165 188.953Z" fill="#8C664B"/>
<path d="M216.212 210.004C216.483 209.167 215.434 208.463 214.722 208.441C214.539 208.434 214.363 208.456 214.187 208.485C212.749 208.397 212.602 209.894 213.409 210.759C213.761 211.141 214.216 211.457 214.737 211.493C215.441 211.545 215.794 211.068 216.028 210.525C216.095 210.349 216.153 210.172 216.212 210.004Z" fill="#8C664B"/>
<path d="M228.458 183.105C228.054 183.355 227.622 183.384 227.247 183.267C227.225 183.267 227.211 183.274 227.189 183.274C226.763 183.281 226.352 183.069 226.066 182.768C225.574 182.254 225.23 181.33 225.707 180.699C226.374 179.803 228.04 180.339 228.685 180.977C229.338 181.616 229.258 182.614 228.458 183.105Z" fill="#8C664B"/>
<path d="M236.433 210.987C235.802 211.508 234.907 211.545 234.107 211.31C234.07 211.31 234.033 211.317 233.997 211.317C232.889 211.317 231.752 210.525 231.605 209.38C231.473 208.302 232.229 207.143 233.248 206.798C234.371 206.416 235.721 206.93 236.477 207.796C237.291 208.72 237.46 210.136 236.433 210.987Z" fill="#8C664B"/>
</g>
<g opacity="0.57">
<path d="M113.423 220.621C113.056 220.592 112.704 220.68 112.499 220.915C112.315 221.135 112.227 221.45 112.227 221.729C112.212 222.426 112.513 223.101 113.313 223.013C113.981 222.94 114.597 222.419 114.7 221.744C114.788 221.113 114.091 220.673 113.423 220.621Z" fill="#8C664B"/>
<path d="M114.597 225.794C114.597 225.779 114.59 225.772 114.59 225.757C114.59 225.743 114.59 225.728 114.59 225.713C114.582 225.662 114.553 225.625 114.516 225.589C114.458 225.53 114.377 225.5 114.289 225.5C114.208 225.5 114.135 225.523 114.061 225.552C114.003 225.574 113.944 225.611 113.9 225.662C113.849 225.699 113.805 225.743 113.775 225.801C113.739 225.882 113.694 225.97 113.694 226.065C113.694 226.087 113.694 226.117 113.702 226.139C113.694 226.183 113.687 226.227 113.702 226.271C113.724 226.33 113.753 226.381 113.805 226.418C113.878 226.476 114.003 226.476 114.091 226.462C114.303 226.425 114.524 226.256 114.59 226.043C114.604 225.948 114.612 225.882 114.597 225.794Z" fill="#8C664B"/>
<path d="M108.984 218.846C108.881 218.596 108.72 218.383 108.405 218.405C108.17 218.42 107.964 218.567 107.81 218.736C107.451 219.124 107.509 219.799 108.162 219.755C108.243 219.77 108.324 219.777 108.405 219.77C108.72 219.763 109.197 219.44 109.072 219.066C109.043 219 109.021 218.926 108.984 218.846Z" fill="#8C664B"/>
<path d="M136.696 236.741C136.41 236.565 136.102 236.543 135.831 236.631C135.816 236.631 135.801 236.624 135.787 236.624C135.486 236.617 135.192 236.771 134.987 236.984C134.635 237.35 134.393 238.003 134.73 238.451C135.2 239.082 136.388 238.708 136.843 238.253C137.327 237.798 137.261 237.086 136.696 236.741Z" fill="#8C664B"/>
<path d="M120.269 227.716C120.012 227.716 119.762 228.179 120.107 228.179C120.371 228.179 120.614 227.716 120.269 227.716Z" fill="#8C664B"/>
<path d="M121.942 218.67C121.655 218.435 121.259 218.42 120.9 218.523C120.885 218.523 120.87 218.523 120.848 218.523C120.349 218.523 119.836 218.875 119.777 219.396C119.718 219.88 120.056 220.401 120.518 220.555C121.024 220.724 121.633 220.497 121.971 220.108C122.331 219.69 122.404 219.051 121.942 218.67Z" fill="#8C664B"/>
<path d="M125.016 218.948C124.686 218.948 124.378 219.535 124.811 219.535C125.148 219.535 125.456 218.948 125.016 218.948Z" fill="#8C664B"/>
<path d="M130.16 227.841C129.595 227.885 129.045 227.753 128.729 227.386C128.443 227.049 128.303 226.564 128.303 226.124C128.281 225.053 128.744 224.004 129.984 224.136C131.018 224.246 131.972 225.053 132.126 226.102C132.266 227.078 131.18 227.76 130.16 227.841Z" fill="#8C664B"/>
<path d="M139 221.538C138.846 221.546 138.707 221.502 138.582 221.428C138.237 221.428 137.944 221.149 137.805 220.856C137.694 220.614 137.724 220.298 137.907 220.1C138.069 219.924 138.289 219.792 138.538 219.785C139.074 219.777 139.441 220.262 139.507 220.746C139.551 221.105 139.419 221.509 139 221.538Z" fill="#8C664B"/>
<path d="M125.984 231.004C126.109 230.629 125.632 230.307 125.317 230.299C125.236 230.299 125.155 230.307 125.074 230.314C124.429 230.277 124.363 230.945 124.722 231.334C124.884 231.503 125.089 231.649 125.317 231.664C125.632 231.686 125.793 231.473 125.896 231.224C125.933 231.158 125.955 231.077 125.984 231.004Z" fill="#8C664B"/>
<path d="M136.557 231.275C136.418 231.392 136.213 231.4 136.037 231.348C136.029 231.348 136.022 231.348 136.015 231.348C135.765 231.348 135.508 231.172 135.479 230.915C135.45 230.673 135.618 230.409 135.846 230.336C136.095 230.248 136.403 230.365 136.572 230.563C136.756 230.761 136.792 231.084 136.557 231.275Z" fill="#8C664B"/>
<path d="M141.928 231.136C141.598 231.136 141.29 230.549 141.723 230.549C142.06 230.549 142.368 231.136 141.928 231.136Z" fill="#8C664B"/>
<path d="M146.265 221.172C145.7 221.128 145.15 221.26 144.835 221.627C144.548 221.964 144.409 222.456 144.409 222.889C144.387 223.96 144.849 225.009 146.089 224.877C147.124 224.767 148.078 223.96 148.232 222.911C148.371 221.935 147.285 221.252 146.265 221.172Z" fill="#8C664B"/>
<path d="M150.396 225.794C150.396 225.779 150.388 225.772 150.388 225.757C150.388 225.743 150.388 225.728 150.388 225.713C150.381 225.662 150.352 225.625 150.315 225.589C150.256 225.53 150.176 225.5 150.088 225.5C150.007 225.5 149.934 225.523 149.86 225.552C149.801 225.574 149.743 225.611 149.699 225.662C149.647 225.699 149.603 225.743 149.574 225.801C149.537 225.882 149.493 225.97 149.493 226.065C149.493 226.087 149.493 226.117 149.501 226.139C149.493 226.183 149.486 226.227 149.501 226.271C149.523 226.33 149.552 226.381 149.603 226.418C149.677 226.476 149.801 226.476 149.89 226.462C150.102 226.425 150.322 226.256 150.388 226.043C150.403 225.948 150.41 225.882 150.396 225.794Z" fill="#8C664B"/>
<path d="M155.503 231.95C155.4 231.943 155.312 231.972 155.231 232.023C155.004 232.023 154.813 232.207 154.725 232.397C154.652 232.559 154.674 232.757 154.791 232.889C154.901 233.006 155.04 233.094 155.202 233.094C155.554 233.102 155.789 232.786 155.833 232.463C155.862 232.229 155.774 231.965 155.503 231.95Z" fill="#8C664B"/>
<path d="M144.79 218.846C144.687 218.596 144.526 218.383 144.21 218.405C143.975 218.42 143.77 218.567 143.616 218.736C143.256 219.124 143.315 219.799 143.968 219.755C144.049 219.77 144.13 219.777 144.21 219.77C144.526 219.763 145.003 219.44 144.878 219.066C144.849 219 144.819 218.926 144.79 218.846Z" fill="#8C664B"/>
<path d="M148.635 235.633C148.349 235.457 148.041 235.435 147.769 235.523C147.754 235.523 147.74 235.516 147.725 235.516C147.424 235.509 147.131 235.663 146.925 235.876C146.573 236.242 146.331 236.896 146.669 237.343C147.138 237.974 148.327 237.6 148.782 237.145C149.266 236.69 149.207 235.978 148.635 235.633Z" fill="#8C664B"/>
<path d="M156.068 227.716C155.811 227.716 155.561 228.179 155.906 228.179C156.17 228.179 156.412 227.716 156.068 227.716Z" fill="#8C664B"/>
<path d="M157.74 218.67C157.454 218.435 157.058 218.42 156.699 218.523C156.684 218.523 156.669 218.523 156.647 218.523C156.148 218.523 155.635 218.875 155.576 219.396C155.517 219.88 155.855 220.401 156.317 220.555C156.823 220.724 157.432 220.497 157.77 220.108C158.129 219.69 158.203 219.051 157.74 218.67Z" fill="#8C664B"/>
<path d="M160.815 218.948C160.485 218.948 160.177 219.535 160.61 219.535C160.947 219.535 161.255 218.948 160.815 218.948Z" fill="#8C664B"/>
<path d="M165.958 227.841C165.393 227.885 164.842 227.753 164.527 227.386C164.241 227.049 164.101 226.564 164.101 226.124C164.079 225.053 164.542 224.004 165.782 224.136C166.816 224.246 167.77 225.053 167.924 226.102C168.063 227.078 166.985 227.76 165.958 227.841Z" fill="#8C664B"/>
<path d="M174.807 221.538C174.653 221.546 174.514 221.502 174.389 221.428C174.044 221.428 173.751 221.149 173.611 220.856C173.501 220.614 173.53 220.298 173.714 220.1C173.875 219.924 174.095 219.792 174.345 219.785C174.881 219.777 175.247 220.262 175.313 220.746C175.357 221.105 175.218 221.509 174.807 221.538Z" fill="#8C664B"/>
<path d="M161.783 231.004C161.908 230.629 161.431 230.307 161.115 230.299C161.035 230.299 160.954 230.307 160.873 230.314C160.228 230.277 160.162 230.945 160.521 231.334C160.682 231.503 160.888 231.649 161.115 231.664C161.431 231.686 161.592 231.473 161.695 231.224C161.732 231.158 161.761 231.077 161.783 231.004Z" fill="#8C664B"/>
<path d="M170.881 231.444C170.595 231.678 170.199 231.693 169.839 231.59C169.825 231.59 169.81 231.59 169.788 231.59C169.289 231.59 168.775 231.238 168.717 230.717C168.658 230.233 168.995 229.712 169.458 229.558C169.964 229.389 170.573 229.617 170.91 230.005C171.263 230.424 171.343 231.062 170.881 231.444Z" fill="#8C664B"/>
</g>
<g opacity="0.57">
<path d="M184.771 222.257C184.742 222.683 184.852 223.101 185.131 223.336C185.388 223.556 185.762 223.652 186.092 223.652C186.906 223.659 187.699 223.299 187.589 222.36C187.501 221.575 186.877 220.856 186.085 220.753C185.336 220.651 184.83 221.48 184.771 222.257Z" fill="#8C664B"/>
<path d="M190.825 220.82C190.81 220.82 190.795 220.827 190.781 220.827C190.766 220.827 190.751 220.827 190.729 220.834C190.671 220.849 190.627 220.878 190.59 220.922C190.524 220.996 190.487 221.091 190.487 221.194C190.487 221.289 190.509 221.377 190.546 221.465C190.575 221.539 190.619 221.605 190.671 221.656C190.715 221.715 190.773 221.766 190.832 221.803C190.928 221.847 191.03 221.898 191.14 221.891C191.17 221.891 191.199 221.884 191.228 221.884C191.28 221.898 191.331 221.898 191.382 221.884C191.448 221.861 191.507 221.817 191.551 221.766C191.617 221.678 191.617 221.531 191.595 221.429C191.551 221.179 191.346 220.922 191.096 220.849C191.008 220.812 190.928 220.805 190.825 220.82Z" fill="#8C664B"/>
<path d="M182.754 227.482C182.468 227.606 182.218 227.797 182.247 228.164C182.269 228.435 182.438 228.678 182.644 228.861C183.106 229.279 183.891 229.198 183.84 228.435C183.854 228.34 183.862 228.252 183.854 228.149C183.84 227.775 183.458 227.225 183.025 227.371C182.937 227.408 182.842 227.445 182.754 227.482Z" fill="#8C664B"/>
<path d="M207.92 238.113C207.641 237.937 207.333 237.915 207.069 238.003C207.054 238.003 207.04 237.996 207.025 237.996C206.724 237.989 206.438 238.143 206.24 238.348C205.895 238.708 205.653 239.353 205.983 239.794C206.445 240.417 207.612 240.043 208.067 239.603C208.536 239.155 208.478 238.451 207.92 238.113Z" fill="#8C664B"/>
<path d="M207.487 224.598C207.23 224.598 206.988 225.053 207.333 225.053C207.583 225.053 207.825 224.598 207.487 224.598Z" fill="#8C664B"/>
<path d="M207.906 219.755C207.628 219.521 207.231 219.506 206.879 219.616C206.865 219.616 206.85 219.616 206.828 219.616C206.336 219.616 205.83 219.968 205.771 220.474C205.713 220.951 206.05 221.465 206.498 221.619C206.997 221.788 207.591 221.56 207.928 221.179C208.288 220.761 208.361 220.137 207.906 219.755Z" fill="#8C664B"/>
<path d="M212.161 215.969C211.839 215.969 211.53 216.549 211.963 216.549C212.286 216.549 212.594 215.969 212.161 215.969Z" fill="#8C664B"/>
<path d="M217.224 224.73C216.667 224.774 216.131 224.642 215.815 224.282C215.529 223.952 215.397 223.468 215.397 223.035C215.375 221.978 215.837 220.944 217.055 221.076C218.075 221.186 219.015 221.978 219.161 223.013C219.301 223.974 218.237 224.649 217.224 224.73Z" fill="#8C664B"/>
<path d="M225.934 218.515C225.779 218.523 225.647 218.479 225.523 218.413C225.185 218.413 224.892 218.141 224.76 217.848C224.65 217.606 224.679 217.297 224.862 217.099C225.024 216.923 225.237 216.791 225.479 216.791C226.007 216.784 226.366 217.261 226.433 217.738C226.477 218.09 226.344 218.493 225.934 218.515Z" fill="#8C664B"/>
<path d="M213.116 227.841C213.24 227.474 212.771 227.159 212.455 227.151C212.375 227.151 212.294 227.159 212.221 227.166C211.582 227.129 211.524 227.79 211.876 228.171C212.03 228.34 212.235 228.479 212.463 228.494C212.771 228.516 212.932 228.303 213.035 228.061C213.064 227.995 213.086 227.914 213.116 227.841Z" fill="#8C664B"/>
<path d="M222.609 217.723C222.331 217.899 222.022 217.921 221.758 217.833C221.744 217.833 221.729 217.84 221.714 217.84C221.414 217.848 221.127 217.694 220.929 217.488C220.584 217.129 220.342 216.483 220.672 216.043C221.135 215.419 222.301 215.793 222.756 216.234C223.226 216.681 223.167 217.378 222.609 217.723Z" fill="#8C664B"/>
<path d="M223.527 228.105C223.388 228.223 223.19 228.23 223.014 228.179C223.006 228.179 222.999 228.179 222.992 228.179C222.742 228.179 222.493 228.002 222.463 227.746C222.434 227.503 222.603 227.247 222.83 227.173C223.08 227.085 223.38 227.203 223.542 227.393C223.718 227.606 223.755 227.914 223.527 228.105Z" fill="#8C664B"/>
<path d="M228.817 227.973C228.494 227.973 228.186 227.394 228.619 227.394C228.941 227.394 229.25 227.973 228.817 227.973Z" fill="#8C664B"/>
<path d="M181.778 235.853C181.22 235.809 180.685 235.941 180.369 236.301C180.083 236.631 179.951 237.115 179.951 237.548C179.929 238.605 180.391 239.632 181.609 239.507C182.629 239.397 183.568 238.605 183.715 237.57C183.854 236.609 182.79 235.934 181.778 235.853Z" fill="#8C664B"/>
<path d="M185.175 244.233C185.101 244.226 185.035 244.248 184.976 244.284C184.815 244.284 184.676 244.416 184.61 244.556C184.558 244.673 184.573 244.82 184.661 244.915C184.742 245.003 184.844 245.062 184.962 245.062C185.219 245.069 185.395 244.835 185.424 244.607C185.431 244.438 185.365 244.24 185.175 244.233Z" fill="#8C664B"/>
<path d="M231.627 215.874C231.524 215.632 231.37 215.419 231.055 215.441C230.827 215.456 230.622 215.602 230.468 215.764C230.108 216.145 230.174 216.806 230.813 216.769C230.893 216.784 230.967 216.791 231.047 216.784C231.363 216.776 231.825 216.461 231.708 216.094C231.686 216.021 231.664 215.947 231.627 215.874Z" fill="#8C664B"/>
<path d="M185.586 241.144C185.396 241.144 185.219 241.481 185.469 241.481C185.66 241.481 185.836 241.144 185.586 241.144Z" fill="#8C664B"/>
<path d="M199.49 227.812C199.292 228.061 199.277 228.406 199.372 228.722C199.372 228.736 199.372 228.751 199.372 228.766C199.38 229.199 199.688 229.639 200.136 229.69C200.561 229.734 201.009 229.433 201.133 229.037C201.28 228.597 201.075 228.076 200.73 227.782C200.37 227.467 199.82 227.408 199.49 227.812Z" fill="#8C664B"/>
<path d="M199.703 225.141C199.703 225.427 200.217 225.692 200.217 225.31C200.209 225.024 199.696 224.76 199.703 225.141Z" fill="#8C664B"/>
<path d="M201.654 242.244C201.243 242.273 200.847 242.178 200.612 241.907C200.4 241.664 200.304 241.305 200.304 240.989C200.289 240.212 200.627 239.441 201.529 239.544C202.285 239.625 202.982 240.212 203.085 240.975C203.188 241.686 202.403 242.185 201.654 242.244Z" fill="#8C664B"/>
<path d="M208.383 232.016C208.273 232.023 208.17 231.994 208.075 231.935C207.826 231.935 207.605 231.737 207.51 231.517C207.429 231.341 207.451 231.114 207.583 230.967C207.701 230.835 207.862 230.739 208.038 230.739C208.427 230.732 208.699 231.084 208.743 231.444C208.787 231.701 208.684 232.001 208.383 232.016Z" fill="#8C664B"/>
<path d="M189.746 243.543C189.834 243.271 189.489 243.037 189.262 243.029C189.203 243.029 189.144 243.037 189.086 243.044C188.616 243.015 188.565 243.506 188.829 243.785C188.946 243.91 189.093 244.012 189.262 244.027C189.489 244.042 189.607 243.888 189.687 243.712C189.709 243.653 189.731 243.594 189.746 243.543Z" fill="#8C664B"/>
<path d="M198.353 220.467C198.507 220.716 198.529 220.981 198.456 221.215C198.456 221.23 198.463 221.237 198.463 221.252C198.47 221.516 198.338 221.766 198.155 221.949C197.847 222.257 197.274 222.47 196.885 222.184C196.328 221.78 196.651 220.753 197.032 220.35C197.428 219.931 198.045 219.975 198.353 220.467Z" fill="#8C664B"/>
<path d="M196.379 243.859C196.174 244.027 195.88 244.042 195.616 243.961C195.601 243.961 195.594 243.961 195.579 243.961C195.212 243.961 194.845 243.704 194.794 243.323C194.75 242.971 195 242.589 195.33 242.479C195.697 242.354 196.137 242.523 196.386 242.809C196.658 243.117 196.716 243.58 196.379 243.859Z" fill="#8C664B"/>
<path d="M180.215 244.834C179.877 244.629 179.517 244.599 179.202 244.702C179.187 244.702 179.173 244.695 179.151 244.695C178.798 244.687 178.454 244.864 178.219 245.12C177.808 245.546 177.522 246.316 177.918 246.845C178.468 247.586 179.855 247.138 180.398 246.617C180.948 246.074 180.875 245.238 180.215 244.834Z" fill="#8C664B"/>
<path d="M139.104 244.071C139.016 244.064 138.935 244.093 138.869 244.13C138.671 244.13 138.51 244.284 138.429 244.453C138.363 244.592 138.385 244.768 138.488 244.878C138.583 244.981 138.701 245.054 138.84 245.054C139.141 245.062 139.354 244.79 139.383 244.511C139.412 244.313 139.339 244.086 139.104 244.071Z" fill="#8C664B"/>
<path d="M139.596 240.403C139.369 240.403 139.163 240.806 139.457 240.806C139.684 240.799 139.89 240.403 139.596 240.403Z" fill="#8C664B"/>
<path d="M162.473 248.928C161.981 248.965 161.512 248.848 161.233 248.532C160.983 248.239 160.866 247.82 160.866 247.439C160.844 246.507 161.248 245.605 162.326 245.715C163.221 245.81 164.05 246.507 164.183 247.417C164.3 248.268 163.361 248.855 162.473 248.928Z" fill="#8C664B"/>
<path d="M144.548 243.249C144.658 242.926 144.248 242.647 143.969 242.64C143.895 242.64 143.829 242.647 143.763 242.655C143.206 242.618 143.147 243.205 143.463 243.543C143.602 243.689 143.778 243.814 143.976 243.829C144.248 243.851 144.387 243.667 144.475 243.447C144.497 243.389 144.526 243.315 144.548 243.249Z" fill="#8C664B"/>
<path d="M152.428 243.631C152.186 243.836 151.834 243.851 151.526 243.756C151.511 243.756 151.496 243.756 151.482 243.756C151.049 243.756 150.608 243.448 150.55 243C150.498 242.582 150.792 242.127 151.188 241.995C151.621 241.848 152.149 242.046 152.443 242.384C152.758 242.751 152.824 243.301 152.428 243.631Z" fill="#8C664B"/>
</g>
<path d="M95.1971 167.191C95.0723 166.369 94.3092 165.819 93.6122 165.489C92.0273 164.726 89.8188 164.748 88.3734 165.834C87.6103 166.413 87.1554 167.374 87.4929 168.321C87.7937 169.15 88.5862 169.554 89.4299 169.4C89.4886 169.392 89.54 169.363 89.5987 169.326C90.8607 169.898 92.5116 169.847 93.6782 169.341C94.4927 168.974 95.3511 168.182 95.1971 167.191Z" fill="#5A3B25"/>
<path d="M107.429 165.591C106.02 164.718 104.171 164.549 102.55 164.579C100.796 164.608 98.4775 164.887 97.3476 166.391C96.3644 167.697 97.4136 168.644 98.5949 169.194C99.0425 169.84 99.9964 170.258 100.649 170.493C102.953 171.307 107.092 171.865 108.53 169.297C109.285 167.939 108.684 166.362 107.429 165.591Z" fill="#5A3B25"/>
<path d="M128.618 166.802C127.173 165.877 125.096 166.318 123.68 167.088C123.005 167.455 122.242 168.086 122.184 168.922C122.176 169.062 122.191 169.186 122.22 169.296C122.191 169.641 122.345 169.964 122.778 170.133C122.998 170.214 123.24 170.28 123.482 170.324C123.504 170.331 123.534 170.338 123.556 170.346C123.585 170.353 123.614 170.353 123.644 170.353C124.84 170.536 126.241 170.338 127.298 170.03C128.046 169.81 128.831 169.451 129.227 168.746C129.675 167.961 129.323 167.249 128.618 166.802Z" fill="#5A3B25"/>
<path d="M146.221 163.999C143.726 162.525 140.681 162.715 138.274 164.271C137.328 164.88 136.235 165.878 136.08 167.066C135.919 168.27 136.873 168.321 137.797 168.453C137.805 168.453 137.812 168.453 137.812 168.453C139.081 169.282 140.886 169.378 142.332 169.297C143.953 169.209 145.92 168.915 147.116 167.697C148.466 166.325 147.659 164.851 146.221 163.999Z" fill="#5A3B25"/>
<path d="M159.244 166.685C158.247 165.012 155.627 164.733 153.874 164.784C152.501 164.828 148.774 165.922 150.036 167.983C150.036 168.226 150.132 168.453 150.352 168.658C151.694 169.869 154.336 170.045 156.031 169.928C157.586 169.825 160.477 168.739 159.244 166.685Z" fill="#5A3B25"/>
<path d="M178.761 166.545C176.788 165.702 174.139 165.496 172.062 166.054C171.079 166.318 169.759 166.964 169.406 168.013C169.333 168.226 169.318 168.416 169.348 168.578C169.26 168.673 169.172 168.776 169.091 168.879C168.658 169.429 168.915 170.097 169.494 170.361C172.106 171.542 175.262 171.454 177.969 170.617C178.923 170.324 180.097 169.825 180.42 168.768C180.786 167.602 179.679 166.942 178.761 166.545Z" fill="#5A3B25"/>
<path d="M196.29 166.413C194.507 165.173 191.968 165.378 189.943 166.266C188.777 166.347 187.691 166.846 186.788 168.042C186.605 168.284 186.539 168.724 186.737 168.981C188.747 171.593 193.766 169.707 195.931 168.211C196.451 167.858 196.987 166.897 196.29 166.413Z" fill="#5A3B25"/>
<path d="M209.6 166.318C207.978 164.689 205.63 164.659 203.488 164.667C202.101 164.667 198.33 165.378 199.981 167.602C200.927 168.871 203.099 169.282 204.559 169.429C206.386 169.605 208.602 169.157 209.541 167.403C209.688 167.117 209.879 166.604 209.6 166.318Z" fill="#5A3B25"/>
<path d="M214.722 164.784C213.123 164.315 210.694 164.784 210.129 166.575C209.843 167.484 210.459 168.578 211.237 169.055C212.235 169.671 213.577 169.135 214.531 168.607C215.94 167.822 216.762 165.386 214.722 164.784Z" fill="#5A3B25"/>
<path d="M229.462 169.803C229.609 169.509 229.646 169.187 229.448 168.908C229.44 168.893 229.426 168.886 229.418 168.871C228.971 167.455 226.755 167.712 225.596 168.526C225.236 168.783 224.935 169.223 225.031 169.685C225.031 169.693 225.038 169.7 225.038 169.707C225.016 169.891 225.045 170.089 225.141 170.294C225.309 170.654 225.588 170.808 225.911 170.837C226.806 171.263 228.142 170.984 228.927 170.427C229.081 170.316 229.242 170.155 229.367 169.964C229.404 169.92 229.44 169.862 229.462 169.803Z" fill="#5A3B25"/>
<path d="M247.681 166.134C247.079 165.048 245.583 164.74 244.409 164.674C243.609 164.388 242.633 164.366 241.929 164.417C240.476 164.527 238.032 165.334 238.326 167.235C238.575 168.834 240.799 168.915 242.046 168.886C243.734 168.849 245.627 168.644 247.109 167.785C247.666 167.477 248.004 166.714 247.681 166.134Z" fill="#5A3B25"/>
<path d="M251.408 166.318C251.283 165.885 250.829 165.679 250.359 165.797C249.999 165.885 249.691 166.054 249.449 166.288C249.317 166.391 249.185 166.501 249.075 166.626C249.031 166.67 248.994 166.721 248.958 166.78C248.943 166.795 248.928 166.809 248.921 166.831H248.928C248.906 166.868 248.884 166.905 248.862 166.941C248.686 167.316 248.752 167.815 249.214 167.932C249.236 167.939 249.251 167.939 249.273 167.939C249.361 167.991 249.456 168.027 249.567 168.049C250.065 168.123 250.63 167.859 250.939 167.448C251.005 167.396 251.071 167.33 251.129 167.272C251.327 167.213 251.518 167.037 251.592 166.868C251.68 166.67 251.665 166.369 251.408 166.318Z" fill="#5A3B25"/>
<path d="M98.2053 168.732C97.7651 167.477 96.3123 167.404 95.043 167.807C93.9791 167.8 92.8858 168.138 92.3575 169.113C91.389 170.896 94.0011 171.256 95.1897 171.234C96.5031 171.212 98.8364 170.53 98.2053 168.732Z" fill="#82583D"/>
<path d="M113.005 169.047C112.741 168.893 112.462 168.812 112.169 168.827C112.066 168.798 111.963 168.783 111.853 168.783C111.134 168.768 110.599 169.267 110.313 169.884C110.195 170.126 110.29 170.427 110.503 170.588C111.149 171.072 112.088 170.911 112.719 170.5C113.101 170.243 113.607 169.392 113.005 169.047Z" fill="#82583D"/>
<path d="M130.482 168.218C130.218 168.057 129.954 167.983 129.661 168.005C129.14 167.903 128.56 168.123 128.157 168.438C127.826 168.688 127.548 169.069 127.636 169.502C127.753 170.082 128.296 170.39 128.861 170.383C129.705 170.375 130.387 169.825 130.717 169.084C130.842 168.805 130.761 168.38 130.482 168.218Z" fill="#82583D"/>
<path d="M149.082 166.457C148.943 166.354 148.774 166.274 148.591 166.215C148.547 166.156 148.488 166.098 148.422 166.039C147.967 165.657 147.262 165.65 146.705 165.738C145.685 165.899 144.078 166.861 144.885 168.079C145.45 168.93 146.932 169.04 147.82 168.827C148.436 168.68 149.016 168.328 149.31 167.756C149.537 167.301 149.515 166.765 149.082 166.457Z" fill="#82583D"/>
<path d="M166.076 168.028C165.929 167.837 165.701 167.697 165.423 167.602C165.393 167.573 165.364 167.536 165.334 167.507C164.968 167.14 164.373 167.044 163.874 167.059C162.869 167.081 161.365 167.521 161.042 168.622C160.646 169.972 162.664 170.133 163.515 170.163C164.205 170.192 164.982 170.141 165.569 169.752C166.12 169.378 166.523 168.629 166.076 168.028Z" fill="#82583D"/>
<path d="M184.976 168.424C184.162 167.829 182.834 167.969 182.085 168.607C181.74 168.901 181.293 169.444 181.638 169.921C181.755 170.082 181.917 170.192 182.093 170.243C182.416 170.405 182.841 170.42 183.164 170.39C183.81 170.331 184.47 170.089 184.918 169.605C185.211 169.29 185.402 168.732 184.976 168.424Z" fill="#82583D"/>
<path d="M199.944 166.883C199.746 166.611 199.364 166.457 198.932 166.465C198.066 166.465 197.009 166.875 196.701 167.756C196.562 168.145 196.642 168.548 196.914 168.864C197.237 169.231 197.618 169.326 198.08 169.385C199.078 169.51 200.48 169.297 200.825 168.182C201.052 167.418 200.582 167.015 199.944 166.883Z" fill="#82583D"/>
<path d="M218.405 167.814C218.237 167.653 218.031 167.528 217.804 167.433C217.518 167.198 217.143 167.029 216.806 166.949C215.823 166.728 214.443 166.949 214.098 168.071C213.812 168.996 214.854 169.451 215.573 169.59C216.527 169.773 217.642 169.715 218.347 168.952C218.662 168.607 218.765 168.152 218.405 167.814Z" fill="#82583D"/>
<path d="M234.18 167.947C233.446 167.294 231.964 167.257 231.106 167.653C230.864 167.763 230.636 167.954 230.504 168.181C230.196 168.431 229.998 168.783 230.101 169.223C230.299 170.06 231.363 170.038 232.03 169.942C232.867 169.825 233.74 169.495 234.261 168.805C234.474 168.526 234.422 168.167 234.18 167.947Z" fill="#82583D"/>
<path d="M248.503 167.579C248.217 167.176 247.784 167.088 247.365 167.198C246.947 167.073 246.478 167.345 246.206 167.645C246.059 167.807 245.861 168.115 245.964 168.35C246.111 168.687 246.316 168.959 246.683 169.062C247.057 169.172 247.519 169.091 247.857 168.907C248.136 168.746 248.363 168.585 248.51 168.291C248.62 168.064 248.657 167.8 248.503 167.579Z" fill="#82583D"/>
</svg>
