<svg width="340" height="340" viewBox="0 0 340 340" fill="none" xmlns="http://www.w3.org/2000/svg">
<path d="M170.5 267C223.795 267 267 223.795 267 170.5C267 117.205 223.795 74 170.5 74C117.205 74 74 117.205 74 170.5C74 223.795 117.205 267 170.5 267Z" fill="#FFF2BB"/>
<path d="M123.824 165.986C123.873 165.179 123.585 164.421 122.778 163.853C121.065 162.659 118.289 163.326 116.436 163.87C114.319 164.487 112.227 165.286 110.316 166.382C108.883 167.205 106.618 168.795 107.277 170.755C107.952 172.757 110.835 173.136 112.597 173.259C115.233 173.449 118.075 173.144 120.538 172.123C122.473 171.315 124.458 169.693 124.392 167.395C124.368 166.785 124.153 166.332 123.824 165.986Z" fill="#6E4931"/>
<path d="M136.524 166.217C135.692 165.649 134.514 165.377 133.361 165.435C133.147 165.385 132.941 165.352 132.744 165.344C131.039 165.245 128.864 166.275 128.658 168.161C128.452 170.014 130.61 170.261 131.978 170.08C133.633 169.866 135.874 169.075 136.656 167.452C136.845 167.049 136.969 166.522 136.524 166.217Z" fill="#6E4931"/>
<path d="M171.25 167.008C170.525 164.125 166.086 162.997 163.573 162.708C161.778 162.511 159.982 163.129 158.73 164.455C157.8 165.443 157.281 166.942 157.882 168.062C158.005 168.384 158.22 168.697 158.557 168.993C160.394 170.574 163.549 170.838 165.863 170.879C168.071 170.912 172.024 170.113 171.25 167.008Z" fill="#6E4931"/>
<path d="M188.868 166.332C187.921 163.853 185.071 163.606 182.921 164.594C181.208 165.377 179.124 167.288 179.42 169.347C179.297 169.652 179.223 169.981 179.223 170.335C179.223 170.772 179.429 171.06 179.84 171.216C182.649 172.238 190.548 170.731 188.868 166.332Z" fill="#6E4931"/>
<path d="M226.494 166.02C225.431 164.949 223.446 164.479 221.98 164.463C220.456 164.446 218.817 164.908 217.45 165.55C216.412 166.044 214.715 167.057 215.045 168.466C215.432 170.121 218.512 170.443 219.789 170.599C221.206 170.78 223.29 170.64 224.772 169.825C224.896 169.85 225.036 169.833 225.167 169.734C226.386 168.902 227.935 167.477 226.494 166.02Z" fill="#6E4931"/>
<path d="M239.935 166.39C239.91 164.982 238.329 164.38 237.151 164.216C234.507 163.845 230.801 164.545 229.162 166.868C228.544 167.741 228.173 168.96 229.071 169.784C229.788 170.442 230.916 170.541 231.847 170.566C233.889 170.615 236.64 170.385 238.378 169.199C238.98 168.787 239.737 168.079 239.729 167.271C239.861 167.008 239.935 166.711 239.935 166.39Z" fill="#6E4931"/>
<path d="M249.786 166.67C249.424 165.616 248.279 165.427 247.348 165.847C246.829 166.086 246.302 166.58 246.252 167.181C246.211 167.609 246.467 167.89 246.788 167.947C246.87 168.03 246.969 168.104 247.093 168.145C247.636 168.334 248.114 168.277 248.649 168.112C249.168 167.939 250.025 167.371 249.786 166.67Z" fill="#6E4931"/>
<path d="M98.7016 167.881C98.5862 166.745 97.0625 166.053 96.0658 166.012C94.8798 165.954 93.7184 166.753 93.3478 167.873C93.2983 168.013 93.2736 168.17 93.2572 168.334C93.1254 168.614 93.1171 168.911 93.3395 169.15C93.3807 169.191 93.4301 169.232 93.4713 169.273C93.5866 169.438 93.7678 169.603 93.9573 169.685C93.9902 169.702 94.0149 169.71 94.0479 169.71C94.7562 170.13 95.5964 170.27 96.4447 170.122C97.4743 169.932 98.8251 169.092 98.7016 167.881Z" fill="#6E4931"/>
<path d="M151.153 165.813C150.98 165.682 150.766 165.64 150.552 165.64C150.412 165.575 150.247 165.533 150.091 165.542C149.975 165.542 149.852 165.558 149.737 165.583C149.662 165.599 149.588 165.624 149.522 165.649C149.489 165.657 149.152 165.756 149.481 165.665C148.888 165.822 148.18 166.464 148.559 167.131C148.773 167.502 149.251 167.667 149.654 167.667C150.305 167.667 150.898 167.329 151.252 166.794C151.458 166.481 151.466 166.052 151.153 165.813Z" fill="#6E4931"/>
<path d="M198.884 167.214C198.859 167.181 198.834 167.156 198.809 167.123C198.826 167.065 198.834 167.016 198.851 166.958C198.917 166.596 198.628 166.357 198.34 166.233C198.2 166.176 197.936 166.192 197.805 166.225C197.747 166.242 197.566 166.299 197.516 166.316C197.368 166.382 197.228 166.464 197.113 166.579C196.915 166.744 196.948 166.719 197.212 166.497C197.154 166.538 197.105 166.579 197.047 166.637C196.981 166.695 196.932 166.744 196.874 166.802C196.808 166.859 196.742 166.917 196.693 166.975C196.446 167.255 196.248 167.65 196.421 168.021C196.577 168.359 197.006 168.49 197.352 168.391C197.549 168.334 197.714 168.268 197.887 168.186C197.912 168.194 197.928 168.202 197.953 168.21C198.225 168.293 198.579 168.144 198.752 167.938C198.884 167.765 199.073 167.411 198.884 167.214Z" fill="#6E4931"/>
<path d="M251.878 167.601C248.773 167.263 245.627 167.535 242.521 167.815C239.309 168.111 236.113 168.515 232.909 168.82C229.672 169.125 226.378 169.421 223.124 169.141C220.002 168.869 216.897 168.408 213.8 167.988C210.464 167.535 207.12 167.123 203.752 167.008C200.498 166.892 197.278 167.172 194.057 167.658C187.797 168.597 181.603 169.915 175.245 169.907C168.96 169.899 162.783 168.688 156.589 167.765C153.245 167.271 149.917 166.843 146.524 166.934C143.204 167.024 139.902 167.452 136.623 167.963C130.446 168.927 124.326 170.063 118.05 170.179C107.746 170.36 97.5572 168.54 87.2944 168.004C87.2944 168.342 87.2861 168.68 87.2861 169.017C87.2861 215.019 124.573 252.306 170.575 252.306C216.576 252.306 253.863 215.019 253.863 169.017C253.863 168.63 253.863 168.243 253.855 167.856C253.196 167.757 252.537 167.675 251.878 167.601Z" fill="#6E4931"/>
<path d="M102.334 177.205C105.25 178.309 108.215 179.058 111.345 179.132C114.45 179.207 117.539 178.688 120.52 177.856C126.187 176.283 131.417 173.515 137.323 172.774C140.478 172.378 143.706 172.593 146.878 172.617C150.131 172.642 153.376 172.634 156.63 172.502C162.832 172.247 169.001 171.497 175.022 173.49C177.855 174.429 180.606 175.566 183.572 176.052C186.792 176.579 189.881 176.077 193.011 175.278C195.894 174.536 198.752 173.622 201.709 173.21C204.435 172.823 207.194 172.988 209.904 173.449C212.886 173.96 215.793 174.808 218.742 175.434C221.839 176.093 225.002 176.464 228.165 176.332C233.955 176.093 239.58 174.339 245.395 174.322C248.122 174.314 250.84 174.652 253.566 174.734C253.599 174.734 253.632 174.734 253.673 174.734C253.805 172.84 253.871 170.929 253.871 169.001C253.871 168.614 253.871 168.227 253.863 167.84C253.204 167.749 252.545 167.659 251.886 167.593C248.781 167.255 245.634 167.527 242.529 167.807C239.317 168.104 236.121 168.507 232.917 168.812C229.68 169.117 226.385 169.413 223.132 169.133C220.01 168.861 216.905 168.4 213.808 167.98C210.472 167.527 207.128 167.115 203.759 167C200.506 166.885 197.285 167.165 194.065 167.651C187.805 168.59 181.611 169.907 175.253 169.899C168.968 169.891 162.791 168.68 156.597 167.758C153.253 167.263 149.925 166.835 146.532 166.926C143.212 167.016 139.909 167.445 136.631 167.955C130.454 168.919 124.334 170.056 118.058 170.171C107.754 170.352 97.565 168.532 87.3022 167.997C87.3022 168.334 87.2939 168.672 87.2939 169.01C87.2939 170.715 87.3434 172.411 87.4504 174.1C92.5571 174.141 97.5485 175.393 102.334 177.205Z" fill="#6E4931"/>
<path d="M102.647 173.111C104.641 172.584 106.519 171.645 108.594 171.464C109.739 171.365 110.9 171.546 112.045 171.637C113.289 171.727 114.533 171.76 115.777 171.637C118.033 171.406 120.331 170.451 122.613 170.698C123.626 170.805 124.581 171.151 125.57 171.373C126.838 171.661 128.09 171.678 129.35 171.34C131.517 170.755 133.419 169.545 135.726 169.528C136.862 169.52 137.999 169.701 139.119 169.874C140.445 170.072 141.755 170.129 143.097 170.105C144.407 170.08 145.725 169.998 147.034 169.948C148.13 169.907 149.176 169.891 150.247 170.162C151.449 170.467 152.627 170.928 153.871 170.978C155.115 171.027 156.276 170.558 157.429 170.154C158.426 169.808 159.406 169.545 160.477 169.635C161.572 169.734 162.651 170.031 163.722 170.269C164.908 170.541 166.11 170.607 167.305 170.813C168.301 170.986 169.24 171.34 170.204 171.637C171.431 172.016 172.7 172.287 173.985 172.312C175.171 172.337 176.34 172.147 177.51 171.933C178.539 171.744 179.577 171.521 180.623 171.431C181.809 171.332 182.995 171.505 184.181 171.53C185.293 171.554 186.364 171.34 187.46 171.291C188.547 171.241 189.585 171.431 190.664 171.587C191.973 171.777 193.143 171.719 194.403 171.299C195.375 170.978 196.298 170.525 197.286 170.253C198.958 169.792 200.819 169.767 202.533 169.751C203.381 169.742 204.246 169.751 205.086 169.858C205.102 169.858 205.119 169.866 205.135 169.866C206.091 169.709 207.079 169.701 208.018 169.718C209.624 169.742 211.222 169.899 212.82 170.047C213.454 170.105 214.089 170.171 214.731 170.212C215.654 170.269 216.592 170.237 217.515 170.286C219.484 170.385 221.411 170.64 223.297 171.225C225.027 171.769 226.682 172.65 228.519 172.749C230.595 172.864 232.596 172.016 234.548 171.414C235.504 171.118 236.476 170.862 237.481 170.747C238.584 170.607 239.713 170.648 240.825 170.706C243.04 170.821 245.264 171.044 247.455 170.599C249.432 170.204 251.417 170.179 253.427 170.146C253.567 170.146 253.715 170.138 253.855 170.138C253.863 169.767 253.863 169.396 253.863 169.018C253.863 168.63 253.863 168.243 253.855 167.856C253.196 167.766 252.537 167.675 251.878 167.609C248.773 167.271 245.627 167.543 242.521 167.823C239.309 168.12 236.113 168.523 232.909 168.828C229.672 169.133 226.378 169.429 223.124 169.149C220.002 168.877 216.897 168.416 213.8 167.996C210.464 167.543 207.12 167.131 203.752 167.016C200.498 166.901 197.278 167.181 194.057 167.667C187.797 168.606 181.603 169.924 175.245 169.915C168.96 169.907 162.783 168.696 156.589 167.774C153.245 167.28 149.917 166.851 146.524 166.942C143.204 167.032 139.902 167.461 136.623 167.971C130.446 168.935 124.326 170.072 118.05 170.187C107.746 170.368 97.5572 168.548 87.2944 168.013C87.2944 168.35 87.2861 168.688 87.2861 169.026C87.2861 170.006 87.3026 170.978 87.3356 171.95C90.3749 172.872 93.7024 172.996 96.8241 173.226C98.8091 173.358 100.695 173.63 102.647 173.111Z" fill="#986749"/>
<path opacity="0.57" d="M224.211 213.108C218.643 213.174 213.191 214.912 207.886 216.436C202.722 217.927 197.459 219.327 192.039 219.277C186.29 219.228 180.689 217.745 175.055 216.749C172.049 216.213 169.018 215.834 165.954 215.843C162.931 215.851 159.908 216.147 156.918 216.576C151.12 217.399 145.404 218.709 139.597 219.442C136.837 219.788 134.07 220.052 131.294 219.714C128.897 219.417 126.566 218.758 124.301 217.943C119.244 216.123 114.442 213.734 109.105 212.787C105.786 212.202 102.425 211.963 99.0645 211.757C113.61 236.047 140.19 252.306 170.566 252.306C200.704 252.306 227.102 236.302 241.722 212.326C235.899 213.009 230.084 213.042 224.211 213.108Z" fill="#8C664B"/>
<path opacity="0.57" d="M219.146 230.916C213.882 231.295 208.941 233.444 203.71 234.054C198.266 234.688 192.747 234.927 187.27 234.812C181.883 234.696 176.513 234.12 171.126 234.136C168.408 234.144 165.682 234.359 163.021 234.927C160.303 235.512 157.61 236.187 154.908 236.854C152.396 237.48 149.868 238.057 147.29 238.345C144.662 238.642 142.043 238.551 139.415 238.23C134.646 237.645 130.001 236.335 125.454 234.82C122.011 233.675 118.593 232.398 115.15 231.204C129.869 244.333 149.283 252.314 170.566 252.314C191.775 252.314 211.123 244.391 225.834 231.336C223.618 231.006 221.394 230.751 219.146 230.916Z" fill="#8C664B"/>
<g opacity="0.57">
<path d="M102.459 188.217C101.199 188.118 99.9879 188.423 99.2877 189.239C98.6453 189.988 98.3405 191.075 98.3405 192.047C98.2911 194.428 99.3289 196.759 102.08 196.47C104.378 196.223 106.503 194.436 106.832 192.105C107.145 189.914 104.74 188.398 102.459 188.217Z" fill="#8C664B"/>
<path d="M111.651 198.496C111.651 198.471 111.643 198.447 111.634 198.422C111.634 198.389 111.626 198.364 111.626 198.331C111.601 198.216 111.544 198.126 111.461 198.06C111.33 197.928 111.148 197.854 110.951 197.862C110.778 197.862 110.605 197.903 110.44 197.969C110.3 198.027 110.185 198.101 110.078 198.208C109.962 198.29 109.872 198.397 109.798 198.521C109.707 198.702 109.608 198.892 109.616 199.106C109.616 199.163 109.625 199.213 109.633 199.27C109.608 199.369 109.608 199.468 109.633 199.567C109.674 199.699 109.748 199.806 109.855 199.888C110.028 200.02 110.3 200.012 110.489 199.979C110.967 199.896 111.453 199.518 111.601 199.048C111.675 198.842 111.684 198.694 111.651 198.496Z" fill="#8C664B"/>
<path d="M123.008 212.186C122.786 212.169 122.58 212.235 122.399 212.342C121.896 212.342 121.468 212.746 121.279 213.174C121.114 213.528 121.163 213.981 121.427 214.27C121.666 214.533 121.979 214.723 122.341 214.723C123.115 214.739 123.651 214.039 123.741 213.322C123.807 212.812 123.601 212.227 123.008 212.186Z" fill="#8C664B"/>
<path d="M99.1801 183.053C98.9495 182.501 98.5953 182.032 97.8952 182.081C97.3763 182.122 96.9232 182.435 96.5691 182.814C95.7619 183.679 95.9101 185.17 97.3433 185.088C97.5163 185.112 97.6975 185.137 97.8787 185.129C98.587 185.112 99.6413 184.396 99.3695 183.564C99.3119 183.399 99.2542 183.226 99.1801 183.053Z" fill="#8C664B"/>
<path d="M107.747 204.567C107.113 204.18 106.429 204.122 105.828 204.32C105.795 204.32 105.762 204.312 105.729 204.312C105.053 204.295 104.411 204.641 103.958 205.119C103.184 205.926 102.64 207.384 103.381 208.389C104.427 209.797 107.063 208.949 108.084 207.952C109.139 206.923 109.007 205.341 107.747 204.567Z" fill="#8C664B"/>
<path d="M124.26 202.763C123.684 202.763 123.14 203.792 123.906 203.792C124.491 203.792 125.035 202.763 124.26 202.763Z" fill="#8C664B"/>
<path d="M127.984 182.649C127.358 182.122 126.46 182.089 125.661 182.328C125.628 182.328 125.587 182.32 125.554 182.32C124.442 182.32 123.305 183.11 123.165 184.264C123.034 185.343 123.791 186.504 124.804 186.85C125.925 187.229 127.275 186.718 128.033 185.853C128.849 184.922 129.013 183.506 127.984 182.649Z" fill="#8C664B"/>
<path d="M134.828 183.275C134.095 183.275 133.403 184.585 134.383 184.585C135.116 184.585 135.8 183.275 134.828 183.275Z" fill="#8C664B"/>
<path d="M167.008 196.421C159.883 196.792 152.981 195.68 149.003 192.673C145.354 189.922 143.641 185.927 143.641 182.353C143.353 173.597 149.234 165.023 164.85 166.094C177.905 166.992 189.939 173.564 191.825 182.139C193.596 190.194 179.94 195.754 167.008 196.421Z" fill="#8C664B"/>
<path d="M165.929 189.033C165.592 189.057 165.279 188.959 164.999 188.794C164.233 188.794 163.574 188.184 163.277 187.517C163.03 186.974 163.096 186.282 163.508 185.829C163.87 185.433 164.348 185.137 164.9 185.129C166.094 185.112 166.909 186.183 167.05 187.27C167.148 188.069 166.844 188.975 165.929 189.033Z" fill="#8C664B"/>
<path d="M136.97 210.077C137.241 209.245 136.187 208.529 135.479 208.512C135.297 208.504 135.116 208.529 134.943 208.554C133.502 208.471 133.362 209.962 134.169 210.827C134.523 211.206 134.976 211.527 135.495 211.56C136.195 211.609 136.549 211.14 136.78 210.588C136.854 210.423 136.92 210.25 136.97 210.077Z" fill="#8C664B"/>
<path d="M146.854 179.94C146.22 180.327 145.536 180.384 144.935 180.187C144.902 180.187 144.869 180.195 144.836 180.195C144.161 180.211 143.518 179.865 143.065 179.388C142.291 178.58 141.747 177.123 142.489 176.118C143.535 174.709 146.171 175.558 147.192 176.554C148.246 177.584 148.106 179.165 146.854 179.94Z" fill="#8C664B"/>
<path d="M157.199 211.057C156.573 211.585 155.675 211.618 154.876 211.379C154.843 211.379 154.802 211.387 154.769 211.387C153.657 211.387 152.52 210.596 152.38 209.443C152.248 208.364 153.006 207.203 154.019 206.857C155.139 206.478 156.49 206.989 157.248 207.853C158.055 208.792 158.228 210.209 157.199 211.057Z" fill="#8C664B"/>
<path d="M172.428 210.374C171.695 210.374 171.004 209.064 171.984 209.064C172.717 209.064 173.409 210.374 172.428 210.374Z" fill="#8C664B"/>
<path d="M180.006 192.352C179.38 192.302 178.771 192.451 178.417 192.863C178.095 193.233 177.947 193.777 177.947 194.263C177.922 195.457 178.441 196.618 179.817 196.47C180.97 196.347 182.032 195.457 182.197 194.288C182.345 193.2 181.143 192.443 180.006 192.352Z" fill="#8C664B"/>
<path d="M191.257 198.496C191.257 198.471 191.249 198.447 191.241 198.422C191.241 198.389 191.232 198.364 191.232 198.331C191.208 198.216 191.15 198.126 191.068 198.06C190.936 197.928 190.755 197.854 190.557 197.862C190.384 197.862 190.211 197.903 190.046 197.969C189.906 198.027 189.791 198.101 189.684 198.208C189.569 198.29 189.478 198.397 189.404 198.521C189.313 198.702 189.215 198.892 189.223 199.106C189.223 199.163 189.231 199.213 189.239 199.27C189.215 199.369 189.215 199.468 189.239 199.567C189.28 199.699 189.355 199.806 189.462 199.888C189.635 200.02 189.906 200.012 190.096 199.979C190.574 199.896 191.06 199.518 191.208 199.048C191.274 198.842 191.282 198.694 191.257 198.496Z" fill="#8C664B"/>
<path d="M202.607 212.186C202.385 212.169 202.179 212.235 201.997 212.342C201.495 212.342 201.067 212.746 200.877 213.174C200.713 213.528 200.762 213.981 201.026 214.27C201.264 214.533 201.577 214.723 201.94 214.723C202.714 214.739 203.249 214.039 203.34 213.322C203.406 212.812 203.208 212.227 202.607 212.186Z" fill="#8C664B"/>
<path d="M178.787 183.053C178.556 182.501 178.202 182.032 177.502 182.081C176.983 182.122 176.53 182.435 176.176 182.814C175.368 183.679 175.517 185.17 176.95 185.088C177.123 185.112 177.304 185.137 177.485 185.129C178.193 185.112 179.248 184.396 178.976 183.564C178.918 183.399 178.852 183.226 178.787 183.053Z" fill="#8C664B"/>
<path d="M187.344 204.567C186.71 204.18 186.027 204.122 185.425 204.32C185.392 204.32 185.359 204.312 185.326 204.312C184.651 204.295 184.009 204.641 183.556 205.119C182.781 205.926 182.238 207.384 182.979 208.389C184.025 209.797 186.661 208.949 187.682 207.952C188.736 206.923 188.605 205.341 187.344 204.567Z" fill="#8C664B"/>
<path d="M203.868 202.763C203.291 202.763 202.748 203.792 203.514 203.792C204.09 203.792 204.634 202.763 203.868 202.763Z" fill="#8C664B"/>
<path d="M207.59 182.649C206.964 182.122 206.066 182.089 205.267 182.328C205.234 182.328 205.193 182.32 205.16 182.32C204.048 182.32 202.912 183.11 202.772 184.264C202.64 185.343 203.398 186.504 204.411 186.85C205.531 187.229 206.882 186.718 207.64 185.853C208.447 184.922 208.62 183.506 207.59 182.649Z" fill="#8C664B"/>
<path d="M214.427 183.275C213.693 183.275 213.002 184.585 213.982 184.585C214.715 184.585 215.407 183.275 214.427 183.275Z" fill="#8C664B"/>
<path d="M222.885 198.546C221.946 198.62 221.032 198.398 220.505 197.78C220.019 197.22 219.796 196.404 219.796 195.671C219.755 193.884 220.538 192.138 222.597 192.352C224.327 192.533 225.916 193.876 226.163 195.63C226.394 197.277 224.59 198.414 222.885 198.546Z" fill="#8C664B"/>
<path d="M245.528 189.033C245.19 189.057 244.877 188.959 244.597 188.794C243.823 188.794 243.172 188.184 242.876 187.517C242.629 186.974 242.695 186.282 243.106 185.829C243.469 185.433 243.947 185.137 244.498 185.129C245.693 185.112 246.508 186.183 246.648 187.27C246.755 188.069 246.45 188.975 245.528 189.033Z" fill="#8C664B"/>
<path d="M216.577 210.077C216.849 209.245 215.794 208.529 215.086 208.512C214.905 208.504 214.724 208.529 214.551 208.554C213.109 208.471 212.969 209.962 213.776 210.827C214.131 211.206 214.584 211.527 215.103 211.56C215.803 211.609 216.157 211.14 216.387 210.588C216.462 210.423 216.519 210.25 216.577 210.077Z" fill="#8C664B"/>
<path d="M228.824 183.176C228.421 183.423 227.992 183.456 227.613 183.333C227.597 183.333 227.572 183.341 227.556 183.341C227.127 183.349 226.724 183.135 226.436 182.83C225.941 182.32 225.604 181.397 226.073 180.763C226.74 179.873 228.404 180.409 229.055 181.035C229.706 181.685 229.623 182.69 228.824 183.176Z" fill="#8C664B"/>
<path d="M236.806 211.057C236.18 211.585 235.282 211.618 234.483 211.379C234.45 211.379 234.409 211.387 234.376 211.387C233.264 211.387 232.128 210.596 231.988 209.443C231.856 208.364 232.614 207.203 233.627 206.857C234.747 206.478 236.098 206.989 236.855 207.853C237.663 208.792 237.827 210.209 236.806 211.057Z" fill="#8C664B"/>
</g>
<g opacity="0.57">
<path d="M113.783 220.694C113.42 220.661 113.066 220.752 112.86 220.991C112.671 221.205 112.589 221.526 112.589 221.806C112.572 222.498 112.877 223.181 113.676 223.091C114.343 223.017 114.961 222.498 115.06 221.822C115.15 221.188 114.45 220.743 113.783 220.694Z" fill="#8C664B"/>
<path d="M114.953 225.867C114.953 225.859 114.944 225.842 114.944 225.834C114.944 225.817 114.944 225.809 114.944 225.793C114.936 225.743 114.911 225.702 114.87 225.669C114.813 225.612 114.73 225.579 114.64 225.579C114.557 225.579 114.483 225.595 114.409 225.628C114.343 225.653 114.294 225.686 114.244 225.735C114.195 225.776 114.154 225.817 114.121 225.875C114.08 225.957 114.038 226.04 114.038 226.139C114.038 226.163 114.038 226.188 114.047 226.213C114.038 226.254 114.03 226.303 114.047 226.345C114.063 226.402 114.096 226.452 114.145 226.493C114.22 226.551 114.343 226.551 114.434 226.534C114.648 226.501 114.87 226.328 114.936 226.114C114.961 226.023 114.969 225.957 114.953 225.867Z" fill="#8C664B"/>
<path d="M109.344 218.923C109.236 218.676 109.08 218.462 108.767 218.487C108.536 218.503 108.33 218.643 108.174 218.816C107.812 219.203 107.877 219.879 108.52 219.838C108.602 219.846 108.676 219.854 108.759 219.854C109.08 219.846 109.549 219.525 109.426 219.154C109.401 219.08 109.376 218.997 109.344 218.923Z" fill="#8C664B"/>
<path d="M137.06 236.813C136.771 236.64 136.467 236.615 136.195 236.698C136.178 236.698 136.17 236.689 136.154 236.689C135.849 236.681 135.56 236.838 135.355 237.052C135.009 237.414 134.762 238.073 135.099 238.526C135.569 239.16 136.755 238.782 137.216 238.329C137.686 237.876 137.628 237.159 137.06 236.813Z" fill="#8C664B"/>
<path d="M120.628 227.786C120.364 227.786 120.125 228.247 120.471 228.247C120.727 228.256 120.974 227.786 120.628 227.786Z" fill="#8C664B"/>
<path d="M122.3 218.742C122.02 218.503 121.616 218.495 121.254 218.594C121.237 218.594 121.221 218.594 121.204 218.594C120.702 218.594 120.191 218.948 120.133 219.467C120.076 219.953 120.413 220.472 120.875 220.628C121.377 220.801 121.987 220.57 122.324 220.175C122.687 219.763 122.761 219.129 122.3 218.742Z" fill="#8C664B"/>
<path d="M125.38 219.022C125.051 219.022 124.738 219.607 125.174 219.607C125.504 219.616 125.817 219.022 125.38 219.022Z" fill="#8C664B"/>
<path d="M130.52 227.917C129.952 227.959 129.408 227.827 129.095 227.456C128.807 227.118 128.667 226.633 128.667 226.196C128.642 225.125 129.112 224.079 130.347 224.211C131.385 224.318 132.34 225.125 132.489 226.171C132.629 227.16 131.542 227.835 130.52 227.917Z" fill="#8C664B"/>
<path d="M139.366 221.609C139.209 221.617 139.069 221.576 138.946 221.501C138.6 221.501 138.303 221.23 138.171 220.925C138.056 220.678 138.089 220.373 138.278 220.167C138.443 219.986 138.657 219.854 138.904 219.854C139.44 219.846 139.81 220.332 139.868 220.818C139.917 221.18 139.777 221.584 139.366 221.609Z" fill="#8C664B"/>
<path d="M126.344 231.08C126.468 230.702 125.99 230.389 125.677 230.38C125.595 230.38 125.512 230.389 125.438 230.397C124.788 230.356 124.73 231.031 125.092 231.418C125.249 231.591 125.455 231.731 125.685 231.748C125.998 231.772 126.163 231.558 126.262 231.311C126.295 231.237 126.32 231.155 126.344 231.08Z" fill="#8C664B"/>
<path d="M136.92 231.352C136.78 231.467 136.574 231.476 136.401 231.426C136.393 231.426 136.385 231.426 136.376 231.426C136.129 231.426 135.874 231.245 135.841 230.99C135.808 230.743 135.981 230.487 136.212 230.405C136.467 230.323 136.772 230.438 136.936 230.627C137.118 230.841 137.151 231.154 136.92 231.352Z" fill="#8C664B"/>
<path d="M142.29 231.212C141.961 231.212 141.648 230.628 142.092 230.628C142.422 230.619 142.727 231.212 142.29 231.212Z" fill="#8C664B"/>
<path d="M146.623 221.246C146.054 221.205 145.511 221.337 145.198 221.707C144.91 222.045 144.769 222.531 144.769 222.967C144.745 224.038 145.214 225.084 146.45 224.952C147.488 224.845 148.443 224.038 148.591 222.992C148.731 222.004 147.652 221.328 146.623 221.246Z" fill="#8C664B"/>
<path d="M150.757 225.867C150.757 225.859 150.749 225.842 150.749 225.834C150.749 225.817 150.749 225.809 150.749 225.793C150.741 225.743 150.716 225.702 150.675 225.669C150.617 225.612 150.535 225.579 150.444 225.579C150.362 225.579 150.288 225.595 150.214 225.628C150.148 225.653 150.098 225.686 150.049 225.735C150 225.776 149.958 225.817 149.925 225.875C149.884 225.957 149.843 226.04 149.843 226.139C149.843 226.163 149.843 226.188 149.851 226.213C149.843 226.254 149.835 226.303 149.851 226.345C149.868 226.402 149.901 226.452 149.95 226.493C150.024 226.551 150.148 226.551 150.238 226.534C150.453 226.501 150.675 226.328 150.741 226.114C150.766 226.023 150.774 225.957 150.757 225.867Z" fill="#8C664B"/>
<path d="M155.863 232.028C155.764 232.019 155.674 232.052 155.591 232.093C155.369 232.093 155.171 232.275 155.089 232.464C155.015 232.621 155.04 232.827 155.155 232.958C155.262 233.074 155.402 233.164 155.567 233.164C155.913 233.173 156.16 232.851 156.201 232.538C156.226 232.308 156.135 232.044 155.863 232.028Z" fill="#8C664B"/>
<path d="M145.148 218.923C145.041 218.676 144.885 218.462 144.572 218.487C144.341 218.503 144.135 218.643 143.979 218.816C143.616 219.203 143.682 219.879 144.325 219.838C144.407 219.846 144.481 219.854 144.563 219.854C144.885 219.846 145.354 219.525 145.231 219.154C145.206 219.08 145.181 218.997 145.148 218.923Z" fill="#8C664B"/>
<path d="M149.003 235.71C148.715 235.537 148.41 235.512 148.138 235.594C148.122 235.594 148.113 235.586 148.097 235.586C147.792 235.578 147.504 235.734 147.298 235.948C146.952 236.311 146.705 236.97 147.043 237.423C147.512 238.057 148.698 237.678 149.159 237.225C149.629 236.772 149.563 236.055 149.003 235.71Z" fill="#8C664B"/>
<path d="M156.432 227.786C156.169 227.786 155.93 228.247 156.276 228.247C156.531 228.256 156.778 227.786 156.432 227.786Z" fill="#8C664B"/>
<path d="M158.104 218.742C157.824 218.503 157.421 218.495 157.058 218.594C157.042 218.594 157.025 218.594 157.009 218.594C156.506 218.594 155.996 218.948 155.938 219.467C155.88 219.953 156.218 220.472 156.679 220.628C157.182 220.801 157.791 220.57 158.129 220.175C158.491 219.763 158.566 219.129 158.104 218.742Z" fill="#8C664B"/>
<path d="M161.176 219.022C160.846 219.022 160.533 219.607 160.978 219.607C161.308 219.616 161.621 219.022 161.176 219.022Z" fill="#8C664B"/>
<path d="M166.324 227.917C165.756 227.959 165.212 227.827 164.899 227.456C164.611 227.118 164.471 226.633 164.471 226.196C164.446 225.125 164.915 224.079 166.151 224.211C167.189 224.318 168.144 225.125 168.292 226.171C168.432 227.16 167.345 227.835 166.324 227.917Z" fill="#8C664B"/>
<path d="M175.171 221.609C175.014 221.617 174.874 221.576 174.751 221.501C174.405 221.501 174.108 221.23 173.976 220.925C173.869 220.678 173.894 220.373 174.083 220.167C174.248 219.986 174.462 219.854 174.709 219.854C175.245 219.846 175.615 220.332 175.673 220.818C175.714 221.18 175.582 221.584 175.171 221.609Z" fill="#8C664B"/>
<path d="M162.148 231.08C162.272 230.702 161.794 230.389 161.481 230.38C161.398 230.38 161.316 230.389 161.242 230.397C160.591 230.356 160.534 231.031 160.896 231.418C161.053 231.591 161.258 231.731 161.489 231.748C161.802 231.772 161.967 231.558 162.066 231.311C162.09 231.237 162.123 231.155 162.148 231.08Z" fill="#8C664B"/>
<path d="M171.242 231.517C170.962 231.756 170.558 231.764 170.196 231.665C170.179 231.665 170.163 231.665 170.147 231.665C169.644 231.665 169.133 231.311 169.076 230.792C169.018 230.306 169.356 229.787 169.817 229.631C170.319 229.458 170.929 229.689 171.267 230.084C171.629 230.504 171.703 231.138 171.242 231.517Z" fill="#8C664B"/>
</g>
<g opacity="0.57">
<path d="M185.138 222.333C185.105 222.762 185.212 223.173 185.5 223.412C185.755 223.626 186.126 223.725 186.464 223.725C187.279 223.733 188.07 223.371 187.954 222.432C187.864 221.65 187.246 220.933 186.447 220.826C185.698 220.727 185.187 221.559 185.138 222.333Z" fill="#8C664B"/>
<path d="M191.182 220.9C191.166 220.9 191.158 220.908 191.141 220.908C191.125 220.908 191.108 220.908 191.092 220.916C191.034 220.933 190.985 220.958 190.952 221.007C190.886 221.081 190.845 221.172 190.845 221.279C190.845 221.369 190.869 221.46 190.902 221.551C190.935 221.625 190.977 221.682 191.026 221.74C191.067 221.798 191.125 221.847 191.191 221.888C191.29 221.938 191.388 221.987 191.504 221.979C191.528 221.979 191.561 221.979 191.586 221.971C191.635 221.979 191.693 221.987 191.743 221.971C191.808 221.946 191.866 221.905 191.915 221.847C191.981 221.757 191.981 221.617 191.965 221.509C191.924 221.262 191.718 221.007 191.471 220.933C191.372 220.884 191.29 220.884 191.182 220.9Z" fill="#8C664B"/>
<path d="M183.12 227.555C182.831 227.679 182.584 227.868 182.617 228.239C182.642 228.511 182.807 228.749 183.013 228.931C183.474 229.351 184.256 229.268 184.207 228.511C184.223 228.42 184.232 228.321 184.223 228.231C184.207 227.86 183.828 227.308 183.391 227.456C183.301 227.489 183.21 227.522 183.12 227.555Z" fill="#8C664B"/>
<path d="M208.283 238.189C208.003 238.016 207.698 237.991 207.434 238.073C207.418 238.073 207.41 238.065 207.393 238.065C207.097 238.057 206.808 238.213 206.611 238.419C206.265 238.773 206.026 239.424 206.355 239.869C206.817 240.495 207.986 240.116 208.439 239.679C208.9 239.226 208.843 238.526 208.283 238.189Z" fill="#8C664B"/>
<path d="M207.846 224.672C207.59 224.672 207.351 225.125 207.689 225.125C207.953 225.134 208.192 224.672 207.846 224.672Z" fill="#8C664B"/>
<path d="M208.273 219.829C207.993 219.598 207.598 219.582 207.244 219.689C207.227 219.689 207.211 219.689 207.194 219.689C206.7 219.689 206.198 220.035 206.14 220.546C206.083 221.023 206.42 221.534 206.865 221.691C207.359 221.855 207.961 221.633 208.298 221.246C208.652 220.834 208.727 220.208 208.273 219.829Z" fill="#8C664B"/>
<path d="M212.524 216.041C212.194 216.041 211.89 216.617 212.326 216.617C212.656 216.625 212.96 216.041 212.524 216.041Z" fill="#8C664B"/>
<path d="M217.589 224.804C217.029 224.845 216.494 224.713 216.181 224.351C215.892 224.021 215.761 223.535 215.761 223.107C215.736 222.053 216.197 221.023 217.416 221.147C218.438 221.254 219.377 222.045 219.525 223.082C219.665 224.054 218.602 224.722 217.589 224.804Z" fill="#8C664B"/>
<path d="M226.304 218.594C226.156 218.602 226.016 218.561 225.892 218.486C225.554 218.486 225.258 218.215 225.126 217.918C225.019 217.679 225.044 217.374 225.225 217.169C225.39 216.996 225.596 216.864 225.843 216.856C226.37 216.847 226.732 217.325 226.798 217.803C226.839 218.165 226.708 218.569 226.304 218.594Z" fill="#8C664B"/>
<path d="M213.479 227.918C213.603 227.547 213.133 227.234 212.82 227.226C212.738 227.226 212.664 227.234 212.581 227.243C211.947 227.201 211.881 227.869 212.235 228.247C212.392 228.412 212.598 228.552 212.82 228.577C213.133 228.602 213.29 228.387 213.389 228.149C213.43 228.066 213.454 227.992 213.479 227.918Z" fill="#8C664B"/>
<path d="M222.976 217.795C222.696 217.968 222.391 217.993 222.128 217.911C222.111 217.911 222.103 217.911 222.087 217.919C221.79 217.927 221.502 217.771 221.304 217.565C220.958 217.21 220.719 216.56 221.049 216.115C221.51 215.489 222.68 215.868 223.133 216.304C223.594 216.757 223.536 217.458 222.976 217.795Z" fill="#8C664B"/>
<path d="M223.899 228.181C223.759 228.296 223.561 228.304 223.388 228.255C223.38 228.255 223.371 228.255 223.363 228.255C223.116 228.255 222.869 228.082 222.836 227.827C222.803 227.588 222.976 227.332 223.198 227.25C223.446 227.168 223.75 227.283 223.915 227.472C224.088 227.678 224.121 227.991 223.899 228.181Z" fill="#8C664B"/>
<path d="M229.178 228.049C228.849 228.049 228.544 227.473 228.98 227.473C229.31 227.465 229.615 228.049 229.178 228.049Z" fill="#8C664B"/>
<path d="M182.139 235.932C181.579 235.891 181.044 236.023 180.731 236.385C180.442 236.715 180.311 237.2 180.311 237.629C180.286 238.683 180.747 239.713 181.966 239.589C182.987 239.482 183.926 238.691 184.075 237.653C184.215 236.682 183.152 236.014 182.139 235.932Z" fill="#8C664B"/>
<path d="M185.533 244.308C185.459 244.3 185.393 244.325 185.335 244.358C185.171 244.358 185.031 244.489 184.965 244.629C184.915 244.745 184.923 244.893 185.014 244.992C185.088 245.074 185.195 245.14 185.311 245.14C185.566 245.148 185.739 244.918 185.772 244.679C185.797 244.514 185.731 244.316 185.533 244.308Z" fill="#8C664B"/>
<path d="M231.995 215.95C231.888 215.703 231.732 215.497 231.427 215.522C231.196 215.538 230.999 215.678 230.842 215.851C230.488 216.23 230.546 216.897 231.188 216.856C231.271 216.864 231.345 216.872 231.427 216.872C231.74 216.864 232.21 216.551 232.086 216.181C232.053 216.098 232.028 216.024 231.995 215.95Z" fill="#8C664B"/>
<path d="M185.944 241.22C185.755 241.22 185.574 241.557 185.829 241.557C186.019 241.557 186.2 241.22 185.944 241.22Z" fill="#8C664B"/>
<path d="M199.856 227.884C199.658 228.131 199.642 228.477 199.741 228.79C199.741 228.807 199.741 228.815 199.741 228.832C199.749 229.268 200.062 229.705 200.507 229.754C200.927 229.804 201.38 229.499 201.512 229.103C201.652 228.667 201.454 228.14 201.108 227.851C200.737 227.538 200.177 227.481 199.856 227.884Z" fill="#8C664B"/>
<path d="M200.07 225.216C200.07 225.504 200.589 225.768 200.581 225.389C200.573 225.101 200.062 224.837 200.07 225.216Z" fill="#8C664B"/>
<path d="M202.014 242.323C201.603 242.356 201.207 242.258 200.977 241.986C200.763 241.739 200.664 241.384 200.664 241.063C200.647 240.281 200.985 239.515 201.891 239.614C202.649 239.696 203.341 240.281 203.448 241.047C203.555 241.763 202.764 242.258 202.014 242.323Z" fill="#8C664B"/>
<path d="M208.752 232.094C208.636 232.102 208.538 232.069 208.447 232.02C208.192 232.02 207.977 231.822 207.879 231.6C207.796 231.418 207.821 231.196 207.953 231.048C208.076 230.916 208.225 230.825 208.414 230.817C208.801 230.809 209.073 231.163 209.122 231.517C209.147 231.781 209.048 232.077 208.752 232.094Z" fill="#8C664B"/>
<path d="M190.113 243.617C190.203 243.345 189.857 243.114 189.627 243.106C189.569 243.106 189.511 243.114 189.454 243.122C188.984 243.098 188.935 243.584 189.198 243.864C189.314 243.987 189.462 244.094 189.635 244.103C189.865 244.119 189.981 243.963 190.055 243.781C190.071 243.732 190.096 243.674 190.113 243.617Z" fill="#8C664B"/>
<path d="M198.719 220.538C198.876 220.785 198.9 221.049 198.826 221.287C198.826 221.304 198.826 221.312 198.834 221.32C198.843 221.584 198.711 221.839 198.53 222.012C198.217 222.317 197.648 222.539 197.253 222.251C196.701 221.848 197.014 220.818 197.401 220.414C197.788 220.011 198.406 220.052 198.719 220.538Z" fill="#8C664B"/>
<path d="M196.743 243.938C196.537 244.111 196.24 244.119 195.985 244.045C195.977 244.045 195.96 244.045 195.952 244.045C195.59 244.045 195.219 243.79 195.17 243.411C195.128 243.057 195.375 242.678 195.705 242.562C196.076 242.439 196.512 242.604 196.759 242.892C197.023 243.197 197.08 243.658 196.743 243.938Z" fill="#8C664B"/>
<path d="M180.574 244.91C180.237 244.704 179.882 244.679 179.561 244.778C179.545 244.778 179.528 244.769 179.512 244.769C179.158 244.761 178.82 244.942 178.581 245.19C178.169 245.618 177.889 246.384 178.276 246.911C178.828 247.652 180.212 247.208 180.756 246.68C181.316 246.153 181.242 245.321 180.574 244.91Z" fill="#8C664B"/>
<path d="M139.465 244.152C139.383 244.144 139.301 244.168 139.227 244.21C139.029 244.21 138.864 244.366 138.79 244.531C138.724 244.671 138.741 244.844 138.848 244.959C138.938 245.058 139.062 245.132 139.202 245.14C139.507 245.149 139.713 244.869 139.745 244.597C139.778 244.391 139.696 244.16 139.465 244.152Z" fill="#8C664B"/>
<path d="M139.951 240.479C139.729 240.479 139.515 240.882 139.811 240.882C140.042 240.882 140.256 240.479 139.951 240.479Z" fill="#8C664B"/>
<path d="M162.832 249.003C162.346 249.045 161.869 248.921 161.597 248.608C161.35 248.32 161.226 247.892 161.226 247.513C161.21 246.582 161.613 245.676 162.684 245.791C163.582 245.89 164.405 246.582 164.537 247.496C164.661 248.345 163.722 248.938 162.832 249.003Z" fill="#8C664B"/>
<path d="M144.909 243.328C145.016 243.007 144.605 242.727 144.333 242.719C144.259 242.719 144.193 242.727 144.127 242.735C143.567 242.702 143.509 243.287 143.822 243.625C143.962 243.773 144.135 243.897 144.341 243.913C144.613 243.93 144.753 243.748 144.843 243.534C144.86 243.46 144.885 243.394 144.909 243.328Z" fill="#8C664B"/>
<path d="M152.793 243.707C152.545 243.913 152.199 243.921 151.886 243.831C151.87 243.831 151.862 243.831 151.845 243.831C151.409 243.831 150.972 243.526 150.915 243.073C150.865 242.653 151.162 242.2 151.557 242.068C151.994 241.92 152.521 242.117 152.817 242.455C153.122 242.826 153.188 243.378 152.793 243.707Z" fill="#8C664B"/>
</g>
<path d="M95.5562 167.263C95.4244 166.448 94.6666 165.896 93.9665 165.558C92.3769 164.792 90.1695 164.817 88.7281 165.904C87.9621 166.481 87.509 167.444 87.8467 168.392C88.1433 169.224 88.934 169.627 89.7823 169.471C89.84 169.462 89.8976 169.438 89.9471 169.397C91.2073 169.965 92.8628 169.915 94.0242 169.413C94.8478 169.051 95.7127 168.252 95.5562 167.263Z" fill="#5A3B25"/>
<path d="M107.787 165.665C106.378 164.792 104.525 164.627 102.911 164.652C101.156 164.677 98.8419 164.965 97.7053 166.464C96.7169 167.774 97.7711 168.721 98.9572 169.265C99.402 169.915 100.366 170.335 101.008 170.558C103.314 171.373 107.449 171.933 108.891 169.355C109.648 168.013 109.039 166.44 107.787 165.665Z" fill="#5A3B25"/>
<path d="M128.979 166.876C127.538 165.953 125.462 166.39 124.046 167.164C123.37 167.527 122.613 168.161 122.555 169.001C122.547 169.141 122.563 169.265 122.588 169.38C122.563 169.726 122.711 170.047 123.148 170.212C123.37 170.294 123.609 170.36 123.856 170.401C123.881 170.409 123.906 170.418 123.93 170.418C123.955 170.426 123.988 170.426 124.021 170.426C125.215 170.607 126.616 170.41 127.678 170.105C128.428 169.891 129.21 169.528 129.605 168.82C130.034 168.029 129.68 167.321 128.979 166.876Z" fill="#5A3B25"/>
<path d="M146.589 164.076C144.094 162.601 141.054 162.791 138.641 164.347C137.694 164.957 136.598 165.954 136.442 167.14C136.285 168.35 137.241 168.392 138.155 168.523C138.163 168.523 138.163 168.523 138.171 168.523C139.44 169.355 141.252 169.446 142.693 169.364C144.316 169.273 146.284 168.976 147.479 167.766C148.821 166.398 148.022 164.924 146.589 164.076Z" fill="#5A3B25"/>
<path d="M159.604 166.752C158.599 165.072 155.979 164.8 154.233 164.858C152.858 164.899 149.135 165.995 150.395 168.062C150.395 168.301 150.494 168.532 150.716 168.737C152.059 169.948 154.703 170.121 156.4 170.006C157.948 169.891 160.839 168.82 159.604 166.752Z" fill="#5A3B25"/>
<path d="M179.124 166.62C177.155 165.772 174.495 165.574 172.427 166.126C171.447 166.39 170.121 167.032 169.775 168.078C169.701 168.292 169.693 168.482 169.717 168.638C169.627 168.737 169.544 168.836 169.462 168.935C169.034 169.487 169.281 170.154 169.866 170.418C172.477 171.595 175.631 171.513 178.341 170.673C179.297 170.376 180.474 169.874 180.796 168.828C181.15 167.675 180.046 167.016 179.124 166.62Z" fill="#5A3B25"/>
<path d="M196.652 166.489C194.864 165.254 192.327 165.451 190.301 166.341C189.132 166.423 188.053 166.926 187.147 168.12C186.965 168.367 186.899 168.804 187.097 169.059C189.107 171.67 194.131 169.784 196.297 168.293C196.816 167.931 197.352 166.975 196.652 166.489Z" fill="#5A3B25"/>
<path d="M209.962 166.39C208.339 164.759 205.992 164.734 203.842 164.734C202.45 164.734 198.686 165.443 200.333 167.667C201.28 168.935 203.455 169.347 204.913 169.495C206.733 169.668 208.949 169.223 209.896 167.469C210.052 167.189 210.25 166.678 209.962 166.39Z" fill="#5A3B25"/>
<path d="M215.085 164.858C213.487 164.388 211.057 164.858 210.489 166.654C210.201 167.568 210.819 168.655 211.593 169.133C212.59 169.75 213.932 169.215 214.888 168.688C216.304 167.897 217.128 165.459 215.085 164.858Z" fill="#5A3B25"/>
<path d="M229.829 169.874C229.977 169.586 230.018 169.256 229.812 168.976C229.804 168.968 229.796 168.952 229.787 168.943C229.343 167.527 227.119 167.782 225.966 168.598C225.603 168.853 225.307 169.298 225.397 169.759C225.397 169.767 225.406 169.775 225.406 169.784C225.389 169.965 225.414 170.162 225.513 170.368C225.677 170.723 225.957 170.879 226.279 170.912C227.176 171.34 228.511 171.06 229.293 170.5C229.45 170.393 229.606 170.228 229.738 170.039C229.771 169.99 229.804 169.932 229.829 169.874Z" fill="#5A3B25"/>
<path d="M248.048 166.209C247.447 165.122 245.948 164.817 244.778 164.751C243.979 164.463 242.999 164.438 242.299 164.496C240.849 164.603 238.403 165.41 238.699 167.313C238.947 168.911 241.179 168.993 242.414 168.968C244.103 168.935 245.997 168.729 247.48 167.873C248.032 167.552 248.369 166.786 248.048 166.209Z" fill="#5A3B25"/>
<path d="M251.772 166.39C251.648 165.962 251.195 165.756 250.725 165.863C250.363 165.954 250.058 166.118 249.811 166.357C249.679 166.456 249.548 166.571 249.441 166.695C249.399 166.744 249.358 166.794 249.317 166.843C249.309 166.86 249.292 166.876 249.276 166.892H249.284C249.259 166.925 249.243 166.967 249.218 167.008C249.037 167.378 249.111 167.881 249.572 167.996C249.597 168.004 249.614 168.004 249.63 168.004C249.721 168.054 249.819 168.095 249.927 168.111C250.421 168.186 250.997 167.914 251.302 167.51C251.368 167.453 251.434 167.395 251.491 167.329C251.689 167.263 251.879 167.098 251.953 166.925C252.052 166.744 252.035 166.439 251.772 166.39Z" fill="#5A3B25"/>
<path d="M98.5626 168.804C98.1178 167.552 96.6682 167.477 95.3997 167.881C94.3372 167.873 93.2417 168.211 92.7146 169.182C91.7509 170.97 94.3537 171.324 95.548 171.307C96.8659 171.283 99.1968 170.607 98.5626 168.804Z" fill="#82583D"/>
<path d="M113.363 169.125C113.1 168.977 112.82 168.894 112.531 168.911C112.433 168.886 112.326 168.869 112.21 168.861C111.494 168.845 110.958 169.347 110.67 169.957C110.555 170.204 110.654 170.5 110.859 170.657C111.502 171.143 112.441 170.978 113.075 170.566C113.462 170.311 113.965 169.463 113.363 169.125Z" fill="#82583D"/>
<path d="M130.841 168.293C130.578 168.136 130.314 168.054 130.018 168.078C129.499 167.98 128.914 168.202 128.51 168.515C128.181 168.77 127.909 169.149 127.991 169.577C128.107 170.162 128.65 170.467 129.21 170.459C130.051 170.451 130.734 169.907 131.072 169.157C131.204 168.877 131.121 168.457 130.841 168.293Z" fill="#82583D"/>
<path d="M149.44 166.53C149.3 166.431 149.135 166.349 148.954 166.291C148.905 166.234 148.855 166.168 148.789 166.11C148.336 165.723 147.628 165.723 147.068 165.806C146.047 165.962 144.44 166.934 145.248 168.153C145.808 169.001 147.29 169.117 148.188 168.902C148.806 168.754 149.382 168.408 149.679 167.832C149.901 167.379 149.877 166.843 149.44 166.53Z" fill="#82583D"/>
<path d="M166.431 168.103C166.283 167.914 166.053 167.766 165.781 167.675C165.756 167.642 165.723 167.609 165.69 167.576C165.328 167.205 164.726 167.115 164.224 167.123C163.219 167.148 161.712 167.584 161.391 168.688C160.995 170.039 163.013 170.195 163.87 170.228C164.562 170.253 165.336 170.204 165.929 169.816C166.481 169.454 166.884 168.704 166.431 168.103Z" fill="#82583D"/>
<path d="M185.343 168.499C184.528 167.906 183.202 168.046 182.452 168.688C182.106 168.985 181.662 169.528 181.999 169.998C182.115 170.163 182.279 170.27 182.452 170.319C182.773 170.476 183.202 170.492 183.523 170.467C184.174 170.41 184.833 170.171 185.277 169.677C185.574 169.364 185.763 168.804 185.343 168.499Z" fill="#82583D"/>
<path d="M200.309 166.959C200.111 166.687 199.732 166.539 199.295 166.539C198.431 166.539 197.376 166.95 197.063 167.832C196.923 168.219 197.006 168.622 197.277 168.935C197.599 169.306 197.978 169.397 198.447 169.454C199.444 169.578 200.844 169.372 201.19 168.252C201.412 167.486 200.943 167.09 200.309 166.959Z" fill="#82583D"/>
<path d="M218.767 167.889C218.594 167.732 218.388 167.601 218.166 167.502C217.886 167.263 217.507 167.098 217.169 167.016C216.181 166.793 214.805 167.016 214.459 168.136C214.179 169.059 215.209 169.512 215.934 169.652C216.889 169.833 218.001 169.775 218.709 169.017C219.022 168.68 219.129 168.227 218.767 167.889Z" fill="#82583D"/>
<path d="M234.549 168.021C233.816 167.37 232.333 167.337 231.476 167.724C231.229 167.84 231.007 168.029 230.875 168.252C230.562 168.499 230.373 168.853 230.472 169.289C230.669 170.13 231.732 170.105 232.407 170.006C233.247 169.891 234.12 169.561 234.639 168.869C234.845 168.598 234.796 168.243 234.549 168.021Z" fill="#82583D"/>
<path d="M248.872 167.65C248.592 167.247 248.155 167.164 247.735 167.263C247.324 167.14 246.846 167.403 246.574 167.708C246.426 167.873 246.228 168.177 246.335 168.416C246.483 168.754 246.681 169.026 247.052 169.133C247.422 169.24 247.892 169.166 248.221 168.976C248.501 168.82 248.732 168.655 248.872 168.359C248.987 168.136 249.029 167.873 248.872 167.65Z" fill="#82583D"/>
<path d="M151.458 170.047C151.458 170.047 160.328 161.012 178.35 166.019C187.196 168.935 189.947 171.365 190.277 174.025C190.606 176.678 188.736 184.84 175.706 190.136C162.676 195.424 151.82 194.362 147.199 184.939C145.511 180.4 146.861 174.371 151.458 170.047Z" fill="#DCDDCF"/>
<path d="M161.687 193.546C154.851 193.546 149.727 190.671 146.976 185.046C145.123 180.112 146.853 174.017 151.276 169.858C151.523 169.61 160.624 160.822 178.424 165.764C186.537 168.441 190.153 170.895 190.54 173.992C190.886 176.743 188.909 185.062 175.813 190.375C170.574 192.5 165.813 193.546 161.687 193.546ZM167.98 164.784C157.165 164.784 151.712 170.162 151.638 170.236C151.638 170.236 151.63 170.236 151.63 170.245C147.355 174.256 145.675 180.129 147.446 184.848C151.721 193.571 161.992 195.424 175.607 189.897C188.398 184.708 190.342 176.71 190.013 174.067C189.658 171.208 186.141 168.877 178.267 166.275C174.429 165.196 170.994 164.784 167.98 164.784Z" fill="#85867F"/>
<path d="M183.86 177.106C186.084 175.598 184.922 175.228 184.922 175.228C184.922 175.228 184.955 174.742 186.907 174.478C166.135 169.676 151.424 176.216 146.688 178.803C146.4 180.59 146.474 182.361 146.919 183.975C163.227 187.286 181.71 178.564 183.86 177.106Z" fill="#6E6963"/>
<path d="M188.192 171.95C180.689 167.56 164.949 161.217 148.681 173.449C148.039 174.495 147.545 175.582 147.19 176.677C151.926 173.202 165.319 165.855 188.192 171.95Z" fill="#6E6963"/>
<path d="M185.301 179.824C168.968 189.543 153.038 187.566 148.162 186.635C149.208 188.258 150.485 189.559 151.943 190.573C170.17 192.961 186.676 178.901 185.301 179.824Z" fill="#6E6963"/>
<path d="M175.088 188.686C167.148 192.203 159.62 192.566 155.979 192.492C159.225 193.488 163.047 193.521 167.264 192.698C174.841 189.741 176.077 188.167 175.088 188.686Z" fill="#6E6963"/>
<path d="M190.276 174.025C189.955 171.447 187.344 169.083 179.116 166.283C179.421 166.415 179.742 166.538 180.079 166.67C192.179 171.291 187.476 177.954 174.577 183.794C161.679 189.642 147.899 185.062 150.823 176.068C153.261 168.556 160.896 165.616 163.359 164.85C155.403 166.044 151.457 170.055 151.457 170.055C146.861 174.371 145.51 180.409 147.207 184.939C151.82 194.361 162.676 195.424 175.714 190.136C188.736 184.84 190.606 176.677 190.276 174.025Z" fill="#C4C6BA"/>
<path d="M148.615 173.564C148.615 173.564 148.615 173.556 148.623 173.556C148.615 173.556 148.615 173.556 148.615 173.564Z" fill="#C4C6BA"/>
<path d="M148.689 173.449L148.681 173.457L148.689 173.449Z" fill="#C4C6BA"/>
<path d="M189.065 171.488C189.156 171.604 189.246 171.719 189.345 171.842C193.455 176.694 178.283 193.949 159.133 190.062C145.584 187.319 145.979 180.137 147.371 176.175C146.276 179.181 146.226 182.303 147.215 184.922C151.827 194.345 162.683 195.407 175.722 190.119C188.752 184.832 190.622 176.669 190.292 174.009C190.169 173.16 189.798 172.328 189.065 171.488Z" fill="#8A8B84"/>
<path d="M183.316 170.006C175.483 163.359 163.276 164.265 154.57 171.035C154.422 171.151 154.718 171.332 154.842 171.258C163.844 165.739 174.857 164.446 183.036 170.195C183.184 170.294 183.513 170.17 183.316 170.006Z" fill="#DCDDCF"/>
</svg>
