<svg width="340" height="340" viewBox="0 0 340 340" fill="none" xmlns="http://www.w3.org/2000/svg">
<path d="M170.5 267C223.795 267 267 223.795 267 170.5C267 117.205 223.795 74 170.5 74C117.205 74 74 117.205 74 170.5C74 223.795 117.205 267 170.5 267Z" fill="#FFF2BB"/>
<path d="M123.826 165.693C123.87 164.887 123.584 164.133 122.778 163.561C121.063 162.359 118.294 163.034 116.44 163.576C114.322 164.191 112.234 164.99 110.321 166.089C108.885 166.917 106.621 168.5 107.288 170.463C107.962 172.464 110.849 172.837 112.608 172.962C115.245 173.145 118.088 172.845 120.543 171.819C122.477 171.013 124.463 169.386 124.397 167.093C124.375 166.492 124.163 166.038 123.826 165.693Z" fill="#6E4931"/>
<path d="M136.531 165.92C135.695 165.349 134.523 165.085 133.365 165.136C133.153 165.085 132.94 165.056 132.75 165.048C131.042 164.946 128.874 165.979 128.661 167.862C128.456 169.716 130.617 169.965 131.98 169.782C133.636 169.569 135.878 168.778 136.662 167.151C136.853 166.756 136.978 166.228 136.531 165.92Z" fill="#6E4931"/>
<path d="M171.247 166.719C170.521 163.839 166.088 162.704 163.568 162.425C161.773 162.227 159.977 162.85 158.724 164.176C157.794 165.166 157.274 166.66 157.874 167.781C157.992 168.104 158.212 168.419 158.549 168.712C160.388 170.295 163.546 170.558 165.854 170.595C168.074 170.617 172.031 169.818 171.247 166.719Z" fill="#6E4931"/>
<path d="M188.869 166.045C187.917 163.561 185.074 163.319 182.919 164.309C181.212 165.093 179.124 167.005 179.424 169.064C179.3 169.364 179.234 169.694 179.227 170.053C179.227 170.493 179.432 170.779 179.842 170.932C182.656 171.951 190.555 170.441 188.869 166.045Z" fill="#6E4931"/>
<path d="M226.495 165.73C225.433 164.66 223.447 164.191 221.982 164.177C220.465 164.162 218.816 164.616 217.453 165.268C216.413 165.759 214.713 166.778 215.043 168.185C215.424 169.833 218.516 170.163 219.783 170.324C221.198 170.5 223.279 170.368 224.766 169.547C224.891 169.577 225.03 169.555 225.162 169.46C226.385 168.61 227.939 167.181 226.495 165.73Z" fill="#6E4931"/>
<path d="M239.933 166.096C239.911 164.682 238.328 164.089 237.148 163.92C234.503 163.554 230.803 164.25 229.154 166.573C228.539 167.445 228.165 168.668 229.059 169.482C229.777 170.141 230.905 170.244 231.836 170.266C233.873 170.317 236.628 170.082 238.372 168.895C238.973 168.485 239.727 167.774 239.72 166.968C239.859 166.712 239.94 166.419 239.933 166.096Z" fill="#6E4931"/>
<path d="M249.788 166.375C249.429 165.319 248.286 165.129 247.356 165.547C246.835 165.781 246.315 166.279 246.257 166.88C246.22 167.305 246.469 167.591 246.791 167.649C246.872 167.73 246.975 167.803 247.092 167.847C247.634 168.038 248.118 167.979 248.653 167.811C249.173 167.642 250.03 167.078 249.788 166.375Z" fill="#6E4931"/>
<path d="M98.707 167.591C98.5971 166.455 97.0657 165.767 96.0692 165.723C94.8895 165.671 93.7245 166.463 93.3508 167.584C93.3069 167.723 93.2775 167.884 93.2629 168.045C93.1383 168.331 93.1237 168.624 93.3435 168.859C93.3875 168.903 93.4314 168.939 93.4754 168.983C93.5926 169.152 93.7685 169.313 93.959 169.394C93.9883 169.408 94.0176 169.415 94.0469 169.423C94.7577 169.84 95.6003 169.987 96.4429 169.833C97.4834 169.635 98.8316 168.8 98.707 167.591Z" fill="#6E4931"/>
<path d="M151.156 165.525C150.98 165.393 150.768 165.349 150.555 165.356C150.416 165.291 150.248 165.254 150.101 165.254C149.984 165.254 149.867 165.269 149.749 165.291C149.676 165.305 149.603 165.335 149.53 165.356C149.493 165.371 149.163 165.459 149.486 165.371C148.892 165.525 148.181 166.177 148.562 166.837C148.775 167.21 149.258 167.371 149.661 167.371C150.306 167.371 150.907 167.034 151.259 166.5C151.464 166.192 151.471 165.759 151.156 165.525Z" fill="#6E4931"/>
<path d="M198.886 166.917C198.857 166.888 198.835 166.859 198.813 166.822C198.827 166.771 198.842 166.712 198.849 166.653C198.915 166.294 198.63 166.053 198.344 165.928C198.205 165.869 197.933 165.884 197.809 165.913C197.758 165.928 197.574 165.987 197.523 166.009C197.369 166.067 197.237 166.155 197.12 166.272C196.922 166.441 196.959 166.412 197.215 166.192C197.157 166.236 197.113 166.272 197.047 166.331C196.981 166.39 196.93 166.441 196.871 166.492C196.805 166.551 196.739 166.609 196.688 166.668C196.439 166.946 196.241 167.342 196.409 167.709C196.563 168.046 196.996 168.177 197.34 168.075C197.545 168.016 197.706 167.95 197.875 167.87C197.897 167.877 197.919 167.884 197.941 167.892C198.212 167.98 198.564 167.826 198.747 167.621C198.886 167.474 199.076 167.122 198.886 166.917Z" fill="#6E4931"/>
<path d="M251.884 167.313C248.777 166.975 245.634 167.239 242.527 167.532C239.317 167.825 236.123 168.228 232.913 168.536C229.675 168.844 226.378 169.137 223.132 168.859C220.01 168.587 216.911 168.126 213.804 167.708C210.47 167.254 207.121 166.844 203.758 166.726C200.505 166.609 197.281 166.888 194.064 167.371C187.807 168.309 181.608 169.621 175.248 169.613C168.968 169.606 162.784 168.397 156.593 167.474C153.244 166.975 149.918 166.551 146.532 166.646C143.213 166.741 139.916 167.166 136.633 167.672C130.449 168.639 124.331 169.775 118.059 169.884C107.757 170.06 97.5643 168.243 87.3062 167.708C87.2988 168.045 87.2988 168.382 87.2988 168.727C87.2988 214.727 124.587 252.016 170.588 252.016C216.588 252.016 253.877 214.727 253.877 168.727C253.877 168.338 253.877 167.95 253.869 167.562C253.195 167.466 252.536 167.378 251.884 167.313Z" fill="#6E4931"/>
<path d="M102.335 176.911C105.251 178.018 108.211 178.765 111.347 178.838C114.454 178.919 117.539 178.399 120.528 177.563C126.192 175.988 131.424 173.226 137.33 172.486C140.481 172.09 143.712 172.31 146.885 172.332C150.138 172.354 153.384 172.354 156.637 172.222C162.836 171.973 169.006 171.218 175.029 173.211C177.857 174.149 180.619 175.292 183.572 175.776C186.789 176.303 189.888 175.805 193.01 174.999C195.897 174.259 198.754 173.343 201.707 172.925C204.433 172.537 207.195 172.705 209.899 173.167C212.881 173.68 215.783 174.523 218.736 175.153C221.835 175.812 224.993 176.186 228.159 176.054C233.954 175.812 239.574 174.061 245.385 174.046C248.118 174.039 250.829 174.376 253.555 174.457C253.591 174.457 253.621 174.457 253.657 174.457C253.789 172.559 253.855 170.654 253.855 168.719C253.855 168.331 253.855 167.943 253.848 167.554C253.188 167.459 252.529 167.378 251.877 167.305C248.77 166.968 245.627 167.232 242.52 167.525C239.311 167.818 236.116 168.221 232.907 168.529C229.668 168.837 226.371 169.13 223.125 168.851C220.003 168.58 216.904 168.119 213.797 167.701C210.463 167.247 207.115 166.836 203.751 166.719C200.498 166.602 197.274 166.88 194.057 167.364C187.8 168.302 181.601 169.613 175.241 169.606C168.962 169.599 162.777 168.39 156.586 167.466C153.237 166.968 149.911 166.543 146.526 166.638C143.206 166.734 139.909 167.159 136.626 167.664C130.442 168.631 124.324 169.767 118.052 169.877C107.75 170.053 97.5575 168.236 87.2993 167.701C87.292 168.038 87.292 168.375 87.292 168.719C87.292 170.427 87.3433 172.127 87.4459 173.805C92.5603 173.848 97.5575 175.094 102.335 176.911Z" fill="#6E4931"/>
<path d="M102.649 172.815C104.642 172.288 106.526 171.35 108.599 171.167C109.75 171.064 110.907 171.247 112.05 171.335C113.296 171.43 114.542 171.46 115.78 171.335C118.037 171.108 120.33 170.148 122.616 170.397C123.627 170.507 124.587 170.852 125.576 171.079C126.844 171.372 128.097 171.379 129.357 171.042C131.526 170.456 133.424 169.247 135.732 169.232C136.868 169.225 138.003 169.408 139.125 169.577C140.451 169.775 141.762 169.833 143.103 169.811C144.415 169.789 145.726 169.701 147.038 169.657C148.137 169.621 149.178 169.599 150.247 169.87C151.449 170.178 152.621 170.639 153.874 170.683C155.113 170.727 156.278 170.258 157.428 169.862C158.432 169.518 159.406 169.254 160.476 169.342C161.575 169.437 162.652 169.731 163.722 169.98C164.909 170.251 166.111 170.317 167.305 170.522C168.294 170.698 169.24 171.049 170.199 171.343C171.423 171.716 172.698 171.995 173.98 172.017C175.167 172.039 176.34 171.855 177.505 171.643C178.538 171.452 179.571 171.233 180.619 171.145C181.806 171.042 182.993 171.218 184.173 171.247C185.279 171.277 186.349 171.057 187.455 171.005C188.547 170.954 189.58 171.145 190.657 171.299C191.969 171.489 193.134 171.43 194.394 171.005C195.361 170.683 196.292 170.229 197.274 169.958C198.944 169.503 200.805 169.467 202.52 169.452C203.37 169.445 204.235 169.452 205.077 169.562C205.092 169.562 205.114 169.569 205.128 169.569C206.081 169.415 207.07 169.408 208.008 169.423C209.613 169.452 211.21 169.599 212.807 169.753C213.445 169.811 214.075 169.877 214.713 169.914C215.636 169.972 216.574 169.936 217.497 169.987C219.468 170.09 221.395 170.339 223.278 170.932C225.007 171.474 226.663 172.361 228.502 172.456C230.583 172.566 232.576 171.724 234.525 171.123C235.485 170.83 236.46 170.573 237.456 170.449C238.563 170.309 239.691 170.353 240.805 170.412C243.018 170.522 245.245 170.749 247.436 170.309C249.414 169.914 251.393 169.892 253.408 169.855C253.554 169.855 253.694 169.848 253.84 169.848C253.847 169.474 253.847 169.1 253.847 168.727C253.847 168.338 253.847 167.95 253.84 167.562C253.181 167.466 252.521 167.386 251.869 167.313C248.762 166.975 245.619 167.239 242.512 167.532C239.303 167.825 236.108 168.228 232.899 168.536C229.66 168.844 226.363 169.137 223.117 168.859C219.995 168.587 216.896 168.126 213.789 167.708C210.455 167.254 207.107 166.844 203.744 166.726C200.49 166.609 197.266 166.888 194.05 167.371C187.792 168.309 181.593 169.621 175.233 169.613C168.954 169.606 162.77 168.397 156.578 167.474C153.23 166.975 149.903 166.551 146.518 166.646C143.198 166.741 139.901 167.166 136.619 167.672C130.434 168.639 124.316 169.775 118.044 169.884C107.742 170.06 97.5497 168.243 87.2915 167.708C87.2842 168.045 87.2842 168.382 87.2842 168.727C87.2842 169.701 87.3062 170.676 87.3355 171.65C90.3763 172.566 93.7029 172.698 96.8243 172.925C98.8173 173.064 100.693 173.336 102.649 172.815Z" fill="#986749"/>
<path opacity="0.57" d="M224.216 212.815C218.648 212.881 213.189 214.618 207.891 216.149C202.726 217.636 197.465 219.036 192.05 218.992C186.298 218.941 180.7 217.46 175.065 216.457C172.061 215.922 169.028 215.541 165.965 215.548C162.939 215.563 159.92 215.848 156.93 216.281C151.134 217.109 145.419 218.413 139.609 219.146C136.846 219.49 134.084 219.754 131.307 219.417C128.911 219.124 126.581 218.464 124.309 217.651C119.246 215.827 114.454 213.445 109.113 212.5C105.793 211.914 102.437 211.672 99.0742 211.474C113.626 235.764 140.202 252.023 170.574 252.023C200.711 252.023 227.103 236.02 241.729 212.046C235.896 212.712 230.086 212.749 224.216 212.815Z" fill="#8C664B"/>
<path opacity="0.57" d="M219.153 230.62C213.892 230.994 208.946 233.148 203.714 233.756C198.27 234.386 192.752 234.628 187.272 234.511C181.886 234.393 176.515 233.822 171.13 233.829C168.411 233.837 165.686 234.049 163.026 234.621C160.307 235.207 157.611 235.881 154.914 236.548C152.401 237.171 149.873 237.749 147.294 238.042C144.664 238.343 142.04 238.248 139.425 237.925C134.655 237.339 130.016 236.035 125.466 234.518C122.03 233.368 118.608 232.093 115.164 230.898C129.885 244.029 149.302 252.008 170.58 252.008C191.785 252.008 211.136 244.08 225.842 231.03C223.622 230.715 221.395 230.459 219.153 230.62Z" fill="#8C664B"/>
<g opacity="0.57">
<path d="M102.466 187.924C101.213 187.821 99.9898 188.129 99.2937 188.942C98.6489 189.69 98.3485 190.781 98.3485 191.749C98.2972 194.13 99.3377 196.46 102.085 196.174C104.386 195.933 106.511 194.145 106.841 191.807C107.149 189.616 104.745 188.107 102.466 187.924Z" fill="#8C664B"/>
<path d="M111.655 198.204C111.648 198.175 111.64 198.153 111.633 198.123C111.633 198.094 111.626 198.065 111.626 198.035C111.604 197.925 111.545 197.83 111.457 197.764C111.325 197.632 111.142 197.559 110.952 197.566C110.776 197.566 110.607 197.61 110.439 197.676C110.299 197.735 110.182 197.808 110.072 197.911C109.962 197.991 109.867 198.101 109.794 198.219C109.706 198.402 109.611 198.592 109.618 198.805C109.618 198.856 109.625 198.915 109.633 198.966C109.611 199.061 109.603 199.164 109.633 199.259C109.677 199.391 109.75 199.493 109.86 199.581C110.028 199.713 110.299 199.706 110.497 199.677C110.973 199.596 111.464 199.215 111.611 198.746C111.677 198.548 111.684 198.402 111.655 198.204Z" fill="#8C664B"/>
<path d="M123.012 211.891C122.792 211.877 122.587 211.942 122.404 212.045C121.898 212.045 121.473 212.448 121.283 212.873C121.121 213.225 121.165 213.679 121.429 213.972C121.664 214.229 121.979 214.419 122.338 214.426C123.114 214.441 123.649 213.738 123.737 213.027C123.811 212.521 123.605 211.928 123.012 211.891Z" fill="#8C664B"/>
<path d="M99.1834 182.766C98.9489 182.216 98.5972 181.74 97.8938 181.791C97.3809 181.828 96.9193 182.15 96.5676 182.524C95.7616 183.389 95.9081 184.883 97.3443 184.796C97.5201 184.818 97.696 184.84 97.8792 184.84C98.5899 184.818 99.6377 184.107 99.3666 183.279C99.3153 183.103 99.2567 182.934 99.1834 182.766Z" fill="#8C664B"/>
<path d="M107.75 204.278C107.112 203.89 106.431 203.839 105.83 204.029C105.8 204.029 105.771 204.022 105.735 204.022C105.06 204.007 104.416 204.352 103.961 204.828C103.185 205.634 102.642 207.092 103.39 208.096C104.438 209.51 107.075 208.66 108.094 207.664C109.142 206.63 109.01 205.048 107.75 204.278Z" fill="#8C664B"/>
<path d="M124.264 202.469C123.686 202.469 123.143 203.495 123.913 203.495C124.492 203.502 125.034 202.469 124.264 202.469Z" fill="#8C664B"/>
<path d="M127.995 182.355C127.364 181.835 126.47 181.798 125.672 182.033C125.635 182.033 125.599 182.025 125.562 182.025C124.448 182.025 123.312 182.817 123.173 183.967C123.041 185.044 123.796 186.209 124.814 186.554C125.936 186.935 127.291 186.422 128.038 185.557C128.844 184.627 129.02 183.212 127.995 182.355Z" fill="#8C664B"/>
<path d="M134.831 182.978C134.091 182.978 133.402 184.29 134.384 184.29C135.117 184.29 135.805 182.978 134.831 182.978Z" fill="#8C664B"/>
<path d="M167.056 196.131C159.919 196.49 153.003 195.413 149.016 192.526C145.368 189.881 143.646 186.026 143.646 182.583C143.36 174.149 149.251 165.898 164.887 166.932C177.966 167.796 190.027 174.127 191.91 182.385C193.691 190.13 180.011 195.486 167.056 196.131Z" fill="#8C664B"/>
<path d="M165.927 188.737C165.59 188.759 165.275 188.664 164.997 188.495C164.227 188.495 163.575 187.88 163.275 187.221C163.026 186.678 163.092 185.99 163.502 185.535C163.868 185.14 164.345 184.847 164.902 184.839C166.089 184.817 166.917 185.894 167.056 186.979C167.151 187.777 166.843 188.679 165.927 188.737Z" fill="#8C664B"/>
<path d="M136.978 209.789C137.249 208.953 136.194 208.243 135.49 208.228C135.307 208.221 135.131 208.243 134.956 208.272C133.519 208.184 133.373 209.679 134.179 210.543C134.531 210.924 134.992 211.239 135.505 211.276C136.209 211.327 136.56 210.851 136.795 210.302C136.861 210.133 136.919 209.957 136.978 209.789Z" fill="#8C664B"/>
<path d="M146.855 179.644C146.218 180.032 145.536 180.084 144.935 179.893C144.906 179.893 144.877 179.901 144.84 179.901C144.166 179.915 143.521 179.571 143.067 179.095C142.29 178.289 141.748 176.83 142.495 175.827C143.543 174.412 146.181 175.262 147.199 176.259C148.247 177.292 148.115 178.867 146.855 179.644Z" fill="#8C664B"/>
<path d="M157.201 210.77C156.57 211.291 155.677 211.327 154.878 211.093C154.841 211.093 154.805 211.1 154.768 211.1C153.654 211.1 152.518 210.309 152.379 209.158C152.247 208.081 153.002 206.916 154.021 206.572C155.142 206.191 156.497 206.704 157.245 207.568C158.058 208.499 158.226 209.913 157.201 210.77Z" fill="#8C664B"/>
<path d="M172.434 210.082C171.694 210.082 171.006 208.77 171.987 208.77C172.72 208.77 173.409 210.082 172.434 210.082Z" fill="#8C664B"/>
<path d="M180.003 192.056C179.373 192.005 178.765 192.159 178.413 192.569C178.091 192.943 177.944 193.485 177.944 193.976C177.922 195.17 178.435 196.336 179.812 196.189C180.963 196.064 182.025 195.17 182.194 194.005C182.348 192.906 181.146 192.152 180.003 192.056Z" fill="#8C664B"/>
<path d="M191.257 198.204C191.25 198.175 191.243 198.153 191.235 198.123C191.235 198.094 191.228 198.065 191.228 198.035C191.206 197.925 191.148 197.83 191.06 197.764C190.928 197.632 190.745 197.559 190.554 197.566C190.378 197.566 190.21 197.61 190.041 197.676C189.902 197.735 189.785 197.808 189.675 197.911C189.565 197.991 189.47 198.101 189.396 198.219C189.308 198.402 189.213 198.592 189.22 198.805C189.22 198.856 189.228 198.915 189.235 198.966C189.213 199.061 189.206 199.164 189.235 199.259C189.279 199.391 189.352 199.493 189.462 199.581C189.631 199.713 189.902 199.706 190.1 199.677C190.576 199.596 191.067 199.215 191.214 198.746C191.279 198.548 191.287 198.402 191.257 198.204Z" fill="#8C664B"/>
<path d="M202.615 211.891C202.396 211.877 202.19 211.942 202.007 212.045C201.502 212.045 201.077 212.448 200.886 212.873C200.725 213.225 200.769 213.679 201.033 213.972C201.267 214.229 201.582 214.419 201.941 214.426C202.718 214.441 203.253 213.738 203.341 213.027C203.407 212.521 203.209 211.928 202.615 211.891Z" fill="#8C664B"/>
<path d="M178.787 182.766C178.552 182.216 178.201 181.74 177.497 181.791C176.984 181.828 176.523 182.15 176.171 182.524C175.365 183.389 175.512 184.883 176.948 184.796C177.124 184.818 177.299 184.84 177.483 184.84C178.193 184.818 179.241 184.107 178.97 183.279C178.919 183.103 178.86 182.934 178.787 182.766Z" fill="#8C664B"/>
<path d="M187.352 204.278C186.715 203.89 186.033 203.839 185.432 204.029C185.403 204.029 185.374 204.022 185.337 204.022C184.663 204.007 184.018 204.352 183.564 204.828C182.787 205.634 182.245 207.092 182.992 208.096C184.04 209.51 186.678 208.66 187.696 207.664C188.744 206.63 188.605 205.048 187.352 204.278Z" fill="#8C664B"/>
<path d="M203.868 202.469C203.289 202.469 202.747 203.495 203.516 203.495C204.095 203.502 204.637 202.469 203.868 202.469Z" fill="#8C664B"/>
<path d="M207.59 182.355C206.96 181.835 206.066 181.798 205.267 182.033C205.231 182.033 205.194 182.025 205.158 182.025C204.044 182.025 202.908 182.817 202.769 183.967C202.637 185.044 203.392 186.209 204.41 186.554C205.531 186.935 206.887 186.422 207.634 185.557C208.448 184.627 208.616 183.212 207.59 182.355Z" fill="#8C664B"/>
<path d="M214.427 182.978C213.687 182.978 212.998 184.29 213.98 184.29C214.72 184.29 215.408 182.978 214.427 182.978Z" fill="#8C664B"/>
<path d="M222.882 198.256C221.937 198.329 221.029 198.102 220.501 197.494C220.017 196.929 219.79 196.116 219.79 195.391C219.754 193.603 220.53 191.859 222.597 192.071C224.326 192.255 225.916 193.595 226.165 195.347C226.399 196.988 224.597 198.116 222.882 198.256Z" fill="#8C664B"/>
<path d="M245.531 188.737C245.194 188.759 244.879 188.664 244.6 188.495C243.831 188.495 243.179 187.88 242.878 187.221C242.629 186.678 242.695 185.99 243.106 185.535C243.472 185.14 243.948 184.847 244.505 184.839C245.692 184.817 246.52 185.894 246.659 186.979C246.755 187.777 246.447 188.679 245.531 188.737Z" fill="#8C664B"/>
<path d="M216.58 209.789C216.852 208.953 215.796 208.243 215.093 208.228C214.91 208.221 214.734 208.243 214.558 208.272C213.122 208.184 212.975 209.679 213.781 210.543C214.133 210.924 214.595 211.239 215.108 211.276C215.811 211.327 216.163 210.851 216.397 210.302C216.463 210.133 216.522 209.957 216.58 209.789Z" fill="#8C664B"/>
<path d="M228.825 182.883C228.422 183.132 227.989 183.161 227.608 183.044C227.586 183.044 227.572 183.051 227.55 183.051C227.125 183.058 226.714 182.846 226.429 182.546C225.938 182.033 225.593 181.109 226.07 180.472C226.736 179.578 228.4 180.113 229.052 180.75C229.711 181.395 229.623 182.399 228.825 182.883Z" fill="#8C664B"/>
<path d="M236.804 210.77C236.174 211.291 235.28 211.327 234.481 211.093C234.445 211.093 234.408 211.1 234.371 211.1C233.258 211.1 232.122 210.309 231.983 209.158C231.851 208.081 232.606 206.916 233.624 206.572C234.745 206.191 236.101 206.704 236.848 207.568C237.661 208.499 237.83 209.913 236.804 210.77Z" fill="#8C664B"/>
</g>
<g opacity="0.57">
<path d="M113.787 220.399C113.421 220.369 113.069 220.457 112.864 220.692C112.673 220.911 112.585 221.226 112.585 221.512C112.571 222.208 112.871 222.882 113.677 222.802C114.344 222.729 114.967 222.208 115.062 221.534C115.15 220.889 114.454 220.45 113.787 220.399Z" fill="#8C664B"/>
<path d="M114.959 225.579C114.959 225.564 114.952 225.557 114.952 225.542C114.952 225.527 114.952 225.513 114.952 225.498C114.944 225.447 114.915 225.41 114.878 225.374C114.82 225.315 114.739 225.278 114.651 225.286C114.571 225.286 114.497 225.308 114.424 225.337C114.366 225.359 114.307 225.396 114.263 225.447C114.212 225.483 114.168 225.527 114.138 225.586C114.102 225.667 114.058 225.755 114.058 225.85C114.058 225.872 114.058 225.901 114.065 225.923C114.058 225.967 114.05 226.011 114.065 226.055C114.087 226.114 114.116 226.165 114.168 226.202C114.241 226.26 114.366 226.26 114.453 226.245C114.666 226.209 114.886 226.04 114.952 225.828C114.966 225.733 114.974 225.667 114.959 225.579Z" fill="#8C664B"/>
<path d="M109.347 218.633C109.244 218.383 109.083 218.171 108.768 218.193C108.533 218.208 108.328 218.354 108.174 218.523C107.815 218.911 107.874 219.585 108.526 219.541C108.607 219.556 108.687 219.563 108.768 219.556C109.083 219.549 109.559 219.226 109.434 218.852C109.405 218.786 109.383 218.706 109.347 218.633Z" fill="#8C664B"/>
<path d="M137.066 236.519C136.78 236.343 136.472 236.321 136.201 236.409C136.186 236.409 136.172 236.401 136.157 236.401C135.857 236.394 135.564 236.548 135.358 236.76C135.007 237.127 134.765 237.779 135.102 238.233C135.571 238.871 136.758 238.49 137.219 238.035C137.688 237.581 137.63 236.87 137.066 236.519Z" fill="#8C664B"/>
<path d="M120.63 227.499C120.367 227.499 120.125 227.96 120.469 227.96C120.733 227.96 120.975 227.499 120.63 227.499Z" fill="#8C664B"/>
<path d="M122.309 218.45C122.023 218.215 121.62 218.201 121.261 218.303C121.246 218.303 121.232 218.303 121.21 218.303C120.711 218.303 120.199 218.662 120.133 219.175C120.074 219.659 120.411 220.179 120.873 220.34C121.378 220.509 121.986 220.282 122.323 219.893C122.69 219.468 122.77 218.831 122.309 218.45Z" fill="#8C664B"/>
<path d="M125.379 218.728C125.049 218.728 124.734 219.314 125.174 219.314C125.511 219.314 125.819 218.728 125.379 218.728Z" fill="#8C664B"/>
<path d="M130.522 227.623C129.958 227.667 129.409 227.535 129.094 227.162C128.808 226.825 128.669 226.334 128.669 225.901C128.647 224.831 129.116 223.784 130.347 223.916C131.38 224.025 132.34 224.831 132.486 225.879C132.633 226.861 131.548 227.543 130.522 227.623Z" fill="#8C664B"/>
<path d="M139.366 221.314C139.212 221.322 139.073 221.278 138.948 221.204C138.604 221.204 138.311 220.926 138.172 220.633C138.062 220.391 138.091 220.076 138.274 219.878C138.435 219.702 138.655 219.57 138.904 219.563C139.439 219.556 139.813 220.039 139.872 220.523C139.916 220.889 139.784 221.292 139.366 221.314Z" fill="#8C664B"/>
<path d="M126.346 230.788C126.47 230.415 125.994 230.092 125.679 230.085C125.598 230.085 125.518 230.092 125.437 230.1C124.792 230.063 124.726 230.73 125.085 231.118C125.246 231.287 125.452 231.433 125.679 231.448C125.994 231.47 126.155 231.257 126.258 231.008C126.294 230.942 126.324 230.862 126.346 230.788Z" fill="#8C664B"/>
<path d="M136.926 231.052C136.787 231.169 136.582 231.177 136.406 231.125C136.399 231.125 136.391 231.125 136.384 231.125C136.135 231.125 135.878 230.949 135.849 230.686C135.82 230.444 135.988 230.18 136.215 230.107C136.465 230.019 136.772 230.136 136.941 230.334C137.117 230.546 137.153 230.861 136.926 231.052Z" fill="#8C664B"/>
<path d="M142.297 230.921C141.967 230.921 141.652 230.335 142.092 230.335C142.422 230.327 142.737 230.921 142.297 230.921Z" fill="#8C664B"/>
<path d="M146.628 220.948C146.064 220.904 145.514 221.036 145.199 221.41C144.913 221.747 144.774 222.238 144.774 222.67C144.752 223.74 145.221 224.788 146.452 224.656C147.485 224.546 148.445 223.74 148.592 222.692C148.738 221.71 147.654 221.036 146.628 220.948Z" fill="#8C664B"/>
<path d="M150.76 225.579C150.76 225.564 150.752 225.557 150.752 225.542C150.752 225.527 150.752 225.513 150.752 225.498C150.745 225.447 150.716 225.41 150.679 225.374C150.621 225.315 150.54 225.278 150.452 225.286C150.371 225.286 150.298 225.308 150.225 225.337C150.166 225.359 150.108 225.396 150.064 225.447C150.012 225.483 149.968 225.527 149.939 225.586C149.903 225.667 149.859 225.755 149.859 225.85C149.859 225.872 149.859 225.901 149.866 225.923C149.859 225.967 149.851 226.011 149.866 226.055C149.888 226.114 149.917 226.165 149.968 226.202C150.042 226.26 150.166 226.26 150.254 226.245C150.467 226.209 150.687 226.04 150.752 225.828C150.767 225.733 150.774 225.667 150.76 225.579Z" fill="#8C664B"/>
<path d="M155.868 231.734C155.765 231.726 155.677 231.756 155.597 231.807C155.37 231.807 155.179 231.99 155.091 232.18C155.018 232.342 155.04 232.54 155.157 232.671C155.267 232.789 155.406 232.877 155.567 232.877C155.919 232.884 156.161 232.569 156.198 232.246C156.227 232.012 156.139 231.748 155.868 231.734Z" fill="#8C664B"/>
<path d="M145.155 218.633C145.053 218.383 144.891 218.171 144.576 218.193C144.342 218.208 144.137 218.354 143.983 218.523C143.624 218.911 143.682 219.585 144.335 219.541C144.415 219.556 144.496 219.563 144.576 219.556C144.891 219.549 145.368 219.226 145.243 218.852C145.214 218.786 145.184 218.706 145.155 218.633Z" fill="#8C664B"/>
<path d="M149.002 235.419C148.716 235.244 148.409 235.222 148.138 235.31C148.123 235.31 148.108 235.302 148.094 235.302C147.793 235.295 147.5 235.449 147.295 235.661C146.943 236.028 146.701 236.68 147.038 237.134C147.507 237.771 148.694 237.39 149.156 236.936C149.632 236.475 149.574 235.764 149.002 235.419Z" fill="#8C664B"/>
<path d="M156.431 227.499C156.167 227.499 155.926 227.96 156.27 227.96C156.534 227.96 156.776 227.499 156.431 227.499Z" fill="#8C664B"/>
<path d="M158.11 218.45C157.824 218.215 157.421 218.201 157.062 218.303C157.047 218.303 157.032 218.303 157.01 218.303C156.512 218.303 155.999 218.662 155.933 219.175C155.875 219.659 156.212 220.179 156.673 220.34C157.179 220.509 157.787 220.282 158.124 219.893C158.491 219.468 158.571 218.831 158.11 218.45Z" fill="#8C664B"/>
<path d="M161.18 218.728C160.85 218.728 160.535 219.314 160.975 219.314C161.312 219.314 161.62 218.728 161.18 218.728Z" fill="#8C664B"/>
<path d="M166.323 227.623C165.759 227.667 165.21 227.535 164.894 227.162C164.609 226.825 164.469 226.334 164.469 225.901C164.448 224.831 164.916 223.784 166.147 223.916C167.181 224.025 168.14 224.831 168.287 225.879C168.434 226.861 167.349 227.543 166.323 227.623Z" fill="#8C664B"/>
<path d="M175.175 221.314C175.021 221.322 174.881 221.278 174.757 221.204C174.413 221.204 174.119 220.926 173.98 220.633C173.87 220.391 173.9 220.076 174.083 219.878C174.244 219.702 174.464 219.57 174.713 219.563C175.248 219.556 175.622 220.039 175.68 220.523C175.724 220.889 175.585 221.292 175.175 221.314Z" fill="#8C664B"/>
<path d="M162.147 230.788C162.272 230.415 161.796 230.092 161.48 230.085C161.4 230.085 161.319 230.092 161.239 230.1C160.594 230.063 160.528 230.73 160.887 231.118C161.048 231.287 161.253 231.433 161.48 231.448C161.796 231.47 161.957 231.257 162.059 231.008C162.096 230.942 162.125 230.862 162.147 230.788Z" fill="#8C664B"/>
<path d="M171.247 231.228C170.962 231.462 170.559 231.477 170.199 231.375C170.185 231.375 170.17 231.375 170.148 231.375C169.65 231.375 169.137 231.016 169.071 230.503C169.012 230.019 169.35 229.499 169.811 229.338C170.317 229.169 170.925 229.396 171.262 229.785C171.628 230.202 171.709 230.84 171.247 231.228Z" fill="#8C664B"/>
</g>
<g opacity="0.57">
<path d="M185.14 222.04C185.111 222.472 185.221 222.882 185.499 223.117C185.756 223.336 186.13 223.432 186.459 223.432C187.273 223.439 188.064 223.08 187.954 222.142C187.866 221.358 187.243 220.64 186.445 220.537C185.697 220.435 185.192 221.263 185.14 222.04Z" fill="#8C664B"/>
<path d="M191.193 220.603C191.178 220.603 191.163 220.611 191.149 220.611C191.134 220.611 191.119 220.611 191.097 220.618C191.039 220.633 190.987 220.662 190.958 220.706C190.892 220.779 190.855 220.875 190.855 220.977C190.855 221.072 190.877 221.16 190.914 221.248C190.943 221.321 190.987 221.387 191.039 221.439C191.083 221.497 191.141 221.549 191.207 221.585C191.302 221.629 191.405 221.68 191.515 221.673C191.544 221.673 191.574 221.666 191.603 221.666C191.654 221.681 191.705 221.681 191.757 221.666C191.823 221.644 191.881 221.6 191.925 221.541C191.991 221.453 191.991 221.307 191.969 221.204C191.925 220.955 191.72 220.699 191.471 220.625C191.376 220.589 191.295 220.589 191.193 220.603Z" fill="#8C664B"/>
<path d="M183.125 227.264C182.839 227.389 182.59 227.579 182.62 227.945C182.642 228.217 182.81 228.458 183.015 228.642C183.477 229.059 184.261 228.979 184.21 228.217C184.224 228.121 184.232 228.026 184.232 227.931C184.217 227.557 183.836 227.008 183.396 227.154C183.301 227.191 183.213 227.227 183.125 227.264Z" fill="#8C664B"/>
<path d="M208.287 237.896C208.009 237.72 207.701 237.698 207.437 237.786C207.423 237.786 207.408 237.779 207.393 237.779C207.093 237.771 206.807 237.925 206.609 238.138C206.265 238.497 206.023 239.142 206.353 239.589C206.814 240.211 207.987 239.838 208.434 239.398C208.903 238.936 208.844 238.233 208.287 237.896Z" fill="#8C664B"/>
<path d="M207.855 224.385C207.598 224.385 207.357 224.839 207.701 224.839C207.95 224.839 208.192 224.385 207.855 224.385Z" fill="#8C664B"/>
<path d="M208.273 219.541C207.994 219.307 207.599 219.292 207.247 219.402C207.232 219.402 207.218 219.402 207.196 219.402C206.705 219.402 206.199 219.754 206.14 220.259C206.082 220.736 206.419 221.249 206.866 221.402C207.364 221.571 207.965 221.344 208.295 220.963C208.654 220.545 208.727 219.915 208.273 219.541Z" fill="#8C664B"/>
<path d="M212.53 215.753C212.2 215.753 211.9 216.332 212.332 216.332C212.654 216.332 212.962 215.753 212.53 215.753Z" fill="#8C664B"/>
<path d="M217.593 224.509C217.036 224.553 216.501 224.421 216.186 224.055C215.9 223.725 215.768 223.241 215.768 222.809C215.746 221.754 216.208 220.721 217.424 220.853C218.443 220.963 219.381 221.754 219.527 222.787C219.666 223.762 218.604 224.428 217.593 224.509Z" fill="#8C664B"/>
<path d="M226.305 218.296C226.151 218.303 226.019 218.259 225.895 218.193C225.55 218.193 225.264 217.922 225.133 217.629C225.023 217.387 225.052 217.079 225.235 216.882C225.396 216.706 225.609 216.574 225.851 216.574C226.378 216.566 226.745 217.043 226.803 217.519C226.847 217.871 226.708 218.274 226.305 218.296Z" fill="#8C664B"/>
<path d="M213.482 227.623C213.607 227.256 213.138 226.941 212.823 226.927C212.742 226.927 212.662 226.934 212.588 226.941C211.951 226.905 211.885 227.564 212.244 227.945C212.398 228.114 212.603 228.253 212.83 228.268C213.138 228.29 213.299 228.077 213.402 227.835C213.431 227.777 213.453 227.696 213.482 227.623Z" fill="#8C664B"/>
<path d="M222.979 217.504C222.7 217.68 222.392 217.702 222.129 217.614C222.114 217.614 222.099 217.621 222.085 217.621C221.784 217.628 221.499 217.475 221.301 217.262C220.956 216.903 220.715 216.258 221.044 215.811C221.506 215.189 222.678 215.562 223.125 216.002C223.594 216.463 223.536 217.16 222.979 217.504Z" fill="#8C664B"/>
<path d="M223.894 227.887C223.755 228.004 223.557 228.012 223.381 227.96C223.374 227.96 223.366 227.96 223.359 227.96C223.11 227.96 222.861 227.784 222.831 227.528C222.802 227.286 222.971 227.03 223.198 226.956C223.447 226.869 223.747 226.986 223.916 227.176C224.084 227.381 224.121 227.697 223.894 227.887Z" fill="#8C664B"/>
<path d="M229.184 227.755C228.854 227.755 228.554 227.176 228.986 227.176C229.309 227.176 229.616 227.755 229.184 227.755Z" fill="#8C664B"/>
<path d="M182.144 235.639C181.587 235.595 181.052 235.727 180.737 236.093C180.451 236.423 180.319 236.907 180.319 237.339C180.297 238.394 180.759 239.427 181.975 239.295C182.994 239.185 183.931 238.394 184.078 237.361C184.225 236.386 183.155 235.72 182.144 235.639Z" fill="#8C664B"/>
<path d="M185.544 244.014C185.471 244.007 185.405 244.029 185.346 244.065C185.185 244.065 185.038 244.197 184.98 244.337C184.928 244.454 184.943 244.6 185.031 244.696C185.112 244.783 185.214 244.842 185.331 244.842C185.588 244.849 185.764 244.615 185.793 244.388C185.8 244.219 185.734 244.021 185.544 244.014Z" fill="#8C664B"/>
<path d="M231.998 215.65C231.896 215.408 231.742 215.196 231.427 215.218C231.2 215.233 230.994 215.379 230.841 215.54C230.482 215.921 230.547 216.588 231.185 216.544C231.266 216.559 231.339 216.566 231.419 216.559C231.734 216.551 232.196 216.236 232.079 215.863C232.057 215.804 232.028 215.731 231.998 215.65Z" fill="#8C664B"/>
<path d="M185.954 240.922C185.764 240.922 185.588 241.259 185.837 241.259C186.027 241.259 186.203 240.922 185.954 240.922Z" fill="#8C664B"/>
<path d="M199.853 227.594C199.648 227.843 199.64 228.187 199.736 228.502C199.736 228.517 199.736 228.531 199.736 228.546C199.743 228.978 200.051 229.418 200.505 229.469C200.93 229.513 201.377 229.213 201.509 228.817C201.655 228.378 201.45 227.85 201.106 227.564C200.74 227.249 200.183 227.191 199.853 227.594Z" fill="#8C664B"/>
<path d="M200.073 224.919C200.073 225.205 200.586 225.469 200.586 225.088C200.579 224.802 200.066 224.538 200.073 224.919Z" fill="#8C664B"/>
<path d="M202.022 242.029C201.612 242.065 201.209 241.963 200.982 241.692C200.77 241.45 200.674 241.091 200.674 240.768C200.66 239.984 200.997 239.222 201.898 239.318C202.653 239.398 203.349 239.984 203.459 240.746C203.554 241.472 202.77 241.963 202.022 242.029Z" fill="#8C664B"/>
<path d="M208.749 231.799C208.639 231.807 208.537 231.777 208.441 231.719C208.192 231.719 207.972 231.521 207.877 231.301C207.797 231.125 207.819 230.898 207.95 230.752C208.068 230.62 208.229 230.525 208.405 230.525C208.793 230.517 209.064 230.869 209.108 231.228C209.152 231.484 209.05 231.785 208.749 231.799Z" fill="#8C664B"/>
<path d="M190.115 243.325C190.203 243.054 189.859 242.82 189.624 242.812C189.566 242.812 189.507 242.82 189.448 242.827C188.979 242.798 188.928 243.289 189.192 243.575C189.309 243.699 189.456 243.802 189.624 243.816C189.851 243.831 189.969 243.677 190.049 243.501C190.079 243.435 190.101 243.377 190.115 243.325Z" fill="#8C664B"/>
<path d="M198.718 220.244C198.872 220.494 198.894 220.757 198.82 220.992C198.82 221.006 198.828 221.014 198.828 221.028C198.835 221.292 198.703 221.541 198.52 221.725C198.205 222.032 197.641 222.245 197.245 221.959C196.688 221.556 197.01 220.523 197.399 220.12C197.794 219.717 198.41 219.761 198.718 220.244Z" fill="#8C664B"/>
<path d="M196.747 243.641C196.542 243.809 196.249 243.824 195.985 243.743C195.97 243.743 195.963 243.743 195.948 243.743C195.582 243.743 195.216 243.487 195.164 243.106C195.12 242.754 195.369 242.373 195.699 242.256C196.065 242.131 196.512 242.3 196.754 242.586C197.025 242.901 197.084 243.362 196.747 243.641Z" fill="#8C664B"/>
<path d="M180.583 244.615C180.246 244.41 179.887 244.381 179.572 244.483C179.557 244.483 179.542 244.476 179.52 244.476C179.169 244.469 178.824 244.652 178.582 244.901C178.172 245.326 177.886 246.095 178.282 246.623C178.831 247.363 180.224 246.923 180.759 246.396C181.315 245.853 181.242 245.025 180.583 244.615Z" fill="#8C664B"/>
<path d="M139.469 243.853C139.381 243.846 139.301 243.875 139.235 243.912C139.037 243.912 138.876 244.066 138.795 244.234C138.729 244.373 138.751 244.549 138.854 244.659C138.949 244.762 139.066 244.835 139.206 244.835C139.506 244.842 139.719 244.564 139.755 244.293C139.777 244.095 139.704 243.868 139.469 243.853Z" fill="#8C664B"/>
<path d="M139.96 240.182C139.733 240.182 139.521 240.585 139.821 240.585C140.048 240.585 140.261 240.182 139.96 240.182Z" fill="#8C664B"/>
<path d="M162.836 248.711C162.345 248.747 161.869 248.63 161.598 248.315C161.349 248.022 161.231 247.597 161.231 247.223C161.209 246.293 161.612 245.384 162.689 245.501C163.583 245.597 164.411 246.293 164.543 247.201C164.66 248.051 163.723 248.645 162.836 248.711Z" fill="#8C664B"/>
<path d="M144.914 243.032C145.024 242.71 144.606 242.432 144.335 242.424C144.262 242.424 144.196 242.432 144.13 242.439C143.573 242.402 143.514 242.989 143.829 243.326C143.969 243.472 144.145 243.597 144.342 243.611C144.613 243.633 144.753 243.443 144.841 243.23C144.863 243.172 144.892 243.098 144.914 243.032Z" fill="#8C664B"/>
<path d="M152.79 243.413C152.549 243.619 152.197 243.633 151.882 243.538C151.867 243.538 151.852 243.538 151.838 243.538C151.405 243.538 150.966 243.23 150.907 242.783C150.856 242.366 151.149 241.911 151.545 241.772C151.984 241.626 152.512 241.823 152.805 242.16C153.127 242.534 153.193 243.084 152.79 243.413Z" fill="#8C664B"/>
</g>
<path d="M95.5566 166.968C95.432 166.147 94.6626 165.598 93.9665 165.26C92.3765 164.498 90.171 164.52 88.7276 165.605C87.9655 166.184 87.5039 167.151 87.8483 168.089C88.1487 168.917 88.94 169.32 89.7827 169.166C89.8413 169.159 89.8926 169.129 89.9512 169.093C91.2115 169.664 92.8675 169.613 94.0252 169.107C94.8531 168.756 95.7104 167.957 95.5566 166.968Z" fill="#5A3B25"/>
<path d="M107.793 165.371C106.386 164.499 104.533 164.331 102.921 164.36C101.169 164.389 98.854 164.668 97.7183 166.177C96.7291 167.481 97.7842 168.434 98.9712 168.976C99.4182 169.628 100.378 170.046 101.023 170.273C103.331 171.086 107.471 171.651 108.907 169.071C109.647 167.723 109.046 166.141 107.793 165.371Z" fill="#5A3B25"/>
<path d="M128.983 166.58C127.54 165.657 125.466 166.096 124.044 166.866C123.37 167.232 122.608 167.862 122.55 168.697C122.542 168.837 122.557 168.961 122.586 169.078C122.557 169.423 122.711 169.745 123.143 169.914C123.363 169.994 123.605 170.06 123.854 170.104C123.876 170.112 123.905 170.119 123.927 170.126C123.957 170.134 123.986 170.134 124.015 170.134C125.21 170.317 126.609 170.119 127.671 169.811C128.419 169.591 129.203 169.232 129.606 168.522C130.038 167.738 129.686 167.034 128.983 166.58Z" fill="#5A3B25"/>
<path d="M146.591 163.781C144.092 162.301 141.051 162.498 138.641 164.052C137.696 164.66 136.604 165.657 136.443 166.844C136.281 168.053 137.241 168.097 138.157 168.228C138.165 168.228 138.172 168.228 138.172 168.228C139.439 169.056 141.249 169.152 142.693 169.071C144.312 168.983 146.283 168.69 147.477 167.466C148.826 166.111 148.02 164.631 146.591 163.781Z" fill="#5A3B25"/>
<path d="M159.611 166.463C158.608 164.785 155.992 164.507 154.24 164.565C152.863 164.609 149.141 165.701 150.401 167.767C150.401 168.009 150.496 168.236 150.716 168.441C152.057 169.65 154.702 169.826 156.395 169.709C157.955 169.599 160.842 168.522 159.611 166.463Z" fill="#5A3B25"/>
<path d="M179.132 166.331C177.161 165.488 174.509 165.283 172.435 165.84C171.453 166.104 170.127 166.748 169.783 167.796C169.709 168.009 169.695 168.199 169.724 168.36C169.636 168.456 169.548 168.558 169.468 168.661C169.035 169.21 169.292 169.885 169.871 170.141C172.486 171.321 175.637 171.233 178.341 170.397C179.301 170.104 180.473 169.599 180.795 168.551C181.155 167.379 180.048 166.719 179.132 166.331Z" fill="#5A3B25"/>
<path d="M196.651 166.192C194.863 164.953 192.328 165.158 190.305 166.045C189.14 166.126 188.056 166.624 187.147 167.826C186.964 168.067 186.898 168.507 187.096 168.763C189.104 171.379 194.13 169.489 196.292 167.994C196.819 167.635 197.354 166.682 196.651 166.192Z" fill="#5A3B25"/>
<path d="M209.964 166.097C208.345 164.47 205.993 164.441 203.846 164.448C202.461 164.448 198.687 165.159 200.336 167.379C201.281 168.654 203.457 169.064 204.916 169.203C206.74 169.379 208.953 168.932 209.898 167.181C210.059 166.895 210.25 166.382 209.964 166.097Z" fill="#5A3B25"/>
<path d="M215.086 164.565C213.489 164.096 211.056 164.565 210.492 166.36C210.206 167.269 210.822 168.36 211.599 168.837C212.595 169.452 213.936 168.917 214.896 168.39C216.31 167.598 217.131 165.166 215.086 164.565Z" fill="#5A3B25"/>
<path d="M229.829 169.584C229.975 169.291 230.012 168.961 229.814 168.69C229.807 168.676 229.792 168.668 229.785 168.654C229.338 167.232 227.118 167.496 225.967 168.309C225.601 168.566 225.308 169.005 225.403 169.467C225.403 169.474 225.41 169.482 225.41 169.489C225.388 169.672 225.418 169.87 225.513 170.075C225.681 170.434 225.96 170.588 226.282 170.625C227.176 171.057 228.517 170.771 229.294 170.214C229.448 170.104 229.609 169.943 229.733 169.753C229.77 169.701 229.807 169.643 229.829 169.584Z" fill="#5A3B25"/>
<path d="M248.051 165.921C247.45 164.829 245.948 164.529 244.783 164.463C243.985 164.177 243.003 164.155 242.307 164.206C240.856 164.316 238.408 165.122 238.709 167.02C238.958 168.617 241.186 168.698 242.431 168.676C244.116 168.639 246.007 168.434 247.494 167.577C248.036 167.255 248.366 166.492 248.051 165.921Z" fill="#5A3B25"/>
<path d="M251.774 166.096C251.65 165.664 251.195 165.459 250.726 165.569C250.367 165.657 250.06 165.825 249.811 166.06C249.679 166.162 249.547 166.272 249.437 166.397C249.393 166.441 249.356 166.492 249.32 166.551C249.305 166.565 249.29 166.58 249.283 166.602H249.29C249.268 166.639 249.246 166.675 249.224 166.712C249.048 167.086 249.114 167.584 249.576 167.701C249.598 167.708 249.613 167.708 249.635 167.708C249.723 167.76 249.818 167.796 249.928 167.818C250.426 167.892 250.998 167.62 251.305 167.217C251.371 167.166 251.437 167.1 251.496 167.042C251.694 166.983 251.884 166.807 251.957 166.639C252.053 166.448 252.038 166.148 251.774 166.096Z" fill="#5A3B25"/>
<path d="M98.5681 168.514C98.1285 167.261 96.6704 167.188 95.4028 167.591C94.3403 167.583 93.2412 167.921 92.7137 168.895C91.7465 170.676 94.355 171.042 95.5493 171.02C96.8682 170.991 99.1983 170.309 98.5681 168.514Z" fill="#82583D"/>
<path d="M113.37 168.829C113.106 168.675 112.82 168.595 112.534 168.609C112.432 168.58 112.322 168.565 112.219 168.558C111.501 168.543 110.966 169.042 110.681 169.657C110.563 169.899 110.659 170.199 110.871 170.36C111.516 170.844 112.454 170.683 113.084 170.273C113.465 170.023 113.971 169.173 113.37 168.829Z" fill="#82583D"/>
<path d="M130.845 167.994C130.581 167.833 130.318 167.759 130.025 167.781C129.504 167.679 128.925 167.899 128.515 168.214C128.185 168.463 127.907 168.844 127.995 169.276C128.112 169.855 128.654 170.163 129.219 170.163C130.061 170.155 130.743 169.606 131.08 168.866C131.204 168.587 131.124 168.162 130.845 167.994Z" fill="#82583D"/>
<path d="M149.448 166.236C149.309 166.133 149.141 166.053 148.958 165.994C148.914 165.935 148.855 165.877 148.789 165.818C148.335 165.43 147.624 165.43 147.067 165.518C146.049 165.679 144.437 166.646 145.25 167.862C145.814 168.712 147.294 168.822 148.188 168.61C148.804 168.463 149.383 168.112 149.676 167.54C149.903 167.078 149.881 166.551 149.448 166.236Z" fill="#82583D"/>
<path d="M166.441 167.811C166.295 167.62 166.067 167.474 165.789 167.386C165.76 167.349 165.73 167.32 165.701 167.291C165.335 166.924 164.741 166.829 164.236 166.844C163.224 166.866 161.722 167.305 161.407 168.404C161.012 169.753 163.027 169.914 163.884 169.95C164.573 169.98 165.349 169.928 165.943 169.533C166.485 169.159 166.888 168.412 166.441 167.811Z" fill="#82583D"/>
<path d="M185.345 168.206C184.532 167.613 183.205 167.752 182.451 168.39C182.106 168.683 181.659 169.232 182.004 169.701C182.121 169.862 182.282 169.972 182.458 170.024C182.78 170.185 183.205 170.2 183.528 170.17C184.18 170.112 184.832 169.87 185.286 169.386C185.579 169.071 185.77 168.514 185.345 168.206Z" fill="#82583D"/>
<path d="M200.308 166.668C200.11 166.397 199.729 166.243 199.289 166.25C198.425 166.25 197.369 166.661 197.054 167.54C196.915 167.928 196.996 168.331 197.267 168.646C197.589 169.013 197.97 169.108 198.432 169.166C199.428 169.291 200.828 169.079 201.172 167.965C201.421 167.195 200.945 166.8 200.308 166.668Z" fill="#82583D"/>
<path d="M218.772 167.591C218.603 167.43 218.398 167.305 218.171 167.21C217.885 166.975 217.512 166.807 217.167 166.726C216.185 166.506 214.808 166.726 214.464 167.847C214.178 168.771 215.218 169.225 215.944 169.364C216.896 169.547 218.017 169.489 218.713 168.727C219.028 168.39 219.131 167.928 218.772 167.591Z" fill="#82583D"/>
<path d="M234.548 167.73C233.815 167.078 232.327 167.042 231.477 167.437C231.236 167.547 231.008 167.738 230.877 167.965C230.569 168.214 230.371 168.566 230.474 169.005C230.671 169.841 231.734 169.819 232.408 169.723C233.243 169.606 234.123 169.276 234.635 168.58C234.841 168.302 234.797 167.95 234.548 167.73Z" fill="#82583D"/>
<path d="M248.872 167.364C248.586 166.961 248.154 166.873 247.736 166.983C247.319 166.858 246.85 167.13 246.579 167.43C246.432 167.591 246.234 167.899 246.337 168.133C246.483 168.47 246.689 168.742 247.055 168.844C247.429 168.954 247.89 168.873 248.227 168.69C248.506 168.529 248.733 168.368 248.88 168.075C248.989 167.848 249.026 167.577 248.872 167.364Z" fill="#82583D"/>
<path d="M164.821 162.323C161.538 155.926 160.637 147.617 164.095 141.11C165.546 138.377 167.759 135.908 170.36 134.223C173.958 131.9 178.72 132.398 180.34 136.795C181.395 139.66 180.713 143.052 179.556 145.778C178.676 147.844 177.519 149.779 176.2 151.588C174.896 153.391 173.437 155.076 171.972 156.747C171.239 157.575 170.499 158.388 169.781 159.231C169.224 159.883 168.726 160.579 168.323 161.326C167.598 162.667 167.202 164.155 167.209 165.671C167.209 165.891 167.217 166.118 167.239 166.338C166.308 165.078 165.531 163.7 164.821 162.323Z" fill="#67AD14"/>
<path d="M167.188 163.151C167.444 162.272 167.796 161.414 168.192 160.586C168.551 159.839 168.961 159.114 169.401 158.41C169.848 157.692 170.331 157.003 170.822 156.307C171.357 155.545 171.899 154.776 172.419 153.999C172.954 153.2 173.475 152.387 173.944 151.544C174.405 150.724 174.815 149.874 175.145 148.995C175.46 148.152 175.702 147.273 175.805 146.371C175.907 145.485 175.893 144.569 175.695 143.704C175.519 142.935 175.123 142.151 174.325 141.894C173.951 141.777 173.555 141.792 173.182 141.865C172.654 141.975 172.134 142.188 171.679 142.466C170.676 143.089 169.936 144.063 169.349 145.067C169.049 145.58 168.785 146.115 168.529 146.65C168.287 147.163 168.052 147.676 167.84 148.196C167.43 149.214 167.078 150.255 166.799 151.317C166.521 152.365 166.316 153.428 166.169 154.497C166.023 155.553 165.942 156.622 165.913 157.685C165.884 158.762 165.913 159.839 165.986 160.909C166.059 161.986 166.184 163.063 166.345 164.133C166.404 164.521 166.47 164.902 166.536 165.29C166.433 165.137 166.331 164.975 166.235 164.814C166.235 164.814 166.235 164.814 166.235 164.807C165.744 163.078 165.422 161.304 165.239 159.517C165.063 157.773 165.034 156.014 165.173 154.27C165.334 152.372 165.678 150.489 166.184 148.65C166.69 146.818 167.356 145.045 168.148 143.323C168.565 142.415 168.998 141.528 169.511 140.671C170.031 139.799 170.602 138.964 171.203 138.143C171.767 137.366 172.354 136.604 172.969 135.864C173.182 135.608 173.409 135.344 173.555 135.044C173.65 134.846 173.716 134.597 173.57 134.399C173.372 134.128 172.954 134.062 172.647 134.025C172.324 133.988 172.002 134.01 171.679 134.084C170.947 134.245 170.265 134.619 169.635 135.029C169.012 135.432 168.433 135.901 167.862 136.377C167.327 136.824 166.814 137.286 166.323 137.784C167.496 136.392 168.858 135.161 170.361 134.194C173.958 131.871 178.721 132.369 180.34 136.765C181.395 139.63 180.714 143.023 179.556 145.749C178.677 147.815 177.519 149.749 176.2 151.559C174.896 153.362 173.438 155.047 171.973 156.718C171.24 157.546 170.5 158.359 169.782 159.201C169.225 159.854 168.727 160.55 168.324 161.297C167.598 162.638 167.202 164.125 167.21 165.642C167.21 165.862 167.217 166.089 167.239 166.309C167.085 166.096 166.931 165.884 166.785 165.664C166.785 164.829 166.953 163.972 167.188 163.151Z" fill="#92C10B"/>
<path d="M136.34 159.296C137.358 158.739 138.428 158.285 139.527 157.926C140.524 157.677 141.55 157.501 142.575 157.398C144.459 157.369 146.349 157.523 148.174 157.977C149.141 158.219 150.071 158.564 150.995 158.945C151.91 159.326 152.804 159.751 153.684 160.219C155.42 161.157 157.061 162.286 158.512 163.627C159.421 164.469 160.249 165.4 160.974 166.404C159.714 165.678 158.139 165.854 156.783 166.242C155.134 166.711 153.596 167.51 152.028 168.192C150.32 168.932 148.584 169.613 146.781 170.075C144.979 170.544 143.088 170.8 141.22 170.683C139.769 170.595 138.318 170.309 136.948 169.833C135.541 169.342 134.142 168.624 133.145 167.488C132.669 166.946 132.31 166.316 132.12 165.62C131.878 164.74 131.944 163.817 132.31 162.982C133.065 161.275 134.765 160.161 136.34 159.296Z" fill="#67AD14"/>
<path d="M136.34 159.296C137.358 158.739 138.428 158.285 139.527 157.926C140.523 157.677 141.549 157.501 142.575 157.398C144.458 157.369 146.349 157.523 148.173 157.977C149.14 158.219 150.071 158.564 150.994 158.945C151.91 159.326 152.804 159.751 153.683 160.219C153.69 160.219 153.698 160.227 153.698 160.227C153.082 159.978 152.445 159.765 151.8 159.597C150.613 159.289 149.389 159.142 148.166 159.142C147.008 159.142 145.843 159.252 144.693 159.391C143.762 159.509 142.692 159.589 141.952 160.241C141.93 160.263 141.938 160.307 141.967 160.322C142.341 160.491 142.773 160.505 143.183 160.513C143.615 160.52 144.048 160.491 144.48 160.52C145.484 160.593 146.48 160.71 147.47 160.901C148.312 161.062 149.14 161.289 149.968 161.509C150.804 161.729 151.631 161.971 152.437 162.278C153.126 162.542 153.808 162.857 154.409 163.29C154.064 163.202 153.727 163.099 153.39 162.989C152.54 162.711 151.69 162.388 150.804 162.249C149.932 162.11 149.052 162.037 148.173 162.022C146.81 162 145.447 162.103 144.106 162.344C143.015 162.542 141.923 162.821 140.904 163.268C140.018 163.656 139.029 164.235 138.64 165.173C138.457 165.62 138.442 166.103 138.567 166.572C138.728 167.18 139.095 167.671 139.6 168.038C140.164 168.448 140.846 168.69 141.527 168.851C142.187 169.005 142.861 169.093 143.535 169.129C145.162 169.217 146.781 168.99 148.349 168.58C149.17 168.367 149.976 168.111 150.774 167.825C151.514 167.561 152.232 167.254 152.958 166.961C154.387 166.374 155.889 165.81 157.449 165.788C157.94 165.781 158.439 165.817 158.922 165.913C158.197 165.913 157.464 166.052 156.79 166.25C155.141 166.719 153.603 167.517 152.034 168.199C150.327 168.939 148.591 169.62 146.788 170.082C144.986 170.551 143.095 170.807 141.227 170.69C139.776 170.602 138.325 170.316 136.955 169.84C135.548 169.349 134.149 168.631 133.152 167.495C132.676 166.953 132.317 166.323 132.126 165.627C131.885 164.748 131.95 163.824 132.317 162.989C133.064 161.275 134.764 160.161 136.34 159.296Z" fill="#92C10B"/>
<path d="M167.129 146.495C166.601 148.093 166.264 149.741 166.045 151.405C165.81 153.193 165.722 154.995 165.678 156.798C165.605 159.494 165.649 162.286 166.257 164.96C166.909 167.825 167.737 170.675 168.682 173.46C168.125 172.698 167.51 171.98 166.894 171.306C166.557 170.932 166.22 170.565 165.876 170.206C164.63 168.77 163.267 167.444 161.751 166.286C160.908 165.642 160.029 165.041 159.106 164.513C158.82 164.323 158.527 164.132 158.234 163.949C157.325 163.385 156.343 162.901 155.31 162.498C154.365 162.212 153.412 161.971 152.452 161.751C151.456 161.531 150.467 161.304 149.456 161.172C148.393 161.025 147.309 160.959 146.246 161.084C145.704 161.15 145.155 161.267 144.642 161.472C145.133 161.384 145.675 161.502 146.151 161.546C146.84 161.604 147.514 161.714 148.203 161.802C149.522 161.971 150.782 162.227 152.035 162.689C154.475 163.583 156.812 164.689 158.959 166.162C161.157 167.671 163.055 169.518 164.909 171.415C165.876 172.405 166.814 173.438 167.642 174.552C168.492 175.702 169.21 176.94 169.877 178.2C170.653 179.659 171.386 181.153 172.053 182.67C172.727 184.202 173.328 185.762 174.046 187.272C174.097 187.374 174.163 187.433 174.236 187.462C174.273 187.579 174.302 187.704 174.339 187.821C174.39 188.012 174.654 187.814 174.639 187.667C174.625 187.579 174.617 187.484 174.603 187.396C174.625 187.382 174.654 187.367 174.676 187.345C174.771 187.389 174.918 187.264 174.896 187.147C174.889 187.118 174.889 187.096 174.881 187.066C174.925 186.949 174.94 186.832 174.889 186.722C174.852 186.641 174.815 186.561 174.779 186.48C174.771 186.451 174.764 186.422 174.757 186.385C174.91 186.326 175.035 186.077 174.998 185.938C174.837 185.337 174.5 184.824 174.229 184.267C174.119 184.04 174.009 183.813 173.899 183.579C173.877 183.52 173.863 183.469 173.841 183.417C173.423 182.216 172.903 181.051 172.346 179.908C172.302 179.812 172.251 179.717 172.199 179.615C172.104 179.373 172.009 179.138 171.914 178.897C171.679 178.31 171.445 177.724 171.21 177.138C171.21 177.131 171.21 177.123 171.203 177.109C170.859 175.907 170.368 174.779 169.928 173.606C169.488 172.441 169.137 171.24 168.792 170.053C168.125 167.752 167.569 165.407 167.18 163.04C166.792 160.681 166.55 158.278 166.543 155.882C166.535 153.53 166.763 151.2 167.122 148.877C167.312 147.617 167.62 146.371 168.03 145.162C168.221 144.59 168.463 144.041 168.704 143.499C168.895 143.074 168.997 142.634 169.115 142.194C168.279 143.543 167.62 144.993 167.129 146.495Z" fill="#405621"/>
<path d="M168.426 138.898C168.111 138.663 167.693 138.817 167.393 138.985C166.469 139.491 165.766 140.451 165.238 141.33C165.019 141.689 164.278 142.774 164.557 143.294C164.572 143.426 164.616 143.55 164.689 143.668C165.048 144.232 165.759 143.924 166.169 143.609C166.806 143.125 167.327 142.466 167.774 141.806C168.162 141.228 168.594 140.546 168.711 139.85C168.763 139.52 168.711 139.11 168.426 138.898Z" fill="#92C10B"/>
<path d="M163.883 146.283C163.876 146.269 163.861 146.254 163.839 146.247C163.758 146.21 163.678 146.269 163.634 146.335C163.399 146.452 163.282 146.723 163.289 146.987C163.289 147.031 163.304 147.075 163.319 147.119C163.311 147.28 163.451 147.382 163.619 147.338C163.751 147.302 163.883 147.163 163.956 147.053C164.037 146.935 164.073 146.804 164.095 146.664C164.132 146.466 164.044 146.313 163.883 146.283Z" fill="#92C10B"/>
<path d="M149.867 164.865C150.299 164.631 150.775 164.477 151.251 164.352C151.801 164.206 152.387 164.081 152.951 164.147C153.552 164.22 154.006 164.675 153.992 165.297C153.977 165.847 153.574 166.169 153.12 166.404C152.329 166.814 150.9 167.246 149.984 166.814C149.786 166.77 149.595 166.69 149.449 166.558C149.185 166.331 149.068 165.942 149.156 165.612C149.244 165.261 149.559 165.034 149.867 164.865Z" fill="#92C10B"/>
<path d="M146.928 166.543C146.972 166.499 147.038 166.462 147.104 166.455C147.148 166.448 147.184 166.462 147.221 166.47C147.221 166.47 147.221 166.47 147.214 166.47C147.221 166.47 147.235 166.477 147.243 166.477C147.272 166.492 147.301 166.499 147.331 166.514C147.36 166.536 147.389 166.55 147.411 166.572C147.499 166.602 147.573 166.675 147.609 166.756C147.631 166.807 147.646 166.858 147.653 166.909C147.66 166.961 147.646 167.041 147.609 167.085C147.602 167.144 147.58 167.203 147.536 167.246C147.492 167.29 147.441 167.32 147.382 167.342C147.367 167.349 147.345 167.356 147.331 167.356C147.279 167.364 147.235 167.356 147.192 167.334C147.177 167.327 147.162 167.32 147.148 167.312C147.096 167.298 147.052 167.276 147.016 167.239C146.964 167.188 146.92 167.129 146.884 167.071C146.832 166.975 146.825 166.873 146.832 166.77C146.84 166.682 146.876 166.594 146.928 166.543Z" fill="#92C10B"/>
<path d="M191.434 193.559C191.075 193.728 190.672 193.852 190.225 193.918C190.459 194.534 190.723 195.208 191.031 195.926C192.826 200.154 193.273 204.169 191.097 206.733C193.705 204.821 194.826 201.905 192.899 197.208C192.372 195.911 191.873 194.68 191.434 193.559Z" fill="#EBD9B3"/>
<path d="M193.251 197.223C192.716 195.919 192.189 194.614 191.713 193.413C191.537 193.515 191.339 193.603 191.141 193.676C191.551 194.724 192.028 195.889 192.555 197.193C193.794 200.212 193.83 202.645 192.658 204.565C193.405 201.81 192.467 198.505 191.383 195.948C191.061 195.193 190.789 194.504 190.555 193.867C190.35 193.911 190.137 193.947 189.91 193.969C190.137 194.57 190.401 195.222 190.694 195.926C192.079 199.186 193.222 203.678 190.782 206.558C190.723 206.631 190.745 206.734 190.826 206.821C190.855 206.851 190.892 206.88 190.929 206.909C191.09 207.012 191.302 207.034 191.412 206.953C194.424 204.733 195.025 201.553 193.251 197.223Z" fill="#BD7A43"/>
<path d="M190.195 194.863C190.195 194.863 191.302 195.772 193.632 196.944C195.955 198.116 197.618 199.699 197.618 201.597C198.05 199.816 197.471 198.138 194.914 196.812C192.357 195.479 190.32 194.38 190.02 193.903C190.217 194.585 190.195 194.863 190.195 194.863Z" fill="#EBD9B3"/>
<path d="M197.398 201.641C197.405 199.501 195.266 197.97 193.471 197.069C191.162 195.904 190.027 194.98 190.012 194.973C189.99 194.951 189.975 194.929 189.983 194.9C189.983 194.9 189.997 194.621 189.807 193.969C189.785 193.903 189.851 193.823 189.961 193.786C190.071 193.749 190.181 193.764 190.217 193.823C190.518 194.299 192.782 195.501 195.068 196.695C197.42 197.919 198.321 199.516 197.823 201.582C197.808 201.656 197.706 201.722 197.596 201.736C197.567 201.743 197.545 201.736 197.515 201.736C197.449 201.729 197.398 201.692 197.398 201.641ZM190.408 194.783C190.613 194.944 191.719 195.779 193.786 196.82C195.192 197.53 196.812 198.615 197.493 200.088C197.303 198.827 196.394 197.787 194.753 196.929C192.643 195.83 191.148 195.017 190.378 194.475C190.4 194.636 190.408 194.731 190.408 194.783Z" fill="#BD7A43"/>
<path d="M184.715 183.433C184.715 183.433 185.279 184.334 187.646 186.818C190.013 189.295 190.804 190.086 188.21 192.907C185.616 195.721 180.883 201.582 186.408 209.247C188.437 211.503 188.1 210.038 187.082 208.008C186.071 205.979 186.855 201.7 191.478 197.303C196.102 192.907 197.677 187.836 196.102 182.202C194.526 176.567 188.775 176.113 188.775 176.113L184.715 183.433Z" fill="#EBD9B3"/>
<path d="M187.748 210.646C187.47 210.646 187.045 210.353 186.202 209.415C180.253 201.157 186.093 194.812 188.012 192.724C190.423 190.108 189.8 189.456 187.499 187.045L187.448 186.994C185.089 184.524 184.51 183.609 184.488 183.572C184.437 183.491 184.437 183.389 184.481 183.308L188.54 175.981C188.591 175.893 188.686 175.827 188.789 175.849C188.848 175.856 194.739 176.384 196.351 182.128C197.948 187.844 196.373 193.009 191.654 197.486C187.411 201.524 186.261 205.774 187.309 207.884C188.481 210.221 188.13 210.456 187.961 210.573C187.902 210.617 187.836 210.646 187.748 210.646ZM185.023 183.418C185.257 183.74 185.997 184.715 187.836 186.635L187.888 186.686C190.188 189.104 191.148 190.101 188.408 193.083C185.199 196.57 181.528 202.022 186.62 209.093C187.162 209.694 187.463 209.943 187.617 210.045C187.573 209.774 187.375 209.181 186.847 208.126C185.741 205.913 186.664 201.516 191.295 197.113C195.86 192.775 197.384 187.785 195.845 182.275C194.482 177.417 189.851 176.53 188.914 176.399L185.023 183.418Z" fill="#BD7A43"/>
<g opacity="0.4">
<path d="M185.572 203.912C185.022 201.722 186.261 198.366 189.184 194.841C192.43 190.929 192.533 190.408 191.053 187.162C189.573 183.916 187.704 183.323 189.968 180.37C190.826 179.256 191.258 177.996 191.463 176.867C189.99 176.208 188.767 176.105 188.767 176.105L184.707 183.433C184.707 183.433 185.272 184.334 187.638 186.818C190.005 189.295 190.796 190.086 188.203 192.907C185.609 195.721 180.875 201.582 186.4 209.247C188.43 211.503 188.093 210.038 187.074 208.008C186.063 205.979 186.847 201.7 191.47 197.303C192.679 196.16 193.669 194.966 194.46 193.728C192.745 195.252 190.87 196.549 189.265 197.692C185.638 200.285 186.122 206.103 185.572 203.912Z" fill="#769E2A"/>
</g>
<path d="M193.112 178.67C193.024 178.589 192.877 178.816 192.921 178.897C195.346 183.557 196.328 187.199 193.551 192.137C193.302 192.577 193.778 192.665 194.013 192.321C196.885 188.107 197.09 182.319 193.112 178.67Z" fill="#EBD9B3"/>
<path d="M151.464 170.053C151.464 170.053 160.338 161.018 178.363 166.023C187.207 168.939 189.962 171.372 190.292 174.024C190.621 176.677 188.753 184.839 175.725 190.129C162.69 195.42 151.838 194.35 147.222 184.934C145.515 180.406 146.863 174.368 151.464 170.053Z" fill="#DCDDCF"/>
<path d="M161.693 193.551C154.856 193.551 149.734 190.679 146.979 185.052C145.126 180.113 146.862 174.024 151.281 169.862C151.53 169.613 160.63 160.828 178.428 165.767C186.539 168.441 190.159 170.903 190.547 173.995C190.892 176.75 188.913 185.059 175.82 190.379C170.573 192.504 165.818 193.551 161.693 193.551ZM167.987 164.785C157.172 164.785 151.713 170.163 151.647 170.236L151.64 170.243C147.368 174.259 145.69 180.121 147.456 184.839C151.735 193.566 162 195.413 175.614 189.888C188.4 184.693 190.349 176.699 190.02 174.054C189.668 171.189 186.151 168.866 178.274 166.265C174.427 165.202 170.998 164.785 167.987 164.785Z" fill="#85867F"/>
<path d="M183.858 177.109C186.085 175.6 184.92 175.234 184.92 175.234C184.92 175.234 184.957 174.75 186.906 174.486C166.133 169.687 151.427 176.223 146.687 178.809C146.401 180.597 146.474 182.37 146.914 183.982C163.232 187.287 181.718 178.567 183.858 177.109Z" fill="#6E6963"/>
<path d="M188.196 171.951C180.693 167.562 164.954 161.217 148.687 173.453C148.042 174.494 147.551 175.585 147.192 176.677C151.933 173.204 165.32 165.862 188.196 171.951Z" fill="#6E6963"/>
<path d="M185.308 179.82C168.976 189.536 153.046 187.558 148.174 186.627C149.222 188.247 150.497 189.551 151.955 190.569C170.178 192.965 186.679 178.904 185.308 179.82Z" fill="#6E6963"/>
<path d="M175.087 188.686C167.152 192.203 159.619 192.562 155.978 192.489C159.224 193.486 163.048 193.522 167.262 192.694C174.845 189.741 176.076 188.166 175.087 188.686Z" fill="#6E6963"/>
<path d="M190.283 174.024C189.961 171.445 187.352 169.078 179.124 166.279C179.432 166.411 179.747 166.536 180.091 166.668C192.188 171.284 187.484 177.952 174.588 183.792C161.692 189.639 147.91 185.059 150.833 176.061C153.273 168.551 160.908 165.613 163.37 164.843C155.413 166.045 151.471 170.046 151.471 170.046C146.877 174.361 145.521 180.399 147.221 184.927C151.837 194.35 162.689 195.413 175.724 190.122C188.745 184.839 190.613 176.677 190.283 174.024Z" fill="#C4C6BA"/>
<path d="M148.621 173.563L148.628 173.556C148.621 173.556 148.621 173.563 148.621 173.563Z" fill="#C4C6BA"/>
<path d="M148.694 173.453C148.687 173.46 148.687 173.453 148.694 173.453Z" fill="#C4C6BA"/>
<path d="M189.067 171.497C189.155 171.614 189.243 171.731 189.346 171.848C193.457 176.699 178.282 193.955 159.128 190.071C145.58 187.323 145.976 180.15 147.368 176.186C146.276 179.19 146.225 182.312 147.207 184.935C151.823 194.358 162.675 195.42 175.71 190.13C188.738 184.84 190.606 176.677 190.276 174.024C190.174 173.167 189.808 172.332 189.067 171.497Z" fill="#8A8B84"/>
<path d="M183.323 170.002C175.49 163.356 163.282 164.257 154.57 171.028C154.424 171.145 154.717 171.321 154.841 171.248C163.839 165.723 174.852 164.441 183.037 170.185C183.183 170.295 183.513 170.171 183.323 170.002Z" fill="#DCDDCF"/>
</svg>
