<svg width="193" height="193" viewBox="0 0 193 193" fill="none" xmlns="http://www.w3.org/2000/svg">
<path d="M96.5 193C149.795 193 193 149.795 193 96.5C193 43.2045 149.795 0 96.5 0C43.2045 0 0 43.2045 0 96.5C0 149.795 43.2045 193 96.5 193Z" fill="#FFF2BB"/>
<path d="M49.8251 91.6931C49.8691 90.8871 49.5833 90.1324 48.7773 89.5609C47.0627 88.3592 44.293 89.0333 42.4392 89.5755C40.3217 90.191 38.2334 90.9897 36.321 92.0888C34.8848 92.9167 32.6207 94.4994 33.2875 96.4631C33.9616 98.4635 36.8485 98.8372 38.6071 98.9617C41.2449 99.1449 44.0879 98.8445 46.5425 97.8187C48.4769 97.0127 50.4626 95.386 50.3966 93.0926C50.3747 92.4918 50.1622 92.0375 49.8251 91.6931Z" fill="#6E4931"/>
<path d="M62.531 91.9204C61.6957 91.3489 60.5234 91.0851 59.3657 91.1364C59.1532 91.0851 58.9407 91.0558 58.7502 91.0485C57.0429 90.9459 54.874 91.979 54.6616 93.8621C54.4564 95.7159 56.6179 95.9651 57.9808 95.7819C59.6368 95.5694 61.8789 94.7781 62.6629 93.1514C62.8534 92.7557 62.978 92.2282 62.531 91.9204Z" fill="#6E4931"/>
<path d="M97.2472 92.7192C96.5218 89.8395 92.0888 88.7038 89.5683 88.4254C87.7731 88.2275 85.9779 88.8504 84.7249 90.1766C83.7944 91.1658 83.2741 92.6605 83.875 93.7816C83.9922 94.104 84.212 94.4191 84.5491 94.7122C86.3882 96.2949 89.5463 96.5586 91.8544 96.5953C94.0745 96.6173 98.0312 95.8186 97.2472 92.7192Z" fill="#6E4931"/>
<path d="M114.869 92.0451C113.917 89.5612 111.074 89.3193 108.919 90.3085C107.212 91.0925 105.124 93.005 105.424 95.0639C105.3 95.3643 105.234 95.6941 105.227 96.0531C105.227 96.4927 105.432 96.7785 105.842 96.9324C108.656 97.9509 116.555 96.4415 114.869 92.0451Z" fill="#6E4931"/>
<path d="M152.495 91.73C151.432 90.6602 149.447 90.1913 147.981 90.1766C146.464 90.162 144.816 90.6162 143.453 91.2684C142.412 91.7593 140.713 92.7778 141.042 94.1846C141.423 95.8333 144.515 96.163 145.783 96.3242C147.197 96.5 149.278 96.3681 150.765 95.5475C150.89 95.5768 151.029 95.5548 151.161 95.4596C152.385 94.6096 153.938 93.1808 152.495 91.73Z" fill="#6E4931"/>
<path d="M165.933 92.0964C165.911 90.6822 164.328 90.0887 163.149 89.9202C160.504 89.5538 156.803 90.2499 155.155 92.5726C154.539 93.4446 154.166 94.6682 155.059 95.4816C155.778 96.141 156.906 96.2436 157.836 96.2656C159.873 96.3169 162.628 96.0824 164.372 94.8954C164.973 94.4851 165.728 93.7743 165.721 92.9683C165.86 92.7119 165.94 92.4188 165.933 92.0964Z" fill="#6E4931"/>
<path d="M175.788 92.3745C175.429 91.3194 174.286 91.1289 173.356 91.5465C172.835 91.781 172.315 92.2793 172.257 92.8801C172.22 93.3051 172.469 93.5908 172.791 93.6495C172.872 93.7301 172.975 93.8033 173.092 93.8473C173.634 94.0378 174.118 93.9792 174.653 93.8107C175.173 93.6421 176.03 93.0779 175.788 92.3745Z" fill="#6E4931"/>
<path d="M24.7075 93.5913C24.5976 92.4555 23.0662 91.7668 22.0697 91.7228C20.89 91.6715 19.725 92.4629 19.3513 93.5839C19.3073 93.7232 19.278 93.8844 19.2634 94.0456C19.1388 94.3313 19.1242 94.6244 19.344 94.8589C19.3879 94.9028 19.4319 94.9395 19.4759 94.9834C19.5931 95.152 19.769 95.3132 19.9595 95.3938C19.9888 95.4084 20.0181 95.4157 20.0474 95.4231C20.7581 95.8407 21.6008 95.9873 22.4434 95.8334C23.4839 95.6356 24.8321 94.8003 24.7075 93.5913Z" fill="#6E4931"/>
<path d="M77.1558 91.525C76.9799 91.3931 76.7674 91.3492 76.5549 91.3565C76.4157 91.2905 76.2472 91.2539 76.1006 91.2539C75.9834 91.2539 75.8662 91.2686 75.7489 91.2905C75.6757 91.3052 75.6024 91.3345 75.5291 91.3565C75.4925 91.3711 75.1627 91.4591 75.4851 91.3711C74.8916 91.525 74.1809 92.1771 74.5619 92.8366C74.7744 93.2103 75.258 93.3715 75.661 93.3715C76.3058 93.3715 76.9066 93.0344 77.2583 92.4995C77.4635 92.1918 77.4708 91.7595 77.1558 91.525Z" fill="#6E4931"/>
<path d="M124.885 92.9172C124.856 92.8879 124.834 92.8586 124.812 92.8219C124.827 92.7706 124.842 92.712 124.849 92.6534C124.915 92.2944 124.629 92.0526 124.343 91.928C124.204 91.8694 123.933 91.884 123.808 91.9133C123.757 91.928 123.574 91.9866 123.523 92.0086C123.369 92.0672 123.237 92.1551 123.12 92.2724C122.922 92.4409 122.958 92.4116 123.215 92.1918C123.156 92.2357 123.112 92.2724 123.046 92.331C122.98 92.3896 122.929 92.4409 122.871 92.4922C122.805 92.5508 122.739 92.6094 122.687 92.668C122.438 92.9465 122.24 93.3422 122.409 93.7085C122.563 94.0456 122.995 94.1775 123.339 94.0749C123.545 94.0163 123.706 93.9503 123.874 93.8697C123.896 93.877 123.918 93.8844 123.94 93.8917C124.211 93.9796 124.563 93.8258 124.746 93.6206C124.885 93.474 125.076 93.1223 124.885 92.9172Z" fill="#6E4931"/>
<path d="M177.884 93.3128C174.777 92.9757 171.634 93.2395 168.527 93.5326C165.317 93.8257 162.123 94.2287 158.913 94.5364C155.675 94.8442 152.378 95.1373 149.132 94.8588C146.01 94.5877 142.911 94.1261 139.804 93.7085C136.47 93.2542 133.121 92.8439 129.758 92.7266C126.505 92.6094 123.281 92.8878 120.064 93.3714C113.807 94.3093 107.608 95.6209 101.248 95.6136C94.9685 95.6062 88.7842 94.3972 82.5927 93.474C79.2441 92.9757 75.9176 92.5508 72.5324 92.646C69.2131 92.7413 65.9159 93.1662 62.6333 93.6718C56.449 94.639 50.3308 95.7748 44.0587 95.8847C33.7565 96.0605 23.5643 94.2434 13.3062 93.7085C13.2988 94.0455 13.2988 94.3826 13.2988 94.727C13.2988 140.727 50.5872 178.016 96.5878 178.016C142.588 178.016 179.877 140.727 179.877 94.727C179.877 94.3386 179.877 93.9503 179.869 93.5619C179.195 93.4667 178.536 93.3787 177.884 93.3128Z" fill="#6E4931"/>
<path d="M28.3344 102.912C31.2506 104.018 34.2108 104.766 37.3469 104.839C40.4536 104.919 43.5384 104.399 46.5279 103.564C52.1919 101.989 57.4236 99.2261 63.3294 98.4861C66.4801 98.0904 69.7114 98.3102 72.8841 98.3322C76.1374 98.3542 79.3834 98.3542 82.6367 98.2223C88.8355 97.9732 95.0051 97.2185 101.028 99.2115C103.856 100.149 106.619 101.292 109.572 101.776C112.788 102.304 115.888 101.805 119.009 100.999C121.896 100.259 124.754 99.3434 127.707 98.9257C130.432 98.5374 133.195 98.7059 135.898 99.1675C138.881 99.6804 141.782 100.523 144.735 101.153C147.835 101.813 150.993 102.186 154.158 102.054C159.954 101.813 165.574 100.061 171.384 100.047C174.117 100.039 176.829 100.377 179.554 100.457C179.591 100.457 179.62 100.457 179.657 100.457C179.789 98.5594 179.855 96.6543 179.855 94.7199C179.855 94.3315 179.855 93.9432 179.847 93.5548C179.188 93.4596 178.528 93.379 177.876 93.3057C174.77 92.9687 171.626 93.2324 168.519 93.5255C165.31 93.8186 162.115 94.2216 158.906 94.5294C155.667 94.8371 152.37 95.1302 149.124 94.8518C146.003 94.5806 142.903 94.119 139.797 93.7014C136.463 93.2471 133.114 92.8368 129.751 92.7195C126.498 92.6023 123.274 92.8807 120.057 93.3643C113.8 94.3022 107.601 95.6138 101.241 95.6065C94.9611 95.5991 88.7769 94.3901 82.5854 93.4669C79.2368 92.9687 75.9102 92.5437 72.5251 92.6389C69.2058 92.7342 65.9085 93.1592 62.6259 93.6647C56.4417 94.6319 50.3235 95.7677 44.0513 95.8776C33.7492 96.0534 23.557 94.2363 13.2988 93.7014C13.2915 94.0384 13.2915 94.3755 13.2915 94.7199C13.2915 96.4271 13.3428 98.127 13.4454 99.805C18.5598 99.849 23.557 101.095 28.3344 102.912Z" fill="#6E4931"/>
<path d="M28.6494 98.8156C30.6425 98.288 32.5256 97.3501 34.5992 97.1669C35.7496 97.0643 36.9073 97.2475 38.0503 97.3355C39.296 97.4307 40.5416 97.46 41.7799 97.3355C44.0367 97.1083 46.3301 96.1484 48.6162 96.3976C49.6274 96.5075 50.5873 96.8519 51.5764 97.079C52.844 97.3721 54.097 97.3794 55.3573 97.0424C57.5262 96.4562 59.4239 95.2472 61.732 95.2325C62.8677 95.2252 64.0035 95.4084 65.1245 95.5769C66.4508 95.7748 67.7623 95.8334 69.1032 95.8114C70.4148 95.7894 71.7264 95.7015 73.038 95.6575C74.1371 95.6209 75.1775 95.5989 76.2473 95.87C77.449 96.1777 78.6213 96.6394 79.8743 96.6833C81.1126 96.7273 82.2776 96.2584 83.428 95.8627C84.4319 95.5183 85.4064 95.2545 86.4762 95.3425C87.5753 95.4377 88.6524 95.7308 89.7221 95.9799C90.9091 96.251 92.1108 96.317 93.3052 96.5221C94.2943 96.698 95.2396 97.0497 96.1994 97.3428C97.4231 97.7165 98.698 97.9949 99.9803 98.0169C101.167 98.0389 102.34 97.8557 103.505 97.6432C104.538 97.4527 105.571 97.2329 106.619 97.1449C107.806 97.0424 108.993 97.2182 110.173 97.2475C111.279 97.2768 112.349 97.057 113.455 97.0057C114.547 96.9544 115.58 97.145 116.657 97.2988C117.969 97.4893 119.134 97.4307 120.394 97.0057C121.361 96.6833 122.292 96.229 123.274 95.9579C124.944 95.5036 126.805 95.467 128.52 95.4524C129.37 95.445 130.235 95.4524 131.077 95.5623C131.092 95.5623 131.114 95.5696 131.128 95.5696C132.081 95.4157 133.07 95.4084 134.008 95.423C135.613 95.4523 137.21 95.5989 138.807 95.7528C139.445 95.8114 140.075 95.8773 140.713 95.914C141.636 95.9726 142.574 95.936 143.497 95.9872C145.468 96.0898 147.395 96.339 149.278 96.9325C151.007 97.4747 152.663 98.3613 154.502 98.4565C156.583 98.5664 158.576 97.7238 160.525 97.123C161.485 96.8299 162.46 96.5734 163.456 96.4489C164.563 96.3096 165.691 96.3536 166.805 96.4122C169.018 96.5221 171.245 96.7493 173.436 96.3096C175.414 95.914 177.393 95.892 179.408 95.8554C179.554 95.8554 179.694 95.848 179.84 95.848C179.847 95.4743 179.847 95.1006 179.847 94.727C179.847 94.3386 179.847 93.9503 179.84 93.5619C179.181 93.4667 178.521 93.3861 177.869 93.3128C174.762 92.9757 171.619 93.2395 168.512 93.5326C165.303 93.8257 162.108 94.2287 158.899 94.5364C155.66 94.8442 152.363 95.1373 149.117 94.8588C145.995 94.5877 142.896 94.1261 139.789 93.7085C136.455 93.2542 133.107 92.8439 129.744 92.7266C126.49 92.6094 123.266 92.8878 120.05 93.3714C113.792 94.3093 107.593 95.6209 101.233 95.6136C94.9538 95.6062 88.7696 94.3972 82.5781 93.474C79.2295 92.9757 75.9029 92.5508 72.5177 92.646C69.1985 92.7413 65.9012 93.1662 62.6186 93.6718C56.4344 94.639 50.3161 95.7748 44.044 95.8847C33.7419 96.0605 23.5497 94.2434 13.2915 93.7085C13.2842 94.0455 13.2842 94.3826 13.2842 94.727C13.2842 95.7015 13.3062 96.676 13.3355 97.6505C16.3763 98.5664 19.7029 98.6983 22.8243 98.9255C24.8173 99.0647 26.6931 99.3358 28.6494 98.8156Z" fill="#986749"/>
<path opacity="0.57" d="M150.216 138.815C144.647 138.881 139.188 140.618 133.891 142.149C128.725 143.636 123.464 145.036 118.049 144.992C112.297 144.941 106.699 143.46 101.065 142.457C98.0606 141.922 95.0271 141.541 91.9643 141.548C88.9381 141.563 85.9193 141.848 82.9298 142.281C77.1339 143.109 71.4186 144.413 65.6081 145.146C62.8457 145.49 60.0834 145.754 57.3063 145.417C54.9103 145.124 52.5803 144.464 50.3088 143.651C45.2457 141.827 40.4536 139.445 35.1121 138.5C31.7928 137.914 28.4369 137.672 25.0737 137.474C39.6257 161.764 66.2016 178.023 96.5731 178.023C126.71 178.023 153.103 162.02 167.728 138.046C161.896 138.712 156.085 138.749 150.216 138.815Z" fill="#8C664B"/>
<path opacity="0.57" d="M145.153 156.62C139.892 156.994 134.946 159.148 129.714 159.756C124.27 160.387 118.753 160.628 113.272 160.511C107.887 160.394 102.516 159.822 97.1301 159.83C94.4117 159.837 91.686 160.05 89.0262 160.621C86.3078 161.207 83.6114 161.881 80.9149 162.548C78.4017 163.171 75.8738 163.75 73.2946 164.043C70.6641 164.343 68.0409 164.248 65.4251 163.926C60.655 163.34 56.0169 162.035 51.4667 160.519C48.0302 159.368 44.6084 158.093 41.1646 156.899C55.885 170.029 75.3022 178.009 96.5806 178.009C117.786 178.009 137.137 170.081 151.843 157.031C149.623 156.716 147.395 156.459 145.153 156.62Z" fill="#8C664B"/>
<g opacity="0.57">
<path d="M28.4664 113.924C27.2134 113.821 25.9898 114.129 25.2937 114.942C24.6489 115.689 24.3485 116.781 24.3485 117.748C24.2972 120.13 25.3377 122.46 28.0854 122.174C30.3861 121.932 32.511 120.144 32.8408 117.807C33.1485 115.616 30.7452 114.107 28.4664 113.924Z" fill="#8C664B"/>
<path d="M37.6549 124.204C37.6476 124.175 37.6403 124.153 37.633 124.123C37.633 124.094 37.6256 124.065 37.6256 124.035C37.6036 123.925 37.545 123.83 37.4571 123.764C37.3252 123.632 37.142 123.559 36.9515 123.566C36.7757 123.566 36.6071 123.61 36.4386 123.676C36.2994 123.735 36.1822 123.808 36.0722 123.911C35.9623 123.991 35.8671 124.101 35.7938 124.219C35.7059 124.402 35.6106 124.592 35.618 124.805C35.618 124.856 35.6253 124.915 35.6326 124.966C35.6106 125.061 35.6033 125.164 35.6326 125.259C35.6766 125.391 35.7498 125.493 35.8598 125.581C36.0283 125.713 36.2994 125.706 36.4972 125.677C36.9735 125.596 37.4644 125.215 37.611 124.746C37.6769 124.548 37.6842 124.402 37.6549 124.204Z" fill="#8C664B"/>
<path d="M49.0123 137.891C48.7925 137.877 48.5873 137.942 48.4042 138.045C47.8986 138.045 47.4736 138.448 47.2831 138.873C47.1219 139.225 47.1658 139.679 47.4296 139.972C47.6641 140.229 47.9792 140.419 48.3382 140.426C49.1149 140.441 49.6498 139.738 49.7377 139.027C49.811 138.521 49.6058 137.928 49.0123 137.891Z" fill="#8C664B"/>
<path d="M25.1839 108.765C24.9494 108.216 24.5977 107.74 23.8943 107.791C23.3814 107.828 22.9198 108.15 22.5681 108.524C21.7621 109.388 21.9086 110.883 23.3448 110.795C23.5206 110.817 23.6965 110.839 23.8796 110.839C24.5904 110.817 25.6382 110.106 25.3671 109.278C25.3158 109.102 25.2572 108.934 25.1839 108.765Z" fill="#8C664B"/>
<path d="M33.7495 130.278C33.1121 129.89 32.4306 129.839 31.8298 130.029C31.8005 130.029 31.7712 130.022 31.7345 130.022C31.0604 130.007 30.4156 130.352 29.9613 130.828C29.1847 131.634 28.6424 133.092 29.3898 134.096C30.4376 135.51 33.0754 134.66 34.0939 133.664C35.1417 132.63 35.0098 131.048 33.7495 130.278Z" fill="#8C664B"/>
<path d="M50.265 128.469C49.6861 128.469 49.1439 129.494 49.9132 129.494C50.4921 129.502 51.0343 128.469 50.265 128.469Z" fill="#8C664B"/>
<path d="M53.995 108.355C53.3649 107.835 52.4709 107.798 51.6723 108.033C51.6356 108.033 51.599 108.025 51.5624 108.025C50.4486 108.025 49.3129 108.817 49.1737 109.967C49.0418 111.044 49.7965 112.209 50.815 112.554C51.9361 112.935 53.2916 112.422 54.039 111.557C54.845 110.627 55.0208 109.212 53.995 108.355Z" fill="#8C664B"/>
<path d="M60.8309 108.978C60.0909 108.978 59.4021 110.289 60.384 110.289C61.1167 110.289 61.8055 108.978 60.8309 108.978Z" fill="#8C664B"/>
<path d="M93.0562 122.13C85.9195 122.489 79.0025 121.412 75.0165 118.525C71.3675 115.88 69.6456 112.026 69.6456 108.582C69.3599 100.148 75.251 91.898 90.8873 92.9311C103.966 93.7957 116.027 100.126 117.91 108.384C119.691 116.129 106.011 121.485 93.0562 122.13Z" fill="#8C664B"/>
<path d="M91.9278 114.737C91.5908 114.759 91.2757 114.664 90.9973 114.495C90.2279 114.495 89.5758 113.88 89.2754 113.22C89.0262 112.678 89.0922 111.989 89.5025 111.535C89.8689 111.139 90.3452 110.846 90.902 110.839C92.089 110.817 92.917 111.894 93.0562 112.979C93.1515 113.777 92.8438 114.678 91.9278 114.737Z" fill="#8C664B"/>
<path d="M62.9779 135.788C63.249 134.953 62.1939 134.242 61.4905 134.227C61.3073 134.22 61.1314 134.242 60.9556 134.271C59.5194 134.184 59.3729 135.678 60.1789 136.543C60.5306 136.924 60.9922 137.239 61.5051 137.276C62.2086 137.327 62.5603 136.851 62.7947 136.301C62.8607 136.133 62.9193 135.957 62.9779 135.788Z" fill="#8C664B"/>
<path d="M72.855 105.644C72.2175 106.032 71.5361 106.084 70.9353 105.893C70.906 105.893 70.8767 105.901 70.84 105.901C70.1659 105.915 69.5211 105.571 69.0668 105.095C68.2901 104.289 67.7479 102.83 68.4953 101.827C69.5431 100.412 72.1809 101.262 73.1994 102.259C74.2472 103.292 74.1153 104.867 72.855 105.644Z" fill="#8C664B"/>
<path d="M83.2011 136.77C82.5709 137.29 81.677 137.327 80.8783 137.092C80.8417 137.092 80.805 137.1 80.7684 137.1C79.6547 137.1 78.5189 136.308 78.3797 135.158C78.2478 134.081 79.0025 132.916 80.021 132.571C81.1421 132.19 82.4976 132.703 83.245 133.568C84.0584 134.499 84.2269 135.913 83.2011 136.77Z" fill="#8C664B"/>
<path d="M98.4344 136.081C97.6944 136.081 97.0056 134.77 97.9875 134.77C98.7202 134.77 99.409 136.081 98.4344 136.081Z" fill="#8C664B"/>
<path d="M106.004 118.056C105.374 118.005 104.766 118.159 104.414 118.569C104.092 118.943 103.945 119.485 103.945 119.976C103.923 121.17 104.436 122.336 105.813 122.189C106.964 122.064 108.026 121.17 108.195 120.005C108.349 118.906 107.147 118.152 106.004 118.056Z" fill="#8C664B"/>
<path d="M117.258 124.204C117.251 124.175 117.244 124.153 117.236 124.123C117.236 124.094 117.229 124.065 117.229 124.035C117.207 123.925 117.149 123.83 117.061 123.764C116.929 123.632 116.746 123.559 116.555 123.566C116.379 123.566 116.211 123.61 116.042 123.676C115.903 123.735 115.786 123.808 115.676 123.911C115.566 123.991 115.471 124.101 115.397 124.219C115.309 124.402 115.214 124.592 115.221 124.805C115.221 124.856 115.229 124.915 115.236 124.966C115.214 125.061 115.207 125.164 115.236 125.259C115.28 125.391 115.353 125.493 115.463 125.581C115.632 125.713 115.903 125.706 116.101 125.677C116.577 125.596 117.068 125.215 117.214 124.746C117.28 124.548 117.288 124.402 117.258 124.204Z" fill="#8C664B"/>
<path d="M128.616 137.891C128.396 137.877 128.191 137.942 128.008 138.045C127.502 138.045 127.077 138.448 126.887 138.873C126.725 139.225 126.769 139.679 127.033 139.972C127.268 140.229 127.583 140.419 127.942 140.426C128.718 140.441 129.253 139.738 129.341 139.027C129.407 138.521 129.209 137.928 128.616 137.891Z" fill="#8C664B"/>
<path d="M104.787 108.765C104.553 108.216 104.201 107.74 103.498 107.791C102.985 107.828 102.523 108.15 102.172 108.524C101.366 109.388 101.512 110.883 102.948 110.795C103.124 110.817 103.3 110.839 103.483 110.839C104.194 110.817 105.242 110.106 104.971 109.278C104.919 109.102 104.861 108.934 104.787 108.765Z" fill="#8C664B"/>
<path d="M113.353 130.278C112.716 129.89 112.034 129.839 111.433 130.029C111.404 130.029 111.375 130.022 111.338 130.022C110.664 130.007 110.019 130.352 109.565 130.828C108.788 131.634 108.246 133.092 108.993 134.096C110.041 135.51 112.679 134.66 113.697 133.664C114.745 132.63 114.606 131.048 113.353 130.278Z" fill="#8C664B"/>
<path d="M129.869 128.469C129.29 128.469 128.748 129.494 129.517 129.494C130.096 129.502 130.638 128.469 129.869 128.469Z" fill="#8C664B"/>
<path d="M133.591 108.355C132.961 107.835 132.067 107.798 131.268 108.033C131.231 108.033 131.195 108.025 131.158 108.025C130.044 108.025 128.909 108.817 128.769 109.967C128.637 111.044 129.392 112.209 130.411 112.554C131.532 112.935 132.887 112.422 133.635 111.557C134.448 110.627 134.617 109.212 133.591 108.355Z" fill="#8C664B"/>
<path d="M140.427 108.978C139.687 108.978 138.998 110.289 139.98 110.289C140.72 110.289 141.409 108.978 140.427 108.978Z" fill="#8C664B"/>
<path d="M148.883 124.255C147.938 124.328 147.029 124.101 146.502 123.493C146.018 122.929 145.791 122.115 145.791 121.39C145.754 119.602 146.531 117.858 148.597 118.071C150.326 118.254 151.916 119.595 152.166 121.346C152.4 122.987 150.597 124.116 148.883 124.255Z" fill="#8C664B"/>
<path d="M171.531 114.737C171.194 114.759 170.879 114.664 170.601 114.495C169.831 114.495 169.179 113.88 168.879 113.22C168.63 112.678 168.696 111.989 169.106 111.535C169.472 111.139 169.949 110.846 170.506 110.839C171.693 110.817 172.521 111.894 172.66 112.979C172.755 113.777 172.447 114.678 171.531 114.737Z" fill="#8C664B"/>
<path d="M142.581 135.788C142.853 134.953 141.797 134.242 141.094 134.227C140.911 134.22 140.735 134.242 140.559 134.271C139.123 134.184 138.976 135.678 139.782 136.543C140.134 136.924 140.596 137.239 141.109 137.276C141.812 137.327 142.164 136.851 142.398 136.301C142.464 136.133 142.523 135.957 142.581 135.788Z" fill="#8C664B"/>
<path d="M154.825 108.883C154.422 109.132 153.99 109.161 153.609 109.044C153.587 109.044 153.572 109.051 153.55 109.051C153.125 109.058 152.715 108.846 152.429 108.546C151.938 108.033 151.594 107.109 152.07 106.472C152.737 105.578 154.4 106.113 155.052 106.75C155.712 107.395 155.624 108.399 154.825 108.883Z" fill="#8C664B"/>
<path d="M162.805 136.77C162.174 137.29 161.281 137.327 160.482 137.092C160.445 137.092 160.409 137.1 160.372 137.1C159.258 137.1 158.122 136.308 157.983 135.158C157.851 134.081 158.606 132.916 159.625 132.571C160.746 132.19 162.101 132.703 162.849 133.568C163.662 134.499 163.83 135.913 162.805 136.77Z" fill="#8C664B"/>
</g>
<g opacity="0.57">
<path d="M39.7871 146.399C39.4208 146.369 39.0691 146.457 38.8639 146.692C38.6734 146.911 38.5855 147.226 38.5855 147.512C38.5708 148.208 38.8712 148.882 39.6772 148.802C40.344 148.729 40.9668 148.208 41.0621 147.534C41.15 146.889 40.4539 146.45 39.7871 146.399Z" fill="#8C664B"/>
<path d="M40.9595 151.579C40.9595 151.564 40.9522 151.557 40.9522 151.542C40.9522 151.527 40.9522 151.513 40.9522 151.498C40.9449 151.447 40.9155 151.41 40.8789 151.374C40.8203 151.315 40.7397 151.278 40.6518 151.286C40.5712 151.286 40.4979 151.308 40.4246 151.337C40.366 151.359 40.3074 151.396 40.2634 151.447C40.2121 151.483 40.1682 151.527 40.1389 151.586C40.1022 151.667 40.0583 151.755 40.0583 151.85C40.0583 151.872 40.0583 151.901 40.0656 151.923C40.0583 151.967 40.0509 152.011 40.0656 152.055C40.0876 152.114 40.1169 152.165 40.1682 152.202C40.2414 152.26 40.366 152.26 40.4539 152.245C40.6664 152.209 40.8862 152.04 40.9522 151.828C40.9668 151.733 40.9742 151.667 40.9595 151.579Z" fill="#8C664B"/>
<path d="M35.3466 144.633C35.244 144.383 35.0828 144.171 34.7677 144.193C34.5332 144.208 34.3281 144.354 34.1742 144.523C33.8152 144.911 33.8738 145.585 34.5259 145.541C34.6065 145.556 34.6871 145.563 34.7677 145.556C35.0828 145.549 35.5591 145.226 35.4345 144.852C35.4052 144.786 35.3832 144.706 35.3466 144.633Z" fill="#8C664B"/>
<path d="M63.0656 162.518C62.7799 162.342 62.4721 162.32 62.201 162.408C62.1864 162.408 62.1717 162.401 62.157 162.401C61.8566 162.394 61.5635 162.548 61.3584 162.76C61.0067 163.126 60.7649 163.779 61.1019 164.233C61.5709 164.87 62.7579 164.489 63.2195 164.035C63.6884 163.581 63.6298 162.87 63.0656 162.518Z" fill="#8C664B"/>
<path d="M46.6304 153.499C46.3666 153.499 46.1248 153.96 46.4692 153.96C46.733 153.96 46.9748 153.499 46.6304 153.499Z" fill="#8C664B"/>
<path d="M48.3088 144.45C48.023 144.215 47.62 144.2 47.261 144.303C47.2463 144.303 47.2317 144.303 47.2097 144.303C46.7115 144.303 46.1985 144.662 46.1326 145.175C46.074 145.658 46.411 146.179 46.8727 146.34C47.3782 146.508 47.9864 146.281 48.3234 145.893C48.6898 145.468 48.7704 144.831 48.3088 144.45Z" fill="#8C664B"/>
<path d="M51.3787 144.728C51.049 144.728 50.7339 145.314 51.1735 145.314C51.5106 145.314 51.8183 144.728 51.3787 144.728Z" fill="#8C664B"/>
<path d="M56.5225 153.623C55.9583 153.667 55.4088 153.535 55.0937 153.162C54.8079 152.825 54.6687 152.334 54.6687 151.901C54.6467 150.831 55.1157 149.784 56.3466 149.916C57.3798 150.025 58.3397 150.831 58.4862 151.879C58.6328 152.861 57.5483 153.543 56.5225 153.623Z" fill="#8C664B"/>
<path d="M65.3665 147.314C65.2126 147.322 65.0734 147.278 64.9488 147.204C64.6044 147.204 64.3113 146.926 64.1721 146.633C64.0622 146.391 64.0915 146.076 64.2747 145.878C64.4359 145.702 64.6557 145.57 64.9048 145.563C65.4397 145.556 65.8134 146.039 65.872 146.523C65.916 146.889 65.7841 147.292 65.3665 147.314Z" fill="#8C664B"/>
<path d="M52.346 156.788C52.4706 156.415 51.9943 156.092 51.6792 156.085C51.5986 156.085 51.518 156.092 51.4374 156.1C50.7926 156.063 50.7267 156.73 51.0857 157.118C51.2469 157.287 51.4521 157.433 51.6792 157.448C51.9943 157.47 52.1555 157.257 52.2581 157.008C52.2947 156.942 52.324 156.862 52.346 156.788Z" fill="#8C664B"/>
<path d="M62.9261 157.052C62.7869 157.169 62.5817 157.177 62.4059 157.125C62.3986 157.125 62.3912 157.125 62.3839 157.125C62.1348 157.125 61.8783 156.949 61.849 156.686C61.8197 156.444 61.9882 156.18 62.2154 156.107C62.4645 156.019 62.7722 156.136 62.9408 156.334C63.1166 156.546 63.1533 156.861 62.9261 157.052Z" fill="#8C664B"/>
<path d="M68.2971 156.92C67.9674 156.92 67.6523 156.334 68.092 156.334C68.4217 156.327 68.7368 156.92 68.2971 156.92Z" fill="#8C664B"/>
<path d="M72.6275 146.948C72.0633 146.904 71.5137 147.036 71.1987 147.41C70.9129 147.747 70.7737 148.238 70.7737 148.67C70.7517 149.74 71.2207 150.788 72.4516 150.656C73.4848 150.546 74.4446 149.74 74.5912 148.692C74.7377 147.71 73.6533 147.036 72.6275 146.948Z" fill="#8C664B"/>
<path d="M76.7603 151.579C76.7603 151.564 76.753 151.557 76.753 151.542C76.753 151.527 76.753 151.513 76.753 151.498C76.7456 151.447 76.7163 151.41 76.6797 151.374C76.6211 151.315 76.5405 151.278 76.4526 151.286C76.372 151.286 76.2987 151.308 76.2254 151.337C76.1668 151.359 76.1082 151.396 76.0642 151.447C76.0129 151.483 75.969 151.527 75.9396 151.586C75.903 151.667 75.859 151.755 75.859 151.85C75.859 151.872 75.859 151.901 75.8664 151.923C75.859 151.967 75.8517 152.011 75.8664 152.055C75.8884 152.114 75.9177 152.165 75.969 152.202C76.0422 152.26 76.1668 152.26 76.2547 152.245C76.4672 152.209 76.687 152.04 76.753 151.828C76.7676 151.733 76.775 151.667 76.7603 151.579Z" fill="#8C664B"/>
<path d="M81.8673 157.734C81.7647 157.726 81.6768 157.756 81.5962 157.807C81.3691 157.807 81.1785 157.99 81.0906 158.181C81.0173 158.342 81.0393 158.54 81.1566 158.672C81.2665 158.789 81.4057 158.877 81.5669 158.877C81.9186 158.884 82.1604 158.569 82.197 158.247C82.2263 158.012 82.1384 157.748 81.8673 157.734Z" fill="#8C664B"/>
<path d="M71.1552 144.633C71.0526 144.383 70.8914 144.171 70.5763 144.193C70.3418 144.208 70.1367 144.354 69.9828 144.523C69.6238 144.911 69.6824 145.585 70.3345 145.541C70.4151 145.556 70.4957 145.563 70.5763 145.556C70.8914 145.549 71.3677 145.226 71.2431 144.852C71.2138 144.786 71.1845 144.706 71.1552 144.633Z" fill="#8C664B"/>
<path d="M75.0017 161.419C74.7159 161.244 74.4082 161.222 74.137 161.31C74.1224 161.31 74.1077 161.302 74.0931 161.302C73.7927 161.295 73.4996 161.449 73.2944 161.661C72.9427 162.028 72.7009 162.68 73.038 163.134C73.5069 163.771 74.6939 163.39 75.1555 162.936C75.6318 162.475 75.5732 161.764 75.0017 161.419Z" fill="#8C664B"/>
<path d="M82.4317 153.499C82.1679 153.499 81.9261 153.96 82.2705 153.96C82.5343 153.96 82.7761 153.499 82.4317 153.499Z" fill="#8C664B"/>
<path d="M84.1096 144.45C83.8238 144.215 83.4208 144.2 83.0618 144.303C83.0471 144.303 83.0325 144.303 83.0105 144.303C82.5122 144.303 81.9993 144.662 81.9334 145.175C81.8748 145.658 82.2118 146.179 82.6734 146.34C83.179 146.508 83.7872 146.281 84.1242 145.893C84.4906 145.468 84.5712 144.831 84.1096 144.45Z" fill="#8C664B"/>
<path d="M87.1795 144.728C86.8497 144.728 86.5347 145.314 86.9743 145.314C87.3114 145.314 87.6191 144.728 87.1795 144.728Z" fill="#8C664B"/>
<path d="M92.3233 153.623C91.7591 153.667 91.2095 153.535 90.8945 153.162C90.6087 152.825 90.4695 152.334 90.4695 151.901C90.4475 150.831 90.9164 149.784 92.1474 149.916C93.1806 150.025 94.1404 150.831 94.287 151.879C94.4335 152.861 93.3491 153.543 92.3233 153.623Z" fill="#8C664B"/>
<path d="M101.175 147.314C101.021 147.322 100.881 147.278 100.757 147.204C100.413 147.204 100.119 146.926 99.9802 146.633C99.8703 146.391 99.8996 146.076 100.083 145.878C100.244 145.702 100.464 145.57 100.713 145.563C101.248 145.556 101.622 146.039 101.68 146.523C101.724 146.889 101.585 147.292 101.175 147.314Z" fill="#8C664B"/>
<path d="M88.1468 156.788C88.2713 156.415 87.7951 156.092 87.48 156.085C87.3994 156.085 87.3188 156.092 87.2382 156.1C86.5934 156.063 86.5275 156.73 86.8865 157.118C87.0477 157.287 87.2528 157.433 87.48 157.448C87.7951 157.47 87.9563 157.257 88.0589 157.008C88.0955 156.942 88.1248 156.862 88.1468 156.788Z" fill="#8C664B"/>
<path d="M97.2468 157.228C96.961 157.462 96.558 157.477 96.199 157.375C96.1843 157.375 96.1697 157.375 96.1477 157.375C95.6494 157.375 95.1365 157.016 95.0706 156.503C95.012 156.019 95.349 155.499 95.8106 155.338C96.3162 155.169 96.9244 155.396 97.2614 155.785C97.6278 156.202 97.7084 156.84 97.2468 157.228Z" fill="#8C664B"/>
</g>
<g opacity="0.57">
<path d="M111.14 148.04C111.111 148.472 111.22 148.882 111.499 149.117C111.755 149.337 112.129 149.432 112.459 149.432C113.272 149.439 114.063 149.08 113.954 148.142C113.866 147.358 113.243 146.64 112.444 146.538C111.697 146.435 111.191 147.263 111.14 148.04Z" fill="#8C664B"/>
<path d="M117.192 146.604C117.177 146.604 117.163 146.611 117.148 146.611C117.133 146.611 117.119 146.611 117.097 146.618C117.038 146.633 116.987 146.662 116.958 146.706C116.892 146.78 116.855 146.875 116.855 146.977C116.855 147.073 116.877 147.161 116.914 147.248C116.943 147.322 116.987 147.388 117.038 147.439C117.082 147.498 117.141 147.549 117.207 147.585C117.302 147.629 117.405 147.681 117.514 147.673C117.544 147.673 117.573 147.666 117.602 147.666C117.654 147.681 117.705 147.681 117.756 147.666C117.822 147.644 117.881 147.6 117.925 147.542C117.991 147.454 117.991 147.307 117.969 147.204C117.925 146.955 117.72 146.699 117.47 146.626C117.375 146.589 117.295 146.589 117.192 146.604Z" fill="#8C664B"/>
<path d="M109.125 153.264C108.839 153.389 108.59 153.579 108.619 153.945C108.641 154.217 108.81 154.458 109.015 154.642C109.476 155.059 110.26 154.979 110.209 154.217C110.224 154.121 110.231 154.026 110.231 153.931C110.216 153.557 109.835 153.008 109.396 153.154C109.3 153.191 109.213 153.227 109.125 153.264Z" fill="#8C664B"/>
<path d="M134.287 163.896C134.008 163.72 133.701 163.698 133.437 163.786C133.422 163.786 133.408 163.779 133.393 163.779C133.092 163.771 132.807 163.925 132.609 164.138C132.264 164.497 132.023 165.142 132.352 165.589C132.814 166.211 133.986 165.838 134.433 165.398C134.902 164.936 134.844 164.233 134.287 163.896Z" fill="#8C664B"/>
<path d="M133.854 150.385C133.598 150.385 133.356 150.839 133.7 150.839C133.95 150.839 134.191 150.385 133.854 150.385Z" fill="#8C664B"/>
<path d="M134.272 145.541C133.994 145.307 133.598 145.292 133.246 145.402C133.232 145.402 133.217 145.402 133.195 145.402C132.704 145.402 132.199 145.754 132.14 146.259C132.081 146.736 132.418 147.249 132.865 147.402C133.364 147.571 133.964 147.344 134.294 146.963C134.653 146.545 134.726 145.915 134.272 145.541Z" fill="#8C664B"/>
<path d="M138.529 141.753C138.2 141.753 137.899 142.332 138.332 142.332C138.654 142.332 138.962 141.753 138.529 141.753Z" fill="#8C664B"/>
<path d="M143.592 150.509C143.035 150.553 142.501 150.421 142.185 150.055C141.9 149.725 141.768 149.242 141.768 148.809C141.746 147.754 142.207 146.721 143.424 146.853C144.442 146.963 145.38 147.754 145.527 148.787C145.666 149.762 144.603 150.429 143.592 150.509Z" fill="#8C664B"/>
<path d="M152.304 144.296C152.151 144.303 152.019 144.259 151.894 144.193C151.55 144.193 151.264 143.922 151.132 143.629C151.022 143.387 151.051 143.079 151.235 142.882C151.396 142.706 151.608 142.574 151.85 142.574C152.378 142.566 152.744 143.043 152.803 143.519C152.847 143.871 152.707 144.274 152.304 144.296Z" fill="#8C664B"/>
<path d="M139.482 153.623C139.606 153.257 139.137 152.942 138.822 152.927C138.742 152.927 138.661 152.935 138.588 152.942C137.95 152.905 137.884 153.565 138.243 153.946C138.397 154.114 138.602 154.253 138.83 154.268C139.137 154.29 139.299 154.078 139.401 153.836C139.43 153.777 139.452 153.697 139.482 153.623Z" fill="#8C664B"/>
<path d="M148.978 143.504C148.7 143.68 148.392 143.702 148.128 143.614C148.114 143.614 148.099 143.621 148.084 143.621C147.784 143.629 147.498 143.475 147.3 143.262C146.956 142.903 146.714 142.259 147.044 141.812C147.505 141.189 148.678 141.562 149.125 142.002C149.594 142.464 149.535 143.16 148.978 143.504Z" fill="#8C664B"/>
<path d="M149.894 153.887C149.755 154.004 149.557 154.012 149.381 153.96C149.374 153.96 149.366 153.96 149.359 153.96C149.11 153.96 148.861 153.784 148.831 153.528C148.802 153.286 148.971 153.03 149.198 152.956C149.447 152.869 149.747 152.986 149.916 153.176C150.084 153.381 150.121 153.697 149.894 153.887Z" fill="#8C664B"/>
<path d="M155.184 153.755C154.854 153.755 154.554 153.176 154.986 153.176C155.309 153.176 155.616 153.755 155.184 153.755Z" fill="#8C664B"/>
<path d="M108.143 161.639C107.586 161.596 107.051 161.727 106.736 162.094C106.451 162.424 106.319 162.907 106.319 163.339C106.297 164.395 106.758 165.428 107.975 165.296C108.993 165.186 109.931 164.395 110.077 163.361C110.224 162.387 109.154 161.72 108.143 161.639Z" fill="#8C664B"/>
<path d="M111.543 170.014C111.47 170.007 111.404 170.029 111.345 170.066C111.184 170.066 111.037 170.198 110.979 170.337C110.927 170.454 110.942 170.601 111.03 170.696C111.111 170.784 111.213 170.842 111.33 170.842C111.587 170.85 111.763 170.615 111.792 170.388C111.799 170.219 111.733 170.022 111.543 170.014Z" fill="#8C664B"/>
<path d="M157.998 141.651C157.895 141.409 157.741 141.196 157.426 141.218C157.199 141.233 156.994 141.38 156.84 141.541C156.481 141.922 156.547 142.589 157.184 142.545C157.265 142.559 157.338 142.567 157.419 142.559C157.734 142.552 158.196 142.237 158.078 141.863C158.056 141.805 158.027 141.731 157.998 141.651Z" fill="#8C664B"/>
<path d="M111.954 166.922C111.763 166.922 111.587 167.259 111.836 167.259C112.027 167.259 112.203 166.922 111.954 166.922Z" fill="#8C664B"/>
<path d="M125.853 153.594C125.648 153.843 125.64 154.188 125.736 154.503C125.736 154.517 125.736 154.532 125.736 154.547C125.743 154.979 126.051 155.419 126.505 155.47C126.93 155.514 127.377 155.213 127.509 154.818C127.655 154.378 127.45 153.851 127.106 153.565C126.74 153.25 126.183 153.191 125.853 153.594Z" fill="#8C664B"/>
<path d="M126.073 150.92C126.073 151.205 126.586 151.469 126.586 151.088C126.578 150.802 126.066 150.539 126.073 150.92Z" fill="#8C664B"/>
<path d="M128.022 168.029C127.612 168.065 127.209 167.963 126.982 167.692C126.769 167.45 126.674 167.091 126.674 166.768C126.659 165.984 126.996 165.222 127.897 165.318C128.652 165.398 129.348 165.984 129.458 166.746C129.553 167.472 128.769 167.963 128.022 168.029Z" fill="#8C664B"/>
<path d="M134.749 157.8C134.639 157.807 134.536 157.778 134.441 157.719C134.192 157.719 133.972 157.522 133.877 157.302C133.796 157.126 133.818 156.899 133.95 156.752C134.067 156.62 134.228 156.525 134.404 156.525C134.793 156.518 135.064 156.869 135.108 157.228C135.152 157.485 135.049 157.785 134.749 157.8Z" fill="#8C664B"/>
<path d="M116.115 169.326C116.203 169.055 115.859 168.82 115.624 168.813C115.566 168.813 115.507 168.82 115.448 168.827C114.979 168.798 114.928 169.289 115.192 169.575C115.309 169.699 115.456 169.802 115.624 169.817C115.851 169.831 115.969 169.677 116.049 169.502C116.079 169.436 116.101 169.377 116.115 169.326Z" fill="#8C664B"/>
<path d="M124.717 146.245C124.871 146.494 124.893 146.758 124.82 146.992C124.82 147.007 124.827 147.014 124.827 147.029C124.834 147.292 124.703 147.542 124.519 147.725C124.204 148.033 123.64 148.245 123.244 147.959C122.688 147.556 123.01 146.523 123.398 146.12C123.794 145.717 124.409 145.761 124.717 146.245Z" fill="#8C664B"/>
<path d="M122.746 169.641C122.541 169.81 122.248 169.824 121.984 169.744C121.97 169.744 121.962 169.744 121.948 169.744C121.581 169.744 121.215 169.487 121.164 169.106C121.12 168.754 121.369 168.373 121.699 168.256C122.065 168.132 122.512 168.3 122.754 168.586C123.025 168.901 123.083 169.363 122.746 169.641Z" fill="#8C664B"/>
<path d="M106.582 170.615C106.245 170.41 105.886 170.381 105.571 170.484C105.556 170.484 105.542 170.476 105.52 170.476C105.168 170.469 104.824 170.652 104.582 170.901C104.172 171.326 103.886 172.096 104.281 172.623C104.831 173.363 106.223 172.923 106.758 172.396C107.315 171.854 107.242 171.026 106.582 170.615Z" fill="#8C664B"/>
<path d="M65.4689 169.853C65.381 169.846 65.3004 169.875 65.2344 169.912C65.0366 169.912 64.8754 170.066 64.7948 170.234C64.7289 170.373 64.7508 170.549 64.8534 170.659C64.9487 170.762 65.0659 170.835 65.2051 170.835C65.5056 170.842 65.7181 170.564 65.7547 170.293C65.7767 170.095 65.7034 169.868 65.4689 169.853Z" fill="#8C664B"/>
<path d="M65.9599 166.182C65.7328 166.182 65.5203 166.585 65.8207 166.585C66.0478 166.585 66.2603 166.182 65.9599 166.182Z" fill="#8C664B"/>
<path d="M88.836 174.711C88.3451 174.748 87.8688 174.63 87.5977 174.315C87.3486 174.022 87.2313 173.597 87.2313 173.224C87.2093 172.293 87.6123 171.384 88.6894 171.502C89.5834 171.597 90.4114 172.293 90.5432 173.202C90.6605 174.052 89.7226 174.645 88.836 174.711Z" fill="#8C664B"/>
<path d="M70.9134 169.032C71.0233 168.71 70.6056 168.432 70.3345 168.424C70.2613 168.424 70.1953 168.432 70.1294 168.439C69.5725 168.402 69.5139 168.989 69.829 169.326C69.9682 169.472 70.144 169.597 70.3419 169.611C70.613 169.633 70.7522 169.443 70.8401 169.23C70.8621 169.172 70.8914 169.098 70.9134 169.032Z" fill="#8C664B"/>
<path d="M78.7903 169.414C78.5485 169.619 78.1968 169.633 77.8817 169.538C77.8671 169.538 77.8524 169.538 77.8378 169.538C77.4054 169.538 76.9658 169.23 76.9072 168.783C76.8559 168.366 77.149 167.912 77.5447 167.772C77.9843 167.626 78.5119 167.824 78.805 168.161C79.1274 168.534 79.1933 169.084 78.7903 169.414Z" fill="#8C664B"/>
</g>
<path d="M21.5566 92.968C21.432 92.1473 20.6626 91.5978 19.9665 91.2607C18.3765 90.4987 16.171 90.5207 14.7276 91.6051C13.9655 92.184 13.5039 93.1512 13.8483 94.089C14.1487 94.917 14.94 95.32 15.7827 95.1662C15.8413 95.1588 15.8926 95.1295 15.9512 95.0929C17.2115 95.6644 18.8675 95.6131 20.0252 95.1075C20.8531 94.7558 21.7104 93.9572 21.5566 92.968Z" fill="#5A3B25"/>
<path d="M33.7932 91.3712C32.3864 90.4992 30.5326 90.3307 28.9206 90.36C27.1694 90.3893 24.854 90.6678 23.7183 92.1772C22.7291 93.4814 23.7842 94.434 24.9712 94.9762C25.4182 95.6283 26.3781 96.046 27.0228 96.2731C29.3309 97.0864 33.4708 97.6506 34.907 95.0714C35.647 93.7232 35.0462 92.1405 33.7932 91.3712Z" fill="#5A3B25"/>
<path d="M54.9835 92.5801C53.5401 91.6569 51.4665 92.0965 50.045 92.8659C49.3709 93.2323 48.6088 93.8624 48.5502 94.6977C48.5429 94.8369 48.5575 94.9615 48.5868 95.0787C48.5575 95.4231 48.7114 95.7455 49.1437 95.914C49.3635 95.9946 49.6053 96.0606 49.8545 96.1045C49.8764 96.1119 49.9058 96.1192 49.9277 96.1265C49.957 96.1338 49.9863 96.1338 50.0157 96.1338C51.21 96.317 52.6095 96.1192 53.672 95.8115C54.4193 95.5916 55.2034 95.2326 55.6064 94.5218C56.0387 93.7378 55.687 93.0344 54.9835 92.5801Z" fill="#5A3B25"/>
<path d="M72.5909 89.781C70.0923 88.3009 67.0515 88.4987 64.6408 90.0521C63.6956 90.6603 62.6038 91.6568 62.4426 92.8438C62.2814 94.0528 63.2413 94.0968 64.1572 94.2286C64.1646 94.2286 64.1719 94.2286 64.1719 94.2286C65.4395 95.0566 67.2493 95.1519 68.6928 95.0713C70.3121 94.9833 72.2832 94.6903 73.4775 93.4666C74.8257 92.1111 74.0197 90.631 72.5909 89.781Z" fill="#5A3B25"/>
<path d="M85.6118 92.4627C84.608 90.7847 81.9922 90.5063 80.241 90.5649C78.8634 90.6089 75.1412 91.7006 76.4015 93.7669C76.4015 94.0087 76.4967 94.2359 76.7166 94.441C78.0574 95.65 80.7026 95.8259 82.3952 95.7087C83.9559 95.5988 86.8428 94.5216 85.6118 92.4627Z" fill="#5A3B25"/>
<path d="M105.132 92.3308C103.161 91.4882 100.508 91.283 98.4346 91.8399C97.4527 92.1037 96.1265 92.7485 95.7821 93.7963C95.7088 94.0088 95.6942 94.1993 95.7235 94.3605C95.6356 94.4557 95.5476 94.5583 95.467 94.6609C95.0347 95.2104 95.2912 95.8845 95.87 96.141C98.4859 97.3207 101.637 97.2328 104.34 96.3974C105.3 96.1044 106.473 95.5988 106.795 94.551C107.154 93.3786 106.048 92.7192 105.132 92.3308Z" fill="#5A3B25"/>
<path d="M122.651 92.1916C120.864 90.9532 118.328 91.1584 116.306 92.045C115.141 92.1256 114.056 92.6239 113.148 93.8255C112.965 94.0673 112.899 94.507 113.097 94.7634C115.104 97.3792 120.131 95.4888 122.292 93.9941C122.82 93.635 123.355 92.6825 122.651 92.1916Z" fill="#5A3B25"/>
<path d="M135.965 92.0963C134.345 90.4696 131.993 90.4403 129.846 90.4477C128.461 90.4477 124.688 91.1584 126.336 93.3786C127.282 94.6535 129.458 95.0638 130.916 95.203C132.741 95.3789 134.953 94.9319 135.899 93.1807C136.06 92.895 136.25 92.382 135.965 92.0963Z" fill="#5A3B25"/>
<path d="M141.086 90.5647C139.489 90.0958 137.056 90.5647 136.492 92.3599C136.206 93.2685 136.822 94.3603 137.599 94.8365C138.595 95.452 139.936 94.9171 140.896 94.3896C142.31 93.5982 143.131 91.1656 141.086 90.5647Z" fill="#5A3B25"/>
<path d="M155.829 95.5841C155.975 95.291 156.012 94.9613 155.814 94.6902C155.807 94.6756 155.792 94.6682 155.785 94.6536C155.338 93.2321 153.118 93.4959 151.967 94.3092C151.601 94.5657 151.308 95.0053 151.403 95.4669C151.403 95.4742 151.41 95.4816 151.41 95.4889C151.388 95.6721 151.418 95.8699 151.513 96.0751C151.681 96.4341 151.96 96.588 152.282 96.6246C153.176 97.0569 154.517 96.7712 155.294 96.2143C155.448 96.1044 155.609 95.9432 155.733 95.7527C155.77 95.7014 155.807 95.6428 155.829 95.5841Z" fill="#5A3B25"/>
<path d="M174.052 91.9207C173.451 90.8289 171.949 90.5285 170.784 90.4626C169.985 90.1768 169.003 90.1548 168.307 90.2061C166.856 90.316 164.409 91.122 164.709 93.0198C164.958 94.6171 167.186 94.6977 168.432 94.6758C170.117 94.6391 172.007 94.434 173.495 93.5767C174.037 93.2543 174.367 92.4922 174.052 91.9207Z" fill="#5A3B25"/>
<path d="M177.774 92.0964C177.649 91.664 177.195 91.4589 176.726 91.5688C176.367 91.6567 176.059 91.8252 175.81 92.0597C175.678 92.1623 175.546 92.2722 175.436 92.3968C175.392 92.4407 175.356 92.492 175.319 92.5506C175.304 92.5653 175.29 92.58 175.282 92.6019H175.29C175.268 92.6386 175.246 92.6752 175.224 92.7118C175.048 93.0855 175.114 93.5838 175.576 93.701C175.598 93.7084 175.612 93.7083 175.634 93.7083C175.722 93.7596 175.817 93.7963 175.927 93.8183C176.426 93.8915 176.997 93.6204 177.305 93.2174C177.371 93.1661 177.437 93.1002 177.495 93.0416C177.693 92.9829 177.884 92.8071 177.957 92.6386C178.052 92.4481 178.038 92.1476 177.774 92.0964Z" fill="#5A3B25"/>
<path d="M24.5681 94.514C24.1285 93.2611 22.6704 93.1878 21.4028 93.5908C20.3403 93.5835 19.2412 93.9205 18.7137 94.8951C17.7465 96.6756 20.355 97.0419 21.5493 97.02C22.8682 96.9907 25.1983 96.3092 24.5681 94.514Z" fill="#82583D"/>
<path d="M39.3692 94.8293C39.1054 94.6754 38.8197 94.5948 38.5339 94.6095C38.4313 94.5802 38.3214 94.5655 38.2188 94.5582C37.5008 94.5435 36.9659 95.0418 36.6801 95.6573C36.5629 95.8991 36.6581 96.1995 36.8706 96.3607C37.5154 96.8443 38.4533 96.6831 39.0835 96.2728C39.4645 96.0236 39.9701 95.1737 39.3692 94.8293Z" fill="#82583D"/>
<path d="M56.8447 93.9941C56.581 93.8329 56.3172 93.7596 56.0241 93.7816C55.5039 93.679 54.925 93.8988 54.5147 94.2139C54.1849 94.463 53.9065 94.844 53.9944 95.2763C54.1117 95.8552 54.6539 96.1629 55.2181 96.1629C56.0607 96.1556 56.7422 95.6061 57.0792 94.866C57.2038 94.5876 57.1232 94.1626 56.8447 93.9941Z" fill="#82583D"/>
<path d="M75.449 92.2356C75.3097 92.133 75.1412 92.0524 74.958 91.9938C74.9141 91.9352 74.8555 91.8766 74.7895 91.8179C74.3352 91.4296 73.6245 91.4296 73.0676 91.5175C72.0491 91.6787 70.4371 92.6459 71.2504 93.8623C71.8146 94.7122 73.2947 94.8221 74.1887 94.6096C74.8042 94.4631 75.383 94.1114 75.6761 93.5398C75.9033 93.0782 75.8813 92.5507 75.449 92.2356Z" fill="#82583D"/>
<path d="M92.4407 93.8111C92.2941 93.6206 92.067 93.4741 91.7885 93.3862C91.7592 93.3495 91.7299 93.3202 91.7006 93.2909C91.3343 92.9246 90.7407 92.8293 90.2352 92.844C89.224 92.8659 87.7219 93.3056 87.4068 94.4046C87.0112 95.7529 89.0262 95.9141 89.8835 95.9507C90.5722 95.98 91.3489 95.9287 91.9424 95.5331C92.4846 95.1594 92.8876 94.412 92.4407 93.8111Z" fill="#82583D"/>
<path d="M111.345 94.2065C110.532 93.613 109.205 93.7522 108.451 94.3897C108.106 94.6828 107.659 95.2323 108.004 95.7012C108.121 95.8624 108.282 95.9724 108.458 96.0236C108.78 96.1848 109.205 96.1995 109.528 96.1702C110.18 96.1116 110.832 95.8698 111.286 95.3862C111.579 95.0711 111.77 94.5142 111.345 94.2065Z" fill="#82583D"/>
<path d="M126.307 92.6677C126.109 92.3965 125.728 92.2427 125.289 92.25C124.424 92.25 123.369 92.6603 123.054 93.5396C122.915 93.9279 122.995 94.3309 123.266 94.646C123.589 95.0124 123.97 95.1076 124.431 95.1663C125.428 95.2908 126.827 95.0783 127.172 93.9646C127.421 93.1952 126.945 92.7995 126.307 92.6677Z" fill="#82583D"/>
<path d="M144.772 93.5909C144.603 93.4297 144.398 93.3051 144.171 93.2099C143.885 92.9754 143.512 92.8069 143.167 92.7263C142.185 92.5064 140.808 92.7263 140.464 93.8473C140.178 94.7706 141.218 95.2249 141.944 95.3641C142.896 95.5473 144.017 95.4886 144.713 94.7266C145.028 94.3895 145.131 93.9279 144.772 93.5909Z" fill="#82583D"/>
<path d="M160.548 93.7304C159.815 93.0783 158.327 93.0417 157.477 93.4374C157.236 93.5473 157.008 93.7378 156.877 93.9649C156.569 94.214 156.371 94.5657 156.474 95.0054C156.671 95.8407 157.734 95.8187 158.408 95.7235C159.243 95.6062 160.123 95.2765 160.635 94.5804C160.841 94.302 160.797 93.9503 160.548 93.7304Z" fill="#82583D"/>
<path d="M174.872 93.364C174.586 92.961 174.154 92.8731 173.736 92.983C173.319 92.8584 172.85 93.1295 172.579 93.43C172.432 93.5912 172.234 93.8989 172.337 94.1334C172.483 94.4704 172.689 94.7415 173.055 94.8441C173.429 94.954 173.89 94.8734 174.227 94.6902C174.506 94.529 174.733 94.3678 174.88 94.0748C174.989 93.8476 175.026 93.5765 174.872 93.364Z" fill="#82583D"/>
<path d="M90.8215 88.3226C87.5389 81.9259 86.6376 73.6168 90.0961 67.1102C91.5469 64.3772 93.7597 61.9079 96.3609 60.2226C99.9586 57.8999 104.721 58.3981 106.341 62.7945C107.396 65.6594 106.714 69.052 105.557 71.7777C104.677 73.844 103.52 75.7784 102.201 77.5882C100.896 79.3907 99.4384 81.076 97.9729 82.7466C97.2402 83.5746 96.5001 84.3879 95.7821 85.2305C95.2252 85.8827 94.7269 86.5788 94.3239 87.3261C93.5985 88.667 93.2029 90.1545 93.2102 91.6712C93.2102 91.891 93.2175 92.1182 93.2395 92.338C92.3089 91.0777 91.5323 89.7002 90.8215 88.3226Z" fill="#67AD14"/>
<path d="M93.1878 89.1504C93.4443 88.2711 93.796 87.4138 94.1917 86.5858C94.5507 85.8385 94.961 85.1131 95.4007 84.4096C95.8476 83.6916 96.3312 83.0028 96.8221 82.3067C97.357 81.5447 97.8993 80.7753 98.4195 79.9986C98.9544 79.2 99.4746 78.3866 99.9436 77.544C100.405 76.7234 100.815 75.8734 101.145 74.9941C101.46 74.1515 101.702 73.2722 101.805 72.371C101.907 71.4844 101.893 70.5685 101.695 69.7038C101.519 68.9345 101.123 68.1505 100.325 67.894C99.9509 67.7768 99.5552 67.7914 99.1815 67.8647C98.654 67.9746 98.1337 68.1871 97.6794 68.4655C96.6756 69.0884 95.9355 70.0629 95.3494 71.0667C95.0489 71.5796 94.7852 72.1145 94.5287 72.6494C94.2869 73.1623 94.0524 73.6752 93.84 74.1955C93.4296 75.2139 93.0779 76.2544 92.7995 77.3169C92.521 78.3647 92.3159 79.4271 92.1693 80.4969C92.0228 81.552 91.9422 82.6218 91.9129 83.6843C91.8836 84.7614 91.9129 85.8385 91.9861 86.9082C92.0594 87.9853 92.184 89.0625 92.3452 90.1322C92.4038 90.5206 92.4697 90.9016 92.5357 91.2899C92.4331 91.1361 92.3305 90.9749 92.2353 90.8137C92.2353 90.8137 92.2353 90.8137 92.2353 90.8063C91.7444 89.0771 91.422 87.3039 91.2388 85.5161C91.0629 83.7722 91.0336 82.0136 91.1728 80.2697C91.334 78.372 91.6784 76.4889 92.184 74.6497C92.6896 72.8179 93.3564 71.0447 94.1477 69.3228C94.5654 68.4142 94.9977 67.5276 95.5106 66.6704C96.0308 65.7984 96.6023 64.9631 97.2032 64.1425C97.7674 63.3658 98.3535 62.6037 98.969 61.8637C99.1815 61.6072 99.4087 61.3434 99.5552 61.043C99.6505 60.8452 99.7164 60.5961 99.5699 60.3982C99.372 60.1271 98.9544 60.0612 98.6466 60.0245C98.3242 59.9879 98.0018 60.0099 97.6794 60.0831C96.9467 60.2443 96.2653 60.618 95.6351 61.0284C95.0123 61.4314 94.4335 61.9003 93.8619 62.3766C93.327 62.8235 92.8141 63.2852 92.3232 63.7834C93.4956 62.3912 94.8584 61.1603 96.3605 60.1931C99.9582 57.8703 104.721 58.3686 106.34 62.7649C107.395 65.6299 106.714 69.0224 105.556 71.7481C104.677 73.8144 103.519 75.7488 102.2 77.5587C100.896 79.3612 99.438 81.0464 97.9725 82.717C97.2398 83.545 96.4997 84.3584 95.7817 85.201C95.2248 85.8531 94.7265 86.5492 94.3235 87.2966C93.5981 88.6375 93.2025 90.1249 93.2098 91.6417C93.2098 91.8615 93.2171 92.0886 93.2391 92.3084C93.0852 92.0959 92.9314 91.8835 92.7848 91.6636C92.7848 90.8283 92.9534 89.971 93.1878 89.1504Z" fill="#92C10B"/>
<path d="M62.3405 85.2962C63.359 84.7394 64.4288 84.2851 65.5278 83.926C66.5244 83.6769 67.5502 83.5011 68.576 83.3985C70.4591 83.3692 72.3495 83.523 74.174 83.9773C75.1412 84.2191 76.0718 84.5635 76.995 84.9445C77.9109 85.3255 78.8048 85.7505 79.6841 86.2195C81.4207 87.1574 83.062 88.2858 84.5128 89.6266C85.4213 90.4693 86.2493 91.3998 86.9747 92.4037C85.7144 91.6783 84.1391 91.8541 82.7835 92.2425C81.1349 92.7114 79.5962 93.5101 78.0281 94.1915C76.3209 94.9316 74.5843 95.613 72.7818 96.0746C70.9793 96.5436 69.0889 96.8 67.2204 96.6828C65.7696 96.5949 64.3188 96.3091 62.9486 95.8328C61.5418 95.3419 60.1423 94.6238 59.1458 93.4881C58.6695 92.9459 58.3105 92.3158 58.12 91.6197C57.8782 90.7404 57.9441 89.8172 58.3105 88.9818C59.0652 87.2746 60.7651 86.1609 62.3405 85.2962Z" fill="#67AD14"/>
<path d="M62.3405 85.2962C63.359 84.7394 64.4288 84.2851 65.5278 83.926C66.5244 83.6769 67.5502 83.5011 68.576 83.3985C70.4591 83.3692 72.3495 83.523 74.174 83.9773C75.1412 84.2191 76.0718 84.5635 76.995 84.9445C77.9109 85.3255 78.8048 85.7505 79.6841 86.2195C79.6914 86.2195 79.6988 86.2268 79.6988 86.2268C79.0833 85.9777 78.4458 85.7652 77.801 85.5967C76.614 85.2889 75.3903 85.1424 74.1667 85.1424C73.009 85.1424 71.8439 85.2523 70.6936 85.3915C69.763 85.5087 68.6932 85.5893 67.9532 86.2414C67.9312 86.2634 67.9385 86.3074 67.9678 86.322C68.3415 86.4906 68.7738 86.5052 69.1841 86.5126C69.6165 86.5199 70.0488 86.4906 70.4811 86.5199C71.4849 86.5932 72.4814 86.7104 73.4706 86.9009C74.3132 87.0621 75.1412 87.2893 75.9692 87.5091C76.8045 87.7289 77.6325 87.9707 78.4385 88.2784C79.1272 88.5422 79.8087 88.8573 80.4095 89.2896C80.0651 89.2017 79.7281 89.0991 79.391 88.9892C78.5411 88.7107 77.6911 88.3883 76.8045 88.2491C75.9326 88.1099 75.0533 88.0366 74.174 88.022C72.8111 88 71.4483 88.1026 70.1074 88.3444C69.0156 88.5422 67.9239 88.8206 66.9054 89.2676C66.0188 89.656 65.0296 90.2348 64.6412 91.1727C64.4581 91.6197 64.4434 92.1033 64.568 92.5722C64.7292 93.1804 65.0955 93.6713 65.6011 94.0377C66.1653 94.448 66.8468 94.6898 67.5282 94.851C68.1876 95.0048 68.8617 95.0928 69.5358 95.1294C71.1625 95.2173 72.7818 94.9902 74.3499 94.5799C75.1705 94.3674 75.9765 94.1109 76.7752 93.8252C77.5152 93.5614 78.2333 93.2536 78.9587 92.9606C80.3875 92.3744 81.8896 91.8102 83.4503 91.7882C83.9412 91.7809 84.4395 91.8175 84.9231 91.9128C84.1977 91.9128 83.465 92.052 82.7909 92.2498C81.1422 92.7188 79.6035 93.5174 78.0355 94.1989C76.3282 94.9389 74.5917 95.6203 72.7892 96.082C70.9866 96.5509 69.0962 96.8074 67.2278 96.6901C65.777 96.6022 64.3262 96.3164 62.956 95.8402C61.5491 95.3492 60.1496 94.6312 59.1531 93.4954C58.6769 92.9532 58.3178 92.3231 58.1273 91.627C57.8855 90.7477 57.9515 89.8245 58.3178 88.9892C59.0652 87.2746 60.7651 86.1609 62.3405 85.2962Z" fill="#92C10B"/>
<path d="M93.1294 72.4954C92.6019 74.0928 92.2648 75.7414 92.045 77.4047C91.8105 79.1925 91.7226 80.9951 91.6786 82.7976C91.6054 85.494 91.6493 88.2857 92.2575 90.9601C92.9096 93.8251 93.7376 96.6754 94.6828 99.4597C94.1259 98.6977 93.5105 97.9796 92.895 97.3055C92.5579 96.9318 92.2209 96.5655 91.8765 96.2064C90.6308 94.7703 89.268 93.4441 87.7512 92.2864C86.9086 91.6416 86.0293 91.0407 85.1061 90.5132C84.8203 90.3227 84.5272 90.1322 84.2342 89.949C83.3256 89.3848 82.3437 88.9012 81.3106 88.4982C80.3654 88.2124 79.4128 87.9706 78.4529 87.7508C77.4564 87.531 76.4673 87.3038 75.4561 87.1719C74.3936 87.0254 73.3092 86.9594 72.2468 87.084C71.7045 87.15 71.155 87.2672 70.6421 87.4724C71.133 87.3844 71.6752 87.5017 72.1515 87.5456C72.8403 87.6042 73.5144 87.7141 74.2031 87.8021C75.522 87.9706 76.7823 88.2271 78.0353 88.6887C80.4753 89.5826 82.8127 90.689 84.9595 92.1618C87.1577 93.6712 89.0555 95.5177 90.9093 97.4154C91.8765 98.4046 92.8144 99.4378 93.6424 100.552C94.4923 101.702 95.2104 102.94 95.8772 104.2C96.6539 105.659 97.3866 107.153 98.0534 108.67C98.7275 110.202 99.3283 111.762 100.046 113.272C100.098 113.374 100.164 113.433 100.237 113.462C100.274 113.579 100.303 113.704 100.339 113.821C100.391 114.012 100.655 113.814 100.64 113.667C100.625 113.579 100.618 113.484 100.603 113.396C100.625 113.382 100.655 113.367 100.677 113.345C100.772 113.389 100.918 113.264 100.896 113.147C100.889 113.118 100.889 113.096 100.882 113.066C100.926 112.949 100.94 112.832 100.889 112.722C100.852 112.641 100.816 112.561 100.779 112.48C100.772 112.451 100.764 112.422 100.757 112.385C100.911 112.326 101.036 112.077 100.999 111.938C100.838 111.337 100.501 110.824 100.23 110.267C100.12 110.04 100.01 109.813 99.8998 109.579C99.8778 109.52 99.8632 109.469 99.8412 109.417C99.4236 108.216 98.9033 107.051 98.3465 105.908C98.3025 105.812 98.2512 105.717 98.1999 105.615C98.1047 105.373 98.0094 105.138 97.9141 104.897C97.6797 104.31 97.4452 103.724 97.2107 103.138C97.2107 103.131 97.2107 103.123 97.2034 103.109C96.859 101.907 96.3681 100.779 95.9285 99.6063C95.4888 98.4413 95.1371 97.2396 94.7927 96.0526C94.1259 93.7518 93.5691 91.4071 93.1807 89.0404C92.7924 86.681 92.5506 84.2777 92.5433 81.8816C92.5359 79.5296 92.7631 77.1995 93.1221 74.8768C93.3126 73.6165 93.6204 72.3709 94.0307 71.1619C94.2212 70.5904 94.463 70.0408 94.7048 69.4986C94.8953 69.0736 94.9979 68.634 95.1151 68.1943C94.2798 69.5426 93.6204 70.9933 93.1294 72.4954Z" fill="#405621"/>
<path d="M94.4267 64.8971C94.1116 64.6626 93.694 64.8165 93.3935 64.985C92.4703 65.4906 91.7669 66.4504 91.2393 67.3297C91.0195 67.6887 90.2795 68.7732 90.5579 69.2934C90.5725 69.4253 90.6165 69.5499 90.6898 69.6671C91.0488 70.2313 91.7596 69.9235 92.1699 69.6085C92.8074 69.1249 93.3276 68.4654 93.7746 67.806C94.1629 67.2271 94.5952 66.5457 94.7124 65.8496C94.7637 65.5199 94.7124 65.1095 94.4267 64.8971Z" fill="#92C10B"/>
<path d="M89.8834 72.283C89.8761 72.2684 89.8614 72.2537 89.8394 72.2464C89.7588 72.2098 89.6782 72.2684 89.6343 72.3343C89.3998 72.4516 89.2825 72.7227 89.2899 72.9865C89.2899 73.0304 89.3045 73.0744 89.3192 73.1183C89.3119 73.2795 89.4511 73.3821 89.6196 73.3382C89.7515 73.3015 89.8834 73.1623 89.9567 73.0524C90.0373 72.9352 90.0739 72.8033 90.0959 72.6641C90.1325 72.4662 90.0446 72.3124 89.8834 72.283Z" fill="#92C10B"/>
<path d="M75.8666 90.8649C76.2989 90.6304 76.7751 90.4765 77.2514 90.3519C77.801 90.2054 78.3871 90.0808 78.9513 90.1468C79.5522 90.22 80.0065 90.6743 79.9918 91.2972C79.9771 91.8467 79.5741 92.1691 79.1199 92.4036C78.3285 92.8139 76.8997 93.2462 75.9838 92.8139C75.786 92.7699 75.5955 92.6893 75.4489 92.5575C75.1851 92.3303 75.0679 91.942 75.1558 91.6122C75.2437 91.2605 75.5588 91.0334 75.8666 90.8649Z" fill="#92C10B"/>
<path d="M72.9282 92.543C72.9722 92.4991 73.0381 92.4625 73.1041 92.4551C73.1481 92.4478 73.1847 92.4624 73.2213 92.4698C73.2213 92.4698 73.2213 92.4698 73.214 92.4698C73.2213 92.4698 73.236 92.4771 73.2433 92.4771C73.2726 92.4918 73.3019 92.4991 73.3312 92.5137C73.3605 92.5357 73.3899 92.5504 73.4118 92.5724C73.4998 92.6017 73.573 92.6749 73.6097 92.7555C73.6317 92.8068 73.6463 92.8581 73.6536 92.9094C73.661 92.9607 73.6463 93.0413 73.6097 93.0853C73.6023 93.1439 73.5804 93.2025 73.5364 93.2465C73.4924 93.2904 73.4411 93.3197 73.3825 93.3417C73.3679 93.349 73.3459 93.3564 73.3312 93.3564C73.2799 93.3637 73.236 93.3564 73.192 93.3344C73.1774 93.3271 73.1627 93.3197 73.1481 93.3124C73.0968 93.2978 73.0528 93.2758 73.0162 93.2391C72.9649 93.1878 72.9209 93.1292 72.8843 93.0706C72.833 92.9754 72.8256 92.8728 72.833 92.7702C72.8403 92.6823 72.8769 92.5943 72.9282 92.543Z" fill="#92C10B"/>
<path d="M117.434 119.559C117.075 119.727 116.672 119.852 116.225 119.918C116.459 120.533 116.723 121.207 117.031 121.926C118.826 126.153 119.273 130.169 117.097 132.733C119.705 130.821 120.826 127.905 118.899 123.208C118.372 121.911 117.873 120.68 117.434 119.559Z" fill="#EBD9B3"/>
<path d="M119.251 123.223C118.716 121.918 118.188 120.614 117.712 119.412C117.536 119.515 117.338 119.603 117.141 119.676C117.551 120.724 118.027 121.889 118.555 123.193C119.793 126.212 119.83 128.645 118.657 130.564C119.405 127.809 118.467 124.505 117.382 121.948C117.06 121.193 116.789 120.504 116.554 119.867C116.349 119.911 116.137 119.947 115.91 119.969C116.137 120.57 116.401 121.222 116.694 121.926C118.079 125.186 119.222 129.678 116.782 132.557C116.723 132.631 116.745 132.733 116.826 132.821C116.855 132.851 116.892 132.88 116.928 132.909C117.089 133.012 117.302 133.034 117.412 132.953C120.423 130.733 121.024 127.553 119.251 123.223Z" fill="#BD7A43"/>
<path d="M116.196 120.863C116.196 120.863 117.302 121.772 119.632 122.944C121.955 124.116 123.618 125.699 123.618 127.597C124.051 125.816 123.472 124.138 120.915 122.812C118.357 121.478 116.32 120.379 116.02 119.903C116.218 120.585 116.196 120.863 116.196 120.863Z" fill="#EBD9B3"/>
<path d="M123.398 127.641C123.406 125.501 121.266 123.97 119.471 123.069C117.163 121.904 116.027 120.98 116.013 120.973C115.991 120.951 115.976 120.929 115.983 120.9C115.983 120.9 115.998 120.621 115.807 119.969C115.785 119.903 115.851 119.823 115.961 119.786C116.071 119.749 116.181 119.764 116.218 119.823C116.518 120.299 118.782 121.501 121.068 122.695C123.42 123.919 124.322 125.516 123.823 127.582C123.809 127.656 123.706 127.722 123.596 127.736C123.567 127.743 123.545 127.736 123.516 127.736C123.45 127.729 123.398 127.692 123.398 127.641ZM116.408 120.783C116.613 120.944 117.72 121.779 119.786 122.82C121.193 123.53 122.812 124.615 123.494 126.088C123.303 124.827 122.395 123.787 120.753 122.929C118.643 121.83 117.148 121.017 116.379 120.475C116.401 120.636 116.408 120.731 116.408 120.783Z" fill="#BD7A43"/>
<path d="M110.715 109.433C110.715 109.433 111.279 110.334 113.646 112.818C116.013 115.295 116.804 116.086 114.21 118.907C111.616 121.721 106.883 127.582 112.408 135.247C114.437 137.503 114.1 136.038 113.082 134.008C112.071 131.979 112.855 127.7 117.478 123.303C122.102 118.907 123.677 113.836 122.102 108.202C120.526 102.567 114.775 102.113 114.775 102.113L110.715 109.433Z" fill="#EBD9B3"/>
<path d="M113.748 136.646C113.47 136.646 113.045 136.353 112.202 135.415C106.253 127.157 112.093 120.812 114.012 118.724C116.423 116.108 115.8 115.456 113.499 113.045L113.448 112.994C111.089 110.524 110.51 109.609 110.488 109.572C110.437 109.491 110.437 109.389 110.481 109.308L114.54 101.981C114.591 101.893 114.686 101.827 114.789 101.849C114.848 101.856 120.739 102.384 122.351 108.128C123.948 113.844 122.373 119.009 117.654 123.486C113.411 127.524 112.261 131.774 113.309 133.884C114.481 136.221 114.13 136.456 113.961 136.573C113.902 136.617 113.836 136.646 113.748 136.646ZM111.023 109.418C111.257 109.74 111.997 110.715 113.836 112.635L113.888 112.686C116.188 115.104 117.148 116.101 114.408 119.083C111.199 122.57 107.528 128.022 112.62 135.093C113.162 135.694 113.463 135.943 113.617 136.045C113.573 135.774 113.375 135.181 112.847 134.126C111.741 131.913 112.664 127.516 117.295 123.113C121.86 118.775 123.384 113.785 121.845 108.275C120.482 103.417 115.851 102.53 114.914 102.399L111.023 109.418Z" fill="#BD7A43"/>
<g opacity="0.4">
<path d="M111.572 129.912C111.022 127.722 112.261 124.366 115.184 120.841C118.43 116.929 118.533 116.408 117.053 113.162C115.573 109.916 113.704 109.323 115.968 106.37C116.826 105.256 117.258 103.996 117.463 102.867C115.99 102.208 114.767 102.105 114.767 102.105L110.707 109.433C110.707 109.433 111.272 110.334 113.638 112.818C116.005 115.295 116.796 116.086 114.203 118.907C111.609 121.721 106.875 127.582 112.4 135.247C114.43 137.503 114.093 136.038 113.074 134.008C112.063 131.979 112.847 127.7 117.47 123.303C118.679 122.16 119.669 120.966 120.46 119.728C118.745 121.252 116.87 122.549 115.265 123.692C111.638 126.285 112.122 132.103 111.572 129.912Z" fill="#769E2A"/>
</g>
<path d="M119.112 104.67C119.024 104.589 118.878 104.816 118.922 104.897C121.347 109.557 122.329 113.199 119.552 118.137C119.303 118.577 119.779 118.665 120.013 118.321C122.886 114.107 123.091 108.319 119.112 104.67Z" fill="#EBD9B3"/>
<path d="M77.4639 96.0529C77.4639 96.0529 86.3372 87.0184 104.362 92.0229C113.206 94.9392 115.961 97.3718 116.291 100.024C116.621 102.677 114.752 110.839 101.724 116.13C88.6893 121.42 77.8376 120.35 73.2214 110.935C71.5142 106.406 72.8624 100.369 77.4639 96.0529Z" fill="#DCDDCF"/>
<path d="M87.6926 119.551C80.8562 119.551 75.7345 116.679 72.9794 111.052C71.1256 106.113 72.8622 100.024 77.2805 95.8624C77.5297 95.6133 86.6301 86.8279 104.428 91.7665C112.539 94.441 116.159 96.9029 116.547 99.995C116.892 102.75 114.913 111.059 101.82 116.379C96.5732 118.504 91.8178 119.551 87.6926 119.551ZM93.9867 90.7847C83.1717 90.7847 77.7128 96.1629 77.6469 96.2361L77.6396 96.2435C73.3678 100.259 71.6898 106.121 73.4557 110.839C77.7348 119.566 88.0003 121.413 101.614 115.888C114.4 110.693 116.349 102.699 116.02 100.054C115.668 97.1887 112.151 94.8659 104.274 92.2648C100.427 91.2023 96.9982 90.7847 93.9867 90.7847Z" fill="#85867F"/>
<path d="M109.858 103.109C112.085 101.599 110.92 101.233 110.92 101.233C110.92 101.233 110.957 100.749 112.906 100.486C92.1333 95.6864 77.4275 102.222 72.6867 104.809C72.401 106.597 72.4742 108.37 72.9139 109.982C89.2317 113.286 107.718 104.567 109.858 103.109Z" fill="#6E6963"/>
<path d="M114.195 97.9506C106.692 93.5616 90.9532 87.2162 74.6867 99.4527C74.0419 100.493 73.5509 101.585 73.1919 102.677C77.9326 99.2036 91.3195 91.8616 114.195 97.9506Z" fill="#6E6963"/>
<path d="M111.309 105.82C94.9764 115.536 79.0469 113.558 74.1743 112.627C75.2221 114.246 76.4971 115.551 77.9552 116.569C96.1781 118.965 112.679 104.904 111.309 105.82Z" fill="#6E6963"/>
<path d="M101.087 114.686C93.1516 118.203 85.6192 118.562 81.9775 118.489C85.2235 119.485 89.0483 119.522 93.2615 118.694C100.845 115.741 102.076 114.166 101.087 114.686Z" fill="#6E6963"/>
<path d="M116.284 100.024C115.961 97.4451 113.353 95.0784 105.124 92.2794C105.432 92.4113 105.747 92.5359 106.092 92.6678C118.189 97.2839 113.485 103.952 100.589 109.792C87.6929 115.639 73.9103 111.059 76.8339 102.061C79.2739 94.5509 86.9089 91.6126 89.3708 90.8433C81.4134 92.0449 77.4713 96.0456 77.4713 96.0456C72.8772 100.361 71.5216 106.399 73.2215 110.927C77.8377 120.35 88.6894 121.413 101.725 116.122C114.745 110.839 116.614 102.677 116.284 100.024Z" fill="#C4C6BA"/>
<path d="M74.6211 99.5629L74.6284 99.5557C74.6211 99.5557 74.6211 99.5629 74.6211 99.5629Z" fill="#C4C6BA"/>
<path d="M74.6939 99.4529C74.6867 99.4529 74.6867 99.4602 74.6939 99.4529V99.4529Z" fill="#C4C6BA"/>
<path d="M115.067 97.4966C115.155 97.6138 115.243 97.7311 115.346 97.8483C119.457 102.699 104.282 119.955 85.1283 116.071C71.5802 113.323 71.9759 106.15 73.3681 102.186C72.2763 105.19 72.225 108.312 73.2069 110.935C77.823 120.358 88.6747 121.42 101.71 116.13C114.738 110.84 116.606 102.677 116.276 100.024C116.174 99.1672 115.808 98.3319 115.067 97.4966Z" fill="#8A8B84"/>
<path d="M109.323 96.0021C101.49 89.3562 89.2825 90.2575 80.5704 97.0279C80.4238 97.1451 80.7169 97.321 80.8415 97.2477C89.8393 91.7229 100.852 90.4407 109.037 96.1852C109.183 96.2951 109.513 96.1706 109.323 96.0021Z" fill="#DCDDCF"/>
</svg>
