<svg width="193" height="193" viewBox="0 0 193 193" fill="none" xmlns="http://www.w3.org/2000/svg">
<path d="M96.5001 193C149.796 193 193 149.796 193 96.5C193 43.2045 149.796 0 96.5001 0C43.2046 0 0 43.2045 0 96.5C0 149.796 43.2046 193 96.5001 193Z" fill="#F2E8BD"/>
<path d="M49.8224 91.9862C49.8719 91.179 49.5836 90.4212 48.7764 89.8529C47.0632 88.6585 44.2875 89.3257 42.4342 89.8693C40.3174 90.4871 38.2253 91.286 36.3144 92.3815C34.8813 93.2052 32.6162 94.7948 33.2751 96.7551C33.9505 98.7566 36.8334 99.1355 38.596 99.259C41.2317 99.4485 44.0733 99.1437 46.536 98.1224C48.4716 97.3152 50.4567 95.6926 50.3908 93.3946C50.3661 92.7851 50.1519 92.3321 49.8224 91.9862Z" fill="#6E4931"/>
<path d="M62.5232 92.2168C61.6913 91.6484 60.5135 91.3766 59.3603 91.4343C59.1462 91.3848 58.9403 91.3519 58.7426 91.3437C57.0376 91.2448 54.8632 92.2744 54.6573 94.1606C54.4514 96.0138 56.6093 96.2609 57.9766 96.0797C59.6322 95.8656 61.8725 95.0749 62.655 93.4522C62.8444 93.0486 62.968 92.5215 62.5232 92.2168Z" fill="#6E4931"/>
<path d="M97.2406 93.0075C96.5158 90.1247 92.0762 88.9963 89.5641 88.708C87.7685 88.5103 85.973 89.1281 84.721 90.4542C83.7903 91.4426 83.2713 92.9416 83.8726 94.0618C83.9962 94.383 84.2103 94.696 84.548 94.9925C86.3848 96.574 89.5394 96.8376 91.8539 96.8788C94.0613 96.9117 98.0231 96.1127 97.2406 93.0075Z" fill="#6E4931"/>
<path d="M114.867 92.3322C113.92 89.853 111.07 89.6059 108.92 90.5943C107.207 91.3767 105.123 93.2876 105.42 95.3468C105.296 95.6515 105.222 95.981 105.222 96.3352C105.222 96.7717 105.428 97.06 105.84 97.2165C108.649 98.2378 116.548 96.7305 114.867 92.3322Z" fill="#6E4931"/>
<path d="M152.492 92.0191C151.429 90.9483 149.444 90.4788 147.978 90.4623C146.454 90.4459 144.815 90.9071 143.448 91.5496C142.41 92.0438 140.713 93.0569 141.043 94.4653C141.43 96.1209 144.51 96.4421 145.787 96.5986C147.204 96.7798 149.288 96.6398 150.77 95.8244C150.894 95.8491 151.034 95.8326 151.166 95.7338C152.376 94.9019 153.933 93.4769 152.492 92.0191Z" fill="#6E4931"/>
<path d="M165.926 92.3896C165.901 90.9811 164.32 90.3799 163.142 90.2151C160.498 89.8445 156.791 90.5446 155.152 92.8673C154.534 93.7404 154.164 94.9594 155.062 95.7831C155.778 96.442 156.907 96.5409 157.837 96.5656C159.88 96.615 162.631 96.3843 164.369 95.1983C164.97 94.7864 165.728 94.0781 165.72 93.2709C165.852 93.0074 165.934 92.7108 165.926 92.3896Z" fill="#6E4931"/>
<path d="M175.785 92.67C175.423 91.6157 174.278 91.4263 173.347 91.8463C172.829 92.0852 172.301 92.5794 172.252 93.1807C172.211 93.609 172.466 93.8891 172.787 93.9467C172.87 94.0291 172.969 94.1032 173.092 94.1444C173.636 94.3338 174.113 94.2761 174.649 94.1114C175.168 93.9384 176.024 93.3701 175.785 92.67Z" fill="#6E4931"/>
<path d="M24.701 93.8805C24.5857 92.7438 23.062 92.0519 22.0654 92.0107C20.8793 91.9531 19.7179 92.752 19.3473 93.8722C19.2978 94.0122 19.2731 94.1687 19.2567 94.3335C19.1249 94.6135 19.1167 94.91 19.3391 95.1489C19.3802 95.1901 19.4296 95.2313 19.4708 95.2725C19.5861 95.4372 19.7674 95.6019 19.9568 95.6843C19.9898 95.7008 20.0144 95.709 20.0474 95.709C20.7557 96.129 21.5959 96.2691 22.4442 96.1208C23.4738 95.9314 24.8246 95.0912 24.701 93.8805Z" fill="#6E4931"/>
<path d="M77.1518 91.8131C76.9788 91.6814 76.7646 91.6402 76.5505 91.6402C76.4104 91.5743 76.2457 91.5331 76.0892 91.5413C75.9739 91.5413 75.8504 91.5578 75.735 91.5825C75.6609 91.599 75.5868 91.6237 75.5209 91.6484C75.4879 91.6566 75.1503 91.7555 75.4797 91.6649C74.8867 91.8214 74.1783 92.4638 74.5572 93.131C74.7714 93.5016 75.2491 93.6664 75.6527 93.6664C76.3034 93.6664 76.8964 93.3287 77.2506 92.7933C77.4565 92.4803 77.4648 92.052 77.1518 91.8131Z" fill="#6E4931"/>
<path d="M124.876 93.2138C124.851 93.1808 124.826 93.1561 124.802 93.1231C124.818 93.0655 124.826 93.016 124.843 92.9583C124.909 92.5958 124.62 92.3568 124.332 92.2332C124.192 92.1756 123.928 92.192 123.796 92.225C123.739 92.2415 123.557 92.2991 123.508 92.3156C123.36 92.3815 123.22 92.4639 123.104 92.5793C122.907 92.7441 122.939 92.7194 123.203 92.4969C123.145 92.5381 123.096 92.5793 123.038 92.637C122.972 92.6947 122.923 92.7441 122.865 92.8018C122.799 92.8595 122.733 92.9171 122.684 92.9748C122.437 93.2549 122.239 93.6504 122.412 94.0212C122.569 94.359 122.997 94.4909 123.343 94.392C123.541 94.3343 123.706 94.2684 123.879 94.186C123.903 94.1943 123.92 94.2025 123.945 94.2107C124.217 94.2931 124.571 94.1448 124.744 93.9389C124.884 93.7658 125.074 93.4115 124.876 93.2138Z" fill="#6E4931"/>
<path d="M177.877 93.6007C174.772 93.263 171.626 93.5348 168.52 93.8149C165.316 94.1114 162.112 94.515 158.908 94.8198C155.671 95.1245 152.377 95.421 149.123 95.141C146.002 94.8692 142.896 94.4079 139.799 93.9879C136.464 93.5349 133.119 93.123 129.751 93.0077C126.497 92.8924 123.277 93.1724 120.056 93.6584C113.796 94.5974 107.603 95.9152 101.244 95.907C94.9593 95.8987 88.7819 94.688 82.5879 93.7655C79.2439 93.2713 75.9163 92.843 72.5228 92.9336C69.2035 93.0242 65.9006 93.4525 62.6224 93.9631C56.445 94.9268 50.3252 96.0635 44.0489 96.1788C33.7449 96.36 23.5562 94.5397 13.2934 94.0043C13.2934 94.342 13.2852 94.6798 13.2852 95.0175C13.2852 141.019 50.5722 178.306 96.5737 178.306C142.575 178.306 179.862 141.019 179.862 95.0175C179.862 94.6303 179.862 94.2432 179.854 93.8561C179.187 93.7572 178.536 93.6749 177.877 93.6007Z" fill="#6E4931"/>
<path d="M28.3335 103.205C31.2493 104.308 34.2144 105.058 37.3443 105.132C40.4495 105.206 43.5383 104.687 46.5199 103.855C52.1867 102.282 57.4169 99.5146 63.3226 98.7733C66.4772 98.3779 69.706 98.5921 72.877 98.6168C76.1305 98.6415 79.3757 98.6333 82.6292 98.5015C88.8313 98.2461 95.0005 97.4966 101.021 99.4899C103.855 100.429 106.606 101.565 109.571 102.051C112.792 102.579 115.88 102.076 119.01 101.277C121.893 100.536 124.751 99.6216 127.708 99.2098C130.434 98.8227 133.194 98.9874 135.903 99.4487C138.885 99.9594 141.793 100.808 144.741 101.434C147.838 102.093 151.001 102.463 154.164 102.332C159.954 102.093 165.58 100.338 171.395 100.322C174.121 100.314 176.839 100.651 179.566 100.734C179.599 100.734 179.632 100.734 179.673 100.734C179.805 98.8392 179.87 96.9283 179.87 95.0009C179.87 94.6138 179.87 94.2267 179.862 93.8396C179.203 93.749 178.544 93.6583 177.885 93.5924C174.78 93.2547 171.634 93.5265 168.529 93.8066C165.325 94.1031 162.121 94.5067 158.917 94.8115C155.68 95.1162 152.385 95.4127 149.131 95.1327C146.01 94.8609 142.905 94.3996 139.808 93.9796C136.472 93.5266 133.128 93.1147 129.759 92.9994C126.506 92.8841 123.285 93.1641 120.065 93.6501C113.805 94.5891 107.611 95.907 101.252 95.8987C94.9676 95.8905 88.7902 94.6797 82.5962 93.7572C79.2522 93.263 75.9246 92.8347 72.5311 92.9253C69.2117 93.0159 65.9089 93.4442 62.6307 93.9548C56.4533 94.9185 50.3334 96.0552 44.0571 96.1705C33.7532 96.3517 23.5645 94.5314 13.3017 93.9961C13.3017 94.3338 13.2935 94.6715 13.2935 95.0092C13.2935 96.7141 13.3429 98.4109 13.45 100.099C18.5566 100.141 23.548 101.393 28.3335 103.205Z" fill="#6E4931"/>
<path d="M28.6464 99.1111C30.6397 98.5839 32.5176 97.645 34.5932 97.4638C35.7381 97.3649 36.8995 97.5461 38.0444 97.6367C39.2881 97.7273 40.5319 97.7603 41.7756 97.6367C44.0324 97.4061 46.3304 96.4507 48.6119 96.6978C49.625 96.8048 50.5805 97.1508 51.5689 97.3732C52.8373 97.6614 54.0893 97.6779 55.3495 97.3402C57.5157 96.7554 59.4184 95.5446 61.7246 95.5282C62.8613 95.5199 63.9979 95.7011 65.1181 95.8741C66.4442 96.0718 67.7538 96.1295 69.0964 96.1047C70.406 96.08 71.7239 95.9977 73.0335 95.9483C74.129 95.9071 75.175 95.8906 76.2457 96.1624C77.4483 96.4671 78.6261 96.9284 79.8699 96.9778C81.1136 97.0272 82.275 96.5578 83.4281 96.1542C84.4247 95.8082 85.4048 95.5447 86.4756 95.6353C87.571 95.7341 88.65 96.0306 89.7208 96.2694C90.9069 96.5412 92.1094 96.6072 93.3037 96.8131C94.3004 96.9861 95.2394 97.3402 96.203 97.6367C97.4303 98.0156 98.6987 98.2874 99.9836 98.3122C101.17 98.3369 102.339 98.1474 103.509 97.9332C104.538 97.7438 105.576 97.5214 106.622 97.4308C107.808 97.332 108.994 97.505 110.181 97.5297C111.292 97.5544 112.363 97.3402 113.459 97.2908C114.546 97.2414 115.584 97.4308 116.663 97.5873C117.972 97.7768 119.142 97.7191 120.402 97.299C121.374 96.9778 122.297 96.5248 123.285 96.253C124.957 95.7918 126.818 95.767 128.532 95.7505C129.38 95.7423 130.245 95.7505 131.085 95.8576C131.102 95.8576 131.118 95.8659 131.134 95.8659C132.09 95.7094 133.078 95.7011 134.017 95.7176C135.623 95.7423 137.221 95.8988 138.819 96.0471C139.453 96.1047 140.088 96.1706 140.73 96.2118C141.653 96.2695 142.592 96.2365 143.514 96.2859C145.483 96.3848 147.41 96.6401 149.296 97.2249C151.026 97.7685 152.681 98.6498 154.518 98.7487C156.594 98.864 158.595 98.0156 160.547 97.4143C161.503 97.1178 162.475 96.8625 163.48 96.7472C164.583 96.6072 165.712 96.6483 166.824 96.706C169.039 96.8213 171.263 97.0437 173.454 96.5989C175.431 96.2036 177.416 96.1789 179.426 96.1459C179.566 96.1459 179.714 96.1377 179.854 96.1377C179.862 95.767 179.862 95.3964 179.862 95.0175C179.862 94.6304 179.862 94.2432 179.854 93.8561C179.195 93.7655 178.536 93.6749 177.877 93.609C174.772 93.2713 171.626 93.5431 168.52 93.8232C165.316 94.1197 162.112 94.5233 158.908 94.828C155.671 95.1328 152.377 95.4293 149.123 95.1493C146.002 94.8775 142.896 94.4162 139.799 93.9962C136.464 93.5432 133.119 93.1313 129.751 93.016C126.497 92.9007 123.277 93.1807 120.056 93.6667C113.796 94.6057 107.603 95.9235 101.244 95.9153C94.9593 95.907 88.7819 94.6963 82.5879 93.7738C79.2439 93.2796 75.9163 92.8513 72.5228 92.9419C69.2035 93.0325 65.9006 93.4608 62.6224 93.9714C56.445 94.9351 50.3252 96.0718 44.0489 96.1871C33.7449 96.3683 23.5562 94.548 13.2934 94.0126C13.2934 94.3503 13.2852 94.6881 13.2852 95.0258C13.2852 96.0059 13.3016 96.9778 13.3346 97.9497C16.3739 98.8722 19.7015 98.9958 22.8232 99.2264C24.8082 99.3582 26.6861 99.63 28.6464 99.1111Z" fill="#986749"/>
<path opacity="0.57" d="M150.21 139.108C144.642 139.174 139.189 140.912 133.885 142.436C128.721 143.926 123.457 145.327 118.038 145.277C112.289 145.228 106.688 143.745 101.054 142.749C98.0475 142.213 95.0165 141.834 91.9524 141.842C88.9296 141.851 85.9068 142.147 82.9169 142.576C77.1184 143.399 71.4021 144.709 65.5953 145.442C62.8361 145.788 60.0685 146.051 57.2928 145.714C54.896 145.417 52.565 144.758 50.2999 143.943C45.2427 142.122 40.4407 139.734 35.1034 138.787C31.7841 138.202 28.4235 137.963 25.063 137.757C39.6088 162.047 66.1883 178.306 96.5649 178.306C126.703 178.306 153.101 162.302 167.721 138.325C161.889 139.009 156.083 139.042 150.21 139.108Z" fill="#8C664B"/>
<path opacity="0.57" d="M145.145 156.916C139.882 157.295 134.94 159.444 129.709 160.054C124.265 160.688 118.746 160.927 113.269 160.812C107.882 160.696 102.512 160.12 97.1254 160.136C94.4073 160.144 91.681 160.359 89.0205 160.927C86.3025 161.512 83.6091 162.187 80.9075 162.854C78.3953 163.48 75.8667 164.057 73.2886 164.345C70.6612 164.642 68.0419 164.551 65.4145 164.23C60.6455 163.645 56 162.335 51.4534 160.82C48.0105 159.675 44.5923 158.398 41.1494 157.204C55.8682 170.333 75.2819 178.314 96.5652 178.314C117.774 178.314 137.122 170.391 151.833 157.336C149.617 157.006 147.385 156.751 145.145 156.916Z" fill="#8C664B"/>
<g opacity="0.57">
<path d="M28.4569 114.217C27.1967 114.118 25.9859 114.423 25.2858 115.238C24.6433 115.988 24.3386 117.075 24.3386 118.047C24.2892 120.427 25.327 122.758 28.078 122.47C30.376 122.223 32.5011 120.435 32.8305 118.104C33.1435 115.913 30.7384 114.398 28.4569 114.217Z" fill="#8C664B"/>
<path d="M37.6496 124.497C37.6496 124.472 37.6413 124.447 37.6331 124.423C37.6331 124.39 37.6248 124.365 37.6248 124.332C37.6001 124.217 37.5425 124.126 37.4601 124.06C37.3282 123.928 37.147 123.854 36.9492 123.862C36.7762 123.862 36.6031 123.903 36.4383 123.969C36.2982 124.027 36.1829 124.101 36.0758 124.208C35.9605 124.291 35.8698 124.398 35.7956 124.521C35.705 124.703 35.6061 124.892 35.6143 125.106C35.6143 125.164 35.6226 125.214 35.6308 125.271C35.6061 125.37 35.6061 125.469 35.6308 125.568C35.672 125.7 35.7462 125.807 35.8533 125.889C36.0264 126.021 36.2983 126.013 36.4878 125.98C36.9657 125.897 37.4518 125.518 37.6001 125.049C37.6743 124.843 37.6825 124.694 37.6496 124.497Z" fill="#8C664B"/>
<path d="M48.9992 138.186C48.7767 138.169 48.5707 138.235 48.3895 138.342C47.8869 138.342 47.4584 138.746 47.2689 139.174C47.1041 139.529 47.1535 139.982 47.4172 140.27C47.6562 140.534 47.9692 140.723 48.3318 140.723C49.1063 140.74 49.6419 140.04 49.7325 139.323C49.7984 138.812 49.6007 138.227 48.9992 138.186Z" fill="#8C664B"/>
<path d="M25.1791 109.053C24.9485 108.501 24.5943 108.031 23.8942 108.081C23.3753 108.122 22.9223 108.435 22.5681 108.814C21.7609 109.679 21.9092 111.169 23.3423 111.087C23.5153 111.112 23.6965 111.137 23.8777 111.128C24.586 111.112 25.6404 110.395 25.3686 109.563C25.3109 109.399 25.245 109.226 25.1791 109.053Z" fill="#8C664B"/>
<path d="M33.7443 130.567C33.1101 130.18 32.4264 130.122 31.8252 130.32C31.7922 130.32 31.7593 130.311 31.7263 130.311C31.0509 130.295 30.4084 130.641 29.9554 131.118C29.1812 131.926 28.6376 133.384 29.3789 134.388C30.425 135.797 33.0606 134.948 34.082 133.952C35.1363 132.922 34.9963 131.341 33.7443 130.567Z" fill="#8C664B"/>
<path d="M50.2596 128.763C49.6828 128.763 49.139 129.793 49.9053 129.793C50.482 129.793 51.0258 128.763 50.2596 128.763Z" fill="#8C664B"/>
<path d="M53.9823 108.649C53.3563 108.122 52.4585 108.089 51.6596 108.328C51.6266 108.328 51.5854 108.319 51.5525 108.319C50.4405 108.319 49.3039 109.11 49.1638 110.263C49.0321 111.342 49.7898 112.504 50.8029 112.85C51.9231 113.228 53.2739 112.718 54.0317 111.853C54.8389 110.922 55.0119 109.505 53.9823 108.649Z" fill="#8C664B"/>
<path d="M60.8189 109.275C60.0856 109.275 59.3935 110.585 60.374 110.585C61.1073 110.585 61.7994 109.275 60.8189 109.275Z" fill="#8C664B"/>
<path d="M73.7499 122.47C72.4897 122.569 71.2789 122.264 70.5787 121.449C69.9363 120.699 69.6316 119.612 69.6316 118.64C69.5821 116.26 70.6199 113.929 73.371 114.217C75.669 114.464 77.794 116.251 78.1235 118.582C78.4365 120.773 76.0314 122.289 73.7499 122.47Z" fill="#8C664B"/>
<path d="M91.9201 115.033C91.5824 115.057 91.2694 114.958 90.9893 114.794C90.2233 114.794 89.5644 114.184 89.2679 113.517C89.0208 112.973 89.0867 112.281 89.4985 111.828C89.8609 111.433 90.3387 111.137 90.8905 111.128C92.0848 111.112 92.9002 112.183 93.0402 113.27C93.1473 114.069 92.8426 114.975 91.9201 115.033Z" fill="#8C664B"/>
<path d="M62.968 136.077C63.2398 135.245 62.1856 134.528 61.4772 134.512C61.296 134.504 61.1148 134.528 60.9418 134.553C59.5004 134.471 59.3604 135.962 60.1676 136.826C60.5218 137.205 60.9748 137.526 61.4937 137.559C62.1938 137.609 62.548 137.139 62.7786 136.587C62.8527 136.423 62.9104 136.25 62.968 136.077Z" fill="#8C664B"/>
<path d="M72.8434 105.939C72.2092 106.326 71.5256 106.384 70.9243 106.186C70.8914 106.186 70.8584 106.194 70.8254 106.194C70.15 106.211 69.5076 105.865 69.0546 105.387C68.2803 104.58 67.7367 103.122 68.478 102.117C69.5241 100.709 72.1598 101.557 73.1811 102.554C74.2354 103.583 74.1036 105.165 72.8434 105.939Z" fill="#8C664B"/>
<path d="M83.1976 137.057C82.5716 137.584 81.6738 137.617 80.8748 137.378C80.8419 137.378 80.8007 137.386 80.7678 137.386C79.6558 137.386 78.5192 136.596 78.3792 135.443C78.2474 134.364 79.0051 133.202 80.0182 132.856C81.1384 132.477 82.4892 132.988 83.247 133.853C84.0542 134.792 84.2189 136.209 83.1976 137.057Z" fill="#8C664B"/>
<path d="M98.4278 136.374C97.6945 136.374 97.0024 135.063 97.9829 135.063C98.7162 135.063 99.4083 136.374 98.4278 136.374Z" fill="#8C664B"/>
<path d="M105.996 118.352C105.37 118.302 104.761 118.451 104.406 118.862C104.085 119.233 103.937 119.777 103.937 120.263C103.912 121.457 104.431 122.618 105.807 122.47C106.96 122.346 108.022 121.457 108.187 120.287C108.343 119.2 107.141 118.442 105.996 118.352Z" fill="#8C664B"/>
<path d="M117.256 124.497C117.256 124.472 117.248 124.447 117.24 124.423C117.24 124.39 117.231 124.365 117.231 124.332C117.207 124.217 117.149 124.126 117.066 124.06C116.935 123.928 116.753 123.854 116.556 123.862C116.383 123.862 116.21 123.903 116.045 123.969C115.905 124.027 115.789 124.101 115.682 124.208C115.567 124.291 115.476 124.398 115.402 124.521C115.311 124.703 115.213 124.892 115.221 125.106C115.221 125.164 115.229 125.214 115.237 125.271C115.213 125.37 115.213 125.469 115.237 125.568C115.278 125.7 115.353 125.807 115.46 125.889C115.633 126.021 115.905 126.013 116.094 125.98C116.572 125.897 117.058 125.518 117.207 125.049C117.272 124.843 117.281 124.694 117.256 124.497Z" fill="#8C664B"/>
<path d="M128.607 138.186C128.384 138.169 128.178 138.235 127.997 138.342C127.494 138.342 127.066 138.746 126.876 139.174C126.712 139.529 126.761 139.982 127.025 140.27C127.264 140.534 127.577 140.723 127.939 140.723C128.714 140.74 129.249 140.04 129.34 139.323C129.406 138.812 129.208 138.227 128.607 138.186Z" fill="#8C664B"/>
<path d="M104.777 109.053C104.547 108.501 104.192 108.031 103.492 108.081C102.973 108.122 102.52 108.435 102.166 108.814C101.359 109.679 101.507 111.169 102.94 111.087C103.113 111.112 103.295 111.137 103.476 111.128C104.184 111.112 105.238 110.395 104.967 109.563C104.909 109.399 104.851 109.226 104.777 109.053Z" fill="#8C664B"/>
<path d="M113.343 130.567C112.709 130.18 112.026 130.122 111.424 130.32C111.391 130.32 111.358 130.311 111.325 130.311C110.65 130.295 110.008 130.641 109.555 131.118C108.78 131.926 108.237 133.384 108.978 134.388C110.024 135.797 112.66 134.948 113.681 133.952C114.735 132.922 114.604 131.341 113.343 130.567Z" fill="#8C664B"/>
<path d="M129.867 128.763C129.29 128.763 128.746 129.793 129.512 129.793C130.089 129.793 130.633 128.763 129.867 128.763Z" fill="#8C664B"/>
<path d="M133.589 108.649C132.963 108.122 132.065 108.089 131.266 108.328C131.233 108.328 131.192 108.319 131.159 108.319C130.047 108.319 128.91 109.11 128.77 110.263C128.638 111.342 129.396 112.504 130.409 112.85C131.53 113.228 132.88 112.718 133.638 111.853C134.445 110.922 134.61 109.505 133.589 108.649Z" fill="#8C664B"/>
<path d="M140.425 109.275C139.692 109.275 139 110.585 139.98 110.585C140.714 110.585 141.406 109.275 140.425 109.275Z" fill="#8C664B"/>
<path d="M148.876 124.546C147.937 124.62 147.023 124.397 146.496 123.78C146.01 123.219 145.788 122.404 145.788 121.671C145.746 119.884 146.529 118.137 148.588 118.352C150.318 118.533 151.907 119.875 152.155 121.63C152.393 123.277 150.59 124.414 148.876 124.546Z" fill="#8C664B"/>
<path d="M171.527 115.033C171.189 115.057 170.876 114.958 170.596 114.794C169.822 114.794 169.171 114.184 168.875 113.517C168.628 112.973 168.694 112.281 169.105 111.828C169.468 111.433 169.946 111.137 170.497 111.128C171.692 111.112 172.507 112.183 172.647 113.27C172.746 114.069 172.441 114.975 171.527 115.033Z" fill="#8C664B"/>
<path d="M142.575 136.077C142.847 135.245 141.793 134.528 141.085 134.512C140.903 134.504 140.722 134.528 140.549 134.553C139.108 134.471 138.968 135.962 139.775 136.826C140.129 137.205 140.582 137.526 141.101 137.559C141.801 137.609 142.155 137.139 142.386 136.587C142.46 136.423 142.518 136.25 142.575 136.077Z" fill="#8C664B"/>
<path d="M154.823 109.176C154.419 109.423 153.991 109.456 153.612 109.333C153.595 109.333 153.571 109.341 153.554 109.341C153.126 109.349 152.722 109.135 152.434 108.83C151.94 108.319 151.602 107.397 152.072 106.763C152.739 105.873 154.403 106.409 155.053 107.035C155.704 107.685 155.622 108.69 154.823 109.176Z" fill="#8C664B"/>
<path d="M162.796 137.057C162.17 137.584 161.272 137.617 160.473 137.378C160.44 137.378 160.399 137.386 160.366 137.386C159.254 137.386 158.117 136.596 157.977 135.443C157.846 134.364 158.603 133.202 159.616 132.856C160.737 132.477 162.087 132.988 162.845 133.853C163.652 134.792 163.825 136.209 162.796 137.057Z" fill="#8C664B"/>
</g>
<g opacity="0.57">
<path d="M39.7828 146.694C39.4202 146.661 39.0659 146.751 38.8599 146.99C38.6704 147.204 38.588 147.526 38.588 147.806C38.5716 148.498 38.8764 149.182 39.6757 149.091C40.3431 149.017 40.961 148.498 41.0599 147.822C41.1423 147.188 40.442 146.743 39.7828 146.694Z" fill="#8C664B"/>
<path d="M40.952 151.866C40.952 151.858 40.9438 151.842 40.9438 151.833C40.9438 151.817 40.9438 151.809 40.9438 151.792C40.9355 151.743 40.9108 151.701 40.8696 151.669C40.8119 151.611 40.7296 151.578 40.6389 151.578C40.5565 151.578 40.4823 151.594 40.4082 151.627C40.3423 151.652 40.2929 151.685 40.2434 151.734C40.194 151.776 40.1528 151.817 40.1198 151.874C40.0786 151.957 40.0374 152.039 40.0374 152.138C40.0374 152.163 40.0374 152.188 40.0456 152.212C40.0374 152.254 40.0292 152.303 40.0456 152.344C40.0621 152.402 40.0951 152.451 40.1445 152.492C40.2187 152.55 40.3423 152.55 40.4329 152.534C40.6472 152.501 40.8696 152.328 40.9355 152.113C40.9603 152.023 40.9685 151.957 40.952 151.866Z" fill="#8C664B"/>
<path d="M35.3436 144.923C35.2365 144.676 35.0799 144.461 34.7668 144.486C34.5361 144.503 34.3301 144.643 34.1735 144.816C33.811 145.203 33.8769 145.879 34.5196 145.837C34.602 145.846 34.6762 145.854 34.7586 145.854C35.0799 145.846 35.5496 145.524 35.426 145.153C35.4012 145.079 35.3765 144.997 35.3436 144.923Z" fill="#8C664B"/>
<path d="M63.0598 162.813C62.7715 162.64 62.4666 162.615 62.1947 162.697C62.1782 162.697 62.17 162.689 62.1535 162.689C61.8486 162.681 61.5602 162.837 61.3542 163.052C61.0082 163.414 60.761 164.073 61.0988 164.526C61.5685 165.161 62.755 164.782 63.2164 164.329C63.6861 163.876 63.6201 163.159 63.0598 162.813Z" fill="#8C664B"/>
<path d="M46.6278 153.786C46.3642 153.786 46.1252 154.247 46.4713 154.247C46.7267 154.255 46.9739 153.786 46.6278 153.786Z" fill="#8C664B"/>
<path d="M48.2999 144.742C48.0198 144.503 47.616 144.494 47.2535 144.593C47.237 144.593 47.2205 144.593 47.204 144.593C46.7014 144.593 46.1906 144.948 46.1329 145.467C46.0752 145.953 46.413 146.472 46.8745 146.628C47.3771 146.801 47.9868 146.571 48.3246 146.175C48.6872 145.763 48.7613 145.129 48.2999 144.742Z" fill="#8C664B"/>
<path d="M51.3716 145.022C51.042 145.022 50.7289 145.607 51.1656 145.607C51.5034 145.615 51.8165 145.022 51.3716 145.022Z" fill="#8C664B"/>
<path d="M56.5192 153.917C55.9509 153.958 55.4073 153.827 55.0943 153.456C54.806 153.118 54.666 152.632 54.666 152.196C54.6413 151.125 55.1108 150.079 56.3463 150.211C57.3841 150.318 58.3395 151.125 58.4878 152.171C58.6195 153.159 57.5405 153.835 56.5192 153.917Z" fill="#8C664B"/>
<path d="M65.3656 147.608C65.209 147.617 65.0689 147.575 64.9453 147.501C64.5993 147.501 64.3026 147.229 64.1708 146.925C64.0555 146.677 64.0884 146.372 64.2779 146.166C64.4427 145.985 64.657 145.853 64.9042 145.853C65.4397 145.845 65.8105 146.331 65.8682 146.817C65.9094 147.18 65.7775 147.584 65.3656 147.608Z" fill="#8C664B"/>
<path d="M52.3439 157.08C52.4674 156.701 51.9895 156.388 51.6764 156.38C51.594 156.38 51.5116 156.388 51.4375 156.397C50.7865 156.355 50.7289 157.031 51.0914 157.418C51.248 157.591 51.4539 157.731 51.6846 157.748C51.9978 157.773 52.1626 157.558 52.2614 157.311C52.2861 157.237 52.3191 157.155 52.3439 157.08Z" fill="#8C664B"/>
<path d="M62.9194 157.352C62.7793 157.468 62.5733 157.476 62.4003 157.426C62.392 157.426 62.3838 157.426 62.3756 157.426C62.1284 157.426 61.8729 157.245 61.84 156.99C61.807 156.743 61.9801 156.487 62.2108 156.405C62.4662 156.322 62.7711 156.438 62.9359 156.627C63.1089 156.841 63.1501 157.154 62.9194 157.352Z" fill="#8C664B"/>
<path d="M68.2893 157.212C67.9597 157.212 67.6466 156.627 68.0915 156.627C68.4211 156.619 68.726 157.212 68.2893 157.212Z" fill="#8C664B"/>
<path d="M72.6212 147.246C72.0529 147.204 71.5093 147.336 71.1963 147.707C70.908 148.044 70.768 148.53 70.768 148.967C70.7433 150.038 71.2128 151.084 72.4483 150.952C73.4861 150.845 74.4415 150.038 74.5898 148.992C74.7298 148.003 73.6426 147.328 72.6212 147.246Z" fill="#8C664B"/>
<path d="M76.7572 151.866C76.7572 151.858 76.7489 151.842 76.7489 151.833C76.7489 151.817 76.7489 151.809 76.7489 151.792C76.7407 151.743 76.716 151.701 76.6748 151.669C76.6171 151.611 76.5347 151.578 76.444 151.578C76.3617 151.578 76.2875 151.594 76.2134 151.627C76.1475 151.652 76.098 151.685 76.0486 151.734C75.9991 151.776 75.9579 151.817 75.925 151.874C75.8838 151.957 75.8426 152.039 75.8426 152.138C75.8426 152.163 75.8426 152.188 75.8508 152.212C75.8426 152.254 75.8343 152.303 75.8508 152.344C75.8673 152.402 75.9003 152.451 75.9497 152.492C76.0239 152.55 76.1474 152.55 76.2381 152.534C76.4523 152.501 76.6748 152.328 76.7407 152.113C76.7654 152.023 76.7654 151.957 76.7572 151.866Z" fill="#8C664B"/>
<path d="M81.864 158.027C81.7652 158.019 81.6745 158.052 81.5921 158.093C81.3697 158.093 81.1719 158.274 81.0895 158.464C81.0154 158.62 81.0401 158.826 81.1554 158.958C81.2626 159.074 81.4026 159.164 81.5674 159.164C81.9135 159.172 82.1607 158.851 82.2019 158.538C82.2184 158.307 82.1277 158.044 81.864 158.027Z" fill="#8C664B"/>
<path d="M71.1477 144.923C71.0406 144.676 70.8841 144.461 70.571 144.486C70.3403 144.503 70.1343 144.643 69.9777 144.816C69.6152 145.203 69.6811 145.879 70.3238 145.837C70.4062 145.846 70.4804 145.854 70.5628 145.854C70.8841 145.846 71.3538 145.524 71.2302 145.153C71.2055 145.079 71.1807 144.997 71.1477 144.923Z" fill="#8C664B"/>
<path d="M74.9954 161.709C74.707 161.536 74.4021 161.511 74.1302 161.594C74.1137 161.594 74.1055 161.586 74.089 161.586C73.7841 161.577 73.4958 161.734 73.2898 161.948C72.9437 162.311 72.6965 162.97 73.0344 163.423C73.504 164.057 74.6905 163.678 75.1519 163.225C75.6216 162.772 75.5639 162.055 74.9954 161.709Z" fill="#8C664B"/>
<path d="M82.4237 153.786C82.1601 153.786 81.9211 154.247 82.2672 154.247C82.5308 154.255 82.7698 153.786 82.4237 153.786Z" fill="#8C664B"/>
<path d="M84.1046 144.742C83.8244 144.503 83.4207 144.494 83.0581 144.593C83.0417 144.593 83.0252 144.593 83.0087 144.593C82.5061 144.593 81.9952 144.948 81.9376 145.467C81.8799 145.953 82.2177 146.472 82.6791 146.628C83.1817 146.801 83.7915 146.571 84.1293 146.175C84.4836 145.763 84.566 145.129 84.1046 144.742Z" fill="#8C664B"/>
<path d="M87.1765 145.022C86.8469 145.022 86.5338 145.607 86.9787 145.607C87.3083 145.615 87.6132 145.022 87.1765 145.022Z" fill="#8C664B"/>
<path d="M92.3156 153.917C91.7473 153.958 91.2037 153.827 90.8907 153.456C90.6024 153.118 90.4623 152.632 90.4623 152.196C90.4376 151.125 90.9071 150.079 92.1426 150.211C93.1804 150.318 94.1359 151.125 94.2841 152.171C94.4242 153.159 93.3452 153.835 92.3156 153.917Z" fill="#8C664B"/>
<path d="M101.162 147.608C101.006 147.617 100.866 147.575 100.742 147.501C100.396 147.501 100.099 147.229 99.9675 146.925C99.8604 146.677 99.8851 146.372 100.075 146.166C100.239 145.985 100.454 145.853 100.701 145.853C101.236 145.845 101.607 146.331 101.665 146.817C101.714 147.18 101.574 147.584 101.162 147.608Z" fill="#8C664B"/>
<path d="M88.1402 157.08C88.2638 156.701 87.7859 156.388 87.4728 156.38C87.3904 156.38 87.308 156.388 87.2339 156.397C86.583 156.355 86.5252 157.031 86.8878 157.418C87.0443 157.591 87.2504 157.731 87.4811 157.748C87.7942 157.773 87.959 157.558 88.0578 157.311C88.0908 157.237 88.1155 157.155 88.1402 157.08Z" fill="#8C664B"/>
<path d="M97.2418 157.517C96.9616 157.756 96.5579 157.765 96.1954 157.666C96.1789 157.666 96.1624 157.666 96.146 157.666C95.6433 157.666 95.1325 157.311 95.0748 156.792C95.0171 156.306 95.3549 155.787 95.8164 155.63C96.319 155.457 96.9287 155.688 97.2665 156.084C97.6291 156.504 97.7032 157.138 97.2418 157.517Z" fill="#8C664B"/>
</g>
<g opacity="0.57">
<path d="M111.136 148.333C111.103 148.761 111.21 149.173 111.498 149.412C111.753 149.626 112.124 149.725 112.462 149.725C113.277 149.733 114.068 149.371 113.953 148.432C113.862 147.649 113.244 146.932 112.445 146.825C111.696 146.727 111.185 147.558 111.136 148.333Z" fill="#8C664B"/>
<path d="M117.182 146.9C117.165 146.9 117.157 146.908 117.14 146.908C117.124 146.908 117.107 146.908 117.091 146.916C117.033 146.933 116.984 146.957 116.951 147.007C116.885 147.081 116.844 147.172 116.844 147.279C116.844 147.369 116.868 147.46 116.901 147.551C116.934 147.625 116.976 147.683 117.025 147.74C117.066 147.798 117.124 147.847 117.19 147.889C117.289 147.938 117.388 147.987 117.503 147.979C117.528 147.979 117.561 147.979 117.585 147.971C117.635 147.979 117.692 147.987 117.742 147.971C117.808 147.946 117.865 147.905 117.915 147.847C117.981 147.757 117.981 147.617 117.964 147.509C117.923 147.262 117.717 147.007 117.47 146.933C117.363 146.883 117.289 146.883 117.182 146.9Z" fill="#8C664B"/>
<path d="M109.118 153.555C108.83 153.678 108.582 153.868 108.615 154.239C108.64 154.511 108.805 154.749 109.011 154.931C109.472 155.351 110.255 155.269 110.206 154.511C110.222 154.42 110.23 154.321 110.222 154.23C110.206 153.86 109.826 153.308 109.39 153.456C109.299 153.489 109.2 153.522 109.118 153.555Z" fill="#8C664B"/>
<path d="M134.282 164.188C134.002 164.015 133.697 163.99 133.433 164.073C133.417 164.073 133.409 164.065 133.392 164.065C133.096 164.056 132.807 164.213 132.609 164.419C132.263 164.773 132.024 165.424 132.354 165.869C132.815 166.495 133.985 166.116 134.439 165.679C134.9 165.226 134.842 164.526 134.282 164.188Z" fill="#8C664B"/>
<path d="M133.844 150.672C133.589 150.672 133.35 151.125 133.688 151.125C133.943 151.133 134.182 150.672 133.844 150.672Z" fill="#8C664B"/>
<path d="M134.265 145.829C133.985 145.598 133.589 145.582 133.235 145.689C133.219 145.689 133.202 145.689 133.186 145.689C132.691 145.689 132.189 146.035 132.131 146.546C132.073 147.024 132.411 147.535 132.856 147.691C133.35 147.856 133.952 147.633 134.29 147.246C134.644 146.834 134.718 146.208 134.265 145.829Z" fill="#8C664B"/>
<path d="M138.522 142.04C138.193 142.04 137.888 142.617 138.325 142.617C138.654 142.625 138.959 142.04 138.522 142.04Z" fill="#8C664B"/>
<path d="M143.588 150.804C143.028 150.845 142.492 150.713 142.179 150.351C141.891 150.021 141.759 149.535 141.759 149.107C141.735 148.053 142.196 147.023 143.415 147.147C144.436 147.254 145.375 148.044 145.523 149.082C145.663 150.054 144.593 150.721 143.588 150.804Z" fill="#8C664B"/>
<path d="M152.295 144.594C152.146 144.602 152.006 144.561 151.883 144.487C151.545 144.487 151.248 144.215 151.116 143.919C151.009 143.68 151.034 143.375 151.215 143.169C151.38 142.996 151.586 142.864 151.833 142.856C152.361 142.847 152.723 143.325 152.789 143.803C152.838 144.166 152.707 144.569 152.295 144.594Z" fill="#8C664B"/>
<path d="M139.478 153.917C139.602 153.547 139.132 153.234 138.819 153.225C138.737 153.225 138.662 153.234 138.58 153.242C137.946 153.201 137.88 153.868 138.234 154.247C138.391 154.412 138.597 154.552 138.819 154.577C139.132 154.601 139.289 154.387 139.388 154.148C139.421 154.066 139.454 153.992 139.478 153.917Z" fill="#8C664B"/>
<path d="M148.976 143.795C148.696 143.968 148.391 143.993 148.127 143.91C148.111 143.91 148.102 143.91 148.086 143.919C147.789 143.927 147.501 143.77 147.303 143.564C146.957 143.21 146.718 142.559 147.048 142.114C147.509 141.488 148.679 141.867 149.132 142.304C149.586 142.757 149.528 143.457 148.976 143.795Z" fill="#8C664B"/>
<path d="M149.889 154.181C149.749 154.297 149.551 154.305 149.378 154.255C149.37 154.255 149.361 154.255 149.353 154.255C149.106 154.255 148.859 154.082 148.826 153.827C148.793 153.588 148.966 153.333 149.188 153.25C149.436 153.168 149.74 153.283 149.905 153.473C150.078 153.679 150.119 153.992 149.889 154.181Z" fill="#8C664B"/>
<path d="M155.177 154.049C154.847 154.049 154.542 153.472 154.979 153.472C155.309 153.464 155.613 154.049 155.177 154.049Z" fill="#8C664B"/>
<path d="M108.138 161.931C107.578 161.89 107.042 162.022 106.729 162.384C106.441 162.714 106.309 163.2 106.309 163.628C106.284 164.682 106.746 165.712 107.965 165.588C108.986 165.481 109.925 164.691 110.073 163.653C110.213 162.681 109.151 162.014 108.138 161.931Z" fill="#8C664B"/>
<path d="M111.532 170.308C111.458 170.3 111.392 170.324 111.334 170.357C111.169 170.357 111.029 170.489 110.963 170.629C110.914 170.745 110.922 170.893 111.013 170.992C111.087 171.074 111.194 171.14 111.309 171.14C111.565 171.148 111.738 170.918 111.771 170.679C111.795 170.514 111.729 170.316 111.532 170.308Z" fill="#8C664B"/>
<path d="M157.994 141.95C157.887 141.703 157.731 141.497 157.426 141.521C157.195 141.538 156.997 141.678 156.841 141.851C156.487 142.23 156.544 142.897 157.187 142.856C157.269 142.864 157.343 142.873 157.426 142.873C157.739 142.864 158.209 142.551 158.085 142.181C158.052 142.098 158.019 142.024 157.994 141.95Z" fill="#8C664B"/>
<path d="M111.944 167.219C111.754 167.219 111.573 167.557 111.828 167.557C112.018 167.557 112.199 167.219 111.944 167.219Z" fill="#8C664B"/>
<path d="M125.847 153.884C125.649 154.132 125.633 154.478 125.732 154.791C125.732 154.807 125.732 154.816 125.732 154.832C125.74 155.269 126.053 155.705 126.498 155.755C126.918 155.804 127.371 155.499 127.503 155.104C127.643 154.667 127.445 154.14 127.099 153.852C126.728 153.538 126.176 153.481 125.847 153.884Z" fill="#8C664B"/>
<path d="M126.061 151.216C126.061 151.504 126.58 151.768 126.571 151.389C126.571 151.1 126.061 150.837 126.061 151.216Z" fill="#8C664B"/>
<path d="M128.013 168.323C127.601 168.356 127.205 168.257 126.975 167.985C126.761 167.738 126.662 167.384 126.662 167.063C126.645 166.28 126.983 165.514 127.889 165.613C128.647 165.695 129.339 166.28 129.446 167.046C129.553 167.763 128.762 168.257 128.013 168.323Z" fill="#8C664B"/>
<path d="M134.743 158.094C134.627 158.102 134.528 158.069 134.438 158.02C134.182 158.02 133.968 157.822 133.869 157.599C133.787 157.418 133.812 157.196 133.943 157.047C134.067 156.915 134.224 156.825 134.405 156.817C134.792 156.808 135.064 157.163 135.114 157.517C135.146 157.781 135.048 158.077 134.743 158.094Z" fill="#8C664B"/>
<path d="M116.111 169.616C116.202 169.344 115.856 169.114 115.625 169.105C115.568 169.105 115.51 169.114 115.452 169.122C114.983 169.097 114.933 169.583 115.197 169.863C115.312 169.987 115.461 170.094 115.634 170.102C115.864 170.119 115.98 169.962 116.054 169.781C116.07 169.732 116.095 169.674 116.111 169.616Z" fill="#8C664B"/>
<path d="M124.711 146.538C124.867 146.785 124.892 147.048 124.818 147.287C124.818 147.304 124.818 147.312 124.826 147.32C124.834 147.584 124.702 147.839 124.521 148.012C124.208 148.317 123.639 148.54 123.244 148.251C122.692 147.848 123.005 146.818 123.392 146.414C123.788 146.01 124.406 146.051 124.711 146.538Z" fill="#8C664B"/>
<path d="M122.742 169.938C122.536 170.111 122.239 170.119 121.984 170.045C121.976 170.045 121.959 170.045 121.951 170.045C121.588 170.045 121.218 169.79 121.168 169.411C121.127 169.056 121.374 168.677 121.704 168.562C122.074 168.438 122.511 168.603 122.758 168.892C123.022 169.196 123.071 169.658 122.742 169.938Z" fill="#8C664B"/>
<path d="M106.573 170.909C106.235 170.703 105.881 170.678 105.56 170.777C105.543 170.777 105.527 170.769 105.51 170.769C105.156 170.761 104.819 170.942 104.58 171.189C104.168 171.617 103.888 172.383 104.275 172.911C104.827 173.652 106.211 173.207 106.754 172.68C107.306 172.153 107.24 171.321 106.573 170.909Z" fill="#8C664B"/>
<path d="M65.4642 170.151C65.3818 170.143 65.2994 170.168 65.2252 170.209C65.0275 170.209 64.8627 170.366 64.7885 170.531C64.7226 170.671 64.7391 170.844 64.8462 170.959C64.9369 171.058 65.0605 171.132 65.2005 171.14C65.5054 171.148 65.7114 170.868 65.7443 170.596C65.769 170.39 65.6949 170.16 65.4642 170.151Z" fill="#8C664B"/>
<path d="M65.9499 166.478C65.7274 166.478 65.5132 166.882 65.8098 166.882C66.0405 166.882 66.2465 166.478 65.9499 166.478Z" fill="#8C664B"/>
<path d="M88.8308 175.003C88.3448 175.044 87.8671 174.92 87.5953 174.607C87.3482 174.319 87.2246 173.891 87.2246 173.512C87.2081 172.581 87.6117 171.675 88.6825 171.79C89.5803 171.889 90.4039 172.581 90.5357 173.495C90.6593 174.344 89.7203 174.937 88.8308 175.003Z" fill="#8C664B"/>
<path d="M70.9005 169.328C71.0076 169.007 70.5956 168.727 70.3237 168.718C70.2496 168.718 70.1837 168.727 70.1177 168.735C69.5575 168.702 69.4998 169.287 69.8129 169.625C69.953 169.773 70.126 169.897 70.332 169.913C70.6039 169.929 70.744 169.748 70.8346 169.534C70.8593 169.46 70.884 169.394 70.9005 169.328Z" fill="#8C664B"/>
<path d="M78.7835 169.707C78.5363 169.913 78.1902 169.922 77.8771 169.831C77.8606 169.831 77.8524 169.831 77.8359 169.831C77.3992 169.831 76.9625 169.526 76.9048 169.073C76.8554 168.653 77.152 168.2 77.5475 168.068C77.9842 167.919 78.5115 168.117 78.8081 168.455C79.1213 168.826 79.1872 169.378 78.7835 169.707Z" fill="#8C664B"/>
</g>
<path d="M21.5464 93.2628C21.4146 92.4474 20.6569 91.8955 19.9568 91.5578C18.3671 90.7918 16.1597 90.8165 14.7183 91.9037C13.9522 92.4803 13.4993 93.444 13.837 94.3912C14.1335 95.2231 14.9242 95.6267 15.7726 95.4702C15.8302 95.4619 15.8879 95.4372 15.9373 95.396C17.1975 95.9644 18.8531 95.9149 20.0144 95.4125C20.8463 95.0501 21.7029 94.2512 21.5464 93.2628Z" fill="#5A3B25"/>
<path d="M33.7864 91.6648C32.3779 90.7917 30.5247 90.627 28.9103 90.6517C27.1559 90.6764 24.8414 90.9647 23.7048 92.4637C22.7164 93.7733 23.7707 94.7206 24.9567 95.2642C25.4015 95.9149 26.3652 96.3349 27.0076 96.5573C29.3139 97.3728 33.4487 97.9328 34.8901 95.3548C35.6396 94.0122 35.0383 92.439 33.7864 91.6648Z" fill="#5A3B25"/>
<path d="M54.9711 92.8757C53.5297 91.9532 51.4541 92.3898 50.0374 93.164C49.362 93.5265 48.6042 94.1607 48.5466 95.0008C48.5383 95.1408 48.5548 95.2644 48.5796 95.3797C48.5548 95.7256 48.7031 96.0469 49.1396 96.2116C49.362 96.294 49.6009 96.3598 49.848 96.401C49.8727 96.4093 49.8974 96.4175 49.9221 96.4175C49.9468 96.4257 49.9798 96.4257 50.0127 96.4257C51.207 96.6069 52.6072 96.4093 53.6698 96.1045C54.4193 95.8904 55.2017 95.528 55.5971 94.8196C56.0336 94.0289 55.6795 93.3205 54.9711 92.8757Z" fill="#5A3B25"/>
<path d="M72.5804 90.0757C70.0847 88.6013 67.0454 88.7907 64.6321 90.3475C63.6849 90.957 62.5895 91.9536 62.433 93.1397C62.2765 94.3505 63.2319 94.3916 64.1461 94.5234C64.1544 94.5234 64.1544 94.5234 64.1626 94.5234C65.4311 95.3553 67.2431 95.4459 68.6845 95.3636C70.3071 95.273 72.2757 94.9764 73.47 93.7657C74.8208 92.3984 74.0136 90.9241 72.5804 90.0757Z" fill="#5A3B25"/>
<path d="M85.6021 92.7522C84.5973 91.0719 81.9781 90.8001 80.2319 90.8578C78.8564 90.899 75.1334 91.9944 76.3936 94.0618C76.3936 94.3007 76.4925 94.5313 76.7148 94.7372C78.0574 95.948 80.7014 96.121 82.3981 96.0057C83.9466 95.8904 86.8294 94.8196 85.6021 92.7522Z" fill="#5A3B25"/>
<path d="M105.123 92.6204C103.155 91.7721 100.494 91.5744 98.4268 92.1263C97.4466 92.3898 96.1205 93.0323 95.7746 94.0783C95.7005 94.2925 95.6922 94.4819 95.7169 94.6384C95.6263 94.7373 95.544 94.8361 95.4616 94.9349C95.0333 95.4868 95.2804 96.154 95.8652 96.4176C98.4762 97.5954 101.631 97.513 104.341 96.6729C105.296 96.3764 106.474 95.8739 106.795 94.8278C107.149 93.6747 106.037 93.0158 105.123 92.6204Z" fill="#5A3B25"/>
<path d="M122.651 92.4888C120.863 91.2533 118.326 91.451 116.3 92.3405C115.131 92.4229 114.052 92.9253 113.146 94.1196C112.964 94.3667 112.899 94.8033 113.096 95.0586C115.106 97.6696 120.13 95.7834 122.297 94.2926C122.815 93.9302 123.351 92.9748 122.651 92.4888Z" fill="#5A3B25"/>
<path d="M135.961 92.3899C134.338 90.7591 131.991 90.7344 129.841 90.7344C128.449 90.7344 124.685 91.4427 126.332 93.6666C127.279 94.935 129.454 95.3468 130.912 95.4951C132.732 95.6681 134.948 95.2233 135.895 93.4689C136.051 93.1889 136.241 92.6782 135.961 92.3899Z" fill="#5A3B25"/>
<path d="M141.076 90.8577C139.478 90.3882 137.049 90.8577 136.48 92.6533C136.192 93.5675 136.81 94.6547 137.584 95.1324C138.581 95.7502 139.923 95.2148 140.879 94.6877C142.304 93.897 143.127 91.459 141.076 90.8577Z" fill="#5A3B25"/>
<path d="M155.819 95.8737C155.968 95.5854 156.009 95.256 155.803 94.9759C155.795 94.9677 155.786 94.9512 155.778 94.943C155.333 93.5263 153.118 93.7816 151.956 94.597C151.594 94.8524 151.297 95.2971 151.388 95.7584C151.388 95.7666 151.396 95.7749 151.396 95.7831C151.38 95.9643 151.404 96.162 151.503 96.3679C151.668 96.7221 151.948 96.8786 152.269 96.9115C153.167 97.3398 154.501 97.0598 155.284 96.4997C155.44 96.3926 155.597 96.2279 155.729 96.0385C155.77 95.989 155.803 95.9314 155.819 95.8737Z" fill="#5A3B25"/>
<path d="M174.048 92.2088C173.446 91.1215 171.947 90.8168 170.778 90.7509C169.979 90.4626 168.998 90.4379 168.298 90.4956C166.849 90.6027 164.402 91.4098 164.699 93.3125C164.946 94.9104 167.178 94.9928 168.414 94.968C170.102 94.9351 171.997 94.7292 173.479 93.8726C174.031 93.5513 174.36 92.7853 174.048 92.2088Z" fill="#5A3B25"/>
<path d="M177.77 92.3901C177.647 91.9618 177.193 91.7558 176.724 91.8629C176.362 91.9535 176.057 92.1182 175.81 92.3571C175.678 92.4559 175.546 92.5713 175.439 92.6948C175.398 92.7442 175.357 92.7936 175.316 92.8431C175.307 92.8595 175.291 92.876 175.274 92.8925H175.283C175.258 92.9254 175.241 92.9666 175.217 93.0078C175.036 93.3785 175.11 93.8809 175.571 93.9962C175.596 94.0044 175.612 94.0044 175.629 94.0044C175.719 94.0538 175.818 94.095 175.925 94.1115C176.419 94.1856 176.996 93.9138 177.301 93.5102C177.366 93.4526 177.432 93.3949 177.49 93.329C177.688 93.2632 177.877 93.0984 177.951 92.9254C178.05 92.7442 178.034 92.4395 177.77 92.3901Z" fill="#5A3B25"/>
<path d="M24.5611 94.8033C24.1163 93.5514 22.6667 93.4772 21.3983 93.8808C20.3358 93.8726 19.2403 94.2103 18.7131 95.1822C17.7495 96.9696 20.3522 97.3237 21.5465 97.3072C22.8562 97.2825 25.1953 96.6071 24.5611 94.8033Z" fill="#82583D"/>
<path d="M39.3619 95.1243C39.0983 94.9761 38.8183 94.8937 38.53 94.9102C38.4312 94.8855 38.3241 94.869 38.2088 94.8607C37.4922 94.8443 36.9568 95.3467 36.6685 95.9562C36.5532 96.2033 36.652 96.4998 36.858 96.6563C37.5004 97.1423 38.4394 96.9776 39.0736 96.5657C39.4607 96.3104 39.9632 95.462 39.3619 95.1243Z" fill="#82583D"/>
<path d="M56.8403 94.2926C56.5767 94.1361 56.3131 94.0537 56.0166 94.0784C55.4977 93.9796 54.9129 94.2019 54.5093 94.5149C54.1799 94.7703 53.9081 95.1492 53.9905 95.5775C54.1058 96.1623 54.6494 96.467 55.2095 96.4588C56.0496 96.4506 56.7332 95.9069 57.0709 95.1574C57.2027 94.8774 57.1121 94.4573 56.8403 94.2926Z" fill="#82583D"/>
<path d="M75.4381 92.5298C75.2981 92.431 75.1333 92.3487 74.9521 92.291C74.9027 92.2333 74.8533 92.1674 74.7874 92.1098C74.3344 91.7227 73.6261 91.7227 73.066 91.805C72.0446 91.9615 70.4385 92.9335 71.2457 94.1525C71.8058 95.0009 73.2883 95.1161 74.1861 94.902C74.8039 94.7537 75.3804 94.4078 75.677 93.8312C75.8993 93.3782 75.8747 92.8428 75.4381 92.5298Z" fill="#82583D"/>
<path d="M92.4304 94.1032C92.2821 93.9137 92.0515 93.7655 91.7797 93.6749C91.755 93.642 91.722 93.609 91.6891 93.5761C91.3267 93.2054 90.7254 93.1148 90.223 93.1231C89.2181 93.1478 87.7108 93.5843 87.3896 94.688C86.9943 96.0388 89.0122 96.1953 89.8688 96.2282C90.5607 96.2529 91.335 96.2035 91.928 95.8164C92.4798 95.454 92.8834 94.7044 92.4304 94.1032Z" fill="#82583D"/>
<path d="M111.342 94.4981C110.526 93.9051 109.2 94.0451 108.451 94.6875C108.105 94.984 107.66 95.5277 107.998 95.9972C108.113 96.1619 108.278 96.2689 108.451 96.3184C108.772 96.4749 109.2 96.4914 109.522 96.4667C110.172 96.409 110.831 96.1701 111.276 95.6759C111.572 95.3629 111.762 94.8029 111.342 94.4981Z" fill="#82583D"/>
<path d="M126.308 92.9579C126.11 92.6861 125.731 92.5378 125.295 92.5378C124.43 92.5378 123.376 92.9497 123.063 93.831C122.923 94.2181 123.005 94.6217 123.277 94.9347C123.598 95.3053 123.977 95.3959 124.447 95.4536C125.443 95.5771 126.843 95.3712 127.189 94.2511C127.412 93.4851 126.942 93.0897 126.308 92.9579Z" fill="#82583D"/>
<path d="M144.766 93.889C144.593 93.7325 144.387 93.6007 144.165 93.5018C143.885 93.263 143.506 93.0982 143.168 93.0159C142.18 92.7935 140.804 93.0159 140.458 94.136C140.178 95.0585 141.208 95.5115 141.933 95.6516C142.888 95.8328 144 95.7751 144.708 95.0174C145.021 94.6797 145.128 94.2267 144.766 93.889Z" fill="#82583D"/>
<path d="M160.539 94.0207C159.806 93.37 158.323 93.3371 157.467 93.7242C157.22 93.8395 156.997 94.029 156.865 94.2514C156.552 94.4985 156.363 94.8526 156.462 95.2891C156.66 96.1293 157.722 96.1046 158.397 96.0058C159.238 95.8905 160.111 95.561 160.63 94.8691C160.835 94.5973 160.786 94.2431 160.539 94.0207Z" fill="#82583D"/>
<path d="M174.872 93.6501C174.591 93.2463 174.155 93.164 173.734 93.2628C173.322 93.1392 172.845 93.4029 172.573 93.7078C172.424 93.8725 172.227 94.1774 172.334 94.4163C172.482 94.7542 172.68 95.0261 173.051 95.1332C173.421 95.2403 173.891 95.1662 174.221 94.9767C174.501 94.8201 174.731 94.6553 174.872 94.3587C174.979 94.1362 175.02 93.8725 174.872 93.6501Z" fill="#82583D"/>
<path d="M142.774 8.74707C126.325 10.1802 109.078 18.5816 100.643 33.2592C97.1017 39.4202 95.0014 46.7425 94.9108 53.8672C94.7873 63.6934 101.574 72.3501 112.109 70.118C118.97 68.6684 124.727 63.2075 128.615 57.6231C131.564 53.3894 133.903 48.777 135.814 43.9915C137.716 39.2472 139.224 34.3629 140.665 29.4621C141.382 27.0323 142.057 24.5861 142.815 22.1645C143.4 20.2948 144.149 18.4663 145.105 16.7613C146.818 13.7138 149.231 11.1357 152.196 9.28244C152.633 9.01064 153.069 8.76355 153.522 8.52469C149.948 8.26936 146.324 8.44232 142.774 8.74707Z" fill="#67AD14"/>
<path d="M147.271 12.3384C145.871 13.9116 144.635 15.633 143.515 17.4286C142.502 19.0512 141.588 20.7233 140.756 22.4447C139.907 24.1909 139.158 25.9782 138.408 27.7655C137.576 29.7423 136.753 31.7274 135.88 33.6877C134.982 35.7056 134.026 37.7071 132.964 39.6427C131.926 41.5372 130.789 43.3739 129.48 45.0954C128.22 46.7427 126.811 48.2829 125.197 49.5843C123.607 50.8692 121.812 51.9565 119.876 52.6401C118.171 53.2414 116.153 53.4226 114.687 52.1788C114.003 51.6023 113.542 50.8116 113.229 49.9797C112.792 48.8265 112.57 47.5581 112.562 46.3226C112.537 43.6045 113.542 40.9853 114.778 38.6132C115.412 37.4024 116.112 36.2328 116.845 35.0796C117.537 33.9842 118.253 32.897 119.011 31.8427C120.485 29.8 122.083 27.8479 123.805 26.0111C125.502 24.1991 127.314 22.4859 129.216 20.888C131.094 19.3148 133.063 17.8487 135.097 16.4896C137.156 15.1224 139.281 13.8539 141.456 12.6926C143.647 11.523 145.887 10.444 148.16 9.44735C148.984 9.08494 149.816 8.73901 150.648 8.40131C150.22 8.39307 149.791 8.39307 149.363 8.39307H149.355C145.393 9.54619 141.555 11.0947 137.856 12.9232C134.249 14.7105 130.798 16.7944 127.577 19.2159C124.077 21.8434 120.84 24.8251 117.891 28.0538C114.95 31.2661 112.315 34.7337 109.934 38.3743C108.682 40.2934 107.488 42.2208 106.45 44.2635C105.396 46.3391 104.465 48.4724 103.609 50.6386C102.793 52.6895 102.027 54.7651 101.344 56.8572C101.105 57.582 100.874 58.3398 100.471 58.9905C100.199 59.427 99.7951 59.8471 99.2432 59.8142C98.4772 59.7647 97.8348 59.0317 97.39 58.4881C96.9205 57.9115 96.5746 57.2443 96.3275 56.5442C95.7427 54.9134 95.6356 53.1343 95.6603 51.4211C95.6851 49.7161 95.8745 48.0194 96.1134 46.3308C96.3357 44.7412 96.5993 43.1762 96.9617 41.6195C95.6851 45.5896 94.9685 49.7573 94.9108 53.8591C94.7873 63.6854 101.574 72.342 112.109 70.1099C118.97 68.6603 124.727 63.1994 128.615 57.615C131.564 53.3814 133.903 48.7689 135.814 43.9834C137.716 39.2391 139.224 34.3548 140.665 29.4541C141.382 27.0243 142.057 24.578 142.815 22.1564C143.4 20.2867 144.149 18.4582 145.105 16.7532C146.818 13.7057 149.231 11.1276 152.196 9.27439C152.633 9.00258 153.069 8.75547 153.522 8.51661C152.921 8.47543 152.32 8.44249 151.719 8.42602C150.055 9.49678 148.589 10.8641 147.271 12.3384Z" fill="#409100"/>
<path d="M81.6494 53.5459C80.2245 51.2973 78.5689 49.197 76.7569 47.2449C75.0189 45.6305 73.1657 44.1479 71.2054 42.8054C67.4578 40.6721 63.4795 38.8847 59.3035 37.7646C57.0879 37.1715 54.8393 36.8338 52.566 36.5785C50.3009 36.3314 48.0276 36.1831 45.7543 36.1667C41.2242 36.1255 36.6693 36.5703 32.271 37.6657C29.5117 38.3576 26.8184 39.3048 24.2485 40.5156C27.5926 40.4497 30.566 42.5583 32.864 44.8398C35.6562 47.6073 37.8636 50.9267 40.2687 54.0319C42.8797 57.4089 45.6225 60.7035 48.7277 63.6357C51.8412 66.5762 55.3582 69.1872 59.2376 71.0322C62.2522 72.4571 65.4809 73.495 68.7674 74.0633C72.1361 74.6398 75.752 74.7387 79.0137 73.5608C80.5622 73.0007 81.9953 72.1277 83.1485 70.9498C84.6146 69.459 85.5042 67.5152 85.6854 65.4313C86.0478 61.1648 83.8651 57.0382 81.6494 53.5459Z" fill="#67AD14"/>
<path d="M81.6494 53.5457C80.2244 51.2971 78.5689 49.1968 76.7568 47.2447C75.0189 45.6303 73.1657 44.1478 71.2054 42.8052C67.4577 40.6719 63.4794 38.8846 59.3035 37.7644C57.0878 37.1714 54.8392 36.8337 52.5659 36.5783C50.3009 36.3312 48.0276 36.183 45.7543 36.1665C45.7378 36.1665 45.7213 36.1665 45.7048 36.1665C47.2286 36.3559 48.7359 36.6277 50.2185 37.0066C52.9531 37.7067 55.5641 38.761 58.035 40.1283C60.3578 41.4215 62.5817 42.9205 64.7314 44.4855C66.4776 45.7539 68.5285 47.1047 69.2945 49.238C69.3192 49.3039 69.2533 49.3863 69.1874 49.378C68.2484 49.3039 67.3589 48.8509 66.5352 48.4143C65.6621 47.9448 64.8303 47.4012 63.9242 46.9894C61.8321 46.0257 59.6906 45.1526 57.4914 44.4443C55.6217 43.843 53.7026 43.3735 51.7917 42.8958C49.8726 42.4181 47.937 41.9733 45.9766 41.7015C44.3046 41.4709 42.5749 41.3391 40.8947 41.5532C41.6772 41.7592 42.4761 41.9239 43.2668 42.0804C45.2848 42.4675 47.3522 42.7558 49.2878 43.4641C51.1904 44.156 53.0354 44.9797 54.8227 45.9269C57.582 47.3848 60.2177 49.1062 62.6475 51.083C64.6243 52.6891 66.5105 54.4682 68.0672 56.4944C69.418 58.2571 70.7688 60.5139 70.5135 62.8366C70.39 63.9403 69.8793 64.9287 69.1215 65.7277C68.1249 66.7737 66.84 67.3503 65.4151 67.5232C63.8172 67.7209 62.1863 67.4491 60.646 67.0208C59.147 66.609 57.6974 66.0242 56.2971 65.3405C52.9284 63.7097 49.9302 61.4611 47.2204 58.8995C45.8119 57.5652 44.4776 56.1485 43.1927 54.6906C41.9984 53.3398 40.8947 51.9231 39.7663 50.5229C37.5424 47.7554 35.1538 44.955 32.0321 43.1759C31.0519 42.6158 30.0141 42.1463 28.9434 41.7921C30.393 42.5993 31.7109 43.6947 32.864 44.8314C35.6562 47.5989 37.8636 50.9183 40.2687 54.0234C42.8797 57.4005 45.6225 60.6951 48.7277 63.6273C51.8411 66.5678 55.3582 69.1788 59.2376 71.0238C62.2522 72.4487 65.4809 73.4865 68.7673 74.0549C72.1361 74.6314 75.7519 74.7303 79.0136 73.5524C80.5621 72.9923 81.9953 72.1193 83.1484 70.9414C84.6146 69.4506 85.5041 67.5068 85.6853 65.4229C86.0477 61.1646 83.865 57.0381 81.6494 53.5457Z" fill="#409100"/>
<path d="M115.642 31.5623C113.212 34.5522 111.12 37.8056 109.291 41.1991C107.323 44.8397 105.667 48.6368 104.086 52.4668C101.722 58.1912 99.531 64.2287 98.6497 70.4473C97.7025 77.1272 97.1506 83.9224 96.8871 90.6681C96.3105 88.5843 95.5774 86.5416 94.8197 84.5731C94.4078 83.5023 93.9795 82.4315 93.5348 81.3773C92.0357 77.2754 90.199 73.3054 87.901 69.5907C86.6243 67.5151 85.2241 65.5136 83.6838 63.6191C83.2226 62.9684 82.7613 62.3342 82.2754 61.7C80.7928 59.7562 79.0713 57.9112 77.1934 56.1897C75.406 54.806 73.5528 53.4964 71.6666 52.2526C69.7145 50.9677 67.7625 49.6746 65.7116 48.5544C63.5536 47.3766 61.2802 46.3387 58.8916 45.7292C57.6726 45.4162 56.3959 45.2186 55.1357 45.2515C56.2559 45.4574 57.3267 46.1576 58.3151 46.6435C59.74 47.3354 61.1073 48.1261 62.4993 48.8674C65.2009 50.317 67.6801 51.8985 69.9946 53.9082C74.5 57.8206 78.6101 62.1119 82.0118 67.0291C85.4876 72.0617 88.0492 77.5802 90.479 83.1728C91.7475 86.0886 92.9088 89.062 93.7654 92.1343C94.655 95.2889 95.1657 98.5423 95.5775 101.796C96.0552 105.568 96.4011 109.365 96.5823 113.162C96.64 114.406 96.6811 115.65 96.7223 116.902C97.6695 116.44 98.7733 116.267 99.7781 116.399C99.7781 116.35 99.7781 116.309 99.7781 116.259C99.8605 113.335 99.704 110.42 99.4404 107.504C99.4157 107.257 99.391 107.01 99.3745 106.762C99.3663 106.169 99.358 105.585 99.3498 104.992C99.3251 103.542 99.3004 102.092 99.2757 100.643C99.2757 100.618 99.284 100.602 99.284 100.577C99.5311 97.7187 99.3992 94.8935 99.4157 92.019C99.4322 89.1609 99.6546 86.3027 99.8935 83.4611C100.355 77.9755 101.071 72.49 102.175 67.095C103.279 61.7082 104.72 56.3627 106.664 51.2231C108.567 46.174 110.98 41.3556 113.64 36.669C115.09 34.1239 116.77 31.7023 118.632 29.4372C119.505 28.3747 120.468 27.3946 121.44 26.4144C122.19 25.6567 122.775 24.8 123.384 23.9517C120.526 26.1755 117.932 28.7454 115.642 31.5623Z" fill="#405621"/>
<path d="M124.653 16.3249C124.167 15.5753 123.154 15.5506 122.363 15.6577C119.966 15.9872 117.676 17.478 115.815 18.9276C115.049 19.5289 112.578 21.2339 112.743 22.5847C112.677 22.8812 112.668 23.1777 112.726 23.4907C113.031 24.998 114.802 24.9156 115.955 24.5779C117.726 24.059 119.373 23.0789 120.872 22.0246C122.182 21.1021 123.656 19.9984 124.488 18.5899C124.867 17.9392 125.089 17.0085 124.653 16.3249Z" fill="#92C10B"/>
<path d="M108.856 28.4654C108.848 28.4242 108.823 28.383 108.79 28.3501C108.65 28.21 108.419 28.2677 108.271 28.3665C107.669 28.4324 107.2 28.9103 107.002 29.4789C106.969 29.5778 106.961 29.6766 106.961 29.7837C106.812 30.1298 107.027 30.4594 107.422 30.5006C107.744 30.5335 108.131 30.344 108.386 30.1628C108.65 29.9732 108.839 29.7178 109.004 29.4459C109.243 29.0587 109.177 28.6467 108.856 28.4654Z" fill="#92C10B"/>
<path d="M48.2911 49.749C47.6816 48.7936 46.8908 47.9617 46.0754 47.1792C45.1365 46.2732 44.0986 45.3754 42.8796 44.8812C41.5947 44.3623 40.1781 44.7741 39.5191 46.0426C38.9343 47.1627 39.3955 48.2582 40.0462 49.2384C41.1829 50.9351 43.5715 53.3979 45.8942 53.5461C46.3473 53.6697 46.8085 53.7191 47.2533 53.6285C48.0275 53.4637 48.7029 52.8131 48.9006 52.0471C49.0983 51.2234 48.7194 50.4244 48.2911 49.749Z" fill="#92C10B"/>
<path d="M52.3279 56.371C52.2949 56.2309 52.196 56.0908 52.0807 56.0084C51.9983 55.9507 51.9159 55.926 51.8253 55.9095H51.8335C51.8087 55.9013 51.7841 55.9013 51.7593 55.893C51.6852 55.8848 51.611 55.8683 51.5451 55.8601C51.4709 55.8683 51.3886 55.8766 51.3144 55.8848C51.1084 55.8436 50.8694 55.9178 50.7129 56.0331C50.614 56.1073 50.5234 56.1979 50.4575 56.2968C50.3916 56.3957 50.3339 56.5769 50.3586 56.7005C50.3092 56.8324 50.2927 56.9724 50.3339 57.1043C50.3751 57.2443 50.4328 57.3597 50.5399 57.4586C50.5646 57.4998 50.5893 57.5245 50.6305 57.541C50.7212 57.6069 50.8283 57.6398 50.9436 57.6481C50.9848 57.6563 51.0177 57.6563 51.0589 57.6563C51.1743 57.6811 51.2897 57.6811 51.405 57.6563C51.5698 57.6151 51.7181 57.5492 51.8582 57.4586C52.0724 57.3185 52.196 57.1208 52.2949 56.9065C52.3526 56.75 52.3691 56.544 52.3279 56.371Z" fill="#92C10B"/>
<path d="M106.837 120.93C109.258 121.045 109.761 121.276 112.792 122.775C115.831 124.274 116.828 128.153 117.783 131.456C117.742 128.919 115.749 123.582 114.25 122.116C112.751 120.658 109.58 120.057 106.713 120.057C103.839 120.057 103.032 119.142 101.689 115.386C99.5393 109.176 99.218 103.089 99.0039 95.2644C97.6613 95.3385 96.327 95.4374 95.0174 95.5197C95.4127 108.616 95.6104 110.609 96.3517 113.212C97.1424 115.979 96.8459 117.759 94.6714 120.526C92.497 123.294 89.8942 123.821 86.0889 122.725C80.5374 120.534 79.0713 122.14 79.0713 122.14C81.6741 121.333 82.4566 122.404 84.5569 122.709C86.6572 123.005 88.634 123.788 87.2502 124.265C83.5355 125.583 80.661 127.264 79.1619 131.456C80.8999 127.857 85.2734 125.641 86.1712 125.641C87.069 125.641 87.3079 129.718 86.4678 132.659C87.728 130.624 87.4891 127.865 87.2502 126.728C87.0114 125.592 86.8878 124.867 88.3869 124.513C92.1016 124.455 96.1211 121.992 97.7931 118.22C100.132 127.807 97.4307 131.53 95.9316 134.339C94.4326 137.156 94.136 137.395 93.2959 141.414C92.4558 145.434 93.8313 147.765 95.9893 149.387C94.968 147.715 94.4902 144.536 94.4326 142.979C94.3749 141.422 96.4093 138.424 97.3071 139.083C99.3416 141.365 100.066 144.536 100.907 147.18C100.849 144.42 100.009 143.16 98.6909 140.104C97.373 137.049 97.6696 136.39 99.531 133.507C101.384 130.632 101.928 127.453 101.928 127.453C101.928 127.453 102.587 129.553 105.222 133.145C107.858 136.736 107.916 142.493 107.916 142.493C107.916 142.493 108.814 141.175 108.155 136.859C110.37 137.279 113.369 140.154 114.629 142.732C113.426 137.156 107.792 136.258 107.553 135.484C107.257 134.042 107.076 133.622 105.618 130.616C104.02 127.305 102.472 123.508 102.43 118.665C103.691 120.93 104.415 120.814 106.837 120.93Z" fill="#EBD9B3"/>
<path d="M106.714 119.834C104.028 119.834 103.262 119.118 101.912 115.32C99.7701 109.127 99.4571 103.163 99.2347 95.2561C99.0782 95.2643 98.9217 95.2726 98.7735 95.2808C98.9959 103.221 99.3088 109.217 101.475 115.469C102.809 119.208 103.658 120.295 106.714 120.295C109.292 120.295 112.586 120.823 114.094 122.289C114.851 123.03 115.749 124.809 116.449 126.695C115.667 124.933 114.596 123.401 112.899 122.56C109.893 121.078 109.358 120.814 106.854 120.691L106.425 120.674C104.383 120.584 103.765 120.559 102.669 118.549C102.62 118.459 102.513 118.409 102.406 118.434C102.299 118.459 102.233 118.557 102.233 118.656C102.274 123.491 103.798 127.305 105.437 130.706C106.862 133.655 107.051 134.083 107.356 135.541C107.447 135.846 107.875 136.052 108.633 136.423C110.041 137.106 112.446 138.259 113.739 140.837C112.265 138.861 110.058 136.974 108.213 136.629C108.138 136.612 108.064 136.637 108.007 136.686C107.949 136.736 107.924 136.818 107.941 136.892C108.254 138.943 108.204 140.294 108.081 141.15C107.9 139.215 107.315 135.591 105.42 133.004C102.842 129.487 102.167 127.395 102.159 127.379C102.126 127.28 102.035 127.189 101.92 127.214C101.813 127.222 101.722 127.297 101.706 127.404C101.697 127.437 101.146 130.566 99.3418 133.367C97.4639 136.274 97.1179 136.999 98.4852 140.179C98.5181 140.261 98.5511 140.343 98.5922 140.417C98.2628 139.874 97.8921 139.363 97.4556 138.877C97.2744 138.745 96.9696 138.638 96.5249 138.885C95.4376 139.462 94.1692 141.719 94.2104 142.971C94.2598 144.305 94.6057 146.718 95.3141 148.489C93.4691 146.718 92.909 144.453 93.535 141.455C94.268 137.93 94.5728 137.378 95.6765 135.319C95.8165 135.055 95.973 134.767 96.146 134.446C96.2613 134.223 96.3848 134.001 96.5166 133.77C98.0733 130.954 100.207 127.091 98.0239 118.162C97.9992 118.063 97.9168 117.997 97.818 117.989C97.8098 117.989 97.8016 117.989 97.7933 117.989C97.7027 117.989 97.6203 118.039 97.5792 118.129C96.0224 121.638 92.1512 124.224 88.3294 124.29C86.9127 124.628 86.781 125.353 86.9045 126.185C86.8386 125.987 86.7563 125.822 86.6657 125.699C86.4927 125.468 86.295 125.419 86.1714 125.419C85.3725 125.419 82.778 126.712 80.7765 128.804C82.3085 126.654 84.5077 125.493 87.3328 124.488C87.7611 124.34 87.967 124.125 87.9423 123.854C87.9259 123.639 87.7364 123.458 87.4728 123.293C90.7016 123.903 92.9584 123.079 94.8528 120.666C97.0026 117.931 97.4226 116.103 96.5743 113.146C95.8494 110.609 95.6518 108.912 95.2482 95.5032C95.0917 95.5114 94.9352 95.5197 94.7869 95.5362C95.1741 108.402 95.3553 110.584 96.1295 113.278C96.9285 116.062 96.5249 117.791 94.4904 120.386C92.4313 123.005 90.0179 123.623 86.1797 122.511C80.5376 120.287 78.9727 121.918 78.9068 121.984C78.8327 122.058 78.8244 122.173 78.8821 122.264C78.9397 122.355 79.0468 122.387 79.1456 122.363C80.8259 121.844 81.7155 122.132 82.7368 122.478C83.2722 122.651 83.8158 122.84 84.5241 122.939C86.3609 123.203 87.4234 123.705 87.4811 123.887C87.4811 123.887 87.4399 123.961 87.1763 124.051C83.3216 125.419 80.4388 127.189 78.948 131.382C78.9068 131.497 78.9644 131.629 79.0797 131.67C79.195 131.72 79.3268 131.67 79.3762 131.555C81.0565 128.071 85.3643 125.872 86.1797 125.872C86.2291 125.872 86.2868 125.937 86.3033 125.97C86.888 126.745 86.9704 130.089 86.2538 132.593C86.2209 132.708 86.2785 132.823 86.3856 132.864C86.4927 132.914 86.6163 132.873 86.6739 132.774C88.1894 130.319 87.5634 127.033 87.4811 126.671C87.234 125.509 87.1845 125.031 88.3953 124.735C92.1842 124.677 95.9318 122.305 97.7274 118.895C99.6136 127.198 97.5956 130.855 96.113 133.54C95.9812 133.779 95.8577 134.001 95.7424 134.223C95.5694 134.545 95.4129 134.833 95.2729 135.097C94.1692 137.147 93.8315 137.765 93.082 141.356C92.3324 144.964 93.2137 147.575 95.8659 149.56C95.9071 149.593 95.9565 149.609 96.0059 149.609C96.0636 149.609 96.1213 149.593 96.1624 149.552C96.2448 149.478 96.2613 149.354 96.2037 149.255C95.2565 147.699 94.7458 144.635 94.6799 142.954C94.6387 141.785 95.8906 139.742 96.7473 139.297C96.9367 139.198 97.0932 139.182 97.1508 139.223C98.8476 141.118 99.6301 143.712 100.322 146.002C100.446 146.422 100.569 146.834 100.701 147.229C100.734 147.336 100.849 147.402 100.956 147.386C101.071 147.369 101.154 147.27 101.154 147.155C101.104 144.865 100.536 143.613 99.6053 141.538C99.3912 141.076 99.1688 140.566 98.9217 139.997C97.6368 137.024 97.9086 136.464 99.7454 133.622C101.08 131.555 101.739 129.364 102.019 128.235C102.422 129.141 103.304 130.871 105.058 133.276C107.62 136.769 107.71 142.435 107.71 142.493C107.71 142.592 107.776 142.682 107.875 142.715C107.974 142.74 108.081 142.707 108.13 142.625C108.171 142.567 109.028 141.249 108.46 137.164C110.461 137.749 113.229 140.343 114.448 142.831C114.497 142.938 114.621 142.987 114.728 142.946C114.835 142.905 114.901 142.79 114.876 142.674C113.97 138.482 110.634 136.867 108.839 136.003C108.377 135.78 107.858 135.525 107.809 135.426C107.496 133.935 107.307 133.499 105.857 130.501C104.341 127.362 102.925 123.862 102.719 119.538C103.707 121.02 104.556 121.053 106.401 121.135L106.829 121.152C109.234 121.267 109.695 121.498 112.693 122.972C115.502 124.356 116.532 127.922 117.438 131.069L117.569 131.514C117.602 131.629 117.709 131.703 117.825 131.678C117.94 131.662 118.022 131.563 118.022 131.448C117.981 128.837 115.93 123.417 114.415 121.951C113.048 120.625 110.165 119.834 106.714 119.834ZM84.59 122.486C83.9229 122.387 83.3957 122.215 82.885 122.042C82.778 122.009 82.6791 121.976 82.572 121.943C83.2145 122.05 83.964 122.231 84.8371 122.519C84.7218 122.503 84.6394 122.495 84.59 122.486Z" fill="#BD7A43"/>
<path d="M106.837 120.93C109.258 121.045 109.761 121.276 112.792 122.775C115.831 124.274 116.828 128.153 117.783 131.456C117.742 128.919 115.749 123.582 114.25 122.116C112.751 120.658 109.579 120.057 106.713 120.057C103.838 120.057 103.031 119.142 101.689 115.386C99.539 109.176 99.2178 103.089 99.0036 95.2644C98.3282 95.3056 97.6446 95.3467 96.9774 95.3962C97.0927 100.206 97.5293 105.988 98.7236 111.589C101.837 121.523 101.54 127.601 98.427 132.642C95.6925 137.082 92.8427 142.773 95.429 148.119C94.8112 146.405 94.4982 144.198 94.4488 142.979C94.3911 141.422 96.4256 138.424 97.3234 139.083C99.3578 141.365 100.083 144.536 100.923 147.18C100.865 144.42 100.025 143.16 98.7071 140.104C97.3893 137.049 97.6858 136.39 99.5473 133.507C101.4 130.632 101.944 127.453 101.944 127.453C101.944 127.453 102.603 129.553 105.239 133.145C107.874 136.736 107.932 142.493 107.932 142.493C107.932 142.493 108.83 141.175 108.171 136.859C110.387 137.279 113.385 140.154 114.645 142.732C113.442 137.156 107.809 136.258 107.57 135.484C107.273 134.042 107.092 133.622 105.634 130.616C104.036 127.305 102.488 123.508 102.447 118.665C103.69 120.93 104.415 120.814 106.837 120.93Z" fill="#EBD9B3"/>
<path d="M103.723 130.954C103.723 130.954 104.25 133.375 104.102 134.397C103.954 135.418 100.733 139.808 101.985 143.251C102.29 139.577 103.534 136.324 104.481 135.187C105.428 134.051 105.049 132.766 105.049 132.766L103.723 130.954Z" fill="#EBD9B3"/>
<path d="M101.986 143.49C101.887 143.49 101.805 143.432 101.772 143.333C100.808 140.681 102.373 137.551 103.304 135.681C103.592 135.097 103.847 134.594 103.88 134.364C104.02 133.392 103.51 131.028 103.502 131.003C103.477 130.896 103.534 130.789 103.633 130.74C103.732 130.69 103.847 130.723 103.913 130.814L105.239 132.626C105.256 132.65 105.264 132.675 105.272 132.7C105.289 132.757 105.676 134.117 104.663 135.336C103.691 136.505 102.505 139.792 102.217 143.267C102.208 143.374 102.126 143.465 102.019 143.482C102.002 143.49 101.994 143.49 101.986 143.49ZM104.144 131.926C104.284 132.733 104.424 133.812 104.333 134.429C104.292 134.726 104.045 135.212 103.716 135.887C102.991 137.345 101.862 139.602 101.937 141.719C102.406 138.663 103.444 136.085 104.309 135.039C105.083 134.108 104.885 133.07 104.844 132.865L104.144 131.926Z" fill="#BD7A43"/>
<path d="M94.96 136.291C94.96 136.291 93.0079 137.436 89.4744 138.729C85.9409 140.022 82.8357 142.073 81.3613 144.98C82.2674 142.164 84.2276 139.734 88.14 138.251C92.0524 136.769 95.207 135.533 95.9154 134.866C95.1494 135.863 94.96 136.291 94.96 136.291Z" fill="#EBD9B3"/>
<path d="M81.3607 145.211C81.3277 145.211 81.303 145.203 81.2701 145.195C81.1548 145.145 81.0971 145.022 81.1383 144.906C82.1926 141.645 84.4494 139.396 88.057 138.037C91.5658 136.711 95.0499 135.36 95.7582 134.693C95.8488 134.611 95.9806 134.611 96.0712 134.693C96.1618 134.775 96.1701 134.907 96.096 135.006C95.3629 135.961 95.1735 136.39 95.1652 136.39C95.1487 136.431 95.1158 136.472 95.0746 136.497C95.0581 136.505 93.0566 137.666 89.5479 138.951C86.8215 139.948 83.2221 141.818 81.5583 145.087C81.5254 145.162 81.443 145.211 81.3607 145.211ZM95.0499 135.665C93.7568 136.324 91.4423 137.238 88.2135 138.465C85.7014 139.412 83.8728 140.804 82.6703 142.699C84.5812 140.607 87.2498 139.289 89.3914 138.515C92.5295 137.37 94.4321 136.332 94.7781 136.134C94.8193 136.044 94.9099 135.895 95.0499 135.665Z" fill="#BD7A43"/>
<path d="M93.2139 141.703C93.2139 141.703 89.491 145.425 89.4251 152.188C88.7332 147.888 90.7512 143.152 93.4693 140.624C93.4034 141.258 93.2139 141.703 93.2139 141.703Z" fill="#EBD9B3"/>
<path d="M89.4243 152.418C89.309 152.418 89.2102 152.336 89.1937 152.22C88.4607 147.69 90.7093 142.872 93.3038 140.45C93.3779 140.384 93.4768 140.368 93.5674 140.409C93.658 140.45 93.7074 140.541 93.6909 140.64C93.625 141.298 93.4274 141.76 93.4191 141.784C93.4109 141.809 93.3944 141.834 93.3697 141.859C93.3368 141.892 89.7126 145.606 89.6467 152.179C89.6467 152.303 89.5561 152.401 89.4326 152.41C89.4326 152.418 89.4243 152.418 89.4243 152.418ZM93.0896 141.331C91.7388 142.798 90.5445 144.906 89.935 147.237C90.9728 143.835 92.7355 141.867 93.0073 141.579C93.032 141.529 93.0567 141.447 93.0896 141.331Z" fill="#BD7A43"/>
<path d="M107.645 121.012C107.645 121.012 108.781 122.149 108.88 123.697C108.979 125.246 109.119 126.448 110.774 128.236C112.422 130.023 114.044 132.09 114.044 132.09C114.044 132.09 112.257 130.023 111.466 128.236C110.676 126.448 110.33 126.102 110.058 124.315C109.786 122.528 109.473 121.498 108.822 121.111C108.814 121.111 108.295 120.806 107.645 121.012Z" fill="#EBD9B3"/>
<path d="M114.044 132.321C113.978 132.321 113.912 132.296 113.871 132.238C113.838 132.206 113.517 131.827 113.089 131.267C112.463 130.501 111.54 129.397 110.609 128.392C108.962 126.605 108.764 125.377 108.657 123.705C108.558 122.264 107.496 121.185 107.488 121.168C107.43 121.111 107.405 121.028 107.43 120.946C107.446 120.864 107.504 120.806 107.586 120.781C108.336 120.542 108.921 120.897 108.946 120.905C109.712 121.35 110.016 122.47 110.296 124.265C110.502 125.592 110.741 126.102 111.186 127.041C111.334 127.346 111.499 127.692 111.688 128.128C112.133 129.142 112.916 130.253 113.5 131.011C113.953 131.563 114.233 131.926 114.242 131.934C114.316 132.033 114.308 132.173 114.209 132.255C114.143 132.304 114.093 132.321 114.044 132.321ZM108.089 121.168C108.451 121.63 109.036 122.544 109.118 123.672C109.209 125.073 109.291 126.275 110.947 128.071C111.079 128.211 111.202 128.351 111.334 128.491C111.309 128.433 111.285 128.376 111.252 128.318C111.062 127.89 110.898 127.544 110.758 127.239C110.296 126.267 110.041 125.723 109.827 124.331C109.588 122.758 109.3 121.646 108.698 121.3C108.682 121.308 108.435 121.168 108.089 121.168Z" fill="#BD7A43"/>
<path d="M111.499 128.705C111.499 128.705 110.725 132.255 113.006 136.802C111.425 135.031 110 131.67 110.996 128.359C111.342 128.516 111.499 128.705 111.499 128.705Z" fill="#EBD9B3"/>
<path d="M113.006 137.04C112.94 137.04 112.874 137.016 112.833 136.966C111.095 135.022 109.785 131.58 110.774 128.301C110.79 128.235 110.839 128.186 110.897 128.161C110.955 128.137 111.029 128.137 111.087 128.161C111.474 128.334 111.655 128.557 111.671 128.573C111.713 128.631 111.729 128.697 111.713 128.771C111.704 128.804 110.988 132.296 113.195 136.719C113.245 136.826 113.212 136.95 113.121 137.016C113.096 137.024 113.047 137.04 113.006 137.04ZM111.144 128.705C110.592 130.838 111.029 133.013 111.894 134.742C110.864 131.654 111.152 129.347 111.251 128.787C111.218 128.763 111.185 128.738 111.144 128.705Z" fill="#BD7A43"/>
<path d="M114.662 122.387C114.909 122.7 115.008 123.121 115.008 123.121C115.008 123.121 120.246 124.298 123.648 128.672C121.531 124.949 118.928 123.046 114.662 122.387Z" fill="#EBD9B3" stroke="#BD7A43" stroke-width="0.5" stroke-miterlimit="10"/>
<path d="M79.7221 141.035C79.7221 141.035 79.8704 140.574 82.1931 138.367C84.5241 136.159 87.1927 138.638 87.1927 138.638L87.9917 138.235C85.7183 136.283 83.5192 137.123 82.8273 137.098C80.1586 136.752 78.5525 137.246 76.897 138.853C78.1078 137.889 80.0104 137.617 82.1849 137.691C80.5952 138.671 79.7221 141.035 79.7221 141.035Z" fill="#EBD9B3" stroke="#BD7A43" stroke-width="0.5" stroke-miterlimit="10"/>
</svg>
