<svg width="340" height="340" viewBox="0 0 340 340" fill="none" xmlns="http://www.w3.org/2000/svg">
<path d="M170.5 267C223.796 267 267 223.796 267 170.5C267 117.205 223.796 74 170.5 74C117.205 74 74 117.205 74 170.5C74 223.796 117.205 267 170.5 267Z" fill="#F2E8BD"/>
<path d="M123.823 165.986C123.872 165.179 123.584 164.421 122.777 163.853C121.064 162.659 118.288 163.326 116.435 163.87C114.318 164.487 112.226 165.286 110.315 166.382C108.882 167.205 106.617 168.795 107.276 170.755C107.951 172.757 110.834 173.136 112.596 173.259C115.232 173.449 118.074 173.144 120.537 172.123C122.472 171.315 124.457 169.693 124.391 167.395C124.367 166.785 124.152 166.332 123.823 165.986Z" fill="#6E4931"/>
<path d="M136.523 166.217C135.691 165.649 134.513 165.377 133.36 165.435C133.146 165.385 132.94 165.352 132.743 165.344C131.038 165.245 128.863 166.275 128.657 168.161C128.451 170.014 130.609 170.261 131.977 170.08C133.632 169.866 135.873 169.075 136.655 167.452C136.844 167.049 136.968 166.522 136.523 166.217Z" fill="#6E4931"/>
<path d="M171.24 167.008C170.515 164.125 166.076 162.996 163.564 162.708C161.768 162.51 159.972 163.128 158.721 164.454C157.79 165.443 157.271 166.942 157.872 168.062C157.996 168.383 158.21 168.696 158.548 168.993C160.384 170.574 163.539 170.838 165.853 170.879C168.061 170.912 172.023 170.113 171.24 167.008Z" fill="#6E4931"/>
<path d="M188.867 166.332C187.92 163.853 185.07 163.606 182.92 164.594C181.207 165.377 179.123 167.288 179.419 169.347C179.296 169.652 179.222 169.981 179.222 170.335C179.222 170.772 179.428 171.06 179.839 171.216C182.648 172.238 190.547 170.731 188.867 166.332Z" fill="#6E4931"/>
<path d="M226.492 166.019C225.429 164.948 223.444 164.479 221.978 164.462C220.454 164.446 218.815 164.907 217.448 165.55C216.41 166.044 214.713 167.057 215.043 168.465C215.43 170.121 218.51 170.442 219.787 170.599C221.204 170.78 223.288 170.64 224.77 169.824C224.894 169.849 225.034 169.833 225.166 169.734C226.376 168.902 227.933 167.477 226.492 166.019Z" fill="#6E4931"/>
<path d="M239.926 166.39C239.902 164.981 238.32 164.38 237.142 164.215C234.498 163.844 230.792 164.545 229.153 166.867C228.535 167.74 228.164 168.959 229.062 169.783C229.779 170.442 230.907 170.541 231.838 170.566C233.881 170.615 236.632 170.384 238.369 169.198C238.971 168.786 239.729 168.078 239.72 167.271C239.852 167.007 239.934 166.711 239.926 166.39Z" fill="#6E4931"/>
<path d="M249.786 166.67C249.424 165.616 248.279 165.426 247.348 165.846C246.829 166.085 246.302 166.579 246.252 167.181C246.211 167.609 246.467 167.889 246.788 167.947C246.87 168.029 246.969 168.103 247.093 168.144C247.636 168.334 248.114 168.276 248.649 168.111C249.168 167.938 250.025 167.37 249.786 166.67Z" fill="#6E4931"/>
<path d="M98.7006 167.88C98.5852 166.744 97.0615 166.052 96.0649 166.011C94.8788 165.953 93.7174 166.752 93.3468 167.872C93.2973 168.012 93.2726 168.169 93.2562 168.333C93.1244 168.614 93.1162 168.91 93.3386 169.149C93.3798 169.19 93.4292 169.231 93.4703 169.272C93.5856 169.437 93.7669 169.602 93.9563 169.684C93.9893 169.701 94.014 169.709 94.0469 169.709C94.7553 170.129 95.5954 170.269 96.4437 170.121C97.4733 169.931 98.8241 169.091 98.7006 167.88Z" fill="#6E4931"/>
<path d="M151.151 165.813C150.978 165.681 150.764 165.64 150.55 165.64C150.41 165.574 150.245 165.533 150.089 165.541C149.973 165.541 149.85 165.558 149.735 165.582C149.66 165.599 149.586 165.623 149.52 165.648C149.487 165.656 149.15 165.755 149.479 165.665C148.886 165.821 148.178 166.464 148.557 167.131C148.771 167.501 149.249 167.666 149.652 167.666C150.303 167.666 150.896 167.328 151.25 166.793C151.456 166.48 151.464 166.052 151.151 165.813Z" fill="#6E4931"/>
<path d="M198.876 167.214C198.851 167.181 198.826 167.156 198.802 167.123C198.818 167.066 198.826 167.016 198.843 166.959C198.909 166.596 198.62 166.357 198.332 166.233C198.192 166.176 197.928 166.192 197.796 166.225C197.739 166.242 197.557 166.299 197.508 166.316C197.36 166.382 197.22 166.464 197.104 166.58C196.907 166.744 196.939 166.72 197.203 166.497C197.145 166.538 197.096 166.58 197.038 166.637C196.972 166.695 196.923 166.744 196.865 166.802C196.799 166.86 196.733 166.917 196.684 166.975C196.437 167.255 196.239 167.651 196.412 168.021C196.569 168.359 196.997 168.491 197.343 168.392C197.541 168.335 197.706 168.269 197.879 168.186C197.903 168.195 197.92 168.203 197.945 168.211C198.217 168.293 198.571 168.145 198.744 167.939C198.884 167.766 199.074 167.412 198.876 167.214Z" fill="#6E4931"/>
<path d="M251.877 167.601C248.772 167.263 245.626 167.535 242.52 167.815C239.316 168.111 236.112 168.515 232.908 168.82C229.671 169.125 226.377 169.421 223.123 169.141C220.002 168.869 216.896 168.408 213.799 167.988C210.464 167.535 207.119 167.123 203.751 167.008C200.497 166.892 197.277 167.172 194.056 167.658C187.796 168.597 181.603 169.915 175.244 169.907C168.959 169.899 162.782 168.688 156.588 167.765C153.244 167.271 149.916 166.843 146.523 166.934C143.203 167.024 139.901 167.452 136.622 167.963C130.445 168.927 124.325 170.063 118.049 170.179C107.745 170.36 97.5562 168.54 87.2934 168.004C87.2934 168.342 87.2852 168.68 87.2852 169.017C87.2852 215.019 124.572 252.306 170.574 252.306C216.575 252.306 253.862 215.019 253.862 169.017C253.862 168.63 253.862 168.243 253.854 167.856C253.187 167.757 252.536 167.675 251.877 167.601Z" fill="#6E4931"/>
<path d="M102.333 177.205C105.249 178.308 108.214 179.058 111.344 179.132C114.449 179.206 117.538 178.687 120.519 177.855C126.186 176.282 131.416 173.515 137.322 172.773C140.477 172.378 143.705 172.592 146.877 172.617C150.13 172.642 153.375 172.633 156.629 172.501C162.831 172.246 169 171.497 175.021 173.49C177.854 174.429 180.605 175.565 183.571 176.051C186.791 176.579 189.88 176.076 193.01 175.277C195.893 174.536 198.751 173.622 201.708 173.21C204.434 172.823 207.193 172.987 209.903 173.449C212.885 173.959 215.792 174.808 218.741 175.434C221.838 176.093 225.001 176.463 228.164 176.332C233.954 176.093 239.579 174.338 245.395 174.322C248.121 174.314 250.839 174.651 253.565 174.734C253.598 174.734 253.631 174.734 253.672 174.734C253.804 172.839 253.87 170.928 253.87 169.001C253.87 168.614 253.87 168.227 253.862 167.84C253.203 167.749 252.544 167.658 251.885 167.592C248.78 167.255 245.633 167.527 242.528 167.807C239.324 168.103 236.12 168.507 232.916 168.811C229.679 169.116 226.384 169.413 223.131 169.133C220.009 168.861 216.904 168.4 213.807 167.98C210.471 167.527 207.127 167.115 203.759 166.999C200.505 166.884 197.285 167.164 194.064 167.65C187.804 168.589 181.61 169.907 175.252 169.899C168.967 169.89 162.79 168.68 156.596 167.757C153.252 167.263 149.924 166.835 146.531 166.925C143.211 167.016 139.908 167.444 136.63 167.955C130.453 168.919 124.333 170.055 118.057 170.17C107.753 170.352 97.564 168.531 87.3012 167.996C87.3012 168.334 87.293 168.671 87.293 169.009C87.293 170.714 87.3424 172.411 87.4495 174.099C92.5562 174.141 97.5475 175.393 102.333 177.205Z" fill="#6E4931"/>
<path d="M102.646 173.111C104.64 172.584 106.518 171.645 108.593 171.464C109.738 171.365 110.899 171.546 112.044 171.637C113.288 171.727 114.532 171.76 115.776 171.637C118.032 171.406 120.33 170.451 122.612 170.698C123.625 170.805 124.581 171.151 125.569 171.373C126.837 171.661 128.089 171.678 129.349 171.34C131.516 170.755 133.418 169.545 135.725 169.528C136.861 169.52 137.998 169.701 139.118 169.874C140.444 170.072 141.754 170.129 143.096 170.105C144.406 170.08 145.724 169.998 147.033 169.948C148.129 169.907 149.175 169.891 150.246 170.162C151.448 170.467 152.626 170.928 153.87 170.978C155.114 171.027 156.275 170.558 157.428 170.154C158.425 169.808 159.405 169.545 160.476 169.635C161.571 169.734 162.65 170.031 163.721 170.269C164.907 170.541 166.109 170.607 167.304 170.813C168.3 170.986 169.239 171.34 170.203 171.637C171.43 172.016 172.699 172.287 173.984 172.312C175.17 172.337 176.339 172.147 177.509 171.933C178.538 171.744 179.576 171.521 180.622 171.431C181.808 171.332 182.994 171.505 184.181 171.53C185.292 171.554 186.363 171.34 187.459 171.291C188.546 171.241 189.584 171.431 190.663 171.587C191.972 171.777 193.142 171.719 194.402 171.299C195.374 170.978 196.297 170.525 197.285 170.253C198.957 169.792 200.818 169.767 202.532 169.751C203.38 169.742 204.245 169.751 205.085 169.858C205.102 169.858 205.118 169.866 205.134 169.866C206.09 169.709 207.078 169.701 208.017 169.718C209.623 169.742 211.221 169.899 212.819 170.047C213.453 170.105 214.088 170.171 214.73 170.212C215.653 170.269 216.592 170.237 217.514 170.286C219.483 170.385 221.41 170.64 223.296 171.225C225.026 171.769 226.681 172.65 228.518 172.749C230.594 172.864 232.595 172.016 234.547 171.414C235.503 171.118 236.475 170.862 237.48 170.747C238.583 170.607 239.712 170.648 240.824 170.706C243.039 170.821 245.263 171.044 247.454 170.599C249.431 170.204 251.416 170.179 253.426 170.146C253.566 170.146 253.714 170.138 253.854 170.138C253.862 169.767 253.862 169.396 253.862 169.018C253.862 168.63 253.862 168.243 253.854 167.856C253.195 167.766 252.536 167.675 251.877 167.609C248.772 167.271 245.626 167.543 242.52 167.823C239.316 168.12 236.112 168.523 232.908 168.828C229.671 169.133 226.377 169.429 223.123 169.149C220.002 168.877 216.896 168.416 213.799 167.996C210.464 167.543 207.119 167.131 203.751 167.016C200.497 166.901 197.277 167.181 194.056 167.667C187.796 168.606 181.603 169.924 175.244 169.915C168.959 169.907 162.782 168.696 156.588 167.774C153.244 167.28 149.916 166.851 146.523 166.942C143.203 167.032 139.901 167.461 136.622 167.971C130.445 168.935 124.325 170.072 118.049 170.187C107.745 170.368 97.5562 168.548 87.2934 168.013C87.2934 168.35 87.2852 168.688 87.2852 169.026C87.2852 170.006 87.3016 170.978 87.3346 171.95C90.3739 172.872 93.7015 172.996 96.8232 173.226C98.8082 173.358 100.686 173.63 102.646 173.111Z" fill="#986749"/>
<path opacity="0.57" d="M224.21 213.108C218.642 213.174 213.19 214.912 207.885 216.436C202.721 217.927 197.458 219.327 192.038 219.277C186.289 219.228 180.688 217.745 175.054 216.749C172.048 216.213 169.017 215.834 165.953 215.843C162.93 215.851 159.907 216.147 156.917 216.576C151.119 217.399 145.403 218.709 139.596 219.442C136.837 219.788 134.069 220.052 131.293 219.714C128.896 219.417 126.566 218.758 124.3 217.943C119.243 216.123 114.441 213.734 109.104 212.787C105.785 212.202 102.424 211.963 99.0635 211.757C113.609 236.047 140.189 252.306 170.565 252.306C200.703 252.306 227.101 236.302 241.721 212.326C235.89 213.009 230.083 213.042 224.21 213.108Z" fill="#8C664B"/>
<path opacity="0.57" d="M219.145 230.916C213.882 231.295 208.94 233.444 203.709 234.054C198.265 234.688 192.746 234.927 187.269 234.812C181.882 234.696 176.512 234.12 171.125 234.136C168.407 234.144 165.681 234.359 163.021 234.927C160.302 235.512 157.609 236.187 154.908 236.854C152.395 237.48 149.867 238.057 147.289 238.345C144.661 238.642 142.042 238.551 139.414 238.23C134.645 237.645 130 236.335 125.453 234.82C122.011 233.675 118.592 232.398 115.149 231.204C129.868 244.333 149.282 252.314 170.565 252.314C191.774 252.314 211.122 244.391 225.833 231.336C223.617 231.006 221.385 230.751 219.145 230.916Z" fill="#8C664B"/>
<g opacity="0.57">
<path d="M102.457 188.217C101.197 188.118 99.9859 188.423 99.2858 189.238C98.6433 189.988 98.3386 191.075 98.3386 192.047C98.2892 194.427 99.327 196.758 102.078 196.47C104.376 196.223 106.501 194.435 106.831 192.104C107.144 189.913 104.738 188.398 102.457 188.217Z" fill="#8C664B"/>
<path d="M111.65 198.496C111.65 198.472 111.641 198.447 111.633 198.422C111.633 198.389 111.625 198.365 111.625 198.332C111.6 198.216 111.542 198.126 111.46 198.06C111.328 197.928 111.147 197.854 110.949 197.862C110.776 197.862 110.603 197.903 110.438 197.969C110.298 198.027 110.183 198.101 110.076 198.208C109.96 198.29 109.87 198.398 109.796 198.521C109.705 198.702 109.606 198.892 109.614 199.106C109.614 199.164 109.623 199.213 109.631 199.271C109.606 199.37 109.606 199.469 109.631 199.568C109.672 199.699 109.746 199.807 109.853 199.889C110.026 200.021 110.298 200.012 110.488 199.98C110.966 199.897 111.452 199.518 111.6 199.048C111.674 198.842 111.683 198.694 111.65 198.496Z" fill="#8C664B"/>
<path d="M122.999 212.186C122.777 212.169 122.571 212.235 122.389 212.342C121.887 212.342 121.458 212.746 121.269 213.174C121.104 213.529 121.154 213.982 121.417 214.27C121.656 214.534 121.969 214.723 122.332 214.723C123.106 214.74 123.642 214.04 123.733 213.323C123.798 212.812 123.601 212.227 122.999 212.186Z" fill="#8C664B"/>
<path d="M99.1791 183.053C98.9485 182.501 98.5943 182.031 97.8942 182.081C97.3753 182.122 96.9223 182.435 96.5681 182.814C95.7609 183.679 95.9092 185.169 97.3423 185.087C97.5153 185.112 97.6965 185.137 97.8777 185.128C98.586 185.112 99.6404 184.395 99.3686 183.563C99.3109 183.399 99.245 183.226 99.1791 183.053Z" fill="#8C664B"/>
<path d="M107.745 204.566C107.111 204.179 106.427 204.122 105.826 204.319C105.793 204.319 105.76 204.311 105.727 204.311C105.051 204.295 104.409 204.641 103.956 205.118C103.182 205.925 102.638 207.383 103.379 208.388C104.425 209.797 107.061 208.948 108.082 207.952C109.137 206.922 108.997 205.341 107.745 204.566Z" fill="#8C664B"/>
<path d="M124.26 202.763C123.683 202.763 123.139 203.793 123.905 203.793C124.482 203.793 125.026 202.763 124.26 202.763Z" fill="#8C664B"/>
<path d="M127.983 182.649C127.357 182.122 126.459 182.089 125.66 182.328C125.627 182.328 125.586 182.32 125.553 182.32C124.441 182.32 123.304 183.11 123.164 184.264C123.033 185.343 123.79 186.504 124.803 186.85C125.924 187.229 127.274 186.718 128.032 185.853C128.839 184.922 129.012 183.506 127.983 182.649Z" fill="#8C664B"/>
<path d="M134.818 183.275C134.085 183.275 133.393 184.585 134.374 184.585C135.107 184.585 135.799 183.275 134.818 183.275Z" fill="#8C664B"/>
<path d="M147.75 196.47C146.49 196.569 145.279 196.264 144.579 195.449C143.936 194.699 143.632 193.612 143.632 192.64C143.582 190.26 144.62 187.929 147.371 188.217C149.669 188.464 151.794 190.252 152.123 192.583C152.436 194.773 150.031 196.289 147.75 196.47Z" fill="#8C664B"/>
<path d="M165.92 189.032C165.582 189.057 165.269 188.958 164.989 188.793C164.223 188.793 163.564 188.184 163.267 187.517C163.02 186.973 163.086 186.281 163.498 185.828C163.86 185.433 164.338 185.136 164.89 185.128C166.084 185.112 166.9 186.182 167.04 187.27C167.147 188.069 166.842 188.975 165.92 189.032Z" fill="#8C664B"/>
<path d="M136.968 210.077C137.239 209.245 136.185 208.528 135.477 208.512C135.296 208.504 135.114 208.528 134.941 208.553C133.5 208.471 133.36 209.962 134.167 210.826C134.521 211.205 134.974 211.526 135.493 211.559C136.193 211.609 136.547 211.139 136.778 210.587C136.852 210.423 136.91 210.25 136.968 210.077Z" fill="#8C664B"/>
<path d="M146.843 179.939C146.209 180.326 145.526 180.384 144.924 180.186C144.891 180.186 144.858 180.194 144.825 180.194C144.15 180.211 143.508 179.865 143.055 179.387C142.28 178.58 141.737 177.122 142.478 176.117C143.524 174.709 146.16 175.557 147.181 176.554C148.235 177.583 148.104 179.165 146.843 179.939Z" fill="#8C664B"/>
<path d="M157.198 211.057C156.572 211.584 155.674 211.617 154.875 211.378C154.842 211.378 154.801 211.386 154.768 211.386C153.656 211.386 152.519 210.596 152.379 209.443C152.247 208.364 153.005 207.202 154.018 206.856C155.138 206.477 156.489 206.988 157.247 207.853C158.054 208.792 158.219 210.209 157.198 211.057Z" fill="#8C664B"/>
<path d="M172.428 210.374C171.695 210.374 171.002 209.063 171.983 209.063C172.716 209.063 173.408 210.374 172.428 210.374Z" fill="#8C664B"/>
<path d="M179.996 192.352C179.37 192.302 178.76 192.451 178.406 192.863C178.085 193.233 177.936 193.777 177.936 194.263C177.912 195.457 178.431 196.618 179.806 196.47C180.959 196.347 182.022 195.457 182.187 194.288C182.343 193.2 181.14 192.443 179.996 192.352Z" fill="#8C664B"/>
<path d="M191.256 198.496C191.256 198.472 191.248 198.447 191.24 198.422C191.24 198.389 191.231 198.365 191.231 198.332C191.207 198.216 191.149 198.126 191.066 198.06C190.935 197.928 190.753 197.854 190.556 197.862C190.383 197.862 190.21 197.903 190.045 197.969C189.905 198.027 189.789 198.101 189.682 198.208C189.567 198.29 189.476 198.398 189.402 198.521C189.311 198.702 189.213 198.892 189.221 199.106C189.221 199.164 189.229 199.213 189.237 199.271C189.213 199.37 189.213 199.469 189.237 199.568C189.278 199.699 189.353 199.807 189.46 199.889C189.633 200.021 189.905 200.012 190.094 199.98C190.572 199.897 191.058 199.518 191.207 199.048C191.272 198.842 191.281 198.694 191.256 198.496Z" fill="#8C664B"/>
<path d="M202.607 212.186C202.384 212.169 202.178 212.235 201.997 212.342C201.494 212.342 201.066 212.746 200.876 213.174C200.712 213.529 200.761 213.982 201.025 214.27C201.264 214.534 201.577 214.723 201.939 214.723C202.714 214.74 203.249 214.04 203.34 213.323C203.406 212.812 203.208 212.227 202.607 212.186Z" fill="#8C664B"/>
<path d="M178.778 183.053C178.547 182.501 178.193 182.031 177.493 182.081C176.974 182.122 176.521 182.435 176.167 182.814C175.36 183.679 175.508 185.169 176.941 185.087C177.114 185.112 177.295 185.137 177.476 185.128C178.185 185.112 179.239 184.395 178.967 183.563C178.909 183.399 178.852 183.226 178.778 183.053Z" fill="#8C664B"/>
<path d="M187.343 204.566C186.709 204.179 186.026 204.122 185.424 204.319C185.391 204.319 185.358 204.311 185.325 204.311C184.65 204.295 184.008 204.641 183.555 205.118C182.78 205.925 182.237 207.383 182.978 208.388C184.024 209.797 186.66 208.948 187.681 207.952C188.735 206.922 188.604 205.341 187.343 204.566Z" fill="#8C664B"/>
<path d="M203.867 202.763C203.29 202.763 202.746 203.793 203.513 203.793C204.089 203.793 204.633 202.763 203.867 202.763Z" fill="#8C664B"/>
<path d="M207.589 182.649C206.963 182.122 206.065 182.089 205.266 182.328C205.233 182.328 205.192 182.32 205.159 182.32C204.047 182.32 202.911 183.11 202.771 184.264C202.639 185.343 203.397 186.504 204.41 186.85C205.53 187.229 206.881 186.718 207.639 185.853C208.446 184.922 208.611 183.506 207.589 182.649Z" fill="#8C664B"/>
<path d="M214.426 183.275C213.693 183.275 213 184.585 213.981 184.585C214.714 184.585 215.406 183.275 214.426 183.275Z" fill="#8C664B"/>
<path d="M222.876 198.546C221.937 198.62 221.023 198.398 220.496 197.78C220.01 197.22 219.788 196.404 219.788 195.671C219.746 193.884 220.529 192.138 222.588 192.352C224.318 192.533 225.907 193.876 226.155 195.63C226.393 197.277 224.59 198.414 222.876 198.546Z" fill="#8C664B"/>
<path d="M245.527 189.032C245.189 189.057 244.876 188.958 244.596 188.793C243.822 188.793 243.171 188.184 242.875 187.517C242.628 186.973 242.694 186.281 243.105 185.828C243.468 185.433 243.946 185.136 244.497 185.128C245.692 185.112 246.507 186.182 246.647 187.27C246.746 188.069 246.441 188.975 245.527 189.032Z" fill="#8C664B"/>
<path d="M216.575 210.077C216.847 209.245 215.793 208.528 215.084 208.512C214.903 208.504 214.722 208.528 214.549 208.553C213.107 208.471 212.967 209.962 213.775 210.826C214.129 211.205 214.582 211.526 215.101 211.559C215.801 211.609 216.155 211.139 216.386 210.587C216.46 210.423 216.517 210.25 216.575 210.077Z" fill="#8C664B"/>
<path d="M228.823 183.176C228.42 183.423 227.991 183.456 227.612 183.333C227.596 183.333 227.571 183.341 227.555 183.341C227.126 183.349 226.723 183.135 226.435 182.83C225.94 182.32 225.603 181.397 226.072 180.763C226.739 179.873 228.403 180.409 229.054 181.035C229.705 181.685 229.622 182.69 228.823 183.176Z" fill="#8C664B"/>
<path d="M236.795 211.057C236.169 211.584 235.271 211.617 234.472 211.378C234.44 211.378 234.398 211.386 234.365 211.386C233.253 211.386 232.117 210.596 231.977 209.443C231.845 208.364 232.603 207.202 233.616 206.856C234.736 206.477 236.087 206.988 236.845 207.853C237.652 208.792 237.825 210.209 236.795 211.057Z" fill="#8C664B"/>
</g>
<g opacity="0.57">
<path d="M113.782 220.694C113.42 220.661 113.065 220.752 112.859 220.991C112.67 221.205 112.588 221.526 112.588 221.806C112.571 222.498 112.876 223.182 113.675 223.092C114.343 223.018 114.961 222.499 115.059 221.823C115.142 221.188 114.441 220.743 113.782 220.694Z" fill="#8C664B"/>
<path d="M114.952 225.866C114.952 225.858 114.944 225.842 114.944 225.834C114.944 225.817 114.944 225.809 114.944 225.792C114.936 225.743 114.911 225.702 114.87 225.669C114.812 225.611 114.73 225.578 114.639 225.578C114.557 225.578 114.482 225.595 114.408 225.628C114.342 225.652 114.293 225.685 114.243 225.735C114.194 225.776 114.153 225.817 114.12 225.875C114.079 225.957 114.037 226.04 114.037 226.138C114.037 226.163 114.037 226.188 114.046 226.213C114.037 226.254 114.029 226.303 114.046 226.344C114.062 226.402 114.095 226.452 114.145 226.493C114.219 226.55 114.342 226.55 114.433 226.534C114.647 226.501 114.87 226.328 114.936 226.114C114.96 226.023 114.969 225.957 114.952 225.866Z" fill="#8C664B"/>
<path d="M109.343 218.923C109.236 218.676 109.079 218.462 108.766 218.486C108.536 218.503 108.33 218.643 108.173 218.816C107.81 219.203 107.876 219.879 108.519 219.838C108.602 219.846 108.676 219.854 108.758 219.854C109.079 219.846 109.549 219.525 109.425 219.154C109.401 219.08 109.376 218.997 109.343 218.923Z" fill="#8C664B"/>
<path d="M137.059 236.813C136.771 236.64 136.466 236.615 136.194 236.698C136.178 236.698 136.17 236.69 136.153 236.69C135.848 236.681 135.56 236.838 135.354 237.052C135.008 237.415 134.761 238.074 135.098 238.527C135.568 239.161 136.754 238.782 137.216 238.329C137.686 237.876 137.62 237.159 137.059 236.813Z" fill="#8C664B"/>
<path d="M120.627 227.786C120.363 227.786 120.124 228.247 120.47 228.247C120.726 228.255 120.973 227.786 120.627 227.786Z" fill="#8C664B"/>
<path d="M122.299 218.742C122.019 218.503 121.616 218.495 121.253 218.594C121.236 218.594 121.22 218.594 121.204 218.594C120.701 218.594 120.19 218.948 120.132 219.467C120.075 219.953 120.413 220.472 120.874 220.629C121.377 220.802 121.986 220.571 122.324 220.176C122.687 219.764 122.761 219.129 122.299 218.742Z" fill="#8C664B"/>
<path d="M125.372 219.022C125.042 219.022 124.729 219.607 125.166 219.607C125.503 219.615 125.817 219.022 125.372 219.022Z" fill="#8C664B"/>
<path d="M130.519 227.917C129.951 227.959 129.407 227.827 129.094 227.456C128.806 227.118 128.666 226.633 128.666 226.196C128.641 225.125 129.111 224.079 130.346 224.211C131.384 224.318 132.339 225.125 132.488 226.171C132.62 227.16 131.541 227.835 130.519 227.917Z" fill="#8C664B"/>
<path d="M139.365 221.609C139.209 221.617 139.068 221.576 138.945 221.502C138.599 221.502 138.302 221.23 138.17 220.925C138.055 220.678 138.088 220.373 138.277 220.167C138.442 219.985 138.656 219.854 138.904 219.854C139.439 219.845 139.81 220.332 139.868 220.818C139.909 221.18 139.777 221.584 139.365 221.609Z" fill="#8C664B"/>
<path d="M126.344 231.081C126.467 230.702 125.99 230.389 125.676 230.38C125.594 230.38 125.512 230.389 125.437 230.397C124.787 230.356 124.729 231.031 125.091 231.419C125.248 231.592 125.454 231.732 125.685 231.748C125.998 231.773 126.163 231.559 126.261 231.311C126.286 231.237 126.319 231.155 126.344 231.081Z" fill="#8C664B"/>
<path d="M136.919 231.352C136.779 231.468 136.573 231.476 136.4 231.427C136.392 231.427 136.384 231.427 136.376 231.427C136.128 231.427 135.873 231.245 135.84 230.99C135.807 230.743 135.98 230.487 136.211 230.405C136.466 230.323 136.771 230.438 136.936 230.627C137.109 230.842 137.15 231.155 136.919 231.352Z" fill="#8C664B"/>
<path d="M142.288 231.213C141.959 231.213 141.646 230.628 142.091 230.628C142.42 230.619 142.725 231.213 142.288 231.213Z" fill="#8C664B"/>
<path d="M146.621 221.246C146.052 221.205 145.509 221.337 145.196 221.707C144.908 222.045 144.768 222.531 144.768 222.967C144.743 224.038 145.212 225.084 146.448 224.952C147.486 224.845 148.441 224.038 148.589 222.992C148.729 222.004 147.642 221.328 146.621 221.246Z" fill="#8C664B"/>
<path d="M150.757 225.866C150.757 225.858 150.748 225.842 150.748 225.834C150.748 225.817 150.748 225.809 150.748 225.792C150.74 225.743 150.715 225.702 150.674 225.669C150.617 225.611 150.534 225.578 150.444 225.578C150.361 225.578 150.287 225.595 150.213 225.628C150.147 225.652 150.098 225.685 150.048 225.735C149.999 225.776 149.957 225.817 149.924 225.875C149.883 225.957 149.842 226.04 149.842 226.138C149.842 226.163 149.842 226.188 149.85 226.213C149.842 226.254 149.834 226.303 149.85 226.344C149.867 226.402 149.9 226.452 149.949 226.493C150.023 226.55 150.147 226.55 150.238 226.534C150.452 226.501 150.674 226.328 150.74 226.114C150.765 226.023 150.765 225.957 150.757 225.866Z" fill="#8C664B"/>
<path d="M155.864 232.028C155.765 232.019 155.674 232.052 155.592 232.094C155.369 232.094 155.171 232.275 155.089 232.464C155.015 232.621 155.04 232.827 155.155 232.959C155.262 233.074 155.402 233.165 155.567 233.165C155.913 233.173 156.16 232.852 156.201 232.538C156.218 232.308 156.127 232.044 155.864 232.028Z" fill="#8C664B"/>
<path d="M145.148 218.923C145.041 218.676 144.884 218.462 144.571 218.486C144.34 218.503 144.134 218.643 143.978 218.816C143.615 219.203 143.681 219.879 144.324 219.838C144.406 219.846 144.48 219.854 144.563 219.854C144.884 219.846 145.354 219.525 145.23 219.154C145.205 219.08 145.181 218.997 145.148 218.923Z" fill="#8C664B"/>
<path d="M148.995 235.709C148.707 235.536 148.402 235.511 148.13 235.594C148.113 235.594 148.105 235.586 148.089 235.586C147.784 235.577 147.495 235.734 147.289 235.948C146.943 236.311 146.696 236.97 147.034 237.423C147.504 238.057 148.69 237.678 149.151 237.225C149.621 236.772 149.563 236.055 148.995 235.709Z" fill="#8C664B"/>
<path d="M156.424 227.786C156.16 227.786 155.921 228.247 156.267 228.247C156.531 228.255 156.77 227.786 156.424 227.786Z" fill="#8C664B"/>
<path d="M158.104 218.742C157.824 218.503 157.42 218.495 157.058 218.594C157.041 218.594 157.025 218.594 157.008 218.594C156.506 218.594 155.995 218.948 155.937 219.467C155.879 219.953 156.217 220.472 156.679 220.629C157.181 220.802 157.791 220.571 158.129 220.176C158.483 219.764 158.566 219.129 158.104 218.742Z" fill="#8C664B"/>
<path d="M161.176 219.022C160.846 219.022 160.533 219.607 160.978 219.607C161.308 219.615 161.613 219.022 161.176 219.022Z" fill="#8C664B"/>
<path d="M166.315 227.917C165.747 227.959 165.203 227.827 164.89 227.456C164.602 227.118 164.462 226.633 164.462 226.196C164.437 225.125 164.907 224.079 166.142 224.211C167.18 224.318 168.135 225.125 168.284 226.171C168.424 227.16 167.345 227.835 166.315 227.917Z" fill="#8C664B"/>
<path d="M175.161 221.609C175.005 221.617 174.865 221.576 174.741 221.502C174.395 221.502 174.098 221.23 173.967 220.925C173.859 220.678 173.884 220.373 174.074 220.167C174.238 219.985 174.453 219.854 174.7 219.854C175.235 219.845 175.606 220.332 175.664 220.818C175.713 221.18 175.573 221.584 175.161 221.609Z" fill="#8C664B"/>
<path d="M162.14 231.081C162.263 230.702 161.785 230.389 161.472 230.38C161.39 230.38 161.308 230.389 161.233 230.397C160.582 230.356 160.525 231.031 160.887 231.419C161.044 231.592 161.25 231.732 161.481 231.748C161.794 231.773 161.958 231.559 162.057 231.311C162.09 231.237 162.115 231.155 162.14 231.081Z" fill="#8C664B"/>
<path d="M171.242 231.517C170.962 231.756 170.558 231.765 170.195 231.666C170.179 231.666 170.162 231.666 170.146 231.666C169.643 231.666 169.132 231.311 169.075 230.792C169.017 230.306 169.355 229.787 169.816 229.63C170.319 229.457 170.929 229.688 171.267 230.084C171.629 230.504 171.703 231.138 171.242 231.517Z" fill="#8C664B"/>
</g>
<g opacity="0.57">
<path d="M185.136 222.332C185.103 222.761 185.21 223.172 185.498 223.411C185.753 223.625 186.124 223.724 186.462 223.724C187.277 223.732 188.068 223.37 187.953 222.431C187.862 221.649 187.244 220.932 186.445 220.825C185.696 220.726 185.185 221.558 185.136 222.332Z" fill="#8C664B"/>
<path d="M191.182 220.9C191.165 220.9 191.157 220.908 191.14 220.908C191.124 220.908 191.107 220.908 191.091 220.916C191.033 220.932 190.984 220.957 190.951 221.007C190.885 221.081 190.844 221.171 190.844 221.279C190.844 221.369 190.868 221.46 190.901 221.55C190.934 221.625 190.976 221.682 191.025 221.74C191.066 221.798 191.124 221.847 191.19 221.888C191.289 221.938 191.388 221.987 191.503 221.979C191.528 221.979 191.561 221.979 191.585 221.971C191.635 221.979 191.692 221.987 191.742 221.971C191.808 221.946 191.865 221.905 191.915 221.847C191.981 221.756 191.981 221.616 191.964 221.509C191.923 221.262 191.717 221.007 191.47 220.932C191.363 220.883 191.289 220.883 191.182 220.9Z" fill="#8C664B"/>
<path d="M183.118 227.555C182.83 227.678 182.582 227.868 182.615 228.239C182.64 228.511 182.805 228.749 183.011 228.931C183.472 229.351 184.255 229.269 184.206 228.511C184.222 228.42 184.23 228.321 184.222 228.23C184.206 227.86 183.826 227.308 183.39 227.456C183.299 227.489 183.2 227.522 183.118 227.555Z" fill="#8C664B"/>
<path d="M208.282 238.188C208.001 238.015 207.697 237.99 207.433 238.073C207.416 238.073 207.408 238.065 207.392 238.065C207.095 238.056 206.807 238.213 206.609 238.419C206.263 238.773 206.024 239.424 206.353 239.869C206.815 240.495 207.985 240.116 208.438 239.679C208.9 239.226 208.842 238.526 208.282 238.188Z" fill="#8C664B"/>
<path d="M207.844 224.672C207.588 224.672 207.349 225.125 207.687 225.125C207.943 225.133 208.182 224.672 207.844 224.672Z" fill="#8C664B"/>
<path d="M208.264 219.829C207.984 219.598 207.589 219.581 207.235 219.689C207.218 219.689 207.202 219.689 207.185 219.689C206.691 219.689 206.188 220.035 206.13 220.546C206.073 221.023 206.411 221.534 206.856 221.691C207.35 221.856 207.951 221.633 208.289 221.246C208.644 220.834 208.718 220.208 208.264 219.829Z" fill="#8C664B"/>
<path d="M212.522 216.04C212.192 216.04 211.888 216.616 212.324 216.616C212.654 216.625 212.959 216.04 212.522 216.04Z" fill="#8C664B"/>
<path d="M217.587 224.803C217.027 224.845 216.492 224.713 216.179 224.35C215.89 224.021 215.759 223.535 215.759 223.107C215.734 222.052 216.195 221.023 217.414 221.146C218.436 221.253 219.375 222.044 219.523 223.082C219.663 224.054 218.592 224.721 217.587 224.803Z" fill="#8C664B"/>
<path d="M226.294 218.594C226.145 218.602 226.005 218.561 225.882 218.487C225.544 218.487 225.247 218.215 225.115 217.918C225.008 217.679 225.033 217.374 225.214 217.168C225.379 216.995 225.585 216.863 225.832 216.855C226.36 216.847 226.722 217.325 226.788 217.803C226.838 218.165 226.706 218.569 226.294 218.594Z" fill="#8C664B"/>
<path d="M213.478 227.917C213.601 227.546 213.132 227.233 212.819 227.225C212.736 227.225 212.662 227.233 212.58 227.242C211.945 227.2 211.879 227.868 212.234 228.247C212.39 228.412 212.596 228.552 212.819 228.576C213.132 228.601 213.288 228.387 213.387 228.148C213.42 228.066 213.453 227.991 213.478 227.917Z" fill="#8C664B"/>
<path d="M222.975 217.795C222.695 217.968 222.39 217.993 222.126 217.91C222.11 217.91 222.101 217.91 222.085 217.919C221.788 217.927 221.5 217.77 221.302 217.564C220.956 217.21 220.717 216.559 221.047 216.114C221.508 215.488 222.678 215.867 223.131 216.304C223.585 216.757 223.527 217.457 222.975 217.795Z" fill="#8C664B"/>
<path d="M223.888 228.181C223.748 228.297 223.55 228.305 223.377 228.255C223.369 228.255 223.361 228.255 223.353 228.255C223.105 228.255 222.858 228.082 222.825 227.827C222.792 227.588 222.965 227.333 223.188 227.25C223.435 227.168 223.74 227.283 223.905 227.473C224.078 227.679 224.119 227.992 223.888 228.181Z" fill="#8C664B"/>
<path d="M229.176 228.049C228.847 228.049 228.542 227.472 228.979 227.472C229.308 227.464 229.613 228.049 229.176 228.049Z" fill="#8C664B"/>
<path d="M182.137 235.931C181.577 235.89 181.042 236.022 180.729 236.384C180.44 236.714 180.309 237.2 180.309 237.628C180.284 238.682 180.745 239.712 181.964 239.588C182.985 239.481 183.924 238.69 184.073 237.653C184.213 236.681 183.15 236.013 182.137 235.931Z" fill="#8C664B"/>
<path d="M185.531 244.308C185.457 244.3 185.391 244.324 185.333 244.357C185.169 244.357 185.029 244.489 184.963 244.629C184.913 244.744 184.921 244.893 185.012 244.992C185.086 245.074 185.193 245.14 185.309 245.14C185.564 245.148 185.737 244.917 185.77 244.679C185.795 244.514 185.729 244.316 185.531 244.308Z" fill="#8C664B"/>
<path d="M231.994 215.95C231.887 215.702 231.73 215.496 231.425 215.521C231.195 215.538 230.997 215.678 230.84 215.851C230.486 216.23 230.544 216.897 231.186 216.856C231.269 216.864 231.343 216.872 231.425 216.872C231.738 216.864 232.208 216.551 232.085 216.18C232.052 216.098 232.019 216.024 231.994 215.95Z" fill="#8C664B"/>
<path d="M185.944 241.219C185.754 241.219 185.573 241.557 185.828 241.557C186.018 241.557 186.199 241.219 185.944 241.219Z" fill="#8C664B"/>
<path d="M199.846 227.884C199.649 228.131 199.632 228.477 199.731 228.79C199.731 228.807 199.731 228.815 199.731 228.832C199.739 229.268 200.052 229.705 200.497 229.754C200.918 229.804 201.371 229.499 201.503 229.103C201.643 228.667 201.445 228.139 201.099 227.851C200.728 227.538 200.176 227.48 199.846 227.884Z" fill="#8C664B"/>
<path d="M200.061 225.215C200.061 225.504 200.58 225.767 200.571 225.388C200.571 225.1 200.061 224.836 200.061 225.215Z" fill="#8C664B"/>
<path d="M202.012 242.323C201.6 242.355 201.204 242.257 200.974 241.985C200.76 241.738 200.661 241.384 200.661 241.062C200.644 240.28 200.982 239.514 201.888 239.613C202.646 239.695 203.338 240.28 203.445 241.046C203.552 241.762 202.761 242.257 202.012 242.323Z" fill="#8C664B"/>
<path d="M208.742 232.094C208.627 232.102 208.528 232.069 208.437 232.02C208.182 232.02 207.968 231.822 207.869 231.599C207.786 231.418 207.811 231.196 207.943 231.047C208.067 230.915 208.223 230.825 208.404 230.817C208.792 230.808 209.064 231.163 209.113 231.517C209.146 231.781 209.047 232.077 208.742 232.094Z" fill="#8C664B"/>
<path d="M190.111 243.616C190.202 243.344 189.856 243.113 189.625 243.105C189.567 243.105 189.51 243.113 189.452 243.121C188.982 243.097 188.933 243.583 189.196 243.863C189.312 243.987 189.46 244.094 189.633 244.102C189.864 244.118 189.979 243.962 190.053 243.781C190.07 243.731 190.095 243.674 190.111 243.616Z" fill="#8C664B"/>
<path d="M198.71 220.537C198.867 220.784 198.891 221.048 198.817 221.287C198.817 221.303 198.817 221.312 198.825 221.32C198.834 221.583 198.702 221.839 198.521 222.012C198.207 222.317 197.639 222.539 197.243 222.251C196.691 221.847 197.004 220.817 197.392 220.413C197.787 220.01 198.405 220.051 198.71 220.537Z" fill="#8C664B"/>
<path d="M196.741 243.938C196.535 244.111 196.239 244.119 195.983 244.045C195.975 244.045 195.959 244.045 195.95 244.045C195.588 244.045 195.217 243.789 195.168 243.41C195.126 243.056 195.374 242.677 195.703 242.562C196.074 242.438 196.511 242.603 196.758 242.891C197.021 243.196 197.071 243.657 196.741 243.938Z" fill="#8C664B"/>
<path d="M180.572 244.909C180.235 244.703 179.881 244.678 179.559 244.777C179.543 244.777 179.526 244.769 179.51 244.769C179.156 244.761 178.818 244.942 178.579 245.189C178.167 245.617 177.887 246.383 178.274 246.911C178.826 247.652 180.21 247.207 180.754 246.68C181.305 246.153 181.24 245.321 180.572 244.909Z" fill="#8C664B"/>
<path d="M139.464 244.151C139.381 244.143 139.299 244.168 139.225 244.209C139.027 244.209 138.862 244.366 138.788 244.531C138.722 244.671 138.739 244.844 138.846 244.959C138.936 245.058 139.06 245.132 139.2 245.14C139.505 245.148 139.711 244.868 139.744 244.596C139.769 244.39 139.694 244.16 139.464 244.151Z" fill="#8C664B"/>
<path d="M139.949 240.478C139.727 240.478 139.513 240.881 139.809 240.881C140.04 240.881 140.246 240.478 139.949 240.478Z" fill="#8C664B"/>
<path d="M162.83 249.003C162.344 249.044 161.867 248.92 161.595 248.607C161.348 248.319 161.224 247.891 161.224 247.512C161.208 246.581 161.611 245.675 162.682 245.79C163.58 245.889 164.403 246.581 164.535 247.495C164.659 248.344 163.72 248.937 162.83 249.003Z" fill="#8C664B"/>
<path d="M144.9 243.328C145.007 243.007 144.595 242.727 144.323 242.718C144.249 242.718 144.183 242.727 144.117 242.735C143.557 242.702 143.499 243.287 143.812 243.625C143.952 243.773 144.126 243.897 144.331 243.913C144.603 243.929 144.743 243.748 144.834 243.534C144.859 243.46 144.884 243.394 144.9 243.328Z" fill="#8C664B"/>
<path d="M152.782 243.707C152.535 243.913 152.189 243.921 151.876 243.831C151.86 243.831 151.851 243.831 151.835 243.831C151.398 243.831 150.962 243.526 150.904 243.073C150.854 242.652 151.151 242.199 151.547 242.068C151.983 241.919 152.511 242.117 152.807 242.455C153.12 242.826 153.186 243.378 152.782 243.707Z" fill="#8C664B"/>
</g>
<path d="M95.5464 167.263C95.4146 166.447 94.6569 165.895 93.9568 165.558C92.3671 164.792 90.1597 164.816 88.7183 165.904C87.9522 166.48 87.4993 167.444 87.837 168.391C88.1335 169.223 88.9242 169.627 89.7726 169.47C89.8302 169.462 89.8879 169.437 89.9373 169.396C91.1975 169.964 92.8531 169.915 94.0144 169.413C94.8463 169.05 95.7029 168.251 95.5464 167.263Z" fill="#5A3B25"/>
<path d="M107.786 165.665C106.377 164.792 104.524 164.627 102.91 164.652C101.155 164.676 98.8409 164.965 97.7043 166.464C96.7159 167.773 97.7702 168.721 98.9563 169.264C99.401 169.915 100.365 170.335 101.007 170.557C103.313 171.373 107.448 171.933 108.89 169.355C109.639 168.012 109.038 166.439 107.786 165.665Z" fill="#5A3B25"/>
<path d="M128.971 166.875C127.529 165.953 125.454 166.39 124.037 167.164C123.362 167.526 122.604 168.16 122.546 169.001C122.538 169.141 122.554 169.264 122.579 169.379C122.554 169.725 122.703 170.047 123.139 170.211C123.362 170.294 123.6 170.36 123.847 170.401C123.872 170.409 123.897 170.417 123.922 170.417C123.946 170.426 123.979 170.425 124.012 170.425C125.207 170.607 126.607 170.409 127.669 170.104C128.419 169.89 129.201 169.528 129.597 168.819C130.033 168.029 129.679 167.32 128.971 166.875Z" fill="#5A3B25"/>
<path d="M146.58 164.076C144.085 162.601 141.045 162.791 138.632 164.347C137.685 164.957 136.589 165.954 136.433 167.14C136.276 168.35 137.232 168.392 138.146 168.523C138.154 168.523 138.154 168.523 138.163 168.523C139.431 169.355 141.243 169.446 142.685 169.364C144.307 169.273 146.276 168.976 147.47 167.766C148.821 166.398 148.014 164.924 146.58 164.076Z" fill="#5A3B25"/>
<path d="M159.603 166.752C158.598 165.072 155.979 164.8 154.232 164.858C152.857 164.899 149.134 165.995 150.394 168.062C150.394 168.301 150.493 168.532 150.715 168.737C152.058 169.948 154.702 170.121 156.399 170.006C157.947 169.891 160.83 168.82 159.603 166.752Z" fill="#5A3B25"/>
<path d="M179.124 166.62C177.155 165.772 174.495 165.574 172.427 166.126C171.447 166.39 170.121 167.032 169.775 168.078C169.701 168.292 169.693 168.482 169.717 168.638C169.627 168.737 169.544 168.836 169.462 168.935C169.034 169.487 169.281 170.154 169.866 170.418C172.477 171.595 175.631 171.513 178.341 170.673C179.297 170.376 180.474 169.874 180.796 168.828C181.15 167.675 180.038 167.016 179.124 166.62Z" fill="#5A3B25"/>
<path d="M196.651 166.489C194.863 165.253 192.326 165.451 190.3 166.341C189.131 166.423 188.052 166.925 187.146 168.12C186.964 168.367 186.899 168.803 187.096 169.059C189.106 171.67 194.13 169.783 196.297 168.293C196.815 167.93 197.351 166.975 196.651 166.489Z" fill="#5A3B25"/>
<path d="M209.961 166.39C208.338 164.759 205.991 164.734 203.841 164.734C202.449 164.734 198.685 165.443 200.332 167.667C201.279 168.935 203.454 169.347 204.912 169.495C206.732 169.668 208.948 169.223 209.895 167.469C210.051 167.189 210.241 166.678 209.961 166.39Z" fill="#5A3B25"/>
<path d="M215.076 164.858C213.478 164.388 211.049 164.858 210.48 166.654C210.192 167.568 210.81 168.655 211.584 169.133C212.581 169.75 213.923 169.215 214.879 168.688C216.304 167.897 217.127 165.459 215.076 164.858Z" fill="#5A3B25"/>
<path d="M229.819 169.874C229.967 169.585 230.008 169.256 229.802 168.976C229.794 168.968 229.786 168.951 229.778 168.943C229.333 167.526 227.117 167.782 225.956 168.597C225.593 168.852 225.297 169.297 225.388 169.758C225.388 169.767 225.396 169.775 225.396 169.783C225.379 169.964 225.404 170.162 225.503 170.368C225.668 170.722 225.948 170.879 226.269 170.912C227.167 171.34 228.501 171.06 229.283 170.5C229.44 170.393 229.596 170.228 229.728 170.038C229.769 169.989 229.802 169.931 229.819 169.874Z" fill="#5A3B25"/>
<path d="M248.047 166.209C247.446 165.121 245.947 164.817 244.777 164.751C243.978 164.462 242.998 164.438 242.298 164.495C240.848 164.602 238.402 165.41 238.698 167.312C238.946 168.91 241.178 168.993 242.413 168.968C244.102 168.935 245.996 168.729 247.479 167.872C248.031 167.551 248.36 166.785 248.047 166.209Z" fill="#5A3B25"/>
<path d="M251.77 166.39C251.646 165.962 251.193 165.756 250.724 165.863C250.361 165.954 250.056 166.118 249.809 166.357C249.677 166.456 249.546 166.571 249.439 166.695C249.397 166.744 249.356 166.794 249.315 166.843C249.307 166.86 249.29 166.876 249.274 166.892H249.282C249.257 166.925 249.241 166.967 249.216 167.008C249.035 167.378 249.109 167.881 249.57 167.996C249.595 168.004 249.612 168.004 249.628 168.004C249.719 168.054 249.818 168.095 249.925 168.111C250.419 168.186 250.995 167.914 251.3 167.51C251.366 167.453 251.432 167.395 251.49 167.329C251.687 167.263 251.877 167.098 251.951 166.925C252.05 166.744 252.033 166.439 251.77 166.39Z" fill="#5A3B25"/>
<path d="M98.5616 168.803C98.1168 167.551 96.6672 167.477 95.3988 167.881C94.3362 167.872 93.2408 168.21 92.7136 169.182C91.7499 170.969 94.3527 171.323 95.547 171.307C96.8566 171.282 99.1958 170.607 98.5616 168.803Z" fill="#82583D"/>
<path d="M113.361 169.124C113.098 168.976 112.818 168.894 112.53 168.91C112.431 168.885 112.324 168.869 112.208 168.861C111.492 168.844 110.956 169.347 110.668 169.956C110.553 170.203 110.652 170.5 110.857 170.656C111.5 171.142 112.439 170.978 113.073 170.566C113.46 170.31 113.963 169.462 113.361 169.124Z" fill="#82583D"/>
<path d="M130.84 168.293C130.577 168.136 130.313 168.054 130.017 168.078C129.498 167.98 128.913 168.202 128.509 168.515C128.18 168.77 127.908 169.149 127.99 169.577C128.106 170.162 128.649 170.467 129.209 170.459C130.05 170.451 130.733 169.907 131.071 169.157C131.203 168.877 131.112 168.457 130.84 168.293Z" fill="#82583D"/>
<path d="M149.438 166.53C149.298 166.431 149.133 166.349 148.952 166.291C148.903 166.233 148.853 166.167 148.787 166.11C148.334 165.723 147.626 165.723 147.066 165.805C146.045 165.962 144.438 166.933 145.246 168.152C145.806 169.001 147.288 169.116 148.186 168.902C148.804 168.754 149.38 168.408 149.677 167.831C149.899 167.378 149.875 166.843 149.438 166.53Z" fill="#82583D"/>
<path d="M166.43 168.103C166.282 167.914 166.051 167.766 165.78 167.675C165.755 167.642 165.722 167.609 165.689 167.576C165.327 167.205 164.725 167.115 164.223 167.123C163.218 167.148 161.711 167.584 161.39 168.688C160.994 170.039 163.012 170.195 163.869 170.228C164.561 170.253 165.335 170.204 165.928 169.816C166.48 169.454 166.883 168.704 166.43 168.103Z" fill="#82583D"/>
<path d="M185.341 168.498C184.526 167.905 183.2 168.045 182.45 168.688C182.104 168.984 181.66 169.528 181.997 169.997C182.113 170.162 182.277 170.269 182.45 170.319C182.772 170.475 183.2 170.492 183.521 170.467C184.172 170.409 184.831 170.17 185.275 169.676C185.572 169.363 185.761 168.803 185.341 168.498Z" fill="#82583D"/>
<path d="M200.308 166.958C200.11 166.686 199.731 166.538 199.294 166.538C198.43 166.538 197.375 166.949 197.062 167.831C196.922 168.218 197.005 168.621 197.276 168.934C197.598 169.305 197.977 169.396 198.446 169.453C199.443 169.577 200.843 169.371 201.189 168.251C201.411 167.485 200.942 167.089 200.308 166.958Z" fill="#82583D"/>
<path d="M218.766 167.889C218.593 167.732 218.387 167.601 218.165 167.502C217.885 167.263 217.506 167.098 217.168 167.016C216.18 166.793 214.804 167.016 214.458 168.136C214.178 169.059 215.208 169.512 215.933 169.652C216.888 169.833 218 169.775 218.708 169.017C219.021 168.68 219.128 168.227 218.766 167.889Z" fill="#82583D"/>
<path d="M234.539 168.021C233.806 167.37 232.323 167.337 231.467 167.724C231.22 167.84 230.997 168.029 230.865 168.252C230.552 168.499 230.363 168.853 230.462 169.289C230.66 170.13 231.722 170.105 232.397 170.006C233.238 169.891 234.111 169.561 234.63 168.869C234.835 168.598 234.786 168.243 234.539 168.021Z" fill="#82583D"/>
<path d="M248.871 167.65C248.591 167.247 248.154 167.164 247.734 167.263C247.322 167.139 246.844 167.403 246.572 167.708C246.424 167.873 246.226 168.178 246.333 168.417C246.482 168.754 246.679 169.026 247.05 169.133C247.421 169.241 247.891 169.166 248.22 168.977C248.5 168.82 248.731 168.656 248.871 168.359C248.978 168.136 249.019 167.873 248.871 167.65Z" fill="#82583D"/>
<path d="M216.773 82.7473C200.324 84.1805 183.077 92.5818 174.643 107.259C171.101 113.42 169 120.743 168.91 127.867C168.786 137.694 175.573 146.35 186.108 144.118C192.969 142.669 198.726 137.208 202.614 131.623C205.563 127.39 207.902 122.777 209.813 117.992C211.715 113.247 213.223 108.363 214.664 103.462C215.381 101.033 216.056 98.5863 216.814 96.1647C217.399 94.295 218.148 92.4665 219.104 90.7615C220.817 87.714 223.23 85.1359 226.195 83.2827C226.632 83.0109 227.068 82.7638 227.521 82.5249C223.947 82.2696 220.323 82.4426 216.773 82.7473Z" fill="#67AD14"/>
<path d="M221.27 86.3384C219.87 87.9116 218.634 89.633 217.514 91.4286C216.501 93.0512 215.587 94.7233 214.755 96.4447C213.906 98.1909 213.157 99.9782 212.407 101.766C211.575 103.742 210.752 105.727 209.879 107.688C208.981 109.706 208.025 111.707 206.963 113.643C205.925 115.537 204.788 117.374 203.479 119.095C202.219 120.743 200.81 122.283 199.196 123.584C197.606 124.869 195.811 125.956 193.875 126.64C192.17 127.241 190.152 127.423 188.686 126.179C188.002 125.602 187.541 124.812 187.228 123.98C186.792 122.827 186.569 121.558 186.561 120.323C186.536 117.605 187.541 114.985 188.777 112.613C189.411 111.402 190.111 110.233 190.844 109.08C191.536 107.984 192.252 106.897 193.01 105.843C194.484 103.8 196.082 101.848 197.804 100.011C199.501 98.1991 201.313 96.4859 203.215 94.888C205.093 93.3148 207.062 91.8487 209.096 90.4896C211.155 89.1224 213.28 87.8539 215.455 86.6926C217.646 85.523 219.886 84.444 222.159 83.4474C222.983 83.0849 223.815 82.739 224.647 82.4013C224.219 82.3931 223.79 82.3931 223.362 82.3931H223.354C219.392 83.5462 215.554 85.0947 211.855 86.9232C208.248 88.7105 204.797 90.7944 201.576 93.2159C198.076 95.8434 194.839 98.8251 191.89 102.054C188.949 105.266 186.314 108.734 183.933 112.374C182.681 114.293 181.487 116.221 180.449 118.263C179.395 120.339 178.464 122.472 177.608 124.639C176.792 126.69 176.026 128.765 175.343 130.857C175.104 131.582 174.873 132.34 174.47 132.991C174.198 133.427 173.794 133.847 173.242 133.814C172.476 133.765 171.834 133.032 171.389 132.488C170.92 131.912 170.574 131.244 170.327 130.544C169.742 128.913 169.635 127.134 169.659 125.421C169.684 123.716 169.874 122.019 170.112 120.331C170.335 118.741 170.598 117.176 170.961 115.62C169.684 119.59 168.968 123.757 168.91 127.859C168.786 137.685 175.573 146.342 186.108 144.11C192.969 142.66 198.726 137.199 202.614 131.615C205.563 127.381 207.902 122.769 209.813 117.983C211.715 113.239 213.223 108.355 214.664 103.454C215.381 101.024 216.056 98.578 216.814 96.1564C217.399 94.2867 218.148 92.4582 219.104 90.7532C220.817 87.7057 223.23 85.1276 226.195 83.2744C226.632 83.0026 227.068 82.7555 227.521 82.5166C226.92 82.4754 226.319 82.4425 225.718 82.426C224.054 83.4968 222.588 84.8641 221.27 86.3384Z" fill="#409100"/>
<path d="M155.649 127.546C154.224 125.297 152.568 123.197 150.756 121.245C149.018 119.631 147.165 118.148 145.205 116.805C141.457 114.672 137.479 112.885 133.303 111.765C131.087 111.172 128.839 110.834 126.565 110.578C124.3 110.331 122.027 110.183 119.754 110.167C115.224 110.125 110.669 110.57 106.27 111.666C103.511 112.358 100.818 113.305 98.248 114.516C101.592 114.45 104.566 116.558 106.864 118.84C109.656 121.607 111.863 124.927 114.268 128.032C116.879 131.409 119.622 134.704 122.727 137.636C125.841 140.576 129.358 143.187 133.237 145.032C136.252 146.457 139.48 147.495 142.767 148.063C146.136 148.64 149.752 148.739 153.013 147.561C154.562 147.001 155.995 146.128 157.148 144.95C158.614 143.459 159.504 141.515 159.685 139.431C160.047 135.165 157.865 131.038 155.649 127.546Z" fill="#67AD14"/>
<path d="M155.649 127.546C154.224 125.297 152.569 123.197 150.757 121.245C149.019 119.63 147.166 118.148 145.205 116.805C141.458 114.672 137.479 112.885 133.303 111.764C131.088 111.171 128.839 110.834 126.566 110.578C124.301 110.331 122.028 110.183 119.754 110.167C119.738 110.167 119.721 110.167 119.705 110.167C121.229 110.356 122.736 110.628 124.219 111.007C126.953 111.707 129.564 112.761 132.035 114.128C134.358 115.421 136.582 116.921 138.731 118.485C140.478 119.754 142.528 121.105 143.294 123.238C143.319 123.304 143.253 123.386 143.187 123.378C142.248 123.304 141.359 122.851 140.535 122.414C139.662 121.945 138.83 121.401 137.924 120.989C135.832 120.026 133.691 119.153 131.491 118.444C129.622 117.843 127.703 117.374 125.792 116.896C123.873 116.418 121.937 115.973 119.977 115.702C118.305 115.471 116.575 115.339 114.895 115.553C115.677 115.759 116.476 115.924 117.267 116.08C119.285 116.467 121.352 116.756 123.288 117.464C125.19 118.156 127.035 118.98 128.823 119.927C131.582 121.385 134.218 123.106 136.648 125.083C138.624 126.689 140.511 128.468 142.067 130.494C143.418 132.257 144.769 134.514 144.514 136.837C144.39 137.94 143.879 138.929 143.122 139.728C142.125 140.774 140.84 141.35 139.415 141.523C137.817 141.721 136.186 141.449 134.646 141.021C133.147 140.609 131.697 140.024 130.297 139.341C126.928 137.71 123.93 135.461 121.22 132.9C119.812 131.565 118.478 130.148 117.193 128.691C115.998 127.34 114.895 125.923 113.766 124.523C111.542 121.755 109.154 118.955 106.032 117.176C105.052 116.616 104.014 116.146 102.943 115.792C104.393 116.599 105.711 117.695 106.864 118.831C109.656 121.599 111.864 124.918 114.269 128.023C116.88 131.4 119.622 134.695 122.728 137.627C125.841 140.568 129.358 143.179 133.238 145.024C136.252 146.449 139.481 147.487 142.767 148.055C146.136 148.631 149.752 148.73 153.014 147.552C154.562 146.992 155.995 146.119 157.148 144.941C158.615 143.451 159.504 141.507 159.685 139.423C160.048 135.165 157.865 131.038 155.649 127.546Z" fill="#409100"/>
<path d="M189.642 105.562C187.212 108.552 185.12 111.806 183.291 115.199C181.323 118.84 179.667 122.637 178.086 126.467C175.722 132.191 173.531 138.229 172.65 144.447C171.703 151.127 171.151 157.922 170.887 164.668C170.311 162.584 169.577 160.542 168.82 158.573C168.408 157.502 167.98 156.432 167.535 155.377C166.036 151.275 164.199 147.305 161.901 143.591C160.624 141.515 159.224 139.514 157.684 137.619C157.223 136.968 156.761 136.334 156.275 135.7C154.793 133.756 153.071 131.911 151.193 130.19C149.406 128.806 147.553 127.496 145.667 126.253C143.715 124.968 141.762 123.675 139.712 122.554C137.554 121.377 135.28 120.339 132.892 119.729C131.673 119.416 130.396 119.219 129.136 119.252C130.256 119.457 131.327 120.158 132.315 120.644C133.74 121.335 135.107 122.126 136.499 122.867C139.201 124.317 141.68 125.898 143.995 127.908C148.5 131.821 152.61 136.112 156.012 141.029C159.488 146.062 162.049 151.58 164.479 157.173C165.747 160.089 166.909 163.062 167.765 166.134C168.655 169.289 169.166 172.542 169.577 175.796C170.055 179.568 170.401 183.365 170.582 187.162C170.64 188.406 170.681 189.65 170.722 190.902C171.67 190.44 172.773 190.267 173.778 190.399C173.778 190.35 173.778 190.309 173.778 190.259C173.86 187.335 173.704 184.42 173.44 181.504C173.416 181.257 173.391 181.01 173.375 180.762C173.366 180.169 173.358 179.585 173.35 178.992C173.325 177.542 173.3 176.092 173.276 174.643C173.276 174.618 173.284 174.602 173.284 174.577C173.531 171.719 173.399 168.894 173.416 166.019C173.432 163.161 173.655 160.303 173.893 157.461C174.355 151.976 175.071 146.49 176.175 141.095C177.279 135.708 178.72 130.363 180.664 125.223C182.567 120.174 184.98 115.356 187.64 110.669C189.09 108.124 190.77 105.702 192.632 103.437C193.505 102.375 194.468 101.395 195.44 100.414C196.19 99.6567 196.775 98.8 197.384 97.9517C194.526 100.176 191.932 102.745 189.642 105.562Z" fill="#405621"/>
<path d="M198.653 90.3249C198.167 89.5753 197.154 89.5506 196.363 89.6577C193.966 89.9872 191.676 91.478 189.815 92.9276C189.049 93.5289 186.578 95.2339 186.743 96.5847C186.677 96.8812 186.668 97.1777 186.726 97.4907C187.031 98.998 188.802 98.9156 189.955 98.5779C191.726 98.059 193.373 97.0789 194.872 96.0246C196.182 95.1021 197.656 93.9984 198.488 92.5899C198.867 91.9392 199.089 91.0085 198.653 90.3249Z" fill="#92C10B"/>
<path d="M182.855 102.465C182.847 102.424 182.822 102.383 182.789 102.35C182.649 102.21 182.419 102.268 182.27 102.367C181.669 102.432 181.199 102.91 181.001 103.479C180.969 103.578 180.96 103.677 180.96 103.784C180.812 104.13 181.026 104.459 181.422 104.501C181.743 104.534 182.13 104.344 182.386 104.163C182.649 103.973 182.839 103.718 183.004 103.446C183.243 103.059 183.177 102.647 182.855 102.465Z" fill="#92C10B"/>
<path d="M122.29 123.749C121.681 122.794 120.89 121.962 120.074 121.179C119.135 120.273 118.098 119.375 116.879 118.881C115.594 118.362 114.177 118.774 113.518 120.043C112.933 121.163 113.395 122.258 114.045 123.238C115.182 124.935 117.571 127.398 119.893 127.546C120.346 127.67 120.808 127.719 121.252 127.628C122.027 127.464 122.702 126.813 122.9 126.047C123.097 125.223 122.718 124.424 122.29 123.749Z" fill="#92C10B"/>
<path d="M126.327 130.371C126.294 130.231 126.195 130.091 126.08 130.009C125.997 129.951 125.915 129.926 125.824 129.91H125.832C125.808 129.902 125.783 129.902 125.758 129.893C125.684 129.885 125.61 129.869 125.544 129.86C125.47 129.869 125.388 129.877 125.313 129.885C125.107 129.844 124.868 129.918 124.712 130.033C124.613 130.108 124.522 130.198 124.456 130.297C124.391 130.396 124.333 130.577 124.358 130.701C124.308 130.833 124.292 130.973 124.333 131.105C124.374 131.245 124.432 131.36 124.539 131.459C124.564 131.5 124.588 131.525 124.63 131.541C124.72 131.607 124.827 131.64 124.943 131.648C124.984 131.657 125.017 131.657 125.058 131.657C125.173 131.681 125.289 131.681 125.404 131.657C125.569 131.615 125.717 131.549 125.857 131.459C126.071 131.319 126.195 131.121 126.294 130.907C126.352 130.75 126.368 130.544 126.327 130.371Z" fill="#92C10B"/>
<path d="M180.836 194.93C183.257 195.045 183.76 195.276 186.791 196.775C189.83 198.274 190.827 202.153 191.782 205.456C191.741 202.919 189.748 197.582 188.249 196.116C186.75 194.658 183.579 194.057 180.712 194.057C177.838 194.057 177.031 193.143 175.688 189.387C173.538 183.176 173.217 177.089 173.003 169.265C171.66 169.339 170.326 169.438 169.016 169.52C169.412 182.616 169.609 184.609 170.351 187.212C171.141 189.98 170.845 191.759 168.67 194.526C166.496 197.294 163.893 197.821 160.088 196.725C154.536 194.535 153.07 196.141 153.07 196.141C155.673 195.333 156.456 196.404 158.556 196.709C160.656 197.006 162.633 197.788 161.249 198.266C157.535 199.584 154.66 201.264 153.161 205.456C154.899 201.857 159.272 199.641 160.17 199.641C161.068 199.641 161.307 203.718 160.467 206.659C161.727 204.624 161.488 201.865 161.249 200.728C161.01 199.592 160.887 198.867 162.386 198.513C166.101 198.455 170.12 195.992 171.792 192.22C174.131 201.807 171.43 205.53 169.931 208.339C168.432 211.156 168.135 211.395 167.295 215.414C166.455 219.434 167.83 221.765 169.988 223.387C168.967 221.715 168.489 218.536 168.432 216.979C168.374 215.423 170.408 212.424 171.306 213.083C173.341 215.365 174.065 218.536 174.906 221.18C174.848 218.421 174.008 217.16 172.69 214.105C171.372 211.049 171.669 210.39 173.53 207.507C175.383 204.633 175.927 201.453 175.927 201.453C175.927 201.453 176.586 203.554 179.222 207.145C181.857 210.736 181.915 216.493 181.915 216.493C181.915 216.493 182.813 215.175 182.154 210.859C184.369 211.28 187.368 214.154 188.628 216.732C187.425 211.156 181.791 210.258 181.552 209.484C181.256 208.043 181.075 207.622 179.617 204.616C178.019 201.305 176.471 197.508 176.429 192.665C177.69 194.93 178.414 194.815 180.836 194.93Z" fill="#EBD9B3"/>
<path d="M180.713 193.834C178.028 193.834 177.262 193.118 175.911 189.321C173.77 183.127 173.457 177.163 173.234 169.256C173.078 169.265 172.921 169.273 172.773 169.281C172.995 177.221 173.308 183.217 175.475 189.469C176.809 193.208 177.657 194.296 180.713 194.296C183.291 194.296 186.586 194.823 188.093 196.289C188.851 197.03 189.749 198.809 190.449 200.695C189.666 198.933 188.595 197.401 186.899 196.561C183.892 195.078 183.357 194.815 180.853 194.691L180.425 194.674C178.382 194.584 177.764 194.559 176.669 192.549C176.619 192.459 176.512 192.409 176.405 192.434C176.298 192.459 176.232 192.558 176.232 192.657C176.274 197.491 177.797 201.305 179.436 204.707C180.861 207.655 181.051 208.084 181.356 209.542C181.446 209.846 181.874 210.052 182.632 210.423C184.041 211.107 186.446 212.26 187.739 214.838C186.265 212.861 184.057 210.975 182.212 210.629C182.138 210.612 182.064 210.637 182.006 210.686C181.949 210.736 181.924 210.818 181.94 210.892C182.253 212.943 182.204 214.294 182.08 215.151C181.899 213.215 181.314 209.591 179.42 207.005C176.842 203.488 176.166 201.396 176.158 201.379C176.125 201.28 176.035 201.19 175.919 201.214C175.812 201.223 175.722 201.297 175.705 201.404C175.697 201.437 175.145 204.567 173.341 207.367C171.463 210.275 171.117 210.999 172.485 214.179C172.518 214.261 172.551 214.344 172.592 214.418C172.262 213.874 171.892 213.363 171.455 212.877C171.274 212.746 170.969 212.639 170.524 212.886C169.437 213.462 168.169 215.719 168.21 216.971C168.259 218.305 168.605 220.719 169.314 222.49C167.469 220.719 166.908 218.454 167.534 215.455C168.268 211.93 168.572 211.378 169.676 209.319C169.816 209.056 169.973 208.767 170.146 208.446C170.261 208.224 170.384 208.001 170.516 207.771C172.073 204.954 174.206 201.091 172.023 192.162C171.999 192.063 171.916 191.998 171.818 191.989C171.809 191.989 171.801 191.989 171.793 191.989C171.702 191.989 171.62 192.039 171.579 192.129C170.022 195.638 166.151 198.224 162.329 198.29C160.912 198.628 160.78 199.353 160.904 200.185C160.838 199.987 160.756 199.822 160.665 199.699C160.492 199.468 160.294 199.419 160.171 199.419C159.372 199.419 156.777 200.712 154.776 202.804C156.308 200.654 158.507 199.493 161.332 198.488C161.761 198.34 161.967 198.126 161.942 197.854C161.925 197.64 161.736 197.458 161.472 197.294C164.701 197.903 166.958 197.08 168.852 194.666C171.002 191.932 171.422 190.103 170.574 187.146C169.849 184.609 169.651 182.913 169.248 169.503C169.091 169.512 168.935 169.52 168.786 169.536C169.174 182.402 169.355 184.585 170.129 187.278C170.928 190.062 170.524 191.792 168.49 194.386C166.431 197.005 164.017 197.623 160.179 196.511C154.537 194.287 152.972 195.918 152.906 195.984C152.832 196.058 152.824 196.174 152.882 196.264C152.939 196.355 153.046 196.388 153.145 196.363C154.825 195.844 155.715 196.132 156.736 196.478C157.272 196.651 157.815 196.841 158.524 196.94C160.36 197.203 161.423 197.706 161.481 197.887C161.481 197.887 161.439 197.961 161.176 198.052C157.321 199.419 154.438 201.19 152.947 205.382C152.906 205.497 152.964 205.629 153.079 205.67C153.195 205.72 153.326 205.67 153.376 205.555C155.056 202.071 159.364 199.872 160.179 199.872C160.229 199.872 160.286 199.938 160.303 199.971C160.888 200.745 160.97 204.089 160.253 206.593C160.22 206.708 160.278 206.824 160.385 206.865C160.492 206.914 160.616 206.873 160.673 206.774C162.189 204.32 161.563 201.033 161.481 200.671C161.233 199.509 161.184 199.032 162.395 198.735C166.184 198.677 169.931 196.305 171.727 192.895C173.613 201.198 171.595 204.855 170.113 207.54C169.981 207.779 169.857 208.001 169.742 208.224C169.569 208.545 169.412 208.833 169.272 209.097C168.169 211.148 167.831 211.765 167.081 215.357C166.332 218.964 167.213 221.575 169.865 223.56C169.907 223.593 169.956 223.61 170.005 223.61C170.063 223.61 170.121 223.593 170.162 223.552C170.244 223.478 170.261 223.354 170.203 223.256C169.256 221.699 168.745 218.635 168.679 216.955C168.638 215.785 169.89 213.742 170.747 213.297C170.936 213.199 171.093 213.182 171.15 213.223C172.847 215.118 173.63 217.712 174.321 220.002C174.445 220.422 174.569 220.834 174.7 221.229C174.733 221.336 174.849 221.402 174.956 221.386C175.071 221.369 175.153 221.27 175.153 221.155C175.104 218.865 174.536 217.613 173.605 215.538C173.391 215.077 173.168 214.566 172.921 213.998C171.636 211.024 171.908 210.464 173.745 207.622C175.079 205.555 175.738 203.364 176.018 202.236C176.422 203.142 177.303 204.871 179.058 207.277C181.619 210.769 181.71 216.436 181.71 216.493C181.71 216.592 181.776 216.683 181.874 216.716C181.973 216.74 182.08 216.707 182.13 216.625C182.171 216.567 183.028 215.25 182.459 211.164C184.461 211.749 187.228 214.344 188.447 216.831C188.497 216.938 188.62 216.987 188.727 216.946C188.834 216.905 188.9 216.79 188.876 216.674C187.97 212.482 184.634 210.868 182.838 210.003C182.377 209.78 181.858 209.525 181.809 209.426C181.496 207.935 181.306 207.499 179.856 204.501C178.341 201.363 176.924 197.862 176.718 193.538C177.707 195.02 178.555 195.053 180.4 195.136L180.828 195.152C183.233 195.268 183.695 195.498 186.693 196.973C189.501 198.356 190.531 201.923 191.437 205.069L191.569 205.514C191.602 205.629 191.709 205.703 191.824 205.679C191.94 205.662 192.022 205.563 192.022 205.448C191.981 202.837 189.93 197.417 188.414 195.951C187.047 194.625 184.164 193.834 180.713 193.834ZM158.59 196.487C157.922 196.388 157.395 196.215 156.885 196.042C156.777 196.009 156.679 195.976 156.572 195.943C157.214 196.05 157.964 196.231 158.837 196.519C158.721 196.503 158.639 196.495 158.59 196.487Z" fill="#BD7A43"/>
<path d="M180.836 194.93C183.257 195.045 183.76 195.276 186.791 196.775C189.83 198.274 190.827 202.153 191.782 205.456C191.741 202.919 189.748 197.582 188.249 196.116C186.75 194.658 183.578 194.057 180.712 194.057C177.838 194.057 177.03 193.143 175.688 189.387C173.538 183.176 173.217 177.089 173.003 169.265C172.327 169.306 171.644 169.347 170.976 169.396C171.092 174.207 171.528 179.989 172.723 185.59C175.836 195.523 175.54 201.602 172.426 206.642C169.692 211.082 166.842 216.773 169.428 222.119C168.81 220.406 168.497 218.198 168.448 216.979C168.39 215.423 170.425 212.424 171.322 213.083C173.357 215.365 174.082 218.536 174.922 221.18C174.864 218.421 174.024 217.16 172.706 214.105C171.388 211.049 171.685 210.39 173.546 207.507C175.4 204.633 175.943 201.453 175.943 201.453C175.943 201.453 176.602 203.554 179.238 207.145C181.873 210.736 181.931 216.493 181.931 216.493C181.931 216.493 182.829 215.175 182.17 210.859C184.386 211.28 187.384 214.154 188.644 216.732C187.441 211.156 181.808 210.258 181.569 209.484C181.272 208.043 181.091 207.622 179.633 204.616C178.035 201.305 176.487 197.508 176.446 192.665C177.689 194.93 178.414 194.815 180.836 194.93Z" fill="#EBD9B3"/>
<path d="M177.723 204.954C177.723 204.954 178.25 207.376 178.102 208.397C177.953 209.418 174.733 213.808 175.985 217.251C176.289 213.578 177.533 210.324 178.48 209.188C179.428 208.051 179.049 206.766 179.049 206.766L177.723 204.954Z" fill="#EBD9B3"/>
<path d="M175.985 217.49C175.887 217.49 175.804 217.432 175.771 217.334C174.808 214.681 176.373 211.551 177.303 209.682C177.592 209.097 177.847 208.594 177.88 208.364C178.02 207.392 177.509 205.028 177.501 205.003C177.476 204.896 177.534 204.789 177.633 204.74C177.732 204.69 177.847 204.723 177.913 204.814L179.239 206.626C179.255 206.651 179.264 206.675 179.272 206.7C179.288 206.758 179.675 208.117 178.662 209.336C177.69 210.505 176.504 213.792 176.216 217.268C176.208 217.375 176.126 217.465 176.018 217.482C176.002 217.49 175.994 217.49 175.985 217.49ZM178.143 205.926C178.283 206.733 178.424 207.812 178.333 208.43C178.292 208.726 178.045 209.212 177.715 209.888C176.99 211.346 175.862 213.602 175.936 215.719C176.406 212.663 177.443 210.085 178.308 209.039C179.082 208.109 178.885 207.071 178.844 206.865L178.143 205.926Z" fill="#BD7A43"/>
<path d="M168.959 210.291C168.959 210.291 167.007 211.436 163.473 212.729C159.94 214.022 156.835 216.073 155.36 218.981C156.266 216.164 158.227 213.734 162.139 212.251C166.051 210.769 169.206 209.533 169.914 208.866C169.148 209.863 168.959 210.291 168.959 210.291Z" fill="#EBD9B3"/>
<path d="M155.36 219.211C155.327 219.211 155.302 219.203 155.269 219.195C155.154 219.145 155.096 219.022 155.137 218.907C156.192 215.645 158.448 213.396 162.056 212.037C165.565 210.711 169.049 209.36 169.757 208.693C169.848 208.611 169.98 208.611 170.07 208.693C170.161 208.775 170.169 208.907 170.095 209.006C169.362 209.962 169.172 210.39 169.164 210.39C169.148 210.431 169.115 210.472 169.074 210.497C169.057 210.505 167.056 211.667 163.547 212.951C160.821 213.948 157.221 215.818 155.557 219.088C155.524 219.162 155.442 219.211 155.36 219.211ZM169.049 209.665C167.756 210.324 165.441 211.238 162.213 212.465C159.7 213.413 157.872 214.805 156.669 216.699C158.58 214.607 161.249 213.289 163.39 212.515C166.529 211.37 168.431 210.332 168.777 210.135C168.818 210.044 168.909 209.896 169.049 209.665Z" fill="#BD7A43"/>
<path d="M167.213 215.703C167.213 215.703 163.49 219.426 163.424 226.188C162.732 221.889 164.75 217.153 167.468 214.624C167.402 215.258 167.213 215.703 167.213 215.703Z" fill="#EBD9B3"/>
<path d="M163.424 226.418C163.309 226.418 163.21 226.336 163.193 226.22C162.46 221.69 164.709 216.872 167.303 214.45C167.377 214.384 167.476 214.368 167.567 214.409C167.657 214.45 167.707 214.541 167.69 214.64C167.625 215.299 167.427 215.76 167.419 215.785C167.41 215.809 167.394 215.834 167.369 215.859C167.336 215.892 163.712 219.606 163.646 226.179C163.646 226.303 163.556 226.402 163.432 226.41C163.432 226.418 163.424 226.418 163.424 226.418ZM167.089 215.332C165.738 216.798 164.544 218.906 163.935 221.237C164.972 217.836 166.735 215.867 167.007 215.579C167.032 215.529 167.056 215.447 167.089 215.332Z" fill="#BD7A43"/>
<path d="M181.645 195.012C181.645 195.012 182.781 196.149 182.88 197.697C182.979 199.246 183.119 200.448 184.774 202.236C186.422 204.023 188.044 206.091 188.044 206.091C188.044 206.091 186.257 204.023 185.466 202.236C184.676 200.448 184.33 200.103 184.058 198.315C183.786 196.528 183.473 195.498 182.822 195.111C182.814 195.111 182.295 194.806 181.645 195.012Z" fill="#EBD9B3"/>
<path d="M188.043 206.321C187.978 206.321 187.912 206.296 187.87 206.238C187.838 206.206 187.516 205.827 187.088 205.267C186.462 204.501 185.54 203.397 184.609 202.392C182.962 200.605 182.764 199.377 182.657 197.705C182.558 196.264 181.495 195.185 181.487 195.168C181.429 195.111 181.405 195.028 181.429 194.946C181.446 194.864 181.504 194.806 181.586 194.781C182.335 194.542 182.92 194.897 182.945 194.905C183.711 195.35 184.016 196.47 184.296 198.265C184.502 199.592 184.741 200.102 185.185 201.041C185.334 201.346 185.498 201.692 185.688 202.128C186.133 203.142 186.915 204.253 187.5 205.011C187.953 205.563 188.233 205.926 188.241 205.934C188.315 206.033 188.307 206.173 188.208 206.255C188.142 206.304 188.093 206.321 188.043 206.321ZM182.088 195.168C182.451 195.63 183.036 196.544 183.118 197.672C183.209 199.073 183.291 200.275 184.947 202.071C185.078 202.211 185.202 202.351 185.334 202.491C185.309 202.433 185.284 202.376 185.251 202.318C185.062 201.89 184.897 201.544 184.757 201.239C184.296 200.267 184.04 199.723 183.826 198.331C183.587 196.758 183.299 195.646 182.698 195.3C182.681 195.308 182.434 195.168 182.088 195.168Z" fill="#BD7A43"/>
<path d="M185.498 202.705C185.498 202.705 184.724 206.255 187.006 210.802C185.424 209.031 183.999 205.67 184.996 202.359C185.342 202.516 185.498 202.705 185.498 202.705Z" fill="#EBD9B3"/>
<path d="M187.005 211.041C186.939 211.041 186.873 211.016 186.832 210.967C185.094 209.023 183.785 205.58 184.773 202.302C184.79 202.236 184.839 202.186 184.897 202.162C184.954 202.137 185.028 202.137 185.086 202.162C185.473 202.335 185.654 202.557 185.671 202.573C185.712 202.631 185.728 202.697 185.712 202.771C185.704 202.804 184.987 206.296 187.195 210.719C187.244 210.827 187.211 210.95 187.12 211.016C187.096 211.024 187.046 211.041 187.005 211.041ZM185.144 202.705C184.592 204.838 185.028 207.013 185.893 208.743C184.864 205.654 185.152 203.348 185.251 202.788C185.218 202.763 185.185 202.738 185.144 202.705Z" fill="#BD7A43"/>
<path d="M188.661 196.388C188.908 196.701 189.007 197.121 189.007 197.121C189.007 197.121 194.246 198.299 197.647 202.672C195.53 198.949 192.928 197.047 188.661 196.388Z" fill="#EBD9B3" stroke="#BD7A43" stroke-width="0.5" stroke-miterlimit="10"/>
<path d="M153.722 215.036C153.722 215.036 153.87 214.574 156.193 212.367C158.524 210.159 161.192 212.639 161.192 212.639L161.991 212.235C159.718 210.283 157.519 211.123 156.827 211.098C154.158 210.752 152.552 211.247 150.896 212.853C152.107 211.889 154.01 211.617 156.184 211.691C154.595 212.672 153.722 215.036 153.722 215.036Z" fill="#EBD9B3" stroke="#BD7A43" stroke-width="0.5" stroke-miterlimit="10"/>
</svg>
