<svg width="340" height="340" viewBox="0 0 340 340" fill="none" xmlns="http://www.w3.org/2000/svg">
<path d="M170.5 266.952C223.795 266.952 267 223.748 267 170.452C267 117.157 223.795 73.9521 170.5 73.9521C117.204 73.9521 74 117.157 74 170.452C74 223.748 117.204 266.952 170.5 266.952Z" fill="#F2E8BD"/>
<path d="M123.823 165.939C123.872 165.131 123.584 164.374 122.777 163.805C121.064 162.611 118.288 163.278 116.435 163.822C114.318 164.439 112.226 165.238 110.315 166.334C108.882 167.158 106.617 168.747 107.276 170.708C107.951 172.709 110.834 173.088 112.596 173.211C115.232 173.401 118.074 173.096 120.537 172.075C122.472 171.268 124.457 169.645 124.391 167.347C124.367 166.737 124.152 166.284 123.823 165.939Z" fill="#6E4931"/>
<path d="M136.524 166.169C135.692 165.601 134.514 165.329 133.361 165.387C133.147 165.337 132.941 165.304 132.744 165.296C131.039 165.197 128.864 166.227 128.658 168.113C128.452 169.966 130.61 170.213 131.978 170.032C133.633 169.818 135.874 169.027 136.656 167.405C136.845 167.001 136.969 166.474 136.524 166.169Z" fill="#6E4931"/>
<path d="M171.24 166.96C170.515 164.077 166.076 162.948 163.564 162.66C161.768 162.462 159.972 163.08 158.72 164.406C157.79 165.395 157.271 166.894 157.872 168.014C157.996 168.335 158.21 168.648 158.548 168.945C160.384 170.526 163.539 170.79 165.853 170.831C168.061 170.864 172.023 170.065 171.24 166.96Z" fill="#6E4931"/>
<path d="M188.867 166.284C187.92 163.805 185.07 163.558 182.92 164.546C181.207 165.329 179.123 167.24 179.419 169.299C179.296 169.604 179.222 169.933 179.222 170.287C179.222 170.724 179.428 171.012 179.839 171.169C182.648 172.19 190.547 170.683 188.867 166.284Z" fill="#6E4931"/>
<path d="M226.484 165.971C225.421 164.9 223.436 164.431 221.97 164.414C220.446 164.398 218.807 164.859 217.44 165.502C216.402 165.996 214.705 167.009 215.035 168.417C215.422 170.073 218.503 170.394 219.779 170.551C221.196 170.732 223.28 170.592 224.762 169.777C224.886 169.801 225.026 169.785 225.158 169.686C226.377 168.854 227.933 167.429 226.484 165.971Z" fill="#6E4931"/>
<path d="M239.926 166.342C239.902 164.933 238.32 164.332 237.142 164.167C234.498 163.797 230.792 164.497 229.153 166.819C228.535 167.693 228.164 168.912 229.062 169.735C229.779 170.394 230.907 170.493 231.838 170.518C233.881 170.567 236.632 170.336 238.369 169.15C238.971 168.739 239.729 168.03 239.72 167.223C239.852 166.959 239.934 166.663 239.926 166.342Z" fill="#6E4931"/>
<path d="M249.777 166.622C249.415 165.567 248.27 165.378 247.339 165.798C246.82 166.037 246.293 166.531 246.244 167.132C246.202 167.561 246.458 167.841 246.779 167.898C246.861 167.981 246.96 168.055 247.084 168.096C247.627 168.285 248.105 168.228 248.64 168.063C249.168 167.89 250.024 167.322 249.777 166.622Z" fill="#6E4931"/>
<path d="M98.7006 167.833C98.5853 166.696 97.0615 166.005 96.0649 165.963C94.8788 165.906 93.7174 166.705 93.3468 167.825C93.2974 167.965 93.2727 168.121 93.2562 168.286C93.1244 168.566 93.1162 168.863 93.3385 169.102C93.3797 169.143 93.4292 169.184 93.4704 169.225C93.5857 169.39 93.7668 169.555 93.9563 169.637C93.9892 169.653 94.014 169.662 94.0469 169.662C94.7553 170.082 95.5954 170.222 96.4438 170.073C97.4733 169.884 98.8159 169.044 98.7006 167.833Z" fill="#6E4931"/>
<path d="M151.152 165.766C150.979 165.634 150.765 165.593 150.551 165.593C150.411 165.527 150.246 165.485 150.09 165.494C149.974 165.494 149.851 165.51 149.736 165.535C149.661 165.551 149.587 165.576 149.521 165.601C149.488 165.609 149.151 165.708 149.48 165.617C148.887 165.774 148.179 166.416 148.558 167.083C148.772 167.454 149.25 167.619 149.653 167.619C150.304 167.619 150.897 167.281 151.251 166.746C151.457 166.433 151.465 166.004 151.152 165.766Z" fill="#6E4931"/>
<path d="M198.876 167.166C198.851 167.133 198.826 167.108 198.802 167.076C198.818 167.018 198.826 166.968 198.843 166.911C198.909 166.548 198.62 166.309 198.332 166.186C198.192 166.128 197.928 166.144 197.796 166.177C197.739 166.194 197.557 166.252 197.508 166.268C197.36 166.334 197.22 166.416 197.104 166.532C196.907 166.696 196.939 166.672 197.203 166.449C197.145 166.491 197.096 166.532 197.038 166.589C196.972 166.647 196.923 166.696 196.865 166.754C196.799 166.812 196.733 166.869 196.684 166.927C196.437 167.207 196.239 167.603 196.412 167.974C196.569 168.311 196.997 168.443 197.343 168.344C197.541 168.287 197.706 168.221 197.879 168.138C197.903 168.147 197.92 168.155 197.945 168.163C198.217 168.246 198.571 168.097 198.744 167.891C198.884 167.718 199.073 167.364 198.876 167.166Z" fill="#6E4931"/>
<path d="M251.877 167.553C248.772 167.215 245.626 167.487 242.52 167.767C239.308 168.064 236.112 168.467 232.908 168.772C229.671 169.077 226.377 169.373 223.123 169.093C220.001 168.821 216.896 168.36 213.799 167.94C210.463 167.487 207.119 167.075 203.751 166.96C200.497 166.845 197.277 167.125 194.056 167.611C187.796 168.55 181.602 169.867 175.244 169.859C168.959 169.851 162.782 168.64 156.588 167.718C153.244 167.223 149.916 166.795 146.523 166.886C143.203 166.976 139.901 167.405 136.622 167.915C130.445 168.879 124.325 170.016 118.049 170.131C107.745 170.312 97.5562 168.492 87.2934 167.956C87.2934 168.294 87.2852 168.632 87.2852 168.97C87.2852 214.971 124.572 252.258 170.574 252.258C216.575 252.258 253.862 214.971 253.862 168.97C253.862 168.582 253.862 168.195 253.854 167.808C253.187 167.709 252.536 167.627 251.877 167.553Z" fill="#6E4931"/>
<path d="M102.333 177.157C105.249 178.26 108.214 179.01 111.344 179.084C114.449 179.158 117.538 178.639 120.519 177.807C126.186 176.234 131.416 173.467 137.322 172.725C140.477 172.33 143.705 172.544 146.877 172.569C150.13 172.594 153.375 172.585 156.629 172.454C162.831 172.198 169 171.449 175.021 173.442C177.854 174.381 180.605 175.518 183.571 176.004C186.791 176.531 189.88 176.028 193.01 175.229C195.893 174.488 198.751 173.574 201.708 173.162C204.434 172.775 207.193 172.94 209.903 173.401C212.885 173.912 215.792 174.76 218.741 175.386C221.838 176.045 225.001 176.415 228.164 176.284C233.954 176.045 239.579 174.29 245.395 174.274C248.121 174.266 250.839 174.603 253.565 174.686C253.598 174.686 253.631 174.686 253.672 174.686C253.804 172.791 253.87 170.88 253.87 168.953C253.87 168.566 253.87 168.179 253.862 167.792C253.203 167.701 252.544 167.61 251.885 167.545C248.78 167.207 245.633 167.479 242.528 167.759C239.316 168.055 236.12 168.459 232.916 168.764C229.679 169.068 226.384 169.365 223.131 169.085C220.009 168.813 216.904 168.352 213.807 167.932C210.471 167.479 207.127 167.067 203.758 166.952C200.505 166.836 197.285 167.116 194.064 167.602C187.804 168.541 181.61 169.859 175.252 169.851C168.967 169.843 162.79 168.632 156.596 167.709C153.252 167.215 149.924 166.787 146.531 166.877C143.211 166.968 139.908 167.396 136.63 167.907C130.453 168.871 124.333 170.007 118.057 170.123C107.753 170.304 97.564 168.484 87.3012 167.948C87.3012 168.286 87.293 168.624 87.293 168.961C87.293 170.666 87.3424 172.363 87.4495 174.052C92.5562 174.093 97.5475 175.345 102.333 177.157Z" fill="#6E4931"/>
<path d="M102.646 173.063C104.64 172.536 106.518 171.597 108.593 171.415C109.738 171.317 110.899 171.498 112.044 171.588C113.288 171.679 114.532 171.712 115.776 171.588C118.032 171.358 120.33 170.402 122.612 170.649C123.625 170.756 124.58 171.102 125.569 171.325C126.837 171.613 128.089 171.63 129.349 171.292C131.516 170.707 133.418 169.496 135.725 169.48C136.861 169.472 137.998 169.653 139.118 169.826C140.444 170.023 141.754 170.081 143.096 170.056C144.406 170.032 145.724 169.949 147.033 169.9C148.129 169.859 149.175 169.842 150.246 170.114C151.448 170.419 152.626 170.88 153.87 170.929C155.114 170.979 156.275 170.509 157.428 170.106C158.425 169.76 159.405 169.496 160.476 169.587C161.571 169.686 162.65 169.982 163.721 170.221C164.907 170.493 166.109 170.559 167.304 170.765C168.3 170.938 169.239 171.292 170.203 171.588C171.43 171.967 172.699 172.239 173.984 172.264C175.17 172.289 176.339 172.099 177.509 171.885C178.538 171.695 179.576 171.473 180.622 171.382C181.808 171.284 182.994 171.457 184.181 171.481C185.292 171.506 186.363 171.292 187.459 171.242C188.546 171.193 189.584 171.382 190.663 171.539C191.972 171.728 193.142 171.671 194.402 171.251C195.374 170.929 196.297 170.476 197.285 170.205C198.957 169.743 200.818 169.719 202.532 169.702C203.38 169.694 204.245 169.702 205.085 169.809C205.101 169.809 205.118 169.818 205.134 169.818C206.09 169.661 207.078 169.653 208.017 169.669C209.623 169.694 211.221 169.85 212.819 169.999C213.453 170.056 214.088 170.122 214.73 170.163C215.653 170.221 216.592 170.188 217.514 170.238C219.483 170.336 221.41 170.592 223.296 171.177C225.026 171.72 226.681 172.601 228.518 172.7C230.594 172.816 232.595 171.967 234.547 171.366C235.503 171.069 236.483 170.814 237.48 170.699C238.583 170.559 239.712 170.6 240.824 170.658C243.039 170.773 245.263 170.995 247.454 170.551C249.431 170.155 251.416 170.131 253.426 170.098C253.566 170.098 253.714 170.089 253.854 170.089C253.862 169.719 253.862 169.348 253.862 168.969C253.862 168.582 253.862 168.195 253.854 167.808C253.195 167.717 252.536 167.627 251.877 167.561C248.772 167.223 245.626 167.495 242.52 167.775C239.308 168.071 236.112 168.475 232.908 168.78C229.671 169.084 226.377 169.381 223.123 169.101C220.001 168.829 216.896 168.368 213.799 167.948C210.463 167.495 207.119 167.083 203.751 166.968C200.497 166.852 197.277 167.132 194.056 167.618C187.796 168.557 181.602 169.875 175.244 169.867C168.959 169.859 162.782 168.648 156.588 167.725C153.244 167.231 149.916 166.803 146.523 166.894C143.203 166.984 139.901 167.412 136.622 167.923C130.445 168.887 124.325 170.023 118.049 170.139C107.745 170.32 97.5562 168.5 87.2934 167.964C87.2934 168.302 87.2852 168.64 87.2852 168.977C87.2852 169.958 87.3016 170.929 87.3346 171.901C90.3739 172.824 93.7015 172.947 96.8232 173.178C98.8082 173.31 100.686 173.582 102.646 173.063Z" fill="#986749"/>
<path opacity="0.57" d="M224.21 213.06C218.642 213.126 213.19 214.864 207.885 216.387C202.721 217.878 197.458 219.278 192.038 219.229C186.289 219.18 180.688 217.697 175.054 216.7C172.048 216.165 169.017 215.786 165.953 215.794C162.93 215.803 159.907 216.099 156.917 216.527C151.119 217.351 145.403 218.661 139.596 219.394C136.837 219.74 134.069 220.003 131.293 219.666C128.896 219.369 126.565 218.71 124.3 217.895C119.243 216.074 114.441 213.686 109.104 212.739C105.785 212.154 102.424 211.915 99.0635 211.709C113.609 235.999 140.189 252.258 170.565 252.258C200.703 252.258 227.101 236.254 241.721 212.277C235.89 212.961 230.083 212.994 224.21 213.06Z" fill="#8C664B"/>
<path opacity="0.57" d="M219.145 230.867C213.881 231.246 208.94 233.396 203.709 234.005C198.265 234.64 192.746 234.879 187.269 234.763C181.891 234.648 176.512 234.071 171.125 234.088C168.407 234.096 165.681 234.31 163.021 234.879C160.302 235.463 157.609 236.139 154.907 236.806C152.395 237.432 149.867 238.009 147.289 238.297C144.661 238.593 142.042 238.503 139.414 238.181C134.645 237.597 130 236.287 125.453 234.771C122.01 233.627 118.592 232.35 115.149 231.156C129.868 244.285 149.282 252.266 170.565 252.266C191.774 252.266 211.122 244.342 225.833 231.287C223.617 230.958 221.385 230.703 219.145 230.867Z" fill="#8C664B"/>
<g opacity="0.57">
<path d="M102.457 188.169C101.197 188.07 99.9859 188.375 99.2858 189.19C98.6434 189.94 98.3386 191.027 98.3386 191.999C98.2892 194.379 99.327 196.71 102.078 196.422C104.376 196.175 106.501 194.387 106.831 192.056C107.144 189.866 104.738 188.35 102.457 188.169Z" fill="#8C664B"/>
<path d="M111.65 198.449C111.65 198.424 111.641 198.399 111.633 198.374C111.633 198.341 111.625 198.317 111.625 198.284C111.6 198.168 111.542 198.078 111.46 198.012C111.328 197.88 111.147 197.806 110.949 197.814C110.776 197.814 110.603 197.855 110.438 197.921C110.298 197.979 110.183 198.053 110.076 198.16C109.96 198.243 109.87 198.35 109.796 198.473C109.705 198.655 109.606 198.844 109.614 199.058C109.614 199.116 109.623 199.165 109.631 199.223C109.606 199.322 109.606 199.421 109.631 199.52C109.672 199.652 109.746 199.759 109.853 199.841C110.026 199.973 110.298 199.965 110.488 199.932C110.966 199.849 111.452 199.47 111.6 199.001C111.666 198.795 111.674 198.646 111.65 198.449Z" fill="#8C664B"/>
<path d="M122.999 212.138C122.777 212.121 122.571 212.187 122.389 212.294C121.887 212.294 121.458 212.698 121.269 213.127C121.104 213.481 121.154 213.934 121.417 214.222C121.656 214.486 121.969 214.676 122.324 214.676C123.098 214.692 123.634 213.992 123.724 213.275C123.798 212.764 123.601 212.179 122.999 212.138Z" fill="#8C664B"/>
<path d="M99.1791 183.005C98.9485 182.453 98.5943 181.983 97.8942 182.033C97.3753 182.074 96.9223 182.387 96.5681 182.766C95.7609 183.631 95.9092 185.122 97.3423 185.039C97.5153 185.064 97.6965 185.089 97.8777 185.08C98.586 185.064 99.6403 184.347 99.3685 183.515C99.3109 183.351 99.245 183.178 99.1791 183.005Z" fill="#8C664B"/>
<path d="M107.736 204.519C107.102 204.131 106.418 204.074 105.817 204.271C105.784 204.271 105.751 204.263 105.718 204.263C105.043 204.247 104.4 204.593 103.947 205.07C103.173 205.878 102.629 207.335 103.371 208.34C104.417 209.749 107.052 208.9 108.074 207.904C109.128 206.874 108.996 205.293 107.736 204.519Z" fill="#8C664B"/>
<path d="M124.26 202.715C123.683 202.715 123.139 203.745 123.905 203.745C124.482 203.745 125.026 202.715 124.26 202.715Z" fill="#8C664B"/>
<path d="M127.982 182.601C127.356 182.074 126.458 182.041 125.659 182.28C125.626 182.28 125.585 182.272 125.552 182.272C124.44 182.272 123.303 183.063 123.163 184.216C123.032 185.295 123.789 186.456 124.802 186.802C125.923 187.181 127.273 186.67 128.031 185.805C128.838 184.875 129.011 183.458 127.982 182.601Z" fill="#8C664B"/>
<path d="M134.818 183.227C134.085 183.227 133.393 184.537 134.374 184.537C135.107 184.537 135.799 183.227 134.818 183.227Z" fill="#8C664B"/>
<path d="M147.75 196.422C146.49 196.521 145.279 196.216 144.579 195.401C143.936 194.651 143.632 193.564 143.632 192.592C143.582 190.212 144.62 187.881 147.371 188.169C149.669 188.416 151.794 190.204 152.123 192.535C152.436 194.726 150.031 196.241 147.75 196.422Z" fill="#8C664B"/>
<path d="M165.92 188.984C165.582 189.009 165.269 188.91 164.989 188.746C164.223 188.746 163.564 188.136 163.267 187.469C163.02 186.925 163.086 186.233 163.498 185.78C163.86 185.385 164.338 185.089 164.89 185.08C166.084 185.064 166.9 186.135 167.04 187.222C167.147 188.021 166.842 188.927 165.92 188.984Z" fill="#8C664B"/>
<path d="M136.968 210.029C137.239 209.197 136.185 208.48 135.477 208.464C135.296 208.456 135.114 208.48 134.941 208.505C133.5 208.423 133.36 209.914 134.167 210.779C134.521 211.157 134.974 211.479 135.493 211.512C136.193 211.561 136.547 211.091 136.778 210.54C136.852 210.375 136.91 210.202 136.968 210.029Z" fill="#8C664B"/>
<path d="M146.843 179.891C146.209 180.278 145.526 180.336 144.924 180.138C144.891 180.138 144.858 180.147 144.825 180.147C144.15 180.163 143.508 179.817 143.055 179.339C142.28 178.532 141.737 177.074 142.478 176.069C143.524 174.661 146.16 175.509 147.181 176.506C148.235 177.535 148.104 179.117 146.843 179.891Z" fill="#8C664B"/>
<path d="M157.197 211.009C156.571 211.536 155.673 211.569 154.874 211.33C154.841 211.33 154.8 211.339 154.767 211.339C153.655 211.339 152.518 210.548 152.378 209.395C152.246 208.316 153.004 207.154 154.017 206.808C155.137 206.43 156.488 206.94 157.246 207.805C158.053 208.744 158.218 210.161 157.197 211.009Z" fill="#8C664B"/>
<path d="M172.427 210.326C171.694 210.326 171.001 209.016 171.982 209.016C172.715 209.016 173.407 210.326 172.427 210.326Z" fill="#8C664B"/>
<path d="M179.997 192.304C179.371 192.254 178.761 192.402 178.407 192.814C178.086 193.185 177.937 193.729 177.937 194.214C177.913 195.409 178.432 196.57 179.807 196.422C180.96 196.298 182.023 195.409 182.187 194.239C182.344 193.152 181.141 192.394 179.997 192.304Z" fill="#8C664B"/>
<path d="M191.256 198.449C191.256 198.424 191.248 198.399 191.24 198.374C191.24 198.341 191.231 198.317 191.231 198.284C191.207 198.168 191.149 198.078 191.067 198.012C190.935 197.88 190.753 197.806 190.556 197.814C190.383 197.814 190.21 197.855 190.045 197.921C189.905 197.979 189.789 198.053 189.682 198.16C189.567 198.243 189.476 198.35 189.402 198.473C189.311 198.655 189.213 198.844 189.221 199.058C189.221 199.116 189.229 199.165 189.237 199.223C189.213 199.322 189.213 199.421 189.237 199.52C189.278 199.652 189.353 199.759 189.46 199.841C189.633 199.973 189.905 199.965 190.094 199.932C190.572 199.849 191.058 199.47 191.207 199.001C191.272 198.795 191.281 198.646 191.256 198.449Z" fill="#8C664B"/>
<path d="M202.607 212.138C202.384 212.121 202.178 212.187 201.997 212.294C201.494 212.294 201.066 212.698 200.876 213.127C200.712 213.481 200.761 213.934 201.025 214.222C201.264 214.486 201.577 214.676 201.939 214.676C202.714 214.692 203.249 213.992 203.34 213.275C203.406 212.764 203.208 212.179 202.607 212.138Z" fill="#8C664B"/>
<path d="M178.777 183.005C178.546 182.453 178.192 181.983 177.492 182.033C176.973 182.074 176.52 182.387 176.166 182.766C175.359 183.631 175.507 185.122 176.94 185.039C177.113 185.064 177.294 185.089 177.475 185.08C178.184 185.064 179.238 184.347 178.966 183.515C178.909 183.351 178.851 183.178 178.777 183.005Z" fill="#8C664B"/>
<path d="M187.343 204.519C186.709 204.131 186.026 204.074 185.424 204.271C185.391 204.271 185.358 204.263 185.325 204.263C184.65 204.247 184.008 204.593 183.555 205.07C182.78 205.878 182.237 207.335 182.978 208.34C184.024 209.749 186.66 208.9 187.681 207.904C188.735 206.874 188.604 205.293 187.343 204.519Z" fill="#8C664B"/>
<path d="M203.858 202.715C203.281 202.715 202.738 203.745 203.504 203.745C204.089 203.745 204.633 202.715 203.858 202.715Z" fill="#8C664B"/>
<path d="M207.589 182.601C206.963 182.074 206.065 182.041 205.266 182.28C205.233 182.28 205.192 182.272 205.159 182.272C204.047 182.272 202.911 183.063 202.771 184.216C202.639 185.295 203.397 186.456 204.41 186.802C205.53 187.181 206.881 186.67 207.639 185.805C208.446 184.875 208.61 183.458 207.589 182.601Z" fill="#8C664B"/>
<path d="M214.426 183.227C213.693 183.227 213 184.537 213.981 184.537C214.714 184.537 215.398 183.227 214.426 183.227Z" fill="#8C664B"/>
<path d="M222.876 198.498C221.937 198.572 221.023 198.35 220.496 197.732C220.01 197.172 219.788 196.356 219.788 195.623C219.746 193.836 220.529 192.09 222.588 192.304C224.318 192.485 225.907 193.828 226.155 195.582C226.393 197.23 224.59 198.366 222.876 198.498Z" fill="#8C664B"/>
<path d="M245.527 188.984C245.189 189.009 244.876 188.91 244.596 188.746C243.822 188.746 243.171 188.136 242.875 187.469C242.628 186.925 242.694 186.233 243.105 185.78C243.468 185.385 243.946 185.089 244.497 185.08C245.692 185.064 246.507 186.135 246.647 187.222C246.746 188.021 246.441 188.927 245.527 188.984Z" fill="#8C664B"/>
<path d="M216.575 210.029C216.847 209.197 215.792 208.48 215.084 208.464C214.903 208.456 214.722 208.48 214.549 208.505C213.107 208.423 212.967 209.914 213.775 210.779C214.129 211.157 214.582 211.479 215.101 211.512C215.801 211.561 216.155 211.091 216.386 210.54C216.46 210.375 216.517 210.202 216.575 210.029Z" fill="#8C664B"/>
<path d="M228.823 183.128C228.42 183.375 227.991 183.408 227.612 183.284C227.596 183.284 227.571 183.293 227.555 183.293C227.126 183.301 226.723 183.087 226.435 182.782C225.94 182.271 225.603 181.349 226.072 180.715C226.739 179.825 228.403 180.36 229.054 180.986C229.705 181.637 229.614 182.642 228.823 183.128Z" fill="#8C664B"/>
<path d="M236.795 211.009C236.169 211.536 235.271 211.569 234.473 211.33C234.44 211.33 234.398 211.339 234.365 211.339C233.254 211.339 232.117 210.548 231.977 209.395C231.845 208.316 232.603 207.154 233.616 206.808C234.736 206.43 236.087 206.94 236.845 207.805C237.652 208.744 237.825 210.161 236.795 211.009Z" fill="#8C664B"/>
</g>
<g opacity="0.57">
<path d="M113.782 220.646C113.42 220.613 113.065 220.703 112.859 220.942C112.67 221.157 112.588 221.478 112.588 221.758C112.571 222.45 112.876 223.134 113.675 223.043C114.343 222.969 114.961 222.45 115.059 221.775C115.142 221.14 114.441 220.695 113.782 220.646Z" fill="#8C664B"/>
<path d="M114.953 225.819C114.953 225.81 114.945 225.794 114.945 225.786C114.945 225.769 114.945 225.761 114.945 225.745C114.937 225.695 114.912 225.654 114.871 225.621C114.813 225.563 114.731 225.53 114.64 225.53C114.558 225.53 114.483 225.547 114.409 225.58C114.343 225.604 114.294 225.637 114.244 225.687C114.195 225.728 114.154 225.769 114.121 225.827C114.08 225.909 114.038 225.992 114.038 226.091C114.038 226.115 114.038 226.14 114.047 226.165C114.038 226.206 114.03 226.255 114.047 226.297C114.063 226.354 114.096 226.404 114.145 226.445C114.22 226.503 114.343 226.503 114.434 226.486C114.648 226.453 114.871 226.28 114.937 226.066C114.961 225.975 114.969 225.909 114.953 225.819Z" fill="#8C664B"/>
<path d="M109.344 218.875C109.237 218.628 109.08 218.414 108.767 218.438C108.537 218.455 108.331 218.595 108.174 218.768C107.811 219.155 107.877 219.831 108.52 219.79C108.602 219.798 108.677 219.806 108.759 219.806C109.08 219.798 109.55 219.477 109.426 219.106C109.402 219.032 109.377 218.949 109.344 218.875Z" fill="#8C664B"/>
<path d="M137.059 236.765C136.771 236.592 136.466 236.568 136.194 236.65C136.178 236.65 136.17 236.642 136.153 236.642C135.848 236.633 135.56 236.79 135.354 237.004C135.008 237.367 134.761 238.026 135.098 238.479C135.568 239.114 136.754 238.735 137.216 238.281C137.686 237.828 137.62 237.111 137.059 236.765Z" fill="#8C664B"/>
<path d="M120.627 227.738C120.363 227.738 120.124 228.199 120.47 228.199C120.726 228.207 120.965 227.738 120.627 227.738Z" fill="#8C664B"/>
<path d="M122.299 218.694C122.019 218.455 121.616 218.447 121.253 218.546C121.236 218.546 121.22 218.546 121.204 218.546C120.701 218.546 120.19 218.9 120.132 219.419C120.075 219.905 120.413 220.424 120.874 220.581C121.377 220.754 121.986 220.523 122.324 220.128C122.687 219.716 122.761 219.081 122.299 218.694Z" fill="#8C664B"/>
<path d="M125.372 218.974C125.042 218.974 124.729 219.559 125.166 219.559C125.503 219.567 125.817 218.974 125.372 218.974Z" fill="#8C664B"/>
<path d="M130.511 227.87C129.943 227.911 129.399 227.779 129.086 227.408C128.798 227.071 128.658 226.585 128.658 226.148C128.633 225.077 129.103 224.031 130.338 224.163C131.376 224.27 132.332 225.077 132.48 226.123C132.62 227.112 131.541 227.787 130.511 227.87Z" fill="#8C664B"/>
<path d="M139.366 221.561C139.21 221.57 139.069 221.528 138.946 221.454C138.6 221.454 138.303 221.182 138.171 220.877C138.056 220.63 138.089 220.325 138.278 220.119C138.443 219.938 138.657 219.806 138.905 219.806C139.44 219.798 139.811 220.284 139.869 220.77C139.91 221.133 139.778 221.537 139.366 221.561Z" fill="#8C664B"/>
<path d="M126.344 231.033C126.467 230.654 125.99 230.341 125.676 230.333C125.594 230.333 125.512 230.341 125.438 230.349C124.787 230.308 124.729 230.983 125.091 231.371C125.248 231.544 125.454 231.684 125.685 231.7C125.998 231.725 126.163 231.511 126.261 231.264C126.286 231.189 126.319 231.107 126.344 231.033Z" fill="#8C664B"/>
<path d="M136.919 231.305C136.779 231.42 136.573 231.428 136.4 231.379C136.392 231.379 136.384 231.379 136.376 231.379C136.128 231.379 135.873 231.198 135.84 230.942C135.807 230.695 135.98 230.439 136.211 230.357C136.466 230.275 136.771 230.39 136.936 230.58C137.109 230.794 137.15 231.107 136.919 231.305Z" fill="#8C664B"/>
<path d="M142.289 231.164C141.96 231.164 141.647 230.579 142.092 230.579C142.413 230.571 142.726 231.164 142.289 231.164Z" fill="#8C664B"/>
<path d="M146.622 221.198C146.053 221.156 145.51 221.288 145.197 221.659C144.909 221.997 144.769 222.483 144.769 222.919C144.744 223.99 145.213 225.036 146.449 224.904C147.487 224.797 148.442 223.99 148.59 222.944C148.73 221.955 147.643 221.28 146.622 221.198Z" fill="#8C664B"/>
<path d="M150.758 225.819C150.758 225.81 150.749 225.794 150.749 225.786C150.749 225.769 150.749 225.761 150.749 225.745C150.741 225.695 150.716 225.654 150.675 225.621C150.618 225.563 150.535 225.53 150.445 225.53C150.362 225.53 150.288 225.547 150.214 225.58C150.148 225.604 150.098 225.637 150.049 225.687C150 225.728 149.958 225.769 149.925 225.827C149.884 225.909 149.843 225.992 149.843 226.091C149.843 226.115 149.843 226.14 149.851 226.165C149.843 226.206 149.835 226.255 149.851 226.297C149.868 226.354 149.901 226.404 149.95 226.445C150.024 226.503 150.148 226.503 150.239 226.486C150.453 226.453 150.675 226.28 150.741 226.066C150.766 225.975 150.766 225.909 150.758 225.819Z" fill="#8C664B"/>
<path d="M155.863 231.98C155.764 231.972 155.673 232.004 155.591 232.046C155.369 232.046 155.171 232.227 155.088 232.416C155.014 232.573 155.031 232.779 155.154 232.911C155.261 233.026 155.401 233.117 155.566 233.117C155.912 233.125 156.16 232.804 156.201 232.491C156.217 232.26 156.127 231.996 155.863 231.98Z" fill="#8C664B"/>
<path d="M145.148 218.875C145.041 218.628 144.884 218.414 144.571 218.438C144.34 218.455 144.134 218.595 143.978 218.768C143.615 219.155 143.681 219.831 144.324 219.79C144.406 219.798 144.48 219.806 144.563 219.806C144.884 219.798 145.354 219.477 145.23 219.106C145.205 219.032 145.181 218.949 145.148 218.875Z" fill="#8C664B"/>
<path d="M148.995 235.661C148.707 235.488 148.402 235.464 148.13 235.546C148.113 235.546 148.105 235.538 148.089 235.538C147.784 235.529 147.495 235.686 147.289 235.9C146.943 236.263 146.696 236.922 147.034 237.375C147.504 238.01 148.69 237.631 149.151 237.177C149.621 236.724 149.563 236.007 148.995 235.661Z" fill="#8C664B"/>
<path d="M156.424 227.738C156.16 227.738 155.921 228.199 156.267 228.199C156.531 228.207 156.77 227.738 156.424 227.738Z" fill="#8C664B"/>
<path d="M158.105 218.694C157.825 218.455 157.421 218.447 157.059 218.546C157.042 218.546 157.026 218.546 157.009 218.546C156.507 218.546 155.996 218.9 155.938 219.419C155.88 219.905 156.218 220.424 156.68 220.581C157.182 220.754 157.792 220.523 158.13 220.128C158.484 219.716 158.566 219.081 158.105 218.694Z" fill="#8C664B"/>
<path d="M161.176 218.974C160.846 218.974 160.533 219.559 160.978 219.559C161.308 219.567 161.613 218.974 161.176 218.974Z" fill="#8C664B"/>
<path d="M166.316 227.87C165.748 227.911 165.204 227.779 164.891 227.408C164.603 227.071 164.463 226.585 164.463 226.148C164.438 225.077 164.908 224.031 166.143 224.163C167.181 224.27 168.136 225.077 168.285 226.123C168.425 227.112 167.346 227.787 166.316 227.87Z" fill="#8C664B"/>
<path d="M175.162 221.561C175.006 221.57 174.866 221.528 174.742 221.454C174.396 221.454 174.099 221.182 173.968 220.877C173.86 220.63 173.885 220.325 174.075 220.119C174.239 219.938 174.454 219.806 174.701 219.806C175.236 219.798 175.607 220.284 175.665 220.77C175.714 221.133 175.574 221.537 175.162 221.561Z" fill="#8C664B"/>
<path d="M162.14 231.033C162.263 230.654 161.785 230.341 161.472 230.333C161.39 230.333 161.308 230.341 161.233 230.349C160.582 230.308 160.525 230.983 160.887 231.371C161.044 231.544 161.25 231.684 161.481 231.7C161.794 231.725 161.958 231.511 162.057 231.264C162.09 231.189 162.115 231.107 162.14 231.033Z" fill="#8C664B"/>
<path d="M171.242 231.47C170.962 231.708 170.558 231.717 170.195 231.618C170.179 231.618 170.162 231.618 170.146 231.618C169.643 231.618 169.132 231.264 169.075 230.744C169.017 230.258 169.355 229.739 169.816 229.583C170.319 229.41 170.929 229.64 171.267 230.036C171.629 230.456 171.703 231.091 171.242 231.47Z" fill="#8C664B"/>
</g>
<g opacity="0.57">
<path d="M185.136 222.284C185.103 222.713 185.21 223.125 185.498 223.363C185.753 223.578 186.124 223.676 186.462 223.676C187.277 223.685 188.068 223.322 187.953 222.383C187.862 221.601 187.244 220.884 186.445 220.777C185.696 220.678 185.185 221.51 185.136 222.284Z" fill="#8C664B"/>
<path d="M191.182 220.852C191.165 220.852 191.157 220.86 191.14 220.86C191.124 220.86 191.107 220.86 191.091 220.868C191.033 220.885 190.984 220.909 190.951 220.959C190.885 221.033 190.844 221.124 190.844 221.231C190.844 221.321 190.868 221.412 190.901 221.503C190.934 221.577 190.976 221.634 191.025 221.692C191.066 221.75 191.124 221.799 191.19 221.84C191.289 221.89 191.388 221.939 191.503 221.931C191.528 221.931 191.561 221.931 191.585 221.923C191.635 221.931 191.692 221.939 191.742 221.923C191.808 221.898 191.865 221.857 191.915 221.799C191.981 221.709 191.981 221.568 191.964 221.461C191.923 221.214 191.717 220.959 191.47 220.885C191.363 220.835 191.289 220.835 191.182 220.852Z" fill="#8C664B"/>
<path d="M183.118 227.507C182.829 227.63 182.582 227.82 182.615 228.191C182.64 228.463 182.805 228.702 183.011 228.883C183.472 229.303 184.255 229.221 184.205 228.463C184.222 228.372 184.23 228.273 184.222 228.182C184.206 227.812 183.826 227.26 183.39 227.408C183.291 227.441 183.2 227.474 183.118 227.507Z" fill="#8C664B"/>
<path d="M208.281 238.141C208 237.968 207.696 237.943 207.432 238.025C207.415 238.025 207.407 238.017 207.391 238.017C207.094 238.009 206.806 238.166 206.608 238.371C206.262 238.726 206.023 239.377 206.352 239.822C206.814 240.448 207.984 240.069 208.437 239.632C208.898 239.179 208.841 238.479 208.281 238.141Z" fill="#8C664B"/>
<path d="M207.844 224.624C207.588 224.624 207.349 225.077 207.687 225.077C207.943 225.085 208.182 224.624 207.844 224.624Z" fill="#8C664B"/>
<path d="M208.265 219.781C207.984 219.55 207.589 219.534 207.235 219.641C207.218 219.641 207.202 219.641 207.185 219.641C206.691 219.641 206.188 219.987 206.13 220.498C206.073 220.976 206.411 221.486 206.856 221.643C207.35 221.808 207.951 221.585 208.289 221.198C208.644 220.786 208.718 220.16 208.265 219.781Z" fill="#8C664B"/>
<path d="M212.522 215.992C212.192 215.992 211.888 216.568 212.324 216.568C212.646 216.577 212.959 215.992 212.522 215.992Z" fill="#8C664B"/>
<path d="M217.587 224.756C217.027 224.797 216.492 224.665 216.179 224.303C215.891 223.974 215.759 223.488 215.759 223.059C215.734 222.005 216.195 220.975 217.414 221.099C218.436 221.206 219.375 221.997 219.523 223.035C219.663 224.006 218.592 224.674 217.587 224.756Z" fill="#8C664B"/>
<path d="M226.294 218.546C226.145 218.555 226.005 218.513 225.882 218.439C225.544 218.439 225.247 218.167 225.115 217.871C225.008 217.632 225.033 217.327 225.214 217.121C225.379 216.948 225.585 216.816 225.832 216.808C226.36 216.799 226.722 217.277 226.788 217.755C226.838 218.118 226.706 218.522 226.294 218.546Z" fill="#8C664B"/>
<path d="M213.47 227.869C213.594 227.499 213.124 227.185 212.811 227.177C212.728 227.177 212.654 227.186 212.572 227.194C211.937 227.153 211.871 227.82 212.226 228.199C212.382 228.364 212.588 228.504 212.811 228.529C213.124 228.553 213.28 228.339 213.379 228.1C213.42 228.018 213.445 227.944 213.47 227.869Z" fill="#8C664B"/>
<path d="M222.967 217.748C222.687 217.921 222.382 217.945 222.118 217.863C222.102 217.863 222.094 217.863 222.077 217.871C221.781 217.879 221.492 217.723 221.294 217.517C220.948 217.163 220.709 216.512 221.039 216.067C221.5 215.441 222.67 215.82 223.124 216.256C223.585 216.709 223.527 217.41 222.967 217.748Z" fill="#8C664B"/>
<path d="M223.889 228.133C223.749 228.249 223.551 228.257 223.378 228.207C223.37 228.207 223.362 228.207 223.354 228.207C223.106 228.207 222.859 228.034 222.826 227.779C222.793 227.54 222.966 227.285 223.189 227.202C223.436 227.12 223.741 227.235 223.906 227.425C224.079 227.631 224.12 227.944 223.889 228.133Z" fill="#8C664B"/>
<path d="M229.177 228.001C228.848 228.001 228.543 227.424 228.979 227.424C229.301 227.416 229.614 228.001 229.177 228.001Z" fill="#8C664B"/>
<path d="M182.137 235.884C181.577 235.843 181.042 235.974 180.729 236.337C180.44 236.666 180.309 237.152 180.309 237.58C180.284 238.635 180.745 239.664 181.964 239.541C182.985 239.434 183.924 238.643 184.073 237.605C184.213 236.633 183.15 235.966 182.137 235.884Z" fill="#8C664B"/>
<path d="M185.531 244.26C185.457 244.252 185.391 244.276 185.333 244.309C185.169 244.309 185.029 244.441 184.963 244.581C184.913 244.697 184.921 244.845 185.012 244.944C185.086 245.026 185.193 245.092 185.309 245.092C185.564 245.1 185.737 244.87 185.77 244.631C185.795 244.466 185.729 244.268 185.531 244.26Z" fill="#8C664B"/>
<path d="M231.994 215.902C231.887 215.654 231.73 215.448 231.425 215.473C231.195 215.49 230.997 215.63 230.84 215.803C230.486 216.182 230.544 216.849 231.186 216.808C231.269 216.816 231.343 216.825 231.425 216.825C231.738 216.816 232.208 216.503 232.085 216.132C232.052 216.05 232.019 215.976 231.994 215.902Z" fill="#8C664B"/>
<path d="M185.944 241.171C185.754 241.171 185.573 241.509 185.828 241.509C186.018 241.509 186.199 241.171 185.944 241.171Z" fill="#8C664B"/>
<path d="M199.846 227.836C199.649 228.083 199.632 228.429 199.731 228.743C199.731 228.759 199.731 228.767 199.731 228.784C199.739 229.22 200.052 229.657 200.497 229.707C200.918 229.756 201.371 229.451 201.503 229.056C201.643 228.619 201.445 228.092 201.099 227.803C200.728 227.49 200.176 227.432 199.846 227.836Z" fill="#8C664B"/>
<path d="M200.061 225.168C200.061 225.456 200.58 225.72 200.571 225.341C200.571 225.052 200.061 224.789 200.061 225.168Z" fill="#8C664B"/>
<path d="M202.013 242.275C201.601 242.308 201.205 242.209 200.975 241.937C200.761 241.69 200.662 241.336 200.662 241.015C200.645 240.232 200.983 239.466 201.889 239.565C202.647 239.648 203.339 240.232 203.446 240.998C203.553 241.715 202.762 242.209 202.013 242.275Z" fill="#8C664B"/>
<path d="M208.742 232.045C208.627 232.054 208.528 232.021 208.437 231.971C208.182 231.971 207.968 231.773 207.869 231.551C207.786 231.37 207.811 231.147 207.943 230.999C208.067 230.867 208.223 230.776 208.404 230.768C208.792 230.76 209.064 231.114 209.113 231.469C209.146 231.732 209.047 232.029 208.742 232.045Z" fill="#8C664B"/>
<path d="M190.111 243.568C190.202 243.297 189.856 243.066 189.625 243.058C189.567 243.058 189.51 243.066 189.452 243.074C188.982 243.049 188.933 243.535 189.196 243.816C189.312 243.939 189.46 244.046 189.633 244.055C189.864 244.071 189.979 243.914 190.053 243.733C190.07 243.684 190.095 243.626 190.111 243.568Z" fill="#8C664B"/>
<path d="M198.71 220.489C198.867 220.736 198.891 221 198.817 221.239C198.817 221.255 198.817 221.264 198.825 221.272C198.834 221.536 198.702 221.791 198.521 221.964C198.207 222.269 197.639 222.491 197.243 222.203C196.691 221.799 197.004 220.769 197.392 220.366C197.787 219.962 198.405 220.003 198.71 220.489Z" fill="#8C664B"/>
<path d="M196.733 243.89C196.527 244.063 196.23 244.071 195.975 243.997C195.966 243.997 195.95 243.997 195.942 243.997C195.579 243.997 195.208 243.741 195.159 243.362C195.118 243.008 195.365 242.629 195.694 242.514C196.065 242.39 196.502 242.555 196.749 242.843C197.021 243.148 197.07 243.61 196.733 243.89Z" fill="#8C664B"/>
<path d="M180.572 244.861C180.235 244.655 179.881 244.631 179.559 244.729C179.543 244.729 179.526 244.721 179.51 244.721C179.156 244.713 178.818 244.894 178.579 245.141C178.167 245.57 177.887 246.336 178.274 246.863C178.826 247.604 180.21 247.159 180.754 246.632C181.305 246.105 181.24 245.273 180.572 244.861Z" fill="#8C664B"/>
<path d="M139.464 244.104C139.381 244.095 139.299 244.12 139.225 244.161C139.027 244.161 138.862 244.318 138.788 244.483C138.722 244.623 138.739 244.796 138.846 244.911C138.936 245.01 139.06 245.084 139.2 245.092C139.505 245.101 139.711 244.821 139.744 244.549C139.769 244.343 139.694 244.112 139.464 244.104Z" fill="#8C664B"/>
<path d="M139.949 240.43C139.727 240.43 139.513 240.834 139.809 240.834C140.04 240.834 140.246 240.43 139.949 240.43Z" fill="#8C664B"/>
<path d="M162.831 248.955C162.345 248.996 161.868 248.872 161.596 248.559C161.349 248.271 161.225 247.843 161.225 247.464C161.209 246.533 161.612 245.627 162.683 245.742C163.581 245.841 164.404 246.533 164.536 247.447C164.66 248.296 163.721 248.889 162.831 248.955Z" fill="#8C664B"/>
<path d="M144.9 243.28C145.007 242.959 144.595 242.679 144.323 242.67C144.249 242.67 144.183 242.679 144.117 242.687C143.557 242.654 143.499 243.239 143.812 243.577C143.952 243.725 144.126 243.849 144.331 243.865C144.603 243.882 144.743 243.7 144.834 243.486C144.859 243.412 144.884 243.346 144.9 243.28Z" fill="#8C664B"/>
<path d="M152.782 243.659C152.535 243.865 152.189 243.874 151.876 243.783C151.86 243.783 151.851 243.783 151.835 243.783C151.398 243.783 150.962 243.478 150.904 243.025C150.854 242.605 151.151 242.151 151.547 242.02C151.983 241.871 152.511 242.069 152.807 242.407C153.12 242.778 153.186 243.33 152.782 243.659Z" fill="#8C664B"/>
</g>
<path d="M95.5464 167.215C95.4146 166.4 94.6569 165.848 93.9568 165.51C92.3671 164.744 90.1597 164.769 88.7183 165.856C87.9523 166.432 87.4993 167.396 87.837 168.343C88.1335 169.175 88.9242 169.579 89.7726 169.422C89.8303 169.414 89.8879 169.389 89.9373 169.348C91.1975 169.916 92.8531 169.867 94.0144 169.365C94.8463 169.002 95.7029 168.203 95.5464 167.215Z" fill="#5A3B25"/>
<path d="M107.786 165.617C106.377 164.744 104.524 164.579 102.91 164.604C101.155 164.629 98.8409 164.917 97.7043 166.416C96.7159 167.725 97.7702 168.673 98.9563 169.216C99.401 169.867 100.365 170.287 101.007 170.509C103.313 171.325 107.448 171.885 108.89 169.307C109.639 167.964 109.038 166.391 107.786 165.617Z" fill="#5A3B25"/>
<path d="M128.971 166.828C127.529 165.905 125.454 166.342 124.037 167.116C123.362 167.478 122.604 168.113 122.546 168.953C122.538 169.093 122.554 169.216 122.579 169.332C122.554 169.678 122.703 169.999 123.139 170.163C123.361 170.246 123.6 170.312 123.847 170.353C123.872 170.361 123.897 170.369 123.922 170.369C123.946 170.378 123.979 170.378 124.012 170.378C125.206 170.559 126.607 170.361 127.669 170.056C128.419 169.842 129.201 169.48 129.597 168.772C130.033 167.981 129.679 167.272 128.971 166.828Z" fill="#5A3B25"/>
<path d="M146.58 164.027C144.085 162.553 141.045 162.742 138.632 164.299C137.685 164.909 136.589 165.905 136.433 167.091C136.276 168.302 137.232 168.343 138.146 168.475C138.154 168.475 138.154 168.475 138.163 168.475C139.431 169.307 141.243 169.398 142.685 169.315C144.307 169.225 146.276 168.928 147.47 167.717C148.821 166.35 148.014 164.876 146.58 164.027Z" fill="#5A3B25"/>
<path d="M159.603 166.705C158.598 165.024 155.978 164.753 154.232 164.81C152.857 164.851 149.134 165.947 150.394 168.014C150.394 168.253 150.493 168.484 150.715 168.69C152.058 169.9 154.702 170.073 156.399 169.958C157.947 169.843 160.83 168.772 159.603 166.705Z" fill="#5A3B25"/>
<path d="M179.124 166.573C177.155 165.724 174.495 165.527 172.427 166.078C171.447 166.342 170.121 166.984 169.775 168.03C169.701 168.245 169.693 168.434 169.717 168.591C169.627 168.689 169.544 168.788 169.462 168.887C169.034 169.439 169.281 170.106 169.866 170.37C172.477 171.548 175.631 171.465 178.341 170.625C179.297 170.329 180.474 169.826 180.796 168.78C181.15 167.627 180.038 166.968 179.124 166.573Z" fill="#5A3B25"/>
<path d="M196.652 166.441C194.864 165.205 192.327 165.403 190.301 166.293C189.132 166.375 188.053 166.877 187.147 168.072C186.965 168.319 186.899 168.755 187.097 169.011C189.107 171.622 194.131 169.736 196.297 168.245C196.816 167.882 197.352 166.927 196.652 166.441Z" fill="#5A3B25"/>
<path d="M209.961 166.342C208.338 164.711 205.991 164.687 203.841 164.687C202.449 164.687 198.685 165.395 200.332 167.619C201.279 168.887 203.454 169.299 204.912 169.447C206.732 169.62 208.948 169.175 209.895 167.421C210.051 167.141 210.241 166.63 209.961 166.342Z" fill="#5A3B25"/>
<path d="M215.076 164.81C213.478 164.341 211.049 164.81 210.48 166.606C210.192 167.52 210.81 168.607 211.584 169.085C212.581 169.703 213.923 169.167 214.879 168.64C216.304 167.849 217.127 165.411 215.076 164.81Z" fill="#5A3B25"/>
<path d="M229.82 169.826C229.968 169.538 230.009 169.209 229.803 168.929C229.795 168.92 229.787 168.904 229.779 168.896C229.334 167.479 227.11 167.734 225.957 168.55C225.594 168.805 225.298 169.25 225.389 169.711C225.389 169.719 225.397 169.728 225.397 169.736C225.38 169.917 225.405 170.115 225.504 170.321C225.669 170.675 225.949 170.831 226.27 170.864C227.168 171.292 228.502 171.012 229.284 170.452C229.441 170.345 229.597 170.181 229.729 169.991C229.77 169.942 229.803 169.884 229.82 169.826Z" fill="#5A3B25"/>
<path d="M248.048 166.161C247.447 165.073 245.948 164.769 244.778 164.703C243.979 164.415 242.999 164.39 242.299 164.447C240.849 164.555 238.403 165.362 238.699 167.264C238.947 168.862 241.179 168.945 242.414 168.92C244.103 168.887 245.997 168.681 247.48 167.824C248.032 167.503 248.361 166.737 248.048 166.161Z" fill="#5A3B25"/>
<path d="M251.77 166.342C251.646 165.913 251.193 165.707 250.724 165.815C250.361 165.905 250.056 166.07 249.809 166.309C249.677 166.408 249.546 166.523 249.439 166.646C249.397 166.696 249.356 166.745 249.315 166.795C249.307 166.811 249.29 166.828 249.274 166.844H249.282C249.257 166.877 249.241 166.918 249.216 166.959C249.035 167.33 249.109 167.833 249.57 167.948C249.595 167.956 249.612 167.956 249.628 167.956C249.719 168.005 249.818 168.047 249.925 168.063C250.419 168.137 250.995 167.865 251.3 167.462C251.366 167.404 251.432 167.347 251.49 167.281C251.687 167.215 251.877 167.05 251.951 166.877C252.05 166.696 252.033 166.391 251.77 166.342Z" fill="#5A3B25"/>
<path d="M98.5616 168.755C98.1169 167.503 96.6672 167.429 95.3988 167.832C94.3362 167.824 93.2408 168.162 92.7136 169.134C91.7499 170.921 94.3527 171.275 95.547 171.259C96.8566 171.234 99.1876 170.559 98.5616 168.755Z" fill="#82583D"/>
<path d="M113.362 169.076C113.099 168.928 112.819 168.846 112.53 168.862C112.432 168.838 112.325 168.821 112.209 168.813C111.493 168.796 110.957 169.299 110.669 169.908C110.554 170.155 110.653 170.452 110.858 170.608C111.501 171.094 112.44 170.93 113.074 170.518C113.461 170.263 113.964 169.414 113.362 169.076Z" fill="#82583D"/>
<path d="M130.84 168.245C130.577 168.088 130.313 168.006 130.017 168.031C129.498 167.932 128.913 168.154 128.509 168.467C128.18 168.722 127.908 169.101 127.99 169.53C128.106 170.114 128.649 170.419 129.209 170.411C130.05 170.403 130.733 169.859 131.071 169.11C131.203 168.83 131.112 168.409 130.84 168.245Z" fill="#82583D"/>
<path d="M149.438 166.482C149.298 166.383 149.133 166.301 148.952 166.243C148.903 166.185 148.853 166.12 148.787 166.062C148.334 165.675 147.626 165.675 147.066 165.757C146.045 165.914 144.438 166.886 145.246 168.105C145.806 168.953 147.288 169.068 148.186 168.854C148.804 168.706 149.38 168.36 149.677 167.783C149.899 167.33 149.875 166.795 149.438 166.482Z" fill="#82583D"/>
<path d="M166.43 168.055C166.282 167.865 166.052 167.717 165.78 167.627C165.755 167.594 165.722 167.561 165.689 167.528C165.327 167.157 164.725 167.066 164.223 167.075C163.218 167.099 161.711 167.536 161.39 168.64C160.994 169.99 163.012 170.147 163.869 170.18C164.561 170.205 165.335 170.155 165.928 169.768C166.48 169.406 166.883 168.656 166.43 168.055Z" fill="#82583D"/>
<path d="M185.341 168.45C184.526 167.857 183.2 167.997 182.45 168.64C182.104 168.936 181.66 169.48 181.997 169.95C182.113 170.114 182.277 170.221 182.45 170.271C182.772 170.427 183.2 170.444 183.521 170.419C184.172 170.361 184.831 170.123 185.275 169.628C185.572 169.315 185.761 168.755 185.341 168.45Z" fill="#82583D"/>
<path d="M200.3 166.91C200.102 166.639 199.723 166.49 199.287 166.49C198.422 166.49 197.367 166.902 197.055 167.783C196.914 168.171 196.997 168.574 197.269 168.887C197.59 169.258 197.969 169.348 198.438 169.406C199.435 169.53 200.835 169.324 201.181 168.203C201.412 167.437 200.942 167.042 200.3 166.91Z" fill="#82583D"/>
<path d="M218.766 167.841C218.593 167.685 218.387 167.553 218.165 167.454C217.885 167.215 217.506 167.05 217.168 166.968C216.18 166.746 214.804 166.968 214.458 168.088C214.178 169.011 215.208 169.464 215.933 169.604C216.888 169.785 218 169.727 218.708 168.97C219.021 168.632 219.128 168.179 218.766 167.841Z" fill="#82583D"/>
<path d="M234.539 167.973C233.806 167.322 232.323 167.289 231.467 167.676C231.22 167.791 230.997 167.981 230.865 168.203C230.552 168.45 230.363 168.805 230.462 169.241C230.66 170.081 231.722 170.057 232.397 169.958C233.238 169.842 234.111 169.513 234.63 168.821C234.835 168.549 234.786 168.195 234.539 167.973Z" fill="#82583D"/>
<path d="M248.873 167.602C248.593 167.199 248.156 167.116 247.736 167.215C247.324 167.092 246.846 167.355 246.574 167.66C246.426 167.825 246.228 168.13 246.335 168.369C246.484 168.707 246.681 168.978 247.052 169.086C247.423 169.193 247.892 169.119 248.222 168.929C248.502 168.773 248.733 168.608 248.873 168.311C248.98 168.089 249.021 167.825 248.873 167.602Z" fill="#82583D"/>
<path d="M241.967 78.3837C225.7 75.5668 206.871 79.2815 194.969 91.3152C189.97 96.3642 186.066 102.904 184.163 109.773C181.536 119.245 185.884 129.344 196.641 129.879C203.643 130.225 210.611 126.42 215.8 122.013C219.729 118.677 223.172 114.806 226.244 110.679C229.291 106.578 232.001 102.237 234.645 97.8715C235.963 95.7053 237.24 93.5143 238.59 91.3646C239.637 89.709 240.823 88.1276 242.19 86.7274C244.628 84.2152 247.618 82.3455 250.962 81.3159C251.448 81.1677 251.942 81.0359 252.436 80.9206C249.034 79.7592 245.484 78.9932 241.967 78.3837Z" fill="#67AD14"/>
<path d="M245.403 83.0043C243.648 84.1739 242.009 85.5165 240.477 86.9661C239.085 88.2757 237.775 89.6595 236.532 91.1091C235.272 92.5835 234.085 94.1237 232.899 95.6557C231.59 97.3525 230.288 99.0575 228.938 100.729C227.554 102.451 226.121 104.139 224.597 105.746C223.114 107.311 221.541 108.801 219.836 110.127C218.197 111.404 216.443 112.524 214.548 113.373C212.679 114.213 210.669 114.806 208.626 114.971C206.822 115.119 204.829 114.773 203.725 113.2C203.215 112.467 202.968 111.585 202.877 110.704C202.753 109.477 202.861 108.192 203.165 107.006C203.841 104.37 205.472 102.097 207.275 100.112C208.198 99.0986 209.178 98.1514 210.175 97.2207C211.122 96.3394 212.094 95.4663 213.09 94.6426C215.034 93.0447 217.085 91.5704 219.218 90.2278C221.327 88.91 223.51 87.7156 225.758 86.6614C227.974 85.6235 230.255 84.7093 232.57 83.9103C234.909 83.1114 237.289 82.436 239.686 81.8594C242.1 81.2829 244.546 80.8216 247 80.4427C247.89 80.3027 248.78 80.1874 249.669 80.0721C249.257 79.9568 248.837 79.8415 248.425 79.7344H248.417C244.299 79.8332 240.181 80.3521 236.145 81.1758C232.199 81.983 228.328 83.1196 224.597 84.6352C220.545 86.2825 216.657 88.3334 212.975 90.7055C209.31 93.0612 205.875 95.7381 202.646 98.6538C200.941 100.186 199.302 101.751 197.77 103.456C196.222 105.194 194.772 107.014 193.388 108.892C192.079 110.671 190.802 112.475 189.608 114.328C189.196 114.971 188.776 115.646 188.216 116.173C187.845 116.527 187.343 116.824 186.816 116.651C186.091 116.412 185.654 115.531 185.366 114.888C185.061 114.205 184.896 113.48 184.831 112.738C184.682 111.017 185.028 109.263 185.498 107.615C185.959 105.976 186.577 104.378 187.236 102.805C187.853 101.323 188.512 99.8811 189.262 98.4644C187.013 101.981 185.251 105.82 184.155 109.773C181.528 119.245 185.877 129.343 196.634 129.879C203.635 130.225 210.603 126.419 215.792 122.013C219.721 118.677 223.164 114.806 226.236 110.679C229.284 106.577 231.993 102.237 234.637 97.8714C235.955 95.7052 237.232 93.5142 238.583 91.3644C239.629 89.7089 240.815 88.1275 242.182 86.7273C244.612 84.2151 247.61 82.3454 250.954 81.3158C251.44 81.1676 251.934 81.0358 252.428 80.9204C251.86 80.7228 251.283 80.5416 250.707 80.3686C248.821 80.9699 247.05 81.9171 245.403 83.0043Z" fill="#409100"/>
<path d="M222.513 81.0853C222.241 80.2369 221.261 79.9569 220.47 79.8581C218.065 79.5615 215.479 80.4181 213.304 81.3489C212.406 81.7278 209.581 82.7491 209.4 84.0999C209.26 84.3635 209.169 84.66 209.153 84.973C209.062 86.505 210.8 86.8839 211.994 86.8509C213.839 86.8015 215.684 86.2744 217.406 85.6401C218.905 85.08 220.618 84.3882 221.779 83.2433C222.315 82.6997 222.768 81.8595 222.513 81.0853Z" fill="#92C10B"/>
<path d="M204.147 88.7783C204.147 88.7371 204.139 88.6959 204.114 88.6464C204.015 88.4734 203.776 88.4734 203.603 88.5311C203.002 88.4404 202.425 88.7865 202.095 89.2809C202.038 89.3633 202.005 89.4622 201.98 89.561C201.749 89.8577 201.873 90.2367 202.244 90.3685C202.548 90.4838 202.969 90.3932 203.257 90.2861C203.562 90.1707 203.809 89.973 204.04 89.7505C204.361 89.4539 204.402 89.0419 204.147 88.7783Z" fill="#92C10B"/>
<path d="M219.359 88.1357C212.176 93.0365 205.645 98.7363 200.151 105.284C189.196 118.479 182.731 134.887 177.303 150.989C174.716 159.201 172.764 167.619 171.216 176.185C171.529 158.682 176.405 141.451 183.777 125.621C190.877 109.584 203.363 95.5404 219.359 88.1357Z" fill="#405621"/>
<path d="M245.791 26.1636C232.019 20.4886 214.722 20.0685 201.882 28.3298C196.495 31.7974 191.767 36.7888 188.744 42.4556C184.568 50.2722 186.421 60.0243 195.786 62.6023C201.882 64.2826 208.759 62.2976 214.195 59.4395C218.305 57.2733 222.094 54.5387 225.611 51.5076C229.103 48.493 232.332 45.2067 235.52 41.8873C237.101 40.24 238.658 38.5597 240.264 36.9371C241.508 35.6851 242.867 34.532 244.341 33.5601C246.977 31.8304 249.975 30.7679 253.121 30.5126C253.583 30.4796 254.036 30.4549 254.497 30.4549C251.746 28.7499 248.764 27.3827 245.791 26.1636Z" fill="#67AD14"/>
<path d="M247.916 30.8994C246.136 31.5831 244.44 32.4479 242.801 33.4198C241.318 34.3012 239.893 35.2648 238.509 36.2944C237.109 37.3405 235.767 38.4689 234.424 39.589C232.933 40.8245 231.459 42.0683 229.943 43.2791C228.387 44.5228 226.797 45.7335 225.141 46.8455C223.527 47.9327 221.847 48.9376 220.092 49.7695C218.404 50.5684 216.633 51.2109 214.796 51.5898C212.992 51.9604 211.098 52.084 209.269 51.8286C207.655 51.6062 205.967 50.9144 205.299 49.3082C204.995 48.5669 204.953 47.735 205.044 46.9443C205.176 45.8406 205.522 44.7287 206.024 43.7403C207.136 41.5576 209.022 39.8691 210.999 38.4771C212.004 37.7688 213.058 37.1263 214.121 36.5003C215.134 35.9073 216.147 35.3307 217.193 34.8036C219.219 33.774 221.311 32.8844 223.453 32.1184C225.561 31.3689 227.728 30.7512 229.91 30.257C232.068 29.7793 234.251 29.4168 236.442 29.178C238.658 28.9309 240.881 28.7991 243.114 28.7661C245.354 28.7332 247.594 28.7991 249.835 28.9473C250.642 29.005 251.449 29.0709 252.256 29.145C251.919 28.9638 251.573 28.7826 251.227 28.6097H251.218C247.57 27.8931 243.847 27.5389 240.132 27.473C236.5 27.4071 232.867 27.646 229.284 28.2473C225.388 28.8979 221.567 29.944 217.86 31.3113C214.17 32.6621 210.628 34.3506 207.21 36.2779C205.415 37.291 203.66 38.3453 201.98 39.5479C200.275 40.7751 198.644 42.093 197.063 43.4767C195.564 44.7863 194.089 46.1207 192.673 47.5209C192.187 48.0069 191.684 48.5175 191.091 48.8717C190.696 49.1105 190.193 49.2753 189.765 49.02C189.172 48.6658 188.958 47.8092 188.834 47.1832C188.694 46.5243 188.694 45.8489 188.785 45.1817C188.991 43.6332 189.642 42.1671 190.375 40.7998C191.108 39.4408 191.964 38.1641 192.846 36.9122C193.678 35.7343 194.542 34.5894 195.481 33.494C192.813 36.1462 190.506 39.1855 188.769 42.4471C184.593 50.2637 186.446 60.0158 195.811 62.5939C201.906 64.2741 208.783 62.2891 214.22 59.431C218.33 57.2648 222.118 54.5302 225.636 51.4992C229.128 48.4846 232.357 45.1982 235.544 41.8788C237.126 40.2315 238.682 38.5512 240.288 36.9286C241.532 35.6767 242.891 34.5235 244.366 33.5516C247.001 31.8219 249.999 30.7594 253.146 30.5041C253.607 30.4711 254.06 30.4464 254.521 30.4464C254.06 30.1664 253.591 29.8863 253.113 29.6228C251.317 29.7793 249.571 30.2652 247.916 30.8994Z" fill="#409100"/>
<path d="M228.14 24.7141C228.066 23.907 227.259 23.4787 226.583 23.2316C224.524 22.4985 222.078 22.7456 219.986 23.1327C219.121 23.2974 216.436 23.6351 216.007 24.7883C215.834 24.9942 215.694 25.233 215.62 25.5131C215.241 26.8474 216.691 27.5146 217.753 27.7205C219.384 28.0417 221.114 27.9429 222.753 27.7122C224.186 27.5146 225.825 27.2428 227.069 26.4603C227.646 26.0979 228.206 25.4472 228.14 24.7141Z" fill="#92C10B"/>
<path d="M210.456 27.8936C210.464 27.8524 210.464 27.8194 210.448 27.77C210.39 27.597 210.184 27.5475 210.019 27.5722C209.509 27.3745 208.932 27.564 208.545 27.9348C208.479 28.0007 208.429 28.0749 208.388 28.1572C208.124 28.3715 208.157 28.7258 208.462 28.9235C208.709 29.0801 209.088 29.0883 209.368 29.0471C209.657 29.0059 209.921 28.8823 210.168 28.7258C210.514 28.5198 210.629 28.1737 210.456 27.8936Z" fill="#92C10B"/>
<path d="M221.575 31.1797C209.228 35.5121 197.82 43.3534 191.124 54.6787C184.856 66.0205 181.693 79.1826 179.412 91.9411C175.186 118.092 174.56 144.664 171.776 171.012C171.908 144.4 172.048 117.788 176.166 91.3892C177.855 81.4888 180.474 71.6955 184.304 62.3881C185.573 59.2665 187.08 56.186 188.95 53.3279C196.28 41.879 208.553 34.2602 221.575 31.1797Z" fill="#405621"/>
<path d="M118.46 42.1015C128.632 40.4377 140.37 42.8593 147.733 50.4452C150.822 53.6245 153.227 57.7346 154.38 62.0341C155.97 67.9644 153.194 74.2407 146.473 74.5207C142.099 74.702 137.767 72.2804 134.555 69.5047C132.117 67.3961 129.991 64.9663 128.097 62.3635C126.219 59.7855 124.555 57.0592 122.924 54.3164C122.117 52.9573 121.335 51.5818 120.503 50.231C119.86 49.1932 119.127 48.1966 118.279 47.3153C116.772 45.7338 114.919 44.5478 112.835 43.8888C112.53 43.79 112.225 43.7076 111.912 43.6335C114.045 42.9169 116.261 42.4639 118.46 42.1015Z" fill="#67AD14"/>
<path d="M116.285 44.9678C117.373 45.7091 118.386 46.5575 119.341 47.4717C120.206 48.2954 121.013 49.1684 121.788 50.0827C122.57 51.0052 123.295 51.9771 124.028 52.9408C124.835 54.0116 125.642 55.0823 126.474 56.1284C127.331 57.2156 128.212 58.2781 129.151 59.283C130.065 60.2714 131.045 61.2104 132.1 62.0423C133.113 62.8494 134.208 63.5578 135.386 64.1014C136.547 64.6368 137.799 65.0157 139.076 65.131C140.196 65.2298 141.448 65.0321 142.148 64.052C142.47 63.599 142.626 63.0471 142.692 62.4953C142.774 61.7293 142.717 60.9303 142.536 60.1808C142.132 58.5335 141.119 57.1003 140.007 55.8566C139.439 55.2224 138.829 54.6211 138.211 54.0363C137.626 53.4762 137.025 52.9326 136.399 52.4137C135.197 51.4006 133.92 50.4698 132.602 49.6215C131.293 48.7813 129.933 48.0318 128.541 47.3564C127.166 46.6975 125.749 46.1127 124.308 45.602C122.85 45.0913 121.367 44.6548 119.877 44.2842C118.369 43.9135 116.846 43.6088 115.314 43.3534C114.762 43.2628 114.202 43.1804 113.65 43.1063C113.905 43.0404 114.169 42.9663 114.432 42.9004C114.432 42.9004 114.432 42.9004 114.44 42.9004C117.01 42.991 119.58 43.3369 122.092 43.8723C124.555 44.3995 126.96 45.1243 129.283 46.0962C131.803 47.1505 134.225 48.4519 136.506 49.9509C138.78 51.4417 140.913 53.1302 142.914 54.9752C143.969 55.9389 144.99 56.9273 145.929 58.0063C146.884 59.1018 147.782 60.2467 148.631 61.4245C149.438 62.5365 150.22 63.6731 150.962 64.8427C151.217 65.2463 151.472 65.6664 151.818 66.0041C152.049 66.2265 152.354 66.4159 152.691 66.3088C153.144 66.1606 153.424 65.6169 153.606 65.2216C153.803 64.8015 153.91 64.3403 153.951 63.879C154.05 62.8 153.844 61.7128 153.564 60.675C153.284 59.6454 152.905 58.6488 152.51 57.6604C152.131 56.7297 151.728 55.8236 151.275 54.9423C152.658 57.1497 153.737 59.563 154.404 62.034C155.994 67.9644 153.218 74.2407 146.497 74.5207C142.124 74.7019 137.791 72.2804 134.579 69.5046C132.141 67.396 130.016 64.9662 128.121 62.3635C126.244 59.7854 124.58 57.0591 122.949 54.3163C122.142 52.9573 121.359 51.5818 120.527 50.231C119.885 49.1932 119.152 48.1965 118.303 47.3152C116.796 45.7338 114.943 44.5477 112.859 43.8888C112.554 43.79 112.25 43.7076 111.937 43.6335C112.291 43.5181 112.653 43.4028 113.016 43.2958C114.169 43.6746 115.264 44.2759 116.285 44.9678Z" fill="#409100"/>
<path d="M130.592 43.8965C130.765 43.3693 131.383 43.1963 131.877 43.1387C133.376 42.9657 134.991 43.5176 136.341 44.1106C136.893 44.3577 138.656 45.0084 138.763 45.8485C138.845 46.0133 138.903 46.1944 138.911 46.4004C138.961 47.3558 137.873 47.5865 137.124 47.5535C135.971 47.5123 134.826 47.1746 133.755 46.7628C132.824 46.4004 131.754 45.9638 131.037 45.239C130.708 44.9013 130.436 44.3742 130.592 43.8965Z" fill="#92C10B"/>
<path d="M142.025 48.8061C142.025 48.7814 142.033 48.7485 142.05 48.7237C142.116 48.6166 142.264 48.6166 142.371 48.6578C142.75 48.6084 143.104 48.8226 143.31 49.1357C143.343 49.1934 143.368 49.2511 143.376 49.3087C143.516 49.4983 143.442 49.729 143.203 49.8114C143.014 49.8773 142.75 49.8278 142.569 49.7537C142.379 49.6795 142.223 49.5559 142.083 49.4159C141.885 49.2263 141.86 48.9627 142.025 48.8061Z" fill="#92C10B"/>
<path d="M135.691 50.519C143.096 54.7362 149.01 61.136 153.639 68.203L153.795 68.7384C153.804 68.6561 153.804 68.5572 153.779 68.4666C153.771 68.3925 153.68 68.2524 153.713 68.3101L153.779 68.4089L153.919 68.6148C156.695 72.8485 159.223 77.2551 161.423 81.8346C167.888 96.2239 169.898 112.121 171.586 127.605C173.604 148.287 173.934 169.027 173.876 189.783C171.191 164.069 170.285 138.181 166.414 112.615C164.841 102.533 162.905 92.3692 158.968 82.9465C156.983 78.3341 154.586 73.8369 152.09 69.4715C151.983 69.315 151.819 68.9855 151.819 68.7384L151.975 69.2738C149.834 65.7156 147.544 62.215 144.875 59.0357C142.132 55.8893 139.044 53.0147 135.691 50.519Z" fill="#405621"/>
<path d="M155.649 109.518C154.224 107.269 152.568 105.169 150.756 103.217C149.018 101.603 147.165 100.12 145.205 98.7775C141.457 96.6443 137.479 94.8569 133.303 93.7367C131.087 93.1437 128.839 92.806 126.565 92.5507C124.3 92.3036 122.027 92.1553 119.754 92.1388C115.224 92.0977 110.669 92.5424 106.27 93.6379C103.511 94.3298 100.818 95.277 98.248 96.4878C101.592 96.4219 104.566 98.5304 106.864 100.812C109.656 103.579 111.863 106.899 114.268 110.004C116.879 113.381 119.622 116.676 122.727 119.608C125.841 122.548 129.358 125.159 133.237 127.004C136.252 128.429 139.48 129.467 142.767 130.035C146.136 130.612 149.751 130.711 153.013 129.533C154.562 128.973 155.995 128.1 157.148 126.922C158.614 125.431 159.504 123.487 159.685 121.403C160.047 117.137 157.865 113.01 155.649 109.518Z" fill="#67AD14"/>
<path d="M155.649 109.518C154.224 107.269 152.568 105.169 150.756 103.217C149.018 101.603 147.165 100.12 145.205 98.7774C141.457 96.6441 137.479 94.8568 133.303 93.7366C131.087 93.1435 128.839 92.8058 126.565 92.5505C124.3 92.3034 122.027 92.1551 119.754 92.1387C119.737 92.1387 119.721 92.1387 119.704 92.1387C121.228 92.3281 122.735 92.5999 124.218 92.9788C126.952 93.6789 129.564 94.7332 132.034 96.1005C134.365 97.3936 136.581 98.8927 138.731 100.458C140.477 101.726 142.528 103.077 143.294 105.21C143.319 105.276 143.253 105.358 143.187 105.35C142.248 105.276 141.358 104.823 140.535 104.387C139.662 103.917 138.83 103.373 137.924 102.962C135.832 101.998 133.69 101.125 131.491 100.416C129.621 99.8152 127.702 99.3457 125.791 98.868C123.872 98.3903 121.936 97.9455 119.976 97.6737C118.304 97.443 116.574 97.3113 114.894 97.5254C115.677 97.7313 116.476 97.8961 117.266 98.0526C119.284 98.4397 121.352 98.728 123.287 99.4363C125.19 100.128 127.035 100.952 128.822 101.899C131.581 103.357 134.217 105.078 136.647 107.055C138.624 108.661 140.51 110.44 142.067 112.467C143.417 114.229 144.768 116.486 144.513 118.809C144.389 119.912 143.879 120.901 143.121 121.7C142.124 122.746 140.839 123.322 139.414 123.495C137.817 123.693 136.186 123.421 134.645 122.993C133.146 122.581 131.697 121.996 130.297 121.313C126.928 119.682 123.93 117.433 121.22 114.872C119.811 113.537 118.477 112.121 117.184 110.663C115.99 109.312 114.886 107.895 113.757 106.495C111.534 103.728 109.145 100.927 106.023 99.148C105.043 98.5879 104.005 98.1185 102.935 97.7643C104.384 98.5715 105.702 99.6669 106.855 100.804C109.647 103.571 111.855 106.89 114.26 109.996C116.871 113.373 119.614 116.667 122.719 119.6C125.832 122.54 129.349 125.151 133.229 126.996C136.243 128.421 139.472 129.459 142.759 130.027C146.127 130.604 149.743 130.702 153.005 129.525C154.553 128.965 155.987 128.091 157.14 126.914C158.606 125.423 159.495 123.479 159.677 121.395C160.047 117.137 157.864 113.01 155.649 109.518Z" fill="#409100"/>
<path d="M122.282 105.721C121.673 104.766 120.882 103.934 120.067 103.151C119.128 102.245 118.09 101.348 116.871 100.853C115.586 100.334 114.169 100.746 113.51 102.015C112.926 103.135 113.387 104.23 114.037 105.211C115.174 106.907 117.563 109.37 119.885 109.518C120.339 109.642 120.8 109.691 121.245 109.601C122.019 109.436 122.694 108.785 122.892 108.019C123.098 107.196 122.719 106.388 122.282 105.721Z" fill="#92C10B"/>
<path d="M126.327 112.343C126.294 112.203 126.195 112.063 126.08 111.98C125.997 111.923 125.915 111.898 125.824 111.881H125.833C125.808 111.873 125.783 111.873 125.758 111.865C125.684 111.857 125.61 111.84 125.544 111.832C125.47 111.84 125.388 111.849 125.313 111.857C125.107 111.816 124.869 111.89 124.712 112.005C124.613 112.079 124.522 112.17 124.457 112.269C124.391 112.368 124.333 112.549 124.358 112.672C124.308 112.804 124.292 112.944 124.333 113.076C124.374 113.216 124.432 113.332 124.539 113.431C124.564 113.472 124.588 113.496 124.63 113.513C124.72 113.579 124.827 113.612 124.943 113.62C124.984 113.628 125.025 113.628 125.058 113.628C125.173 113.653 125.289 113.653 125.404 113.628C125.569 113.587 125.717 113.521 125.857 113.431C126.071 113.29 126.195 113.093 126.294 112.878C126.343 112.722 126.368 112.508 126.327 112.343Z" fill="#92C10B"/>
<path d="M130.947 101.208C154.158 107.368 167.518 129.607 171.307 152.151C172.526 159.654 172.674 167.298 171.685 174.76C171.298 167.249 170.434 159.852 168.786 152.645C163.465 130.522 152.297 111.042 130.947 101.208Z" fill="#405621"/>
<path d="M149.233 204.692C149.233 204.692 147.322 206.199 144.711 208.077C142.1 209.963 137.702 214.098 135.98 220.061C137.512 214.04 137.825 212.846 141.392 209.766C144.958 206.693 150.246 202.361 150.246 202.361L149.233 204.692Z" fill="#EBD9B3"/>
<path d="M135.981 220.3C135.965 220.3 135.94 220.3 135.924 220.292C135.8 220.259 135.726 220.135 135.759 220.012C137.291 213.991 137.604 212.739 141.244 209.6C144.77 206.561 150.049 202.237 150.107 202.187C150.189 202.122 150.305 202.113 150.395 202.179C150.478 202.245 150.511 202.36 150.469 202.459L149.448 204.782C149.432 204.815 149.407 204.848 149.382 204.873C149.366 204.889 147.438 206.405 144.852 208.266C143.304 209.378 138.114 213.529 136.212 220.127C136.179 220.234 136.088 220.3 135.981 220.3ZM149.654 203.159C148.064 204.469 144.284 207.591 141.549 209.946C138.922 212.211 138.073 213.472 137.2 216.404C139.597 211.75 143.304 208.81 144.58 207.887C146.936 206.191 148.748 204.782 149.053 204.543L149.654 203.159Z" fill="#BD7A43"/>
<path d="M140.701 210.276C140.701 210.276 133.057 212.978 128.214 219.88C128.659 216.799 132.225 213.793 134.902 212.467C137.579 211.149 140.701 210.276 140.701 210.276Z" fill="#EBD9B3"/>
<path d="M128.213 220.11C128.189 220.11 128.156 220.102 128.131 220.094C128.032 220.053 127.975 219.954 127.991 219.847C128.477 216.511 132.332 213.488 134.811 212.261C137.471 210.951 140.618 210.062 140.651 210.053C140.774 210.02 140.898 210.086 140.931 210.21C140.972 210.325 140.906 210.457 140.791 210.498C140.717 210.523 133.155 213.257 128.411 220.011C128.353 220.077 128.279 220.11 128.213 220.11ZM137.043 211.783C136.376 212.047 135.676 212.351 135.009 212.681C132.529 213.908 129.745 216.321 128.765 218.751C131.376 215.424 134.613 213.159 137.043 211.783Z" fill="#BD7A43"/>
<path d="M133.625 213.159C133.625 213.159 126.748 213.661 122.218 216.61C124.26 213.414 130.759 212.22 133.625 213.159Z" fill="#EBD9B3"/>
<path d="M122.226 216.84C122.168 216.84 122.11 216.816 122.061 216.774C121.987 216.7 121.97 216.577 122.028 216.486C124.136 213.175 130.701 211.956 133.699 212.936C133.806 212.969 133.872 213.076 133.856 213.183C133.839 213.29 133.757 213.381 133.641 213.389C133.576 213.397 126.764 213.925 122.349 216.799C122.308 216.832 122.267 216.84 122.226 216.84ZM131.261 213.076C128.625 213.076 125.199 213.974 123.28 215.72C126.336 214.114 130.042 213.397 132.077 213.109C131.821 213.084 131.549 213.076 131.261 213.076Z" fill="#BD7A43"/>
<path d="M162.124 192.617C162.124 192.617 159.373 197.386 161.902 204.757C164.43 212.129 168.944 216.898 167.181 224.27C167.181 218.957 165.419 214.946 163.327 211.264C161.235 207.574 161.012 206.059 161.012 206.059C161.012 206.059 158.591 211.157 157.825 215.704C157.495 211.907 159.472 207.352 159.472 207.352C159.472 207.352 151.548 216.569 149.901 223.067C148.913 219.6 153.64 211.899 159.143 206.479C160.806 204.757 158.269 195.112 162.124 192.617Z" fill="#EBD9B3"/>
<path d="M167.189 224.509C167.181 224.509 167.173 224.509 167.165 224.509C167.049 224.493 166.959 224.394 166.959 224.278C166.959 218.867 165.122 214.889 163.137 211.38C161.794 209.008 161.21 207.525 160.971 206.751C160.32 208.217 158.673 212.179 158.072 215.745C158.055 215.861 157.948 215.951 157.833 215.935C157.717 215.926 157.619 215.836 157.61 215.721C157.388 213.126 158.203 210.235 158.772 208.588C156.655 211.215 151.433 218.051 150.14 223.125C150.115 223.224 150.024 223.298 149.917 223.298C149.81 223.298 149.72 223.232 149.695 223.133C148.641 219.443 153.706 211.536 159.002 206.323C159.587 205.705 159.587 203.736 159.579 201.644C159.579 198.234 159.571 193.992 162.009 192.419C162.099 192.362 162.215 192.37 162.297 192.444C162.371 192.518 162.388 192.633 162.338 192.732C162.313 192.782 159.669 197.509 162.132 204.683C162.89 206.883 163.812 208.843 164.71 210.729C166.835 215.21 168.672 219.081 167.42 224.328C167.387 224.435 167.297 224.509 167.189 224.509ZM161.02 205.828C161.028 205.828 161.045 205.828 161.053 205.828C161.152 205.845 161.234 205.919 161.251 206.026C161.251 206.043 161.498 207.566 163.532 211.149C165.262 214.205 166.885 217.623 167.305 222.022C167.626 217.986 166.053 214.674 164.274 210.927C163.368 209.024 162.437 207.056 161.671 204.832C159.793 199.371 160.765 195.351 161.44 193.548C160.015 195.368 160.024 198.803 160.024 201.644C160.024 204.016 160.024 205.894 159.307 206.644C154.579 211.306 150.082 218.134 149.991 221.923C152.158 215.548 159.216 207.286 159.291 207.196C159.365 207.105 159.488 207.089 159.587 207.146C159.686 207.204 159.719 207.327 159.678 207.435C159.661 207.467 158.442 210.309 158.096 213.324C159.101 209.527 160.773 205.985 160.79 205.944C160.855 205.878 160.938 205.828 161.02 205.828Z" fill="#BD7A43"/>
<path d="M165.057 214.658C165.057 214.658 160.312 219.748 160.625 228.882C159.258 224.311 161.045 217.046 164.315 213.101L165.057 214.658Z" fill="#EBD9B3"/>
<path d="M160.625 229.113C160.526 229.113 160.436 229.047 160.403 228.948C159.035 224.377 160.74 217.055 164.134 212.944C164.183 212.887 164.257 212.854 164.34 212.862C164.422 212.87 164.488 212.92 164.521 212.994L165.262 214.551C165.303 214.633 165.287 214.74 165.221 214.806C165.172 214.855 160.543 219.937 160.856 228.866C160.856 228.981 160.773 229.08 160.658 229.105C160.65 229.113 160.641 229.113 160.625 229.113ZM164.266 213.529C161.638 216.898 160.114 222.252 160.427 226.452C160.872 219.542 164.142 215.366 164.776 214.616L164.266 213.529Z" fill="#BD7A43"/>
<path d="M174.429 208.933C174.429 208.933 170.928 219.072 173.02 227.309C170.599 221.131 171.587 212.779 173.35 206.709C174.338 208.34 174.429 208.933 174.429 208.933Z" fill="#EBD9B3"/>
<path d="M173.021 227.54C172.93 227.54 172.839 227.482 172.806 227.391C169.767 219.641 172.288 209.551 173.128 206.643C173.152 206.553 173.227 206.487 173.317 206.479C173.408 206.47 173.498 206.512 173.548 206.586C174.536 208.208 174.651 208.826 174.66 208.892C174.668 208.925 174.66 208.966 174.651 208.999C174.618 209.098 171.2 219.163 173.251 227.243C173.284 227.358 173.21 227.482 173.095 227.523C173.07 227.54 173.045 227.54 173.021 227.54ZM173.424 207.294C172.65 210.119 171.085 217.013 172.189 223.397C171.736 216.552 173.943 209.658 174.19 208.925C174.149 208.777 173.993 208.282 173.424 207.294Z" fill="#BD7A43"/>
<path d="M180.22 219.378C180.22 219.378 184.766 223.694 186.455 232.482C186.117 226.173 184.437 221.198 179.635 217.137C180.302 218.793 180.22 219.378 180.22 219.378Z" fill="#EBD9B3"/>
<path d="M186.454 232.712C186.347 232.712 186.248 232.638 186.224 232.523C184.576 223.899 180.104 219.583 180.063 219.542C180.005 219.492 179.98 219.418 179.989 219.344C179.989 219.328 180.038 218.751 179.412 217.219C179.371 217.12 179.404 217.005 179.494 216.947C179.577 216.881 179.7 216.89 179.783 216.956C184.239 220.728 186.306 225.373 186.685 232.465C186.693 232.589 186.603 232.696 186.479 232.704C186.471 232.712 186.463 232.712 186.454 232.712ZM180.458 219.278C180.977 219.814 184.066 223.15 185.911 229.261C185.186 224.401 183.382 220.868 180.17 217.911C180.409 218.661 180.45 219.089 180.458 219.278Z" fill="#BD7A43"/>
<path d="M150.765 191.99C150.765 191.99 150.098 191.809 147.718 195.112C145.337 198.415 141.137 202.855 137.727 202.855C142.66 199.675 144.794 197.451 146.194 194.692C147.594 191.933 148.994 191.208 148.994 191.208L150.765 191.99Z" fill="#EBD9B3"/>
<path d="M137.727 203.085C137.628 203.085 137.537 203.019 137.504 202.92C137.471 202.821 137.513 202.714 137.603 202.657C142.249 199.659 144.522 197.476 145.988 194.585C147.405 191.793 148.83 191.035 148.887 191.002C148.953 190.969 149.019 190.969 149.085 190.994L150.848 191.776C150.955 191.826 151.012 191.949 150.971 192.064C150.938 192.163 150.839 192.237 150.732 192.221C150.658 192.229 149.942 192.41 147.899 195.244C146.968 196.553 142.043 203.085 137.727 203.085ZM149.019 191.471C148.698 191.686 147.553 192.55 146.408 194.799C144.992 197.591 142.858 199.733 138.682 202.517C141.689 201.833 145.247 198.168 147.537 194.98C148.863 193.143 149.686 192.336 150.189 191.99L149.019 191.471Z" fill="#BD7A43"/>
<path d="M145.1 198.357C145.1 198.357 143.576 203.761 140.833 205.985C143.823 204.543 145.709 200.466 146.195 196.924C145.651 197.814 145.1 198.357 145.1 198.357Z" fill="#EBD9B3"/>
<path d="M140.833 206.207C140.758 206.207 140.684 206.165 140.635 206.1C140.569 206.001 140.594 205.869 140.684 205.795C143.336 203.645 144.86 198.341 144.868 198.291C144.877 198.25 144.901 198.217 144.926 198.192C144.934 198.184 145.462 197.657 145.989 196.792C146.046 196.702 146.162 196.66 146.26 196.693C146.368 196.726 146.425 196.833 146.409 196.94C145.923 200.458 144.037 204.675 140.915 206.182C140.907 206.198 140.866 206.207 140.833 206.207ZM145.305 198.473C145.165 198.967 144.201 202.13 142.496 204.493C144.168 202.838 145.289 200.293 145.783 197.912C145.56 198.201 145.387 198.39 145.305 198.473Z" fill="#BD7A43"/>
<path d="M138.765 190.582C138.765 190.582 137.118 197.171 131.665 199.774C126.221 202.377 125.142 205.218 125.142 205.218C125.142 205.218 128.28 202.294 130.751 201.149C133.23 200.013 137.686 198.382 139.827 190.5L138.765 190.582Z" fill="#EBD9B3"/>
<path d="M125.142 205.457C125.101 205.457 125.051 205.441 125.01 205.416C124.92 205.358 124.887 205.243 124.92 205.144C124.961 205.021 126.089 202.179 131.558 199.568C136.838 197.048 138.518 190.598 138.535 190.532C138.559 190.434 138.642 190.368 138.741 190.359L139.811 190.277C139.886 190.261 139.96 190.302 140.009 190.359C140.059 190.417 140.075 190.491 140.05 190.565C137.991 198.143 133.766 200.046 131.245 201.182L130.842 201.364C128.429 202.475 125.323 205.358 125.29 205.391C125.257 205.432 125.2 205.457 125.142 205.457ZM138.947 190.804C138.642 191.85 136.772 197.591 131.764 199.98C128.824 201.38 127.177 202.863 126.295 203.909C127.44 202.953 129.162 201.635 130.661 200.944L131.072 200.762C133.486 199.675 137.497 197.863 139.531 190.763L138.947 190.804Z" fill="#BD7A43"/>
<path d="M134.804 198.638C134.804 198.638 135.051 201.479 132.654 204C130.175 206.767 130.175 207.986 130.175 207.986C130.175 207.986 135.537 203.843 135.957 197.74L134.804 198.638Z" fill="#EBD9B3"/>
<path d="M130.183 208.217C130.15 208.217 130.117 208.209 130.084 208.192C130.002 208.151 129.952 208.069 129.952 207.986C129.952 207.937 129.985 206.644 132.489 203.843C134.779 201.43 134.581 198.679 134.573 198.654C134.565 198.572 134.598 198.498 134.664 198.448L135.817 197.559C135.891 197.501 135.99 197.493 136.064 197.534C136.146 197.575 136.195 197.666 136.187 197.756C135.775 203.884 130.372 208.126 130.323 208.167C130.282 208.2 130.232 208.217 130.183 208.217ZM135.042 198.745C135.059 199.346 135.001 201.866 132.827 204.165C131.492 205.655 130.899 206.685 130.628 207.294C131.962 206.067 135.158 202.707 135.677 198.251L135.042 198.745Z" fill="#BD7A43"/>
<path d="M138.272 190.508C138.272 190.508 131.502 187.823 126.387 190.179C129.36 188.062 135.546 188.309 139.425 190.096L138.272 190.508Z" fill="#EBD9B3"/>
<path d="M138.272 190.739C138.239 190.739 138.214 190.731 138.19 190.722C138.124 190.698 131.452 188.103 126.485 190.393C126.378 190.442 126.246 190.401 126.189 190.294C126.131 190.187 126.156 190.055 126.255 189.989C129.385 187.765 135.76 188.152 139.532 189.89C139.614 189.932 139.672 190.014 139.664 190.113C139.664 190.203 139.598 190.286 139.507 190.319L138.354 190.731C138.321 190.731 138.297 190.739 138.272 190.739ZM131.312 188.968C134.714 188.968 137.72 190.047 138.272 190.253L138.791 190.072C136.526 189.157 133.495 188.713 130.826 188.976C130.991 188.976 131.156 188.968 131.312 188.968Z" fill="#BD7A43"/>
<path d="M173.119 200.466C173.119 200.466 174.552 202.649 178.53 205.54C182.509 208.431 187.204 210.292 189.551 216.849C188.25 211.001 185.441 209.329 181.858 206.956C178.275 204.584 173.383 201.174 172.666 198.283C172.987 200.145 173.119 200.466 173.119 200.466Z" fill="#EBD9B3"/>
<path d="M189.559 217.079C189.461 217.079 189.378 217.022 189.345 216.923C187.476 211.709 184.074 209.485 180.788 207.335C179.997 206.816 179.181 206.289 178.407 205.721C174.437 202.838 172.996 200.672 172.938 200.581C172.93 200.565 172.922 200.557 172.913 200.54C172.897 200.507 172.765 200.145 172.444 198.308C172.419 198.184 172.501 198.069 172.625 198.044C172.749 198.011 172.864 198.094 172.897 198.217C173.638 201.216 179.28 204.955 181.99 206.75L182.369 206.998C185.795 209.263 188.505 211.05 189.782 216.783C189.807 216.906 189.741 217.022 189.617 217.054C189.601 217.079 189.576 217.079 189.559 217.079ZM173.333 200.367C173.498 200.606 174.997 202.69 178.671 205.359C179.437 205.919 180.244 206.446 181.026 206.956C183.596 208.637 186.232 210.358 188.192 213.488C186.767 210.49 184.642 209.081 182.105 207.401L181.726 207.146C178.341 204.905 174.841 202.377 173.235 200.021C173.292 200.227 173.317 200.326 173.333 200.367Z" fill="#BD7A43"/>
<path d="M176.908 203.744C176.908 203.744 182.707 203.555 186.166 205.095C183.885 203.489 180.953 202.459 176.126 202.715C176.645 203.233 176.711 203.678 176.908 203.744Z" fill="#EBD9B3"/>
<path d="M186.167 205.326C186.134 205.326 186.101 205.318 186.076 205.309C182.708 203.81 176.975 203.975 176.917 203.983C176.893 203.983 176.868 203.983 176.835 203.975C176.662 203.917 176.571 203.769 176.464 203.571C176.357 203.382 176.225 203.151 175.962 202.888C175.896 202.822 175.871 202.723 175.904 202.641C175.937 202.558 176.019 202.501 176.11 202.492C180.451 202.262 183.597 203.003 186.299 204.914C186.398 204.98 186.422 205.112 186.365 205.219C186.323 205.285 186.241 205.326 186.167 205.326ZM177.584 203.505C178.853 203.505 181.645 203.58 184.133 204.181C182.049 203.209 179.635 202.814 176.604 202.921C176.72 203.077 176.802 203.217 176.86 203.324C176.893 203.39 176.942 203.464 176.967 203.505C177.082 203.505 177.296 203.505 177.584 203.505Z" fill="#BD7A43"/>
<path d="M181.258 192.271C181.258 192.271 188.177 197.921 190.73 202.081C193.291 206.232 199.716 212.162 202.764 211.891C198.546 209.37 195.087 206.446 193.292 203.308C191.496 200.17 188.728 195.673 186.101 193.91L181.258 192.271Z" fill="#EBD9B3"/>
<path d="M202.558 212.129C199.271 212.129 193.011 206.232 190.532 202.204C188.02 198.127 181.175 192.51 181.109 192.452C181.019 192.378 181.002 192.254 181.052 192.164C181.109 192.065 181.225 192.024 181.332 192.057L186.175 193.687C186.191 193.696 186.216 193.704 186.233 193.712C188.901 195.508 191.652 199.98 193.497 203.192C195.145 206.067 198.398 209.008 202.887 211.684C202.969 211.734 203.019 211.841 202.994 211.931C202.969 212.03 202.887 212.104 202.788 212.113C202.706 212.121 202.632 212.129 202.558 212.129ZM182.345 192.88C184.338 194.585 188.918 198.687 190.928 201.957C193.333 205.869 198.686 210.778 201.775 211.561C197.657 208.983 194.667 206.182 193.086 203.423C191.273 200.268 188.572 195.87 185.994 194.116L182.345 192.88Z" fill="#BD7A43"/>
<path d="M196.125 207.047C196.125 207.047 206.363 209.362 211.684 215.63C208.504 210.729 202.212 206.504 195.293 205.96L196.125 207.047Z" fill="#EBD9B3"/>
<path d="M211.684 215.869C211.619 215.869 211.553 215.844 211.511 215.786C206.298 209.65 196.183 207.303 196.076 207.278C196.027 207.261 195.977 207.237 195.944 207.195L195.112 206.108C195.055 206.034 195.047 205.935 195.096 205.853C195.137 205.771 195.228 205.721 195.318 205.729C201.866 206.248 208.365 210.087 211.882 215.506C211.948 215.605 211.923 215.745 211.824 215.819C211.783 215.852 211.734 215.869 211.684 215.869ZM196.257 206.841C197.106 207.047 204.148 208.851 209.345 213.052C205.853 209.37 200.787 206.775 195.796 206.24L196.257 206.841Z" fill="#BD7A43"/>
<path d="M202.293 199.017C202.293 199.017 212.745 200.096 217.704 205.416C212.861 199.89 204.937 197.501 200.868 197.938L202.293 199.017Z" fill="#EBD9B3"/>
<path d="M217.704 205.647C217.638 205.647 217.581 205.622 217.531 205.573C212.696 200.384 202.376 199.264 202.269 199.247C202.228 199.239 202.187 199.222 202.154 199.198L200.72 198.11C200.646 198.053 200.613 197.954 200.638 197.863C200.663 197.773 200.745 197.707 200.836 197.699C204.674 197.287 212.754 199.404 217.877 205.26C217.96 205.359 217.951 205.499 217.861 205.581C217.811 205.622 217.762 205.647 217.704 205.647ZM202.384 198.794C203.06 198.868 208.702 199.593 213.495 202.072C209.336 199.296 204.509 198.012 201.495 198.119L202.384 198.794Z" fill="#BD7A43"/>
<path d="M183.366 194.248C183.366 194.248 186.34 198.695 187.88 204.115C189.42 209.535 193.711 213.982 194.156 217.343C194.593 220.703 195.581 226.23 198.67 228.619C195.919 222.763 195.589 222.441 194.708 216.256C193.72 210.292 191.85 210.836 190.087 206.388C188.325 201.941 187.336 199.124 185.903 196.2L183.366 194.248Z" fill="#EBD9B3"/>
<path d="M198.662 228.841C198.613 228.841 198.563 228.825 198.522 228.792C195.063 226.115 194.206 219.534 193.926 217.367C193.72 215.77 192.6 213.908 191.315 211.75C189.973 209.51 188.457 206.973 187.658 204.172C186.151 198.852 183.202 194.412 183.177 194.371C183.111 194.28 183.128 194.148 183.21 194.074C183.293 194 183.424 193.992 183.507 194.058L186.035 196.01C186.06 196.035 186.085 196.059 186.101 196.092C187.164 198.267 188.004 200.425 189.058 203.143C189.429 204.107 189.833 205.144 190.294 206.297C190.986 208.044 191.686 208.999 192.369 209.922C193.374 211.289 194.33 212.582 194.931 216.214C195.738 221.873 196.076 222.581 198.259 227.21L198.876 228.512C198.926 228.61 198.893 228.726 198.81 228.792C198.769 228.825 198.712 228.841 198.662 228.841ZM184.232 195.203C185.204 196.858 187.016 200.227 188.103 204.049C188.877 206.783 190.384 209.296 191.71 211.511C193.028 213.71 194.165 215.613 194.387 217.31C194.634 219.229 195.351 224.69 197.937 227.606L197.847 227.408C195.631 222.721 195.293 222.005 194.478 216.28C193.893 212.763 193.02 211.569 191.999 210.193C191.299 209.246 190.582 208.274 189.865 206.462C189.412 205.309 189.001 204.271 188.63 203.308C187.584 200.614 186.76 198.481 185.714 196.339L184.232 195.203Z" fill="#BD7A43"/>
<path d="M194.263 215.168C194.263 215.168 199.551 218.957 202.961 223.734C200.539 217.771 194.049 213.323 194.049 213.323L194.263 215.168Z" fill="#EBD9B3"/>
<path d="M202.952 223.965C202.878 223.965 202.812 223.932 202.763 223.866C199.411 219.179 194.172 215.399 194.123 215.358C194.073 215.316 194.032 215.259 194.032 215.193L193.81 213.348C193.801 213.257 193.843 213.167 193.917 213.125C193.991 213.076 194.09 213.084 194.164 213.134C194.23 213.175 200.745 217.689 203.158 223.644C203.199 223.751 203.158 223.874 203.059 223.932C203.035 223.957 202.993 223.965 202.952 223.965ZM194.477 215.045C195.07 215.481 198.719 218.232 201.733 221.799C199.411 217.812 195.597 214.773 194.329 213.826L194.477 215.045Z" fill="#BD7A43"/>
<path d="M183.473 208.554C183.473 208.554 183.695 214.081 185.787 218.743C183.036 214.839 182.484 208.118 182.484 208.118L183.473 208.554Z" fill="#EBD9B3"/>
<path d="M185.787 218.982C185.713 218.982 185.639 218.949 185.598 218.883C182.839 214.971 182.279 208.423 182.254 208.142C182.246 208.06 182.287 207.986 182.353 207.937C182.419 207.887 182.509 207.879 182.583 207.912L183.572 208.348C183.654 208.381 183.704 208.464 183.712 208.554C183.712 208.612 183.951 214.098 186.002 218.661C186.051 218.768 186.01 218.9 185.903 218.957C185.862 218.974 185.829 218.982 185.787 218.982ZM182.756 208.497C182.88 209.576 183.308 212.689 184.412 215.572C183.514 212.351 183.292 209.394 183.251 208.711L182.756 208.497Z" fill="#BD7A43"/>
<path d="M193.884 194.362C193.884 194.362 195.737 193.283 198.191 192.105C200.918 190.804 207.252 189.849 208.924 190.195C205.407 188.374 202.326 189.503 198.018 191.15C193.711 192.797 191.857 193.926 191.857 193.926L193.884 194.362Z" fill="#EBD9B3"/>
<path d="M193.884 194.594C193.868 194.594 193.851 194.594 193.835 194.585L191.809 194.149C191.718 194.132 191.644 194.058 191.628 193.959C191.611 193.869 191.652 193.77 191.735 193.72C191.809 193.671 193.654 192.567 197.929 190.928C202.08 189.339 205.358 188.087 209.023 189.981C209.122 190.03 209.172 190.154 209.139 190.261C209.097 190.368 208.99 190.434 208.875 190.409C207.31 190.088 201.034 190.986 198.291 192.296C195.869 193.449 194.016 194.528 194 194.536C193.967 194.585 193.926 194.594 193.884 194.594ZM192.517 193.836L193.851 194.124C194.23 193.91 195.944 192.938 198.102 191.908C200.325 190.846 205.037 189.973 207.64 189.907C204.633 188.886 201.825 189.956 198.11 191.381C195.145 192.501 193.341 193.399 192.517 193.836Z" fill="#BD7A43"/>
<path d="M205.325 190.294C205.325 190.294 210.25 196.447 217.729 196.101C212.803 196.966 208.669 194.973 204.18 190.467C205.061 190.294 205.325 190.294 205.325 190.294Z" fill="#EBD9B3"/>
<path d="M215.538 196.529C211.659 196.529 208.018 194.651 204.023 190.631C203.966 190.574 203.941 190.483 203.966 190.401C203.99 190.318 204.056 190.261 204.147 190.244C205.02 190.071 205.308 190.071 205.333 190.071C205.407 190.071 205.473 190.104 205.514 190.162C205.563 190.22 210.44 196.199 217.729 195.878C217.853 195.886 217.96 195.96 217.968 196.084C217.984 196.208 217.902 196.315 217.778 196.339C217.012 196.455 216.271 196.529 215.538 196.529ZM204.657 190.607C207.845 193.737 210.802 195.466 213.841 195.927C208.982 194.708 205.761 191.15 205.226 190.524C205.127 190.541 204.946 190.557 204.657 190.607Z" fill="#BD7A43"/>
<path d="M189.436 193.44C181.216 191.892 173.96 185.583 173.96 175.937C173.96 169.974 174.652 164.505 174.454 156.326C172.856 156.73 171.085 156.903 169.685 156.351C169.8 159.942 169.776 163.385 169.611 166.605C168.952 178.969 166.802 186.826 155.831 189.75C148.986 191.406 146.639 189.932 142.908 189.619C139.177 189.306 134.383 190.796 132.505 193.918C132.505 193.918 135.767 189.627 142.9 190.698C150.032 191.768 155.716 194.272 163.689 188.795C159.817 194.626 152.932 198.086 150.024 202.962C147.125 207.846 145.189 213.323 145.914 218.562C146.515 211.66 148.937 203.44 153.895 199.387C158.854 195.343 166.349 189.627 169.001 184.026C167.675 195.574 171.538 202.484 175.047 210.218C178.556 217.961 181.455 224.509 181.208 230.456C181.57 221.527 180.598 219.262 177.823 213.307C175.047 207.352 171.662 199.14 172.263 191.636C172.749 186.752 173.474 183.54 174.322 185.566C175.17 187.592 177.23 192.114 189.074 194.733C200.918 197.353 203.817 201.282 205.028 205.095C204.542 198.679 197.656 194.989 189.436 193.44Z" fill="#EBD9B3"/>
<path d="M181.216 230.703H181.208C181.076 230.695 180.977 230.587 180.985 230.464C181.232 224.435 178.127 217.582 174.841 210.325C174.519 209.609 174.19 208.9 173.861 208.192C170.747 201.446 167.798 195.055 168.655 185.187C165.887 189.973 159.916 194.808 155.476 198.407C154.982 198.811 154.504 199.198 154.043 199.568C147.816 204.65 146.424 215.407 146.153 218.578C146.144 218.694 146.046 218.784 145.93 218.793C145.93 218.793 145.93 218.793 145.922 218.793C145.807 218.793 145.708 218.71 145.691 218.595C145.041 213.867 146.433 208.571 149.834 202.847C151.284 200.4 153.697 198.333 156.259 196.142C158.565 194.165 160.946 192.122 162.807 189.652C156.58 193.49 151.605 192.543 146.358 191.546C145.23 191.332 144.069 191.109 142.874 190.928C135.964 189.89 132.727 194.017 132.702 194.058C132.628 194.157 132.488 194.182 132.389 194.107C132.29 194.042 132.257 193.902 132.323 193.794C134.3 190.516 139.267 189.075 142.949 189.388C143.937 189.47 144.851 189.635 145.733 189.8C148.228 190.261 150.798 190.731 155.798 189.52C166.349 186.711 168.721 179.29 169.396 166.581C169.561 163.426 169.586 159.983 169.47 156.343C169.47 156.269 169.503 156.194 169.569 156.145C169.635 156.096 169.717 156.087 169.792 156.12C170.961 156.582 172.51 156.573 174.412 156.087C174.478 156.071 174.552 156.087 174.61 156.129C174.668 156.17 174.701 156.236 174.701 156.31C174.816 161.145 174.635 164.942 174.454 168.615C174.33 171.119 174.215 173.483 174.215 175.929C174.215 185.871 181.891 191.768 189.502 193.201C202.639 195.681 205.028 201.71 205.283 205.079C205.291 205.194 205.209 205.301 205.094 205.326C204.978 205.35 204.863 205.285 204.83 205.169C203.702 201.603 200.934 197.592 189.049 194.964C176.9 192.279 174.964 187.642 174.141 185.657C173.959 185.22 173.844 185.179 173.836 185.179C173.819 185.187 173.144 185.443 172.526 191.653C171.941 198.975 175.178 207.014 178.069 213.2C180.738 218.924 181.85 221.297 181.479 230.439V230.447C181.438 230.604 181.339 230.703 181.216 230.703ZM169.009 183.795C169.034 183.795 169.05 183.795 169.075 183.804C169.182 183.836 169.256 183.944 169.24 184.051C168.037 194.47 171.077 201.035 174.289 207.994C174.618 208.703 174.94 209.411 175.269 210.128C177.732 215.564 180.096 220.778 181.035 225.629C180.862 220.358 179.774 218.035 177.625 213.422C174.709 207.187 171.447 199.074 172.04 191.637C172.707 184.899 173.44 184.792 173.753 184.742C174.149 184.685 174.396 185.146 174.544 185.492C177.221 191.892 185.565 193.737 189.131 194.519C198.817 196.661 202.573 199.733 204.287 202.772C203.1 199.577 199.509 195.574 189.403 193.671C181.611 192.205 173.745 186.151 173.745 175.938C173.745 173.483 173.861 171.111 173.984 168.599C174.165 165.008 174.346 161.293 174.239 156.614C172.534 157.018 171.093 157.035 169.94 156.672C170.047 160.197 170.014 163.541 169.849 166.614C169.157 179.537 166.736 187.09 155.896 189.973C150.806 191.208 148.179 190.722 145.634 190.253C144.719 190.088 143.863 189.932 142.891 189.849C140.642 189.66 137.891 190.146 135.7 191.324C137.422 190.549 139.827 189.997 142.932 190.467C144.135 190.648 145.304 190.871 146.441 191.085C152.108 192.164 157.008 193.103 163.557 188.597C163.647 188.531 163.771 188.548 163.853 188.622C163.935 188.696 163.944 188.82 163.886 188.918C161.909 191.9 159.191 194.231 156.555 196.488C154.027 198.654 151.646 200.697 150.23 203.077C147.495 207.681 146.078 211.997 146.004 215.951C146.696 211.363 148.607 203.415 153.755 199.206C154.216 198.835 154.694 198.448 155.188 198.045C159.924 194.215 166.415 188.96 168.803 183.927C168.836 183.853 168.919 183.795 169.009 183.795Z" fill="#BD7A43"/>
<path opacity="0.4" d="M163.69 188.795C163.105 189.676 162.454 190.492 161.754 191.274C161.902 191.126 162.059 190.977 162.215 190.821C163.615 189.355 164.942 187.823 166.243 186.274C166.169 186.332 166.103 186.39 166.029 186.447C165.815 186.604 165.601 186.769 165.386 186.917C164.95 187.222 164.497 187.502 164.036 187.765C162.882 188.424 161.688 188.976 160.444 189.445C157.537 190.549 153.633 191.406 150.437 190.508C147.34 190.566 145.437 189.824 142.909 189.61C139.178 189.297 134.384 190.788 132.506 193.91C132.506 193.91 135.768 189.618 142.9 190.689C150.033 191.776 155.717 194.272 163.69 188.795Z" fill="#CB9049"/>
<path opacity="0.4" d="M189.437 193.44C181.216 191.892 173.96 185.583 173.96 175.937C173.96 169.974 174.652 164.505 174.454 156.326C173.828 156.483 173.186 156.59 172.543 156.647C172.453 162.075 172.156 167.495 172.066 172.931C172.033 175.048 172.214 177.165 172.206 179.282C172.197 181.201 171.991 183.112 171.662 185.006C171.341 186.876 170.937 188.737 170.731 190.623C170.525 192.551 170.575 194.437 170.847 196.356C171.168 198.654 171.736 200.96 171.926 203.291C172.898 205.63 173.993 207.896 175.055 210.243C178.564 217.985 181.464 224.533 181.216 230.48C181.579 221.552 180.607 219.287 177.831 213.332C175.055 207.377 171.67 199.165 172.272 191.661C172.757 186.777 173.482 183.565 174.331 185.591C175.179 187.617 177.238 192.139 189.082 194.758C200.927 197.377 203.826 201.306 205.037 205.12C204.543 198.679 197.657 194.989 189.437 193.44Z" fill="#CB9049"/>
<path d="M170.995 159.069C170.986 158.954 170.813 159.111 170.805 159.185C170.575 163.41 170.212 167.586 169.726 171.795C169.397 174.661 169.15 177.437 167.906 180.097C166.967 182.107 165.361 183.796 163.961 185.492C163.746 185.756 163.944 186.077 164.224 185.797C166.95 183.079 168.977 180.007 169.743 176.234C170.855 170.716 171.25 164.687 170.995 159.069Z" fill="#EBD9B3"/>
</svg>
