<svg width="193" height="236" viewBox="0 0 193 236" fill="none" xmlns="http://www.w3.org/2000/svg">
<path d="M96.5 235.475C149.795 235.475 193 192.27 193 138.975C193 85.6794 149.795 42.4749 96.5 42.4749C43.2045 42.4749 0 85.6794 0 138.975C0 192.27 43.2045 235.475 96.5 235.475Z" fill="#F2E8BD"/>
<path d="M49.8229 134.461C49.8723 133.654 49.584 132.896 48.7769 132.328C47.0637 131.134 44.288 131.801 42.4347 132.344C40.3179 132.962 38.2258 133.761 36.3149 134.857C34.8817 135.68 32.6167 137.27 33.2756 139.23C33.951 141.232 36.8338 141.611 38.5964 141.734C41.2322 141.924 44.0738 141.619 46.5365 140.597C48.4721 139.79 50.4572 138.168 50.3913 135.87C50.3666 135.26 50.1524 134.807 49.8229 134.461Z" fill="#6E4931"/>
<path d="M62.5238 134.692C61.6919 134.124 60.5141 133.852 59.3609 133.909C59.1468 133.86 58.9409 133.827 58.7432 133.819C57.0382 133.72 54.8637 134.749 54.6578 136.636C54.4519 138.489 56.6099 138.736 57.9771 138.555C59.6327 138.341 61.8731 137.55 62.6556 135.927C62.845 135.524 62.9685 134.997 62.5238 134.692Z" fill="#6E4931"/>
<path d="M97.2416 135.482C96.5168 132.6 92.0772 131.471 89.565 131.183C87.7694 130.985 85.9739 131.603 84.7219 132.929C83.7912 133.917 83.2723 135.416 83.8736 136.537C83.9972 136.858 84.2113 137.171 84.549 137.467C86.3857 139.049 89.5403 139.312 91.8548 139.354C94.0622 139.387 98.0241 138.588 97.2416 135.482Z" fill="#6E4931"/>
<path d="M114.868 134.807C113.92 132.328 111.071 132.081 108.921 133.069C107.208 133.852 105.132 135.762 105.42 137.822C105.297 138.126 105.223 138.456 105.223 138.81C105.223 139.247 105.429 139.535 105.84 139.691C108.649 140.713 116.548 139.205 114.868 134.807Z" fill="#6E4931"/>
<path d="M152.492 134.494C151.43 133.423 149.445 132.954 147.978 132.937C146.455 132.921 144.816 133.382 143.448 134.024C142.411 134.519 140.714 135.532 141.043 136.94C141.43 138.596 144.511 138.917 145.788 139.073C147.204 139.255 149.288 139.115 150.771 138.299C150.894 138.324 151.034 138.307 151.166 138.209C152.377 137.377 153.934 135.952 152.492 134.494Z" fill="#6E4931"/>
<path d="M165.926 134.865C165.902 133.456 164.32 132.855 163.142 132.69C160.498 132.32 156.792 133.02 155.153 135.342C154.535 136.215 154.164 137.435 155.062 138.258C155.779 138.917 156.907 139.016 157.838 139.041C159.881 139.09 162.632 138.859 164.37 137.673C164.971 137.262 165.729 136.553 165.72 135.746C165.852 135.482 165.934 135.186 165.926 134.865Z" fill="#6E4931"/>
<path d="M175.786 135.145C175.424 134.091 174.279 133.901 173.348 134.321C172.829 134.56 172.302 135.054 172.252 135.656C172.211 136.084 172.467 136.364 172.788 136.422C172.87 136.504 172.969 136.578 173.093 136.619C173.636 136.809 174.114 136.751 174.649 136.586C175.168 136.413 176.025 135.845 175.786 135.145Z" fill="#6E4931"/>
<path d="M24.7016 136.356C24.5862 135.219 23.0625 134.527 22.0659 134.486C20.8798 134.428 19.7184 135.227 19.3478 136.347C19.2983 136.487 19.2736 136.644 19.2572 136.809C19.1254 137.089 19.1171 137.385 19.3395 137.624C19.3807 137.665 19.4301 137.706 19.4713 137.748C19.5866 137.912 19.7678 138.077 19.9573 138.159C19.9902 138.176 20.0149 138.184 20.0479 138.184C20.7562 138.604 21.5964 138.744 22.4447 138.596C23.4743 138.406 24.8251 137.566 24.7016 136.356Z" fill="#6E4931"/>
<path d="M77.1527 134.288C76.9798 134.156 76.7656 134.115 76.5515 134.115C76.4115 134.049 76.2467 134.008 76.0902 134.016C75.9749 134.016 75.8514 134.033 75.7361 134.058C75.6619 134.074 75.5878 134.099 75.5219 134.124C75.489 134.132 75.1512 134.231 75.4807 134.14C74.8877 134.296 74.1793 134.939 74.5582 135.606C74.7724 135.977 75.25 136.141 75.6536 136.141C76.3043 136.141 76.8974 135.804 77.2516 135.268C77.4575 134.955 77.4657 134.527 77.1527 134.288Z" fill="#6E4931"/>
<path d="M124.876 135.689C124.851 135.656 124.826 135.631 124.802 135.598C124.818 135.541 124.826 135.491 124.843 135.433C124.909 135.071 124.62 134.832 124.332 134.708C124.192 134.651 123.928 134.667 123.796 134.7C123.739 134.717 123.557 134.774 123.508 134.791C123.36 134.857 123.22 134.939 123.104 135.054C122.906 135.219 122.939 135.194 123.203 134.972C123.145 135.013 123.096 135.054 123.038 135.112C122.972 135.17 122.923 135.219 122.865 135.277C122.799 135.335 122.734 135.392 122.684 135.45C122.437 135.73 122.239 136.126 122.412 136.496C122.569 136.834 122.997 136.966 123.343 136.867C123.541 136.809 123.706 136.744 123.879 136.661C123.903 136.669 123.92 136.678 123.945 136.686C124.217 136.768 124.571 136.62 124.744 136.414C124.884 136.241 125.073 135.887 124.876 135.689Z" fill="#6E4931"/>
<path d="M177.878 136.075C174.772 135.738 171.626 136.009 168.521 136.29C165.308 136.586 162.113 136.99 158.909 137.294C155.672 137.599 152.377 137.896 149.124 137.616C146.002 137.344 142.897 136.883 139.8 136.462C136.464 136.009 133.12 135.598 129.751 135.482C126.498 135.367 123.277 135.647 120.057 136.133C113.797 137.072 107.603 138.39 101.244 138.382C94.9598 138.373 88.7823 137.163 82.5884 136.24C79.2443 135.746 75.9168 135.318 72.5233 135.408C69.2039 135.499 65.901 135.927 62.6229 136.438C56.4454 137.401 50.3256 138.538 44.0493 138.653C33.7453 138.835 23.5567 137.014 13.2939 136.479C13.2939 136.817 13.2856 137.154 13.2856 137.492C13.2856 183.493 50.5727 220.781 96.5741 220.781C142.576 220.781 179.863 183.493 179.863 137.492C179.863 137.105 179.863 136.718 179.854 136.331C179.187 136.232 178.536 136.149 177.878 136.075Z" fill="#6E4931"/>
<path d="M28.334 145.679C31.2497 146.783 34.2149 147.533 37.3448 147.607C40.45 147.681 43.5387 147.162 46.5203 146.33C52.1871 144.757 57.4174 141.989 63.323 141.248C66.4776 140.853 69.7064 141.067 72.8775 141.092C76.1309 141.116 79.3762 141.108 82.6297 140.976C88.8318 140.721 95.001 139.971 101.022 141.965C103.855 142.904 106.606 144.04 109.572 144.526C112.792 145.053 115.881 144.551 119.011 143.752C121.893 143.011 124.752 142.096 127.709 141.685C130.435 141.298 133.194 141.462 135.904 141.924C138.886 142.434 141.793 143.283 144.742 143.909C147.839 144.567 151.002 144.938 154.164 144.806C159.955 144.567 165.58 142.813 171.395 142.797C174.122 142.788 176.84 143.126 179.566 143.208C179.599 143.208 179.632 143.208 179.673 143.208C179.805 141.314 179.871 139.403 179.871 137.476C179.871 137.089 179.871 136.702 179.863 136.314C179.204 136.224 178.545 136.133 177.886 136.067C174.781 135.73 171.634 136.001 168.529 136.281C165.317 136.578 162.121 136.982 158.917 137.286C155.68 137.591 152.385 137.888 149.132 137.608C146.01 137.336 142.905 136.874 139.808 136.454C136.472 136.001 133.128 135.59 129.759 135.474C126.506 135.359 123.285 135.639 120.065 136.125C113.805 137.064 107.611 138.382 101.253 138.374C94.9681 138.365 88.7906 137.155 82.5967 136.232C79.2526 135.738 75.9251 135.31 72.5316 135.4C69.2122 135.491 65.9093 135.919 62.6312 136.43C56.4537 137.393 50.3339 138.53 44.0576 138.645C33.7536 138.827 23.565 137.006 13.3022 136.471C13.3022 136.809 13.2939 137.146 13.2939 137.484C13.2939 139.189 13.3434 140.886 13.4505 142.574C18.5572 142.615 23.5485 143.867 28.334 145.679Z" fill="#6E4931"/>
<path d="M28.6469 141.586C30.6402 141.059 32.5181 140.12 34.5937 139.938C35.7386 139.84 36.9 140.021 38.0449 140.111C39.2886 140.202 40.5323 140.235 41.776 140.111C44.0328 139.881 46.3309 138.925 48.6124 139.172C49.6255 139.279 50.5809 139.625 51.5693 139.848C52.8378 140.136 54.0898 140.153 55.35 139.815C57.5162 139.23 59.4189 138.019 61.7251 138.003C62.8618 137.995 63.9984 138.176 65.1186 138.349C66.4447 138.546 67.7543 138.604 69.0968 138.579C70.4064 138.555 71.7243 138.472 73.0339 138.423C74.1294 138.382 75.1755 138.365 76.2462 138.637C77.4488 138.942 78.6265 139.403 79.8703 139.452C81.114 139.502 82.2754 139.032 83.4285 138.629C84.4252 138.283 85.4053 138.019 86.476 138.11C87.5797 138.209 88.6505 138.505 89.7213 138.744C90.9074 139.016 92.1099 139.082 93.3042 139.288C94.3008 139.461 95.2398 139.815 96.2035 140.111C97.4307 140.49 98.6992 140.762 99.9841 140.787C101.17 140.811 102.34 140.622 103.509 140.408C104.539 140.218 105.577 139.996 106.623 139.905C107.809 139.807 108.995 139.98 110.181 140.004C111.293 140.029 112.364 139.815 113.459 139.765C114.546 139.716 115.584 139.905 116.663 140.062C117.973 140.251 119.142 140.194 120.403 139.774C121.375 139.452 122.297 138.999 123.285 138.728C124.957 138.266 126.819 138.242 128.532 138.225C129.381 138.217 130.245 138.225 131.085 138.332C131.102 138.332 131.118 138.34 131.135 138.34C132.09 138.184 133.079 138.176 134.018 138.192C135.624 138.217 137.222 138.373 138.82 138.522C139.454 138.579 140.088 138.645 140.73 138.686C141.653 138.744 142.592 138.711 143.514 138.761C145.483 138.859 147.41 139.115 149.297 139.7C151.026 140.243 152.682 141.124 154.519 141.223C156.594 141.339 158.596 140.49 160.548 139.889C161.503 139.592 162.475 139.337 163.48 139.222C164.584 139.082 165.712 139.123 166.824 139.181C169.04 139.296 171.264 139.518 173.454 139.074C175.431 138.678 177.416 138.653 179.426 138.621C179.566 138.621 179.714 138.612 179.854 138.612C179.863 138.242 179.863 137.871 179.863 137.492C179.863 137.105 179.863 136.718 179.854 136.331C179.195 136.24 178.536 136.15 177.878 136.084C174.772 135.746 171.626 136.018 168.521 136.298C165.308 136.594 162.113 136.998 158.909 137.303C155.672 137.607 152.377 137.904 149.124 137.624C146.002 137.352 142.897 136.891 139.8 136.471C136.464 136.018 133.12 135.606 129.751 135.491C126.498 135.375 123.277 135.655 120.057 136.141C113.797 137.08 107.603 138.398 101.244 138.39C94.9598 138.382 88.7823 137.171 82.5884 136.248C79.2443 135.754 75.9168 135.326 72.5233 135.416C69.2039 135.507 65.901 135.935 62.6229 136.446C56.4454 137.41 50.3256 138.546 44.0493 138.662C33.7453 138.843 23.5567 137.023 13.2939 136.487C13.2939 136.825 13.2856 137.163 13.2856 137.5C13.2856 138.481 13.3022 139.452 13.3351 140.424C16.3744 141.347 19.7019 141.47 22.8236 141.701C24.8086 141.833 26.6866 142.105 28.6469 141.586Z" fill="#986749"/>
<path opacity="0.57" d="M150.211 181.583C144.643 181.648 139.19 183.386 133.886 184.91C128.722 186.401 123.458 187.801 118.039 187.752C112.29 187.702 106.689 186.22 101.055 185.223C98.0485 184.688 95.0174 184.309 91.9533 184.317C88.9305 184.325 85.9077 184.622 82.9178 185.05C77.1193 185.874 71.403 187.183 65.5962 187.916C62.837 188.262 60.0695 188.526 57.2938 188.188C54.8969 187.892 52.566 187.233 50.3009 186.417C45.2436 184.597 40.4416 182.208 35.1043 181.261C31.785 180.676 28.4245 180.438 25.064 180.232C39.6098 204.521 66.1892 220.78 96.5658 220.78C126.704 220.78 153.102 204.777 167.722 180.8C161.89 181.484 156.083 181.517 150.211 181.583Z" fill="#8C664B"/>
<path opacity="0.57" d="M145.145 199.39C139.882 199.769 134.94 201.919 129.71 202.528C124.265 203.163 118.747 203.402 113.27 203.286C107.883 203.171 102.513 202.594 97.1259 202.611C94.4078 202.619 91.6815 202.833 89.0211 203.402C86.303 203.986 83.6096 204.662 80.908 205.329C78.3958 205.955 75.8672 206.531 73.2891 206.82C70.6616 207.116 68.0425 207.026 65.415 206.704C60.646 206.12 56.0005 204.81 51.4539 203.294C48.011 202.15 44.5928 200.873 41.1499 199.679C55.8687 212.808 75.2824 220.789 96.5658 220.789C117.775 220.789 137.123 212.865 151.833 199.81C149.618 199.481 147.386 199.226 145.145 199.39Z" fill="#8C664B"/>
<g opacity="0.57">
<path d="M28.4574 156.692C27.1972 156.593 25.9864 156.897 25.2863 157.713C24.6439 158.462 24.3391 159.55 24.3391 160.522C24.2897 162.902 25.3274 165.233 28.0784 164.945C30.3764 164.697 32.5015 162.91 32.831 160.579C33.144 158.388 30.7389 156.873 28.4574 156.692Z" fill="#8C664B"/>
<path d="M37.6505 166.971C37.6505 166.946 37.6423 166.922 37.6341 166.897C37.6341 166.864 37.6258 166.839 37.6258 166.806C37.6011 166.691 37.5434 166.6 37.461 166.534C37.3292 166.403 37.1479 166.328 36.9501 166.337C36.7771 166.337 36.6041 166.378 36.4393 166.444C36.2992 166.501 36.1839 166.576 36.0768 166.683C35.9614 166.765 35.8707 166.872 35.7966 166.996C35.7059 167.177 35.6071 167.367 35.6153 167.581C35.6153 167.638 35.6236 167.688 35.6318 167.746C35.6071 167.844 35.6071 167.943 35.6318 168.042C35.673 168.174 35.7472 168.281 35.8543 168.364C36.0273 168.495 36.2993 168.487 36.4888 168.454C36.9667 168.372 37.4528 167.993 37.6011 167.523C37.6752 167.317 37.6834 167.169 37.6505 166.971Z" fill="#8C664B"/>
<path d="M49.0002 180.66C48.7777 180.644 48.5717 180.71 48.3904 180.817C47.8878 180.817 47.4594 181.221 47.2699 181.649C47.1051 182.003 47.1546 182.456 47.4182 182.745C47.6572 183.009 47.9703 183.198 48.3246 183.198C49.0991 183.215 49.6346 182.514 49.7252 181.797C49.7994 181.286 49.6016 180.701 49.0002 180.66Z" fill="#8C664B"/>
<path d="M25.1796 151.527C24.949 150.975 24.5948 150.506 23.8947 150.555C23.3758 150.597 22.9228 150.91 22.5686 151.288C21.7614 152.153 21.9096 153.644 23.3428 153.562C23.5158 153.586 23.697 153.611 23.8782 153.603C24.5865 153.586 25.6409 152.87 25.3691 152.038C25.3114 151.873 25.2455 151.7 25.1796 151.527Z" fill="#8C664B"/>
<path d="M33.7452 173.041C33.111 172.654 32.4274 172.596 31.8261 172.794C31.7932 172.794 31.7602 172.786 31.7273 172.786C31.0519 172.769 30.4094 173.115 29.9564 173.593C29.1822 174.4 28.6386 175.858 29.3799 176.863C30.4259 178.271 33.0616 177.423 34.0829 176.426C35.1372 175.397 34.9972 173.815 33.7452 173.041Z" fill="#8C664B"/>
<path d="M50.2601 171.238C49.6833 171.238 49.1395 172.267 49.9057 172.267C50.4825 172.267 51.0264 171.238 50.2601 171.238Z" fill="#8C664B"/>
<path d="M53.9822 151.124C53.3562 150.597 52.4584 150.564 51.6594 150.803C51.6265 150.803 51.5853 150.794 51.5524 150.794C50.4404 150.794 49.3039 151.585 49.1638 152.738C49.0321 153.817 49.7898 154.978 50.8029 155.324C51.9231 155.703 53.2738 155.193 54.0316 154.328C54.8388 153.397 55.0118 151.98 53.9822 151.124Z" fill="#8C664B"/>
<path d="M60.8199 151.75C60.0866 151.75 59.3945 153.06 60.375 153.06C61.1083 153.06 61.8004 151.75 60.8199 151.75Z" fill="#8C664B"/>
<path d="M73.7503 164.945C72.4901 165.043 71.2794 164.739 70.5793 163.923C69.9368 163.174 69.632 162.086 69.632 161.115C69.5826 158.734 70.6205 156.403 73.3715 156.691C75.6695 156.939 77.7945 158.726 78.1239 161.057C78.4369 163.248 76.0319 164.763 73.7503 164.945Z" fill="#8C664B"/>
<path d="M91.9205 157.507C91.5828 157.532 91.2698 157.433 90.9898 157.268C90.2238 157.268 89.5649 156.659 89.2684 155.992C89.0213 155.448 89.0872 154.756 89.499 154.303C89.8614 153.908 90.3391 153.611 90.8909 153.603C92.0852 153.586 92.9007 154.657 93.0407 155.744C93.1478 156.543 92.843 157.449 91.9205 157.507Z" fill="#8C664B"/>
<path d="M62.9691 178.552C63.2409 177.72 62.1865 177.003 61.4782 176.987C61.297 176.978 61.1158 177.003 60.9428 177.028C59.5014 176.946 59.3614 178.436 60.1686 179.301C60.5228 179.68 60.9758 180.001 61.4947 180.034C62.1948 180.084 62.5489 179.614 62.7795 179.062C62.8537 178.898 62.9114 178.725 62.9691 178.552Z" fill="#8C664B"/>
<path d="M72.844 148.414C72.2097 148.801 71.526 148.859 70.9248 148.661C70.8918 148.661 70.8589 148.669 70.8342 148.669C70.1588 148.686 69.5163 148.34 69.055 147.862C68.2808 147.055 67.7372 145.597 68.4785 144.592C69.5246 143.184 72.1602 144.032 73.1816 145.029C74.2359 146.058 74.1042 147.64 72.844 148.414Z" fill="#8C664B"/>
<path d="M83.1976 179.532C82.5716 180.059 81.6738 180.092 80.8749 179.853C80.8419 179.853 80.8007 179.861 80.7678 179.861C79.6559 179.861 78.5192 179.071 78.3792 177.917C78.2474 176.838 79.0051 175.677 80.0182 175.331C81.1384 174.952 82.4893 175.463 83.247 176.328C84.0542 177.267 84.2189 178.683 83.1976 179.532Z" fill="#8C664B"/>
<path d="M98.4279 178.848C97.6945 178.848 97.0024 177.538 97.9829 177.538C98.7162 177.538 99.4084 178.848 98.4279 178.848Z" fill="#8C664B"/>
<path d="M105.997 160.826C105.371 160.777 104.761 160.925 104.407 161.337C104.086 161.708 103.938 162.251 103.938 162.737C103.913 163.931 104.432 165.093 105.807 164.945C106.961 164.821 108.023 163.932 108.188 162.762C108.344 161.675 107.142 160.917 105.997 160.826Z" fill="#8C664B"/>
<path d="M117.256 166.971C117.256 166.946 117.248 166.922 117.24 166.897C117.24 166.864 117.232 166.839 117.232 166.806C117.207 166.691 117.149 166.6 117.067 166.534C116.935 166.403 116.754 166.328 116.556 166.337C116.383 166.337 116.21 166.378 116.045 166.444C115.905 166.501 115.79 166.576 115.683 166.683C115.567 166.765 115.477 166.872 115.403 166.996C115.312 167.177 115.213 167.367 115.221 167.581C115.221 167.638 115.23 167.688 115.238 167.746C115.213 167.844 115.213 167.943 115.238 168.042C115.279 168.174 115.353 168.281 115.46 168.364C115.633 168.495 115.905 168.487 116.095 168.454C116.573 168.372 117.059 167.993 117.207 167.523C117.273 167.317 117.281 167.169 117.256 166.971Z" fill="#8C664B"/>
<path d="M128.607 180.66C128.385 180.644 128.179 180.71 127.997 180.817C127.495 180.817 127.066 181.221 126.877 181.649C126.712 182.003 126.761 182.456 127.025 182.745C127.264 183.009 127.577 183.198 127.94 183.198C128.714 183.215 129.25 182.514 129.34 181.797C129.406 181.286 129.209 180.701 128.607 180.66Z" fill="#8C664B"/>
<path d="M104.778 151.527C104.547 150.975 104.193 150.506 103.493 150.555C102.974 150.597 102.521 150.91 102.167 151.288C101.36 152.153 101.508 153.644 102.941 153.562C103.114 153.586 103.295 153.611 103.476 153.603C104.185 153.586 105.239 152.87 104.967 152.038C104.91 151.873 104.852 151.7 104.778 151.527Z" fill="#8C664B"/>
<path d="M113.344 173.041C112.71 172.654 112.026 172.596 111.425 172.794C111.392 172.794 111.359 172.786 111.334 172.786C110.659 172.769 110.016 173.115 109.563 173.593C108.789 174.4 108.246 175.858 108.987 176.863C110.033 178.271 112.669 177.423 113.69 176.426C114.736 175.397 114.604 173.815 113.344 173.041Z" fill="#8C664B"/>
<path d="M129.867 171.238C129.29 171.238 128.746 172.267 129.512 172.267C130.089 172.267 130.633 171.238 129.867 171.238Z" fill="#8C664B"/>
<path d="M133.589 151.124C132.963 150.597 132.065 150.564 131.266 150.803C131.234 150.803 131.192 150.794 131.159 150.794C130.047 150.794 128.911 151.585 128.771 152.738C128.639 153.817 129.397 154.978 130.41 155.324C131.53 155.703 132.881 155.193 133.639 154.328C134.446 153.397 134.611 151.98 133.589 151.124Z" fill="#8C664B"/>
<path d="M140.426 151.75C139.693 151.75 139 153.06 139.981 153.06C140.714 153.06 141.406 151.75 140.426 151.75Z" fill="#8C664B"/>
<path d="M148.877 167.02C147.938 167.095 147.024 166.872 146.496 166.254C146.011 165.694 145.788 164.879 145.788 164.146C145.747 162.358 146.529 160.612 148.589 160.826C150.318 161.008 151.908 162.35 152.155 164.105C152.394 165.752 150.59 166.889 148.877 167.02Z" fill="#8C664B"/>
<path d="M171.527 157.507C171.189 157.532 170.876 157.433 170.596 157.268C169.822 157.268 169.171 156.659 168.875 155.992C168.628 155.448 168.694 154.756 169.105 154.303C169.468 153.908 169.946 153.611 170.497 153.603C171.692 153.586 172.507 154.657 172.647 155.744C172.746 156.543 172.441 157.449 171.527 157.507Z" fill="#8C664B"/>
<path d="M142.576 178.552C142.848 177.72 141.793 177.003 141.085 176.987C140.904 176.978 140.723 177.003 140.55 177.028C139.108 176.946 138.968 178.436 139.776 179.301C140.13 179.68 140.583 180.001 141.102 180.034C141.802 180.084 142.156 179.614 142.386 179.062C142.461 178.898 142.518 178.725 142.576 178.552Z" fill="#8C664B"/>
<path d="M154.823 151.651C154.42 151.898 153.991 151.931 153.612 151.807C153.596 151.807 153.571 151.815 153.555 151.815C153.127 151.824 152.723 151.609 152.435 151.305C151.94 150.794 151.603 149.872 152.072 149.237C152.739 148.348 154.403 148.883 155.054 149.509C155.705 150.16 155.622 151.165 154.823 151.651Z" fill="#8C664B"/>
<path d="M162.797 179.532C162.171 180.059 161.273 180.092 160.474 179.853C160.441 179.853 160.4 179.861 160.367 179.861C159.255 179.861 158.118 179.071 157.978 177.917C157.847 176.838 158.604 175.677 159.617 175.331C160.738 174.952 162.088 175.463 162.846 176.328C163.653 177.267 163.826 178.683 162.797 179.532Z" fill="#8C664B"/>
</g>
<g opacity="0.57">
<path d="M39.7828 189.169C39.4203 189.136 39.066 189.226 38.86 189.465C38.6705 189.679 38.588 190.001 38.588 190.281C38.5716 190.973 38.8765 191.657 39.6757 191.566C40.3431 191.492 40.961 190.973 41.0599 190.297C41.1423 189.663 40.442 189.218 39.7828 189.169Z" fill="#8C664B"/>
<path d="M40.9525 194.341C40.9525 194.333 40.9442 194.317 40.9442 194.308C40.9442 194.292 40.9442 194.284 40.9442 194.267C40.936 194.218 40.9113 194.177 40.8701 194.144C40.8124 194.086 40.73 194.053 40.6394 194.053C40.557 194.053 40.4829 194.069 40.4087 194.102C40.3428 194.127 40.2933 194.16 40.2439 194.21C40.1944 194.251 40.1532 194.292 40.1203 194.35C40.0791 194.432 40.0379 194.514 40.0379 194.613C40.0379 194.638 40.0379 194.663 40.0461 194.687C40.0379 194.729 40.0297 194.778 40.0461 194.819C40.0626 194.877 40.0956 194.926 40.145 194.968C40.2192 195.025 40.3427 195.025 40.4334 195.009C40.6476 194.976 40.8702 194.803 40.9361 194.589C40.9608 194.498 40.9689 194.432 40.9525 194.341Z" fill="#8C664B"/>
<path d="M35.3441 187.398C35.237 187.151 35.0803 186.936 34.7672 186.961C34.5365 186.978 34.3306 187.118 34.174 187.291C33.8115 187.678 33.8774 188.354 34.5201 188.312C34.6025 188.321 34.6767 188.329 34.7591 188.329C35.0804 188.321 35.55 187.999 35.4264 187.629C35.4017 187.554 35.377 187.472 35.3441 187.398Z" fill="#8C664B"/>
<path d="M63.0603 205.287C62.772 205.114 62.4671 205.09 62.1951 205.172C62.1787 205.172 62.1704 205.164 62.1539 205.164C61.849 205.156 61.5607 205.312 61.3547 205.526C61.0086 205.889 60.7615 206.548 61.0993 207.001C61.569 207.636 62.7554 207.257 63.2168 206.804C63.6865 206.35 63.6206 205.634 63.0603 205.287Z" fill="#8C664B"/>
<path d="M46.6273 196.26C46.3636 196.26 46.1247 196.722 46.4708 196.722C46.7262 196.73 46.9734 196.26 46.6273 196.26Z" fill="#8C664B"/>
<path d="M48.2999 187.217C48.0198 186.978 47.616 186.969 47.2535 187.068C47.237 187.068 47.2205 187.068 47.2041 187.068C46.7015 187.068 46.1906 187.423 46.1329 187.942C46.0752 188.428 46.413 188.947 46.8745 189.103C47.3771 189.277 47.9868 189.046 48.3246 188.65C48.6872 188.238 48.7613 187.604 48.2999 187.217Z" fill="#8C664B"/>
<path d="M51.3716 187.496C51.042 187.496 50.7289 188.081 51.1656 188.081C51.5034 188.09 51.8165 187.496 51.3716 187.496Z" fill="#8C664B"/>
<path d="M56.5192 196.392C55.9509 196.433 55.4073 196.301 55.0943 195.931C54.806 195.593 54.666 195.107 54.666 194.671C54.6413 193.6 55.1108 192.554 56.3463 192.686C57.3841 192.793 58.3395 193.6 58.4878 194.646C58.6195 195.634 57.5405 196.31 56.5192 196.392Z" fill="#8C664B"/>
<path d="M65.3655 190.084C65.209 190.092 65.0689 190.051 64.9453 189.976C64.5992 189.976 64.3026 189.704 64.1708 189.4C64.0555 189.152 64.0884 188.848 64.2779 188.642C64.4427 188.46 64.657 188.328 64.9042 188.328C65.4397 188.32 65.8104 188.806 65.8681 189.292C65.9093 189.655 65.7775 190.059 65.3655 190.084Z" fill="#8C664B"/>
<path d="M52.3438 199.555C52.4674 199.176 51.9895 198.863 51.6764 198.855C51.594 198.855 51.5117 198.863 51.4375 198.871C50.7866 198.83 50.7289 199.506 51.0914 199.893C51.248 200.066 51.4539 200.206 51.6846 200.223C51.9977 200.247 52.1626 200.033 52.2615 199.786C52.2862 199.712 52.3191 199.629 52.3438 199.555Z" fill="#8C664B"/>
<path d="M62.9198 199.827C62.7797 199.942 62.5737 199.951 62.4007 199.901C62.3925 199.901 62.3842 199.901 62.376 199.901C62.1288 199.901 61.8734 199.72 61.8405 199.465C61.8075 199.217 61.9805 198.962 62.2112 198.88C62.4666 198.797 62.7715 198.913 62.9363 199.102C63.1093 199.316 63.1505 199.629 62.9198 199.827Z" fill="#8C664B"/>
<path d="M68.2898 199.687C67.9602 199.687 67.6471 199.102 68.092 199.102C68.4216 199.094 68.7265 199.687 68.2898 199.687Z" fill="#8C664B"/>
<path d="M72.6217 189.72C72.0534 189.679 71.5098 189.811 71.1968 190.182C70.9085 190.519 70.7685 191.005 70.7685 191.442C70.7438 192.513 71.2132 193.559 72.4487 193.427C73.4865 193.32 74.442 192.513 74.5903 191.467C74.7303 190.478 73.6431 189.803 72.6217 189.72Z" fill="#8C664B"/>
<path d="M76.7573 194.341C76.7573 194.333 76.749 194.317 76.749 194.308C76.749 194.292 76.749 194.284 76.749 194.267C76.7408 194.218 76.716 194.177 76.6748 194.144C76.6171 194.086 76.5348 194.053 76.4441 194.053C76.3618 194.053 76.2876 194.069 76.2134 194.102C76.1475 194.127 76.0981 194.16 76.0487 194.21C75.9992 194.251 75.958 194.292 75.9251 194.35C75.8839 194.432 75.8427 194.514 75.8427 194.613C75.8427 194.638 75.8426 194.663 75.8508 194.687C75.8426 194.729 75.8343 194.778 75.8508 194.819C75.8673 194.877 75.9003 194.926 75.9497 194.968C76.0239 195.025 76.1475 195.025 76.2382 195.009C76.4524 194.976 76.6748 194.803 76.7408 194.589C76.7655 194.498 76.7655 194.432 76.7573 194.341Z" fill="#8C664B"/>
<path d="M81.864 200.502C81.7651 200.494 81.6745 200.527 81.5921 200.568C81.3697 200.568 81.1719 200.749 81.0895 200.939C81.0154 201.095 81.0401 201.301 81.1554 201.433C81.2625 201.549 81.4026 201.639 81.5674 201.639C81.9135 201.648 82.1607 201.326 82.2019 201.013C82.2183 200.782 82.1277 200.519 81.864 200.502Z" fill="#8C664B"/>
<path d="M71.1483 187.398C71.0412 187.151 70.8846 186.936 70.5715 186.961C70.3408 186.978 70.1348 187.118 69.9782 187.291C69.6157 187.678 69.6816 188.354 70.3243 188.312C70.4067 188.321 70.4809 188.329 70.5633 188.329C70.8846 188.321 71.3542 187.999 71.2306 187.629C71.2059 187.554 71.1812 187.472 71.1483 187.398Z" fill="#8C664B"/>
<path d="M74.9949 204.184C74.7065 204.011 74.4016 203.986 74.1297 204.069C74.1132 204.069 74.1051 204.061 74.0886 204.061C73.7837 204.052 73.4953 204.209 73.2893 204.423C72.9432 204.786 72.6961 205.445 73.0339 205.898C73.5035 206.533 74.69 206.154 75.1514 205.7C75.6211 205.247 75.5634 204.53 74.9949 204.184Z" fill="#8C664B"/>
<path d="M82.4238 196.26C82.1601 196.26 81.9211 196.722 82.2672 196.722C82.5308 196.73 82.7698 196.26 82.4238 196.26Z" fill="#8C664B"/>
<path d="M84.1041 187.217C83.824 186.978 83.4202 186.969 83.0577 187.068C83.0412 187.068 83.0247 187.068 83.0083 187.068C82.5057 187.068 81.9948 187.423 81.9371 187.942C81.8794 188.428 82.2172 188.947 82.6787 189.103C83.1813 189.277 83.791 189.046 84.1288 188.65C84.4831 188.238 84.5655 187.604 84.1041 187.217Z" fill="#8C664B"/>
<path d="M87.1765 187.496C86.8469 187.496 86.5338 188.081 86.9787 188.081C87.3083 188.09 87.6132 187.496 87.1765 187.496Z" fill="#8C664B"/>
<path d="M92.3161 196.392C91.7477 196.433 91.204 196.301 90.8911 195.931C90.6028 195.593 90.4628 195.107 90.4628 194.671C90.4381 193.6 90.9075 192.554 92.143 192.686C93.1808 192.793 94.1363 193.6 94.2845 194.646C94.4246 195.634 93.3456 196.31 92.3161 196.392Z" fill="#8C664B"/>
<path d="M101.162 190.084C101.006 190.092 100.866 190.051 100.742 189.976C100.396 189.976 100.099 189.704 99.9675 189.4C99.8604 189.152 99.8851 188.848 100.075 188.642C100.239 188.46 100.454 188.328 100.701 188.328C101.236 188.32 101.607 188.806 101.665 189.292C101.714 189.655 101.574 190.059 101.162 190.084Z" fill="#8C664B"/>
<path d="M88.1407 199.555C88.2643 199.176 87.7865 198.863 87.4734 198.855C87.391 198.855 87.3085 198.863 87.2344 198.871C86.5834 198.83 86.5257 199.506 86.8883 199.893C87.0448 200.066 87.2508 200.206 87.4815 200.223C87.7946 200.247 87.9595 200.033 88.0583 199.786C88.0913 199.712 88.116 199.629 88.1407 199.555Z" fill="#8C664B"/>
<path d="M97.2418 199.992C96.9616 200.231 96.5579 200.239 96.1953 200.141C96.1789 200.141 96.1623 200.141 96.1459 200.141C95.6432 200.141 95.1325 199.786 95.0748 199.267C95.0171 198.781 95.3549 198.262 95.8164 198.105C96.319 197.932 96.9286 198.163 97.2664 198.559C97.629 198.979 97.7032 199.613 97.2418 199.992Z" fill="#8C664B"/>
</g>
<g opacity="0.57">
<path d="M111.137 190.808C111.104 191.236 111.211 191.648 111.499 191.887C111.754 192.101 112.125 192.2 112.463 192.2C113.278 192.208 114.069 191.845 113.953 190.906C113.863 190.124 113.245 189.407 112.446 189.3C111.697 189.201 111.186 190.033 111.137 190.808Z" fill="#8C664B"/>
<path d="M117.182 189.374C117.165 189.374 117.157 189.383 117.14 189.383C117.124 189.383 117.107 189.383 117.091 189.391C117.033 189.407 116.984 189.432 116.951 189.481C116.885 189.556 116.844 189.646 116.844 189.753C116.844 189.844 116.869 189.935 116.901 190.025C116.934 190.099 116.976 190.157 117.025 190.215C117.066 190.272 117.124 190.322 117.19 190.363C117.289 190.413 117.388 190.462 117.503 190.454C117.528 190.454 117.561 190.454 117.585 190.445C117.635 190.454 117.692 190.462 117.742 190.445C117.808 190.421 117.865 190.38 117.907 190.322C117.973 190.231 117.973 190.091 117.956 189.984C117.915 189.737 117.709 189.481 117.462 189.407C117.363 189.358 117.289 189.358 117.182 189.374Z" fill="#8C664B"/>
<path d="M109.118 196.03C108.83 196.153 108.583 196.343 108.616 196.713C108.64 196.985 108.805 197.224 109.011 197.406C109.473 197.826 110.255 197.743 110.206 196.985C110.223 196.895 110.231 196.796 110.223 196.705C110.206 196.334 109.827 195.782 109.39 195.931C109.291 195.964 109.201 195.997 109.118 196.03Z" fill="#8C664B"/>
<path d="M134.282 206.663C134.002 206.49 133.697 206.465 133.433 206.548C133.417 206.548 133.409 206.54 133.392 206.54C133.096 206.531 132.807 206.688 132.609 206.894C132.263 207.248 132.024 207.899 132.354 208.344C132.815 208.97 133.985 208.591 134.438 208.155C134.9 207.701 134.842 207.001 134.282 206.663Z" fill="#8C664B"/>
<path d="M133.845 193.147C133.589 193.147 133.35 193.6 133.688 193.6C133.944 193.608 134.183 193.147 133.845 193.147Z" fill="#8C664B"/>
<path d="M134.265 188.304C133.985 188.073 133.59 188.057 133.236 188.164C133.219 188.164 133.203 188.164 133.186 188.164C132.692 188.164 132.189 188.51 132.131 189.021C132.074 189.499 132.412 190.01 132.857 190.166C133.351 190.331 133.952 190.108 134.29 189.721C134.644 189.309 134.719 188.683 134.265 188.304Z" fill="#8C664B"/>
<path d="M138.523 184.515C138.193 184.515 137.888 185.092 138.325 185.092C138.655 185.1 138.96 184.515 138.523 184.515Z" fill="#8C664B"/>
<path d="M143.588 193.278C143.028 193.32 142.493 193.188 142.18 192.825C141.892 192.496 141.76 192.01 141.76 191.582C141.735 190.527 142.196 189.498 143.415 189.621C144.437 189.729 145.376 190.519 145.524 191.557C145.664 192.529 144.593 193.196 143.588 193.278Z" fill="#8C664B"/>
<path d="M152.295 187.069C152.147 187.077 152.007 187.036 151.883 186.962C151.545 186.962 151.249 186.69 151.117 186.393C151.01 186.154 151.035 185.85 151.216 185.644C151.381 185.471 151.587 185.339 151.834 185.33C152.361 185.322 152.724 185.8 152.79 186.278C152.839 186.641 152.707 187.044 152.295 187.069Z" fill="#8C664B"/>
<path d="M139.479 196.392C139.602 196.021 139.133 195.708 138.82 195.7C138.737 195.7 138.663 195.708 138.581 195.716C137.946 195.675 137.88 196.343 138.235 196.722C138.391 196.886 138.597 197.027 138.82 197.051C139.133 197.076 139.289 196.862 139.388 196.623C139.421 196.54 139.454 196.466 139.479 196.392Z" fill="#8C664B"/>
<path d="M148.976 186.27C148.696 186.443 148.391 186.468 148.127 186.385C148.111 186.385 148.102 186.385 148.086 186.394C147.789 186.402 147.501 186.245 147.303 186.039C146.957 185.685 146.718 185.034 147.048 184.589C147.509 183.963 148.679 184.342 149.132 184.779C149.586 185.232 149.528 185.932 148.976 186.27Z" fill="#8C664B"/>
<path d="M149.89 196.656C149.75 196.771 149.552 196.78 149.379 196.73C149.371 196.73 149.362 196.73 149.354 196.73C149.107 196.73 148.86 196.557 148.827 196.302C148.794 196.063 148.967 195.807 149.189 195.725C149.436 195.643 149.741 195.758 149.906 195.947C150.079 196.153 150.12 196.467 149.89 196.656Z" fill="#8C664B"/>
<path d="M155.178 196.524C154.848 196.524 154.543 195.947 154.98 195.947C155.31 195.939 155.614 196.524 155.178 196.524Z" fill="#8C664B"/>
<path d="M108.138 204.406C107.578 204.365 107.043 204.497 106.73 204.859C106.441 205.189 106.31 205.675 106.31 206.103C106.285 207.157 106.746 208.187 107.965 208.063C108.986 207.956 109.925 207.165 110.074 206.128C110.214 205.156 109.151 204.489 108.138 204.406Z" fill="#8C664B"/>
<path d="M111.532 212.783C111.458 212.774 111.392 212.799 111.334 212.832C111.169 212.832 111.029 212.964 110.963 213.104C110.914 213.219 110.922 213.368 111.013 213.467C111.087 213.549 111.194 213.615 111.309 213.615C111.565 213.623 111.738 213.392 111.771 213.153C111.795 212.989 111.729 212.791 111.532 212.783Z" fill="#8C664B"/>
<path d="M157.995 184.424C157.888 184.177 157.731 183.971 157.426 183.996C157.196 184.012 156.998 184.152 156.841 184.326C156.487 184.705 156.545 185.372 157.187 185.331C157.27 185.339 157.344 185.347 157.426 185.347C157.739 185.339 158.209 185.026 158.086 184.655C158.053 184.573 158.02 184.499 157.995 184.424Z" fill="#8C664B"/>
<path d="M111.944 209.694C111.754 209.694 111.573 210.032 111.828 210.032C112.018 210.032 112.199 209.694 111.944 209.694Z" fill="#8C664B"/>
<path d="M125.847 196.359C125.649 196.607 125.633 196.953 125.732 197.266C125.732 197.282 125.732 197.29 125.732 197.307C125.74 197.744 126.053 198.18 126.498 198.23C126.918 198.279 127.371 197.974 127.503 197.579C127.643 197.142 127.445 196.615 127.099 196.326C126.729 196.013 126.176 195.956 125.847 196.359Z" fill="#8C664B"/>
<path d="M126.061 193.691C126.061 193.979 126.58 194.243 126.571 193.864C126.571 193.575 126.061 193.311 126.061 193.691Z" fill="#8C664B"/>
<path d="M128.013 210.798C127.601 210.831 127.206 210.732 126.975 210.46C126.761 210.213 126.662 209.859 126.662 209.538C126.646 208.755 126.983 207.989 127.889 208.088C128.647 208.17 129.339 208.755 129.446 209.521C129.553 210.238 128.763 210.732 128.013 210.798Z" fill="#8C664B"/>
<path d="M134.743 200.569C134.627 200.577 134.528 200.544 134.438 200.494C134.182 200.494 133.968 200.297 133.869 200.074C133.787 199.893 133.812 199.67 133.943 199.522C134.067 199.39 134.215 199.3 134.405 199.291C134.792 199.283 135.064 199.637 135.114 199.992C135.146 200.255 135.048 200.552 134.743 200.569Z" fill="#8C664B"/>
<path d="M116.112 212.091C116.203 211.819 115.857 211.589 115.626 211.58C115.568 211.58 115.511 211.589 115.453 211.597C114.983 211.572 114.934 212.058 115.197 212.338C115.313 212.462 115.461 212.569 115.634 212.577C115.865 212.594 115.98 212.437 116.054 212.256C116.071 212.206 116.095 212.149 116.112 212.091Z" fill="#8C664B"/>
<path d="M124.711 189.012C124.868 189.26 124.892 189.523 124.818 189.762C124.818 189.779 124.818 189.787 124.826 189.795C124.835 190.059 124.703 190.314 124.522 190.487C124.208 190.792 123.64 191.015 123.244 190.726C122.692 190.322 123.005 189.293 123.393 188.889C123.788 188.485 124.406 188.526 124.711 189.012Z" fill="#8C664B"/>
<path d="M122.742 212.413C122.536 212.586 122.24 212.594 121.984 212.52C121.976 212.52 121.96 212.52 121.951 212.52C121.589 212.52 121.218 212.264 121.169 211.885C121.127 211.531 121.375 211.152 121.704 211.037C122.075 210.913 122.512 211.078 122.759 211.366C123.023 211.671 123.072 212.132 122.742 212.413Z" fill="#8C664B"/>
<path d="M106.573 213.384C106.236 213.178 105.882 213.154 105.56 213.252C105.544 213.252 105.527 213.244 105.511 213.244C105.157 213.236 104.819 213.417 104.58 213.664C104.168 214.092 103.888 214.859 104.275 215.386C104.827 216.127 106.211 215.682 106.755 215.155C107.306 214.628 107.241 213.796 106.573 213.384Z" fill="#8C664B"/>
<path d="M65.4647 212.626C65.3823 212.618 65.2999 212.643 65.2258 212.684C65.028 212.684 64.8632 212.841 64.7891 213.005C64.7231 213.145 64.7396 213.318 64.8467 213.434C64.9373 213.533 65.061 213.607 65.201 213.615C65.5059 213.623 65.7119 213.343 65.7449 213.071C65.7696 212.865 65.6954 212.635 65.4647 212.626Z" fill="#8C664B"/>
<path d="M65.9504 208.953C65.7279 208.953 65.5137 209.357 65.8103 209.357C66.041 209.357 66.247 208.953 65.9504 208.953Z" fill="#8C664B"/>
<path d="M88.8312 217.478C88.3452 217.519 87.8675 217.395 87.5957 217.082C87.3486 216.794 87.2251 216.366 87.2251 215.987C87.2086 215.056 87.6122 214.15 88.683 214.265C89.5808 214.364 90.4044 215.056 90.5362 215.97C90.6598 216.819 89.7207 217.412 88.8312 217.478Z" fill="#8C664B"/>
<path d="M70.9011 211.803C71.0082 211.481 70.5961 211.201 70.3242 211.193C70.2501 211.193 70.1842 211.201 70.1182 211.21C69.5579 211.177 69.5003 211.762 69.8134 212.099C69.9534 212.248 70.1265 212.371 70.3325 212.388C70.6044 212.404 70.7444 212.223 70.8351 212.009C70.8598 211.935 70.8846 211.869 70.9011 211.803Z" fill="#8C664B"/>
<path d="M78.7835 212.182C78.5363 212.388 78.1902 212.396 77.8771 212.306C77.8606 212.306 77.8524 212.306 77.8359 212.306C77.3992 212.306 76.9625 212.001 76.9048 211.548C76.8554 211.127 77.152 210.674 77.5475 210.542C77.9842 210.394 78.5116 210.592 78.8082 210.93C79.1213 211.3 79.1872 211.852 78.7835 212.182Z" fill="#8C664B"/>
</g>
<path d="M21.5474 135.738C21.4156 134.922 20.6578 134.371 19.9577 134.033C18.368 133.267 16.1606 133.292 14.7192 134.379C13.9532 134.955 13.5003 135.919 13.838 136.866C14.1345 137.698 14.9252 138.102 15.7735 137.945C15.8312 137.937 15.8888 137.912 15.9382 137.871C17.1984 138.439 18.854 138.39 20.0154 137.888C20.8473 137.525 21.7039 136.726 21.5474 135.738Z" fill="#5A3B25"/>
<path d="M33.7863 134.14C32.3779 133.267 30.5246 133.102 28.9102 133.127C27.1559 133.152 24.8414 133.44 23.7048 134.939C22.7164 136.248 23.7707 137.196 24.9567 137.739C25.4015 138.39 26.357 138.81 27.0076 139.032C29.3139 139.848 33.4486 140.408 34.89 137.83C35.6396 136.487 35.0383 134.914 33.7863 134.14Z" fill="#5A3B25"/>
<path d="M54.9716 135.351C53.5302 134.428 51.4545 134.865 50.0378 135.639C49.3624 136.002 48.6047 136.636 48.5471 137.476C48.5388 137.616 48.5552 137.739 48.5799 137.855C48.5552 138.201 48.7035 138.522 49.1401 138.687C49.3625 138.769 49.6013 138.835 49.8484 138.876C49.8731 138.884 49.8978 138.893 49.9225 138.893C49.9472 138.901 49.9802 138.901 50.0131 138.901C51.2074 139.082 52.6077 138.884 53.6702 138.58C54.4197 138.365 55.2022 138.003 55.5975 137.295C56.0341 136.504 55.6799 135.796 54.9716 135.351Z" fill="#5A3B25"/>
<path d="M72.5809 132.551C70.0852 131.076 67.0459 131.266 64.6326 132.822C63.6853 133.432 62.5899 134.428 62.4334 135.615C62.277 136.825 63.2324 136.866 64.1466 136.998C64.1549 136.998 64.1549 136.998 64.1631 136.998C65.4316 137.83 67.2436 137.921 68.685 137.838C70.3076 137.748 72.2762 137.451 73.4705 136.241C74.8213 134.873 74.0141 133.399 72.5809 132.551Z" fill="#5A3B25"/>
<path d="M85.6027 135.227C84.5978 133.547 81.9785 133.275 80.2324 133.333C78.8569 133.374 75.1339 134.469 76.3941 136.537C76.3941 136.776 76.4929 137.006 76.7153 137.212C78.0579 138.423 80.7019 138.596 82.3986 138.481C83.9471 138.365 86.8299 137.294 85.6027 135.227Z" fill="#5A3B25"/>
<path d="M105.124 135.095C103.156 134.247 100.495 134.049 98.4277 134.601C97.4476 134.865 96.1215 135.507 95.7756 136.553C95.7014 136.767 95.6932 136.957 95.7179 137.113C95.6273 137.212 95.545 137.311 95.4626 137.41C95.0343 137.962 95.2814 138.629 95.8662 138.892C98.4772 140.07 101.632 139.988 104.342 139.148C105.297 138.851 106.475 138.349 106.796 137.303C107.15 136.15 106.038 135.491 105.124 135.095Z" fill="#5A3B25"/>
<path d="M122.651 134.964C120.864 133.728 118.327 133.926 116.309 134.815C115.139 134.898 114.06 135.4 113.154 136.594C112.973 136.842 112.907 137.278 113.105 137.533C115.115 140.144 120.139 138.258 122.305 136.767C122.816 136.405 123.351 135.45 122.651 134.964Z" fill="#5A3B25"/>
<path d="M135.961 134.865C134.339 133.234 131.991 133.209 129.842 133.209C128.45 133.209 124.685 133.917 126.333 136.141C127.28 137.41 129.454 137.821 130.912 137.97C132.733 138.143 134.948 137.698 135.895 135.944C136.052 135.663 136.241 135.153 135.961 134.865Z" fill="#5A3B25"/>
<path d="M141.077 133.333C139.479 132.863 137.049 133.333 136.481 135.128C136.193 136.043 136.81 137.13 137.585 137.608C138.581 138.225 139.924 137.69 140.879 137.163C142.304 136.372 143.128 133.934 141.077 133.333Z" fill="#5A3B25"/>
<path d="M155.82 138.349C155.969 138.061 156.01 137.731 155.804 137.451C155.796 137.443 155.787 137.426 155.779 137.418C155.334 136.001 153.11 136.257 151.957 137.072C151.595 137.327 151.298 137.772 151.389 138.233C151.389 138.242 151.397 138.25 151.397 138.258C151.381 138.439 151.406 138.637 151.504 138.843C151.669 139.197 151.949 139.354 152.27 139.387C153.168 139.815 154.502 139.535 155.285 138.975C155.441 138.868 155.598 138.703 155.73 138.514C155.771 138.464 155.804 138.406 155.82 138.349Z" fill="#5A3B25"/>
<path d="M174.048 134.683C173.447 133.596 171.948 133.291 170.778 133.226C169.979 132.937 168.999 132.913 168.299 132.97C166.849 133.077 164.403 133.884 164.699 135.787C164.947 137.385 167.179 137.467 168.414 137.443C170.103 137.41 171.997 137.204 173.48 136.347C174.032 136.026 174.361 135.26 174.048 134.683Z" fill="#5A3B25"/>
<path d="M177.771 134.864C177.647 134.436 177.194 134.23 176.725 134.337C176.362 134.428 176.057 134.593 175.81 134.831C175.679 134.93 175.547 135.046 175.44 135.169C175.398 135.219 175.357 135.268 175.316 135.317C175.308 135.334 175.291 135.35 175.275 135.367H175.283C175.258 135.4 175.242 135.441 175.217 135.482C175.036 135.853 175.11 136.355 175.571 136.471C175.596 136.479 175.613 136.479 175.629 136.479C175.72 136.528 175.818 136.569 175.926 136.586C176.42 136.66 176.996 136.388 177.301 135.985C177.367 135.927 177.433 135.869 177.491 135.803C177.688 135.738 177.878 135.573 177.952 135.4C178.051 135.219 178.034 134.914 177.771 134.864Z" fill="#5A3B25"/>
<path d="M24.5617 137.278C24.1169 136.026 22.6672 135.952 21.3988 136.356C20.3362 136.347 19.2408 136.685 18.7136 137.657C17.7499 139.444 20.3528 139.799 21.5471 139.782C22.8567 139.757 25.1959 139.082 24.5617 137.278Z" fill="#82583D"/>
<path d="M39.3629 137.599C39.0993 137.451 38.8193 137.369 38.531 137.385C38.4322 137.36 38.3251 137.344 38.2098 137.336C37.4932 137.319 36.9578 137.822 36.6695 138.431C36.5542 138.678 36.653 138.975 36.8589 139.131C37.5014 139.617 38.4404 139.452 39.0746 139.041C39.4618 138.785 39.9642 137.937 39.3629 137.599Z" fill="#82583D"/>
<path d="M56.8408 136.767C56.5772 136.611 56.3136 136.528 56.0171 136.553C55.4982 136.454 54.9134 136.677 54.5099 136.99C54.1804 137.245 53.9086 137.624 53.9909 138.052C54.1063 138.637 54.6499 138.942 55.2099 138.933C56.0501 138.925 56.7337 138.382 57.0714 137.632C57.2032 137.352 57.1126 136.932 56.8408 136.767Z" fill="#82583D"/>
<path d="M75.439 135.005C75.299 134.906 75.1343 134.824 74.9531 134.766C74.9037 134.708 74.8543 134.643 74.7884 134.585C74.3354 134.198 73.627 134.198 73.0669 134.28C72.0456 134.437 70.4395 135.409 71.2466 136.628C71.8067 137.476 73.2894 137.591 74.1872 137.377C74.8049 137.229 75.3814 136.883 75.6779 136.306C75.9003 135.853 75.8756 135.318 75.439 135.005Z" fill="#82583D"/>
<path d="M92.4314 136.578C92.2831 136.389 92.0526 136.241 91.7808 136.15C91.756 136.117 91.7231 136.084 91.6902 136.051C91.3278 135.681 90.7265 135.59 90.224 135.598C89.2192 135.623 87.7118 136.059 87.3906 137.163C86.9952 138.514 89.0132 138.67 89.8698 138.703C90.5617 138.728 91.3359 138.679 91.929 138.291C92.4808 137.929 92.8844 137.18 92.4314 136.578Z" fill="#82583D"/>
<path d="M111.343 136.973C110.527 136.38 109.201 136.52 108.452 137.163C108.106 137.459 107.661 138.003 107.999 138.472C108.114 138.637 108.279 138.744 108.452 138.793C108.773 138.95 109.201 138.966 109.522 138.942C110.173 138.884 110.832 138.645 111.277 138.151C111.573 137.838 111.763 137.278 111.343 136.973Z" fill="#82583D"/>
<path d="M126.309 135.433C126.111 135.161 125.732 135.013 125.296 135.013C124.431 135.013 123.377 135.425 123.064 136.306C122.924 136.693 123.006 137.097 123.278 137.41C123.599 137.78 123.978 137.871 124.447 137.929C125.444 138.052 126.844 137.846 127.19 136.726C127.413 135.96 126.943 135.565 126.309 135.433Z" fill="#82583D"/>
<path d="M144.767 136.364C144.594 136.207 144.388 136.076 144.166 135.977C143.886 135.738 143.507 135.573 143.169 135.491C142.181 135.268 140.805 135.491 140.459 136.611C140.179 137.533 141.209 137.986 141.934 138.126C142.889 138.308 144.001 138.25 144.709 137.492C145.022 137.155 145.129 136.702 144.767 136.364Z" fill="#82583D"/>
<path d="M160.54 136.496C159.807 135.845 158.324 135.812 157.468 136.199C157.221 136.314 156.998 136.504 156.867 136.726C156.554 136.973 156.364 137.327 156.463 137.764C156.661 138.604 157.723 138.579 158.399 138.481C159.239 138.365 160.112 138.036 160.631 137.344C160.837 137.072 160.787 136.718 160.54 136.496Z" fill="#82583D"/>
<path d="M174.872 136.125C174.592 135.721 174.155 135.639 173.735 135.738C173.323 135.614 172.845 135.878 172.573 136.183C172.425 136.347 172.227 136.652 172.334 136.891C172.483 137.229 172.68 137.501 173.051 137.608C173.422 137.715 173.892 137.641 174.221 137.452C174.501 137.295 174.732 137.13 174.872 136.834C174.979 136.611 175.02 136.347 174.872 136.125Z" fill="#82583D"/>
<path d="M160.045 6.95055C143.383 -2.76863 127.535 -2.44741 112.257 8.87791C105.848 13.6304 103.163 18.0205 101.154 24.9393C98.3779 34.4773 104.176 42.0549 113.887 43.7764C120.213 44.8965 127.288 42.0385 132.395 38.5709C136.266 35.9434 138.943 32.8382 141.768 29.6259C144.593 26.4136 146.644 23.2014 149.395 20.1374C150.763 18.6136 151.809 17.4193 153.497 16.2003C154.807 15.2613 156.034 14.6024 157.764 13.9764C160.844 12.8727 164.114 12.4938 167.458 13.1115C167.944 13.2021 168.422 13.3339 168.924 13.4739C166.025 10.7394 163.645 9.05088 160.045 6.95055Z" fill="#67AD14"/>
<path d="M161.89 12.0899C159.996 12.3782 157.838 12.9712 156.141 13.4819C154.444 13.9926 153.184 14.4044 151.759 15.1704C150.334 15.9447 149.354 16.6777 148.077 17.7238C146.809 18.7698 145.59 19.9971 144.346 21.2243C143.102 22.4433 141.76 23.7694 140.401 24.9473C139.042 26.1251 137.6 27.2947 136.06 28.2666C134.52 29.2303 132.963 30.0375 131.2 30.6058C129.438 31.1741 127.56 31.4871 125.682 31.4377C123.812 31.3883 122.157 30.8282 120.938 29.4033C120.369 28.7361 120.122 27.9042 119.999 27.097C119.826 25.9686 119.834 24.8731 120.139 23.7941C120.822 21.4138 122.272 19.6594 124.035 17.9873C124.932 17.139 125.921 16.4306 126.893 15.7223C127.865 15.0057 128.787 14.3879 129.817 13.7784C131.818 12.5924 133.844 11.571 136.035 10.698C138.218 9.82488 140.491 8.92707 142.781 8.25991C145.071 7.59275 147.311 7.40331 149.716 7.69983C152.113 7.99635 154.403 8.82 156.849 9.1577C159.295 9.50363 161.841 9.94018 164.237 10.6073C165.102 10.8462 165.934 11.1839 166.766 11.4804C166.519 11.2663 165.992 10.8215 165.811 10.6732C165.687 10.5744 165.778 10.6485 165.769 10.6485C161.874 8.96825 157.698 8.39171 153.736 7.09033C149.782 5.78895 145.837 5.28651 141.916 6.29138C137.65 7.37861 133.729 8.61408 129.866 10.2367C126.011 11.8593 122.816 13.8937 119.48 16.2082C117.725 17.4272 116.169 18.7534 114.628 20.17C113.088 21.5867 111.663 23.1929 110.321 24.7249C108.978 26.2569 107.833 27.7477 106.606 29.3127C106.186 29.8563 105.758 30.474 105.23 30.8364C104.712 31.1988 104.415 31.3718 103.773 31.1577C103.122 30.9435 102.578 30.1363 102.274 29.5103C101.961 28.8761 101.738 28.2172 101.672 27.5418C101.524 25.9768 101.788 24.4778 102.232 23.0034C102.677 21.5291 103.311 20.1536 103.937 18.8028C104.572 17.452 105.263 16.2824 105.988 14.9892C104.011 18.3003 101.771 20.9031 100.972 24.9308C99.0694 34.5841 103.822 42.0217 113.871 43.7844C120.41 44.9375 127.197 42.03 132.403 38.5788C136.34 35.9596 138.935 32.8379 141.784 29.6339C144.634 26.4299 146.652 23.2093 149.412 20.1453C150.779 18.6215 151.825 17.4272 153.513 16.2082C154.823 15.2692 156.05 14.6103 157.78 13.9844C160.86 12.8807 164.139 12.5018 167.474 13.1195C167.96 13.2101 168.455 13.3501 168.924 13.4737C168.479 13.0454 168.043 12.6336 167.581 12.2135C165.671 11.8676 163.784 11.8016 161.89 12.0899Z" fill="#409100"/>
<path d="M140.047 2.68395C139.841 1.84382 138.926 1.45669 138.07 1.31667C135.451 0.888367 133.251 1.17665 130.542 1.78616C129.43 2.03326 127.123 2.4039 126.539 3.73823C126.407 4.03475 126.242 4.21596 126.25 4.51247C126.283 5.97035 127.774 6.4316 128.977 6.57162C130.83 6.77754 132.699 6.59632 134.429 6.25038C136.159 5.91268 137.617 5.56675 139.042 4.62777C139.709 4.19123 140.253 3.52408 140.047 2.68395Z" fill="#92C10B"/>
<path d="M121.104 7.37868C121.079 7.34572 121.137 7.35398 121.063 7.23862C120.989 7.13151 120.75 7.09855 120.577 7.09032C119.95 7.0656 119.489 7.14799 119.044 7.6506C118.97 7.733 119.028 7.72476 118.904 7.91427C118.78 8.10378 118.822 8.53225 119.176 8.63936C119.53 8.74648 119.852 8.75471 120.189 8.66408C120.519 8.57344 120.717 8.46632 120.997 8.24385C121.261 8.02962 121.351 7.70002 121.104 7.37868Z" fill="#92C10B"/>
<path d="M167.969 46.9064C151.702 44.0895 132.873 47.8042 120.971 59.8379C115.971 64.8869 112.067 71.4268 110.164 78.2961C107.537 87.7682 111.886 97.8662 122.643 98.4016C129.644 98.7476 136.612 94.9423 141.801 90.5357C145.73 87.1999 149.173 83.3286 152.245 79.2021C155.293 75.1003 158.003 70.7596 160.647 66.3942C161.964 64.228 163.241 62.037 164.592 59.8873C165.638 58.2317 166.824 56.6503 168.191 55.2501C170.621 52.7379 173.619 50.8682 176.963 49.8387C177.449 49.6904 177.943 49.5586 178.438 49.4433C175.036 48.2819 171.486 47.5159 167.969 46.9064Z" fill="#67AD14"/>
<path d="M171.403 51.527C169.649 52.6966 168.01 54.0392 166.478 55.4888C165.086 56.7984 163.776 58.1822 162.533 59.6318C161.273 61.1062 160.086 62.6464 158.9 64.1784C157.591 65.8752 156.289 67.5802 154.939 69.2522C153.555 70.9736 152.122 72.6621 150.598 74.2683C149.115 75.8332 147.542 77.3241 145.837 78.6501C144.198 79.9268 142.444 81.047 140.549 81.8953C138.68 82.7355 136.67 83.3285 134.627 83.4932C132.823 83.6415 130.83 83.2956 129.726 81.7224C129.216 80.9893 128.969 80.108 128.878 79.2267C128.754 77.9994 128.862 76.7145 129.166 75.5285C129.842 72.8928 131.473 70.6195 133.276 68.6344C134.199 67.6213 135.179 66.6741 136.176 65.7434C137.123 64.8621 138.095 63.989 139.091 63.1653C141.035 61.5674 143.086 60.0931 145.219 58.7505C147.328 57.4327 149.511 56.2383 151.759 55.1841C153.975 54.1463 156.256 53.232 158.571 52.433C160.91 51.6341 163.29 50.9587 165.687 50.3821C168.101 49.8056 170.547 49.3443 173.001 48.9654C173.891 48.8254 174.781 48.7101 175.67 48.5948C175.258 48.4795 174.838 48.3642 174.426 48.2571H174.418C170.3 48.3559 166.181 48.8748 162.146 49.6985C158.2 50.5057 154.329 51.6423 150.598 53.1579C146.545 54.8052 142.658 56.8561 138.976 59.2282C135.311 61.5839 131.876 64.2608 128.647 67.1765C126.942 68.7086 125.303 70.2735 123.771 71.9785C122.223 73.7164 120.773 75.5367 119.389 77.4147C118.08 79.1938 116.803 80.9976 115.609 82.8508C115.197 83.4932 114.777 84.1687 114.217 84.6958C113.846 85.05 113.344 85.3465 112.817 85.1735C112.092 84.9347 111.655 84.0534 111.367 83.4109C111.062 82.7273 110.898 82.0024 110.832 81.2611C110.683 79.5397 111.029 77.7853 111.499 76.138C111.96 74.4989 112.578 72.901 113.237 71.3278C113.854 69.8452 114.513 68.4038 115.263 66.9871C113.014 70.5041 111.252 74.3424 110.156 78.296C107.529 87.768 111.878 97.8661 122.635 98.4015C129.636 98.7474 136.604 94.9421 141.793 90.5355C145.722 87.1997 149.165 83.3285 152.237 79.202C155.285 75.1002 157.994 70.7595 160.638 66.3941C161.956 64.2279 163.233 62.0369 164.584 59.8872C165.63 58.2316 166.816 56.6502 168.183 55.25C170.613 52.7378 173.611 50.8681 176.955 49.8385C177.441 49.6903 177.935 49.5585 178.429 49.4432C177.861 49.2455 177.284 49.0643 176.708 48.8913C174.822 49.4926 173.051 50.4398 171.403 51.527Z" fill="#409100"/>
<path d="M148.514 49.6078C148.242 48.7594 147.262 48.4794 146.471 48.3805C144.066 48.084 141.48 48.9406 139.306 49.8713C138.408 50.2502 135.583 51.2716 135.401 52.6224C135.261 52.8859 135.171 53.1824 135.154 53.4954C135.064 55.0274 136.802 55.4063 137.996 55.3734C139.841 55.324 141.686 54.7968 143.407 54.1626C144.906 53.6025 146.62 52.9106 147.781 51.7657C148.316 51.2221 148.769 50.382 148.514 49.6078Z" fill="#92C10B"/>
<path d="M130.147 57.301C130.147 57.2598 130.139 57.2186 130.114 57.1691C130.015 56.9961 129.776 56.9961 129.603 57.0538C129.002 56.9632 128.425 57.3092 128.095 57.8036C128.038 57.886 128.005 57.9849 127.98 58.0837C127.749 58.3804 127.873 58.7594 128.244 58.8912C128.549 59.0066 128.969 58.9159 129.257 58.8088C129.562 58.6934 129.809 58.4957 130.04 58.2732C130.361 57.9766 130.402 57.5646 130.147 57.301Z" fill="#92C10B"/>
<path d="M145.359 56.6584C138.177 61.5592 131.645 67.259 126.151 73.8071C115.197 87.0021 108.731 103.409 103.303 119.512C100.717 127.724 98.7648 136.142 97.2163 144.708C97.5293 127.205 102.405 109.974 109.777 94.1432C116.877 78.1066 129.364 64.0631 145.359 56.6584Z" fill="#405621"/>
<path d="M141.11 7.71655C120.567 14.5941 112.726 27.435 107.768 47.5817C104.737 59.4836 103.304 71.7479 102.257 83.9957C100.709 102.495 99.7536 121.052 97.7686 139.535C97.8674 114.71 97.8097 89.8272 101.022 65.1668C102.842 52.8366 105.684 40.4735 111.433 29.1647C117.281 17.864 128.821 10.1134 141.11 7.71655Z" fill="#405621"/>
<path d="M44.4611 10.6242C54.6333 8.9604 66.3705 11.382 73.734 18.9679C76.8228 22.1472 79.2278 26.2573 80.3809 30.5568C81.9706 36.4871 79.1949 42.7634 72.4738 43.0434C68.1002 43.2247 63.7678 40.8031 60.5555 38.0274C58.1174 35.9188 55.9924 33.489 54.098 30.8862C52.2201 28.3082 50.5563 25.5819 48.9254 22.8391C48.1182 21.48 47.3357 20.1045 46.5038 18.7537C45.8613 17.7159 45.1283 16.7193 44.28 15.838C42.7727 14.2565 40.9194 13.0705 38.8356 12.4115C38.5308 12.3127 38.2261 12.2303 37.9131 12.1562C40.0464 11.4396 42.262 10.9866 44.4611 10.6242Z" fill="#67AD14"/>
<path d="M42.2946 13.4905C43.3819 14.2318 44.395 15.0802 45.3505 15.9944C46.2153 16.8181 47.0225 17.6911 47.7967 18.6054C48.5792 19.5279 49.304 20.4998 50.0371 21.4635C50.8443 22.5343 51.6514 23.605 52.4833 24.6511C53.3399 25.7383 54.2212 26.8008 55.1602 27.8057C56.0745 28.7941 57.0547 29.7331 58.109 30.565C59.1221 31.3721 60.2175 32.0805 61.3954 32.6241C62.5567 33.1595 63.8087 33.5384 65.0853 33.6537C66.2055 33.7525 67.4575 33.5548 68.1576 32.5747C68.4788 32.1217 68.6353 31.5698 68.7012 31.018C68.7836 30.252 68.7259 29.453 68.5447 28.7035C68.1411 27.0562 67.128 25.623 66.0161 24.3793C65.4478 23.7451 64.8382 23.1438 64.2205 22.559C63.6357 21.9989 63.0344 21.4553 62.4085 20.9364C61.2059 19.9233 59.9292 18.9925 58.6114 18.1442C57.3018 17.304 55.9427 16.5545 54.5507 15.8791C53.1752 15.2202 51.7585 14.6354 50.3171 14.1247C48.8592 13.614 47.3766 13.1775 45.8858 12.8069C44.3785 12.4362 42.8548 12.1315 41.3228 11.8761C40.7709 11.7855 40.2108 11.7031 39.659 11.629C39.9143 11.5631 40.1778 11.489 40.4414 11.4231C40.4414 11.4231 40.4414 11.4231 40.4497 11.4231C43.0195 11.5137 45.5893 11.8597 48.1015 12.395C50.5642 12.9222 52.9693 13.647 55.292 14.6189C57.8124 15.6732 60.234 16.9746 62.5155 18.4736C64.7888 19.9644 66.9221 21.653 68.9236 23.4979C69.9779 24.4616 70.9992 25.45 71.9382 26.529C72.8936 27.6245 73.7914 28.7694 74.6398 29.9472C75.447 31.0592 76.2295 32.1958 76.9708 33.3654C77.2261 33.769 77.4814 34.1891 77.8273 34.5268C78.058 34.7492 78.3628 34.9386 78.7005 34.8315C79.1535 34.6833 79.4335 34.1396 79.6147 33.7443C79.8124 33.3242 79.9195 32.863 79.9607 32.4017C80.0595 31.3227 79.8535 30.2355 79.5735 29.1977C79.2934 28.1681 78.9146 27.1715 78.5193 26.1831C78.1404 25.2524 77.7368 24.3463 77.2838 23.465C78.6675 25.6724 79.7465 28.0857 80.4136 30.5567C82.0033 36.4871 79.2276 42.7634 72.5065 43.0434C68.1329 43.2246 63.8005 40.803 60.5882 38.0273C58.1502 35.9187 56.025 33.4889 54.1306 30.8862C52.2527 28.3081 50.589 25.5818 48.9581 22.839C48.1509 21.48 47.3684 20.1045 46.5365 18.7537C45.8941 17.7159 45.161 16.7192 44.3127 15.8379C42.8054 14.2565 40.9522 13.0704 38.8683 12.4115C38.5635 12.3127 38.2588 12.2303 37.9458 12.1562C38.3 12.0409 38.6623 11.9255 39.0247 11.8185C40.1696 12.1973 41.2651 12.7986 42.2946 13.4905Z" fill="#409100"/>
<path d="M56.5933 12.4199C56.7663 11.8927 57.3841 11.7198 57.8783 11.6621C59.3773 11.4891 60.9917 12.041 62.3425 12.634C62.8944 12.8811 64.657 13.5318 64.7641 14.372C64.8464 14.5367 64.9041 14.7179 64.9124 14.9238C64.9618 15.8792 63.8745 16.1099 63.125 16.0769C61.9719 16.0358 60.827 15.698 59.7562 15.2862C58.8255 14.9238 57.7547 14.4873 57.0381 13.7624C56.7087 13.4247 56.4368 12.8976 56.5933 12.4199Z" fill="#92C10B"/>
<path d="M68.0263 17.3291C68.0263 17.3044 68.0346 17.2714 68.0511 17.2467C68.117 17.1396 68.2653 17.1396 68.3724 17.1808C68.7514 17.1313 69.1058 17.3456 69.3117 17.6587C69.3447 17.7163 69.3694 17.774 69.3776 17.8317C69.5177 18.0212 69.4436 18.2519 69.2046 18.3343C69.0151 18.4002 68.7514 18.3508 68.5702 18.2766C68.3807 18.2025 68.2241 18.0789 68.0841 17.9388C67.8863 17.7493 67.8615 17.4856 68.0263 17.3291Z" fill="#92C10B"/>
<path d="M61.6919 19.042C69.0966 23.2591 75.0105 29.659 79.6395 36.726L79.7959 37.2614C79.8042 37.179 79.8041 37.0801 79.7794 36.9895C79.7712 36.9154 79.6806 36.7754 79.7136 36.833L79.7794 36.9319L79.9195 37.1378C82.6952 41.3714 85.2238 45.778 87.423 50.3576C93.8887 64.7469 95.8984 80.6435 97.5869 96.1283C99.6049 116.81 99.9344 137.55 99.8767 158.306C97.1916 132.592 96.2856 106.704 92.4144 81.1377C90.8413 71.0561 88.9056 60.8922 84.9685 51.4695C82.9835 46.857 80.5867 42.3598 78.091 37.9944C77.9839 37.8379 77.8191 37.5085 77.8191 37.2614L77.9757 37.7967C75.8341 34.2385 73.5444 30.738 70.8757 27.5586C68.1329 24.4123 65.0442 21.5377 61.6919 19.042Z" fill="#405621"/>
<path d="M81.6493 78.0408C80.2244 75.7922 78.5689 73.6918 76.7568 71.7398C75.0189 70.1254 73.1657 68.6428 71.2054 67.3002C67.4577 65.167 63.4794 63.3796 59.3034 62.2594C57.0878 61.6664 54.8393 61.3287 52.566 61.0734C50.3009 60.8263 48.0276 60.678 45.7543 60.6615C41.2241 60.6204 36.6693 61.0651 32.271 62.1606C29.5117 62.8525 26.8184 63.7997 24.2485 65.0105C27.5926 64.9446 30.566 67.0531 32.864 69.3347C35.6562 72.1022 37.8636 75.4215 40.2687 78.5267C42.8797 81.9037 45.6225 85.1984 48.7277 88.1306C51.8411 91.0711 55.3581 93.6821 59.2376 95.5271C62.2522 96.952 65.4809 97.9898 68.7673 98.5581C72.136 99.1347 75.752 99.2335 79.0137 98.0557C80.5621 97.4956 81.9953 96.6225 83.1484 95.4447C84.6146 93.9539 85.5041 92.01 85.6853 89.9262C86.0477 85.6596 83.865 81.5331 81.6493 78.0408Z" fill="#67AD14"/>
<path d="M81.6493 78.0406C80.2244 75.792 78.5689 73.6917 76.7569 71.7396C75.0189 70.1252 73.1657 68.6426 71.2054 67.3001C67.4577 65.1668 63.4794 63.3795 59.3034 62.2593C57.0878 61.6662 54.8393 61.3285 52.566 61.0732C50.3009 60.8261 48.0276 60.6779 45.7543 60.6614C45.7378 60.6614 45.7213 60.6614 45.7048 60.6614C47.2286 60.8508 48.7359 61.1226 50.2185 61.5015C52.953 62.2016 55.564 63.2559 58.035 64.6232C60.3577 65.9163 62.5816 67.4154 64.7313 68.9803C66.4775 70.2488 68.5284 71.5996 69.2944 73.7329C69.3192 73.7988 69.2533 73.8811 69.1874 73.8729C68.2484 73.7988 67.3589 73.3458 66.5352 72.9092C65.6621 72.4397 64.8302 71.8961 63.9242 71.4843C61.8321 70.5206 59.6906 69.6475 57.4914 68.9392C55.6217 68.3379 53.7026 67.8684 51.7917 67.3907C49.8725 66.913 47.937 66.4682 45.9767 66.1964C44.3047 65.9657 42.5749 65.834 40.8947 66.0481C41.6771 66.254 42.4761 66.4188 43.2668 66.5753C45.2848 66.9624 47.3521 67.2507 49.2877 67.959C51.1904 68.6509 53.0354 69.4745 54.8228 70.4217C57.582 71.8796 60.2178 73.6011 62.6476 75.5779C64.6243 77.184 66.5105 78.9631 68.0672 80.9893C69.418 82.7519 70.7688 85.0088 70.5134 87.3315C70.3899 88.4352 69.8793 89.4236 69.1215 90.2225C68.1249 91.2686 66.84 91.8451 65.415 92.0181C63.8171 92.2158 62.1863 91.944 60.646 91.5157C59.147 91.1039 57.6973 90.5191 56.2971 89.8354C52.9283 88.2046 49.9303 85.956 47.2204 83.3944C45.812 82.0601 44.4776 80.6434 43.1927 79.1855C41.9984 77.8347 40.8947 76.418 39.7663 75.0178C37.5424 72.2503 35.1538 69.4498 32.0321 67.6707C31.0519 67.1106 30.0141 66.6412 28.9434 66.287C30.393 67.0942 31.7109 68.1896 32.864 69.3263C35.6562 72.0938 37.8636 75.4131 40.2687 78.5183C42.8797 81.8953 45.6225 85.19 48.7277 88.1222C51.8411 91.0627 55.3582 93.6737 59.2376 95.5187C62.2522 96.9436 65.4809 97.9814 68.7673 98.5497C72.1361 99.1263 75.752 99.2251 79.0137 98.0473C80.5621 97.4872 81.9953 96.6141 83.1485 95.4363C84.6146 93.9455 85.5041 92.0016 85.6853 89.9178C86.0477 85.6595 83.865 81.5329 81.6493 78.0406Z" fill="#409100"/>
<path d="M48.2911 74.2434C47.6816 73.288 46.8909 72.4561 46.0755 71.6736C45.1365 70.7676 44.0987 69.8698 42.8797 69.3756C41.5948 68.8567 40.178 69.2685 39.5191 70.537C38.9343 71.6571 39.3956 72.7526 40.0463 73.7328C41.1829 75.4295 43.5715 77.8922 45.8942 78.0405C46.3472 78.164 46.8085 78.2135 47.2533 78.1229C48.0275 77.9581 48.7029 77.3074 48.9006 76.5414C49.0983 75.7178 48.7194 74.9106 48.2911 74.2434Z" fill="#92C10B"/>
<path d="M52.3279 80.8661C52.2949 80.726 52.196 80.586 52.0807 80.5036C51.9983 80.4459 51.9159 80.4211 51.8253 80.4047H51.8335C51.8088 80.3964 51.784 80.3964 51.7593 80.3882C51.6852 80.38 51.6111 80.3635 51.5452 80.3552C51.471 80.3635 51.3886 80.3717 51.3145 80.3799C51.1085 80.3387 50.8695 80.4129 50.713 80.5283C50.6141 80.6024 50.5234 80.693 50.4575 80.7919C50.3916 80.8908 50.3339 81.0721 50.3586 81.1957C50.3092 81.3275 50.2927 81.4676 50.3339 81.5994C50.3751 81.7395 50.4328 81.8548 50.5399 81.9537C50.5646 81.9949 50.5893 82.0196 50.6305 82.0361C50.7211 82.102 50.8283 82.135 50.9436 82.1432C50.9848 82.1515 51.0178 82.1515 51.059 82.1515C51.1743 82.1762 51.2897 82.1762 51.4051 82.1515C51.5699 82.1103 51.7181 82.0443 51.8582 81.9537C52.0724 81.8136 52.196 81.6159 52.2949 81.4017C52.3526 81.2451 52.3691 81.0309 52.3279 80.8661Z" fill="#92C10B"/>
<path d="M56.9482 69.73C80.159 75.891 93.5187 98.1298 97.3076 120.673C98.5266 128.177 98.6748 135.82 97.6864 143.283C97.2993 135.771 96.4345 128.375 94.7872 121.168C89.4664 99.044 78.2975 79.5645 56.9482 69.73Z" fill="#405621"/>
<path d="M75.2326 173.215C75.2326 173.215 73.3218 174.722 70.7108 176.6C68.0998 178.486 63.7014 182.621 61.98 188.584C63.512 182.563 63.825 181.369 67.3915 178.288C70.9579 175.216 76.2458 170.884 76.2458 170.884L75.2326 173.215Z" fill="#EBD9B3"/>
<path d="M61.9802 188.823C61.9638 188.823 61.9391 188.823 61.9226 188.815C61.7991 188.782 61.7249 188.658 61.7578 188.535C63.2898 182.514 63.6028 181.262 67.2434 178.124C70.7687 175.084 76.0484 170.76 76.106 170.711C76.1884 170.645 76.3037 170.637 76.3943 170.702C76.4766 170.768 76.5096 170.884 76.4684 170.983L75.447 173.305C75.4306 173.338 75.4059 173.371 75.3812 173.396C75.3647 173.412 73.4374 174.928 70.8511 176.789C69.3026 177.901 64.1135 182.053 62.2109 188.65C62.1779 188.757 62.0873 188.823 61.9802 188.823ZM75.653 171.683C74.0633 172.992 70.2827 176.114 67.5482 178.47C64.9207 180.735 64.0723 181.995 63.1992 184.927C65.5961 180.273 69.3026 177.333 70.5793 176.41C72.935 174.714 74.747 173.305 75.0517 173.066L75.653 171.683Z" fill="#BD7A43"/>
<path d="M66.7 178.799C66.7 178.799 59.0565 181.501 54.2134 188.403C54.6582 185.322 58.2246 182.316 60.9015 180.99C63.5784 179.672 66.7 178.799 66.7 178.799Z" fill="#EBD9B3"/>
<path d="M54.2135 188.633C54.1888 188.633 54.1557 188.625 54.131 188.617C54.0322 188.576 53.9746 188.477 53.9911 188.37C54.477 185.034 58.3318 182.011 60.811 180.784C63.4714 179.474 66.6178 178.585 66.6507 178.577C66.7743 178.544 66.8978 178.61 66.9307 178.733C66.9719 178.848 66.906 178.98 66.7907 179.021C66.7165 179.046 59.1554 181.781 54.4112 188.535C54.3535 188.6 54.2876 188.633 54.2135 188.633ZM63.0431 180.306C62.3759 180.57 61.6758 180.875 61.0087 181.204C58.5295 182.431 55.7454 184.845 54.7653 187.274C57.3763 183.947 60.6133 181.682 63.0431 180.306Z" fill="#BD7A43"/>
<path d="M59.625 181.682C59.625 181.682 52.7474 182.184 48.2173 185.133C50.26 181.937 56.7586 180.743 59.625 181.682Z" fill="#EBD9B3"/>
<path d="M48.225 185.364C48.1674 185.364 48.1097 185.339 48.0602 185.298C47.9861 185.224 47.9697 185.1 48.0274 185.009C50.1359 181.698 56.7004 180.479 59.6986 181.459C59.8056 181.492 59.8716 181.599 59.8551 181.707C59.8386 181.814 59.7563 181.904 59.641 181.912C59.5751 181.921 52.7634 182.448 48.3486 185.322C48.3074 185.355 48.2662 185.364 48.225 185.364ZM57.2606 181.599C54.6249 181.599 51.1985 182.497 49.2793 184.243C52.3351 182.637 56.0415 181.921 58.076 181.632C57.8206 181.608 57.5488 181.599 57.2606 181.599Z" fill="#BD7A43"/>
<path d="M88.1232 161.14C88.1232 161.14 85.3722 165.909 87.9008 173.281C90.4294 180.652 94.9431 185.421 93.1805 192.793C93.1805 187.481 91.4179 183.469 89.3258 179.788C87.2337 176.098 87.0113 174.582 87.0113 174.582C87.0113 174.582 84.5897 179.68 83.8237 184.227C83.4943 180.43 85.471 175.875 85.471 175.875C85.471 175.875 77.5474 185.092 75.9001 191.591C74.9117 188.123 79.6395 180.422 85.1416 175.002C86.8054 173.281 84.2767 163.636 88.1232 161.14Z" fill="#EBD9B3"/>
<path d="M93.1885 193.032C93.1802 193.032 93.172 193.032 93.1637 193.032C93.0484 193.016 92.9578 192.917 92.9578 192.802C92.9578 187.39 91.1211 183.412 89.136 179.903C87.7935 177.531 87.2087 176.048 86.9698 175.274C86.3191 176.74 84.6719 180.702 84.0706 184.268C84.0541 184.384 83.947 184.474 83.8317 184.458C83.7164 184.45 83.6175 184.359 83.6093 184.244C83.3869 181.649 84.2024 178.758 84.7707 177.111C82.6539 179.738 77.4319 186.575 76.1388 191.648C76.114 191.747 76.0234 191.821 75.9164 191.821C75.8093 191.821 75.7187 191.756 75.6939 191.657C74.6397 187.967 79.7052 180.06 85.0013 174.846C85.5861 174.228 85.5861 172.259 85.5779 170.167C85.5779 166.757 85.5696 162.516 88.0076 160.942C88.0982 160.885 88.2136 160.893 88.296 160.967C88.3701 161.041 88.3865 161.157 88.3371 161.255C88.3124 161.305 85.6684 166.033 88.1312 173.207C88.889 175.406 89.8115 177.366 90.7092 179.252C92.8343 183.733 94.6711 187.604 93.4191 192.851C93.3862 192.958 93.2955 193.032 93.1885 193.032ZM87.0193 174.352C87.0275 174.352 87.044 174.352 87.0522 174.352C87.1511 174.368 87.2334 174.442 87.2499 174.549C87.2499 174.566 87.497 176.089 89.5315 179.672C91.2612 182.728 92.8837 186.146 93.3038 190.545C93.625 186.509 92.0518 183.198 90.2727 179.45C89.3667 177.547 88.436 175.579 87.67 173.355C85.792 167.894 86.7639 163.875 87.4393 162.071C86.0144 163.891 86.0227 167.326 86.0227 170.167C86.0227 172.54 86.0227 174.417 85.3061 175.167C80.5783 179.829 76.0811 186.657 75.9905 190.446C78.1567 184.071 85.2155 175.809 85.2896 175.719C85.3637 175.628 85.4873 175.612 85.5861 175.669C85.6849 175.727 85.7179 175.851 85.6767 175.958C85.6602 175.991 84.4412 178.832 84.0952 181.847C85.1001 178.05 86.7721 174.508 86.7886 174.467C86.8545 174.401 86.9369 174.352 87.0193 174.352Z" fill="#BD7A43"/>
<path d="M91.0556 183.181C91.0556 183.181 86.3113 188.271 86.6243 197.406C85.257 192.835 87.0443 185.57 90.3142 181.625L91.0556 183.181Z" fill="#EBD9B3"/>
<path d="M86.6245 197.636C86.5257 197.636 86.435 197.57 86.4021 197.472C85.0348 192.9 86.7398 185.578 90.1333 181.468C90.1827 181.41 90.2568 181.377 90.3392 181.386C90.4216 181.394 90.4874 181.443 90.5204 181.517L91.2617 183.074C91.3029 183.156 91.2864 183.263 91.2205 183.329C91.1711 183.379 86.5422 188.461 86.8551 197.389C86.8634 197.505 86.7727 197.603 86.6574 197.628C86.6491 197.636 86.641 197.636 86.6245 197.636ZM90.265 182.053C87.6375 185.421 86.1138 190.775 86.4268 194.976C86.8716 188.065 90.1415 183.889 90.7757 183.14L90.265 182.053Z" fill="#BD7A43"/>
<path d="M100.429 177.457C100.429 177.457 96.9281 187.596 99.0202 195.833C96.5986 189.655 97.587 181.303 99.3497 175.233C100.346 176.864 100.429 177.457 100.429 177.457Z" fill="#EBD9B3"/>
<path d="M99.0201 196.063C98.9295 196.063 98.8389 196.005 98.806 195.915C95.7666 188.164 98.2871 178.074 99.1272 175.167C99.1519 175.076 99.2261 175.01 99.3167 175.002C99.4073 174.994 99.4978 175.035 99.5473 175.109C100.536 176.732 100.651 177.349 100.659 177.415C100.667 177.448 100.659 177.489 100.651 177.522C100.618 177.621 97.1998 187.686 99.2508 195.766C99.2837 195.882 99.2096 196.005 99.0943 196.047C99.0696 196.063 99.0448 196.063 99.0201 196.063ZM99.4237 175.817C98.6495 178.643 97.0845 185.537 98.1882 191.92C97.7352 185.075 99.9426 178.181 100.19 177.448C100.149 177.3 99.992 176.806 99.4237 175.817Z" fill="#BD7A43"/>
<path d="M106.22 187.901C106.22 187.901 110.766 192.216 112.455 201.005C112.117 194.696 110.437 189.721 105.635 185.66C106.302 187.316 106.22 187.901 106.22 187.901Z" fill="#EBD9B3"/>
<path d="M112.454 201.235C112.347 201.235 112.248 201.161 112.224 201.046C110.576 192.422 106.104 188.106 106.063 188.065C106.005 188.016 105.98 187.941 105.989 187.867C105.989 187.851 106.038 187.274 105.412 185.742C105.371 185.643 105.404 185.528 105.494 185.471C105.577 185.405 105.7 185.413 105.783 185.479C110.239 189.251 112.306 193.897 112.685 200.988C112.693 201.112 112.603 201.219 112.479 201.227C112.471 201.235 112.463 201.235 112.454 201.235ZM106.458 187.801C106.977 188.337 110.066 191.673 111.911 197.784C111.186 192.925 109.382 189.391 106.17 186.434C106.409 187.184 106.45 187.612 106.458 187.801Z" fill="#BD7A43"/>
<path d="M76.7652 160.514C76.7652 160.514 76.0979 160.333 73.7176 163.636C71.3372 166.938 67.1365 171.378 63.7266 171.378C68.6603 168.199 70.7936 165.975 72.1938 163.216C73.594 160.456 74.9943 159.731 74.9943 159.731L76.7652 160.514Z" fill="#EBD9B3"/>
<path d="M63.7268 171.608C63.628 171.608 63.5374 171.543 63.5044 171.444C63.4715 171.345 63.5127 171.238 63.6033 171.18C68.2487 168.182 70.5221 165.999 71.9882 163.108C73.4049 160.316 74.8298 159.558 74.8875 159.525C74.9534 159.492 75.0192 159.492 75.0851 159.517L76.8478 160.3C76.9549 160.349 77.0125 160.473 76.9713 160.588C76.9384 160.687 76.8395 160.761 76.7325 160.744C76.6583 160.753 75.9417 160.934 73.899 163.767C72.9683 165.077 68.0428 171.608 63.7268 171.608ZM75.0193 159.995C74.6981 160.209 73.5531 161.074 72.4082 163.322C70.9915 166.115 68.8583 168.256 64.6823 171.04C67.6887 170.356 71.2469 166.691 73.5367 163.504C74.8627 161.667 75.6864 160.86 76.1888 160.514L75.0193 159.995Z" fill="#BD7A43"/>
<path d="M71.0981 166.88C71.0981 166.88 69.5743 172.284 66.8315 174.508C69.8214 173.066 71.7076 168.989 72.1936 165.447C71.65 166.337 71.0981 166.88 71.0981 166.88Z" fill="#EBD9B3"/>
<path d="M66.8321 174.73C66.758 174.73 66.6838 174.689 66.6344 174.623C66.5685 174.524 66.5932 174.392 66.6838 174.318C69.336 172.169 70.8598 166.864 70.868 166.815C70.8763 166.774 70.9009 166.741 70.9256 166.716C70.9339 166.708 71.4611 166.181 71.9882 165.316C72.0459 165.225 72.1611 165.184 72.26 165.217C72.367 165.25 72.4247 165.357 72.4083 165.464C71.9223 168.981 70.0361 173.198 66.9144 174.705C66.9062 174.722 66.865 174.73 66.8321 174.73ZM71.3046 166.996C71.1646 167.49 70.2009 170.653 68.4959 173.017C70.1679 171.361 71.2881 168.816 71.7823 166.436C71.5681 166.724 71.387 166.914 71.3046 166.996Z" fill="#BD7A43"/>
<path d="M64.7645 159.105C64.7645 159.105 63.1172 165.695 57.6645 168.297C52.2201 170.9 51.1411 173.742 51.1411 173.742C51.1411 173.742 54.2793 170.818 56.7503 169.673C59.2295 168.536 63.6855 166.905 65.827 159.023L64.7645 159.105Z" fill="#EBD9B3"/>
<path d="M51.1493 173.981C51.1082 173.981 51.0588 173.964 51.0176 173.939C50.927 173.882 50.8941 173.766 50.927 173.668C50.9682 173.544 52.0966 170.702 57.5657 168.091C62.8453 165.571 64.5256 159.122 64.5421 159.056C64.5668 158.957 64.6491 158.891 64.748 158.883L65.8188 158.801C65.8929 158.784 65.967 158.825 66.0164 158.883C66.0659 158.941 66.0824 159.015 66.0577 159.089C63.9985 166.666 59.7731 168.569 57.2527 169.706L56.8491 169.887C54.4358 170.999 51.3306 173.882 51.2976 173.915C51.2565 173.956 51.1988 173.981 51.1493 173.981ZM64.9456 159.328C64.6409 160.374 62.7712 166.115 57.7634 168.503C54.8229 169.903 53.1756 171.386 52.2942 172.432C53.4391 171.477 55.1606 170.159 56.6597 169.467L57.0715 169.286C59.4848 168.198 63.4961 166.386 65.5305 159.286L64.9456 159.328Z" fill="#BD7A43"/>
<path d="M60.8023 167.161C60.8023 167.161 61.0493 170.002 58.6525 172.523C56.1732 175.29 56.1733 176.509 56.1733 176.509C56.1733 176.509 61.5353 172.366 61.9553 166.263L60.8023 167.161Z" fill="#EBD9B3"/>
<path d="M56.1812 176.74C56.1483 176.74 56.1153 176.732 56.0824 176.715C56 176.674 55.9507 176.592 55.9507 176.509C55.9507 176.46 55.9836 175.167 58.4875 172.366C60.7773 169.953 60.5796 167.202 60.5714 167.177C60.5632 167.095 60.5961 167.021 60.662 166.971L61.8151 166.082C61.8893 166.024 61.988 166.016 62.0622 166.057C62.1445 166.098 62.194 166.189 62.1857 166.279C61.7739 172.407 56.3707 176.649 56.3213 176.69C56.2801 176.723 56.2307 176.74 56.1812 176.74ZM61.0408 167.268C61.0573 167.869 60.9997 170.389 58.8252 172.687C57.4909 174.178 56.8978 175.208 56.626 175.817C57.9604 174.59 61.1562 171.23 61.6751 166.774L61.0408 167.268Z" fill="#BD7A43"/>
<path d="M64.2702 159.031C64.2702 159.031 57.4997 156.346 52.3848 158.702C55.3582 156.585 61.5439 156.832 65.4234 158.619L64.2702 159.031Z" fill="#EBD9B3"/>
<path d="M64.2705 159.262C64.2375 159.262 64.2128 159.253 64.1881 159.245C64.1222 159.221 57.4505 156.626 52.4839 158.916C52.3768 158.965 52.245 158.924 52.1874 158.817C52.1297 158.71 52.1545 158.578 52.2533 158.512C55.3832 156.288 61.7583 156.675 65.5307 158.413C65.6131 158.454 65.6706 158.537 65.6624 158.636C65.6624 158.726 65.5966 158.809 65.506 158.842L64.3528 159.253C64.3199 159.253 64.2952 159.262 64.2705 159.262ZM57.3106 157.491C60.7123 157.491 63.7186 158.57 64.2705 158.776L64.7894 158.595C62.5243 157.68 59.4932 157.235 56.8246 157.499C56.9893 157.499 57.1541 157.491 57.3106 157.491Z" fill="#BD7A43"/>
<path d="M99.1195 168.989C99.1195 168.989 100.553 171.172 104.531 174.063C108.509 176.954 113.204 178.815 115.552 185.372C114.25 179.524 111.441 177.852 107.859 175.48C104.276 173.107 99.3831 169.697 98.6665 166.806C98.996 168.668 99.1195 168.989 99.1195 168.989Z" fill="#EBD9B3"/>
<path d="M115.56 185.603C115.461 185.603 115.379 185.545 115.346 185.446C113.476 180.232 110.074 178.008 106.788 175.859C105.997 175.34 105.182 174.813 104.408 174.244C100.438 171.362 98.9962 169.195 98.9385 169.105C98.9303 169.088 98.922 169.08 98.9138 169.064C98.8973 169.031 98.7656 168.668 98.4443 166.831C98.4196 166.708 98.502 166.593 98.6255 166.568C98.7491 166.535 98.8644 166.617 98.8974 166.741C99.6387 169.739 105.281 173.478 107.991 175.274L108.369 175.521C111.796 177.786 114.506 179.573 115.782 185.306C115.807 185.43 115.741 185.545 115.618 185.578C115.601 185.603 115.576 185.603 115.56 185.603ZM99.3338 168.891C99.4986 169.129 100.998 171.213 104.671 173.882C105.437 174.442 106.244 174.969 107.027 175.48C109.597 177.16 112.232 178.882 114.193 182.011C112.768 179.013 110.643 177.605 108.106 175.925L107.727 175.669C104.342 173.429 100.841 170.9 99.235 168.545C99.2927 168.751 99.3174 168.849 99.3338 168.891Z" fill="#BD7A43"/>
<path d="M102.908 172.267C102.908 172.267 108.707 172.078 112.166 173.618C109.884 172.012 106.952 170.982 102.125 171.238C102.644 171.757 102.71 172.201 102.908 172.267Z" fill="#EBD9B3"/>
<path d="M112.166 173.849C112.133 173.849 112.1 173.84 112.075 173.832C108.706 172.333 102.974 172.498 102.916 172.506C102.891 172.506 102.866 172.506 102.833 172.498C102.66 172.44 102.57 172.292 102.463 172.094C102.356 171.905 102.224 171.674 101.96 171.411C101.895 171.345 101.87 171.246 101.903 171.164C101.936 171.081 102.018 171.024 102.109 171.015C106.449 170.785 109.596 171.526 112.297 173.437C112.396 173.503 112.421 173.635 112.363 173.742C112.322 173.808 112.248 173.849 112.166 173.849ZM103.583 172.028C104.851 172.028 107.644 172.103 110.131 172.704C108.047 171.732 105.634 171.337 102.603 171.444C102.718 171.6 102.801 171.74 102.858 171.847C102.891 171.913 102.941 171.987 102.965 172.028C103.081 172.028 103.295 172.028 103.583 172.028Z" fill="#BD7A43"/>
<path d="M107.257 160.794C107.257 160.794 114.176 166.444 116.729 170.604C119.291 174.755 125.716 180.685 128.763 180.414C124.546 177.893 121.087 174.969 119.291 171.831C117.496 168.693 114.728 164.196 112.1 162.433L107.257 160.794Z" fill="#EBD9B3"/>
<path d="M128.557 180.652C125.27 180.652 119.01 174.754 116.531 170.727C114.019 166.65 107.174 161.032 107.109 160.975C107.018 160.901 107.001 160.777 107.051 160.686C107.108 160.588 107.224 160.546 107.331 160.579L112.174 162.21C112.191 162.218 112.215 162.227 112.232 162.235C114.9 164.03 117.651 168.503 119.496 171.715C121.144 174.59 124.397 177.53 128.886 180.207C128.968 180.257 129.018 180.364 128.993 180.454C128.968 180.553 128.886 180.627 128.787 180.635C128.705 180.644 128.631 180.652 128.557 180.652ZM108.344 161.403C110.337 163.108 114.917 167.21 116.926 170.48C119.332 174.392 124.685 179.301 127.774 180.084C123.656 177.505 120.666 174.705 119.085 171.946C117.273 168.791 114.571 164.393 111.993 162.638L108.344 161.403Z" fill="#BD7A43"/>
<path d="M122.124 175.57C122.124 175.57 132.362 177.885 137.683 184.153C134.504 179.252 128.211 175.027 121.292 174.483L122.124 175.57Z" fill="#EBD9B3"/>
<path d="M137.683 184.392C137.617 184.392 137.551 184.367 137.51 184.309C132.296 178.173 122.182 175.826 122.075 175.801C122.025 175.784 121.976 175.76 121.943 175.718L121.111 174.631C121.053 174.557 121.045 174.458 121.094 174.376C121.136 174.294 121.226 174.244 121.317 174.252C127.865 174.771 134.364 178.61 137.881 184.029C137.947 184.128 137.922 184.268 137.823 184.342C137.782 184.375 137.732 184.392 137.683 184.392ZM122.256 175.364C123.104 175.57 130.147 177.374 135.344 181.575C131.851 177.893 126.786 175.298 121.795 174.763L122.256 175.364Z" fill="#BD7A43"/>
<path d="M128.294 167.54C128.294 167.54 138.746 168.619 143.704 173.939C138.861 168.413 130.938 166.024 126.869 166.461L128.294 167.54Z" fill="#EBD9B3"/>
<path d="M143.704 174.17C143.638 174.17 143.58 174.145 143.531 174.096C138.696 168.907 128.375 167.787 128.268 167.77C128.227 167.762 128.186 167.746 128.153 167.721L126.72 166.634C126.646 166.576 126.613 166.477 126.638 166.386C126.662 166.296 126.745 166.23 126.835 166.222C130.673 165.81 138.754 167.927 143.877 173.783C143.959 173.882 143.951 174.022 143.86 174.104C143.811 174.145 143.761 174.17 143.704 174.17ZM128.384 167.317C129.059 167.391 134.701 168.116 139.495 170.595C135.335 167.82 130.509 166.535 127.494 166.642L128.384 167.317Z" fill="#BD7A43"/>
<path d="M109.366 162.771C109.366 162.771 112.339 167.218 113.879 172.638C115.42 178.058 119.711 182.506 120.156 185.866C120.592 189.227 121.581 194.753 124.669 197.142C121.918 191.286 121.589 190.965 120.708 184.779C119.719 178.816 117.849 179.359 116.087 174.911C114.324 170.464 113.336 167.647 111.903 164.723L109.366 162.771Z" fill="#EBD9B3"/>
<path d="M124.661 197.364C124.611 197.364 124.562 197.348 124.521 197.315C121.061 194.638 120.205 188.057 119.925 185.89C119.719 184.293 118.599 182.431 117.314 180.273C115.971 178.033 114.456 175.496 113.657 172.695C112.149 167.375 109.201 162.935 109.176 162.894C109.11 162.803 109.126 162.671 109.209 162.597C109.291 162.523 109.423 162.515 109.505 162.581L112.034 164.533C112.059 164.558 112.083 164.582 112.1 164.615C113.162 166.79 114.003 168.948 115.057 171.666C115.428 172.629 115.831 173.667 116.292 174.82C116.984 176.567 117.684 177.522 118.368 178.444C119.373 179.812 120.328 181.105 120.93 184.737C121.737 190.396 122.074 191.104 124.257 195.733L124.875 197.035C124.924 197.133 124.891 197.249 124.809 197.315C124.768 197.348 124.71 197.364 124.661 197.364ZM110.23 163.726C111.202 165.381 113.014 168.75 114.101 172.572C114.876 175.306 116.383 177.819 117.709 180.034C119.027 182.233 120.164 184.136 120.386 185.833C120.633 187.752 121.35 193.213 123.936 196.129L123.845 195.931C121.63 191.244 121.292 190.528 120.477 184.803C119.892 181.286 119.019 180.092 117.997 178.716C117.297 177.769 116.581 176.797 115.864 174.985C115.411 173.832 114.999 172.794 114.629 171.831C113.583 169.137 112.759 167.004 111.713 164.862L110.23 163.726Z" fill="#BD7A43"/>
<path d="M120.262 183.691C120.262 183.691 125.55 187.48 128.96 192.258C126.539 186.294 120.048 181.846 120.048 181.846L120.262 183.691Z" fill="#EBD9B3"/>
<path d="M128.961 192.488C128.887 192.488 128.821 192.455 128.771 192.389C125.419 187.703 120.18 183.922 120.131 183.881C120.082 183.84 120.04 183.782 120.04 183.716L119.818 181.871C119.81 181.781 119.851 181.69 119.925 181.649C119.999 181.6 120.098 181.608 120.172 181.657C120.238 181.698 126.753 186.212 129.175 192.167C129.216 192.274 129.175 192.398 129.076 192.455C129.035 192.48 128.994 192.488 128.961 192.488ZM120.477 183.568C121.07 184.005 124.719 186.756 127.733 190.322C125.411 186.336 121.597 183.296 120.329 182.349L120.477 183.568Z" fill="#BD7A43"/>
<path d="M109.472 177.078C109.472 177.078 109.695 182.604 111.787 187.266C109.036 183.362 108.484 176.641 108.484 176.641L109.472 177.078Z" fill="#EBD9B3"/>
<path d="M111.787 187.505C111.713 187.505 111.639 187.472 111.597 187.406C108.838 183.494 108.278 176.946 108.253 176.666C108.245 176.584 108.286 176.509 108.352 176.46C108.418 176.411 108.509 176.402 108.583 176.435L109.571 176.872C109.654 176.905 109.703 176.987 109.711 177.078C109.711 177.135 109.95 182.621 112.001 187.184C112.05 187.291 112.009 187.423 111.902 187.481C111.861 187.497 111.828 187.505 111.787 187.505ZM108.756 177.02C108.879 178.099 109.308 181.213 110.411 184.095C109.514 180.875 109.291 177.918 109.25 177.234L108.756 177.02Z" fill="#BD7A43"/>
<path d="M119.883 162.886C119.883 162.886 121.736 161.807 124.191 160.629C126.917 159.328 133.251 158.373 134.923 158.719C131.406 156.898 128.326 158.027 124.018 159.674C119.71 161.321 117.857 162.45 117.857 162.45L119.883 162.886Z" fill="#EBD9B3"/>
<path d="M119.883 163.117C119.867 163.117 119.85 163.117 119.834 163.108L117.808 162.672C117.717 162.656 117.643 162.581 117.627 162.483C117.61 162.392 117.651 162.293 117.734 162.244C117.808 162.194 119.653 161.091 123.928 159.451C128.079 157.862 131.357 156.61 135.022 158.504C135.121 158.554 135.171 158.677 135.138 158.784C135.096 158.891 134.989 158.957 134.874 158.933C133.309 158.611 127.033 159.509 124.29 160.819C121.868 161.972 120.015 163.051 119.999 163.059C119.966 163.108 119.925 163.117 119.883 163.117ZM118.516 162.359L119.85 162.647C120.229 162.433 121.943 161.461 124.101 160.432C126.324 159.369 131.036 158.496 133.639 158.43C130.632 157.409 127.824 158.48 124.109 159.904C121.144 161.025 119.34 161.922 118.516 162.359Z" fill="#BD7A43"/>
<path d="M131.324 158.817C131.324 158.817 136.25 164.97 143.728 164.624C138.803 165.489 134.668 163.495 130.179 158.99C131.061 158.817 131.324 158.817 131.324 158.817Z" fill="#EBD9B3"/>
<path d="M141.537 165.052C137.658 165.052 134.017 163.174 130.023 159.155C129.965 159.097 129.94 159.007 129.965 158.924C129.99 158.842 130.056 158.784 130.146 158.768C131.019 158.595 131.308 158.595 131.332 158.595C131.407 158.595 131.472 158.628 131.514 158.685C131.563 158.743 136.431 164.723 143.728 164.402C143.852 164.41 143.959 164.484 143.967 164.607C143.984 164.731 143.901 164.838 143.778 164.863C143.012 164.978 142.271 165.052 141.537 165.052ZM130.657 159.13C133.845 162.26 136.801 163.99 139.841 164.451C134.981 163.232 131.761 159.674 131.225 159.048C131.126 159.064 130.945 159.081 130.657 159.13Z" fill="#BD7A43"/>
<path d="M115.436 161.963C107.216 160.415 99.9596 154.105 99.9596 144.46C99.9596 138.497 100.651 133.028 100.454 124.849C98.8559 125.253 97.0851 125.426 95.6849 124.874C95.8002 128.465 95.7755 131.908 95.6108 135.128C94.9519 147.492 92.802 155.349 81.8309 158.273C74.9863 159.929 72.6389 158.454 68.9077 158.141C65.1848 157.828 60.3828 159.319 58.5049 162.441C58.5049 162.441 61.7666 158.15 68.8995 159.22C76.0324 160.291 81.7156 162.795 89.6886 157.318C85.8174 163.149 78.9317 166.609 76.0241 171.485C73.1249 176.369 71.1893 181.846 71.9141 187.085C72.5154 180.183 74.9369 171.962 79.8953 167.91C84.8537 163.866 92.349 158.15 95.0012 152.549C93.6751 164.096 97.5381 171.007 101.047 178.741C104.556 186.484 107.455 193.032 107.208 198.978C107.57 190.05 106.598 187.785 103.823 181.83C101.047 175.875 97.6617 167.663 98.263 160.159C98.7489 155.275 99.4737 152.063 100.322 154.089C101.17 156.115 103.23 160.637 115.074 163.256C126.918 165.876 129.817 169.804 131.028 173.618C130.542 167.202 123.656 163.512 115.436 161.963Z" fill="#EBD9B3"/>
<path d="M107.216 199.226H107.208C107.076 199.218 106.977 199.111 106.986 198.987C107.233 192.958 104.128 186.105 100.841 178.849C100.52 178.132 100.19 177.424 99.861 176.715C96.7475 169.97 93.7989 163.578 94.6555 153.71C91.888 158.496 85.9164 163.331 81.4769 166.93C80.9827 167.334 80.505 167.721 80.0437 168.092C73.8169 173.174 72.4248 183.931 72.153 187.102C72.1448 187.217 72.046 187.308 71.9307 187.316C71.9307 187.316 71.9307 187.316 71.9225 187.316C71.8072 187.316 71.7083 187.233 71.6918 187.118C71.0411 182.39 72.4331 177.094 75.8349 171.37C77.2845 168.923 79.6978 166.856 82.2593 164.665C84.5656 162.688 86.946 160.646 88.8075 158.175C82.5806 162.013 77.6056 161.066 72.3589 160.069C71.2305 159.855 70.0692 159.633 68.8749 159.451C61.9644 158.414 58.7274 162.54 58.7027 162.581C58.6286 162.68 58.4885 162.705 58.3897 162.631C58.2909 162.565 58.2579 162.425 58.3238 162.318C60.3006 159.04 65.2672 157.598 68.949 157.911C69.9374 157.993 70.8516 158.158 71.7329 158.323C74.2286 158.784 76.7985 159.254 81.7981 158.043C92.3492 155.234 94.7214 147.813 95.3968 135.104C95.5615 131.949 95.5862 128.506 95.4709 124.866C95.4709 124.792 95.5038 124.718 95.5697 124.668C95.6356 124.619 95.718 124.611 95.7921 124.644C96.9617 125.105 98.5102 125.097 100.413 124.611C100.479 124.594 100.553 124.611 100.611 124.652C100.668 124.693 100.701 124.759 100.701 124.833C100.816 129.668 100.635 133.465 100.454 137.138C100.33 139.642 100.215 142.006 100.215 144.453C100.215 154.394 107.892 160.291 115.502 161.725C128.64 164.204 131.028 170.233 131.284 173.602C131.292 173.717 131.209 173.824 131.094 173.849C130.979 173.874 130.863 173.808 130.831 173.692C129.702 170.126 126.935 166.115 115.049 163.487C102.9 160.802 100.965 156.165 100.141 154.18C99.9599 153.743 99.8445 153.702 99.8362 153.702C99.8197 153.71 99.1444 153.966 98.5266 160.176C97.9418 167.499 101.179 175.537 104.07 181.723C106.738 187.448 107.85 189.82 107.48 198.962V198.971C107.439 199.127 107.34 199.226 107.216 199.226ZM95.0096 152.318C95.0343 152.318 95.0508 152.318 95.0755 152.327C95.1826 152.36 95.2567 152.467 95.2402 152.574C94.0377 162.993 97.077 169.558 100.289 176.518C100.619 177.226 100.94 177.934 101.269 178.651C103.732 184.087 106.096 189.301 107.035 194.152C106.862 188.881 105.775 186.558 103.625 181.945C100.709 175.71 97.4477 167.597 98.0407 160.16C98.7079 153.422 99.4409 153.315 99.7539 153.266C100.149 153.208 100.396 153.669 100.545 154.015C103.222 160.415 111.565 162.26 115.132 163.042C124.818 165.184 128.574 168.256 130.287 171.296C129.101 168.1 125.51 164.097 115.403 162.194C107.612 160.728 99.7456 154.674 99.7456 144.461C99.7456 142.006 99.861 139.634 99.9845 137.122C100.166 133.531 100.347 129.816 100.24 125.138C98.5349 125.541 97.0934 125.558 95.9403 125.195C96.0474 128.721 96.0145 132.065 95.8497 135.137C95.1579 148.06 92.7363 155.613 81.897 158.496C76.8068 159.731 74.1792 159.245 71.6341 158.776C70.7198 158.611 69.8633 158.455 68.8914 158.372C66.6428 158.183 63.8918 158.669 61.7008 159.847C63.4223 159.072 65.8274 158.521 68.9326 158.99C70.1351 159.171 71.3047 159.394 72.4414 159.608C78.1082 160.687 83.0089 161.626 89.557 157.12C89.6476 157.054 89.7711 157.071 89.8535 157.145C89.9358 157.219 89.9441 157.343 89.8864 157.442C87.9097 160.423 85.1916 162.754 82.5558 165.011C80.0272 167.177 77.6469 169.22 76.2302 171.6C73.4956 176.205 72.0789 180.521 72.0048 184.474C72.6967 179.886 74.6076 171.938 79.7555 167.729C80.2167 167.358 80.6945 166.971 81.1886 166.568C85.9247 162.738 92.4151 157.483 94.8037 152.45C94.8366 152.376 94.919 152.318 95.0096 152.318Z" fill="#BD7A43"/>
<path opacity="0.4" d="M89.6886 157.318C89.1038 158.2 88.4532 159.015 87.753 159.797C87.9013 159.649 88.0578 159.501 88.2142 159.344C89.6145 157.878 90.9406 156.346 92.242 154.798C92.1678 154.856 92.1019 154.913 92.0278 154.971C91.8136 155.127 91.5996 155.292 91.3854 155.44C90.9489 155.745 90.4959 156.025 90.0346 156.289C88.8815 156.948 87.6872 157.499 86.4435 157.969C83.5359 159.073 79.6318 159.929 76.436 159.031C73.339 159.089 71.4363 158.348 68.9077 158.134C65.1848 157.821 60.3828 159.311 58.5049 162.433C58.5049 162.433 61.7666 158.142 68.8995 159.213C76.0324 160.3 81.7156 162.796 89.6886 157.318Z" fill="#CB9049"/>
<path opacity="0.4" d="M115.436 161.963C107.216 160.415 99.9595 154.105 99.9595 144.46C99.9595 138.497 100.651 133.028 100.454 124.849C99.8277 125.006 99.1853 125.113 98.5428 125.17C98.4522 130.598 98.1557 136.018 98.0651 141.454C98.0239 143.571 98.2133 145.688 98.2051 147.804C98.1968 149.724 97.991 151.635 97.6615 153.529C97.3403 155.399 96.9367 157.26 96.7308 159.146C96.5249 161.074 96.5743 162.96 96.8461 164.879C97.1673 167.177 97.7356 169.483 97.9251 171.814C98.897 174.153 99.9925 176.418 101.055 178.766C104.564 186.508 107.463 193.056 107.216 199.003C107.578 190.075 106.606 187.81 103.831 181.855C101.055 175.9 97.6698 167.688 98.271 160.184C98.757 155.3 99.4818 152.088 100.33 154.114C101.179 156.14 103.238 160.662 115.082 163.281C126.926 165.9 129.825 169.829 131.036 173.643C130.542 167.202 123.656 163.512 115.436 161.963Z" fill="#CB9049"/>
<path d="M96.9942 127.592C96.9859 127.477 96.813 127.633 96.8047 127.707C96.5741 131.933 96.2117 136.109 95.7257 140.318C95.3962 143.184 95.1492 145.96 93.9054 148.62C92.9665 150.63 91.3603 152.318 89.9601 154.015C89.7459 154.279 89.9437 154.6 90.2237 154.32C92.95 151.602 94.9762 148.53 95.7422 144.757C96.8541 139.239 97.2495 133.209 96.9942 127.592Z" fill="#EBD9B3"/>
<path d="M113.674 140.144C123.813 132.213 130.493 120.08 127.717 108.293C127.347 106.737 126.07 99.8592 119.744 94.3984C116.96 91.9933 115.008 91.4167 113.435 91.3014C108.254 90.9225 104.375 95.3291 103.963 95.8151C103.37 95.6256 98.0656 94.0112 93.4202 96.3751C89.8455 98.1954 88.2641 101.68 88.0747 104.925C88.0582 105.18 88.0334 105.51 88.0417 105.93C88.0417 105.93 88.0252 112.568 92.6541 118.177C93.5519 119.265 94.5074 120.171 94.5074 120.171C95.5122 121.118 96.2041 121.579 97.5138 122.6C98.3045 123.169 99.4082 124.017 100.578 125.129C101.986 126.463 105.38 129.758 106.945 134.873C107.579 136.949 108.534 140.227 107.068 143.941C106.903 144.362 106.739 144.699 106.623 144.938C109.169 143.521 111.491 141.849 113.674 140.144Z" fill="#67AD14"/>
<path d="M108.625 140.111C108.658 138.629 108.493 137.138 108.213 135.664C107.801 133.497 107.233 131.348 106.277 129.289C105.281 127.155 103.807 125.376 102.093 123.581C100.421 121.826 98.6092 120.171 96.929 118.424C96.0229 117.477 95.0263 116.53 94.3014 115.484C93.5601 114.421 91.4351 111.349 92.1682 107.527C92.407 106.3 92.926 103.607 95.8747 101.762C99.0375 99.7851 102.818 100.139 104.087 100.32C106.796 100.716 108.576 101.852 109.3 102.322C111.055 103.475 111.903 104.694 112.776 105.954C114.3 108.153 114.868 110.155 115.239 111.456C115.568 112.609 115.791 113.796 115.881 114.306C116.046 115.212 116.194 116.126 116.293 117.041C116.483 118.812 116.532 120.582 116.433 122.353C116.343 124.091 116.112 125.829 115.758 127.534C115.404 129.223 114.934 130.886 114.358 132.517C113.773 134.165 113.081 135.787 112.298 137.377C111.508 138.975 110.635 140.548 109.687 142.08C109.342 142.64 108.987 143.184 108.625 143.736C108.913 143.554 109.201 143.365 109.49 143.175C111.467 140.82 113.139 138.291 114.555 135.68C115.939 133.127 117.043 130.475 117.8 127.732C118.624 124.758 119.077 121.703 119.201 118.639C119.324 115.583 119.094 112.527 118.599 109.471C118.336 107.865 118.031 106.284 117.553 104.702C117.067 103.096 116.466 101.507 115.799 99.9416C115.165 98.4507 114.489 96.9764 113.748 95.5185C113.493 95.0161 113.213 94.4972 113.106 93.9536C113.04 93.5912 113.064 93.1876 113.452 92.9652C113.987 92.6604 114.844 92.784 115.445 92.8993C116.087 93.0146 116.697 93.237 117.265 93.517C118.583 94.1677 119.678 95.1067 120.642 96.0621C121.598 97.0176 122.446 98.0389 123.253 99.0767C124.019 100.049 124.736 101.037 125.386 102.05C125.428 102.124 124.019 97.8083 119.744 94.3819C118.023 93.0063 116.17 91.5155 113.435 91.2849C108.164 90.8401 104.227 95.4773 103.963 95.7986C102.686 95.4032 100.199 94.8019 97.2172 95.2385C96.4924 95.3456 95.0263 95.5679 93.4284 96.3669C93.0742 96.5399 91.468 97.3635 90.1749 98.9779C89.2689 100.106 88.9476 101.103 88.6347 102.058C88.1816 103.442 88.1076 104.538 88.0664 105.238C88.0499 105.584 87.9757 106.984 88.3217 108.911C88.4782 109.784 88.9147 111.827 90.1584 114.281C90.6444 115.245 91.6246 117.14 93.5437 119.207C95.1169 120.904 97.1677 122.263 99.0127 123.762C101.723 125.977 102.76 127.402 103.543 128.415C104.515 129.676 105.108 130.689 105.281 130.977C105.907 132.056 107.011 134.008 107.529 136.71C107.818 138.234 108.295 140.877 107.076 143.925C106.945 144.263 106.788 144.592 106.632 144.922C107.06 144.683 107.472 144.444 107.892 144.189C108.394 142.887 108.592 141.495 108.625 140.111Z" fill="#409100"/>
<path d="M109.168 113.59C110.33 113.763 110.808 113.178 111.022 112.651C111.681 111.045 110.824 108.813 109.836 106.844C109.424 106.037 108.386 103.558 106.607 102.833C106.269 102.619 105.89 102.429 105.47 102.273C103.436 101.54 102.752 102.627 102.662 103.5C102.522 104.851 103.016 106.407 103.683 107.923C104.259 109.249 104.993 110.781 106.393 112.115C107.035 112.741 108.106 113.433 109.168 113.59Z" fill="#92C10B"/>
<path d="M111.376 117.808C111.409 117.824 111.442 117.841 111.483 117.841C111.656 117.857 111.78 117.725 111.821 117.602C112.183 117.305 112.225 116.835 112.027 116.44C111.994 116.374 111.945 116.308 111.879 116.259C111.78 116.003 111.45 115.913 111.162 116.061C110.931 116.185 110.783 116.456 110.717 116.662C110.651 116.885 110.667 117.107 110.717 117.33C110.783 117.643 111.055 117.841 111.376 117.808Z" fill="#92C10B"/>
<path d="M118.261 120.789C117.627 114.15 116.227 107.544 112.644 101.943C109.127 96.3919 103.394 92.1418 96.5908 95.2964C97.884 94.1597 99.5148 93.369 101.294 93.0231C104.951 92.2571 108.567 94.1103 111.277 96.4989C117.767 102.52 119.925 112.313 118.261 120.789Z" fill="#405621"/>
<path d="M102.192 93.3194C98.6834 93.237 95.7923 94.6455 95.85 94.9173C95.8994 95.1314 97.8762 94.456 100.932 94.7443C101.278 94.7772 103.354 94.9832 105.553 95.848C109.762 97.5036 112.29 100.741 113.369 102.322C113.064 101.367 111.285 96.1281 106.426 94.1513C104.556 93.3853 102.777 93.3276 102.192 93.3194Z" fill="#405621" stroke="#405621" stroke-miterlimit="10"/>
<path d="M62.3421 57.0456C66.4769 50.061 73.5356 44.8884 81.1297 45.6709C82.1346 45.7779 86.5411 46.0168 90.47 49.5256C92.1997 51.0741 92.7187 52.2436 92.9246 53.2238C93.5835 56.4361 91.1372 59.2201 90.8737 59.5166C91.0384 59.8707 92.4798 63.0583 91.3761 66.1553C90.5277 68.5439 88.4767 69.8123 86.4588 70.1912C86.3023 70.2241 86.0963 70.2653 85.8328 70.2983C85.8328 70.2983 81.6816 70.8501 77.7939 68.4121C77.0362 67.9344 76.4019 67.4155 76.4019 67.4155C75.7265 66.8636 75.3806 66.4683 74.6393 65.7352C74.2192 65.2822 73.6015 64.6644 72.8108 64.022C71.8553 63.2478 69.5243 61.3945 66.1967 60.8262C64.8459 60.5956 62.7209 60.2661 60.5135 61.4851C60.2664 61.6251 60.0605 61.7569 59.9287 61.8475C60.5959 60.1425 61.4525 58.5529 62.3421 57.0456Z" fill="#67AD14"/>
<path d="M62.779 60.2007C63.7015 60.0607 64.6487 60.0442 65.5959 60.0936C66.9797 60.176 68.3799 60.3572 69.739 60.7855C71.1557 61.2303 72.3911 62.0127 73.6513 62.9435C74.8868 63.8495 76.0646 64.8461 77.3001 65.7522C77.9673 66.2464 78.6427 66.79 79.351 67.1606C80.0758 67.5395 82.1679 68.6185 84.5071 67.8442C85.2567 67.5971 86.8957 67.0535 87.81 65.052C88.7902 62.9105 88.2631 60.5796 88.0489 59.7971C87.5794 58.1333 86.7228 57.112 86.3686 56.7001C85.5038 55.6953 84.6719 55.267 83.8153 54.8222C82.3162 54.0479 81.0148 53.8503 80.1747 53.7267C79.4251 53.6114 78.6674 53.5702 78.3379 53.5538C77.7531 53.5208 77.1766 53.5043 76.6 53.5208C75.4798 53.5455 74.3597 53.6608 73.2642 53.8667C72.1853 54.0644 71.1145 54.3527 70.0767 54.7069C69.0471 55.0611 68.0505 55.4976 67.0703 55.9918C66.0819 56.4942 65.1265 57.0543 64.1957 57.6803C63.2568 58.3063 62.3507 58.9817 61.4611 59.6983C61.1399 59.9618 60.8269 60.2254 60.5139 60.4972C60.6045 60.2995 60.6952 60.1101 60.794 59.9124C62.1036 58.4875 63.5532 57.2273 65.0688 56.1318C66.5514 55.061 68.1245 54.155 69.7718 53.4549C71.5674 52.6971 73.4371 52.1618 75.348 51.8405C77.2507 51.5193 79.1863 51.4122 81.1301 51.4699C82.1515 51.5029 83.1728 51.5687 84.2024 51.7417C85.2484 51.9147 86.2863 52.1618 87.3241 52.45C88.3042 52.7218 89.2844 53.0266 90.2563 53.3726C90.5941 53.4961 90.94 53.6279 91.2859 53.6444C91.5166 53.6608 91.7719 53.6114 91.8789 53.3478C92.0272 52.9854 91.8789 52.4665 91.7636 52.0959C91.6401 51.7005 91.4506 51.3381 91.2282 51.0086C90.7175 50.2344 90.0421 49.6249 89.3585 49.106C88.6831 48.5871 87.9748 48.1423 87.2582 47.714C86.5828 47.3186 85.9156 46.948 85.2237 46.6268C85.1743 46.6021 87.9912 47.1374 90.4787 49.5343C91.4835 50.498 92.5626 51.5358 92.9332 53.2325C93.6416 56.4942 91.0552 59.3359 90.8822 59.5253C91.2364 60.2913 91.813 61.7986 91.7801 63.7012C91.7719 64.1625 91.7554 65.1015 91.3848 66.164C91.3024 66.4029 90.9152 67.4736 90.0175 68.4126C89.3832 69.0715 88.7902 69.3515 88.2136 69.6233C87.3817 70.0187 86.7063 70.1505 86.2698 70.2329C86.0556 70.2741 85.1826 70.4305 83.9471 70.3729C83.387 70.3482 82.0774 70.2411 80.4383 69.6563C79.7958 69.4257 78.5357 68.9727 77.0778 67.9349C75.8835 67.0865 74.8704 65.9169 73.7832 64.8873C72.177 63.3718 71.205 62.8364 70.5049 62.4328C69.6401 61.9304 68.9564 61.6339 68.7588 61.5515C68.0339 61.2467 66.7243 60.7113 64.9864 60.6125C64.0063 60.5549 62.3177 60.4725 60.5057 61.4774C60.308 61.5927 60.1103 61.708 59.9209 61.8398C60.0362 61.5515 60.1516 61.2715 60.2751 60.9914C61.0576 60.5713 61.9141 60.3325 62.779 60.2007Z" fill="#409100"/>
<path d="M79.3263 57.7128C79.1204 56.9962 79.4497 56.6503 79.7627 56.4773C80.7099 55.9337 82.1843 56.2879 83.4939 56.7491C84.0376 56.9386 85.6684 57.3916 86.2697 58.4459C86.4344 58.6435 86.5827 58.8577 86.7145 59.1131C87.3405 60.3238 86.7145 60.8427 86.1708 60.9745C85.3389 61.1722 84.3259 60.991 83.321 60.6945C82.4479 60.4391 81.4265 60.1097 80.4793 59.3354C80.0263 58.973 79.5075 58.3635 79.3263 57.7128Z" fill="#92C10B"/>
<path d="M76.5095 56.6753C76.493 56.6588 76.4848 56.6341 76.4765 56.6094C76.4518 56.5023 76.526 56.4116 76.6001 56.3787C76.7567 56.1233 77.0451 56.0656 77.3087 56.1562C77.3582 56.1727 77.3994 56.1974 77.4323 56.2304C77.5971 56.2716 77.6878 56.4693 77.6136 56.6671C77.5559 56.8236 77.3994 56.939 77.2676 56.9966C77.1358 57.0543 76.9957 57.0626 76.8474 57.0543C76.6579 57.0296 76.5178 56.873 76.5095 56.6753Z" fill="#92C10B"/>
<path d="M74.0884 52.6062C79.2198 50.407 85.7761 50.9506 90.1333 54.6736C91.9041 56.2467 93.3619 58.5365 93.0654 60.9663C92.9336 62.1442 92.4971 63.2396 91.8052 64.0962C93.5431 54.9454 80.7847 52.7709 74.0884 52.6062Z" fill="#405621"/>
<path d="M92.5788 60.4227C92.9165 62.6136 92.2659 64.541 92.0929 64.5163C91.9529 64.4998 92.2164 63.2148 91.7881 61.3287C91.7387 61.1145 91.4422 59.8378 90.7173 58.5282C89.3336 56.0243 87.1098 54.7065 86.0308 54.1628C86.6567 54.2782 90.0748 54.9618 91.7057 57.8446C92.3399 58.9565 92.5212 60.0603 92.5788 60.4227Z" fill="#405621" stroke="#405621" stroke-miterlimit="10"/>
</svg>
