<svg width="340" height="340" viewBox="0 0 340 340" fill="none" xmlns="http://www.w3.org/2000/svg">
<path d="M123.823 166.461C123.872 165.654 123.584 164.896 122.777 164.328C121.064 163.133 118.288 163.801 116.435 164.344C114.318 164.962 112.226 165.761 110.315 166.856C108.882 167.68 106.617 169.27 107.276 171.23C107.951 173.231 110.834 173.61 112.596 173.734C115.232 173.923 118.074 173.619 120.537 172.597C122.472 171.79 124.457 170.167 124.391 167.869C124.367 167.26 124.152 166.807 123.823 166.461Z" fill="#6E4931"/>
<path d="M136.524 166.692C135.692 166.123 134.515 165.851 133.361 165.909C133.147 165.86 132.941 165.827 132.744 165.819C131.039 165.72 128.864 166.749 128.658 168.635C128.452 170.489 130.61 170.736 131.978 170.555C133.633 170.34 135.874 169.55 136.656 167.927C136.846 167.524 136.969 166.996 136.524 166.692Z" fill="#6E4931"/>
<path d="M171.242 167.482C170.517 164.599 166.078 163.471 163.566 163.183C161.77 162.985 159.974 163.603 158.722 164.929C157.792 165.917 157.273 167.416 157.874 168.536C157.998 168.858 158.212 169.171 158.549 169.467C160.386 171.049 163.541 171.312 165.855 171.353C168.063 171.386 172.025 170.587 171.242 167.482Z" fill="#6E4931"/>
<path d="M188.868 166.807C187.92 164.328 185.071 164.08 182.921 165.069C181.208 165.851 179.132 167.762 179.42 169.821C179.297 170.126 179.223 170.456 179.223 170.81C179.223 171.246 179.429 171.535 179.84 171.691C182.649 172.712 190.548 171.205 188.868 166.807Z" fill="#6E4931"/>
<path d="M226.493 166.494C225.43 165.423 223.445 164.953 221.979 164.937C220.455 164.92 218.816 165.382 217.449 166.024C216.411 166.518 214.714 167.531 215.044 168.94C215.431 170.595 218.511 170.917 219.788 171.073C221.205 171.254 223.289 171.114 224.771 170.299C224.895 170.324 225.035 170.307 225.167 170.208C226.377 169.376 227.934 167.952 226.493 166.494Z" fill="#6E4931"/>
<path d="M249.786 167.145C249.424 166.09 248.279 165.901 247.348 166.321C246.829 166.56 246.302 167.054 246.252 167.655C246.211 168.084 246.467 168.364 246.788 168.421C246.87 168.504 246.969 168.578 247.093 168.619C247.636 168.808 248.114 168.751 248.649 168.586C249.168 168.413 250.025 167.845 249.786 167.145Z" fill="#6E4931"/>
<path d="M98.7016 168.356C98.5862 167.219 97.0625 166.527 96.0659 166.486C94.8798 166.428 93.7184 167.227 93.3478 168.347C93.2983 168.487 93.2736 168.644 93.2572 168.809C93.1254 169.089 93.1171 169.385 93.3395 169.624C93.3807 169.665 93.4301 169.706 93.4713 169.748C93.5866 169.912 93.7678 170.077 93.9573 170.159C93.9902 170.176 94.0149 170.184 94.0479 170.184C94.7562 170.604 95.5964 170.744 96.4447 170.596C97.4743 170.406 98.8251 169.566 98.7016 168.356Z" fill="#6E4931"/>
<path d="M151.152 166.288C150.979 166.156 150.765 166.115 150.551 166.115C150.411 166.049 150.246 166.008 150.09 166.016C149.974 166.016 149.851 166.033 149.736 166.057C149.661 166.074 149.587 166.099 149.521 166.123C149.488 166.131 149.151 166.23 149.48 166.14C148.887 166.296 148.179 166.939 148.558 167.606C148.772 167.976 149.25 168.141 149.653 168.141C150.304 168.141 150.897 167.804 151.251 167.268C151.457 166.955 151.465 166.527 151.152 166.288Z" fill="#6E4931"/>
<path d="M198.876 167.689C198.851 167.656 198.826 167.631 198.802 167.598C198.818 167.54 198.826 167.491 198.843 167.433C198.909 167.071 198.62 166.832 198.332 166.708C198.192 166.65 197.928 166.667 197.796 166.7C197.739 166.716 197.557 166.774 197.508 166.79C197.36 166.856 197.22 166.939 197.104 167.054C196.906 167.219 196.939 167.194 197.203 166.972C197.145 167.013 197.096 167.054 197.038 167.112C196.972 167.17 196.923 167.219 196.865 167.277C196.799 167.334 196.734 167.392 196.684 167.45C196.437 167.73 196.239 168.125 196.412 168.496C196.569 168.834 196.997 168.966 197.343 168.867C197.541 168.809 197.706 168.743 197.879 168.661C197.903 168.669 197.92 168.677 197.945 168.686C198.217 168.768 198.571 168.62 198.744 168.414C198.884 168.241 199.073 167.886 198.876 167.689Z" fill="#6E4931"/>
<path opacity="0.57" d="M219.146 231.39C213.882 231.769 208.941 233.918 203.71 234.528C198.266 235.162 192.747 235.401 187.27 235.286C181.883 235.17 176.513 234.594 171.126 234.61C168.408 234.619 165.682 234.833 163.022 235.401C160.304 235.986 157.61 236.661 154.908 237.328C152.396 237.954 149.868 238.531 147.29 238.819C144.662 239.116 142.043 239.025 139.415 238.704C134.646 238.119 130.001 236.809 125.454 235.294C122.011 234.149 118.593 232.872 115.15 231.678C129.869 244.807 149.283 252.789 170.566 252.789C191.775 252.789 211.123 244.865 225.834 231.81C223.618 231.48 221.386 231.225 219.146 231.39Z" fill="#8C664B"/>
<g opacity="0.57">
<path d="M102.457 188.691C101.197 188.592 99.9859 188.897 99.2858 189.713C98.6434 190.462 98.3386 191.549 98.3386 192.521C98.2892 194.902 99.3269 197.233 102.078 196.944C104.376 196.697 106.501 194.91 106.83 192.579C107.143 190.388 104.738 188.873 102.457 188.691Z" fill="#8C664B"/>
<path d="M111.65 198.971C111.65 198.946 111.641 198.921 111.633 198.896C111.633 198.863 111.625 198.839 111.625 198.806C111.6 198.69 111.542 198.6 111.46 198.534C111.328 198.402 111.147 198.328 110.949 198.336C110.776 198.336 110.603 198.377 110.438 198.443C110.298 198.501 110.183 198.575 110.076 198.682C109.96 198.765 109.87 198.872 109.796 198.995C109.705 199.177 109.606 199.366 109.614 199.58C109.614 199.638 109.623 199.687 109.631 199.745C109.606 199.844 109.606 199.943 109.631 200.042C109.672 200.174 109.746 200.281 109.853 200.363C110.026 200.495 110.298 200.487 110.488 200.454C110.966 200.371 111.452 199.992 111.6 199.523C111.674 199.317 111.682 199.168 111.65 198.971Z" fill="#8C664B"/>
<path d="M122.999 212.66C122.777 212.643 122.571 212.709 122.389 212.816C121.887 212.816 121.458 213.22 121.269 213.649C121.104 214.003 121.154 214.456 121.417 214.744C121.656 215.008 121.969 215.198 122.324 215.198C123.098 215.214 123.634 214.514 123.724 213.797C123.798 213.286 123.601 212.701 122.999 212.66Z" fill="#8C664B"/>
<path d="M99.1791 183.527C98.9485 182.975 98.5943 182.506 97.8942 182.555C97.3753 182.597 96.9223 182.91 96.5681 183.288C95.7609 184.153 95.9091 185.644 97.3423 185.562C97.5153 185.586 97.6965 185.611 97.8777 185.603C98.586 185.586 99.6404 184.87 99.3686 184.038C99.3109 183.873 99.245 183.7 99.1791 183.527Z" fill="#8C664B"/>
<path d="M107.745 205.041C107.111 204.654 106.427 204.596 105.826 204.794C105.793 204.794 105.76 204.786 105.727 204.786C105.051 204.769 104.409 205.115 103.956 205.593C103.182 206.4 102.638 207.858 103.379 208.863C104.425 210.271 107.061 209.423 108.082 208.426C109.137 207.397 108.997 205.815 107.745 205.041Z" fill="#8C664B"/>
<path d="M124.26 203.237C123.683 203.237 123.139 204.267 123.905 204.267C124.482 204.267 125.026 203.237 124.26 203.237Z" fill="#8C664B"/>
<path d="M127.982 183.124C127.356 182.597 126.458 182.564 125.659 182.803C125.626 182.803 125.585 182.794 125.552 182.794C124.44 182.794 123.303 183.585 123.163 184.738C123.032 185.817 123.789 186.978 124.802 187.324C125.923 187.703 127.273 187.193 128.031 186.328C128.838 185.397 129.011 183.98 127.982 183.124Z" fill="#8C664B"/>
<path d="M134.819 183.75C134.086 183.75 133.394 185.06 134.375 185.06C135.108 185.06 135.8 183.75 134.819 183.75Z" fill="#8C664B"/>
<path d="M147.75 196.944C146.49 197.043 145.279 196.738 144.579 195.923C143.936 195.173 143.632 194.086 143.632 193.114C143.582 190.734 144.62 188.403 147.371 188.691C149.669 188.938 151.794 190.726 152.123 193.057C152.436 195.248 150.031 196.763 147.75 196.944Z" fill="#8C664B"/>
<path d="M165.92 189.507C165.582 189.532 165.269 189.433 164.989 189.268C164.223 189.268 163.564 188.658 163.267 187.991C163.02 187.448 163.086 186.756 163.498 186.303C163.86 185.907 164.338 185.611 164.89 185.603C166.084 185.586 166.9 186.657 167.04 187.744C167.147 188.543 166.842 189.449 165.92 189.507Z" fill="#8C664B"/>
<path d="M136.969 210.551C137.24 209.72 136.186 209.003 135.478 208.986C135.296 208.978 135.115 209.003 134.942 209.028C133.501 208.945 133.361 210.436 134.168 211.301C134.522 211.68 134.975 212.001 135.494 212.034C136.194 212.083 136.548 211.614 136.779 211.062C136.853 210.897 136.911 210.724 136.969 210.551Z" fill="#8C664B"/>
<path d="M146.843 180.414C146.209 180.801 145.526 180.858 144.924 180.661C144.891 180.661 144.858 180.669 144.834 180.669C144.158 180.685 143.516 180.339 143.055 179.862C142.28 179.055 141.737 177.597 142.478 176.592C143.524 175.183 146.16 176.032 147.181 177.028C148.235 178.058 148.104 179.639 146.843 180.414Z" fill="#8C664B"/>
<path d="M157.197 211.532C156.571 212.059 155.673 212.092 154.874 211.853C154.841 211.853 154.8 211.861 154.767 211.861C153.655 211.861 152.518 211.07 152.378 209.917C152.246 208.838 153.004 207.677 154.017 207.331C155.137 206.952 156.488 207.463 157.246 208.327C158.053 209.266 158.218 210.683 157.197 211.532Z" fill="#8C664B"/>
<path d="M172.427 210.848C171.694 210.848 171.001 209.538 171.982 209.538C172.715 209.538 173.407 210.848 172.427 210.848Z" fill="#8C664B"/>
<path d="M179.997 192.826C179.371 192.777 178.761 192.925 178.407 193.337C178.086 193.707 177.937 194.251 177.937 194.737C177.913 195.931 178.431 197.093 179.807 196.944C180.96 196.821 182.023 195.931 182.187 194.762C182.344 193.674 181.141 192.917 179.997 192.826Z" fill="#8C664B"/>
<path d="M191.256 198.971C191.256 198.946 191.248 198.921 191.239 198.896C191.239 198.863 191.231 198.839 191.231 198.806C191.207 198.69 191.149 198.6 191.066 198.534C190.935 198.402 190.753 198.328 190.556 198.336C190.383 198.336 190.21 198.377 190.045 198.443C189.905 198.501 189.789 198.575 189.682 198.682C189.567 198.765 189.476 198.872 189.402 198.995C189.311 199.177 189.213 199.366 189.221 199.58C189.221 199.638 189.229 199.687 189.237 199.745C189.213 199.844 189.213 199.943 189.237 200.042C189.278 200.174 189.353 200.281 189.46 200.363C189.633 200.495 189.905 200.487 190.094 200.454C190.572 200.371 191.058 199.992 191.207 199.523C191.272 199.317 191.281 199.168 191.256 198.971Z" fill="#8C664B"/>
<path d="M202.607 212.66C202.384 212.643 202.178 212.709 201.997 212.816C201.494 212.816 201.066 213.22 200.876 213.649C200.712 214.003 200.761 214.456 201.025 214.744C201.264 215.008 201.577 215.198 201.939 215.198C202.714 215.214 203.249 214.514 203.34 213.797C203.406 213.286 203.208 212.701 202.607 212.66Z" fill="#8C664B"/>
<path d="M178.778 183.527C178.547 182.975 178.193 182.506 177.493 182.555C176.974 182.597 176.521 182.91 176.167 183.288C175.36 184.153 175.508 185.644 176.941 185.562C177.114 185.586 177.295 185.611 177.476 185.603C178.185 185.586 179.239 184.87 178.967 184.038C178.91 183.873 178.852 183.7 178.778 183.527Z" fill="#8C664B"/>
<path d="M187.344 205.041C186.71 204.654 186.026 204.596 185.425 204.794C185.392 204.794 185.359 204.786 185.334 204.786C184.659 204.769 184.016 205.115 183.563 205.593C182.789 206.4 182.246 207.858 182.987 208.863C184.033 210.271 186.669 209.423 187.69 208.426C188.736 207.397 188.604 205.815 187.344 205.041Z" fill="#8C664B"/>
<path d="M203.866 203.237C203.289 203.237 202.745 204.267 203.512 204.267C204.088 204.267 204.632 203.237 203.866 203.237Z" fill="#8C664B"/>
<path d="M207.589 183.124C206.963 182.597 206.065 182.564 205.266 182.803C205.234 182.803 205.192 182.794 205.159 182.794C204.047 182.794 202.911 183.585 202.771 184.738C202.639 185.817 203.397 186.978 204.41 187.324C205.53 187.703 206.881 187.193 207.639 186.328C208.446 185.397 208.611 183.98 207.589 183.124Z" fill="#8C664B"/>
<path d="M214.426 183.75C213.693 183.75 213 185.06 213.981 185.06C214.714 185.06 215.406 183.75 214.426 183.75Z" fill="#8C664B"/>
<path d="M222.876 199.02C221.937 199.095 221.023 198.872 220.496 198.254C220.01 197.694 219.788 196.879 219.788 196.146C219.746 194.358 220.529 192.612 222.588 192.826C224.318 193.008 225.907 194.35 226.155 196.105C226.393 197.752 224.59 198.889 222.876 199.02Z" fill="#8C664B"/>
<path d="M245.526 189.507C245.188 189.532 244.875 189.433 244.595 189.268C243.821 189.268 243.17 188.658 242.874 187.991C242.627 187.448 242.693 186.756 243.104 186.303C243.467 185.907 243.945 185.611 244.496 185.603C245.691 185.586 246.506 186.657 246.646 187.744C246.745 188.543 246.44 189.449 245.526 189.507Z" fill="#8C664B"/>
<path d="M216.575 210.551C216.847 209.72 215.792 209.003 215.084 208.986C214.903 208.978 214.722 209.003 214.549 209.028C213.107 208.945 212.967 210.436 213.775 211.301C214.129 211.68 214.582 212.001 215.101 212.034C215.801 212.083 216.155 211.614 216.385 211.062C216.46 210.897 216.517 210.724 216.575 210.551Z" fill="#8C664B"/>
<path d="M236.796 211.532C236.17 212.059 235.272 212.092 234.474 211.853C234.441 211.853 234.399 211.861 234.366 211.861C233.254 211.861 232.118 211.07 231.978 209.917C231.846 208.838 232.604 207.677 233.617 207.331C234.737 206.952 236.088 207.463 236.846 208.327C237.653 209.266 237.826 210.683 236.796 211.532Z" fill="#8C664B"/>
</g>
<g opacity="0.57">
<path d="M113.783 221.168C113.421 221.135 113.066 221.226 112.86 221.465C112.671 221.679 112.589 222 112.589 222.28C112.572 222.973 112.877 223.656 113.676 223.566C114.344 223.492 114.962 222.973 115.06 222.297C115.143 221.663 114.442 221.218 113.783 221.168Z" fill="#8C664B"/>
<path d="M114.953 226.341C114.953 226.333 114.945 226.316 114.945 226.308C114.945 226.292 114.945 226.283 114.945 226.267C114.936 226.218 114.912 226.176 114.871 226.143C114.813 226.086 114.73 226.053 114.64 226.053C114.557 226.053 114.483 226.069 114.409 226.102C114.343 226.127 114.294 226.16 114.244 226.209C114.195 226.25 114.154 226.292 114.121 226.349C114.08 226.432 114.038 226.514 114.038 226.613C114.038 226.638 114.038 226.662 114.047 226.687C114.038 226.728 114.03 226.778 114.047 226.819C114.063 226.877 114.096 226.926 114.145 226.967C114.22 227.025 114.343 227.025 114.434 227.009C114.648 226.976 114.871 226.803 114.937 226.588C114.961 226.498 114.969 226.432 114.953 226.341Z" fill="#8C664B"/>
<path d="M109.344 219.398C109.237 219.15 109.08 218.936 108.767 218.961C108.537 218.977 108.331 219.117 108.174 219.29C107.811 219.678 107.877 220.353 108.52 220.312C108.603 220.32 108.677 220.329 108.759 220.329C109.08 220.32 109.55 219.999 109.426 219.628C109.402 219.554 109.377 219.472 109.344 219.398Z" fill="#8C664B"/>
<path d="M137.06 237.287C136.772 237.114 136.467 237.089 136.195 237.172C136.179 237.172 136.17 237.164 136.154 237.164C135.849 237.155 135.561 237.312 135.355 237.526C135.009 237.889 134.761 238.548 135.099 239.001C135.569 239.635 136.755 239.256 137.217 238.803C137.687 238.35 137.621 237.633 137.06 237.287Z" fill="#8C664B"/>
<path d="M120.627 228.26C120.363 228.26 120.124 228.722 120.47 228.722C120.726 228.73 120.973 228.26 120.627 228.26Z" fill="#8C664B"/>
<path d="M122.299 219.217C122.019 218.978 121.616 218.969 121.253 219.068C121.236 219.068 121.22 219.068 121.204 219.068C120.701 219.068 120.19 219.423 120.132 219.942C120.075 220.428 120.413 220.947 120.874 221.103C121.377 221.277 121.986 221.046 122.324 220.65C122.687 220.238 122.761 219.604 122.299 219.217Z" fill="#8C664B"/>
<path d="M125.372 219.496C125.042 219.496 124.729 220.081 125.166 220.081C125.503 220.089 125.817 219.496 125.372 219.496Z" fill="#8C664B"/>
<path d="M130.519 228.392C129.951 228.433 129.407 228.301 129.094 227.93C128.806 227.593 128.666 227.107 128.666 226.67C128.641 225.599 129.111 224.553 130.346 224.685C131.384 224.792 132.339 225.599 132.488 226.645C132.62 227.634 131.541 228.309 130.519 228.392Z" fill="#8C664B"/>
<path d="M139.366 222.083C139.209 222.092 139.069 222.05 138.946 221.976C138.6 221.976 138.303 221.704 138.171 221.399C138.056 221.152 138.089 220.847 138.278 220.641C138.443 220.46 138.657 220.328 138.905 220.328C139.44 220.32 139.811 220.806 139.869 221.292C139.91 221.655 139.778 222.059 139.366 222.083Z" fill="#8C664B"/>
<path d="M126.344 231.555C126.467 231.176 125.989 230.863 125.676 230.854C125.594 230.854 125.512 230.863 125.438 230.871C124.787 230.83 124.729 231.505 125.091 231.893C125.248 232.066 125.454 232.206 125.685 232.222C125.998 232.247 126.163 232.033 126.261 231.786C126.286 231.711 126.319 231.629 126.344 231.555Z" fill="#8C664B"/>
<path d="M136.92 231.827C136.78 231.942 136.574 231.95 136.401 231.901C136.393 231.901 136.385 231.901 136.376 231.901C136.129 231.901 135.874 231.719 135.841 231.464C135.808 231.217 135.981 230.961 136.212 230.879C136.467 230.797 136.772 230.912 136.937 231.102C137.11 231.316 137.151 231.629 136.92 231.827Z" fill="#8C664B"/>
<path d="M142.289 231.687C141.96 231.687 141.647 231.102 142.092 231.102C142.421 231.093 142.726 231.687 142.289 231.687Z" fill="#8C664B"/>
<path d="M146.622 221.72C146.053 221.679 145.51 221.811 145.197 222.181C144.909 222.519 144.769 223.005 144.769 223.442C144.744 224.512 145.213 225.558 146.449 225.427C147.487 225.32 148.442 224.512 148.59 223.466C148.73 222.478 147.643 221.803 146.622 221.72Z" fill="#8C664B"/>
<path d="M150.757 226.341C150.757 226.333 150.749 226.316 150.749 226.308C150.749 226.292 150.749 226.283 150.749 226.267C150.74 226.218 150.715 226.176 150.674 226.143C150.617 226.086 150.534 226.053 150.444 226.053C150.361 226.053 150.287 226.069 150.213 226.102C150.147 226.127 150.098 226.16 150.048 226.209C149.999 226.25 149.958 226.292 149.925 226.349C149.883 226.432 149.842 226.514 149.842 226.613C149.842 226.638 149.842 226.662 149.85 226.687C149.842 226.728 149.834 226.778 149.85 226.819C149.867 226.877 149.9 226.926 149.949 226.967C150.023 227.025 150.147 227.025 150.238 227.009C150.452 226.976 150.674 226.803 150.74 226.588C150.765 226.498 150.765 226.432 150.757 226.341Z" fill="#8C664B"/>
<path d="M155.864 232.502C155.765 232.494 155.674 232.527 155.592 232.568C155.369 232.568 155.171 232.749 155.089 232.939C155.015 233.095 155.04 233.301 155.155 233.433C155.262 233.549 155.402 233.639 155.567 233.639C155.913 233.648 156.16 233.326 156.201 233.013C156.218 232.782 156.127 232.519 155.864 232.502Z" fill="#8C664B"/>
<path d="M145.149 219.398C145.042 219.15 144.885 218.936 144.572 218.961C144.341 218.977 144.135 219.117 143.979 219.29C143.616 219.678 143.682 220.353 144.325 220.312C144.407 220.32 144.481 220.329 144.564 220.329C144.885 220.32 145.355 219.999 145.231 219.628C145.206 219.554 145.182 219.472 145.149 219.398Z" fill="#8C664B"/>
<path d="M148.995 236.184C148.707 236.011 148.402 235.986 148.13 236.068C148.113 236.068 148.105 236.06 148.089 236.06C147.784 236.052 147.495 236.208 147.289 236.423C146.943 236.785 146.696 237.444 147.034 237.898C147.504 238.532 148.69 238.153 149.151 237.7C149.621 237.247 149.563 236.53 148.995 236.184Z" fill="#8C664B"/>
<path d="M156.424 228.26C156.16 228.26 155.921 228.722 156.267 228.722C156.531 228.73 156.77 228.26 156.424 228.26Z" fill="#8C664B"/>
<path d="M158.104 219.217C157.824 218.978 157.42 218.969 157.058 219.068C157.041 219.068 157.025 219.068 157.008 219.068C156.506 219.068 155.995 219.423 155.937 219.942C155.879 220.428 156.217 220.947 156.679 221.103C157.181 221.277 157.791 221.046 158.129 220.65C158.483 220.238 158.566 219.604 158.104 219.217Z" fill="#8C664B"/>
<path d="M161.176 219.496C160.846 219.496 160.533 220.081 160.978 220.081C161.308 220.089 161.613 219.496 161.176 219.496Z" fill="#8C664B"/>
<path d="M166.316 228.392C165.748 228.433 165.204 228.301 164.891 227.93C164.603 227.593 164.463 227.107 164.463 226.67C164.438 225.599 164.908 224.553 166.143 224.685C167.181 224.792 168.136 225.599 168.285 226.645C168.425 227.634 167.346 228.309 166.316 228.392Z" fill="#8C664B"/>
<path d="M175.162 222.083C175.006 222.092 174.866 222.05 174.742 221.976C174.396 221.976 174.099 221.704 173.968 221.399C173.86 221.152 173.885 220.847 174.075 220.641C174.239 220.46 174.454 220.328 174.701 220.328C175.236 220.32 175.607 220.806 175.665 221.292C175.714 221.655 175.574 222.059 175.162 222.083Z" fill="#8C664B"/>
<path d="M162.141 231.555C162.264 231.176 161.786 230.863 161.473 230.854C161.391 230.854 161.309 230.863 161.234 230.871C160.583 230.83 160.526 231.505 160.888 231.893C161.045 232.066 161.251 232.206 161.482 232.222C161.795 232.247 161.959 232.033 162.058 231.786C162.091 231.711 162.116 231.629 162.141 231.555Z" fill="#8C664B"/>
<path d="M171.242 231.992C170.962 232.231 170.558 232.239 170.195 232.14C170.179 232.14 170.162 232.14 170.146 232.14C169.643 232.14 169.132 231.786 169.075 231.267C169.017 230.781 169.355 230.262 169.816 230.105C170.319 229.932 170.929 230.163 171.266 230.558C171.629 230.978 171.703 231.613 171.242 231.992Z" fill="#8C664B"/>
</g>
<g opacity="0.57">
<path d="M185.137 222.807C185.104 223.235 185.211 223.647 185.499 223.886C185.754 224.1 186.125 224.199 186.463 224.199C187.278 224.207 188.069 223.845 187.953 222.906C187.863 222.123 187.245 221.407 186.446 221.3C185.697 221.201 185.186 222.033 185.137 222.807Z" fill="#8C664B"/>
<path d="M191.182 221.374C191.165 221.374 191.157 221.382 191.14 221.382C191.124 221.382 191.107 221.382 191.091 221.39C191.033 221.407 190.984 221.431 190.951 221.481C190.885 221.555 190.844 221.646 190.844 221.753C190.844 221.843 190.869 221.934 190.901 222.025C190.934 222.099 190.976 222.156 191.025 222.214C191.066 222.272 191.124 222.321 191.19 222.362C191.289 222.412 191.388 222.461 191.503 222.453C191.528 222.453 191.561 222.453 191.585 222.445C191.635 222.453 191.692 222.461 191.742 222.445C191.808 222.42 191.865 222.379 191.907 222.321C191.973 222.231 191.973 222.09 191.956 221.983C191.915 221.736 191.709 221.481 191.462 221.407C191.363 221.357 191.289 221.357 191.182 221.374Z" fill="#8C664B"/>
<path d="M183.119 228.029C182.83 228.152 182.583 228.342 182.616 228.713C182.641 228.985 182.806 229.224 183.012 229.405C183.473 229.825 184.256 229.743 184.207 228.985C184.223 228.894 184.231 228.795 184.223 228.704C184.207 228.334 183.828 227.782 183.391 227.93C183.292 227.963 183.201 227.996 183.119 228.029Z" fill="#8C664B"/>
<path d="M208.282 238.663C208.001 238.49 207.696 238.465 207.433 238.547C207.416 238.547 207.408 238.539 207.392 238.539C207.095 238.531 206.807 238.687 206.609 238.893C206.263 239.248 206.024 239.899 206.353 240.344C206.815 240.97 207.985 240.591 208.438 240.154C208.899 239.701 208.842 239.001 208.282 238.663Z" fill="#8C664B"/>
<path d="M207.845 225.146C207.589 225.146 207.35 225.6 207.688 225.6C207.944 225.608 208.183 225.146 207.845 225.146Z" fill="#8C664B"/>
<path d="M208.265 220.303C207.985 220.073 207.59 220.056 207.236 220.163C207.219 220.163 207.203 220.163 207.186 220.163C206.692 220.163 206.189 220.509 206.131 221.02C206.074 221.498 206.412 222.009 206.857 222.165C207.351 222.33 207.952 222.108 208.29 221.72C208.644 221.309 208.719 220.682 208.265 220.303Z" fill="#8C664B"/>
<path d="M212.523 216.514C212.193 216.514 211.888 217.091 212.325 217.091C212.655 217.099 212.96 216.514 212.523 216.514Z" fill="#8C664B"/>
<path d="M217.588 225.278C217.028 225.319 216.493 225.187 216.18 224.825C215.892 224.496 215.76 224.01 215.76 223.581C215.735 222.527 216.196 221.497 217.415 221.621C218.437 221.728 219.376 222.519 219.524 223.557C219.664 224.528 218.593 225.196 217.588 225.278Z" fill="#8C664B"/>
<path d="M226.295 219.068C226.146 219.077 226.006 219.035 225.883 218.961C225.545 218.961 225.248 218.689 225.116 218.393C225.009 218.154 225.034 217.849 225.215 217.643C225.38 217.47 225.586 217.338 225.833 217.33C226.361 217.321 226.723 217.799 226.789 218.277C226.839 218.64 226.707 219.044 226.295 219.068Z" fill="#8C664B"/>
<path d="M213.479 228.391C213.602 228.021 213.133 227.707 212.82 227.699C212.737 227.699 212.663 227.707 212.581 227.716C211.946 227.675 211.88 228.342 212.235 228.721C212.391 228.886 212.597 229.026 212.82 229.051C213.133 229.075 213.289 228.861 213.388 228.622C213.421 228.54 213.454 228.466 213.479 228.391Z" fill="#8C664B"/>
<path d="M222.976 218.27C222.696 218.443 222.391 218.467 222.127 218.385C222.111 218.385 222.102 218.385 222.086 218.393C221.789 218.401 221.501 218.245 221.303 218.039C220.957 217.685 220.718 217.034 221.048 216.589C221.509 215.963 222.679 216.342 223.132 216.778C223.586 217.231 223.528 217.932 222.976 218.27Z" fill="#8C664B"/>
<path d="M223.89 228.656C223.75 228.771 223.552 228.779 223.379 228.73C223.371 228.73 223.363 228.73 223.355 228.73C223.107 228.73 222.86 228.557 222.827 228.301C222.794 228.063 222.967 227.807 223.19 227.725C223.437 227.642 223.742 227.758 223.907 227.947C224.08 228.153 224.121 228.466 223.89 228.656Z" fill="#8C664B"/>
<path d="M182.138 236.406C181.578 236.365 181.043 236.496 180.73 236.859C180.441 237.188 180.31 237.674 180.31 238.102C180.285 239.157 180.746 240.186 181.965 240.063C182.986 239.956 183.925 239.165 184.074 238.127C184.214 237.155 183.151 236.488 182.138 236.406Z" fill="#8C664B"/>
<path d="M185.531 244.782C185.457 244.774 185.391 244.798 185.334 244.831C185.169 244.831 185.029 244.963 184.963 245.103C184.913 245.219 184.922 245.367 185.012 245.466C185.086 245.548 185.193 245.614 185.309 245.614C185.564 245.622 185.737 245.392 185.77 245.153C185.795 244.988 185.729 244.79 185.531 244.782Z" fill="#8C664B"/>
<path d="M185.944 241.693C185.754 241.693 185.573 242.031 185.828 242.031C186.018 242.031 186.199 241.693 185.944 241.693Z" fill="#8C664B"/>
<path d="M199.846 228.359C199.649 228.606 199.632 228.952 199.731 229.265C199.731 229.281 199.731 229.29 199.731 229.306C199.739 229.743 200.052 230.18 200.497 230.229C200.918 230.278 201.371 229.974 201.503 229.578C201.643 229.141 201.445 228.614 201.099 228.326C200.728 228.013 200.176 227.955 199.846 228.359Z" fill="#8C664B"/>
<path d="M200.061 225.69C200.061 225.979 200.58 226.242 200.571 225.863C200.571 225.575 200.061 225.311 200.061 225.69Z" fill="#8C664B"/>
<path d="M202.013 242.797C201.602 242.83 201.206 242.731 200.976 242.459C200.762 242.212 200.663 241.858 200.663 241.537C200.646 240.754 200.984 239.988 201.89 240.087C202.648 240.17 203.34 240.754 203.447 241.52C203.554 242.237 202.763 242.731 202.013 242.797Z" fill="#8C664B"/>
<path d="M208.742 232.568C208.627 232.576 208.528 232.543 208.437 232.494C208.182 232.494 207.968 232.296 207.869 232.073C207.786 231.892 207.811 231.67 207.943 231.521C208.067 231.39 208.215 231.299 208.404 231.291C208.792 231.282 209.064 231.637 209.113 231.991C209.146 232.255 209.047 232.551 208.742 232.568Z" fill="#8C664B"/>
<path d="M190.112 244.09C190.203 243.819 189.857 243.588 189.626 243.58C189.568 243.58 189.511 243.588 189.453 243.596C188.983 243.571 188.934 244.057 189.197 244.338C189.313 244.461 189.461 244.568 189.634 244.577C189.865 244.593 189.98 244.436 190.054 244.255C190.071 244.206 190.095 244.148 190.112 244.09Z" fill="#8C664B"/>
<path d="M198.711 221.012C198.868 221.259 198.892 221.522 198.818 221.761C198.818 221.778 198.818 221.786 198.826 221.794C198.835 222.058 198.703 222.313 198.522 222.487C198.208 222.791 197.64 223.014 197.244 222.726C196.692 222.322 197.005 221.292 197.393 220.888C197.788 220.484 198.406 220.526 198.711 221.012Z" fill="#8C664B"/>
<path d="M196.742 244.412C196.536 244.585 196.24 244.593 195.984 244.519C195.976 244.519 195.96 244.519 195.951 244.519C195.589 244.519 195.218 244.264 195.169 243.885C195.127 243.531 195.375 243.151 195.704 243.036C196.075 242.913 196.512 243.077 196.759 243.366C197.023 243.671 197.072 244.132 196.742 244.412Z" fill="#8C664B"/>
<path d="M180.573 245.384C180.236 245.178 179.882 245.153 179.56 245.252C179.544 245.252 179.527 245.244 179.511 245.244C179.157 245.235 178.819 245.417 178.58 245.664C178.168 246.092 177.888 246.858 178.275 247.385C178.827 248.126 180.211 247.682 180.755 247.155C181.306 246.627 181.241 245.795 180.573 245.384Z" fill="#8C664B"/>
<path d="M139.465 244.626C139.382 244.617 139.3 244.642 139.226 244.683C139.028 244.683 138.863 244.84 138.789 245.005C138.723 245.145 138.74 245.318 138.847 245.433C138.937 245.532 139.061 245.606 139.201 245.614C139.506 245.623 139.712 245.342 139.745 245.071C139.77 244.865 139.695 244.634 139.465 244.626Z" fill="#8C664B"/>
<path d="M139.95 240.952C139.728 240.952 139.514 241.356 139.81 241.356C140.041 241.356 140.247 240.952 139.95 240.952Z" fill="#8C664B"/>
<path d="M162.831 249.477C162.345 249.518 161.868 249.395 161.596 249.082C161.349 248.794 161.225 248.365 161.225 247.986C161.209 247.056 161.612 246.15 162.683 246.265C163.581 246.364 164.404 247.056 164.536 247.97C164.66 248.818 163.721 249.411 162.831 249.477Z" fill="#8C664B"/>
<path d="M144.901 243.802C145.008 243.481 144.596 243.201 144.324 243.192C144.25 243.192 144.184 243.201 144.118 243.209C143.558 243.176 143.5 243.761 143.813 244.099C143.953 244.247 144.126 244.371 144.332 244.387C144.604 244.404 144.744 244.222 144.835 244.008C144.86 243.934 144.885 243.868 144.901 243.802Z" fill="#8C664B"/>
<path d="M152.783 244.182C152.536 244.388 152.19 244.396 151.877 244.305C151.861 244.305 151.852 244.305 151.836 244.305C151.399 244.305 150.962 244 150.905 243.547C150.855 243.127 151.152 242.674 151.548 242.542C151.984 242.394 152.512 242.592 152.808 242.929C153.121 243.3 153.187 243.852 152.783 244.182Z" fill="#8C664B"/>
</g>
<path d="M95.5474 167.737C95.4156 166.922 94.6578 166.37 93.9577 166.032C92.368 165.266 90.1606 165.291 88.7192 166.378C87.9532 166.955 87.5003 167.919 87.838 168.866C88.1345 169.698 88.9252 170.101 89.7735 169.945C89.8312 169.937 89.8888 169.912 89.9382 169.871C91.1984 170.439 92.854 170.39 94.0154 169.887C94.8473 169.525 95.7039 168.726 95.5474 167.737Z" fill="#5A3B25"/>
<path d="M107.786 166.14C106.377 165.267 104.524 165.102 102.91 165.127C101.155 165.152 98.8409 165.44 97.7043 166.939C96.7159 168.248 97.7702 169.196 98.9563 169.739C99.401 170.39 100.356 170.81 101.007 171.032C103.313 171.848 107.448 172.408 108.89 169.83C109.639 168.487 109.038 166.914 107.786 166.14Z" fill="#5A3B25"/>
<path d="M128.972 167.351C127.53 166.428 125.455 166.865 124.038 167.639C123.362 168.001 122.605 168.636 122.547 169.476C122.539 169.616 122.555 169.739 122.58 169.855C122.555 170.2 122.704 170.522 123.14 170.686C123.362 170.769 123.601 170.835 123.848 170.876C123.873 170.884 123.898 170.892 123.923 170.892C123.947 170.901 123.98 170.901 124.013 170.901C125.207 171.082 126.608 170.884 127.67 170.579C128.42 170.365 129.202 170.003 129.598 169.294C130.034 168.504 129.68 167.795 128.972 167.351Z" fill="#5A3B25"/>
<path d="M146.58 164.55C144.085 163.076 141.045 163.265 138.632 164.822C137.685 165.432 136.589 166.428 136.433 167.614C136.276 168.825 137.232 168.866 138.146 168.998C138.154 168.998 138.154 168.998 138.163 168.998C139.431 169.83 141.243 169.921 142.685 169.838C144.307 169.748 146.276 169.451 147.47 168.24C148.821 166.873 148.014 165.399 146.58 164.55Z" fill="#5A3B25"/>
<path d="M159.603 167.227C158.598 165.546 155.979 165.275 154.232 165.332C152.857 165.373 149.134 166.469 150.394 168.536C150.394 168.775 150.493 169.006 150.715 169.212C152.058 170.422 154.702 170.595 156.399 170.48C157.947 170.365 160.83 169.294 159.603 167.227Z" fill="#5A3B25"/>
<path d="M179.125 167.095C177.156 166.247 174.496 166.049 172.428 166.601C171.448 166.864 170.122 167.507 169.776 168.553C169.702 168.767 169.694 168.957 169.718 169.113C169.628 169.212 169.545 169.311 169.463 169.41C169.035 169.961 169.282 170.629 169.867 170.892C172.478 172.07 175.632 171.988 178.342 171.147C179.298 170.851 180.475 170.348 180.797 169.302C181.151 168.149 180.039 167.49 179.125 167.095Z" fill="#5A3B25"/>
<path d="M196.651 166.963C194.864 165.728 192.327 165.926 190.309 166.815C189.139 166.898 188.06 167.4 187.154 168.594C186.973 168.841 186.907 169.278 187.105 169.533C189.115 172.144 194.139 170.258 196.305 168.767C196.816 168.405 197.351 167.449 196.651 166.963Z" fill="#5A3B25"/>
<path d="M209.962 166.864C208.339 165.233 205.992 165.208 203.842 165.208C202.45 165.208 198.686 165.917 200.333 168.141C201.28 169.409 203.455 169.821 204.913 169.969C206.733 170.142 208.949 169.697 209.896 167.943C210.052 167.663 210.242 167.152 209.962 166.864Z" fill="#5A3B25"/>
<path d="M215.076 165.333C213.478 164.863 211.049 165.333 210.48 167.128C210.192 168.042 210.81 169.13 211.584 169.607C212.581 170.225 213.923 169.69 214.879 169.163C216.304 168.372 217.127 165.934 215.076 165.333Z" fill="#5A3B25"/>
<path d="M248.048 166.683C247.447 165.596 245.948 165.291 244.778 165.225C243.979 164.937 242.999 164.912 242.299 164.97C240.849 165.077 238.403 165.884 238.699 167.787C238.947 169.385 241.179 169.467 242.414 169.442C244.103 169.409 245.997 169.204 247.48 168.347C248.032 168.026 248.361 167.26 248.048 166.683Z" fill="#5A3B25"/>
<path d="M251.771 166.864C251.647 166.436 251.194 166.23 250.725 166.337C250.362 166.428 250.057 166.592 249.81 166.831C249.679 166.93 249.547 167.045 249.44 167.169C249.398 167.218 249.357 167.268 249.316 167.317C249.308 167.334 249.291 167.35 249.275 167.367H249.283C249.258 167.4 249.242 167.441 249.217 167.482C249.036 167.853 249.11 168.355 249.571 168.47C249.596 168.479 249.613 168.479 249.629 168.479C249.72 168.528 249.818 168.569 249.926 168.586C250.42 168.66 250.996 168.388 251.301 167.984C251.367 167.927 251.433 167.869 251.491 167.803C251.688 167.737 251.878 167.572 251.952 167.4C252.051 167.218 252.034 166.914 251.771 166.864Z" fill="#5A3B25"/>
<path d="M98.5617 169.278C98.1169 168.026 96.6672 167.952 95.3988 168.355C94.3362 168.347 93.2408 168.685 92.7136 169.657C91.7499 171.444 94.3528 171.798 95.5471 171.782C96.8567 171.757 99.1959 171.082 98.5617 169.278Z" fill="#82583D"/>
<path d="M113.362 169.599C113.099 169.451 112.819 169.368 112.531 169.385C112.432 169.36 112.325 169.344 112.209 169.335C111.493 169.319 110.957 169.821 110.669 170.431C110.554 170.678 110.653 170.974 110.858 171.131C111.501 171.617 112.44 171.452 113.074 171.04C113.461 170.785 113.964 169.937 113.362 169.599Z" fill="#82583D"/>
<path d="M130.841 168.767C130.578 168.611 130.314 168.528 130.018 168.553C129.499 168.454 128.914 168.677 128.51 168.99C128.181 169.245 127.909 169.624 127.991 170.052C128.107 170.637 128.65 170.942 129.21 170.933C130.051 170.925 130.734 170.382 131.072 169.632C131.204 169.352 131.113 168.932 130.841 168.767Z" fill="#82583D"/>
<path d="M149.439 167.004C149.299 166.906 149.134 166.823 148.953 166.766C148.904 166.708 148.854 166.642 148.788 166.584C148.335 166.197 147.627 166.197 147.067 166.28C146.046 166.436 144.439 167.408 145.247 168.627C145.807 169.475 147.289 169.591 148.187 169.377C148.805 169.228 149.381 168.882 149.678 168.306C149.9 167.853 149.876 167.317 149.439 167.004Z" fill="#82583D"/>
<path d="M166.431 168.578C166.283 168.388 166.053 168.24 165.781 168.15C165.756 168.117 165.723 168.084 165.69 168.051C165.328 167.68 164.726 167.589 164.224 167.598C163.219 167.622 161.712 168.059 161.391 169.163C160.995 170.513 163.013 170.67 163.87 170.703C164.562 170.728 165.336 170.678 165.929 170.291C166.481 169.929 166.884 169.179 166.431 168.578Z" fill="#82583D"/>
<path d="M185.343 168.973C184.528 168.38 183.202 168.52 182.452 169.162C182.106 169.459 181.662 170.003 181.999 170.472C182.115 170.637 182.279 170.744 182.452 170.793C182.774 170.95 183.202 170.966 183.523 170.942C184.174 170.884 184.833 170.645 185.277 170.151C185.574 169.838 185.763 169.278 185.343 168.973Z" fill="#82583D"/>
<path d="M200.308 167.433C200.111 167.161 199.732 167.013 199.295 167.013C198.431 167.013 197.376 167.425 197.063 168.306C196.923 168.693 197.006 169.097 197.277 169.41C197.599 169.78 197.977 169.871 198.447 169.928C199.444 170.052 200.844 169.846 201.19 168.726C201.412 167.96 200.943 167.565 200.308 167.433Z" fill="#82583D"/>
<path d="M218.767 168.364C218.594 168.207 218.388 168.075 218.166 167.976C217.886 167.738 217.507 167.573 217.169 167.49C216.181 167.268 214.805 167.49 214.459 168.611C214.179 169.533 215.209 169.986 215.934 170.126C216.889 170.307 218.001 170.25 218.709 169.492C219.022 169.154 219.129 168.701 218.767 168.364Z" fill="#82583D"/>
<path d="M248.872 168.125C248.592 167.721 248.155 167.639 247.735 167.738C247.323 167.614 246.845 167.878 246.573 168.183C246.425 168.347 246.227 168.652 246.334 168.891C246.483 169.229 246.68 169.501 247.051 169.608C247.422 169.715 247.892 169.641 248.221 169.452C248.501 169.295 248.732 169.13 248.872 168.834C248.979 168.611 249.02 168.347 248.872 168.125Z" fill="#82583D"/>
<path d="M214.047 34.6837C213.841 33.8436 212.926 33.4564 212.07 33.3164C209.451 32.8881 207.251 33.1764 204.542 33.7859C203.43 34.033 201.123 34.4037 200.539 35.738C200.407 36.0345 200.242 36.2157 200.25 36.5122C200.283 37.9701 201.774 38.4314 202.977 38.5714C204.83 38.7773 206.699 38.5961 208.429 38.2501C210.159 37.9124 211.617 37.5665 213.042 36.6275C213.709 36.191 214.253 35.5238 214.047 34.6837Z" fill="#92C10B"/>
<path d="M195.104 39.3787C195.079 39.3457 195.137 39.354 195.063 39.2386C194.989 39.1315 194.75 39.0986 194.577 39.0903C193.95 39.0656 193.489 39.148 193.044 39.6506C192.97 39.733 193.028 39.7248 192.904 39.9143C192.78 40.1038 192.822 40.5322 193.176 40.6394C193.53 40.7465 193.852 40.7547 194.189 40.6641C194.519 40.5734 194.717 40.4663 194.997 40.2439C195.261 40.0296 195.351 39.7 195.104 39.3787Z" fill="#92C10B"/>
<path d="M170.501 267.475C223.796 267.475 267.001 224.27 267.001 170.975C267.001 117.679 223.796 74.4746 170.501 74.4746C117.206 74.4746 74.001 117.679 74.001 170.975C74.001 224.27 117.206 267.475 170.501 267.475Z" fill="#F2E8BD"/>
<path d="M239.928 166.865C239.904 165.456 238.322 164.855 237.144 164.69C234.5 164.32 230.794 165.02 229.155 167.342C228.537 168.215 228.166 169.435 229.064 170.258C229.781 170.917 230.909 171.016 231.84 171.041C233.882 171.09 236.634 170.859 238.371 169.673C238.973 169.262 239.731 168.553 239.722 167.746C239.854 167.482 239.936 167.186 239.928 166.865Z" fill="#6E4931"/>
<path d="M251.879 168.075C248.774 167.738 245.627 168.009 242.522 168.29C239.31 168.586 236.114 168.99 232.91 169.294C229.673 169.599 226.379 169.896 223.125 169.616C220.003 169.344 216.898 168.883 213.801 168.462C210.465 168.009 207.121 167.598 203.753 167.482C200.499 167.367 197.279 167.647 194.058 168.133C187.798 169.072 181.604 170.39 175.246 170.382C168.961 170.373 162.784 169.163 156.59 168.24C153.246 167.746 149.918 167.318 146.525 167.408C143.205 167.499 139.903 167.927 136.624 168.438C130.447 169.401 124.327 170.538 118.051 170.653C107.747 170.835 97.5582 169.014 87.2954 168.479C87.2954 168.817 87.2871 169.154 87.2871 169.492C87.2871 215.493 124.574 252.781 170.576 252.781C216.577 252.781 253.864 215.493 253.864 169.492C253.864 169.105 253.864 168.718 253.856 168.331C253.189 168.232 252.538 168.149 251.879 168.075Z" fill="#6E4931"/>
<path d="M102.335 177.68C105.251 178.783 108.216 179.533 111.346 179.607C114.451 179.681 117.54 179.162 120.521 178.33C126.188 176.757 131.418 173.99 137.324 173.248C140.479 172.853 143.707 173.067 146.878 173.092C150.132 173.117 153.377 173.108 156.631 172.977C162.833 172.721 169.002 171.972 175.023 173.965C177.856 174.904 180.607 176.041 183.573 176.527C186.793 177.054 189.882 176.551 193.012 175.752C195.894 175.011 198.753 174.097 201.71 173.685C204.436 173.298 207.195 173.463 209.905 173.924C212.887 174.434 215.794 175.283 218.743 175.909C221.84 176.568 225.003 176.938 228.165 176.807C233.956 176.568 239.581 174.813 245.396 174.797C248.123 174.789 250.841 175.126 253.567 175.209C253.6 175.209 253.633 175.209 253.674 175.209C253.806 173.314 253.872 171.403 253.872 169.476C253.872 169.089 253.872 168.702 253.864 168.315C253.205 168.224 252.546 168.133 251.887 168.068C248.782 167.73 245.635 168.002 242.53 168.282C239.318 168.578 236.122 168.982 232.918 169.287C229.681 169.591 226.386 169.888 223.133 169.608C220.011 169.336 216.906 168.875 213.809 168.455C210.473 168.002 207.129 167.59 203.76 167.475C200.507 167.359 197.286 167.639 194.066 168.125C187.806 169.064 181.612 170.382 175.254 170.374C168.969 170.366 162.792 169.155 156.598 168.232C153.254 167.738 149.926 167.31 146.533 167.4C143.213 167.491 139.91 167.919 136.632 168.43C130.455 169.394 124.335 170.53 118.059 170.646C107.755 170.827 97.566 169.007 87.3032 168.471C87.3032 168.809 87.2949 169.147 87.2949 169.484C87.2949 171.189 87.3444 172.886 87.4515 174.574C92.5582 174.616 97.5495 175.868 102.335 177.68Z" fill="#6E4931"/>
<path d="M102.648 173.586C104.642 173.059 106.52 172.12 108.595 171.938C109.74 171.84 110.901 172.021 112.046 172.111C113.29 172.202 114.534 172.235 115.777 172.111C118.034 171.881 120.332 170.925 122.614 171.172C123.627 171.279 124.582 171.625 125.571 171.848C126.839 172.136 128.091 172.153 129.351 171.815C131.518 171.23 133.42 170.019 135.727 170.003C136.863 169.995 138 170.176 139.12 170.349C140.446 170.546 141.756 170.604 143.098 170.579C144.408 170.555 145.726 170.472 147.035 170.423C148.131 170.382 149.177 170.365 150.248 170.637C151.45 170.942 152.628 171.403 153.872 171.452C155.115 171.502 156.277 171.032 157.43 170.629C158.427 170.283 159.407 170.019 160.477 170.11C161.581 170.209 162.652 170.505 163.723 170.744C164.909 171.016 166.111 171.082 167.306 171.288C168.302 171.461 169.241 171.815 170.205 172.111C171.432 172.49 172.701 172.762 173.986 172.787C175.172 172.811 176.341 172.622 177.511 172.408C178.54 172.218 179.578 171.996 180.624 171.905C181.81 171.807 182.996 171.98 184.182 172.004C185.294 172.029 186.365 171.815 187.461 171.765C188.548 171.716 189.586 171.905 190.665 172.062C191.974 172.251 193.144 172.194 194.404 171.774C195.376 171.452 196.299 170.999 197.287 170.728C198.959 170.266 200.82 170.242 202.534 170.225C203.382 170.217 204.247 170.225 205.087 170.332C205.103 170.332 205.12 170.34 205.136 170.34C206.092 170.184 207.08 170.176 208.019 170.192C209.625 170.217 211.223 170.373 212.821 170.522C213.455 170.579 214.089 170.645 214.732 170.686C215.654 170.744 216.593 170.711 217.516 170.761C219.484 170.859 221.412 171.115 223.298 171.7C225.028 172.243 226.683 173.124 228.52 173.223C230.596 173.339 232.597 172.49 234.549 171.889C235.505 171.592 236.477 171.337 237.481 171.222C238.585 171.082 239.714 171.123 240.826 171.181C243.041 171.296 245.265 171.518 247.456 171.074C249.433 170.678 251.418 170.653 253.427 170.621C253.567 170.621 253.716 170.612 253.856 170.612C253.864 170.242 253.864 169.871 253.864 169.492C253.864 169.105 253.864 168.718 253.856 168.331C253.197 168.24 252.538 168.15 251.879 168.084C248.774 167.746 245.627 168.018 242.522 168.298C239.31 168.594 236.114 168.998 232.91 169.303C229.673 169.607 226.379 169.904 223.125 169.624C220.003 169.352 216.898 168.891 213.801 168.471C210.465 168.018 207.121 167.606 203.753 167.491C200.499 167.375 197.279 167.655 194.058 168.141C187.798 169.08 181.604 170.398 175.246 170.39C168.961 170.382 162.784 169.171 156.59 168.248C153.246 167.754 149.918 167.326 146.525 167.416C143.205 167.507 139.903 167.935 136.624 168.446C130.447 169.41 124.327 170.546 118.051 170.662C107.747 170.843 97.5582 169.023 87.2954 168.487C87.2954 168.825 87.2871 169.163 87.2871 169.5C87.2871 170.481 87.3036 171.452 87.3366 172.424C90.3759 173.347 93.7034 173.47 96.8251 173.701C98.8101 173.833 100.688 174.105 102.648 173.586Z" fill="#986749"/>
<path opacity="0.57" d="M224.212 213.583C218.644 213.649 213.192 215.387 207.887 216.91C202.723 218.401 197.46 219.801 192.04 219.752C186.291 219.703 180.69 218.22 175.056 217.223C172.05 216.688 169.019 216.309 165.955 216.317C162.932 216.326 159.909 216.622 156.919 217.05C151.121 217.874 145.404 219.184 139.598 219.917C136.838 220.263 134.071 220.526 131.295 220.189C128.898 219.892 126.567 219.233 124.302 218.418C119.245 216.597 114.443 214.209 109.106 213.262C105.786 212.677 102.426 212.438 99.0654 212.232C113.611 236.522 140.191 252.781 170.567 252.781C200.705 252.781 227.103 236.777 241.723 212.8C235.892 213.484 230.085 213.517 224.212 213.583Z" fill="#8C664B"/>
<path d="M228.825 183.651C228.422 183.898 227.993 183.931 227.614 183.807C227.598 183.807 227.573 183.816 227.557 183.816C227.128 183.824 226.725 183.61 226.437 183.305C225.942 182.794 225.605 181.872 226.074 181.238C226.741 180.348 228.405 180.883 229.056 181.509C229.706 182.16 229.624 183.165 228.825 183.651Z" fill="#8C664B"/>
<path d="M229.179 228.524C228.85 228.524 228.545 227.947 228.981 227.947C229.311 227.939 229.616 228.524 229.179 228.524Z" fill="#8C664B"/>
<path d="M231.996 216.425C231.889 216.177 231.732 215.971 231.427 215.996C231.197 216.013 230.999 216.153 230.842 216.326C230.488 216.705 230.546 217.372 231.188 217.331C231.271 217.339 231.345 217.347 231.427 217.347C231.74 217.339 232.21 217.026 232.087 216.655C232.054 216.573 232.021 216.499 231.996 216.425Z" fill="#8C664B"/>
<path d="M229.822 170.349C229.97 170.061 230.011 169.732 229.805 169.452C229.797 169.443 229.789 169.427 229.781 169.419C229.336 168.002 227.112 168.257 225.959 169.073C225.596 169.328 225.3 169.773 225.39 170.234C225.39 170.242 225.399 170.25 225.399 170.259C225.382 170.44 225.407 170.638 225.506 170.843C225.671 171.198 225.951 171.354 226.272 171.387C227.17 171.815 228.504 171.535 229.286 170.975C229.443 170.868 229.599 170.703 229.731 170.514C229.772 170.465 229.805 170.407 229.822 170.349Z" fill="#5A3B25"/>
<path d="M234.541 168.496C233.808 167.845 232.325 167.812 231.469 168.2C231.222 168.315 230.999 168.504 230.867 168.727C230.555 168.974 230.365 169.328 230.464 169.764C230.661 170.605 231.724 170.58 232.399 170.481C233.24 170.366 234.113 170.036 234.632 169.344C234.837 169.073 234.788 168.718 234.541 168.496Z" fill="#82583D"/>
<path d="M234.046 38.9506C217.383 29.2314 201.536 29.5526 186.257 40.8779C179.849 45.6304 177.164 50.0205 175.154 56.9393C172.378 66.4773 178.177 74.0549 187.888 75.7764C194.214 76.8965 201.289 74.0385 206.395 70.5709C210.267 67.9434 212.944 64.8382 215.769 61.6259C218.594 58.4136 220.645 55.2014 223.396 52.1374C224.763 50.6136 225.809 49.4193 227.498 48.2003C228.807 47.2613 230.035 46.6024 231.764 45.9764C234.845 44.8727 238.115 44.4938 241.459 45.1115C241.945 45.2021 242.422 45.3339 242.925 45.4739C240.025 42.7394 237.645 41.0509 234.046 38.9506Z" fill="#67AD14"/>
<path d="M235.891 44.0902C233.996 44.3784 231.838 44.9715 230.141 45.4822C228.445 45.9928 227.184 46.4047 225.759 47.1707C224.335 47.9449 223.354 48.678 222.078 49.724C220.809 50.7701 219.59 51.9973 218.347 53.2246C217.103 54.4436 215.76 55.7697 214.401 56.9475C213.042 58.1253 211.601 59.2949 210.061 60.2669C208.52 61.2305 206.964 62.0377 205.201 62.606C203.438 63.1744 201.56 63.4874 199.682 63.438C197.813 63.3885 196.157 62.8284 194.938 61.4035C194.37 60.7363 194.123 59.9044 193.999 59.0972C193.826 57.9688 193.834 56.8734 194.139 55.7944C194.823 53.414 196.272 51.6596 198.035 49.9876C198.933 49.1392 199.921 48.4309 200.893 47.7225C201.865 47.0059 202.788 46.3882 203.817 45.7787C205.819 44.5926 207.845 43.5713 210.036 42.6982C212.219 41.8251 214.492 40.9273 216.782 40.2602C219.071 39.593 221.312 39.4036 223.717 39.7001C226.114 39.9966 228.403 40.8202 230.85 41.1579C233.296 41.5039 235.841 41.9404 238.238 42.6076C239.103 42.8465 239.935 43.1841 240.767 43.4807C240.519 43.2665 239.992 42.8217 239.811 42.6735C239.688 42.5746 239.778 42.6488 239.77 42.6488C235.874 40.9685 231.698 40.392 227.736 39.0906C223.783 37.7892 219.837 37.2868 215.917 38.2916C211.65 39.3789 207.73 40.6143 203.867 42.2369C200.012 43.8595 196.816 45.894 193.48 48.2085C191.726 49.4275 190.169 50.7536 188.629 52.1703C187.089 53.587 185.664 55.1931 184.321 56.7251C182.979 58.2571 181.834 59.7479 180.606 61.3129C180.186 61.8565 179.758 62.4743 179.231 62.8367C178.712 63.1991 178.415 63.3721 177.773 63.1579C177.122 62.9438 176.579 62.1366 176.274 61.5106C175.961 60.8764 175.739 60.2174 175.673 59.542C175.525 57.9771 175.788 56.478 176.233 55.0037C176.678 53.5293 177.312 52.1538 177.938 50.803C178.572 49.4522 179.264 48.2826 179.989 46.9895C178.012 50.3006 175.772 52.9033 174.973 56.931C173.07 66.5843 177.822 74.022 187.871 75.7846C194.411 76.9377 201.198 74.0302 206.403 70.5791C210.341 67.9598 212.935 64.8382 215.785 61.6341C218.635 58.4301 220.653 55.2096 223.412 52.1456C224.779 50.6218 225.825 49.4275 227.514 48.2085C228.823 47.2695 230.051 46.6106 231.78 45.9846C234.861 44.8809 238.139 44.502 241.475 45.1197C241.961 45.2103 242.455 45.3504 242.924 45.4739C242.48 45.0456 242.043 44.6338 241.582 44.2137C239.671 43.8678 237.785 43.8019 235.891 44.0902Z" fill="#409100"/>
<path d="M241.968 78.9062C225.701 76.0893 206.872 79.804 194.97 91.8376C189.971 96.8867 186.067 103.427 184.164 110.296C181.537 119.768 185.885 129.866 196.642 130.401C203.644 130.747 210.612 126.942 215.801 122.535C219.73 119.2 223.172 115.328 226.245 111.202C229.292 107.1 232.002 102.759 234.646 98.394C235.964 96.2277 237.241 94.0368 238.591 91.887C239.638 90.2315 240.824 88.6501 242.191 87.2499C244.621 84.7377 247.619 82.868 250.963 81.8384C251.449 81.6901 251.943 81.5584 252.437 81.443C249.035 80.2817 245.485 79.5157 241.968 78.9062Z" fill="#67AD14"/>
<path d="M245.403 83.5268C243.649 84.6964 242.01 86.0389 240.478 87.4886C239.086 88.7982 237.776 90.1819 236.533 91.6316C235.273 93.1059 234.086 94.6462 232.9 96.1782C231.591 97.8749 230.289 99.5799 228.939 101.252C227.555 102.973 226.122 104.662 224.598 106.268C223.115 107.833 221.542 109.324 219.837 110.65C218.198 111.927 216.444 113.047 214.549 113.895C212.68 114.735 210.67 115.328 208.627 115.493C206.823 115.641 204.83 115.295 203.726 113.722C203.216 112.989 202.969 112.108 202.878 111.226C202.754 109.999 202.862 108.714 203.166 107.528C203.842 104.893 205.473 102.619 207.276 100.634C208.199 99.6211 209.179 98.6739 210.176 97.7431C211.123 96.8618 212.095 95.9887 213.091 95.1651C215.035 93.5672 217.086 92.0928 219.219 90.7503C221.328 89.4324 223.511 88.2381 225.759 87.1838C227.975 86.146 230.256 85.2317 232.571 84.4328C234.91 83.6338 237.29 82.9585 239.687 82.3819C242.101 81.8053 244.547 81.3441 247.001 80.9652C247.891 80.8252 248.781 80.7099 249.67 80.5945C249.258 80.4792 248.838 80.3639 248.426 80.2568H248.418C244.3 80.3557 240.182 80.8746 236.146 81.6982C232.2 82.5054 228.329 83.6421 224.598 85.1576C220.545 86.8049 216.658 88.8558 212.976 91.228C209.311 93.5837 205.876 96.2605 202.647 99.1763C200.942 100.708 199.303 102.273 197.771 103.978C196.223 105.716 194.773 107.536 193.389 109.414C192.08 111.194 190.803 112.997 189.609 114.851C189.197 115.493 188.777 116.168 188.217 116.696C187.846 117.05 187.344 117.346 186.817 117.173C186.092 116.934 185.655 116.053 185.367 115.411C185.062 114.727 184.898 114.002 184.832 113.261C184.683 111.539 185.029 109.785 185.499 108.138C185.96 106.499 186.578 104.901 187.237 103.328C187.854 101.845 188.513 100.404 189.263 98.9869C187.014 102.504 185.252 106.342 184.156 110.296C181.529 119.768 185.878 129.866 196.635 130.401C203.636 130.747 210.604 126.942 215.793 122.535C219.722 119.199 223.165 115.328 226.237 111.202C229.285 107.1 231.994 102.759 234.638 98.3938C235.956 96.2276 237.233 94.0367 238.584 91.8869C239.63 90.2314 240.816 88.6499 242.183 87.2497C244.613 84.7376 247.611 82.8678 250.955 81.8383C251.441 81.69 251.935 81.5582 252.429 81.4429C251.861 81.2452 251.284 81.064 250.708 80.8911C248.822 81.4923 247.051 82.4395 245.403 83.5268Z" fill="#409100"/>
<path d="M222.514 81.6078C222.242 80.7594 221.262 80.4794 220.471 80.3805C218.066 80.084 215.48 80.9406 213.305 81.8713C212.407 82.2502 209.582 83.2716 209.401 84.6224C209.261 84.8859 209.17 85.1824 209.154 85.4954C209.063 87.0274 210.801 87.4063 211.995 87.3734C213.84 87.324 215.685 86.7968 217.407 86.1626C218.906 85.6025 220.619 84.9106 221.781 83.7657C222.316 83.2221 222.769 82.382 222.514 81.6078Z" fill="#92C10B"/>
<path d="M204.147 89.3007C204.147 89.2595 204.139 89.2183 204.114 89.1689C204.015 88.9959 203.776 88.9959 203.603 89.0535C203.002 88.9629 202.425 89.3089 202.095 89.8033C202.038 89.8857 202.005 89.9846 201.98 90.0835C201.749 90.3801 201.873 90.7591 202.244 90.891C202.549 91.0063 202.969 90.9157 203.257 90.8086C203.562 90.6932 203.809 90.4955 204.04 90.273C204.361 89.9764 204.402 89.5644 204.147 89.3007Z" fill="#92C10B"/>
<path d="M219.36 88.6582C212.177 93.559 205.646 99.2587 200.152 105.807C189.197 119.002 182.732 135.409 177.304 151.512C174.717 159.724 172.765 168.141 171.217 176.707C171.53 159.205 176.406 141.974 183.778 126.143C190.878 110.106 203.364 96.0629 219.36 88.6582Z" fill="#405621"/>
<path d="M215.11 39.7163C194.567 46.5939 186.726 59.4347 181.768 79.5815C178.737 91.4833 177.304 103.748 176.257 115.995C174.709 134.495 173.754 153.052 171.769 171.535C171.867 146.71 171.81 121.827 175.022 97.1666C176.842 84.8364 179.684 72.4733 185.433 61.1644C191.281 49.8638 202.821 42.1132 215.11 39.7163Z" fill="#405621"/>
<path d="M118.461 42.6239C128.633 40.9602 140.371 43.3817 147.734 50.9676C150.823 54.1469 153.228 58.257 154.381 62.5565C155.971 68.4869 153.195 74.7632 146.474 75.0432C142.1 75.2244 137.768 72.8029 134.555 70.0271C132.117 67.9186 129.992 65.4887 128.098 62.886C126.22 60.3079 124.556 57.5816 122.925 54.8388C122.118 53.4798 121.336 52.1043 120.504 50.7535C119.861 49.7157 119.128 48.719 118.28 47.8377C116.773 46.2563 114.919 45.0702 112.836 44.4113C112.531 44.3125 112.226 44.2301 111.913 44.156C114.046 43.4394 116.262 42.9864 118.461 42.6239Z" fill="#67AD14"/>
<path d="M116.294 45.4902C117.381 46.2315 118.395 47.0799 119.35 47.9942C120.215 48.8178 121.022 49.6909 121.796 50.6052C122.579 51.5277 123.304 52.4996 124.037 53.4633C124.844 54.534 125.651 55.6048 126.483 56.6508C127.339 57.7381 128.221 58.8006 129.16 59.8055C130.074 60.7938 131.054 61.7328 132.108 62.5647C133.122 63.3719 134.217 64.0803 135.395 64.6239C136.556 65.1592 137.808 65.5381 139.085 65.6534C140.205 65.7523 141.457 65.5546 142.157 64.5744C142.478 64.1214 142.635 63.5696 142.701 63.0177C142.783 62.2517 142.725 61.4528 142.544 60.7032C142.141 59.0559 141.128 57.6228 140.016 56.379C139.447 55.7448 138.838 55.1435 138.22 54.5587C137.635 53.9987 137.034 53.455 136.408 52.9361C135.205 51.923 133.929 50.9923 132.611 50.1439C131.301 49.3038 129.942 48.5543 128.55 47.8789C127.175 47.2199 125.758 46.6351 124.317 46.1245C122.859 45.6138 121.376 45.1773 119.885 44.8066C118.378 44.436 116.854 44.1312 115.322 43.8759C114.77 43.7853 114.21 43.7029 113.658 43.6288C113.914 43.5629 114.177 43.4887 114.441 43.4229C114.441 43.4229 114.441 43.4229 114.449 43.4229C117.019 43.5135 119.589 43.8594 122.101 44.3948C124.564 44.9219 126.969 45.6467 129.292 46.6187C131.812 47.6729 134.234 48.9743 136.515 50.4734C138.788 51.9642 140.922 53.6527 142.923 55.4977C143.977 56.4614 144.999 57.4498 145.938 58.5288C146.893 59.6242 147.791 60.7691 148.639 61.947C149.446 63.0589 150.229 64.1956 150.97 65.3652C151.226 65.7687 151.481 66.1888 151.827 66.5265C152.057 66.7489 152.362 66.9383 152.7 66.8313C153.153 66.683 153.433 66.1394 153.614 65.744C153.812 65.324 153.919 64.8627 153.96 64.4015C154.059 63.3225 153.853 62.2353 153.573 61.1974C153.293 60.1679 152.914 59.1712 152.519 58.1828C152.14 57.2521 151.736 56.3461 151.283 55.4648C152.667 57.6722 153.746 60.0855 154.413 62.5565C156.003 68.4868 153.227 74.7631 146.506 75.0432C142.132 75.2244 137.8 72.8028 134.588 70.0271C132.15 67.9185 130.025 65.4887 128.13 62.8859C126.252 60.3079 124.588 57.5816 122.958 54.8388C122.15 53.4797 121.368 52.1042 120.536 50.7534C119.894 49.7156 119.161 48.719 118.312 47.8377C116.805 46.2563 114.952 45.0702 112.868 44.4113C112.563 44.3124 112.258 44.2301 111.945 44.1559C112.299 44.0406 112.662 43.9253 113.024 43.8182C114.169 44.1971 115.265 44.7984 116.294 45.4902Z" fill="#409100"/>
<path d="M130.593 44.4194C130.766 43.8923 131.384 43.7193 131.878 43.6616C133.377 43.4887 134.992 44.0405 136.343 44.6335C136.894 44.8806 138.657 45.5313 138.764 46.3715C138.846 46.5362 138.904 46.7174 138.912 46.9233C138.962 47.8788 137.875 48.1094 137.125 48.0765C135.972 48.0353 134.827 47.6976 133.756 47.2857C132.826 46.9233 131.755 46.4868 131.038 45.7619C130.709 45.4242 130.437 44.8971 130.593 44.4194Z" fill="#92C10B"/>
<path d="M142.026 49.3286C142.026 49.3039 142.034 49.2709 142.051 49.2462C142.116 49.1391 142.265 49.1391 142.372 49.1803C142.751 49.1309 143.105 49.3451 143.311 49.6582C143.344 49.7159 143.369 49.7735 143.377 49.8312C143.517 50.0207 143.443 50.2514 143.204 50.3338C143.015 50.3997 142.751 50.3503 142.57 50.2761C142.38 50.202 142.224 50.0784 142.084 49.9383C141.886 49.7488 141.861 49.4852 142.026 49.3286Z" fill="#92C10B"/>
<path d="M135.692 51.0415C143.097 55.2586 149.011 61.6585 153.64 68.7255L153.796 69.2609C153.805 69.1785 153.805 69.0797 153.78 68.9891C153.772 68.9149 153.681 68.7749 153.714 68.8326L153.78 68.9314L153.92 69.1373C156.696 73.3709 159.224 77.7775 161.424 82.3571C167.889 96.7464 169.899 112.643 171.587 128.128C173.605 148.81 173.935 169.55 173.877 190.306C171.192 164.591 170.286 138.704 166.415 113.137C164.842 103.056 162.906 92.8917 158.969 83.469C156.984 78.8565 154.587 74.3593 152.091 69.9939C151.984 69.8374 151.82 69.508 151.82 69.2609L151.976 69.7963C149.835 66.238 147.545 62.7375 144.876 59.5581C142.133 56.4118 139.045 53.5372 135.692 51.0415Z" fill="#405621"/>
<path d="M155.65 110.041C154.225 107.792 152.569 105.692 150.757 103.74C149.019 102.125 147.166 100.643 145.206 99.3C141.458 97.1667 137.48 95.3794 133.304 94.2592C131.088 93.6662 128.84 93.3285 126.566 93.0731C124.301 92.826 122.028 92.6778 119.755 92.6613C115.225 92.6201 110.67 93.0649 106.271 94.1604C103.512 94.8522 100.819 95.7994 98.249 97.0102C101.593 96.9443 104.566 99.0529 106.864 101.334C109.657 104.102 111.864 107.421 114.269 110.526C116.88 113.903 119.623 117.198 122.728 120.13C125.842 123.071 129.359 125.682 133.238 127.527C136.253 128.952 139.481 129.99 142.768 130.558C146.137 131.134 149.752 131.233 153.014 130.055C154.563 129.495 155.996 128.622 157.149 127.444C158.615 125.954 159.505 124.01 159.686 121.926C160.048 117.659 157.865 113.533 155.65 110.041Z" fill="#67AD14"/>
<path d="M155.65 110.04C154.225 107.792 152.57 105.691 150.758 103.739C149.02 102.125 147.167 100.642 145.206 99.2998C141.459 97.1665 137.48 95.3792 133.304 94.259C131.089 93.666 128.84 93.3283 126.567 93.073C124.302 92.8259 122.029 92.6776 119.755 92.6611C119.739 92.6611 119.722 92.6611 119.706 92.6611C121.23 92.8506 122.737 93.1224 124.219 93.5013C126.954 94.2014 129.565 95.2557 132.036 96.6229C134.359 97.9161 136.583 99.4151 138.732 100.98C140.478 102.249 142.529 103.599 143.295 105.733C143.32 105.799 143.254 105.881 143.188 105.873C142.249 105.799 141.36 105.346 140.536 104.909C139.663 104.439 138.831 103.896 137.925 103.484C135.833 102.52 133.692 101.647 131.492 100.939C129.623 100.338 127.704 99.8682 125.793 99.3904C123.874 98.9127 121.938 98.4679 119.978 98.1961C118.306 97.9655 116.576 97.8337 114.896 98.0479C115.678 98.2538 116.477 98.4185 117.268 98.575C119.286 98.9621 121.353 99.2504 123.289 99.9588C125.191 100.651 127.036 101.474 128.824 102.422C131.583 103.879 134.219 105.601 136.649 107.578C138.625 109.184 140.511 110.963 142.068 112.989C143.419 114.752 144.77 117.009 144.514 119.331C144.391 120.435 143.88 121.423 143.122 122.222C142.126 123.268 140.841 123.845 139.416 124.018C137.818 124.216 136.187 123.944 134.647 123.515C133.148 123.104 131.698 122.519 130.298 121.835C126.929 120.204 123.931 117.956 121.221 115.394C119.813 114.06 118.479 112.643 117.194 111.185C115.999 109.834 114.896 108.418 113.767 107.018C111.543 104.25 109.155 101.45 106.033 99.6705C105.053 99.1104 104.015 98.6409 102.944 98.2867C104.394 99.0939 105.712 100.189 106.865 101.326C109.657 104.094 111.865 107.413 114.27 110.518C116.881 113.895 119.623 117.19 122.729 120.122C125.842 123.062 129.359 125.673 133.239 127.518C136.253 128.943 139.482 129.981 142.768 130.549C146.137 131.126 149.753 131.225 153.015 130.047C154.563 129.487 155.996 128.614 157.149 127.436C158.616 125.945 159.505 124.001 159.686 121.918C160.049 117.659 157.866 113.533 155.65 110.04Z" fill="#409100"/>
<path d="M122.291 106.243C121.682 105.288 120.891 104.456 120.076 103.673C119.137 102.767 118.099 101.87 116.88 101.375C115.595 100.856 114.178 101.268 113.519 102.537C112.934 103.657 113.396 104.752 114.046 105.733C115.183 107.429 117.572 109.892 119.894 110.04C120.347 110.164 120.809 110.213 121.253 110.123C122.028 109.958 122.703 109.307 122.901 108.541C123.098 107.718 122.719 106.91 122.291 106.243Z" fill="#92C10B"/>
<path d="M126.328 112.866C126.295 112.726 126.196 112.586 126.081 112.503C125.998 112.446 125.916 112.421 125.825 112.404H125.834C125.809 112.396 125.784 112.396 125.759 112.388C125.685 112.38 125.611 112.363 125.545 112.355C125.471 112.363 125.389 112.371 125.314 112.38C125.108 112.339 124.87 112.413 124.713 112.528C124.614 112.602 124.523 112.693 124.458 112.792C124.392 112.891 124.334 113.072 124.359 113.195C124.309 113.327 124.293 113.467 124.334 113.599C124.375 113.739 124.433 113.855 124.54 113.953C124.565 113.995 124.589 114.019 124.631 114.036C124.721 114.102 124.828 114.135 124.944 114.143C124.985 114.151 125.018 114.151 125.059 114.151C125.174 114.176 125.29 114.176 125.405 114.151C125.57 114.11 125.718 114.044 125.858 113.953C126.072 113.813 126.196 113.616 126.295 113.401C126.353 113.245 126.369 113.031 126.328 112.866Z" fill="#92C10B"/>
<path d="M130.948 101.73C154.159 107.891 167.519 130.13 171.308 152.673C172.527 160.177 172.675 167.82 171.686 175.283C171.299 167.771 170.435 160.375 168.787 153.168C163.466 131.044 152.298 111.564 130.948 101.73Z" fill="#405621"/>
<path d="M149.233 205.215C149.233 205.215 147.322 206.722 144.711 208.6C142.1 210.486 137.702 214.621 135.98 220.584C137.512 214.563 137.826 213.369 141.392 210.288C144.958 207.216 150.246 202.884 150.246 202.884L149.233 205.215Z" fill="#EBD9B3"/>
<path d="M135.981 220.823C135.965 220.823 135.94 220.823 135.924 220.815C135.8 220.782 135.726 220.658 135.759 220.534C137.291 214.514 137.604 213.262 141.244 210.123C144.77 207.084 150.049 202.76 150.107 202.71C150.189 202.645 150.305 202.636 150.395 202.702C150.478 202.768 150.511 202.883 150.469 202.982L149.448 205.305C149.432 205.338 149.407 205.371 149.382 205.396C149.366 205.412 147.438 206.928 144.852 208.789C143.304 209.901 138.115 214.052 136.212 220.65C136.179 220.757 136.088 220.823 135.981 220.823ZM149.654 203.682C148.064 204.992 144.284 208.114 141.549 210.469C138.922 212.734 138.073 213.995 137.2 216.927C139.597 212.273 143.304 209.333 144.58 208.41C146.936 206.713 148.748 205.305 149.053 205.066L149.654 203.682Z" fill="#BD7A43"/>
<path d="M140.699 210.799C140.699 210.799 133.056 213.5 128.213 220.403C128.658 217.322 132.224 214.316 134.901 212.99C137.578 211.672 140.699 210.799 140.699 210.799Z" fill="#EBD9B3"/>
<path d="M128.213 220.633C128.189 220.633 128.156 220.625 128.131 220.617C128.032 220.576 127.975 220.477 127.991 220.37C128.477 217.034 132.332 214.011 134.811 212.784C137.471 211.474 140.618 210.585 140.651 210.576C140.774 210.543 140.898 210.609 140.931 210.733C140.972 210.848 140.906 210.98 140.791 211.021C140.717 211.046 133.155 213.78 128.411 220.534C128.353 220.6 128.288 220.633 128.213 220.633ZM137.043 212.306C136.376 212.57 135.676 212.874 135.009 213.204C132.529 214.431 129.745 216.844 128.765 219.274C131.376 215.947 134.613 213.681 137.043 212.306Z" fill="#BD7A43"/>
<path d="M133.625 213.682C133.625 213.682 126.748 214.184 122.218 217.133C124.26 213.937 130.759 212.743 133.625 213.682Z" fill="#EBD9B3"/>
<path d="M122.226 217.363C122.168 217.363 122.11 217.339 122.061 217.297C121.987 217.223 121.97 217.1 122.028 217.009C124.136 213.698 130.701 212.479 133.699 213.459C133.806 213.492 133.872 213.599 133.856 213.706C133.839 213.813 133.757 213.904 133.641 213.912C133.576 213.92 126.764 214.448 122.349 217.322C122.308 217.355 122.267 217.363 122.226 217.363ZM131.261 213.599C128.625 213.599 125.199 214.497 123.28 216.243C126.336 214.637 130.042 213.92 132.076 213.632C131.821 213.607 131.549 213.599 131.261 213.599Z" fill="#BD7A43"/>
<path d="M162.123 193.14C162.123 193.14 159.372 197.909 161.901 205.28C164.429 212.652 168.943 217.421 167.18 224.793C167.18 219.48 165.418 215.469 163.326 211.787C161.234 208.097 161.011 206.582 161.011 206.582C161.011 206.582 158.59 211.68 157.824 216.227C157.494 212.43 159.471 207.875 159.471 207.875C159.471 207.875 151.547 217.092 149.9 223.59C148.912 220.123 153.64 212.422 159.142 207.002C160.805 205.28 158.277 195.635 162.123 193.14Z" fill="#EBD9B3"/>
<path d="M167.188 225.032C167.18 225.032 167.172 225.032 167.164 225.032C167.048 225.015 166.958 224.917 166.958 224.801C166.958 219.39 165.121 215.412 163.136 211.903C161.793 209.531 161.209 208.048 160.97 207.274C160.319 208.74 158.672 212.702 158.071 216.268C158.054 216.383 157.947 216.474 157.832 216.458C157.716 216.449 157.618 216.359 157.609 216.243C157.387 213.649 158.202 210.758 158.771 209.111C156.654 211.738 151.432 218.574 150.139 223.648C150.114 223.747 150.023 223.821 149.916 223.821C149.809 223.821 149.719 223.755 149.694 223.656C148.64 219.966 153.705 212.059 159.001 206.846C159.586 206.228 159.586 204.259 159.578 202.167C159.578 198.757 159.57 194.515 162.008 192.942C162.098 192.884 162.214 192.893 162.296 192.967C162.37 193.041 162.387 193.156 162.337 193.255C162.312 193.305 159.668 198.032 162.131 205.206C162.889 207.406 163.811 209.366 164.709 211.252C166.834 215.733 168.671 219.604 167.419 224.851C167.386 224.958 167.296 225.032 167.188 225.032ZM161.019 206.351C161.028 206.351 161.044 206.351 161.052 206.351C161.151 206.368 161.233 206.442 161.25 206.549C161.25 206.565 161.497 208.089 163.531 211.672C165.261 214.728 166.884 218.146 167.304 222.544C167.625 218.509 166.052 215.197 164.273 211.45C163.367 209.547 162.436 207.579 161.67 205.355C159.792 199.894 160.764 195.874 161.439 194.071C160.014 195.891 160.023 199.325 160.023 202.167C160.023 204.539 160.023 206.417 159.306 207.167C154.578 211.829 150.081 218.657 149.99 222.446C152.157 216.07 159.215 207.809 159.29 207.719C159.364 207.628 159.487 207.612 159.586 207.669C159.685 207.727 159.718 207.85 159.677 207.957C159.66 207.99 158.441 210.832 158.095 213.847C159.1 210.05 160.772 206.508 160.789 206.467C160.855 206.401 160.937 206.351 161.019 206.351Z" fill="#BD7A43"/>
<path d="M165.057 215.181C165.057 215.181 160.312 220.271 160.625 229.405C159.258 224.834 161.045 217.569 164.315 213.624L165.057 215.181Z" fill="#EBD9B3"/>
<path d="M160.625 229.636C160.526 229.636 160.436 229.57 160.403 229.471C159.035 224.9 160.74 217.577 164.134 213.467C164.183 213.41 164.257 213.377 164.34 213.385C164.422 213.393 164.488 213.443 164.521 213.517L165.262 215.074C165.303 215.156 165.287 215.263 165.221 215.329C165.172 215.378 160.543 220.46 160.856 229.389C160.864 229.504 160.773 229.603 160.658 229.628C160.65 229.636 160.641 229.636 160.625 229.636ZM164.265 214.052C161.638 217.421 160.114 222.775 160.427 226.975C160.872 220.065 164.142 215.889 164.776 215.139L164.265 214.052Z" fill="#BD7A43"/>
<path d="M174.429 209.456C174.429 209.456 170.928 219.596 173.02 227.832C170.599 221.655 171.587 213.303 173.35 207.232C174.346 208.863 174.429 209.456 174.429 209.456Z" fill="#EBD9B3"/>
<path d="M173.021 228.063C172.93 228.063 172.839 228.005 172.806 227.914C169.767 220.164 172.288 210.074 173.128 207.166C173.152 207.076 173.227 207.01 173.317 207.002C173.408 206.993 173.498 207.034 173.548 207.109C174.536 208.731 174.651 209.349 174.66 209.415C174.668 209.448 174.66 209.489 174.652 209.522C174.619 209.621 171.2 219.686 173.251 227.766C173.284 227.881 173.21 228.005 173.095 228.046C173.07 228.062 173.045 228.063 173.021 228.063ZM173.424 207.817C172.65 210.642 171.085 217.536 172.189 223.919C171.736 217.075 173.943 210.181 174.19 209.448C174.149 209.3 173.993 208.805 173.424 207.817Z" fill="#BD7A43"/>
<path d="M180.22 219.9C180.22 219.9 184.766 224.216 186.455 233.004C186.117 226.695 184.437 221.72 179.635 217.66C180.302 219.315 180.22 219.9 180.22 219.9Z" fill="#EBD9B3"/>
<path d="M186.454 233.235C186.347 233.235 186.248 233.161 186.224 233.046C184.576 224.422 180.104 220.106 180.063 220.065C180.005 220.015 179.98 219.941 179.989 219.867C179.989 219.851 180.038 219.274 179.412 217.742C179.371 217.643 179.404 217.528 179.494 217.47C179.577 217.404 179.7 217.413 179.783 217.479C184.239 221.251 186.306 225.896 186.685 232.988C186.693 233.112 186.603 233.219 186.479 233.227C186.471 233.235 186.463 233.235 186.454 233.235ZM180.458 219.801C180.977 220.337 184.066 223.672 185.911 229.784C185.186 224.924 183.382 221.391 180.17 218.434C180.409 219.183 180.45 219.612 180.458 219.801Z" fill="#BD7A43"/>
<path d="M150.765 192.514C150.765 192.514 150.098 192.333 147.718 195.636C145.337 198.938 141.137 203.378 137.727 203.378C142.66 200.199 144.794 197.975 146.194 195.216C147.594 192.456 148.994 191.731 148.994 191.731L150.765 192.514Z" fill="#EBD9B3"/>
<path d="M137.727 203.608C137.628 203.608 137.537 203.543 137.504 203.444C137.471 203.345 137.513 203.238 137.603 203.18C142.249 200.182 144.522 197.999 145.988 195.108C147.405 192.316 148.83 191.558 148.887 191.525C148.953 191.492 149.019 191.492 149.085 191.517L150.848 192.3C150.955 192.349 151.013 192.473 150.971 192.588C150.938 192.687 150.84 192.761 150.732 192.744C150.658 192.753 149.942 192.934 147.899 195.767C146.968 197.077 142.043 203.608 137.727 203.608ZM149.019 191.995C148.698 192.209 147.553 193.074 146.408 195.322C144.992 198.115 142.858 200.256 138.682 203.04C141.689 202.356 145.247 198.691 147.537 195.504C148.863 193.667 149.686 192.86 150.189 192.514L149.019 191.995Z" fill="#BD7A43"/>
<path d="M145.099 198.88C145.099 198.88 143.575 204.283 140.832 206.507C143.822 205.066 145.708 200.989 146.194 197.447C145.65 198.336 145.099 198.88 145.099 198.88Z" fill="#EBD9B3"/>
<path d="M140.833 206.73C140.758 206.73 140.684 206.688 140.635 206.623C140.569 206.524 140.594 206.392 140.684 206.318C143.336 204.168 144.86 198.864 144.869 198.814C144.877 198.773 144.901 198.74 144.926 198.715C144.934 198.707 145.462 198.18 145.989 197.315C146.046 197.225 146.162 197.183 146.26 197.216C146.368 197.249 146.425 197.356 146.409 197.463C145.923 200.98 144.037 205.198 140.915 206.705C140.907 206.721 140.866 206.73 140.833 206.73ZM145.305 198.995C145.165 199.49 144.201 202.653 142.496 205.016C144.168 203.361 145.289 200.816 145.783 198.435C145.569 198.724 145.387 198.913 145.305 198.995Z" fill="#BD7A43"/>
<path d="M138.765 191.105C138.765 191.105 137.118 197.695 131.665 200.297C126.221 202.9 125.142 205.742 125.142 205.742C125.142 205.742 128.28 202.818 130.751 201.673C133.23 200.536 137.686 198.905 139.828 191.023L138.765 191.105Z" fill="#EBD9B3"/>
<path d="M125.15 205.981C125.109 205.981 125.059 205.964 125.018 205.939C124.928 205.882 124.895 205.766 124.928 205.668C124.969 205.544 126.097 202.702 131.566 200.091C136.846 197.571 138.526 191.122 138.543 191.056C138.567 190.957 138.65 190.891 138.748 190.883L139.819 190.801C139.893 190.784 139.968 190.825 140.017 190.883C140.066 190.941 140.083 191.015 140.058 191.089C137.999 198.666 133.774 200.569 131.253 201.706L130.85 201.887C128.436 202.999 125.331 205.882 125.298 205.915C125.257 205.956 125.199 205.981 125.15 205.981ZM138.946 191.328C138.641 192.374 136.772 198.115 131.764 200.503C128.823 201.903 127.176 203.386 126.295 204.432C127.44 203.477 129.161 202.159 130.66 201.467L131.072 201.286C133.485 200.198 137.497 198.386 139.531 191.286L138.946 191.328Z" fill="#BD7A43"/>
<path d="M134.803 199.161C134.803 199.161 135.05 202.003 132.653 204.523C130.174 207.29 130.174 208.51 130.174 208.51C130.174 208.51 135.536 204.367 135.956 198.263L134.803 199.161Z" fill="#EBD9B3"/>
<path d="M130.182 208.74C130.149 208.74 130.116 208.732 130.083 208.715C130.001 208.674 129.951 208.592 129.951 208.509C129.951 208.46 129.984 207.167 132.488 204.366C134.778 201.953 134.58 199.202 134.572 199.177C134.564 199.095 134.597 199.021 134.662 198.971L135.816 198.082C135.89 198.024 135.989 198.016 136.063 198.057C136.145 198.098 136.194 198.189 136.186 198.279C135.774 204.407 130.371 208.649 130.322 208.69C130.281 208.723 130.231 208.74 130.182 208.74ZM135.041 199.268C135.058 199.869 135 202.389 132.826 204.687C131.491 206.178 130.898 207.208 130.627 207.817C131.961 206.59 135.157 203.23 135.676 198.774L135.041 199.268Z" fill="#BD7A43"/>
<path d="M138.271 191.031C138.271 191.031 131.501 188.346 126.386 190.701C129.359 188.584 135.545 188.831 139.424 190.619L138.271 191.031Z" fill="#EBD9B3"/>
<path d="M138.271 191.261C138.238 191.261 138.213 191.253 138.189 191.245C138.123 191.22 131.451 188.626 126.484 190.915C126.377 190.965 126.245 190.923 126.188 190.816C126.13 190.709 126.155 190.578 126.254 190.512C129.384 188.288 135.759 188.675 139.531 190.413C139.614 190.454 139.671 190.536 139.663 190.635C139.663 190.726 139.597 190.808 139.506 190.841L138.353 191.253C138.32 191.253 138.296 191.261 138.271 191.261ZM131.311 189.49C134.713 189.49 137.719 190.569 138.271 190.775L138.79 190.594C136.525 189.68 133.494 189.235 130.825 189.499C130.99 189.499 131.155 189.49 131.311 189.49Z" fill="#BD7A43"/>
<path d="M173.12 200.989C173.12 200.989 174.553 203.172 178.531 206.063C182.51 208.954 187.205 210.815 189.552 217.371C188.251 211.523 185.442 209.851 181.859 207.479C178.276 205.107 173.384 201.697 172.667 198.806C172.996 200.668 173.12 200.989 173.12 200.989Z" fill="#EBD9B3"/>
<path d="M189.56 217.602C189.462 217.602 189.379 217.544 189.346 217.446C187.477 212.232 184.075 210.008 180.788 207.858C179.998 207.339 179.182 206.812 178.408 206.244C174.438 203.361 172.997 201.195 172.939 201.104C172.931 201.088 172.922 201.079 172.914 201.063C172.898 201.03 172.766 200.668 172.445 198.831C172.42 198.707 172.502 198.592 172.626 198.567C172.75 198.534 172.865 198.617 172.898 198.74C173.639 201.738 179.281 205.478 181.991 207.273L182.37 207.521C185.796 209.786 188.506 211.573 189.783 217.306C189.808 217.429 189.742 217.544 189.618 217.577C189.602 217.602 189.577 217.602 189.56 217.602ZM173.334 200.89C173.499 201.129 174.998 203.213 178.672 205.881C179.438 206.442 180.245 206.969 181.027 207.479C183.597 209.16 186.233 210.881 188.193 214.011C186.768 211.013 184.643 209.604 182.106 207.924L181.727 207.669C178.342 205.428 174.842 202.9 173.235 200.544C173.293 200.75 173.318 200.849 173.334 200.89Z" fill="#BD7A43"/>
<path d="M176.909 204.267C176.909 204.267 182.707 204.078 186.166 205.618C183.885 204.012 180.953 202.982 176.126 203.238C176.645 203.756 176.711 204.201 176.909 204.267Z" fill="#EBD9B3"/>
<path d="M186.166 205.848C186.133 205.848 186.1 205.84 186.075 205.832C182.707 204.333 176.974 204.497 176.916 204.506C176.892 204.506 176.867 204.506 176.834 204.497C176.661 204.44 176.57 204.292 176.463 204.094C176.356 203.904 176.224 203.674 175.961 203.41C175.895 203.344 175.87 203.245 175.903 203.163C175.936 203.081 176.019 203.023 176.109 203.015C180.45 202.784 183.596 203.525 186.298 205.436C186.397 205.502 186.421 205.634 186.364 205.741C186.323 205.807 186.248 205.848 186.166 205.848ZM177.583 204.028C178.852 204.028 181.644 204.102 184.132 204.703C182.048 203.731 179.634 203.336 176.603 203.443C176.719 203.6 176.801 203.74 176.859 203.847C176.892 203.913 176.941 203.987 176.966 204.028C177.081 204.028 177.295 204.028 177.583 204.028Z" fill="#BD7A43"/>
<path d="M181.259 192.794C181.259 192.794 188.178 198.444 190.731 202.604C193.292 206.755 199.717 212.685 202.765 212.414C198.547 209.893 195.088 206.969 193.293 203.831C191.497 200.693 188.729 196.196 186.102 194.433L181.259 192.794Z" fill="#EBD9B3"/>
<path d="M202.558 212.652C199.271 212.652 193.011 206.754 190.532 202.727C188.02 198.649 181.175 193.032 181.109 192.974C181.019 192.9 181.002 192.777 181.052 192.686C181.109 192.587 181.225 192.546 181.332 192.579L186.175 194.21C186.191 194.218 186.216 194.226 186.233 194.235C188.901 196.03 191.652 200.503 193.497 203.715C195.145 206.59 198.398 209.53 202.887 212.207C202.969 212.256 203.019 212.363 202.994 212.454C202.969 212.553 202.887 212.627 202.788 212.635C202.706 212.643 202.632 212.652 202.558 212.652ZM182.345 193.403C184.338 195.108 188.918 199.21 190.927 202.479C193.333 206.392 198.686 211.301 201.775 212.083C197.657 209.505 194.667 206.705 193.086 203.946C191.273 200.791 188.572 196.393 185.994 194.638L182.345 193.403Z" fill="#BD7A43"/>
<path d="M196.125 207.57C196.125 207.57 206.363 209.885 211.684 216.153C208.504 211.252 202.212 207.027 195.293 206.483L196.125 207.57Z" fill="#EBD9B3"/>
<path d="M211.683 216.392C211.618 216.392 211.552 216.367 211.511 216.309C206.297 210.173 196.182 207.826 196.075 207.801C196.026 207.784 195.976 207.76 195.943 207.718L195.111 206.631C195.054 206.557 195.046 206.458 195.095 206.376C195.136 206.294 195.227 206.244 195.317 206.252C201.865 206.771 208.364 210.61 211.881 216.029C211.947 216.128 211.922 216.268 211.824 216.342C211.782 216.375 211.733 216.392 211.683 216.392ZM196.256 207.364C197.105 207.57 204.147 209.374 209.344 213.575C205.852 209.893 200.786 207.298 195.795 206.763L196.256 207.364Z" fill="#BD7A43"/>
<path d="M202.294 199.54C202.294 199.54 212.746 200.619 217.705 205.939C212.862 200.413 204.938 198.024 200.869 198.461L202.294 199.54Z" fill="#EBD9B3"/>
<path d="M217.704 206.17C217.638 206.17 217.581 206.145 217.531 206.096C212.696 200.907 202.376 199.787 202.269 199.77C202.228 199.762 202.186 199.745 202.154 199.721L200.72 198.633C200.646 198.576 200.613 198.477 200.638 198.386C200.663 198.296 200.745 198.23 200.836 198.222C204.674 197.81 212.754 199.927 217.877 205.783C217.96 205.882 217.951 206.022 217.861 206.104C217.811 206.145 217.762 206.17 217.704 206.17ZM202.384 199.317C203.06 199.391 208.702 200.116 213.495 202.595C209.336 199.819 204.509 198.534 201.495 198.642L202.384 199.317Z" fill="#BD7A43"/>
<path d="M183.366 194.771C183.366 194.771 186.34 199.218 187.88 204.638C189.42 210.058 193.711 214.505 194.156 217.866C194.593 221.226 195.581 226.753 198.67 229.142C195.919 223.286 195.589 222.964 194.708 216.779C193.72 210.815 191.85 211.359 190.087 206.911C188.325 202.463 187.336 199.647 185.903 196.723L183.366 194.771Z" fill="#EBD9B3"/>
<path d="M198.661 229.364C198.612 229.364 198.562 229.348 198.521 229.315C195.062 226.638 194.205 220.057 193.925 217.89C193.719 216.293 192.599 214.431 191.314 212.273C189.972 210.033 188.456 207.496 187.657 204.695C186.15 199.375 183.201 194.935 183.176 194.894C183.111 194.803 183.127 194.671 183.209 194.597C183.292 194.523 183.424 194.515 183.506 194.581L186.035 196.533C186.059 196.558 186.084 196.582 186.1 196.615C187.163 198.79 188.003 200.948 189.057 203.666C189.428 204.629 189.832 205.667 190.293 206.82C190.985 208.567 191.685 209.522 192.368 210.445C193.373 211.812 194.329 213.105 194.93 216.737C195.737 222.396 196.075 223.104 198.258 227.733L198.875 229.035C198.925 229.133 198.892 229.249 198.809 229.315C198.768 229.348 198.711 229.364 198.661 229.364ZM184.231 195.726C185.203 197.381 187.015 200.75 188.102 204.572C188.876 207.306 190.383 209.819 191.71 212.034C193.027 214.233 194.164 216.136 194.386 217.833C194.634 219.752 195.35 225.213 197.936 228.129L197.846 227.931C195.63 223.244 195.292 222.528 194.477 216.803C193.892 213.286 193.019 212.092 191.998 210.716C191.298 209.769 190.581 208.797 189.865 206.985C189.412 205.832 189 204.794 188.629 203.831C187.583 201.137 186.759 199.004 185.713 196.862L184.231 195.726Z" fill="#BD7A43"/>
<path d="M194.263 215.691C194.263 215.691 199.551 219.48 202.961 224.257C200.539 218.294 194.049 213.846 194.049 213.846L194.263 215.691Z" fill="#EBD9B3"/>
<path d="M202.961 224.488C202.887 224.488 202.821 224.455 202.772 224.389C199.419 219.703 194.181 215.922 194.131 215.881C194.082 215.84 194.041 215.782 194.041 215.716L193.818 213.871C193.81 213.781 193.851 213.69 193.926 213.649C194 213.6 194.099 213.608 194.173 213.657C194.239 213.698 200.754 218.212 203.175 224.167C203.216 224.274 203.175 224.398 203.076 224.455C203.035 224.48 202.994 224.488 202.961 224.488ZM194.477 215.568C195.07 216.005 198.719 218.756 201.734 222.322C199.411 218.336 195.598 215.296 194.329 214.349L194.477 215.568Z" fill="#BD7A43"/>
<path d="M183.473 209.077C183.473 209.077 183.695 214.604 185.787 219.266C183.036 215.362 182.484 208.641 182.484 208.641L183.473 209.077Z" fill="#EBD9B3"/>
<path d="M185.787 219.505C185.713 219.505 185.639 219.472 185.598 219.406C182.839 215.494 182.279 208.945 182.254 208.665C182.246 208.583 182.287 208.509 182.353 208.46C182.419 208.41 182.509 208.402 182.583 208.435L183.572 208.871C183.654 208.904 183.704 208.987 183.712 209.077C183.712 209.135 183.951 214.62 186.002 219.184C186.051 219.291 186.01 219.422 185.903 219.48C185.862 219.497 185.829 219.505 185.787 219.505ZM182.756 209.02C182.88 210.099 183.308 213.212 184.412 216.095C183.514 212.874 183.292 209.917 183.251 209.234L182.756 209.02Z" fill="#BD7A43"/>
<path d="M193.884 194.886C193.884 194.886 195.737 193.807 198.191 192.629C200.918 191.328 207.252 190.372 208.924 190.718C205.407 188.898 202.326 190.026 198.018 191.673C193.711 193.321 191.857 194.449 191.857 194.449L193.884 194.886Z" fill="#EBD9B3"/>
<path d="M193.883 195.116C193.867 195.116 193.85 195.116 193.834 195.108L191.808 194.672C191.717 194.655 191.643 194.581 191.627 194.482C191.61 194.392 191.651 194.293 191.734 194.243C191.808 194.194 193.653 193.09 197.928 191.451C202.079 189.862 205.357 188.61 209.022 190.504C209.121 190.553 209.171 190.677 209.138 190.784C209.096 190.891 208.989 190.957 208.874 190.932C207.309 190.611 201.033 191.509 198.29 192.819C195.868 193.972 194.015 195.051 193.999 195.059C193.966 195.108 193.925 195.116 193.883 195.116ZM192.516 194.359L193.85 194.647C194.229 194.433 195.943 193.461 198.101 192.431C200.324 191.369 205.036 190.496 207.639 190.43C204.632 189.409 201.824 190.479 198.109 191.904C195.144 193.024 193.34 193.922 192.516 194.359Z" fill="#BD7A43"/>
<path d="M205.325 190.817C205.325 190.817 210.25 196.97 217.729 196.624C212.803 197.489 208.669 195.495 204.18 190.99C205.061 190.817 205.325 190.817 205.325 190.817Z" fill="#EBD9B3"/>
<path d="M215.538 197.052C211.659 197.052 208.018 195.174 204.023 191.155C203.966 191.097 203.941 191.007 203.966 190.924C203.99 190.842 204.056 190.784 204.147 190.768C205.02 190.595 205.308 190.595 205.333 190.595C205.407 190.595 205.473 190.628 205.514 190.685C205.564 190.743 210.431 196.723 217.729 196.402C217.852 196.41 217.96 196.484 217.968 196.607C217.984 196.731 217.902 196.838 217.778 196.863C217.012 196.978 216.271 197.052 215.538 197.052ZM204.657 191.13C207.845 194.26 210.802 195.99 213.841 196.451C208.982 195.232 205.761 191.674 205.226 191.048C205.127 191.064 204.946 191.081 204.657 191.13Z" fill="#BD7A43"/>
<path d="M189.436 193.963C181.216 192.415 173.96 186.105 173.96 176.46C173.96 170.497 174.651 165.028 174.454 156.849C172.856 157.253 171.085 157.426 169.685 156.874C169.8 160.465 169.776 163.908 169.611 167.128C168.952 179.492 166.802 187.349 155.831 190.273C148.986 191.929 146.639 190.454 142.908 190.141C139.185 189.828 134.383 191.319 132.505 194.441C132.505 194.441 135.767 190.15 142.899 191.22C150.032 192.291 155.716 194.795 163.689 189.318C159.817 195.149 152.932 198.609 150.024 203.485C147.125 208.369 145.189 213.846 145.914 219.085C146.515 212.183 148.937 203.962 153.895 199.91C158.854 195.866 166.349 190.15 169.001 184.549C167.675 196.096 171.538 203.007 175.047 210.741C178.556 218.484 181.455 225.032 181.208 230.978C181.57 222.05 180.598 219.785 177.823 213.83C175.047 207.875 171.662 199.663 172.263 192.159C172.749 187.275 173.474 184.063 174.322 186.089C175.17 188.115 177.23 192.637 189.074 195.256C200.918 197.876 203.817 201.804 205.028 205.618C204.542 199.202 197.656 195.512 189.436 193.963Z" fill="#EBD9B3"/>
<path d="M181.217 231.226H181.209C181.077 231.217 180.978 231.11 180.986 230.987C181.233 224.958 178.128 218.105 174.842 210.848C174.52 210.132 174.191 209.423 173.861 208.715C170.748 201.969 167.799 195.578 168.656 185.71C165.888 190.496 159.917 195.331 155.477 198.93C154.983 199.334 154.505 199.721 154.044 200.091C147.817 205.173 146.425 215.93 146.154 219.101C146.145 219.217 146.047 219.307 145.931 219.316C145.931 219.316 145.931 219.316 145.923 219.316C145.808 219.316 145.709 219.233 145.692 219.118C145.042 214.39 146.434 209.094 149.835 203.369C151.285 200.923 153.698 198.856 156.26 196.665C158.566 194.688 160.947 192.645 162.808 190.174C156.581 194.013 151.606 193.065 146.359 192.069C145.231 191.855 144.07 191.632 142.875 191.451C135.965 190.413 132.728 194.54 132.703 194.581C132.629 194.68 132.489 194.705 132.39 194.63C132.291 194.565 132.258 194.425 132.324 194.317C134.301 191.039 139.268 189.598 142.949 189.911C143.938 189.993 144.852 190.158 145.733 190.323C148.229 190.784 150.799 191.253 155.799 190.043C166.35 187.234 168.722 179.813 169.397 167.104C169.562 163.949 169.587 160.506 169.471 156.866C169.471 156.792 169.504 156.717 169.57 156.668C169.636 156.619 169.718 156.61 169.793 156.643C170.962 157.105 172.511 157.096 174.413 156.61C174.479 156.594 174.553 156.61 174.611 156.651C174.669 156.693 174.702 156.759 174.702 156.833C174.817 161.668 174.636 165.465 174.454 169.138C174.331 171.642 174.216 174.006 174.216 176.452C174.216 186.394 181.892 192.291 189.503 193.724C202.64 196.204 205.029 202.233 205.284 205.602C205.292 205.717 205.21 205.824 205.095 205.849C204.979 205.873 204.864 205.808 204.831 205.692C203.703 202.126 200.935 198.115 189.05 195.487C176.901 192.802 174.965 188.165 174.142 186.18C173.96 185.743 173.845 185.702 173.837 185.702C173.82 185.71 173.145 185.966 172.527 192.176C171.942 199.498 175.179 207.537 178.07 213.723C180.739 219.447 181.851 221.819 181.48 230.962V230.97C181.439 231.127 181.34 231.226 181.217 231.226ZM169.01 184.318C169.035 184.318 169.051 184.318 169.076 184.326C169.183 184.359 169.257 184.466 169.241 184.574C168.038 194.993 171.077 201.557 174.29 208.517C174.619 209.226 174.94 209.934 175.27 210.651C177.733 216.087 180.097 221.301 181.036 226.152C180.863 220.88 179.775 218.558 177.626 213.945C174.71 207.71 171.448 199.597 172.041 192.159C172.708 185.422 173.441 185.315 173.754 185.265C174.15 185.208 174.397 185.669 174.545 186.015C177.222 192.415 185.566 194.26 189.132 195.042C198.818 197.184 202.574 200.256 204.287 203.295C203.101 200.1 199.51 196.097 189.404 194.194C181.612 192.728 173.746 186.674 173.746 176.46C173.746 174.006 173.861 171.634 173.985 169.122C174.166 165.531 174.347 161.816 174.24 157.137C172.535 157.541 171.094 157.558 169.941 157.195C170.048 160.72 170.015 164.064 169.85 167.137C169.158 180.06 166.737 187.613 155.897 190.496C150.807 191.731 148.18 191.245 145.635 190.776C144.72 190.611 143.864 190.454 142.892 190.372C140.643 190.183 137.892 190.669 135.701 191.846C137.423 191.072 139.828 190.52 142.933 190.99C144.136 191.171 145.305 191.393 146.442 191.608C152.109 192.687 157.009 193.626 163.557 189.12C163.648 189.054 163.772 189.071 163.854 189.145C163.936 189.219 163.945 189.343 163.887 189.441C161.91 192.423 159.192 194.754 156.556 197.011C154.028 199.177 151.647 201.22 150.231 203.6C147.496 208.204 146.079 212.52 146.005 216.474C146.697 211.886 148.608 203.938 153.756 199.729C154.217 199.358 154.695 198.971 155.189 198.568C159.925 194.738 166.416 189.483 168.804 184.45C168.837 184.376 168.919 184.318 169.01 184.318Z" fill="#BD7A43"/>
<path opacity="0.4" d="M163.689 189.318C163.104 190.2 162.453 191.015 161.753 191.797C161.901 191.649 162.058 191.501 162.214 191.344C163.614 189.878 164.941 188.346 166.242 186.798C166.168 186.856 166.102 186.913 166.028 186.971C165.814 187.127 165.6 187.292 165.385 187.44C164.949 187.745 164.496 188.025 164.035 188.289C162.881 188.948 161.687 189.499 160.443 189.969C157.536 191.073 153.632 191.929 150.436 191.031C147.339 191.089 145.436 190.348 142.908 190.134C139.185 189.821 134.383 191.311 132.505 194.433C132.505 194.433 135.767 190.142 142.899 191.213C150.032 192.3 155.716 194.796 163.689 189.318Z" fill="#CB9049"/>
<path opacity="0.4" d="M189.437 193.963C181.216 192.415 173.96 186.105 173.96 176.46C173.96 170.497 174.652 165.028 174.454 156.849C173.828 157.006 173.186 157.113 172.543 157.17C172.453 162.598 172.156 168.018 172.066 173.454C172.024 175.571 172.214 177.688 172.206 179.804C172.197 181.724 171.991 183.635 171.662 185.529C171.341 187.399 170.937 189.26 170.731 191.146C170.525 193.074 170.575 194.96 170.847 196.879C171.168 199.177 171.736 201.483 171.926 203.814C172.897 206.153 173.993 208.418 175.055 210.766C178.564 218.508 181.464 225.056 181.216 231.003C181.579 222.075 180.607 219.81 177.831 213.855C175.055 207.9 171.67 199.688 172.272 192.184C172.757 187.3 173.482 184.088 174.331 186.114C175.179 188.14 177.238 192.662 189.082 195.281C200.927 197.9 203.826 201.829 205.037 205.643C204.542 199.202 197.657 195.512 189.437 193.963Z" fill="#CB9049"/>
<path d="M170.995 159.592C170.986 159.477 170.813 159.633 170.805 159.707C170.575 163.933 170.212 168.108 169.726 172.317C169.397 175.184 169.15 177.959 167.906 180.62C166.967 182.63 165.361 184.318 163.961 186.015C163.746 186.278 163.944 186.6 164.224 186.32C166.951 183.602 168.977 180.529 169.743 176.757C170.855 171.238 171.25 165.209 170.995 159.592Z" fill="#EBD9B3"/>
<path d="M187.674 172.144C197.813 164.213 204.493 152.08 201.717 140.293C201.347 138.737 200.07 131.859 193.744 126.398C190.96 123.993 189.008 123.417 187.435 123.301C182.254 122.923 178.375 127.329 177.963 127.815C177.37 127.626 172.066 126.011 167.42 128.375C163.846 130.195 162.264 133.68 162.075 136.925C162.058 137.18 162.033 137.51 162.042 137.93C162.042 137.93 162.025 144.568 166.654 150.177C167.552 151.265 168.507 152.171 168.507 152.171C169.512 153.118 170.204 153.579 171.514 154.6C172.304 155.169 173.408 156.017 174.578 157.129C175.986 158.463 179.38 161.758 180.945 166.873C181.579 168.949 182.534 172.227 181.068 175.941C180.903 176.362 180.739 176.699 180.623 176.938C183.169 175.521 185.491 173.849 187.674 172.144Z" fill="#67AD14"/>
<path d="M182.624 172.111C182.657 170.629 182.493 169.138 182.213 167.664C181.801 165.497 181.232 163.348 180.277 161.289C179.28 159.155 177.806 157.376 176.093 155.581C174.421 153.826 172.609 152.171 170.928 150.424C170.022 149.477 169.026 148.53 168.301 147.484C167.56 146.421 165.435 143.349 166.168 139.527C166.407 138.3 166.925 135.607 169.874 133.762C173.037 131.785 176.818 132.139 178.086 132.32C180.796 132.716 182.575 133.852 183.3 134.322C185.054 135.475 185.903 136.694 186.776 137.954C188.299 140.153 188.868 142.155 189.238 143.456C189.568 144.609 189.79 145.796 189.881 146.306C190.046 147.212 190.194 148.126 190.293 149.041C190.482 150.812 190.532 152.582 190.433 154.353C190.342 156.091 190.111 157.829 189.757 159.534C189.403 161.223 188.934 162.886 188.357 164.517C187.772 166.165 187.08 167.787 186.298 169.377C185.507 170.975 184.634 172.548 183.687 174.08C183.341 174.64 182.987 175.184 182.624 175.736C182.913 175.554 183.201 175.365 183.489 175.175C185.466 172.82 187.138 170.291 188.555 167.68C189.939 165.127 191.042 162.475 191.8 159.732C192.624 156.758 193.077 153.703 193.2 150.639C193.324 147.583 193.093 144.527 192.599 141.471C192.335 139.865 192.031 138.284 191.553 136.702C191.067 135.096 190.466 133.507 189.798 131.942C189.164 130.451 188.489 128.976 187.748 127.519C187.492 127.016 187.212 126.497 187.105 125.954C187.039 125.591 187.064 125.188 187.451 124.965C187.986 124.66 188.843 124.784 189.444 124.899C190.087 125.015 190.696 125.237 191.265 125.517C192.582 126.168 193.678 127.107 194.642 128.062C195.597 129.018 196.445 130.039 197.253 131.077C198.019 132.049 198.735 133.037 199.386 134.05C199.427 134.124 198.019 129.808 193.744 126.382C192.022 125.006 190.169 123.516 187.435 123.285C182.163 122.84 178.226 127.477 177.962 127.799C176.686 127.403 174.198 126.802 171.217 127.238C170.492 127.346 169.026 127.568 167.428 128.367C167.074 128.54 165.468 129.364 164.174 130.978C163.268 132.106 162.947 133.103 162.634 134.058C162.181 135.442 162.107 136.538 162.066 137.238C162.049 137.584 161.975 138.984 162.321 140.911C162.478 141.784 162.914 143.827 164.158 146.281C164.644 147.245 165.624 149.14 167.543 151.207C169.116 152.904 171.167 154.263 173.012 155.762C175.722 157.977 176.76 159.402 177.542 160.415C178.514 161.676 179.107 162.689 179.28 162.977C179.906 164.056 181.01 166.008 181.529 168.71C181.817 170.234 182.295 172.877 181.076 175.925C180.944 176.263 180.788 176.592 180.631 176.922C181.059 176.683 181.471 176.444 181.891 176.189C182.394 174.887 182.591 173.495 182.624 172.111Z" fill="#409100"/>
<path d="M183.168 145.59C184.33 145.763 184.808 145.178 185.022 144.651C185.681 143.045 184.824 140.813 183.836 138.844C183.424 138.037 182.386 135.558 180.607 134.833C180.269 134.619 179.89 134.429 179.47 134.273C177.436 133.54 176.752 134.627 176.662 135.5C176.522 136.851 177.016 138.408 177.683 139.923C178.259 141.249 178.993 142.781 180.393 144.116C181.035 144.742 182.106 145.434 183.168 145.59Z" fill="#92C10B"/>
<path d="M185.375 149.807C185.408 149.824 185.441 149.84 185.483 149.84C185.656 149.857 185.779 149.725 185.82 149.601C186.183 149.305 186.224 148.835 186.026 148.44C185.993 148.374 185.944 148.308 185.878 148.258C185.779 148.003 185.45 147.912 185.161 148.061C184.93 148.184 184.782 148.456 184.716 148.662C184.65 148.885 184.667 149.107 184.716 149.33C184.782 149.643 185.054 149.84 185.375 149.807Z" fill="#92C10B"/>
<path d="M192.261 152.789C191.627 146.15 190.227 139.544 186.644 133.944C183.127 128.392 177.394 124.142 170.591 127.297C171.884 126.16 173.515 125.369 175.294 125.023C178.951 124.257 182.567 126.111 185.277 128.499C191.767 134.52 193.925 144.313 192.261 152.789Z" fill="#405621"/>
<path d="M176.192 125.319C172.683 125.237 169.792 126.645 169.849 126.917C169.899 127.131 171.876 126.456 174.931 126.744C175.277 126.777 177.353 126.983 179.552 127.848C183.761 129.504 186.29 132.741 187.369 134.322C187.064 133.367 185.285 128.128 180.425 126.151C178.556 125.385 176.777 125.328 176.192 125.319Z" fill="#405621" stroke="#405621" stroke-miterlimit="10"/>
<path d="M136.343 89.0454C140.478 82.0607 147.537 76.8881 155.131 77.6706C156.136 77.7777 160.542 78.0165 164.471 81.5253C166.201 83.0738 166.72 84.2434 166.926 85.2236C167.584 88.4358 165.138 91.2198 164.875 91.5163C165.039 91.8705 166.481 95.0581 165.377 98.155C164.529 100.544 162.478 101.812 160.46 102.191C160.303 102.224 160.097 102.265 159.834 102.298C159.834 102.298 155.683 102.85 151.795 100.412C151.037 99.9341 150.403 99.4152 150.403 99.4152C149.727 98.8634 149.382 98.468 148.64 97.735C148.22 97.2819 147.602 96.6642 146.812 96.0218C145.856 95.2475 143.525 93.3943 140.198 92.8259C138.847 92.5953 136.722 92.2658 134.514 93.4849C134.267 93.6249 134.061 93.7567 133.93 93.8473C134.597 92.1423 135.454 90.5526 136.343 89.0454Z" fill="#67AD14"/>
<path d="M136.78 92.2002C137.702 92.0602 138.65 92.0437 139.597 92.0931C140.981 92.1755 142.381 92.3567 143.74 92.785C145.157 93.2298 146.392 94.0123 147.652 94.943C148.888 95.849 150.066 96.8456 151.301 97.7517C151.968 98.2459 152.644 98.7895 153.352 99.1601C154.077 99.539 156.169 100.618 158.508 99.8437C159.258 99.5967 160.897 99.053 161.811 97.0516C162.791 94.91 162.264 92.5791 162.05 91.7966C161.58 90.1328 160.724 89.1115 160.37 88.6996C159.505 87.6948 158.673 87.2665 157.816 86.8217C156.317 86.0475 155.016 85.8498 154.176 85.7262C153.426 85.6109 152.668 85.5697 152.339 85.5533C151.754 85.5203 151.178 85.5038 150.601 85.5203C149.481 85.545 148.361 85.6603 147.265 85.8662C146.186 86.0639 145.115 86.3522 144.078 86.7064C143.048 87.0606 142.051 87.4971 141.071 87.9913C140.083 88.4937 139.127 89.0538 138.197 89.6798C137.258 90.3058 136.352 90.9812 135.462 91.6978C135.141 91.9613 134.828 92.2249 134.515 92.4967C134.605 92.299 134.696 92.1096 134.795 91.9119C136.105 90.487 137.554 89.2268 139.07 88.1313C140.552 87.0606 142.125 86.1545 143.773 85.4544C145.568 84.6966 147.438 84.1613 149.349 83.84C151.252 83.5188 153.187 83.4118 155.131 83.4694C156.152 83.5024 157.174 83.5682 158.203 83.7412C159.249 83.9142 160.287 84.1613 161.325 84.4495C162.305 84.7214 163.285 85.0261 164.257 85.3721C164.595 85.4956 164.941 85.6274 165.287 85.6439C165.518 85.6603 165.773 85.6109 165.88 85.3474C166.028 84.9849 165.88 84.466 165.765 84.0954C165.641 83.7 165.452 83.3376 165.229 83.0081C164.719 82.2339 164.043 81.6244 163.359 81.1055C162.684 80.5866 161.976 80.1418 161.259 79.7135C160.584 79.3181 159.917 78.9475 159.225 78.6263C159.175 78.6016 161.992 79.137 164.48 81.5338C165.484 82.4975 166.564 83.5353 166.934 85.232C167.643 88.4937 165.056 91.3354 164.883 91.5248C165.237 92.2908 165.814 93.7981 165.781 95.7007C165.773 96.162 165.756 97.101 165.386 98.1635C165.303 98.4024 164.916 99.4731 164.018 100.412C163.384 101.071 162.791 101.351 162.215 101.623C161.383 102.018 160.707 102.15 160.271 102.232C160.057 102.274 159.184 102.43 157.948 102.372C157.388 102.348 156.078 102.241 154.439 101.656C153.797 101.425 152.537 100.972 151.079 99.9344C149.884 99.086 148.871 97.9164 147.784 96.8868C146.178 95.3713 145.206 94.8359 144.506 94.4323C143.641 93.9299 142.957 93.6334 142.76 93.551C142.035 93.2462 140.725 92.7109 138.987 92.612C138.007 92.5544 136.319 92.472 134.507 93.4769C134.309 93.5922 134.111 93.7075 133.922 93.8393C134.037 93.551 134.153 93.271 134.276 92.9909C135.059 92.5709 135.915 92.332 136.78 92.2002Z" fill="#409100"/>
<path d="M153.328 89.7126C153.122 88.996 153.451 88.6501 153.764 88.4771C154.711 87.9335 156.186 88.2876 157.495 88.7489C158.039 88.9383 159.67 89.3913 160.271 90.4456C160.436 90.6433 160.584 90.8575 160.716 91.1128C161.342 92.3236 160.716 92.8425 160.172 92.9743C159.34 93.1719 158.327 92.9907 157.322 92.6942C156.449 92.4389 155.428 92.1094 154.481 91.3352C154.028 90.9728 153.509 90.3633 153.328 89.7126Z" fill="#92C10B"/>
<path d="M150.51 88.675C150.494 88.6586 150.486 88.6339 150.478 88.6091C150.453 88.502 150.527 88.4114 150.601 88.3784C150.758 88.123 151.046 88.0653 151.31 88.1559C151.359 88.1724 151.4 88.1972 151.433 88.2301C151.598 88.2713 151.689 88.4691 151.615 88.6668C151.557 88.8234 151.4 88.9387 151.269 88.9964C151.137 89.0541 150.997 89.0623 150.848 89.0541C150.659 89.0294 150.519 88.8728 150.51 88.675Z" fill="#92C10B"/>
<path d="M148.089 84.6057C153.22 82.4065 159.777 82.9501 164.134 86.6731C165.905 88.2463 167.362 90.536 167.066 92.9658C166.934 94.1437 166.498 95.2391 165.806 96.0957C167.544 86.9449 154.785 84.7704 148.089 84.6057Z" fill="#405621"/>
<path d="M166.58 92.4224C166.918 94.6134 166.267 96.5407 166.094 96.516C165.954 96.4995 166.218 95.2146 165.79 93.3284C165.74 93.1143 165.444 91.8376 164.719 90.528C163.335 88.0241 161.111 86.7062 160.032 86.1626C160.658 86.2779 164.076 86.9615 165.707 89.8444C166.341 90.9563 166.523 92.06 166.58 92.4224Z" fill="#405621" stroke="#405621" stroke-miterlimit="10"/>
</svg>
