<svg width="360" height="510" viewBox="0 0 360 510" fill="none" xmlns="http://www.w3.org/2000/svg">
<path d="M360 0H0.00830078V403.982H360V0Z" fill="url(#paint0_linear_91_27379)"/>
<path d="M0.0083719 327.981C8.82398 320.256 22.8888 310.104 41.96 305.2C63.6599 299.616 82.0111 303.367 132.008 318.69C203.144 340.499 197.602 342.607 218.507 345.618C239.646 348.664 276.147 353.456 315.729 335.957C336.19 326.915 350.858 314.836 360 306.052C359.615 325.882 359.305 345.833 359.096 365.922C358.602 412.913 358.619 459.241 359.096 504.89C239.394 505.982 119.701 507.075 0 508.168C0.0083719 448.1 0.0083719 388.041 0.0083719 327.981Z" fill="url(#paint1_linear_91_27379)"/>
<path d="M0.00830078 406.021C0.00830078 408.395 22.2441 411.845 25.6012 412.215C63.9947 416.534 93.9661 388.926 127.705 375.488C153.08 365.379 175.701 364.872 201.905 370.644C228.796 376.572 256.381 378.706 283.313 371.444C299.304 367.134 308.856 366.463 326.462 367.762C340.711 368.812 352.298 371.986 360 374.576C359.749 419.717 359.489 464.85 359.238 509.991C239.495 509.612 119.752 509.242 0.00830078 508.864C0.00830078 474.58 0.00830078 440.305 0.00830078 406.021Z" fill="url(#paint2_linear_91_27379)"/>
<path d="M359.272 460.273C347.526 455.868 330.933 450.233 310.656 445.338C240.768 428.45 184.274 434.016 152.427 437.432C91.5217 443.97 51.6715 459.181 41.1145 463.353C39.4485 464.016 31.8133 468.618 20.6452 472.137C11.8882 474.899 4.50418 476.017 0.0168457 476.533C0.0168457 487.692 0.0168457 498.842 0.0168457 510C119.727 510 239.445 510 359.155 510C359.188 493.422 359.23 476.852 359.272 460.273Z" fill="url(#paint3_linear_91_27379)"/>
<defs>
<linearGradient id="paint0_linear_91_27379" x1="184.24" y1="125.678" x2="168.258" y2="398.319" gradientUnits="userSpaceOnUse">
<stop offset="0.3581" stop-color="white"/>
<stop offset="0.8078" stop-color="#CAF5FF"/>
</linearGradient>
<linearGradient id="paint1_linear_91_27379" x1="204.848" y1="200.11" x2="176.893" y2="426.513" gradientUnits="userSpaceOnUse">
<stop offset="0.3581" stop-color="white"/>
<stop offset="0.8078" stop-color="#CAF5FF"/>
</linearGradient>
<linearGradient id="paint2_linear_91_27379" x1="181.301" y1="117.504" x2="179.041" y2="567.707" gradientUnits="userSpaceOnUse">
<stop offset="0.3581" stop-color="white"/>
<stop offset="0.8078" stop-color="#CAF5FF"/>
</linearGradient>
<linearGradient id="paint3_linear_91_27379" x1="180.5" y1="299.181" x2="179.28" y2="542.168" gradientUnits="userSpaceOnUse">
<stop offset="0.3581" stop-color="white"/>
<stop offset="0.8078" stop-color="#CAF5FF"/>
</linearGradient>
</defs>
</svg>
