<svg width="105" height="105" viewBox="0 0 105 105" fill="none" xmlns="http://www.w3.org/2000/svg">
<path d="M52.4997 98C77.6287 98 97.9998 77.629 97.9998 52.5C97.9998 27.3711 77.6287 7 52.4997 7C27.3708 7 6.99976 27.3711 6.99976 52.5C6.99976 77.629 27.3708 98 52.4997 98Z" fill="white"/>
<path d="M52.9619 19.0098C50.5103 25.4171 47.4727 31.6095 43.9077 37.4796C40.6454 42.8613 36.8851 48.0575 35.0195 54.0643C34.0819 57.0824 33.4958 60.5986 34.5995 64.6227C36.5236 71.6258 43.7416 78.5996 53.0302 78.5507C60.8538 78.5117 67.4467 73.5011 70.201 67.4356C73.0042 61.253 71.5782 55.129 70.2987 51.9058C68.316 46.9343 65.0732 42.5878 62.2994 38.007C58.6464 31.9708 55.8042 25.4952 52.9619 19.0098Z" fill="#51D5F4"/>
<path d="M40.2745 61.8391C42.941 68.051 51.8194 73.3839 59.809 68.9398C69.5762 62.7279 66.9098 51.183 62.4754 43.1934C58.7151 35.6726 54.3296 27.5072 53.0696 19.2442C53.0305 19.166 53.0012 19.0781 52.9622 19C50.5106 25.4073 47.473 31.5997 43.9079 37.4698C41.8666 40.8297 39.6397 44.1116 37.7937 47.5692C37.4714 52.4235 38.5555 57.5512 40.2745 61.8391Z" fill="#51D5F4"/>
<path opacity="0.46" d="M70.2986 51.9062C68.3159 46.9347 65.0732 42.5883 62.2993 38.0074C58.6952 32.0494 55.8725 25.6519 53.0595 19.2544C54.3097 27.5175 58.7049 35.6731 62.4653 43.2036C66.8996 51.1932 69.5661 62.738 59.7989 68.95C59.0175 69.3895 58.2166 69.7216 57.4254 69.9853C56.8687 70.3369 56.2143 70.5909 55.4525 70.6886C49.3479 71.4797 44.5522 71.5676 39.5221 67.6021C37.1194 65.7073 35.2148 63.412 34.0134 60.7944C34.0525 62.0251 34.2185 63.2948 34.5897 64.6329C36.5138 71.636 43.7318 78.6098 53.0204 78.561C60.844 78.5219 67.4368 73.5113 70.1912 67.4459C73.0139 61.2632 71.5782 55.1294 70.2986 51.9062Z" fill="#32AFCC"/>
<path opacity="0.46" d="M50.6276 70.9221C49.9439 70.0039 48.9184 69.8086 48.6644 69.7598C47.424 70.9318 46.1836 72.0942 44.9529 73.2662C45.2654 73.4909 45.7245 73.8229 46.3105 74.1746C47.1798 74.702 47.6193 74.9657 48.0686 75.0536C49.1137 75.2587 50.3639 74.8973 50.9402 73.9499C51.5555 72.9146 51.1746 71.6644 50.6276 70.9221Z" fill="white"/>
<path opacity="0.46" d="M40.1172 63.5671C40.5079 63.1276 44.7078 60.6076 44.6492 60.4514C43.3989 57.15 43.3794 53.3701 44.4831 49.5999C45.5184 46.0349 47.6965 42.9094 49.0346 39.4616C50.2751 36.2872 51.0272 32.9566 51.2811 29.5576C49.5718 33.0152 47.5598 36.3068 45.5575 39.5983C44.0436 42.0987 42.3148 44.4526 41.0841 47.1093C38.8474 51.9441 37.5093 57.6872 39.7558 62.815C39.873 63.069 40 63.3132 40.1172 63.5671Z" fill="white"/>
<circle cx="52.5" cy="52.5" r="52" stroke="#51D5F4"/>
</svg>
