<svg width="29" height="23" viewBox="0 0 29 23" fill="none" xmlns="http://www.w3.org/2000/svg">
<path d="M22.3951 4.84181C22.2882 5.10942 21.8391 5.92542 21.1258 6.79609C21.7242 6.0038 22.1188 5.28726 22.2458 4.96129L22.2458 4.96131L22.2483 4.95464C22.7557 3.59552 23.7238 1.76783 24.3236 0.759269C24.3466 0.753584 24.3697 0.747919 24.3929 0.742276C24.2385 1.0107 24.068 1.31746 23.8914 1.64661C23.3618 2.63384 22.7663 3.84535 22.3951 4.84181Z" fill="#64D340" stroke="#64D340"/>
<path d="M23.9927 0.316406C23.398 1.29068 22.3243 3.28918 21.771 4.77141C21.4984 5.47088 19.5244 8.7934 16.7493 9.47622C16.1134 8.04396 14.4863 2.67298 23.9927 0.316406Z" fill="#63F23B"/>
<path d="M28.998 6.86115C28.9898 6.85299 28.9735 6.85299 28.9653 6.85299C28.9898 6.84483 29.0061 6.85299 28.998 6.86115Z" fill="#63F23B"/>
<path d="M28.163 6.11994C28.1549 6.11178 28.1385 6.11178 28.1304 6.11178C28.1549 6.10362 28.163 6.11178 28.163 6.11994Z" fill="#63F23B"/>
<path d="M15.7004 21.9999C14.9736 20.1929 14.1477 17.345 14.5028 13.9226C14.5937 13.0232 14.7589 12.1989 14.9489 11.4494M17.7655 8.59326C16.5845 9.35103 15.6677 10.317 14.9491 11.4578M14.6766 12.6737C14.594 11.7411 13.9993 10.95 13.1652 10.6585C12.1328 10.3005 11.249 10.8834 11.1499 10.95" stroke="#64D340" stroke-width="0.9987" stroke-miterlimit="10" stroke-linecap="round" stroke-linejoin="round"/>
<mask id="path-6-inside-1_175_3976" fill="white">
<path d="M11.5712 10.5089C10.7122 13.6649 6.28527 15.0055 5.46761 15.1138C3.41932 15.3386 0.280813 16.2379 0 16.4128C0.198221 15.9798 0.396451 15.5718 0.602932 15.1887C1.72619 14.8473 3.79099 14.331 5.28591 14.1645C6.04575 14.0646 9.95236 12.8821 11.1665 10.1675C11.4308 10.3673 11.5712 10.5089 11.5712 10.5089Z"/>
</mask>
<path d="M11.5712 10.5089C10.7122 13.6649 6.28527 15.0055 5.46761 15.1138C3.41932 15.3386 0.280813 16.2379 0 16.4128C0.198221 15.9798 0.396451 15.5718 0.602932 15.1887C1.72619 14.8473 3.79099 14.331 5.28591 14.1645C6.04575 14.0646 9.95236 12.8821 11.1665 10.1675C11.4308 10.3673 11.5712 10.5089 11.5712 10.5089Z" fill="#64D340"/>
<path d="M11.5712 10.5089L12.5361 10.7715L12.6877 10.2145L12.2812 9.80468L11.5712 10.5089ZM5.46761 15.1138L5.57672 16.1078L5.5878 16.1066L5.59886 16.1051L5.46761 15.1138ZM0 16.4128L-0.909257 15.9966L-2.29264 19.0185L0.528609 17.2617L0 16.4128ZM0.602932 15.1887L0.31212 14.2319L-0.0819109 14.3517L-0.277324 14.7142L0.602932 15.1887ZM5.28591 14.1645L5.39663 15.1583L5.40647 15.1572L5.41629 15.156L5.28591 14.1645ZM11.1665 10.1675L11.7696 9.36985L10.7669 8.61161L10.2536 9.75921L11.1665 10.1675ZM10.6063 10.2463C10.2814 11.4398 9.24272 12.3887 8.01225 13.0834C6.79023 13.7734 5.60041 14.0875 5.33636 14.1224L5.59886 16.1051C6.15247 16.0318 7.58495 15.6215 8.99555 14.825C10.3977 14.0334 12.002 12.7339 12.5361 10.7715L10.6063 10.2463ZM5.3585 14.1198C4.26503 14.2398 2.91541 14.5342 1.82351 14.8131C1.27283 14.9538 0.774485 15.0939 0.390934 15.2118C0.199951 15.2705 0.0306865 15.3258 -0.105426 15.3745C-0.20226 15.4092 -0.386726 15.4756 -0.528609 15.5639L0.528609 17.2617C0.45693 17.3063 0.43197 17.3064 0.568523 17.2575C0.665799 17.2227 0.803804 17.1773 0.97855 17.1235C1.32646 17.0166 1.79341 16.8851 2.3185 16.7509C3.37812 16.4803 4.62191 16.2126 5.57672 16.1078L5.3585 14.1198ZM0.909257 16.829C1.10178 16.4085 1.29021 16.0212 1.48319 15.6632L-0.277324 14.7142C-0.497303 15.1223 -0.705334 15.5511 -0.909257 15.9966L0.909257 16.829ZM0.893744 16.1455C1.98889 15.8126 3.98797 15.3153 5.39663 15.1583L5.17519 13.1706C3.59401 13.3468 1.46348 13.882 0.31212 14.2319L0.893744 16.1455ZM5.41629 15.156C5.93838 15.0873 7.21902 14.7208 8.52359 14.0304C9.82465 13.3418 11.3381 12.2331 12.0793 10.5758L10.2536 9.75921C9.78074 10.8165 8.73382 11.6563 7.58809 12.2626C6.44587 12.8671 5.39328 13.1418 5.15552 13.173L5.41629 15.156ZM10.5633 10.9651C10.6729 11.048 10.7541 11.1167 10.8048 11.1616C10.8301 11.184 10.8476 11.2003 10.8571 11.2094C10.8619 11.2139 10.8646 11.2165 10.8653 11.2172C10.8656 11.2176 10.8655 11.2174 10.8648 11.2167C10.8644 11.2164 10.864 11.2159 10.8634 11.2153C10.8631 11.215 10.8627 11.2147 10.8624 11.2143C10.8622 11.2141 10.862 11.2139 10.8618 11.2137C10.8617 11.2136 10.8616 11.2135 10.8615 11.2134C10.8614 11.2134 10.8614 11.2133 10.8613 11.2133C10.8613 11.2132 10.8612 11.2131 11.5712 10.5089C12.2812 9.80468 12.2811 9.8046 12.281 9.80452C12.281 9.80449 12.2809 9.80441 12.2808 9.80435C12.2807 9.80424 12.2806 9.80412 12.2805 9.80401C12.2803 9.80377 12.28 9.80353 12.2798 9.80327C12.2793 9.80277 12.2787 9.80223 12.2781 9.80165C12.277 9.8005 12.2757 9.79921 12.2743 9.79779C12.2714 9.79494 12.268 9.79154 12.2639 9.78762C12.2559 9.77977 12.2456 9.76982 12.2331 9.75794C12.208 9.73417 12.1739 9.70262 12.1311 9.66465C12.0455 9.58878 11.9243 9.48681 11.7696 9.36985L10.5633 10.9651Z" fill="#64D340" mask="url(#path-6-inside-1_175_3976)"/>
<path d="M1.30413 2.0566C1.29597 2.0566 1.28781 2.06477 1.27148 2.06477C1.27148 2.0566 1.27964 2.04844 1.30413 2.0566Z" fill="#63F23B"/>
<path d="M11.1661 10.1677C9.95197 12.8906 6.04536 14.0648 5.28551 14.1647C3.7906 14.3312 1.72579 14.8475 0.602539 15.1889C5.11207 6.54539 9.78678 9.1268 11.1661 10.1677Z" fill="#63F23B"/>
<path d="M1.86583 1.2734C1.85767 1.2734 1.8495 1.28156 1.83318 1.28156C1.82502 1.2734 1.84135 1.26524 1.86583 1.2734Z" fill="#63F23B"/>
</svg>
