<svg width="34" height="30" viewBox="0 0 34 30" fill="none" xmlns="http://www.w3.org/2000/svg">
<g style="mix-blend-mode:multiply" opacity="0.48">
<path d="M29.2897 25.6694L29.4197 25.4894L29.4997 25.3694L31.9297 21.8494C31.9297 21.8494 31.9197 21.8594 31.9097 21.8694C31.9397 21.8294 31.9597 21.7994 31.9897 21.7594C32.0097 21.7294 32.0197 21.7094 32.0397 21.6794C32.0597 21.6494 32.0797 21.6294 32.0897 21.5994C34.8597 17.4394 32.7997 11.6794 27.4997 8.72943C25.0797 7.37943 22.4097 6.85943 19.9497 7.06943C19.8897 7.06943 19.8197 7.07943 19.7597 7.08943C19.7597 7.08943 19.7497 7.08943 19.7397 7.08943C17.5497 7.29943 15.5497 8.09943 14.0397 9.43943L14.1197 9.47943C13.6597 9.89943 13.2497 10.3794 12.8897 10.9094C12.8697 10.9394 12.8597 10.9594 12.8397 10.9894C12.8197 11.0194 12.7997 11.0394 12.7897 11.0694C12.5097 11.4894 12.2797 11.9194 12.0997 12.3694C12.2297 12.0294 12.3797 11.7094 12.5597 11.3994L10.9397 14.1694C10.8297 14.3494 10.7297 14.5394 10.6497 14.7394C10.6897 14.6594 10.6997 14.5794 10.7397 14.4994C9.89975 16.0194 9.68975 17.8394 10.2797 19.7594C11.7497 24.5694 17.6797 28.1694 23.5197 27.8094C25.8797 27.6594 27.8497 26.8794 29.2797 25.6994L29.2897 25.6694Z" fill="#7F7F7F"/>
</g>
<path d="M11.3294 14.5895C11.2594 14.9195 11.2094 15.2495 11.1794 15.5895C11.1794 15.6495 11.1794 15.7095 11.1794 15.7695C11.1494 16.6195 11.2494 17.5095 11.5294 18.4295C13.0494 23.4795 18.8694 27.3395 24.5394 27.0595C26.8794 26.9395 28.8094 26.1295 30.1894 24.8695L32.4894 21.2395C31.1294 22.9695 28.8894 24.1095 26.0694 24.2495C20.3994 24.5295 14.5694 20.6595 13.0494 15.6195C12.4294 13.5395 12.6294 11.5795 13.4794 9.97949L11.9494 12.8395C11.8494 13.0295 11.7594 13.2295 11.6694 13.4295C11.5694 13.6695 11.4794 13.9195 11.4094 14.1795C11.3694 14.3095 11.3394 14.4495 11.3094 14.5795L11.3294 14.5895Z" fill="url(#paint0_radial_358_36429)"/>
<path d="M24.4296 27.3092C26.7196 27.1992 28.6196 26.4092 29.9896 25.1992L30.1096 25.0092C28.7396 26.2292 26.8296 27.0092 24.5396 27.1292C18.8696 27.4092 13.0396 23.5392 11.5296 18.4992C11.2496 17.5592 11.1396 16.6492 11.1796 15.7792C11.1796 15.7192 11.1796 15.6592 11.1796 15.5992C11.1996 15.2592 11.2496 14.9192 11.3296 14.5992C11.3596 14.4592 11.3896 14.3292 11.4296 14.1992C11.4996 13.9392 11.5896 13.6892 11.6896 13.4492C11.7196 13.3692 11.7396 13.2792 11.7796 13.1992C10.9896 14.7692 10.8196 16.6692 11.4196 18.6892C12.9396 23.7392 18.7596 27.5992 24.4296 27.3192V27.3092Z" fill="url(#paint1_linear_358_36429)"/>
<path d="M24.5398 27.0693C18.8698 27.3493 13.0398 23.4793 11.5298 18.4393C11.2498 17.5193 11.1498 16.6293 11.1798 15.7793C11.1398 16.6493 11.2498 17.5593 11.5298 18.4993C13.0498 23.5493 18.8698 27.4093 24.5398 27.1293C26.8398 27.0193 28.7398 26.2293 30.1098 25.0093L30.1898 24.8893C28.8198 26.1493 26.8798 26.9593 24.5398 27.0793V27.0693Z" fill="url(#paint2_radial_358_36429)"/>
<path d="M24.5398 27.0693C18.8698 27.3493 13.0398 23.4793 11.5298 18.4393C11.2498 17.5193 11.1498 16.6293 11.1798 15.7793C11.1398 16.6493 11.2498 17.5593 11.5298 18.4993C13.0498 23.5493 18.8698 27.4093 24.5398 27.1293C26.8398 27.0193 28.7398 26.2293 30.1098 25.0093L30.1898 24.8893C28.8198 26.1493 26.8798 26.9593 24.5398 27.0793V27.0693Z" fill="url(#paint3_linear_358_36429)"/>
<path d="M11.1797 15.5996C11.1997 15.2596 11.2597 14.9196 11.3297 14.5996C11.2597 14.9296 11.2097 15.2596 11.1797 15.5996Z" fill="url(#paint4_radial_358_36429)"/>
<path d="M11.1797 15.5996C11.1997 15.2596 11.2597 14.9196 11.3297 14.5996C11.2597 14.9296 11.2097 15.2596 11.1797 15.5996Z" fill="url(#paint5_linear_358_36429)"/>
<path d="M32.6495 20.9993C32.6495 20.9993 32.6195 21.0493 32.5995 21.0793C35.1495 16.7893 33.0395 10.7893 27.8695 7.63933C22.6995 4.47933 16.3995 5.35933 13.7495 9.58933C13.7695 9.55933 13.7795 9.53933 13.7995 9.50933C16.4195 5.21933 22.7595 4.30933 27.9695 7.47933C33.1795 10.6493 35.2695 16.7093 32.6495 20.9993Z" fill="url(#paint6_linear_358_36429)"/>
<path d="M18.4798 23.0191C23.6498 26.1791 29.9498 25.2991 32.5998 21.0691C32.5798 21.0991 32.5698 21.1191 32.5498 21.1491C29.9298 25.4391 23.5898 26.3491 18.3798 23.1791C13.1698 19.9991 11.0798 13.9491 13.6998 9.6591C13.7198 9.6291 13.7298 9.6091 13.7498 9.5791C11.1998 13.8691 13.3098 19.8691 18.4798 23.0191Z" fill="url(#paint7_linear_358_36429)"/>
<path d="M27.8698 7.62928C33.0398 10.7893 35.1398 16.7893 32.5998 21.0693C29.9498 25.2993 23.6598 26.1693 18.4798 23.0193C13.3098 19.8593 11.2098 13.8593 13.7498 9.57928C16.3998 5.34928 22.6898 4.47928 27.8698 7.62928Z" fill="url(#paint8_linear_358_36429)"/>
<path d="M27.8698 7.62928C33.0398 10.7893 35.1398 16.7893 32.5998 21.0693C29.9498 25.2993 23.6598 26.1693 18.4798 23.0193C13.3098 19.8593 11.2098 13.8593 13.7498 9.57928C16.3998 5.34928 22.6898 4.47928 27.8698 7.62928Z" fill="url(#paint9_linear_358_36429)"/>
<path style="mix-blend-mode:overlay" opacity="0.7" d="M32.6495 20.9993C32.6495 20.9993 32.6195 21.0493 32.5995 21.0793C35.1495 16.7893 33.0395 10.7893 27.8695 7.63933C22.6995 4.47933 16.3995 5.35933 13.7495 9.58933C13.7695 9.55933 13.7795 9.53933 13.7995 9.50933C16.4195 5.21933 22.7595 4.30933 27.9695 7.47933C33.1795 10.6493 35.2695 16.7093 32.6495 20.9993Z" fill="url(#paint10_linear_358_36429)"/>
<path d="M27.8698 7.62928C33.0398 10.7893 35.1398 16.7893 32.5998 21.0693C29.9498 25.2993 23.6598 26.1693 18.4798 23.0193C13.3098 19.8593 11.2098 13.8593 13.7498 9.57928C16.3998 5.34928 22.6898 4.47928 27.8698 7.62928Z" fill="url(#paint11_linear_358_36429)"/>
<path d="M27.8698 7.62928C33.0398 10.7893 35.1398 16.7893 32.5998 21.0693C29.9498 25.2993 23.6598 26.1693 18.4798 23.0193C13.3098 19.8593 11.2098 13.8593 13.7498 9.57928C16.3998 5.34928 22.6898 4.47928 27.8698 7.62928Z" fill="url(#paint12_linear_358_36429)"/>
<path style="mix-blend-mode:overlay" d="M18.4798 23.0191C23.6498 26.1791 29.9498 25.2991 32.5998 21.0691C32.5798 21.0991 32.5698 21.1191 32.5498 21.1491C29.9298 25.4391 23.5898 26.3491 18.3798 23.1791C13.1698 19.9991 11.0798 13.9491 13.6998 9.6591C13.7198 9.6291 13.7298 9.6091 13.7498 9.5791C11.1998 13.8691 13.3098 19.8691 18.4798 23.0191Z" fill="url(#paint13_linear_358_36429)"/>
<path style="mix-blend-mode:overlay" d="M18.4798 23.0191C23.6498 26.1791 29.9498 25.2991 32.5998 21.0691C32.5798 21.0991 32.5698 21.1191 32.5498 21.1491C29.9298 25.4391 23.5898 26.3491 18.3798 23.1791C13.1698 19.9991 11.0798 13.9491 13.6998 9.6591C13.7198 9.6291 13.7298 9.6091 13.7498 9.5791C11.1998 13.8691 13.3098 19.8691 18.4798 23.0191Z" fill="url(#paint14_linear_358_36429)"/>
<path style="mix-blend-mode:overlay" opacity="0.5" d="M24.5998 23.4198C22.7998 23.3098 21.3998 23.5698 21.4798 23.9998C21.5598 24.4298 23.0798 24.8698 24.8898 24.9898C26.6898 25.0998 28.0898 24.8398 28.0098 24.4098C27.9298 23.9798 26.4098 23.5398 24.5998 23.4198Z" fill="url(#paint15_linear_358_36429)"/>
<path d="M24.4598 22.4594C22.8398 22.4594 21.1698 21.9794 19.6698 21.0694C17.8198 19.9394 16.4398 18.2794 15.7898 16.3994C15.1398 14.5094 15.2898 12.6294 16.2298 11.0894C17.1698 9.54939 18.7698 8.54939 20.7498 8.26939C22.7198 7.98939 24.8198 8.44939 26.6698 9.57939C28.5198 10.7094 29.8998 12.3694 30.5498 14.2494C31.1998 16.1394 31.0498 18.0194 30.1098 19.5594C29.1698 21.0994 27.5698 22.0994 25.5898 22.3794C25.2098 22.4294 24.8398 22.4594 24.4498 22.4594H24.4598ZM21.8898 8.40939C21.5198 8.40939 21.1498 8.43939 20.7798 8.48939C18.8698 8.75939 17.3198 9.72939 16.4198 11.2094C15.5198 12.6894 15.3698 14.5094 15.9998 16.3294C16.6298 18.1594 17.9798 19.7794 19.7898 20.8794C21.5998 21.9794 23.6498 22.4394 25.5698 22.1594C27.4798 21.8894 29.0298 20.9194 29.9298 19.4394C30.8298 17.9594 30.9798 16.1394 30.3498 14.3194C29.7198 12.4894 28.3698 10.8694 26.5598 9.76939C25.0998 8.87939 23.4698 8.40939 21.8898 8.40939Z" fill="url(#paint16_linear_358_36429)"/>
<path d="M29.8182 19.3677C31.653 16.3595 30.1819 12.1165 26.5324 9.89059C22.883 7.66471 18.4372 8.2989 16.6024 11.3071C14.7676 14.3153 16.2387 18.5583 19.8882 20.7842C23.5376 23.0101 27.9834 22.3759 29.8182 19.3677Z" fill="url(#paint17_linear_358_36429)"/>
<path style="mix-blend-mode:multiply" opacity="0.59" d="M26.1198 10.91C29.2698 12.83 30.7898 16.26 29.9698 19.09C31.5598 16.1 30.0698 12.05 26.5298 9.89003C22.8798 7.66003 18.4398 8.30003 16.5998 11.31C16.3498 11.72 16.1598 12.15 16.0298 12.6C16.0798 12.51 16.1298 12.41 16.1898 12.32C18.0298 9.31002 22.4698 8.68002 26.1198 10.9V10.91Z" fill="url(#paint18_linear_358_36429)"/>
<path d="M19.8795 20.8003C23.5296 23.0303 27.9696 22.3903 29.8096 19.3803C29.8696 19.2903 29.9195 19.2003 29.9696 19.1003C30.7895 16.2603 29.2696 12.8403 26.1196 10.9203C22.4696 8.6903 18.0296 9.3303 16.1896 12.3403C16.1296 12.4303 16.0796 12.5203 16.0296 12.6203C15.2096 15.4603 16.7295 18.8803 19.8795 20.8003Z" fill="url(#paint19_linear_358_36429)"/>
<g style="mix-blend-mode:multiply">
<g opacity="0.63">
<path d="M22.8798 17.3297L23.7098 17.8297C23.7998 17.8797 23.9098 17.8697 23.9598 17.7897C24.4398 17.8297 24.6998 17.3297 24.6998 17.3297C25.2598 17.2097 25.5898 16.9797 25.7798 16.7097C25.9298 16.7997 26.1398 16.9297 26.3398 17.0897C26.3398 17.2397 26.3198 17.3797 26.2798 17.5197C25.7098 17.8197 25.7498 18.7397 25.7898 18.9097C25.8898 19.3197 25.9298 19.9697 25.9198 20.0397C25.9998 19.9797 26.0798 19.9197 26.1498 19.8497C27.4298 18.7297 26.8198 17.9497 26.4698 17.6497C26.5098 17.5197 26.5398 17.3897 26.5498 17.2497C26.8398 17.4997 27.0098 17.7397 27.0298 17.9297C27.0298 17.9797 27.0898 18.0297 27.1498 18.0297C27.2098 18.0297 27.2498 17.9897 27.2398 17.9297C27.2198 17.7997 27.1598 17.6497 27.0498 17.4997C27.2198 17.4997 27.4398 17.4997 27.6098 17.4697C27.6298 17.4797 27.6498 17.4897 27.6898 17.5097C27.6898 17.4897 27.6998 17.4597 27.7098 17.4397C27.7098 17.4597 27.6998 17.4897 27.6898 17.5097C28.0398 17.6797 29.1598 18.0697 29.5998 16.2297C29.3898 16.3297 28.9798 16.4897 28.6798 16.5597C28.5398 16.5997 27.9398 16.8697 27.7398 17.3297C27.9398 16.8697 28.5498 16.5897 28.6798 16.5597C28.9798 16.4897 29.3798 16.3297 29.5998 16.2297C29.6198 16.1497 29.6398 16.0597 29.6498 15.9697C29.5998 16.0097 28.9998 16.2697 28.5898 16.3697C28.4398 16.4097 27.7498 16.7197 27.6098 17.2497C27.6098 17.2497 27.6098 17.2497 27.5998 17.2497C27.4298 17.3097 27.0498 17.2897 26.8798 17.2797C26.7798 17.1797 26.6598 17.0697 26.5198 16.9597C26.2898 16.7797 26.0598 16.6297 25.8898 16.5297C26.2298 15.8097 25.7198 14.9097 25.7198 14.9097L25.7398 14.8697C25.7898 14.7897 25.7498 14.6897 25.6598 14.6297L24.8498 14.1397C24.7998 13.0397 24.1398 11.9997 22.9498 11.2697C21.0698 10.1297 19.0698 10.4697 18.0398 12.1597C17.0098 13.8497 17.6798 15.8297 19.4998 16.9397C20.6498 17.6397 21.8898 17.7597 22.9098 17.3097L22.8798 17.3297ZM19.2198 12.9197C19.9398 11.7397 21.1498 11.7597 22.2398 12.4297C23.3298 13.0997 23.8398 14.1297 23.1198 15.3097C22.3998 16.4897 21.2398 16.4997 20.1598 15.8397C19.0798 15.1797 18.4998 14.0997 19.2198 12.9297V12.9197Z" fill="url(#paint20_linear_358_36429)"/>
</g>
</g>
<path d="M22.9398 17.2301L23.7698 17.7301C23.8598 17.7801 23.9698 17.7701 24.0198 17.6901C24.4998 17.7301 24.7598 17.2301 24.7598 17.2301C25.3198 17.1101 25.6498 16.8801 25.8398 16.6101C25.9898 16.7001 26.1998 16.8301 26.3998 16.9901C26.3998 17.1401 26.3798 17.2801 26.3398 17.4201C25.7698 17.7201 25.8098 18.6401 25.8498 18.8101C25.9498 19.2201 25.9898 19.8701 25.9798 19.9401C26.0598 19.8801 26.1398 19.8201 26.2098 19.7501C27.4898 18.6301 26.8798 17.8501 26.5298 17.5501C26.5698 17.4201 26.5998 17.2901 26.6098 17.1501C26.8998 17.4001 27.0698 17.6401 27.0898 17.8301C27.0898 17.8801 27.1498 17.9301 27.2098 17.9301C27.2698 17.9301 27.3098 17.8901 27.2998 17.8301C27.2798 17.7001 27.2198 17.5501 27.1098 17.4001C27.2798 17.4001 27.4998 17.4001 27.6698 17.3701C27.6898 17.3801 27.7098 17.3901 27.7498 17.4101C27.7498 17.3901 27.7598 17.3601 27.7698 17.3401C27.7698 17.3601 27.7598 17.3901 27.7498 17.4101C28.0998 17.5801 29.2198 17.9701 29.6598 16.1301C29.4498 16.2301 29.0398 16.3901 28.7398 16.4601C28.5998 16.5001 27.9998 16.7701 27.7998 17.2301C27.9998 16.7701 28.6098 16.4901 28.7398 16.4601C29.0398 16.3901 29.4398 16.2301 29.6598 16.1301C29.6798 16.0501 29.6998 15.9601 29.7098 15.8701C29.6598 15.9101 29.0598 16.1701 28.6498 16.2701C28.4998 16.3101 27.8098 16.6201 27.6698 17.1501C27.6698 17.1501 27.6698 17.1501 27.6598 17.1501C27.4898 17.2101 27.1098 17.1901 26.9398 17.1801C26.8398 17.0801 26.7198 16.9701 26.5798 16.8601C26.3498 16.6801 26.1198 16.5301 25.9498 16.4301C26.2898 15.7101 25.7798 14.8101 25.7798 14.8101L25.7998 14.7701C25.8498 14.6901 25.8098 14.5901 25.7198 14.5301L24.9098 14.0401C24.8598 12.9401 24.1998 11.9001 23.0098 11.1701C21.1298 10.0301 19.1298 10.3701 18.0998 12.0601C17.0698 13.7501 17.7398 15.7301 19.5598 16.8401C20.7098 17.5401 21.9498 17.6601 22.9698 17.2101L22.9398 17.2301ZM19.2798 12.8201C19.9998 11.6401 21.2098 11.6601 22.2998 12.3301C23.3898 13.0001 23.8998 14.0301 23.1798 15.2101C22.4598 16.3901 21.2998 16.4001 20.2198 15.7401C19.1398 15.0801 18.5598 14.0001 19.2798 12.8301V12.8201Z" fill="url(#paint21_linear_358_36429)"/>
<g style="mix-blend-mode:multiply">
<path d="M24.6897 24.9396C22.6197 24.9396 20.4297 24.3496 18.4197 23.1196C13.4197 20.0696 11.3997 14.2396 13.9097 10.1196C15.1297 8.11955 17.2197 6.81955 19.7997 6.44955C22.3697 6.08955 25.1197 6.69955 27.5297 8.16955C29.9397 9.63955 31.7497 11.8096 32.5997 14.2596C33.4597 16.7196 33.2597 19.1796 32.0397 21.1696C30.5397 23.6296 27.7497 24.9296 24.6897 24.9296V24.9396ZM18.5397 22.9096C23.4297 25.8896 29.3897 25.0496 31.8297 21.0496C33.0097 19.1096 33.2097 16.7296 32.3697 14.3396C31.5397 11.9396 29.7697 9.81955 27.3997 8.37955C25.0297 6.92955 22.3397 6.32955 19.8297 6.68955C17.3297 7.03955 15.2897 8.30955 14.1097 10.2396C11.6697 14.2496 13.6497 19.9296 18.5397 22.9096Z" fill="url(#paint22_linear_358_36429)"/>
</g>
<path d="M24.8898 24.739C22.7998 24.739 20.5898 24.139 18.5498 22.899C13.4998 19.819 11.4598 13.909 13.9998 9.72904C16.5398 5.54904 22.7298 4.65904 27.7898 7.74904C30.2298 9.23904 32.0498 11.419 32.9098 13.899C33.7798 16.389 33.5698 18.889 32.3298 20.919C30.8098 23.419 27.9798 24.739 24.8798 24.739H24.8898ZM18.8098 22.489C23.6398 25.429 29.5198 24.619 31.9298 20.669C33.0898 18.759 33.2798 16.419 32.4598 14.059C31.6298 11.689 29.8898 9.58904 27.5398 8.15904C22.7098 5.20904 16.8198 6.02904 14.4198 9.97904C12.0098 13.929 13.9798 19.539 18.8098 22.479V22.489Z" fill="#C1F471"/>
<path style="mix-blend-mode:overlay" opacity="0.5" d="M19.2494 21.9896C17.7594 20.8296 16.3194 20.2296 16.0394 20.6296C15.7594 21.0396 16.7394 22.3096 18.2394 23.4596C19.7294 24.6196 21.1694 25.2196 21.4494 24.8196C21.7294 24.4096 20.7494 23.1396 19.2494 21.9896Z" fill="url(#paint23_radial_358_36429)"/>
<path style="mix-blend-mode:overlay" opacity="0.4" d="M32.8997 13.1096L20.5896 5.59961C18.3896 5.74961 16.3696 6.55961 14.8896 7.96961L33.3997 19.2596C33.9797 17.2896 33.7796 15.1296 32.8997 13.0996V13.1096Z" fill="url(#paint24_linear_358_36429)"/>
<path style="mix-blend-mode:overlay" opacity="0.4" d="M18.4295 22.99C22.9595 25.75 28.3495 25.43 31.4295 22.49L12.9195 11.21C11.7095 15.29 13.8995 20.23 18.4295 23V22.99Z" fill="url(#paint25_linear_358_36429)"/>
<g style="mix-blend-mode:multiply" opacity="0.48">
<path d="M23.08 15.5796L23.01 15.3696L22.96 15.2296L21.57 11.1896C21.57 11.1896 21.57 11.1996 21.57 11.2096C21.56 11.1696 21.54 11.1196 21.53 11.0796C21.52 11.0496 21.51 11.0196 21.5 10.9896C21.49 10.9596 21.48 10.9296 21.47 10.8996C19.76 6.2096 13.91 4.4496 8.38004 6.9596C5.86004 8.1096 3.85004 9.9496 2.57004 12.0496C2.54004 12.1096 2.50004 12.1596 2.47004 12.2196C2.47004 12.2196 2.47004 12.2296 2.46004 12.2396C1.33004 14.1296 0.780039 16.2196 0.970039 18.2196L1.05004 18.1796C1.12004 18.7996 1.26004 19.4196 1.47004 20.0096C1.48004 20.0396 1.49004 20.0696 1.50004 20.0996C1.51004 20.1296 1.52004 20.1596 1.53004 20.1896C1.70004 20.6596 1.92004 21.0996 2.17004 21.5096C1.97004 21.2096 1.80004 20.8896 1.66004 20.5596L2.93004 23.4996C3.01004 23.6996 3.11004 23.8896 3.21004 24.0696C3.17004 23.9896 3.11004 23.9296 3.07004 23.8496C3.80004 25.4196 5.14004 26.6696 7.03004 27.3396C11.78 28.9996 18.19 26.3696 21.36 21.4496C22.64 19.4596 23.18 17.4096 23.07 15.5596L23.08 15.5796Z" fill="#7F7F7F"/>
</g>
<path d="M3.50008 23.4799C3.72008 23.7299 3.96008 23.9699 4.22008 24.1899C4.27008 24.2299 4.31008 24.2599 4.36008 24.2999C5.03008 24.8299 5.81008 25.2699 6.71008 25.5999C11.6701 27.3699 18.2401 24.9699 21.3801 20.2399C22.6701 18.2899 23.1701 16.2499 22.9701 14.3899L21.4101 10.3799C21.9901 12.4999 21.5901 14.9899 20.0301 17.3399C16.8901 22.0699 10.3201 24.4699 5.36008 22.6999C3.31008 21.9699 1.86008 20.6399 1.08008 19.0099L2.48008 21.9399C2.57008 22.1399 2.68008 22.3299 2.79008 22.5099C2.93008 22.7299 3.08008 22.9499 3.24008 23.1599C3.32008 23.2699 3.41008 23.3699 3.51008 23.4699L3.50008 23.4799Z" fill="url(#paint26_radial_358_36429)"/>
<path d="M21.5101 20.48C22.7801 18.57 23.2801 16.57 23.1101 14.75L23.0301 14.54C23.2001 16.37 22.7001 18.37 21.4301 20.28C18.2901 25.01 11.7201 27.41 6.76014 25.64C5.84014 25.31 5.04014 24.86 4.37014 24.31C4.32014 24.27 4.27014 24.24 4.23014 24.2C3.97014 23.98 3.73014 23.74 3.51014 23.49C3.42014 23.39 3.33014 23.28 3.24014 23.18C3.08014 22.97 2.92014 22.75 2.79014 22.53C2.74014 22.45 2.68014 22.39 2.64014 22.31C3.44014 23.88 4.86014 25.14 6.85014 25.85C11.8101 27.62 18.3801 25.22 21.5201 20.49L21.5101 20.48Z" fill="url(#paint27_linear_358_36429)"/>
<path d="M21.3901 20.2396C18.2501 24.9696 11.6801 27.3696 6.72012 25.5996C5.82012 25.2796 5.04012 24.8296 4.37012 24.2996C5.04012 24.8496 5.84012 25.2996 6.76012 25.6296C11.7201 27.3996 18.2901 24.9996 21.4301 20.2696C22.7001 18.3496 23.2001 16.3496 23.0301 14.5296L22.9801 14.3896C23.1801 16.2396 22.6901 18.2796 21.3901 20.2396Z" fill="url(#paint28_radial_358_36429)"/>
<path d="M21.3901 20.2396C18.2501 24.9696 11.6801 27.3696 6.72012 25.5996C5.82012 25.2796 5.04012 24.8296 4.37012 24.2996C5.04012 24.8496 5.84012 25.2996 6.76012 25.6296C11.7201 27.3996 18.2901 24.9996 21.4301 20.2696C22.7001 18.3496 23.2001 16.3496 23.0301 14.5296L22.9801 14.3896C23.1801 16.2396 22.6901 18.2796 21.3901 20.2396Z" fill="url(#paint29_linear_358_36429)"/>
<path d="M2.79004 22.5098C2.93004 22.7398 3.08004 22.9498 3.24004 23.1598C3.07004 22.9498 2.93004 22.7298 2.79004 22.5098Z" fill="url(#paint30_radial_358_36429)"/>
<path d="M2.79004 22.5098C2.93004 22.7398 3.08004 22.9498 3.24004 23.1598C3.07004 22.9498 2.93004 22.7298 2.79004 22.5098Z" fill="url(#paint31_linear_358_36429)"/>
<path d="M21.3 10.1096C21.3 10.1096 21.32 10.1696 21.33 10.1996C19.39 5.60962 13.31 3.73962 7.7 6.03962C2.09 8.32962 -0.929999 13.9196 0.900001 18.5596C0.890001 18.5296 0.870001 18.4996 0.860001 18.4796C-1.04 13.8196 1.99 8.17962 7.63 5.86962C13.27 3.55962 19.39 5.45962 21.3 10.1196V10.1096Z" fill="url(#paint32_linear_358_36429)"/>
<path d="M14.5299 22.7192C20.1399 20.4292 23.1699 14.8392 21.3299 10.1992C21.3399 10.2292 21.3599 10.2592 21.3699 10.2792C23.2699 14.9392 20.2399 20.5792 14.5999 22.8892C8.9599 25.1992 2.8399 23.2992 0.929902 18.6392C0.919902 18.6092 0.909902 18.5792 0.899902 18.5492C2.8399 23.1392 8.9199 25.0092 14.5299 22.7092V22.7192Z" fill="url(#paint33_linear_358_36429)"/>
<path d="M7.69987 6.02969C13.3099 3.73969 19.3899 5.59969 21.3299 10.1897C23.1599 14.8297 20.1399 20.4197 14.5299 22.7097C8.91987 24.9997 2.83987 23.1397 0.899868 18.5497C-0.930132 13.9097 2.08987 8.31969 7.69987 6.02969Z" fill="url(#paint34_linear_358_36429)"/>
<path d="M7.69987 6.02969C13.3099 3.73969 19.3899 5.59969 21.3299 10.1897C23.1599 14.8297 20.1399 20.4197 14.5299 22.7097C8.91987 24.9997 2.83987 23.1397 0.899868 18.5497C-0.930132 13.9097 2.08987 8.31969 7.69987 6.02969Z" fill="url(#paint35_linear_358_36429)"/>
<path style="mix-blend-mode:overlay" opacity="0.7" d="M21.3 10.1096C21.3 10.1096 21.32 10.1696 21.33 10.1996C19.39 5.60962 13.31 3.73962 7.7 6.03962C2.09 8.32962 -0.929999 13.9196 0.900001 18.5596C0.890001 18.5296 0.870001 18.4996 0.860001 18.4796C-1.04 13.8196 1.99 8.17962 7.63 5.86962C13.27 3.55962 19.39 5.45962 21.3 10.1196V10.1096Z" fill="url(#paint36_linear_358_36429)"/>
<path d="M7.69987 6.02969C13.3099 3.73969 19.3899 5.59969 21.3299 10.1897C23.1599 14.8297 20.1399 20.4197 14.5299 22.7097C8.91987 24.9997 2.83987 23.1397 0.899868 18.5497C-0.930132 13.9097 2.08987 8.31969 7.69987 6.02969Z" fill="url(#paint37_linear_358_36429)"/>
<path d="M7.69987 6.02969C13.3099 3.73969 19.3899 5.59969 21.3299 10.1897C23.1599 14.8297 20.1399 20.4197 14.5299 22.7097C8.91987 24.9997 2.83987 23.1397 0.899868 18.5497C-0.930132 13.9097 2.08987 8.31969 7.69987 6.02969Z" fill="url(#paint38_linear_358_36429)"/>
<path style="mix-blend-mode:overlay" d="M14.5299 22.7192C20.1399 20.4292 23.1699 14.8392 21.3299 10.1992C21.3399 10.2292 21.3599 10.2592 21.3699 10.2792C23.2699 14.9392 20.2399 20.5792 14.5999 22.8892C8.9599 25.1992 2.8399 23.2992 0.929902 18.6392C0.919902 18.6092 0.909902 18.5792 0.899902 18.5492C2.8399 23.1392 8.9199 25.0092 14.5299 22.7092V22.7192Z" fill="url(#paint39_linear_358_36429)"/>
<path style="mix-blend-mode:overlay" d="M14.5299 22.7192C20.1399 20.4292 23.1699 14.8392 21.3299 10.1992C21.3399 10.2292 21.3599 10.2592 21.3699 10.2792C23.2699 14.9392 20.2399 20.5792 14.5999 22.8892C8.9599 25.1992 2.8399 23.2992 0.929902 18.6392C0.919902 18.6092 0.909902 18.5792 0.899902 18.5492C2.8399 23.1392 8.9199 25.0092 14.5299 22.7092V22.7192Z" fill="url(#paint40_linear_358_36429)"/>
<path style="mix-blend-mode:overlay" opacity="0.5" d="M18.4801 18.0297C17.3201 19.4097 16.7001 20.6897 17.1001 20.8897C17.5001 21.0797 18.7601 20.1197 19.9101 18.7297C21.0701 17.3497 21.6901 16.0697 21.2901 15.8697C20.8901 15.6797 19.6301 16.6397 18.4801 18.0297Z" fill="url(#paint41_linear_358_36429)"/>
<path d="M10.08 21.3195C7.18002 21.3195 4.60002 19.8995 3.59002 17.4495C2.19002 14.0195 4.42002 9.8395 8.57002 8.1495C10.58 7.3295 12.73 7.1995 14.63 7.7895C16.54 8.3795 17.96 9.6295 18.64 11.2895C19.32 12.9595 19.18 14.8395 18.23 16.5995C17.29 18.3495 15.67 19.7695 13.66 20.5895C12.47 21.0795 11.24 21.3095 10.07 21.3095L10.08 21.3195ZM8.66002 8.3595C4.62002 10.0095 2.44002 14.0595 3.80002 17.3795C5.16002 20.6995 9.55002 22.0595 13.59 20.4095C15.55 19.6095 17.13 18.2295 18.05 16.5195C18.96 14.8195 19.1 12.9995 18.45 11.3995C17.79 9.7895 16.42 8.5995 14.57 8.0195C12.72 7.4395 10.62 7.5695 8.66002 8.3695V8.3595Z" fill="url(#paint42_linear_358_36429)"/>
<path d="M13.5631 20.2629C17.5195 18.6443 19.6452 14.6885 18.311 11.4273C16.9768 8.16604 12.6879 6.83445 8.73155 8.45305C4.77516 10.0717 2.64945 14.0275 3.98365 17.2887C5.31785 20.5499 9.60672 21.8815 13.5631 20.2629Z" fill="url(#paint43_linear_358_36429)"/>
<path style="mix-blend-mode:multiply" opacity="0.59" d="M9.31017 9.3895C12.7302 7.9895 16.3902 8.7995 18.1802 11.1395C16.7102 8.0895 12.5702 6.8895 8.73017 8.4595C4.89017 10.0295 2.65017 14.0295 3.98017 17.2995C4.16017 17.7495 4.40017 18.1495 4.68017 18.5195C4.63017 18.4195 4.59017 18.3295 4.55017 18.2295C3.22017 14.9695 5.34017 11.0095 9.30017 9.3895H9.31017Z" fill="url(#paint44_linear_358_36429)"/>
<path d="M13.5703 20.27C17.5303 18.65 19.6503 14.7 18.3203 11.43C18.2803 11.33 18.2403 11.23 18.1903 11.14C16.3903 8.78997 12.7303 7.98997 9.32027 9.38997C5.36027 11.01 3.24027 14.96 4.57027 18.23C4.61027 18.33 4.65027 18.43 4.70027 18.52C6.50027 20.87 10.1603 21.67 13.5703 20.27Z" fill="url(#paint45_linear_358_36429)"/>
<g style="mix-blend-mode:multiply">
<g opacity="0.63">
<path d="M12.5601 15.7991L13.4601 15.4291C13.5601 15.3891 13.6101 15.2891 13.5701 15.2091C13.8901 14.8391 13.6301 14.3391 13.6301 14.3391C13.8601 13.8191 13.8801 13.4091 13.7801 13.0991C13.9501 13.0291 14.1701 12.9391 14.4201 12.8691C14.5401 12.9591 14.6401 13.0591 14.7301 13.1691C14.6301 13.8091 15.4001 14.3191 15.5501 14.3891C15.9401 14.5491 16.4901 14.8991 16.5401 14.9591C16.5401 14.8591 16.5401 14.7591 16.5201 14.6691C16.3801 12.9691 15.3901 12.9991 14.9401 13.1091C14.8601 12.9991 14.7701 12.8991 14.6701 12.8091C15.0501 12.7291 15.3301 12.7291 15.5001 12.8191C15.5501 12.8491 15.6101 12.8291 15.6501 12.7791C15.6801 12.7291 15.6701 12.6791 15.6301 12.6491C15.5101 12.5791 15.3601 12.5491 15.1701 12.5491C15.2701 12.4191 15.4101 12.2391 15.4801 12.0791C15.5001 12.0791 15.5301 12.0591 15.5601 12.0391C15.5401 12.0191 15.5301 11.9991 15.5101 11.9791C15.5201 11.9991 15.5401 12.0191 15.5601 12.0391C15.9001 11.8591 16.8801 11.1891 15.6701 9.73906C15.6201 9.96906 15.5101 10.3891 15.3901 10.6691C15.3401 10.7991 15.2001 11.4491 15.4501 11.8891C15.1901 11.4491 15.3301 10.7991 15.3901 10.6691C15.5101 10.3791 15.6201 9.96906 15.6701 9.73906C15.6201 9.67906 15.5601 9.60906 15.4901 9.53906C15.4901 9.59906 15.3501 10.2391 15.1801 10.6391C15.1201 10.7791 14.9701 11.5191 15.3101 11.9491C15.3101 11.9491 15.3101 11.9491 15.3101 11.9591C15.2601 12.1391 15.0201 12.4291 14.9001 12.5591C14.7601 12.5791 14.6001 12.6091 14.4301 12.6591C14.1501 12.7391 13.8901 12.8391 13.7101 12.9091C13.3301 12.2091 12.3001 12.0791 12.3001 12.0791L12.2801 12.0391C12.2501 11.9591 12.1401 11.9191 12.0401 11.9591L11.1601 12.3191C10.2401 11.7091 9.01009 11.6191 7.72009 12.1491C5.69009 12.9791 4.77009 14.7991 5.52009 16.6291C6.27009 18.4591 8.26009 19.0991 10.2301 18.2891C11.4801 17.7791 12.3101 16.8491 12.5501 15.7691L12.5601 15.7991ZM6.84009 16.1291C6.32009 14.8491 7.05009 13.8891 8.23009 13.3991C9.41009 12.9091 10.5501 13.1091 11.0701 14.3891C11.5901 15.6691 10.9101 16.6091 9.74009 17.0891C8.57009 17.5691 7.35009 17.3891 6.83009 16.1191L6.84009 16.1291Z" fill="url(#paint46_linear_358_36429)"/>
</g>
</g>
<path d="M12.5103 15.6897L13.4103 15.3197C13.5103 15.2797 13.5603 15.1797 13.5203 15.0997C13.8403 14.7297 13.5803 14.2297 13.5803 14.2297C13.8103 13.7097 13.8303 13.2997 13.7303 12.9897C13.9003 12.9197 14.1203 12.8297 14.3703 12.7597C14.4903 12.8497 14.5903 12.9497 14.6803 13.0597C14.5803 13.6997 15.3503 14.2097 15.5003 14.2797C15.8903 14.4397 16.4403 14.7897 16.4903 14.8497C16.4903 14.7497 16.4903 14.6497 16.4703 14.5597C16.3303 12.8597 15.3403 12.8897 14.8903 12.9997C14.8103 12.8897 14.7203 12.7897 14.6203 12.6997C15.0003 12.6197 15.2803 12.6197 15.4503 12.7097C15.5003 12.7397 15.5603 12.7197 15.6003 12.6697C15.6303 12.6197 15.6203 12.5697 15.5803 12.5397C15.4603 12.4697 15.3103 12.4397 15.1203 12.4397C15.2203 12.3097 15.3603 12.1297 15.4303 11.9697C15.4503 11.9697 15.4803 11.9497 15.5103 11.9297C15.4903 11.9097 15.4803 11.8897 15.4603 11.8697C15.4703 11.8897 15.4903 11.9097 15.5103 11.9297C15.8503 11.7497 16.8303 11.0797 15.6203 9.62969C15.5703 9.85969 15.4603 10.2797 15.3403 10.5597C15.2903 10.6897 15.1503 11.3397 15.4003 11.7797C15.1403 11.3397 15.2803 10.6897 15.3403 10.5597C15.4603 10.2697 15.5703 9.85969 15.6203 9.62969C15.5703 9.56969 15.5103 9.49969 15.4403 9.42969C15.4403 9.48969 15.3003 10.1297 15.1303 10.5297C15.0703 10.6697 14.9203 11.4097 15.2603 11.8397C15.2603 11.8397 15.2603 11.8397 15.2603 11.8497C15.2103 12.0297 14.9703 12.3197 14.8503 12.4497C14.7103 12.4697 14.5503 12.4997 14.3803 12.5497C14.1003 12.6297 13.8403 12.7297 13.6603 12.7997C13.2803 12.0997 12.2503 11.9697 12.2503 11.9697L12.2303 11.9297C12.2003 11.8497 12.0903 11.8097 11.9903 11.8497L11.1103 12.2097C10.1903 11.5997 8.96029 11.5097 7.67029 12.0397C5.64029 12.8697 4.72029 14.6897 5.47029 16.5197C6.22029 18.3597 8.21029 18.9897 10.1803 18.1797C11.4303 17.6697 12.2603 16.7397 12.5003 15.6597L12.5103 15.6897ZM6.79029 16.0197C6.27029 14.7397 7.00029 13.7797 8.18029 13.2897C9.36029 12.7997 10.5003 12.9997 11.0203 14.2797C11.5403 15.5597 10.8603 16.4997 9.69029 16.9797C8.52029 17.4597 7.30029 17.2797 6.78029 16.0097L6.79029 16.0197Z" fill="url(#paint47_linear_358_36429)"/>
<g style="mix-blend-mode:multiply">
<path d="M9.87001 23.7792C8.77001 23.7792 7.69001 23.6192 6.67001 23.3092C4.18001 22.5392 2.32001 20.9192 1.44001 18.7592C0.560014 16.5992 0.740014 14.1392 1.98001 11.8392C3.21001 9.5592 5.33001 7.7092 7.95001 6.6392C10.57 5.5692 13.38 5.3992 15.86 6.1692C18.35 6.9392 20.21 8.5592 21.09 10.7192C21.97 12.8792 21.79 15.3392 20.55 17.6392C19.32 19.9192 17.2 21.7692 14.58 22.8392C13.04 23.4692 11.44 23.7892 9.87001 23.7892V23.7792ZM12.66 5.9192C11.13 5.9192 9.55001 6.2292 8.04001 6.8492C5.47001 7.8992 3.39001 9.7092 2.19001 11.9492C0.990014 14.1792 0.800014 16.5592 1.66001 18.6592C2.52001 20.7592 4.32001 22.3292 6.74001 23.0792C9.17001 23.8292 11.92 23.6592 14.49 22.6092C17.06 21.5592 19.14 19.7492 20.34 17.5092C21.54 15.2792 21.73 12.8992 20.87 10.7992C20.01 8.6992 18.21 7.1292 15.79 6.3792C14.79 6.0692 13.73 5.9192 12.66 5.9192Z" fill="url(#paint48_linear_358_36429)"/>
</g>
<path d="M9.71991 23.55C8.60991 23.55 7.51991 23.39 6.47991 23.07C3.95991 22.29 2.06991 20.65 1.16991 18.45C-0.680089 13.92 2.26991 8.41001 7.74991 6.17001C13.2299 3.93001 19.1999 5.79001 21.0499 10.32C22.8999 14.85 19.9499 20.36 14.4699 22.6C12.9199 23.24 11.2999 23.56 9.71991 23.56V23.55ZM12.4999 5.70001C11.0099 5.70001 9.45991 5.99001 7.93991 6.62001C2.70991 8.75001 -0.13009 13.98 1.61991 18.26C2.45991 20.33 4.23991 21.87 6.61991 22.61C9.01991 23.35 11.7399 23.19 14.2899 22.15C19.5299 20.01 22.3599 14.78 20.6099 10.5C19.3699 7.46001 16.1399 5.70001 12.5099 5.70001H12.4999Z" fill="#C1F471"/>
<path style="mix-blend-mode:overlay" opacity="0.5" d="M14.1599 21.4891C12.3399 22.0091 10.9999 22.8091 11.1599 23.2691C11.3199 23.7391 12.9299 23.6991 14.7399 23.1791C16.5599 22.6591 17.8999 21.8591 17.7399 21.3991C17.5799 20.9291 15.9699 20.9691 14.1599 21.4891Z" fill="url(#paint49_radial_358_36429)"/>
<path style="mix-blend-mode:overlay" opacity="0.4" d="M15.0999 5.23949L1.75992 10.6895C0.57992 12.5495 0.0299199 14.6595 0.28992 16.6895L20.3599 8.47949C19.1199 6.83949 17.2599 5.72949 15.1099 5.22949L15.0999 5.23949Z" fill="url(#paint50_linear_358_36429)"/>
<path style="mix-blend-mode:overlay" opacity="0.4" d="M14.4797 22.7395C19.3897 20.7295 22.3297 16.1995 21.7897 11.9795L1.71973 20.1895C4.28973 23.5795 9.55973 24.7495 14.4797 22.7495V22.7395Z" fill="url(#paint51_linear_358_36429)"/>
<defs>
<radialGradient id="paint0_radial_358_36429" cx="0" cy="0" r="1" gradientUnits="userSpaceOnUse" gradientTransform="translate(26.5 20) rotate(105.524) scale(9.34077)">
<stop offset="0.17" stop-color="#ACF465"/>
<stop offset="0.18" stop-color="#A3F360"/>
<stop offset="0.19" stop-color="#8CF352"/>
<stop offset="0.21" stop-color="#79F248"/>
<stop offset="0.22" stop-color="#6CF240"/>
<stop offset="0.25" stop-color="#65F23C"/>
<stop offset="0.3" stop-color="#63F23B"/>
<stop offset="0.36" stop-color="#64F23C"/>
<stop offset="0.38" stop-color="#6BF23F"/>
<stop offset="0.4" stop-color="#77F246"/>
<stop offset="0.41" stop-color="#88F350"/>
<stop offset="0.42" stop-color="#9EF35C"/>
<stop offset="0.43" stop-color="#ACF465"/>
<stop offset="0.45" stop-color="#C3F47E"/>
<stop offset="0.48" stop-color="#D8F495"/>
<stop offset="0.51" stop-color="#E7F4A5"/>
<stop offset="0.54" stop-color="#F0F4AE"/>
<stop offset="0.59" stop-color="#E1F098"/>
<stop offset="0.6" stop-color="#CFED7E"/>
<stop offset="0.61" stop-color="#C0EA68"/>
<stop offset="0.62" stop-color="#B5E857"/>
<stop offset="0.63" stop-color="#ACE74B"/>
<stop offset="0.65" stop-color="#A8E644"/>
<stop offset="0.69" stop-color="#A7E643"/>
<stop offset="0.7" stop-color="#9EDE3A"/>
<stop offset="0.71" stop-color="#8FD029"/>
<stop offset="0.73" stop-color="#84C61D"/>
<stop offset="0.76" stop-color="#7DC016"/>
<stop offset="0.83" stop-color="#7CBF15"/>
<stop offset="0.84" stop-color="#6DB81B"/>
<stop offset="0.85" stop-color="#5CB122"/>
<stop offset="0.86" stop-color="#50AB27"/>
<stop offset="0.87" stop-color="#49A82A"/>
<stop offset="0.91" stop-color="#48A82B"/>
<stop offset="0.93" stop-color="#45A329"/>
<stop offset="0.95" stop-color="#3F9425"/>
<stop offset="0.97" stop-color="#347D1F"/>
<stop offset="1" stop-color="#265C17"/>
</radialGradient>
<linearGradient id="paint1_linear_358_36429" x1="8.4521" y1="31.4027" x2="1.90381" y2="42.0384" gradientUnits="userSpaceOnUse">
<stop offset="0.74" stop-color="#0C6337"/>
<stop offset="1" stop-color="#339911"/>
</linearGradient>
<radialGradient id="paint2_radial_358_36429" cx="0" cy="0" r="1" gradientUnits="userSpaceOnUse" gradientTransform="translate(5.33344 36.5638) rotate(121.62) scale(9.04)">
<stop stop-color="#C1F471"/>
<stop offset="0.11" stop-color="#BFF46F"/>
<stop offset="0.15" stop-color="#B8F46C"/>
<stop offset="0.17" stop-color="#ACF465"/>
<stop offset="0.18" stop-color="#A3F360"/>
<stop offset="0.19" stop-color="#8CF352"/>
<stop offset="0.21" stop-color="#79F248"/>
<stop offset="0.22" stop-color="#6CF240"/>
<stop offset="0.25" stop-color="#65F23C"/>
<stop offset="0.3" stop-color="#63F23B"/>
<stop offset="0.36" stop-color="#64F23C"/>
<stop offset="0.38" stop-color="#6BF23F"/>
<stop offset="0.4" stop-color="#77F246"/>
<stop offset="0.41" stop-color="#88F350"/>
<stop offset="0.42" stop-color="#9EF35C"/>
<stop offset="0.43" stop-color="#ACF465"/>
<stop offset="0.45" stop-color="#C3F47E"/>
<stop offset="0.48" stop-color="#D8F495"/>
<stop offset="0.51" stop-color="#E7F4A5"/>
<stop offset="0.54" stop-color="#F0F4AE"/>
<stop offset="0.59" stop-color="#EEF4AC"/>
<stop offset="0.6" stop-color="#DDF496"/>
<stop offset="0.62" stop-color="#D0F485"/>
<stop offset="0.64" stop-color="#C7F479"/>
<stop offset="0.67" stop-color="#C2F472"/>
<stop offset="0.75" stop-color="#C1F471"/>
<stop offset="0.76" stop-color="#C1F471"/>
<stop offset="0.83" stop-color="#C1F471"/>
<stop offset="0.84" stop-color="#A3F35F"/>
<stop offset="0.85" stop-color="#7CF249"/>
<stop offset="0.86" stop-color="#70F242"/>
<stop offset="0.87" stop-color="#69F23F"/>
<stop offset="0.91" stop-color="#68F23E"/>
</radialGradient>
<linearGradient id="paint3_linear_358_36429" x1="8.81846" y1="31.6282" x2="2.27016" y2="42.264" gradientUnits="userSpaceOnUse">
<stop stop-color="#0E6033"/>
<stop offset="1" stop-color="#339911"/>
</linearGradient>
<radialGradient id="paint4_radial_358_36429" cx="0" cy="0" r="1" gradientUnits="userSpaceOnUse" gradientTransform="translate(5.33332 36.5641) rotate(121.62) scale(9.03999 9.03998)">
<stop stop-color="#C1F471"/>
<stop offset="0.11" stop-color="#BFF46F"/>
<stop offset="0.15" stop-color="#B8F46C"/>
<stop offset="0.17" stop-color="#ACF465"/>
<stop offset="0.18" stop-color="#A3F360"/>
<stop offset="0.19" stop-color="#8CF352"/>
<stop offset="0.21" stop-color="#79F248"/>
<stop offset="0.22" stop-color="#6CF240"/>
<stop offset="0.25" stop-color="#65F23C"/>
<stop offset="0.3" stop-color="#63F23B"/>
<stop offset="0.36" stop-color="#64F23C"/>
<stop offset="0.38" stop-color="#6BF23F"/>
<stop offset="0.4" stop-color="#77F246"/>
<stop offset="0.41" stop-color="#88F350"/>
<stop offset="0.42" stop-color="#9EF35C"/>
<stop offset="0.43" stop-color="#ACF465"/>
<stop offset="0.45" stop-color="#C3F47E"/>
<stop offset="0.48" stop-color="#D8F495"/>
<stop offset="0.51" stop-color="#E7F4A5"/>
<stop offset="0.54" stop-color="#F0F4AE"/>
<stop offset="0.59" stop-color="#EEF4AC"/>
<stop offset="0.6" stop-color="#DDF496"/>
<stop offset="0.62" stop-color="#D0F485"/>
<stop offset="0.64" stop-color="#C7F479"/>
<stop offset="0.67" stop-color="#C2F472"/>
<stop offset="0.75" stop-color="#C1F471"/>
<stop offset="0.76" stop-color="#C1F471"/>
<stop offset="0.83" stop-color="#C1F471"/>
<stop offset="0.84" stop-color="#A3F35F"/>
<stop offset="0.85" stop-color="#7CF249"/>
<stop offset="0.86" stop-color="#70F242"/>
<stop offset="0.87" stop-color="#69F23F"/>
<stop offset="0.91" stop-color="#68F23E"/>
</radialGradient>
<linearGradient id="paint5_linear_358_36429" x1="-0.335751" y1="25.9924" x2="-6.88406" y2="36.6282" gradientUnits="userSpaceOnUse">
<stop stop-color="#0E6033"/>
<stop offset="1" stop-color="#339911"/>
</linearGradient>
<linearGradient id="paint6_linear_358_36429" x1="21.6125" y1="24.7547" x2="31.0947" y2="9.20822" gradientUnits="userSpaceOnUse">
<stop stop-color="#63F23B"/>
<stop offset="1" stop-color="#339911"/>
</linearGradient>
<linearGradient id="paint7_linear_358_36429" x1="21.5138" y1="24.9167" x2="30.996" y2="9.3702" gradientUnits="userSpaceOnUse">
<stop stop-color="#63F23B"/>
<stop offset="1" stop-color="#339911"/>
</linearGradient>
<linearGradient id="paint8_linear_358_36429" x1="21.6129" y1="24.7546" x2="31.095" y2="9.20817" gradientUnits="userSpaceOnUse">
<stop stop-color="#63F23B"/>
<stop offset="1" stop-color="#339911"/>
</linearGradient>
<linearGradient id="paint9_linear_358_36429" x1="21.5139" y1="24.9169" x2="30.9961" y2="9.37038" gradientUnits="userSpaceOnUse">
<stop stop-color="#63F23B"/>
<stop offset="1" stop-color="#339911"/>
</linearGradient>
<linearGradient id="paint10_linear_358_36429" x1="21.6125" y1="24.7547" x2="31.0947" y2="9.20822" gradientUnits="userSpaceOnUse">
<stop stop-color="#63F23B"/>
<stop offset="1" stop-color="#339911"/>
</linearGradient>
<linearGradient id="paint11_linear_358_36429" x1="21.6129" y1="24.7546" x2="31.095" y2="9.20817" gradientUnits="userSpaceOnUse">
<stop stop-color="#63F23B"/>
<stop offset="1" stop-color="#339911"/>
</linearGradient>
<linearGradient id="paint12_linear_358_36429" x1="21.5139" y1="24.9169" x2="30.9961" y2="9.37038" gradientUnits="userSpaceOnUse">
<stop stop-color="#63F23B"/>
<stop offset="1" stop-color="#339911"/>
</linearGradient>
<linearGradient id="paint13_linear_358_36429" x1="21.5138" y1="24.9167" x2="30.996" y2="9.3702" gradientUnits="userSpaceOnUse">
<stop stop-color="white" stop-opacity="0"/>
<stop offset="0.48" stop-color="white"/>
<stop offset="1" stop-color="white" stop-opacity="0"/>
</linearGradient>
<linearGradient id="paint14_linear_358_36429" x1="21.5138" y1="24.9167" x2="30.996" y2="9.3702" gradientUnits="userSpaceOnUse">
<stop stop-color="white" stop-opacity="0"/>
<stop offset="0.48" stop-color="white"/>
<stop offset="1" stop-color="white" stop-opacity="0"/>
</linearGradient>
<linearGradient id="paint15_linear_358_36429" x1="29.0259" y1="73.4343" x2="28.8846" y2="71.7223" gradientUnits="userSpaceOnUse">
<stop stop-color="#63F23B"/>
<stop offset="1" stop-color="#339911"/>
</linearGradient>
<linearGradient id="paint16_linear_358_36429" x1="26.7003" y1="9.41791" x2="19.6968" y2="20.9006" gradientUnits="userSpaceOnUse">
<stop stop-color="#63F23B"/>
<stop offset="1" stop-color="#339911"/>
</linearGradient>
<linearGradient id="paint17_linear_358_36429" x1="22.802" y1="22.5615" x2="29.4463" y2="11.6678" gradientUnits="userSpaceOnUse">
<stop stop-color="#0E6033"/>
<stop offset="1" stop-color="#339911"/>
</linearGradient>
<linearGradient id="paint18_linear_358_36429" x1="23.0076" y1="22.5255" x2="29.6519" y2="11.6319" gradientUnits="userSpaceOnUse">
<stop stop-color="#292738"/>
<stop offset="1" stop-color="#292738"/>
</linearGradient>
<linearGradient id="paint19_linear_358_36429" x1="23.0919" y1="22.5774" x2="29.7362" y2="11.6837" gradientUnits="userSpaceOnUse">
<stop stop-color="#0A4726"/>
<stop offset="1" stop-color="#1E590A"/>
</linearGradient>
<linearGradient id="paint20_linear_358_36429" x1="24.9588" y1="12.3503" x2="21.5065" y2="18.0105" gradientUnits="userSpaceOnUse">
<stop stop-color="#CFAD05"/>
<stop offset="1" stop-color="#853903"/>
</linearGradient>
<linearGradient id="paint21_linear_358_36429" x1="22.9621" y1="10.1593" x2="24.3635" y2="20.1313" gradientUnits="userSpaceOnUse">
<stop stop-color="#339911"/>
<stop offset="0.67" stop-color="#63F23B"/>
</linearGradient>
<linearGradient id="paint22_linear_358_36429" x1="27.5541" y1="8.01795" x2="18.4417" y2="22.9583" gradientUnits="userSpaceOnUse">
<stop offset="0.16" stop-color="#7CCF04"/>
<stop offset="1" stop-color="#EDEDED"/>
</linearGradient>
<radialGradient id="paint23_radial_358_36429" cx="0" cy="0" r="1" gradientUnits="userSpaceOnUse" gradientTransform="translate(12.9624 26.6338) rotate(-55.42) scale(0.9156 3.4008)">
<stop stop-color="white"/>
<stop offset="0.09" stop-color="white" stop-opacity="0.96"/>
<stop offset="0.24" stop-color="white" stop-opacity="0.85"/>
<stop offset="0.43" stop-color="white" stop-opacity="0.66"/>
<stop offset="0.66" stop-color="white" stop-opacity="0.41"/>
<stop offset="0.93" stop-color="white" stop-opacity="0.09"/>
<stop offset="1" stop-color="white" stop-opacity="0"/>
</radialGradient>
<linearGradient id="paint24_linear_358_36429" x1="27.1072" y1="8.6356" x2="22.2906" y2="16.5326" gradientUnits="userSpaceOnUse">
<stop stop-color="white"/>
<stop offset="1" stop-color="white" stop-opacity="0"/>
</linearGradient>
<linearGradient id="paint25_linear_358_36429" x1="23.8203" y1="13.9287" x2="15.619" y2="27.8552" gradientUnits="userSpaceOnUse">
<stop stop-color="white"/>
<stop offset="1" stop-color="white" stop-opacity="0"/>
</linearGradient>
<radialGradient id="paint26_radial_358_36429" cx="0" cy="0" r="1" gradientUnits="userSpaceOnUse" gradientTransform="translate(14.5 17) rotate(95.4403) scale(10.5475)">
<stop offset="0.17" stop-color="#ACF465"/>
<stop offset="0.18" stop-color="#A3F360"/>
<stop offset="0.19" stop-color="#8CF352"/>
<stop offset="0.21" stop-color="#79F248"/>
<stop offset="0.22" stop-color="#6CF240"/>
<stop offset="0.25" stop-color="#65F23C"/>
<stop offset="0.3" stop-color="#63F23B"/>
<stop offset="0.36" stop-color="#64F23C"/>
<stop offset="0.38" stop-color="#6BF23F"/>
<stop offset="0.4" stop-color="#77F246"/>
<stop offset="0.41" stop-color="#88F350"/>
<stop offset="0.42" stop-color="#9EF35C"/>
<stop offset="0.43" stop-color="#ACF465"/>
<stop offset="0.45" stop-color="#C3F47E"/>
<stop offset="0.48" stop-color="#D8F495"/>
<stop offset="0.51" stop-color="#E7F4A5"/>
<stop offset="0.54" stop-color="#F0F4AE"/>
<stop offset="0.59" stop-color="#E1F098"/>
<stop offset="0.6" stop-color="#CFED7E"/>
<stop offset="0.61" stop-color="#C0EA68"/>
<stop offset="0.62" stop-color="#B5E857"/>
<stop offset="0.63" stop-color="#ACE74B"/>
<stop offset="0.65" stop-color="#A8E644"/>
<stop offset="0.69" stop-color="#A7E643"/>
<stop offset="0.7" stop-color="#9EDE3A"/>
<stop offset="0.71" stop-color="#8FD029"/>
<stop offset="0.73" stop-color="#84C61D"/>
<stop offset="0.76" stop-color="#7DC016"/>
<stop offset="0.83" stop-color="#7CBF15"/>
<stop offset="0.84" stop-color="#6DB81B"/>
<stop offset="0.85" stop-color="#5CB122"/>
<stop offset="0.86" stop-color="#50AB27"/>
<stop offset="0.87" stop-color="#49A82A"/>
<stop offset="0.91" stop-color="#48A82B"/>
<stop offset="0.93" stop-color="#45A329"/>
<stop offset="0.95" stop-color="#3F9425"/>
<stop offset="0.97" stop-color="#347D1F"/>
<stop offset="1" stop-color="#265C17"/>
</radialGradient>
<linearGradient id="paint27_linear_358_36429" x1="13.3464" y1="29.6228" x2="18.0273" y2="41.2025" gradientUnits="userSpaceOnUse">
<stop offset="0.74" stop-color="#0C6337"/>
<stop offset="1" stop-color="#339911"/>
</linearGradient>
<radialGradient id="paint28_radial_358_36429" cx="0" cy="0" r="1" gradientUnits="userSpaceOnUse" gradientTransform="translate(15.6526 35.1942) rotate(67.99) scale(9.04)">
<stop stop-color="#C1F471"/>
<stop offset="0.11" stop-color="#BFF46F"/>
<stop offset="0.15" stop-color="#B8F46C"/>
<stop offset="0.17" stop-color="#ACF465"/>
<stop offset="0.18" stop-color="#A3F360"/>
<stop offset="0.19" stop-color="#8CF352"/>
<stop offset="0.21" stop-color="#79F248"/>
<stop offset="0.22" stop-color="#6CF240"/>
<stop offset="0.25" stop-color="#65F23C"/>
<stop offset="0.3" stop-color="#63F23B"/>
<stop offset="0.36" stop-color="#64F23C"/>
<stop offset="0.38" stop-color="#6BF23F"/>
<stop offset="0.4" stop-color="#77F246"/>
<stop offset="0.41" stop-color="#88F350"/>
<stop offset="0.42" stop-color="#9EF35C"/>
<stop offset="0.43" stop-color="#ACF465"/>
<stop offset="0.45" stop-color="#C3F47E"/>
<stop offset="0.48" stop-color="#D8F495"/>
<stop offset="0.51" stop-color="#E7F4A5"/>
<stop offset="0.54" stop-color="#F0F4AE"/>
<stop offset="0.59" stop-color="#EEF4AC"/>
<stop offset="0.6" stop-color="#DDF496"/>
<stop offset="0.62" stop-color="#D0F485"/>
<stop offset="0.64" stop-color="#C7F479"/>
<stop offset="0.67" stop-color="#C2F472"/>
<stop offset="0.75" stop-color="#C1F471"/>
<stop offset="0.76" stop-color="#C1F471"/>
<stop offset="0.83" stop-color="#C1F471"/>
<stop offset="0.84" stop-color="#A3F35F"/>
<stop offset="0.85" stop-color="#7CF249"/>
<stop offset="0.86" stop-color="#70F242"/>
<stop offset="0.87" stop-color="#69F23F"/>
<stop offset="0.91" stop-color="#68F23E"/>
</radialGradient>
<linearGradient id="paint29_linear_358_36429" x1="13.7358" y1="29.465" x2="18.4167" y2="41.0447" gradientUnits="userSpaceOnUse">
<stop stop-color="#0E6033"/>
<stop offset="1" stop-color="#339911"/>
</linearGradient>
<radialGradient id="paint30_radial_358_36429" cx="0" cy="0" r="1" gradientUnits="userSpaceOnUse" gradientTransform="translate(15.6525 35.1943) rotate(67.99) scale(9.04 9.04)">
<stop stop-color="#C1F471"/>
<stop offset="0.11" stop-color="#BFF46F"/>
<stop offset="0.15" stop-color="#B8F46C"/>
<stop offset="0.17" stop-color="#ACF465"/>
<stop offset="0.18" stop-color="#A3F360"/>
<stop offset="0.19" stop-color="#8CF352"/>
<stop offset="0.21" stop-color="#79F248"/>
<stop offset="0.22" stop-color="#6CF240"/>
<stop offset="0.25" stop-color="#65F23C"/>
<stop offset="0.3" stop-color="#63F23B"/>
<stop offset="0.36" stop-color="#64F23C"/>
<stop offset="0.38" stop-color="#6BF23F"/>
<stop offset="0.4" stop-color="#77F246"/>
<stop offset="0.41" stop-color="#88F350"/>
<stop offset="0.42" stop-color="#9EF35C"/>
<stop offset="0.43" stop-color="#ACF465"/>
<stop offset="0.45" stop-color="#C3F47E"/>
<stop offset="0.48" stop-color="#D8F495"/>
<stop offset="0.51" stop-color="#E7F4A5"/>
<stop offset="0.54" stop-color="#F0F4AE"/>
<stop offset="0.59" stop-color="#EEF4AC"/>
<stop offset="0.6" stop-color="#DDF496"/>
<stop offset="0.62" stop-color="#D0F485"/>
<stop offset="0.64" stop-color="#C7F479"/>
<stop offset="0.67" stop-color="#C2F472"/>
<stop offset="0.75" stop-color="#C1F471"/>
<stop offset="0.76" stop-color="#C1F471"/>
<stop offset="0.83" stop-color="#C1F471"/>
<stop offset="0.84" stop-color="#A3F35F"/>
<stop offset="0.85" stop-color="#7CF249"/>
<stop offset="0.86" stop-color="#70F242"/>
<stop offset="0.87" stop-color="#69F23F"/>
<stop offset="0.91" stop-color="#68F23E"/>
</radialGradient>
<linearGradient id="paint31_linear_358_36429" x1="3.37981" y1="33.6512" x2="8.06066" y2="45.231" gradientUnits="userSpaceOnUse">
<stop stop-color="#0E6033"/>
<stop offset="1" stop-color="#339911"/>
</linearGradient>
<linearGradient id="paint32_linear_358_36429" x1="17.5222" y1="21.3338" x2="10.627" y2="4.47974" gradientUnits="userSpaceOnUse">
<stop stop-color="#63F23B"/>
<stop offset="1" stop-color="#339911"/>
</linearGradient>
<linearGradient id="paint33_linear_358_36429" x1="17.5941" y1="21.5093" x2="10.6951" y2="4.64594" gradientUnits="userSpaceOnUse">
<stop stop-color="#63F23B"/>
<stop offset="1" stop-color="#339911"/>
</linearGradient>
<linearGradient id="paint34_linear_358_36429" x1="17.5221" y1="21.3339" x2="10.6269" y2="4.47982" gradientUnits="userSpaceOnUse">
<stop stop-color="#63F23B"/>
<stop offset="1" stop-color="#339911"/>
</linearGradient>
<linearGradient id="paint35_linear_358_36429" x1="17.594" y1="21.5098" x2="10.695" y2="4.64641" gradientUnits="userSpaceOnUse">
<stop stop-color="#63F23B"/>
<stop offset="1" stop-color="#339911"/>
</linearGradient>
<linearGradient id="paint36_linear_358_36429" x1="17.5222" y1="21.3338" x2="10.627" y2="4.47974" gradientUnits="userSpaceOnUse">
<stop stop-color="#63F23B"/>
<stop offset="1" stop-color="#339911"/>
</linearGradient>
<linearGradient id="paint37_linear_358_36429" x1="17.5221" y1="21.3339" x2="10.6269" y2="4.47982" gradientUnits="userSpaceOnUse">
<stop stop-color="#63F23B"/>
<stop offset="1" stop-color="#339911"/>
</linearGradient>
<linearGradient id="paint38_linear_358_36429" x1="17.594" y1="21.5098" x2="10.695" y2="4.64641" gradientUnits="userSpaceOnUse">
<stop stop-color="#63F23B"/>
<stop offset="1" stop-color="#339911"/>
</linearGradient>
<linearGradient id="paint39_linear_358_36429" x1="17.5941" y1="21.5093" x2="10.6951" y2="4.64594" gradientUnits="userSpaceOnUse">
<stop stop-color="white" stop-opacity="0"/>
<stop offset="0.48" stop-color="white"/>
<stop offset="1" stop-color="white" stop-opacity="0"/>
</linearGradient>
<linearGradient id="paint40_linear_358_36429" x1="17.5941" y1="21.5093" x2="10.6951" y2="4.64594" gradientUnits="userSpaceOnUse">
<stop stop-color="white" stop-opacity="0"/>
<stop offset="0.48" stop-color="white"/>
<stop offset="1" stop-color="white" stop-opacity="0"/>
</linearGradient>
<linearGradient id="paint41_linear_358_36429" x1="122.077" y1="76.9558" x2="120.614" y2="76.0544" gradientUnits="userSpaceOnUse">
<stop stop-color="#63F23B"/>
<stop offset="1" stop-color="#339911"/>
</linearGradient>
<linearGradient id="paint42_linear_358_36429" x1="8.52769" y1="8.00898" x2="13.6205" y2="20.4575" gradientUnits="userSpaceOnUse">
<stop stop-color="#63F23B"/>
<stop offset="1" stop-color="#339911"/>
</linearGradient>
<linearGradient id="paint43_linear_358_36429" x1="16.3681" y1="19.1262" x2="11.5328" y2="7.30703" gradientUnits="userSpaceOnUse">
<stop stop-color="#0E6033"/>
<stop offset="1" stop-color="#339911"/>
</linearGradient>
<linearGradient id="paint44_linear_358_36429" x1="16.5632" y1="18.8845" x2="11.7279" y2="7.06539" gradientUnits="userSpaceOnUse">
<stop stop-color="#292738"/>
<stop offset="1" stop-color="#292738"/>
</linearGradient>
<linearGradient id="paint45_linear_358_36429" x1="16.6458" y1="18.8513" x2="11.8104" y2="7.03213" gradientUnits="userSpaceOnUse">
<stop stop-color="#0A4726"/>
<stop offset="1" stop-color="#1E590A"/>
</linearGradient>
<linearGradient id="paint46_linear_358_36429" x1="9.85219" y1="11.1402" x2="12.3664" y2="17.2858" gradientUnits="userSpaceOnUse">
<stop stop-color="#CFAD05"/>
<stop offset="1" stop-color="#853903"/>
</linearGradient>
<linearGradient id="paint47_linear_358_36429" x1="6.85585" y1="11.472" x2="15.7164" y2="16.2569" gradientUnits="userSpaceOnUse">
<stop stop-color="#339911"/>
<stop offset="0.67" stop-color="#63F23B"/>
</linearGradient>
<linearGradient id="paint48_linear_358_36429" x1="7.90291" y1="6.48155" x2="14.5293" y2="22.6785" gradientUnits="userSpaceOnUse">
<stop offset="0.16" stop-color="#7CCF04"/>
<stop offset="1" stop-color="#EDEDED"/>
</linearGradient>
<radialGradient id="paint49_radial_358_36429" cx="0" cy="0" r="1" gradientUnits="userSpaceOnUse" gradientTransform="translate(26.8097 63.6846) rotate(-109.05) scale(0.9156 3.4008)">
<stop stop-color="white"/>
<stop offset="0.09" stop-color="white" stop-opacity="0.96"/>
<stop offset="0.24" stop-color="white" stop-opacity="0.85"/>
<stop offset="0.43" stop-color="white" stop-opacity="0.66"/>
<stop offset="0.66" stop-color="white" stop-opacity="0.41"/>
<stop offset="0.93" stop-color="white" stop-opacity="0.09"/>
<stop offset="1" stop-color="white" stop-opacity="0"/>
</radialGradient>
<linearGradient id="paint50_linear_358_36429" x1="8.13506" y1="7.20796" x2="11.6376" y2="15.7692" gradientUnits="userSpaceOnUse">
<stop stop-color="white"/>
<stop offset="1" stop-color="white" stop-opacity="0"/>
</linearGradient>
<linearGradient id="paint51_linear_358_36429" x1="10.4514" y1="13.0023" x2="16.7979" y2="27.8551" gradientUnits="userSpaceOnUse">
<stop stop-color="white"/>
<stop offset="1" stop-color="white" stop-opacity="0"/>
</linearGradient>
</defs>
</svg>
