<svg width="34" height="30" viewBox="0 0 34 30" fill="none" xmlns="http://www.w3.org/2000/svg">
<g style="mix-blend-mode:multiply" opacity="0.48">
<path d="M29.7202 8.36051L29.5302 8.16051L29.4102 8.03051L25.8302 4.17051C25.8302 4.17051 25.8402 4.19051 25.8502 4.19051C25.8102 4.15051 25.7802 4.11051 25.7402 4.07051C25.7102 4.04051 25.6902 4.02051 25.6602 3.99051C25.6302 3.96051 25.6102 3.93051 25.5802 3.91051C21.3202 -0.549487 13.8402 0.380513 8.86024 5.96051C6.59024 8.51051 5.24024 11.5805 4.84024 14.5905C4.83024 14.6705 4.82024 14.7505 4.81024 14.8305V14.8505C4.48024 17.5405 4.90024 20.1705 6.10024 22.3305L6.17024 22.2505C6.56024 22.9205 7.02024 23.5405 7.56024 24.1105C7.59024 24.1405 7.61024 24.1605 7.64024 24.1905C7.67024 24.2205 7.69024 24.2505 7.72024 24.2705C8.15024 24.7205 8.61024 25.1105 9.10024 25.4505C8.73024 25.2105 8.38024 24.9305 8.05024 24.6305L10.9402 27.3205C11.1302 27.5005 11.3402 27.6705 11.5402 27.8305C11.4502 27.7705 11.3602 27.7205 11.2702 27.6505C12.8702 29.0605 15.0102 29.8105 17.4702 29.6205C23.6502 29.1405 29.5802 22.9705 30.7102 15.8505C31.1702 12.9705 30.7602 10.3905 29.7102 8.35051L29.7202 8.36051Z" fill="#7F7F7F"/>
</g>
<path d="M11.5701 26.9998C11.9401 27.1698 12.3301 27.3298 12.7401 27.4398C12.8101 27.4598 12.8801 27.4798 12.9601 27.4998C13.9701 27.7698 15.0701 27.8798 16.2501 27.7998C22.7301 27.3298 28.9501 21.3598 30.1301 14.4598C30.6201 11.6098 30.1601 9.06984 29.0201 7.07984L25.2701 3.33984C26.9801 5.44984 27.7601 8.44984 27.1701 11.8798C25.9801 18.7798 19.7701 24.7498 13.2901 25.2198C10.6201 25.4098 8.32012 24.6398 6.62012 23.1798L9.65012 25.7898C9.85012 25.9598 10.0601 26.1298 10.2801 26.2798C10.5501 26.4598 10.8201 26.6398 11.1101 26.7898C11.2601 26.8698 11.4101 26.9398 11.5701 27.0098V26.9998Z" fill="url(#paint0_radial_358_36380)"/>
<path d="M30.39 14.6602C30.87 11.8702 30.44 9.3702 29.35 7.4002L29.15 7.2002C30.25 9.1702 30.68 11.6802 30.2 14.4702C29.01 21.3702 22.8 27.3402 16.32 27.8102C15.12 27.9002 13.99 27.7802 12.96 27.5002C12.89 27.4802 12.82 27.4602 12.74 27.4402C12.33 27.3202 11.95 27.1702 11.57 27.0002C11.41 26.9302 11.26 26.8602 11.11 26.7802C10.82 26.6202 10.54 26.4502 10.28 26.2702C10.19 26.2102 10.09 26.1602 10 26.1002C11.68 27.4702 13.92 28.1902 16.5 28.0002C22.98 27.5302 29.2 21.5602 30.38 14.6602H30.39Z" fill="url(#paint1_linear_358_36380)"/>
<path d="M30.13 14.4603C28.94 21.3603 22.73 27.3303 16.25 27.8003C15.07 27.8903 13.97 27.7703 12.96 27.5003C13.99 27.7803 15.12 27.9003 16.32 27.8103C22.8 27.3403 29.02 21.3703 30.2 14.4703C30.68 11.6803 30.25 9.17031 29.15 7.20031L29.02 7.07031C30.16 9.06031 30.62 11.6103 30.13 14.4503V14.4603Z" fill="url(#paint2_radial_358_36380)"/>
<path d="M30.13 14.4603C28.94 21.3603 22.73 27.3303 16.25 27.8003C15.07 27.8903 13.97 27.7703 12.96 27.5003C13.99 27.7803 15.12 27.9003 16.32 27.8103C22.8 27.3403 29.02 21.3703 30.2 14.4703C30.68 11.6803 30.25 9.17031 29.15 7.20031L29.02 7.07031C30.16 9.06031 30.62 11.6103 30.13 14.4503V14.4603Z" fill="url(#paint3_linear_358_36380)"/>
<path d="M12.7403 27.44C12.3303 27.32 11.9503 27.17 11.5703 27C11.9403 27.17 12.3303 27.32 12.7403 27.44Z" fill="url(#paint4_radial_358_36380)"/>
<path d="M12.7403 27.44C12.3303 27.32 11.9503 27.17 11.5703 27C11.9403 27.17 12.3303 27.32 12.7403 27.44Z" fill="url(#paint5_linear_358_36380)"/>
<path d="M10.2803 26.2598C10.5503 26.4498 10.8303 26.6198 11.1103 26.7698C10.8203 26.6198 10.5403 26.4398 10.2803 26.2598Z" fill="url(#paint6_radial_358_36380)"/>
<path d="M10.2803 26.2598C10.5503 26.4498 10.8303 26.6198 11.1103 26.7698C10.8203 26.6198 10.5403 26.4398 10.2803 26.2598Z" fill="url(#paint7_linear_358_36380)"/>
<path d="M25.0001 3.07025C25.0001 3.07025 25.0501 3.13025 25.0801 3.15025C20.6001 -1.05975 12.8201 -0.139751 7.6301 5.23025C2.44009 10.6102 1.8101 18.4102 6.18009 22.7402C6.15009 22.7102 6.1201 22.6902 6.1001 22.6602C1.64009 18.3602 2.25009 10.4802 7.47009 5.07025C12.6901 -0.339751 20.5401 -1.22975 25.0001 3.07025Z" fill="url(#paint8_linear_358_36380)"/>
<path d="M23.6302 20.6604C28.8202 15.2804 29.4502 7.48039 25.0802 3.15039C25.1102 3.18039 25.1402 3.20039 25.1602 3.23039C29.6202 7.53039 29.0102 15.4104 23.7902 20.8204C18.5702 26.2304 10.7202 27.1204 6.26018 22.8204C6.23018 22.7904 6.21018 22.7604 6.18018 22.7404C10.6602 26.9504 18.4402 26.0404 23.6202 20.6604H23.6302Z" fill="url(#paint9_linear_358_36380)"/>
<path d="M7.62995 5.23002C12.82 -0.139984 20.6 -1.05998 25.08 3.15002C29.45 7.47002 28.82 15.28 23.63 20.66C18.44 26.04 10.66 26.95 6.18995 22.74C1.81995 18.42 2.44995 10.61 7.63995 5.23002H7.62995Z" fill="url(#paint10_linear_358_36380)"/>
<path d="M7.62995 5.23002C12.82 -0.139984 20.6 -1.05998 25.08 3.15002C29.45 7.47002 28.82 15.28 23.63 20.66C18.44 26.04 10.66 26.95 6.18995 22.74C1.81995 18.42 2.44995 10.61 7.63995 5.23002H7.62995Z" fill="url(#paint11_linear_358_36380)"/>
<path style="mix-blend-mode:overlay" opacity="0.7" d="M25.0001 3.07025C25.0001 3.07025 25.0501 3.13025 25.0801 3.15025C20.6001 -1.05975 12.8201 -0.139751 7.6301 5.23025C2.44009 10.6102 1.8101 18.4102 6.18009 22.7402C6.15009 22.7102 6.1201 22.6902 6.1001 22.6602C1.64009 18.3602 2.25009 10.4802 7.47009 5.07025C12.6901 -0.339751 20.5401 -1.22975 25.0001 3.07025Z" fill="url(#paint12_linear_358_36380)"/>
<path d="M7.62995 5.23002C12.82 -0.139984 20.6 -1.05998 25.08 3.15002C29.45 7.47002 28.82 15.28 23.63 20.66C18.44 26.04 10.66 26.95 6.18995 22.74C1.81995 18.42 2.44995 10.61 7.63995 5.23002H7.62995Z" fill="url(#paint13_linear_358_36380)"/>
<path d="M7.62995 5.23002C12.82 -0.139984 20.6 -1.05998 25.08 3.15002C29.45 7.47002 28.82 15.28 23.63 20.66C18.44 26.04 10.66 26.95 6.18995 22.74C1.81995 18.42 2.44995 10.61 7.63995 5.23002H7.62995Z" fill="url(#paint14_linear_358_36380)"/>
<path style="mix-blend-mode:overlay" d="M23.6302 20.6604C28.8202 15.2804 29.4502 7.48039 25.0802 3.15039C25.1102 3.18039 25.1402 3.20039 25.1602 3.23039C29.6202 7.53039 29.0102 15.4104 23.7902 20.8204C18.5702 26.2304 10.7202 27.1204 6.26018 22.8204C6.23018 22.7904 6.21018 22.7604 6.18018 22.7404C10.6602 26.9504 18.4402 26.0404 23.6202 20.6604H23.6302Z" fill="url(#paint15_linear_358_36380)"/>
<path style="mix-blend-mode:overlay" d="M23.6302 20.6604C28.8202 15.2804 29.4502 7.48039 25.0802 3.15039C25.1102 3.18039 25.1402 3.20039 25.1602 3.23039C29.6202 7.53039 29.0102 15.4104 23.7902 20.8204C18.5702 26.2304 10.7202 27.1204 6.26018 22.8204C6.23018 22.7904 6.21018 22.7604 6.18018 22.7404C10.6602 26.9504 18.4402 26.0404 23.6202 20.6604H23.6302Z" fill="url(#paint16_linear_358_36380)"/>
<path style="mix-blend-mode:overlay" opacity="0.5" d="M25.7602 13.4005C25.1402 15.5405 25.0802 17.2905 25.6202 17.3105C26.1602 17.3305 27.1002 15.6205 27.7202 13.4805C28.3402 11.3405 28.4002 9.59049 27.8602 9.57049C27.3202 9.55049 26.3802 11.2605 25.7602 13.4005Z" fill="url(#paint17_linear_358_36380)"/>
<path d="M13.9103 22.1711C11.9403 22.1711 10.0803 21.5111 8.68028 20.1611C5.39028 16.9911 5.84028 11.1711 9.67028 7.19111C13.5103 3.21111 19.3003 2.56111 22.5903 5.73111C25.8803 8.90111 25.4303 14.7211 21.6003 18.7011C19.4003 20.9811 16.5603 22.1711 13.9103 22.1711ZM9.86028 7.38111C6.13028 11.2511 5.68028 16.9011 8.86028 19.9611C12.0403 23.0311 17.6703 22.3811 21.4003 18.5111C25.1303 14.6411 25.5803 8.99111 22.4003 5.93111C19.2203 2.86111 13.5903 3.51111 9.86028 7.38111Z" fill="url(#paint18_linear_358_36380)"/>
<path d="M21.3349 18.3706C24.9929 14.5786 25.4224 9.05833 22.2943 6.04065C19.1661 3.02297 13.6648 3.65065 10.0067 7.44262C6.34872 11.2346 5.91919 16.7549 9.04737 19.7726C12.1755 22.7903 17.6769 22.1626 21.3349 18.3706Z" fill="url(#paint19_linear_358_36380)"/>
<path style="mix-blend-mode:multiply" opacity="0.59" d="M11.1099 8.21101C14.2699 4.94101 18.7999 4.02101 21.9899 5.78101C18.8199 3.07101 13.5499 3.77101 9.99986 7.45101C6.44986 11.131 5.90986 16.761 9.03986 19.781C9.46986 20.191 9.93986 20.531 10.4399 20.811C10.3399 20.721 10.2399 20.641 10.1499 20.541C7.01986 17.521 7.44986 12.011 11.1099 8.21101Z" fill="url(#paint20_linear_358_36380)"/>
<path d="M21.3298 18.371C24.9898 14.581 25.4198 9.06096 22.2898 6.04096C22.1898 5.95096 22.0998 5.86096 21.9998 5.77096C18.8098 4.02096 14.2798 4.93096 11.1198 8.20096C7.45978 11.991 7.02978 17.511 10.1598 20.531C10.2598 20.621 10.3498 20.711 10.4498 20.801C13.6398 22.551 18.1698 21.641 21.3298 18.371Z" fill="url(#paint21_linear_358_36380)"/>
<g style="mix-blend-mode:multiply">
<g opacity="0.63">
<path d="M17.9603 13.8306L18.7903 12.9706C18.8803 12.8806 18.8903 12.7406 18.8103 12.6606C18.9803 12.0906 18.4503 11.6506 18.4503 11.6506C18.4503 10.9406 18.2703 10.4806 18.0003 10.1806C18.1503 10.0206 18.3703 9.81059 18.6003 9.61059C18.7803 9.65059 18.9503 9.72059 19.1003 9.80059C19.3003 10.5706 20.4303 10.7706 20.6303 10.7706C21.1503 10.7706 21.9403 10.8806 22.0203 10.9206C21.9703 10.8106 21.9103 10.7006 21.8603 10.6006C20.8503 8.75059 19.7503 9.28059 19.3003 9.62059C19.1603 9.54059 19.0103 9.47059 18.8503 9.42059C19.2303 9.14059 19.5603 9.00059 19.8003 9.02059C19.8703 9.02059 19.9303 8.98059 19.9503 8.91059C19.9703 8.84059 19.9303 8.78059 19.8603 8.77059C19.6903 8.76059 19.5003 8.80059 19.2903 8.89059C19.3403 8.69059 19.4003 8.42059 19.4103 8.21059C19.4303 8.19059 19.4503 8.16059 19.4803 8.13059C19.7803 7.76059 20.5403 6.51059 18.4603 5.49059C18.5203 5.77059 18.6003 6.30059 18.6103 6.68059C18.6103 6.85059 18.7803 7.66059 19.2903 8.02059C18.7903 7.66059 18.6203 6.85059 18.6103 6.68059C18.6103 6.30059 18.5203 5.77059 18.4603 5.49059C18.3703 5.44059 18.2703 5.40059 18.1603 5.35059C18.2003 5.42059 18.3503 6.21059 18.3603 6.74059C18.3603 6.93059 18.5603 7.84059 19.1603 8.16059C19.1603 8.16059 19.1603 8.17059 19.1603 8.18059C19.1903 8.40059 19.0703 8.85059 19.0003 9.06059C18.8503 9.15059 18.6903 9.27059 18.5203 9.41059C18.2503 9.64059 18.0003 9.88059 17.8303 10.0606C17.0603 9.45059 15.8303 9.83059 15.8303 9.83059L15.7903 9.79059C15.7103 9.71059 15.5703 9.73059 15.4903 9.82059L14.6803 10.6606C13.3403 10.4306 11.9103 10.9406 10.7203 12.1806C8.84028 14.1306 8.71028 16.6306 10.4703 18.3306C12.2303 20.0306 14.7803 19.7506 16.6103 17.8606C17.7703 16.6606 18.2403 15.2006 17.9703 13.8606L17.9603 13.8306ZM11.6703 17.0506C10.4403 15.8706 10.7903 14.4206 11.8903 13.2806C12.9903 12.1406 14.3603 11.8106 15.5903 12.9906C16.8203 14.1706 16.5203 15.5706 15.4303 16.7006C14.3403 17.8306 12.8903 18.2306 11.6703 17.0506Z" fill="url(#paint22_linear_358_36380)"/>
</g>
</g>
<path d="M17.8602 13.731L18.6902 12.871C18.7802 12.781 18.7902 12.641 18.7102 12.561C18.8802 11.991 18.3502 11.551 18.3502 11.551C18.3502 10.841 18.1702 10.381 17.9002 10.081C18.0502 9.92098 18.2702 9.71098 18.5002 9.51098C18.6802 9.55098 18.8502 9.62098 19.0002 9.70098C19.2002 10.471 20.3302 10.671 20.5302 10.671C21.0502 10.671 21.8402 10.781 21.9202 10.821C21.8702 10.711 21.8102 10.601 21.7602 10.501C20.7502 8.65098 19.6502 9.18098 19.2002 9.52098C19.0602 9.44098 18.9102 9.37098 18.7502 9.32098C19.1302 9.04098 19.4602 8.90098 19.7002 8.92098C19.7702 8.92098 19.8302 8.88098 19.8502 8.81098C19.8702 8.74098 19.8302 8.68098 19.7602 8.67098C19.5902 8.66098 19.4002 8.70098 19.1902 8.79098C19.2402 8.59098 19.3002 8.32098 19.3102 8.11098C19.3302 8.09098 19.3502 8.06098 19.3802 8.03098C19.6802 7.66098 20.4402 6.41098 18.3602 5.39098C18.4202 5.67098 18.5002 6.20098 18.5102 6.58098C18.5102 6.75098 18.6802 7.56098 19.1902 7.92098C18.6902 7.56098 18.5202 6.75098 18.5102 6.58098C18.5102 6.20098 18.4202 5.67098 18.3602 5.39098C18.2702 5.34098 18.1702 5.30098 18.0602 5.25098C18.1002 5.32098 18.2502 6.11098 18.2602 6.64098C18.2602 6.83098 18.4602 7.74098 19.0602 8.06098C19.0602 8.06098 19.0602 8.07098 19.0602 8.08098C19.0902 8.30098 18.9702 8.75098 18.9002 8.96098C18.7502 9.05098 18.5902 9.17098 18.4202 9.31098C18.1502 9.54098 17.9002 9.78098 17.7302 9.96098C16.9602 9.35098 15.7302 9.73098 15.7302 9.73098L15.6902 9.69098C15.6102 9.61098 15.4702 9.63098 15.3902 9.72098L14.5802 10.561C13.2402 10.331 11.8102 10.841 10.6202 12.081C8.74018 14.031 8.61018 16.531 10.3702 18.231C12.1302 19.931 14.6802 19.651 16.5102 17.761C17.6702 16.561 18.1402 15.101 17.8702 13.761L17.8602 13.731ZM11.5702 16.951C10.3402 15.771 10.6902 14.321 11.7902 13.181C12.8902 12.041 14.2602 11.711 15.4902 12.891C16.7202 14.071 16.4202 15.471 15.3302 16.601C14.2402 17.731 12.7902 18.131 11.5702 16.951Z" fill="url(#paint23_linear_358_36380)"/>
<g style="mix-blend-mode:multiply">
<path d="M13.6701 25.3102C11.0301 25.3102 8.66013 24.4002 6.89013 22.6902C4.81013 20.6902 3.81013 17.8202 4.06013 14.6202C4.31013 11.4302 5.79013 8.29016 8.21013 5.78016C10.6301 3.27016 13.7201 1.68016 16.9001 1.31016C20.0801 0.930157 22.9901 1.84016 25.0701 3.85016C27.1501 5.85016 28.1501 8.72016 27.9001 11.9202C27.6501 15.1102 26.1701 18.2502 23.7501 20.7602C21.3301 23.2702 18.2401 24.8602 15.0601 25.2302C14.5901 25.2802 14.1301 25.3102 13.6801 25.3102H13.6701ZM18.2701 1.53016C17.8301 1.53016 17.3801 1.56016 16.9201 1.61016C13.8101 1.97016 10.7901 3.52016 8.41013 5.99016C6.03013 8.45016 4.59013 11.5302 4.34013 14.6502C4.09013 17.7602 5.07013 20.5402 7.08013 22.4802C9.09013 24.4202 11.9101 25.3002 15.0001 24.9402C18.1101 24.5802 21.1301 23.0302 23.5001 20.5602C25.8801 18.1002 27.3201 15.0202 27.5701 11.9002C27.8201 8.79016 26.8501 6.01016 24.8301 4.07016C23.1101 2.41016 20.8101 1.54016 18.2501 1.54016L18.2701 1.53016Z" fill="url(#paint24_linear_358_36380)"/>
</g>
<path d="M13.3302 25.1307C10.6502 25.1307 8.25019 24.2107 6.44019 22.4707C2.10019 18.2807 2.69019 10.6007 7.76019 5.35071C10.2102 2.82071 13.3202 1.21071 16.5402 0.840714C19.7702 0.460714 22.7102 1.38071 24.8302 3.42071C26.9402 5.46071 27.9602 8.36071 27.7002 11.6107C27.4402 14.8307 25.9502 18.0007 23.5102 20.5407C21.0602 23.0807 17.9502 24.6807 14.7302 25.0507C14.2602 25.1007 13.7902 25.1307 13.3302 25.1307ZM17.9302 1.36071C17.4902 1.36071 17.0502 1.39071 16.6002 1.44071C13.5202 1.80071 10.5402 3.33071 8.18019 5.77071C3.34019 10.7907 2.74019 18.0907 6.85019 22.0507C8.83019 23.9607 11.6002 24.8207 14.6502 24.4607C17.7302 24.1007 20.7102 22.5707 23.0702 20.1307C25.4202 17.6907 26.8502 14.6507 27.1002 11.5607C27.3402 8.50071 26.3902 5.76071 24.4102 3.85071C22.7202 2.22071 20.4602 1.36071 17.9402 1.36071H17.9302Z" fill="#C1F471"/>
<path style="mix-blend-mode:overlay" opacity="0.5" d="M22.6002 19.4604C20.8102 20.9504 19.6902 22.5104 20.1102 22.9604C20.5202 23.4104 22.3102 22.5704 24.1102 21.0804C25.9002 19.5904 27.0202 18.0304 26.6002 17.5804C26.1902 17.1304 24.4002 17.9704 22.6002 19.4604Z" fill="url(#paint25_radial_358_36380)"/>
<path style="mix-blend-mode:overlay" opacity="0.4" d="M15.5802 0.650268L3.25024 13.4403C2.84024 16.1303 3.27024 18.7703 4.57024 20.9403L23.1202 1.71027C20.9102 0.480268 18.2502 0.150268 15.5802 0.660268V0.650268Z" fill="url(#paint26_linear_358_36380)"/>
<path style="mix-blend-mode:overlay" opacity="0.4" d="M23.5804 20.7104C28.1204 16.0004 29.1904 9.43043 26.4704 4.94043L7.92041 24.1704C12.5104 26.7204 19.0404 25.4204 23.5804 20.7104Z" fill="url(#paint27_linear_358_36380)"/>
<defs>
<radialGradient id="paint0_radial_358_36380" cx="0" cy="0" r="1" gradientUnits="userSpaceOnUse" gradientTransform="translate(20 16) rotate(71.5651) scale(12.6491)">
<stop offset="0.17" stop-color="#ACF465"/>
<stop offset="0.18" stop-color="#A3F360"/>
<stop offset="0.19" stop-color="#8CF352"/>
<stop offset="0.21" stop-color="#79F248"/>
<stop offset="0.22" stop-color="#6CF240"/>
<stop offset="0.25" stop-color="#65F23C"/>
<stop offset="0.3" stop-color="#63F23B"/>
<stop offset="0.36" stop-color="#64F23C"/>
<stop offset="0.38" stop-color="#6BF23F"/>
<stop offset="0.4" stop-color="#77F246"/>
<stop offset="0.41" stop-color="#88F350"/>
<stop offset="0.42" stop-color="#9EF35C"/>
<stop offset="0.43" stop-color="#ACF465"/>
<stop offset="0.45" stop-color="#C3F47E"/>
<stop offset="0.48" stop-color="#D8F495"/>
<stop offset="0.51" stop-color="#E7F4A5"/>
<stop offset="0.54" stop-color="#F0F4AE"/>
<stop offset="0.59" stop-color="#E1F098"/>
<stop offset="0.6" stop-color="#CFED7E"/>
<stop offset="0.61" stop-color="#C0EA68"/>
<stop offset="0.62" stop-color="#B5E857"/>
<stop offset="0.63" stop-color="#ACE74B"/>
<stop offset="0.65" stop-color="#A8E644"/>
<stop offset="0.69" stop-color="#A7E643"/>
<stop offset="0.7" stop-color="#9EDE3A"/>
<stop offset="0.71" stop-color="#8FD029"/>
<stop offset="0.73" stop-color="#84C61D"/>
<stop offset="0.76" stop-color="#7DC016"/>
<stop offset="0.83" stop-color="#7CBF15"/>
<stop offset="0.84" stop-color="#6DB81B"/>
<stop offset="0.85" stop-color="#5CB122"/>
<stop offset="0.86" stop-color="#50AB27"/>
<stop offset="0.87" stop-color="#49A82A"/>
<stop offset="0.91" stop-color="#48A82B"/>
<stop offset="0.93" stop-color="#45A329"/>
<stop offset="0.95" stop-color="#3F9425"/>
<stop offset="0.97" stop-color="#347D1F"/>
<stop offset="1" stop-color="#265C17"/>
</radialGradient>
<linearGradient id="paint1_linear_358_36380" x1="20.5523" y1="21.6005" x2="31.5909" y2="32.3388" gradientUnits="userSpaceOnUse">
<stop offset="0.74" stop-color="#0C6337"/>
<stop offset="1" stop-color="#339911"/>
</linearGradient>
<radialGradient id="paint2_radial_358_36380" cx="0" cy="0" r="1" gradientUnits="userSpaceOnUse" gradientTransform="translate(25.9199 26.7385) rotate(44.21) scale(11.14)">
<stop stop-color="#C1F471"/>
<stop offset="0.11" stop-color="#BFF46F"/>
<stop offset="0.15" stop-color="#B8F46C"/>
<stop offset="0.17" stop-color="#ACF465"/>
<stop offset="0.18" stop-color="#A3F360"/>
<stop offset="0.19" stop-color="#8CF352"/>
<stop offset="0.21" stop-color="#79F248"/>
<stop offset="0.22" stop-color="#6CF240"/>
<stop offset="0.25" stop-color="#65F23C"/>
<stop offset="0.3" stop-color="#63F23B"/>
<stop offset="0.36" stop-color="#64F23C"/>
<stop offset="0.38" stop-color="#6BF23F"/>
<stop offset="0.4" stop-color="#77F246"/>
<stop offset="0.41" stop-color="#88F350"/>
<stop offset="0.42" stop-color="#9EF35C"/>
<stop offset="0.43" stop-color="#ACF465"/>
<stop offset="0.45" stop-color="#C3F47E"/>
<stop offset="0.48" stop-color="#D8F495"/>
<stop offset="0.51" stop-color="#E7F4A5"/>
<stop offset="0.54" stop-color="#F0F4AE"/>
<stop offset="0.59" stop-color="#EEF4AC"/>
<stop offset="0.6" stop-color="#DDF496"/>
<stop offset="0.62" stop-color="#D0F485"/>
<stop offset="0.64" stop-color="#C7F479"/>
<stop offset="0.67" stop-color="#C2F472"/>
<stop offset="0.75" stop-color="#C1F471"/>
<stop offset="0.76" stop-color="#C1F471"/>
<stop offset="0.83" stop-color="#C1F471"/>
<stop offset="0.84" stop-color="#A3F35F"/>
<stop offset="0.85" stop-color="#7CF249"/>
<stop offset="0.86" stop-color="#70F242"/>
<stop offset="0.87" stop-color="#69F23F"/>
<stop offset="0.91" stop-color="#68F23E"/>
</radialGradient>
<linearGradient id="paint3_linear_358_36380" x1="20.9219" y1="21.2207" x2="31.9604" y2="31.959" gradientUnits="userSpaceOnUse">
<stop stop-color="#0E6033"/>
<stop offset="1" stop-color="#339911"/>
</linearGradient>
<radialGradient id="paint4_radial_358_36380" cx="0" cy="0" r="1" gradientUnits="userSpaceOnUse" gradientTransform="translate(25.9202 26.7382) rotate(44.21) scale(11.14)">
<stop stop-color="#C1F471"/>
<stop offset="0.11" stop-color="#BFF46F"/>
<stop offset="0.15" stop-color="#B8F46C"/>
<stop offset="0.17" stop-color="#ACF465"/>
<stop offset="0.18" stop-color="#A3F360"/>
<stop offset="0.19" stop-color="#8CF352"/>
<stop offset="0.21" stop-color="#79F248"/>
<stop offset="0.22" stop-color="#6CF240"/>
<stop offset="0.25" stop-color="#65F23C"/>
<stop offset="0.3" stop-color="#63F23B"/>
<stop offset="0.36" stop-color="#64F23C"/>
<stop offset="0.38" stop-color="#6BF23F"/>
<stop offset="0.4" stop-color="#77F246"/>
<stop offset="0.41" stop-color="#88F350"/>
<stop offset="0.42" stop-color="#9EF35C"/>
<stop offset="0.43" stop-color="#ACF465"/>
<stop offset="0.45" stop-color="#C3F47E"/>
<stop offset="0.48" stop-color="#D8F495"/>
<stop offset="0.51" stop-color="#E7F4A5"/>
<stop offset="0.54" stop-color="#F0F4AE"/>
<stop offset="0.59" stop-color="#EEF4AC"/>
<stop offset="0.6" stop-color="#DDF496"/>
<stop offset="0.62" stop-color="#D0F485"/>
<stop offset="0.64" stop-color="#C7F479"/>
<stop offset="0.67" stop-color="#C2F472"/>
<stop offset="0.75" stop-color="#C1F471"/>
<stop offset="0.76" stop-color="#C1F471"/>
<stop offset="0.83" stop-color="#C1F471"/>
<stop offset="0.84" stop-color="#A3F35F"/>
<stop offset="0.85" stop-color="#7CF249"/>
<stop offset="0.86" stop-color="#70F242"/>
<stop offset="0.87" stop-color="#69F23F"/>
<stop offset="0.91" stop-color="#68F23E"/>
</radialGradient>
<linearGradient id="paint5_linear_358_36380" x1="11.6762" y1="30.725" x2="22.7147" y2="41.4633" gradientUnits="userSpaceOnUse">
<stop stop-color="#0E6033"/>
<stop offset="1" stop-color="#339911"/>
</linearGradient>
<radialGradient id="paint6_radial_358_36380" cx="0" cy="0" r="1" gradientUnits="userSpaceOnUse" gradientTransform="translate(25.9202 26.7379) rotate(44.21) scale(11.14)">
<stop stop-color="#C1F471"/>
<stop offset="0.11" stop-color="#BFF46F"/>
<stop offset="0.15" stop-color="#B8F46C"/>
<stop offset="0.17" stop-color="#ACF465"/>
<stop offset="0.18" stop-color="#A3F360"/>
<stop offset="0.19" stop-color="#8CF352"/>
<stop offset="0.21" stop-color="#79F248"/>
<stop offset="0.22" stop-color="#6CF240"/>
<stop offset="0.25" stop-color="#65F23C"/>
<stop offset="0.3" stop-color="#63F23B"/>
<stop offset="0.36" stop-color="#64F23C"/>
<stop offset="0.38" stop-color="#6BF23F"/>
<stop offset="0.4" stop-color="#77F246"/>
<stop offset="0.41" stop-color="#88F350"/>
<stop offset="0.42" stop-color="#9EF35C"/>
<stop offset="0.43" stop-color="#ACF465"/>
<stop offset="0.45" stop-color="#C3F47E"/>
<stop offset="0.48" stop-color="#D8F495"/>
<stop offset="0.51" stop-color="#E7F4A5"/>
<stop offset="0.54" stop-color="#F0F4AE"/>
<stop offset="0.59" stop-color="#EEF4AC"/>
<stop offset="0.6" stop-color="#DDF496"/>
<stop offset="0.62" stop-color="#D0F485"/>
<stop offset="0.64" stop-color="#C7F479"/>
<stop offset="0.67" stop-color="#C2F472"/>
<stop offset="0.75" stop-color="#C1F471"/>
<stop offset="0.76" stop-color="#C1F471"/>
<stop offset="0.83" stop-color="#C1F471"/>
<stop offset="0.84" stop-color="#A3F35F"/>
<stop offset="0.85" stop-color="#7CF249"/>
<stop offset="0.86" stop-color="#70F242"/>
<stop offset="0.87" stop-color="#69F23F"/>
<stop offset="0.91" stop-color="#68F23E"/>
</radialGradient>
<linearGradient id="paint7_linear_358_36380" x1="11.3205" y1="31.0904" x2="-413.262" y2="-381.942" gradientUnits="userSpaceOnUse">
<stop stop-color="#0E6033"/>
<stop offset="1" stop-color="#339911"/>
</linearGradient>
<linearGradient id="paint8_linear_358_36380" x1="25.2865" y1="18.8366" x2="9.12916" y2="3.24994" gradientUnits="userSpaceOnUse">
<stop stop-color="#63F23B"/>
<stop offset="1" stop-color="#339911"/>
</linearGradient>
<linearGradient id="paint9_linear_358_36380" x1="25.4521" y1="18.9964" x2="9.29477" y2="3.40977" gradientUnits="userSpaceOnUse">
<stop stop-color="#63F23B"/>
<stop offset="1" stop-color="#339911"/>
</linearGradient>
<linearGradient id="paint10_linear_358_36380" x1="25.2864" y1="18.8363" x2="9.12901" y2="3.24971" gradientUnits="userSpaceOnUse">
<stop stop-color="#63F23B"/>
<stop offset="1" stop-color="#339911"/>
</linearGradient>
<linearGradient id="paint11_linear_358_36380" x1="25.4519" y1="18.996" x2="9.29455" y2="3.4094" gradientUnits="userSpaceOnUse">
<stop stop-color="#63F23B"/>
<stop offset="1" stop-color="#339911"/>
</linearGradient>
<linearGradient id="paint12_linear_358_36380" x1="25.2865" y1="18.8366" x2="9.12916" y2="3.24994" gradientUnits="userSpaceOnUse">
<stop stop-color="#63F23B"/>
<stop offset="1" stop-color="#339911"/>
</linearGradient>
<linearGradient id="paint13_linear_358_36380" x1="25.2864" y1="18.8363" x2="9.12901" y2="3.24971" gradientUnits="userSpaceOnUse">
<stop stop-color="#63F23B"/>
<stop offset="1" stop-color="#339911"/>
</linearGradient>
<linearGradient id="paint14_linear_358_36380" x1="25.4519" y1="18.996" x2="9.29455" y2="3.4094" gradientUnits="userSpaceOnUse">
<stop stop-color="#63F23B"/>
<stop offset="1" stop-color="#339911"/>
</linearGradient>
<linearGradient id="paint15_linear_358_36380" x1="25.4521" y1="18.9964" x2="9.29477" y2="3.40977" gradientUnits="userSpaceOnUse">
<stop stop-color="white" stop-opacity="0"/>
<stop offset="0.48" stop-color="white"/>
<stop offset="1" stop-color="white" stop-opacity="0"/>
</linearGradient>
<linearGradient id="paint16_linear_358_36380" x1="25.4521" y1="18.9964" x2="9.29477" y2="3.40977" gradientUnits="userSpaceOnUse">
<stop stop-color="white" stop-opacity="0"/>
<stop offset="0.48" stop-color="white"/>
<stop offset="1" stop-color="white" stop-opacity="0"/>
</linearGradient>
<linearGradient id="paint17_linear_358_36380" x1="176.417" y1="27.6364" x2="174.319" y2="27.3464" gradientUnits="userSpaceOnUse">
<stop stop-color="#63F23B"/>
<stop offset="1" stop-color="#339911"/>
</linearGradient>
<linearGradient id="paint18_linear_358_36380" x1="9.63398" y1="7.12463" x2="21.5667" y2="18.6358" gradientUnits="userSpaceOnUse">
<stop stop-color="#63F23B"/>
<stop offset="1" stop-color="#339911"/>
</linearGradient>
<linearGradient id="paint19_linear_358_36380" x1="22.922" y1="16.7254" x2="11.5939" y2="5.79738" gradientUnits="userSpaceOnUse">
<stop stop-color="#0E6033"/>
<stop offset="1" stop-color="#339911"/>
</linearGradient>
<linearGradient id="paint20_linear_358_36380" x1="22.9888" y1="16.5522" x2="11.6607" y2="5.62424" gradientUnits="userSpaceOnUse">
<stop stop-color="#292738"/>
<stop offset="1" stop-color="#292738"/>
</linearGradient>
<linearGradient id="paint21_linear_358_36380" x1="23.0712" y1="16.4667" x2="11.7431" y2="5.53868" gradientUnits="userSpaceOnUse">
<stop stop-color="#0A4726"/>
<stop offset="1" stop-color="#1E590A"/>
</linearGradient>
<linearGradient id="paint22_linear_358_36380" x1="12.6914" y1="10.0041" x2="18.5786" y2="15.6833" gradientUnits="userSpaceOnUse">
<stop stop-color="#CFAD05"/>
<stop offset="1" stop-color="#853903"/>
</linearGradient>
<linearGradient id="paint23_linear_358_36380" x1="9.39285" y1="11.7969" x2="21.763" y2="12.79" gradientUnits="userSpaceOnUse">
<stop stop-color="#339911"/>
<stop offset="0.67" stop-color="#63F23B"/>
</linearGradient>
<linearGradient id="paint24_linear_358_36380" x1="8.18002" y1="5.72122" x2="23.704" y2="20.6969" gradientUnits="userSpaceOnUse">
<stop offset="0.16" stop-color="#7CCF04"/>
<stop offset="1" stop-color="#EDEDED"/>
</linearGradient>
<radialGradient id="paint25_radial_358_36380" cx="0" cy="0" r="1" gradientUnits="userSpaceOnUse" gradientTransform="translate(75.6019 75.7923) rotate(-132.84) scale(1.1284 4.1912)">
<stop stop-color="white"/>
<stop offset="0.09" stop-color="white" stop-opacity="0.96"/>
<stop offset="0.24" stop-color="white" stop-opacity="0.85"/>
<stop offset="0.43" stop-color="white" stop-opacity="0.66"/>
<stop offset="0.66" stop-color="white" stop-opacity="0.41"/>
<stop offset="0.93" stop-color="white" stop-opacity="0.09"/>
<stop offset="1" stop-color="white" stop-opacity="0"/>
</radialGradient>
<linearGradient id="paint26_linear_358_36380" x1="8.80086" y1="6.4174" x2="17.0127" y2="14.3392" gradientUnits="userSpaceOnUse">
<stop stop-color="white"/>
<stop offset="1" stop-color="white" stop-opacity="0"/>
</linearGradient>
<linearGradient id="paint27_linear_358_36380" x1="14.2939" y1="11.7998" x2="28.8315" y2="25.407" gradientUnits="userSpaceOnUse">
<stop stop-color="white"/>
<stop offset="1" stop-color="white" stop-opacity="0"/>
</linearGradient>
</defs>
</svg>
