<svg width="34" height="30" viewBox="0 0 34 30" fill="none" xmlns="http://www.w3.org/2000/svg">
<g style="mix-blend-mode:multiply" opacity="0.48">
<path d="M33.54 21.9502V21.7302V21.5902L33.64 17.4202C33.64 17.4202 33.64 17.4302 33.64 17.4402C33.64 17.4002 33.64 17.3502 33.64 17.3102C33.64 17.2802 33.64 17.2502 33.64 17.2202C33.64 17.1902 33.64 17.1602 33.64 17.1302C33.67 12.2602 28.91 8.66019 23.01 9.08019C20.32 9.27019 17.85 10.2702 15.97 11.7602C15.97 11.7602 15.87 11.8402 15.83 11.8802C15.83 11.8802 15.82 11.8802 15.81 11.8902C14.14 13.2302 12.93 14.9602 12.42 16.8502H12.5C12.35 17.4402 12.27 18.0502 12.26 18.6602C12.26 18.6902 12.26 18.7202 12.26 18.7502C12.26 18.7802 12.26 18.8102 12.26 18.8402C12.26 19.3302 12.3 19.8102 12.39 20.2702C12.31 19.9302 12.26 19.5802 12.25 19.2302L12.41 22.3502C12.42 22.5602 12.44 22.7702 12.47 22.9702C12.46 22.8902 12.43 22.8102 12.42 22.7202C12.55 24.4102 13.35 26.0002 14.86 27.2602C18.64 30.3902 25.4 30.1602 29.97 26.7402C31.82 25.3602 33.01 23.6702 33.54 21.9302V21.9502Z" fill="#7F7F7F"/>
</g>
<path d="M12.9598 22.5309C13.0798 22.8309 13.2098 23.1309 13.3798 23.4309C13.4098 23.4809 13.4398 23.5309 13.4698 23.5809C13.8998 24.2909 14.4598 24.9609 15.1798 25.5609C19.1198 28.8709 25.9398 28.9009 30.4198 25.6409C32.2698 24.2909 33.4098 22.6009 33.8598 20.8309L33.7898 16.6309C33.5998 18.7709 32.3898 20.9009 30.1598 22.5209C25.6798 25.7809 18.8598 25.7509 14.9198 22.4409C13.2998 21.0809 12.4198 19.3709 12.2598 17.6109L12.5498 20.7609C12.5698 20.9709 12.5998 21.1809 12.6398 21.3909C12.6898 21.6409 12.7498 21.8909 12.8298 22.1409C12.8698 22.2709 12.9198 22.3909 12.9698 22.5209L12.9598 22.5309Z" fill="url(#paint0_radial_358_36238)"/>
<path d="M30.4398 25.8907C32.2498 24.5707 33.3798 22.9107 33.8498 21.1907V20.9707C33.3798 22.7007 32.2498 24.3607 30.4298 25.6807C25.9498 28.9407 19.1298 28.9107 15.1898 25.6007C14.4598 24.9907 13.8898 24.3007 13.4498 23.5707C13.4198 23.5207 13.3898 23.4707 13.3598 23.4207C13.1998 23.1307 13.0598 22.8307 12.9398 22.5207C12.8898 22.3907 12.8498 22.2707 12.7998 22.1407C12.7198 21.8907 12.6598 21.6407 12.6098 21.3907C12.5898 21.3107 12.5598 21.2207 12.5498 21.1407C12.7498 22.8407 13.6198 24.4907 15.1898 25.8107C19.1298 29.1207 25.9498 29.1507 30.4298 25.8907H30.4398Z" fill="url(#paint1_linear_358_36238)"/>
<path d="M30.41 25.6408C25.93 28.9008 19.11 28.8708 15.17 25.5608C14.45 24.9608 13.89 24.2908 13.46 23.5808C13.89 24.3108 14.46 24.9908 15.2 25.6108C19.14 28.9208 25.96 28.9508 30.44 25.6908C32.25 24.3708 33.39 22.7108 33.85 20.9808V20.8408C33.4 22.6008 32.26 24.3008 30.41 25.6508V25.6408Z" fill="url(#paint2_radial_358_36238)"/>
<path d="M30.41 25.6408C25.93 28.9008 19.11 28.8708 15.17 25.5608C14.45 24.9608 13.89 24.2908 13.46 23.5808C13.89 24.3108 14.46 24.9908 15.2 25.6108C19.14 28.9208 25.96 28.9508 30.44 25.6908C32.25 24.3708 33.39 22.7108 33.85 20.9808V20.8408C33.4 22.6008 32.26 24.3008 30.41 25.6508V25.6408Z" fill="url(#paint3_linear_358_36238)"/>
<path d="M13.3697 23.4205C13.1997 23.1305 13.0697 22.8305 12.9497 22.5205C13.0697 22.8205 13.1997 23.1205 13.3697 23.4205Z" fill="url(#paint4_radial_358_36238)"/>
<path d="M13.3697 23.4205C13.1997 23.1305 13.0697 22.8305 12.9497 22.5205C13.0697 22.8205 13.1997 23.1205 13.3697 23.4205Z" fill="url(#paint5_linear_358_36238)"/>
<path d="M33.7698 16.3405C33.7698 16.3405 33.7698 16.4005 33.7698 16.4305C33.5498 11.5705 28.6298 7.80052 22.7198 7.99052C16.8098 8.18052 12.1398 12.2705 12.2398 17.1305C12.2398 17.1005 12.2398 17.0705 12.2398 17.0405C12.0798 12.1405 16.7698 8.00052 22.7198 7.81052C28.6698 7.62052 33.6198 11.4305 33.7798 16.3405H33.7698Z" fill="url(#paint6_linear_358_36238)"/>
<path d="M23.2997 25.5804C29.2097 25.3904 33.8797 21.3004 33.7797 16.4404C33.7797 16.4704 33.7797 16.5004 33.7797 16.5304C33.9397 21.4304 29.2497 25.5704 23.2997 25.7604C17.3497 25.9504 12.3997 22.1404 12.2397 17.2304C12.2397 17.2004 12.2397 17.1704 12.2397 17.1404C12.4597 22.0004 17.3797 25.7704 23.2897 25.5804H23.2997Z" fill="url(#paint7_linear_358_36238)"/>
<path d="M22.7199 8.00004C28.6299 7.81004 33.5499 11.58 33.7699 16.44C33.8699 21.3 29.1999 25.39 23.2899 25.58C17.3799 25.77 12.4599 22 12.2399 17.14C12.1399 12.28 16.8099 8.19004 22.7199 8.00004Z" fill="url(#paint8_linear_358_36238)"/>
<path d="M22.7199 8.00004C28.6299 7.81004 33.5499 11.58 33.7699 16.44C33.8699 21.3 29.1999 25.39 23.2899 25.58C17.3799 25.77 12.4599 22 12.2399 17.14C12.1399 12.28 16.8099 8.19004 22.7199 8.00004Z" fill="url(#paint9_linear_358_36238)"/>
<path style="mix-blend-mode:overlay" opacity="0.7" d="M33.7698 16.3405C33.7698 16.3405 33.7698 16.4005 33.7698 16.4305C33.5498 11.5705 28.6298 7.80052 22.7198 7.99052C16.8098 8.18052 12.1398 12.2705 12.2398 17.1305C12.2398 17.1005 12.2398 17.0705 12.2398 17.0405C12.0798 12.1405 16.7698 8.00052 22.7198 7.81052C28.6698 7.62052 33.6198 11.4305 33.7798 16.3405H33.7698Z" fill="url(#paint10_linear_358_36238)"/>
<path d="M22.7199 8.00004C28.6299 7.81004 33.5499 11.58 33.7699 16.44C33.8699 21.3 29.1999 25.39 23.2899 25.58C17.3799 25.77 12.4599 22 12.2399 17.14C12.1399 12.28 16.8099 8.19004 22.7199 8.00004Z" fill="url(#paint11_linear_358_36238)"/>
<path d="M22.7199 8.00004C28.6299 7.81004 33.5499 11.58 33.7699 16.44C33.8699 21.3 29.1999 25.39 23.2899 25.58C17.3799 25.77 12.4599 22 12.2399 17.14C12.1399 12.28 16.8099 8.19004 22.7199 8.00004Z" fill="url(#paint12_linear_358_36238)"/>
<path style="mix-blend-mode:overlay" d="M23.2997 25.5804C29.2097 25.3904 33.8797 21.3004 33.7797 16.4404C33.7797 16.4704 33.7797 16.5004 33.7797 16.5304C33.9397 21.4304 29.2497 25.5704 23.2997 25.7604C17.3497 25.9504 12.3997 22.1404 12.2397 17.2304C12.2397 17.2004 12.2397 17.1704 12.2397 17.1404C12.4597 22.0004 17.3797 25.7704 23.2897 25.5804H23.2997Z" fill="url(#paint13_linear_358_36238)"/>
<path style="mix-blend-mode:overlay" d="M23.2997 25.5804C29.2097 25.3904 33.8797 21.3004 33.7797 16.4404C33.7797 16.4704 33.7797 16.5004 33.7797 16.5304C33.9397 21.4304 29.2497 25.5704 23.2997 25.7604C17.3497 25.9504 12.3997 22.1404 12.2397 17.2304C12.2397 17.2004 12.2397 17.1704 12.2397 17.1404C12.4597 22.0004 17.3797 25.7704 23.2897 25.5804H23.2997Z" fill="url(#paint14_linear_358_36238)"/>
<path style="mix-blend-mode:overlay" opacity="0.5" d="M28.5097 22.6305C26.9797 23.5005 25.9797 24.4605 26.2797 24.7705C26.5797 25.0805 28.0597 24.6305 29.5897 23.7505C31.1197 22.8805 32.1197 21.9205 31.8197 21.6105C31.5197 21.3005 30.0397 21.7505 28.5097 22.6305Z" fill="url(#paint15_linear_358_36238)"/>
<path d="M22.9096 23.3509C18.6796 23.3509 15.1996 20.5709 15.0896 17.0509C15.0296 15.2909 15.8096 13.6209 17.2696 12.3309C18.7296 11.0509 20.6896 10.3009 22.7996 10.2309C24.9196 10.1609 26.9296 10.7809 28.4596 11.9609C29.9996 13.1509 30.8796 14.7709 30.9396 16.5309C30.9996 18.2909 30.2196 19.9609 28.7596 21.2509C27.2996 22.5309 25.3396 23.2809 23.2196 23.3509C23.1096 23.3509 23.0096 23.3509 22.8996 23.3509H22.9096ZM22.8096 10.4409C20.7496 10.5109 18.8296 11.2309 17.4096 12.4809C15.9996 13.7309 15.2496 15.3409 15.2996 17.0309C15.4096 20.4409 18.7996 23.1309 22.9096 23.1309C23.0096 23.1309 23.1196 23.1309 23.2196 23.1309C25.2796 23.0609 27.1996 22.3409 28.6196 21.0909C30.0296 19.8409 30.7796 18.2309 30.7196 16.5409C30.6696 14.8509 29.8096 13.2909 28.3196 12.1309C26.8996 11.0309 25.0596 10.4409 23.1096 10.4409C23.0096 10.4409 22.8996 10.4409 22.7996 10.4409H22.8096Z" fill="url(#paint16_linear_358_36238)"/>
<path d="M23.2485 23.0166C27.416 22.8805 30.7034 19.9824 30.5912 16.5435C30.4789 13.1046 27.0094 10.4271 22.8419 10.5632C18.6743 10.6993 15.3869 13.5974 15.4992 17.0363C15.6115 20.4752 19.0809 23.1526 23.2485 23.0166Z" fill="url(#paint17_linear_358_36238)"/>
<path style="mix-blend-mode:multiply" opacity="0.59" d="M23.0497 11.611C26.6497 11.491 29.7197 13.471 30.5697 16.231C30.2597 12.941 26.8797 10.431 22.8397 10.571C18.7997 10.711 15.3897 13.601 15.4997 17.041C15.5197 17.511 15.5997 17.961 15.7297 18.401C15.7297 18.301 15.7097 18.191 15.7097 18.091C15.5997 14.651 18.8797 11.761 23.0497 11.621V11.611Z" fill="url(#paint18_linear_358_36238)"/>
<path d="M23.2497 23.0106C27.4197 22.8706 30.6997 19.9806 30.5897 16.5406C30.5897 16.4406 30.5797 16.3306 30.5697 16.2306C29.7197 13.4706 26.6497 11.4906 23.0497 11.6106C18.8797 11.7506 15.5997 14.6406 15.7097 18.0806C15.7097 18.1806 15.7197 18.2906 15.7297 18.3906C16.5797 21.1506 19.6497 23.1306 23.2497 23.0106Z" fill="url(#paint19_linear_358_36238)"/>
<g style="mix-blend-mode:multiply">
<g opacity="0.63">
<path d="M23.8397 18.5708L24.7797 18.5408C24.8797 18.5408 24.9597 18.4608 24.9597 18.3808C25.3697 18.1508 25.3097 17.6108 25.3097 17.6108C25.6997 17.2108 25.8497 16.8508 25.8597 16.5308C26.0397 16.5308 26.2697 16.5308 26.5197 16.5308C26.5997 16.6508 26.6597 16.7808 26.6997 16.9108C26.3897 17.4608 26.9197 18.1908 27.0397 18.3008C27.3397 18.5808 27.7197 19.0908 27.7497 19.1508C27.7797 19.0608 27.8097 18.9708 27.8297 18.8808C28.2797 17.2808 27.3597 16.9708 26.9197 16.9108C26.8897 16.7808 26.8397 16.6608 26.7697 16.5408C27.1397 16.5908 27.3997 16.6908 27.5297 16.8408C27.5597 16.8808 27.6297 16.8908 27.6797 16.8608C27.7297 16.8308 27.7397 16.7708 27.6997 16.7308C27.6097 16.6308 27.4797 16.5508 27.3097 16.4808C27.4497 16.4008 27.6297 16.2808 27.7497 16.1608C27.7697 16.1608 27.7997 16.1608 27.8397 16.1608C27.8397 16.1408 27.8197 16.1208 27.8197 16.0908C27.8197 16.1108 27.8297 16.1308 27.8397 16.1608C28.2097 16.1108 29.3397 15.8308 28.7197 14.0908C28.5997 14.2808 28.3497 14.6308 28.1497 14.8508C28.3597 14.6308 28.5997 14.2908 28.7197 14.0908C28.6897 14.0108 28.6597 13.9308 28.6297 13.8508C28.6097 13.9108 28.2597 14.4508 27.9797 14.7508C27.8797 14.8608 27.4797 15.4908 27.6497 15.9908C27.6497 15.9908 27.6497 15.9908 27.6397 15.9908C27.5297 16.1308 27.2197 16.3208 27.0697 16.4008C26.9297 16.3708 26.7797 16.3408 26.5997 16.3308C26.3197 16.3108 26.0497 16.3108 25.8497 16.3208C25.7497 15.5508 24.8497 15.0908 24.8497 15.0908V15.0508C24.8497 14.9608 24.7597 14.9008 24.6597 14.9008L23.7297 14.9308C23.0997 14.0608 22.0097 13.5608 20.6397 13.6108C18.4997 13.6808 17.0497 15.0308 17.1097 16.9608C17.1697 18.8908 18.7797 20.1408 20.8497 20.0808C22.1697 20.0408 23.2397 19.4708 23.8297 18.5608L23.8397 18.5708ZM18.4897 16.9308C18.4497 15.5808 19.4397 14.9508 20.6897 14.9108C21.9397 14.8708 22.9097 15.4408 22.9497 16.7808C22.9897 18.1208 22.0497 18.7608 20.8197 18.8008C19.5897 18.8408 18.5297 18.2608 18.4897 16.9308Z" fill="url(#paint20_linear_358_36238)"/>
</g>
</g>
<path d="M23.8397 18.4605L24.7797 18.4305C24.8797 18.4305 24.9597 18.3505 24.9597 18.2705C25.3697 18.0405 25.3097 17.5005 25.3097 17.5005C25.6997 17.1005 25.8497 16.7405 25.8597 16.4205C26.0397 16.4205 26.2697 16.4205 26.5197 16.4205C26.5997 16.5405 26.6597 16.6705 26.6997 16.8005C26.3897 17.3505 26.9197 18.0805 27.0397 18.1905C27.3397 18.4705 27.7197 18.9805 27.7497 19.0405C27.7797 18.9505 27.8097 18.8605 27.8297 18.7705C28.2797 17.1705 27.3597 16.8605 26.9197 16.8005C26.8897 16.6705 26.8397 16.5505 26.7697 16.4305C27.1397 16.4805 27.3997 16.5805 27.5297 16.7305C27.5597 16.7705 27.6297 16.7805 27.6797 16.7505C27.7297 16.7205 27.7397 16.6605 27.6997 16.6205C27.6097 16.5205 27.4797 16.4405 27.3097 16.3705C27.4497 16.2905 27.6297 16.1705 27.7497 16.0505C27.7697 16.0505 27.7997 16.0505 27.8397 16.0505C27.8397 16.0305 27.8197 16.0105 27.8197 15.9805C27.8197 16.0005 27.8297 16.0205 27.8397 16.0505C28.2097 16.0005 29.3397 15.7205 28.7197 13.9805C28.5997 14.1705 28.3497 14.5205 28.1497 14.7405C28.3597 14.5205 28.5997 14.1805 28.7197 13.9805C28.6897 13.9005 28.6597 13.8205 28.6297 13.7405C28.6097 13.8005 28.2597 14.3405 27.9797 14.6405C27.8797 14.7505 27.4797 15.3805 27.6497 15.8805C27.6497 15.8805 27.6497 15.8805 27.6397 15.8805C27.5297 16.0205 27.2197 16.2105 27.0697 16.2905C26.9297 16.2605 26.7797 16.2305 26.5997 16.2205C26.3197 16.2005 26.0497 16.2005 25.8497 16.2105C25.7497 15.4405 24.8497 14.9805 24.8497 14.9805V14.9405C24.8497 14.8505 24.7597 14.7905 24.6597 14.7905L23.7297 14.8205C23.0997 13.9505 22.0097 13.4505 20.6397 13.5005C18.4997 13.5705 17.0497 14.9205 17.1097 16.8505C17.1697 18.7805 18.7797 20.0305 20.8497 19.9705C22.1697 19.9305 23.2397 19.3605 23.8297 18.4505L23.8397 18.4605ZM18.4897 16.8205C18.4497 15.4705 19.4397 14.8405 20.6897 14.8005C21.9397 14.7605 22.9097 15.3305 22.9497 16.6705C22.9897 18.0105 22.0497 18.6505 20.8197 18.6905C19.5897 18.7305 18.5297 18.1505 18.4897 16.8205Z" fill="url(#paint21_linear_358_36238)"/>
<g style="mix-blend-mode:multiply">
<path d="M22.8796 25.7009C20.2696 25.7009 17.8096 24.9009 15.9096 23.4409C13.8996 21.8909 12.7496 19.7809 12.6696 17.5009C12.5196 12.7909 17.0396 8.81086 22.7496 8.63086C22.8896 8.63086 23.0296 8.63086 23.1696 8.63086C28.6896 8.63086 33.2396 12.2409 33.3896 16.8309C33.5396 21.5409 29.0196 25.5209 23.3096 25.7009C23.1696 25.7009 23.0296 25.7009 22.8896 25.7009H22.8796ZM23.1596 8.85086C23.0296 8.85086 22.8896 8.85086 22.7496 8.85086C17.1696 9.03086 12.7496 12.9009 12.8996 17.4809C12.9696 19.6909 14.0896 21.7409 16.0496 23.2409C18.0096 24.7509 20.5796 25.5409 23.2896 25.4409C28.8696 25.2609 33.2896 21.3909 33.1396 16.8109C32.9896 12.3509 28.5596 8.84086 23.1596 8.84086V8.85086Z" fill="url(#paint22_linear_358_36238)"/>
</g>
<path d="M22.8699 25.4408C17.2799 25.4408 12.6899 21.7808 12.5299 17.1208C12.3699 12.3508 16.9499 8.31079 22.7199 8.13079C25.5099 8.04079 28.1599 8.85079 30.1899 10.4108C32.2299 11.9808 33.3999 14.1208 33.4699 16.4408C33.5499 18.7608 32.5199 20.9708 30.5899 22.6708C28.6699 24.3608 26.0699 25.3408 23.2799 25.4308C23.1399 25.4308 22.9999 25.4308 22.8599 25.4308L22.8699 25.4408ZM23.1499 8.59079C23.0099 8.59079 22.8799 8.59079 22.7399 8.59079C17.2299 8.77079 12.8599 12.5908 13.0099 17.1008C13.1499 21.5008 17.5399 24.9608 22.8699 24.9608C22.9999 24.9608 23.1399 24.9608 23.2699 24.9608C25.9499 24.8708 28.4399 23.9308 30.2799 22.3208C32.1099 20.7108 33.0699 18.6308 32.9999 16.4608C32.9299 14.2808 31.8299 12.2708 29.8999 10.7908C28.0599 9.37079 25.6699 8.60079 23.1399 8.60079L23.1499 8.59079Z" fill="#C1F471"/>
<path style="mix-blend-mode:overlay" opacity="0.5" d="M23.3696 24.3309C21.5296 24.1909 20.0296 24.4609 20.0196 24.9409C20.0096 25.4209 21.4896 25.9309 23.3296 26.0809C25.1696 26.2209 26.6696 25.9509 26.6796 25.4709C26.6896 24.9909 25.2096 24.4809 23.3696 24.3309Z" fill="url(#paint23_radial_358_36238)"/>
<path style="mix-blend-mode:overlay" opacity="0.4" d="M29.7596 9.78027L15.7096 10.2403C13.9896 11.5403 12.7796 13.2803 12.3296 15.2303L33.4696 14.5403C32.8896 12.6203 31.5696 10.9703 29.7696 9.78027H29.7596Z" fill="url(#paint24_linear_358_36238)"/>
<path style="mix-blend-mode:overlay" opacity="0.4" d="M23.2395 25.5807C28.4195 25.4107 32.6395 22.2707 33.5795 18.2207L12.4395 18.9107C13.6395 22.8907 18.0595 25.7507 23.2395 25.5807Z" fill="url(#paint25_linear_358_36238)"/>
<g style="mix-blend-mode:multiply">
<path d="M33.54 17.4004V17.1804V17.0404L33.64 12.8704C33.64 12.8704 33.64 12.8804 33.64 12.8904C33.64 12.8504 33.64 12.8004 33.64 12.7604C33.64 12.7304 33.64 12.7004 33.64 12.6704C33.64 12.6404 33.64 12.6104 33.64 12.5804C33.67 7.71038 28.91 4.11038 23.01 4.53038C20.32 4.72038 17.85 5.72038 15.97 7.21038C15.97 7.21038 15.87 7.29038 15.83 7.33038C15.83 7.33038 15.82 7.33038 15.81 7.34038C14.14 8.68038 12.93 10.4104 12.42 12.3004H12.5C12.35 12.8904 12.27 13.5004 12.26 14.1104C12.26 14.1404 12.26 14.1704 12.26 14.2004C12.26 14.2304 12.26 14.2604 12.26 14.2904C12.26 14.7804 12.3 15.2604 12.39 15.7204C12.31 15.3804 12.26 15.0304 12.25 14.6804L12.41 17.8004C12.42 18.0104 12.44 18.2204 12.47 18.4204C12.46 18.3404 12.43 18.2604 12.42 18.1704C12.55 19.8604 13.35 21.4504 14.86 22.7104C18.64 25.8404 25.4 25.6104 29.97 22.1904C31.82 20.8104 33.01 19.1204 33.54 17.3804V17.4004Z" fill="#BCBCBC"/>
</g>
<path d="M12.9598 17.9801C13.0798 18.2801 13.2098 18.5801 13.3798 18.8801C13.4098 18.9301 13.4398 18.9801 13.4698 19.0301C13.8998 19.7401 14.4598 20.4101 15.1798 21.0101C19.1198 24.3201 25.9398 24.3501 30.4198 21.0901C32.2698 19.7401 33.4098 18.0501 33.8598 16.2801L33.7898 12.0801C33.5998 14.2201 32.3898 16.3501 30.1598 17.9701C25.6798 21.2301 18.8598 21.2001 14.9198 17.8901C13.2998 16.5301 12.4198 14.8201 12.2598 13.0601L12.5498 16.2101C12.5698 16.4201 12.5998 16.6301 12.6398 16.8401C12.6898 17.0901 12.7498 17.3401 12.8298 17.5901C12.8698 17.7201 12.9198 17.8401 12.9698 17.9701L12.9598 17.9801Z" fill="url(#paint26_radial_358_36238)"/>
<path d="M30.4398 21.3497C32.2498 20.0297 33.3798 18.3697 33.8498 16.6497V16.4297C33.3798 18.1597 32.2498 19.8197 30.4298 21.1397C25.9498 24.3997 19.1298 24.3697 15.1898 21.0597C14.4598 20.4497 13.8898 19.7597 13.4498 19.0297C13.4198 18.9797 13.3898 18.9297 13.3598 18.8797C13.1998 18.5897 13.0598 18.2897 12.9398 17.9797C12.8898 17.8497 12.8498 17.7297 12.7998 17.5997C12.7198 17.3497 12.6598 17.0997 12.6098 16.8497C12.5898 16.7697 12.5598 16.6797 12.5498 16.5997C12.7498 18.2997 13.6198 19.9497 15.1898 21.2697C19.1298 24.5797 25.9498 24.6097 30.4298 21.3497H30.4398Z" fill="url(#paint27_linear_358_36238)"/>
<path d="M30.41 21.09C25.93 24.35 19.11 24.32 15.17 21.01C14.45 20.41 13.89 19.74 13.46 19.03C13.89 19.76 14.46 20.44 15.2 21.06C19.14 24.37 25.96 24.4 30.44 21.14C32.25 19.82 33.39 18.16 33.85 16.43V16.29C33.4 18.05 32.26 19.75 30.41 21.1V21.09Z" fill="url(#paint28_radial_358_36238)"/>
<path d="M30.41 21.09C25.93 24.35 19.11 24.32 15.17 21.01C14.45 20.41 13.89 19.74 13.46 19.03C13.89 19.76 14.46 20.44 15.2 21.06C19.14 24.37 25.96 24.4 30.44 21.14C32.25 19.82 33.39 18.16 33.85 16.43V16.29C33.4 18.05 32.26 19.75 30.41 21.1V21.09Z" fill="url(#paint29_linear_358_36238)"/>
<path d="M13.3697 18.8697C13.1997 18.5797 13.0697 18.2797 12.9497 17.9697C13.0697 18.2697 13.1997 18.5697 13.3697 18.8697Z" fill="url(#paint30_radial_358_36238)"/>
<path d="M13.3697 18.8697C13.1997 18.5797 13.0697 18.2797 12.9497 17.9697C13.0697 18.2697 13.1997 18.5697 13.3697 18.8697Z" fill="url(#paint31_linear_358_36238)"/>
<path d="M33.7698 11.8005C33.7698 11.8005 33.7698 11.8605 33.7698 11.8905C33.5498 7.03048 28.6298 3.26048 22.7198 3.45048C16.8098 3.64048 12.1398 7.73048 12.2398 12.5905C12.2398 12.5605 12.2398 12.5305 12.2398 12.5005C12.0798 7.60048 16.7698 3.46048 22.7198 3.27048C28.6698 3.08048 33.6198 6.89048 33.7798 11.8005H33.7698Z" fill="url(#paint32_linear_358_36238)"/>
<path d="M23.2997 21.0306C29.2097 20.8406 33.8797 16.7506 33.7797 11.8906C33.7797 11.9206 33.7797 11.9506 33.7797 11.9806C33.9397 16.8806 29.2497 21.0206 23.2997 21.2106C17.3497 21.4006 12.3997 17.5906 12.2397 12.6806C12.2397 12.6506 12.2397 12.6206 12.2397 12.5906C12.4597 17.4506 17.3797 21.2206 23.2897 21.0306H23.2997Z" fill="url(#paint33_linear_358_36238)"/>
<path d="M22.7199 3.45024C28.6299 3.26024 33.5499 7.03024 33.7699 11.8902C33.8699 16.7502 29.1999 20.8402 23.2899 21.0302C17.3799 21.2202 12.4599 17.4502 12.2399 12.5902C12.1399 7.73024 16.8099 3.64024 22.7199 3.45024Z" fill="url(#paint34_linear_358_36238)"/>
<path d="M22.7199 3.45024C28.6299 3.26024 33.5499 7.03024 33.7699 11.8902C33.8699 16.7502 29.1999 20.8402 23.2899 21.0302C17.3799 21.2202 12.4599 17.4502 12.2399 12.5902C12.1399 7.73024 16.8099 3.64024 22.7199 3.45024Z" fill="url(#paint35_linear_358_36238)"/>
<path style="mix-blend-mode:overlay" opacity="0.7" d="M33.7698 11.8005C33.7698 11.8005 33.7698 11.8605 33.7698 11.8905C33.5498 7.03048 28.6298 3.26048 22.7198 3.45048C16.8098 3.64048 12.1398 7.73048 12.2398 12.5905C12.2398 12.5605 12.2398 12.5305 12.2398 12.5005C12.0798 7.60048 16.7698 3.46048 22.7198 3.27048C28.6698 3.08048 33.6198 6.89048 33.7798 11.8005H33.7698Z" fill="url(#paint36_linear_358_36238)"/>
<path d="M22.7199 3.45024C28.6299 3.26024 33.5499 7.03024 33.7699 11.8902C33.8699 16.7502 29.1999 20.8402 23.2899 21.0302C17.3799 21.2202 12.4599 17.4502 12.2399 12.5902C12.1399 7.73024 16.8099 3.64024 22.7199 3.45024Z" fill="url(#paint37_linear_358_36238)"/>
<path d="M22.7199 3.45024C28.6299 3.26024 33.5499 7.03024 33.7699 11.8902C33.8699 16.7502 29.1999 20.8402 23.2899 21.0302C17.3799 21.2202 12.4599 17.4502 12.2399 12.5902C12.1399 7.73024 16.8099 3.64024 22.7199 3.45024Z" fill="url(#paint38_linear_358_36238)"/>
<path style="mix-blend-mode:overlay" d="M23.2997 21.0306C29.2097 20.8406 33.8797 16.7506 33.7797 11.8906C33.7797 11.9206 33.7797 11.9506 33.7797 11.9806C33.9397 16.8806 29.2497 21.0206 23.2997 21.2106C17.3497 21.4006 12.3997 17.5906 12.2397 12.6806C12.2397 12.6506 12.2397 12.6206 12.2397 12.5906C12.4597 17.4506 17.3797 21.2206 23.2897 21.0306H23.2997Z" fill="url(#paint39_linear_358_36238)"/>
<path style="mix-blend-mode:overlay" d="M23.2997 21.0306C29.2097 20.8406 33.8797 16.7506 33.7797 11.8906C33.7797 11.9206 33.7797 11.9506 33.7797 11.9806C33.9397 16.8806 29.2497 21.0206 23.2997 21.2106C17.3497 21.4006 12.3997 17.5906 12.2397 12.6806C12.2397 12.6506 12.2397 12.6206 12.2397 12.5906C12.4597 17.4506 17.3797 21.2206 23.2897 21.0306H23.2997Z" fill="url(#paint40_linear_358_36238)"/>
<path style="mix-blend-mode:overlay" opacity="0.5" d="M28.5097 18.0807C26.9797 18.9507 25.9797 19.9107 26.2797 20.2207C26.5797 20.5307 28.0597 20.0807 29.5897 19.2007C31.1197 18.3307 32.1197 17.3707 31.8197 17.0607C31.5197 16.7507 30.0397 17.2007 28.5097 18.0807Z" fill="url(#paint41_linear_358_36238)"/>
<path d="M22.9099 18.8007C18.6799 18.8007 15.1999 16.0207 15.0899 12.5007C14.9699 8.88066 18.4299 5.83066 22.7999 5.68066C22.9099 5.68066 23.0099 5.68066 23.1199 5.68066C27.3499 5.68066 30.8299 8.46066 30.9499 11.9807C31.0099 13.7407 30.2299 15.4107 28.7699 16.7007C27.3099 17.9807 25.3499 18.7307 23.2299 18.8007C23.1199 18.8007 23.0199 18.8007 22.9099 18.8007ZM22.8099 5.89066C18.5599 6.03066 15.1899 8.99066 15.2999 12.4807C15.4099 15.8907 18.7999 18.5807 22.9099 18.5807C23.0099 18.5807 23.1199 18.5807 23.2199 18.5807C25.2799 18.5107 27.1999 17.7907 28.6199 16.5407C30.0299 15.2907 30.7799 13.6807 30.7199 11.9907C30.6099 8.58066 27.2199 5.89066 23.1099 5.89066C23.0099 5.89066 22.8999 5.89066 22.7999 5.89066H22.8099Z" fill="url(#paint42_linear_358_36238)"/>
<path d="M23.2504 18.4687C27.418 18.3326 30.7054 15.4346 30.5931 11.9957C30.4808 8.55676 27.0114 5.87928 22.8438 6.01535C18.6763 6.15141 15.3889 9.0495 15.5011 12.4884C15.6134 15.9273 19.0829 18.6048 23.2504 18.4687Z" fill="url(#paint43_linear_358_36238)"/>
<path style="mix-blend-mode:multiply" opacity="0.59" d="M23.0498 7.06023C26.6498 6.94023 29.7198 8.92023 30.5698 11.6802C30.2598 8.39023 26.8798 5.88023 22.8398 6.02023C18.6698 6.16023 15.3898 9.05023 15.4998 12.4902C15.5198 12.9602 15.5998 13.4102 15.7298 13.8502C15.7298 13.7502 15.7098 13.6402 15.7098 13.5402C15.5998 10.1002 18.8798 7.21023 23.0498 7.07023V7.06023Z" fill="url(#paint44_linear_358_36238)"/>
<path d="M23.2497 18.4599C27.4197 18.3199 30.6997 15.4299 30.5897 11.9899C30.5897 11.8899 30.5797 11.7799 30.5697 11.6799C29.7197 8.91986 26.6497 6.93986 23.0497 7.05986C18.8797 7.19986 15.5997 10.0899 15.7097 13.5299C15.7097 13.6299 15.7197 13.7399 15.7297 13.8399C16.5797 16.5999 19.6497 18.5799 23.2497 18.4599Z" fill="url(#paint45_linear_358_36238)"/>
<g style="mix-blend-mode:multiply">
<g opacity="0.63">
<path d="M23.8397 14.0308L24.7797 14.0008C24.8797 14.0008 24.9597 13.9208 24.9597 13.8408C25.3697 13.6108 25.3097 13.0708 25.3097 13.0708C25.6997 12.6708 25.8497 12.3108 25.8597 11.9908C26.0397 11.9908 26.2697 11.9908 26.5197 11.9908C26.5997 12.1108 26.6597 12.2408 26.6997 12.3708C26.3897 12.9208 26.9197 13.6508 27.0397 13.7608C27.3397 14.0408 27.7197 14.5508 27.7497 14.6108C27.7797 14.5208 27.8097 14.4308 27.8297 14.3408C28.2797 12.7408 27.3597 12.4308 26.9197 12.3708C26.8897 12.2408 26.8397 12.1208 26.7697 12.0008C27.1397 12.0508 27.3997 12.1508 27.5297 12.3008C27.5597 12.3408 27.6297 12.3508 27.6797 12.3208C27.7297 12.2908 27.7397 12.2308 27.6997 12.1908C27.6097 12.0908 27.4797 12.0108 27.3097 11.9408C27.4497 11.8608 27.6297 11.7408 27.7497 11.6208C27.7697 11.6208 27.7997 11.6208 27.8397 11.6208C27.8397 11.6008 27.8197 11.5808 27.8197 11.5508C27.8197 11.5708 27.8297 11.5908 27.8397 11.6208C28.2097 11.5708 29.3397 11.2908 28.7197 9.55081C28.5997 9.74081 28.3497 10.0908 28.1497 10.3108C28.3597 10.0908 28.5997 9.75081 28.7197 9.55081C28.6897 9.47081 28.6597 9.39081 28.6297 9.31081C28.6097 9.37081 28.2597 9.91081 27.9797 10.2108C27.8797 10.3208 27.4797 10.9508 27.6497 11.4508C27.6497 11.4508 27.6497 11.4508 27.6397 11.4508C27.5297 11.5908 27.2197 11.7808 27.0697 11.8608C26.9297 11.8308 26.7797 11.8008 26.5997 11.7908C26.3197 11.7708 26.0497 11.7708 25.8497 11.7808C25.7497 11.0108 24.8497 10.5508 24.8497 10.5508V10.5108C24.8497 10.4208 24.7597 10.3608 24.6597 10.3608L23.7297 10.3908C23.0997 9.52081 22.0097 9.02081 20.6397 9.07081C18.4997 9.14081 17.0497 10.4908 17.1097 12.4208C17.1697 14.3508 18.7797 15.6008 20.8497 15.5408C22.1697 15.5008 23.2397 14.9308 23.8297 14.0208L23.8397 14.0308ZM18.4897 12.3908C18.4497 11.0408 19.4397 10.4108 20.6897 10.3708C21.9397 10.3308 22.9097 10.9008 22.9497 12.2408C22.9897 13.5808 22.0497 14.2208 20.8197 14.2608C19.5897 14.3008 18.5297 13.7208 18.4897 12.3908Z" fill="url(#paint46_linear_358_36238)"/>
</g>
</g>
<path d="M23.8397 13.9205L24.7797 13.8905C24.8797 13.8905 24.9597 13.8105 24.9597 13.7305C25.3697 13.5005 25.3097 12.9605 25.3097 12.9605C25.6997 12.5605 25.8497 12.2005 25.8597 11.8805C26.0397 11.8805 26.2697 11.8805 26.5197 11.8805C26.5997 12.0005 26.6597 12.1305 26.6997 12.2605C26.3897 12.8105 26.9197 13.5405 27.0397 13.6505C27.3397 13.9305 27.7197 14.4405 27.7497 14.5005C27.7797 14.4105 27.8097 14.3205 27.8297 14.2305C28.2797 12.6305 27.3597 12.3205 26.9197 12.2605C26.8897 12.1305 26.8397 12.0105 26.7697 11.8905C27.1397 11.9405 27.3997 12.0405 27.5297 12.1905C27.5597 12.2305 27.6297 12.2405 27.6797 12.2105C27.7297 12.1805 27.7397 12.1205 27.6997 12.0805C27.6097 11.9805 27.4797 11.9005 27.3097 11.8305C27.4497 11.7505 27.6297 11.6305 27.7497 11.5105C27.7697 11.5105 27.7997 11.5105 27.8397 11.5105C27.8397 11.4905 27.8197 11.4705 27.8197 11.4405C27.8197 11.4605 27.8297 11.4805 27.8397 11.5105C28.2097 11.4605 29.3397 11.1805 28.7197 9.44046C28.5997 9.63046 28.3497 9.98046 28.1497 10.2005C28.3597 9.98046 28.5997 9.64046 28.7197 9.44046C28.6897 9.36046 28.6597 9.28046 28.6297 9.20046C28.6097 9.26046 28.2597 9.80046 27.9797 10.1005C27.8797 10.2105 27.4797 10.8405 27.6497 11.3405C27.6497 11.3405 27.6497 11.3405 27.6397 11.3405C27.5297 11.4805 27.2197 11.6705 27.0697 11.7505C26.9297 11.7205 26.7797 11.6905 26.5997 11.6805C26.3197 11.6605 26.0497 11.6605 25.8497 11.6705C25.7497 10.9005 24.8497 10.4405 24.8497 10.4405V10.4005C24.8497 10.3105 24.7597 10.2505 24.6597 10.2505L23.7297 10.2805C23.0997 9.41046 22.0097 8.91046 20.6397 8.96046C18.4997 9.03046 17.0497 10.3805 17.1097 12.3105C17.1697 14.2405 18.7797 15.4905 20.8497 15.4305C22.1697 15.3905 23.2397 14.8205 23.8297 13.9105L23.8397 13.9205ZM18.4897 12.2805C18.4497 10.9305 19.4397 10.3005 20.6897 10.2605C21.9397 10.2205 22.9097 10.7905 22.9497 12.1305C22.9897 13.4705 22.0497 14.1105 20.8197 14.1505C19.5897 14.1905 18.5297 13.6105 18.4897 12.2805Z" fill="url(#paint47_linear_358_36238)"/>
<g style="mix-blend-mode:multiply">
<path d="M22.8799 21.1501C20.2699 21.1501 17.8099 20.3501 15.9099 18.8901C13.8999 17.3401 12.7499 15.2301 12.6699 12.9501C12.5999 10.6701 13.6099 8.49008 15.5099 6.81008C17.4099 5.14008 19.9799 4.17008 22.7399 4.08008C22.8799 4.08008 23.0199 4.08008 23.1599 4.08008C28.6799 4.08008 33.2299 7.69008 33.3799 12.2801C33.5299 16.9901 29.0099 20.9701 23.2999 21.1501C23.1599 21.1501 23.0199 21.1501 22.8799 21.1501ZM23.1599 4.30008C23.0299 4.30008 22.8899 4.30008 22.7499 4.30008C20.0399 4.39008 17.5299 5.34008 15.6699 6.97008C13.8199 8.60008 12.8299 10.7201 12.9099 12.9301C12.9799 15.1401 14.0999 17.1901 16.0599 18.6901C18.0199 20.2001 20.5899 20.9801 23.2999 20.8901C28.8799 20.7101 33.2999 16.8401 33.1499 12.2601C32.9999 7.80008 28.5699 4.29008 23.1699 4.29008L23.1599 4.30008Z" fill="url(#paint48_linear_358_36238)"/>
</g>
<path d="M22.8699 20.9008C17.2799 20.9008 12.6899 17.2408 12.5299 12.5808C12.3699 7.81075 16.9499 3.78075 22.7199 3.59075C25.5299 3.50075 28.1599 4.31075 30.1899 5.87075C32.2299 7.44075 33.3999 9.58075 33.4699 11.9008C33.5499 14.2208 32.5199 16.4308 30.5899 18.1308C28.6699 19.8208 26.0699 20.8008 23.2799 20.8908C23.1399 20.8908 22.9999 20.8908 22.8599 20.8908L22.8699 20.9008ZM23.1499 4.05075C23.0099 4.05075 22.8799 4.05075 22.7399 4.05075C17.2299 4.23075 12.8599 8.05075 13.0099 12.5608C13.1499 16.9608 17.5399 20.4208 22.8699 20.4208C22.9999 20.4208 23.1399 20.4208 23.2699 20.4208C25.9499 20.3308 28.4399 19.3908 30.2799 17.7808C32.1099 16.1708 33.0699 14.0908 32.9999 11.9208C32.9299 9.75075 31.8299 7.73075 29.8999 6.25075C28.0599 4.83075 25.6699 4.06075 23.1399 4.06075L23.1499 4.05075Z" fill="#C1F471"/>
<path style="mix-blend-mode:overlay" opacity="0.5" d="M23.3696 19.7801C21.5296 19.6401 20.0296 19.9101 20.0196 20.3901C20.0096 20.8701 21.4896 21.3801 23.3296 21.5301C25.1696 21.6701 26.6696 21.4001 26.6796 20.9201C26.6896 20.4401 25.2096 19.9301 23.3696 19.7801Z" fill="url(#paint49_radial_358_36238)"/>
<path style="mix-blend-mode:overlay" opacity="0.4" d="M29.7596 5.23047L15.7096 5.69047C13.9896 6.99047 12.7796 8.73047 12.3296 10.6805L33.4696 9.99047C32.8896 8.07047 31.5696 6.42047 29.7696 5.23047H29.7596Z" fill="url(#paint50_linear_358_36238)"/>
<path style="mix-blend-mode:overlay" opacity="0.4" d="M23.2395 21.0309C28.4195 20.8609 32.6395 17.7209 33.5795 13.6709L12.4395 14.3609C13.6395 18.3409 18.0595 21.2009 23.2395 21.0309Z" fill="url(#paint51_linear_358_36238)"/>
<g style="mix-blend-mode:multiply" opacity="0.48">
<path d="M20.56 10.9905L20.4 10.8505L20.29 10.7605L17.15 8.02047C17.15 8.02047 17.15 8.03047 17.16 8.04047C17.13 8.01047 17.1 7.98047 17.06 7.95047C17.04 7.93047 17.01 7.91047 16.99 7.89047C16.97 7.87047 16.95 7.85047 16.92 7.83047C13.2 4.69047 7.38005 6.05047 3.94005 10.8605C2.37005 13.0505 1.56005 15.5905 1.50005 17.9905C1.50005 18.0605 1.50005 18.1205 1.50005 18.1805C1.50005 18.1805 1.50005 18.1905 1.50005 18.2005C1.46005 20.3405 2.02005 22.3805 3.15005 23.9805L3.20005 23.9105C3.56005 24.4005 3.98005 24.8605 4.45005 25.2605C4.47005 25.2805 4.50005 25.3005 4.52005 25.3205C4.54005 25.3405 4.56005 25.3605 4.59005 25.3805C4.96005 25.7005 5.36005 25.9605 5.77005 26.1905C5.46005 26.0305 5.16005 25.8405 4.88005 25.6305L7.38005 27.5005C7.55005 27.6305 7.72005 27.7405 7.90005 27.8505C7.83005 27.8105 7.75005 27.7805 7.68005 27.7305C9.06005 28.7105 10.8 29.1105 12.73 28.7505C17.55 27.8505 21.7 22.5005 21.99 16.8005C22.11 14.5005 21.57 12.5005 20.57 10.9905H20.56Z" fill="#7F7F7F"/>
</g>
<path d="M7.84963 27.1904C8.15963 27.2904 8.47963 27.3804 8.80963 27.4404C8.86963 27.4504 8.92963 27.4604 8.97963 27.4704C9.79963 27.5904 10.6796 27.5904 11.5996 27.4204C16.6596 26.5104 21.0496 21.2804 21.3996 15.7504C21.5496 13.4704 20.9696 11.5004 19.8996 10.0304L16.6296 7.40039C18.1596 8.91039 19.0196 11.2104 18.8396 13.9604C18.4896 19.4904 14.0996 24.7104 9.03963 25.6304C6.94963 26.0104 5.07963 25.5904 3.61963 24.5904L6.22963 26.3804C6.39963 26.5004 6.57963 26.6104 6.76963 26.7104C6.99963 26.8304 7.22963 26.9504 7.46963 27.0404C7.58963 27.0904 7.71963 27.1304 7.84963 27.1804V27.1904Z" fill="url(#paint52_radial_358_36238)"/>
<path d="M21.6198 15.8901C21.7598 13.6601 21.2098 11.7301 20.1898 10.2601L20.0198 10.1201C21.0498 11.5801 21.5998 13.5201 21.4598 15.7501C21.1098 21.2801 16.7198 26.5001 11.6598 27.4201C10.7198 27.5901 9.8298 27.5901 8.9898 27.4601C8.9298 27.4601 8.8698 27.4401 8.8198 27.4301C8.4898 27.3701 8.1698 27.2801 7.8598 27.1801C7.7298 27.1401 7.6098 27.0901 7.4798 27.0401C7.2398 26.9401 6.9998 26.8301 6.7798 26.7101C6.6998 26.6701 6.6198 26.6401 6.5498 26.6001C7.9898 27.5401 9.8098 27.9101 11.8298 27.5501C16.8898 26.6401 21.2798 21.4101 21.6298 15.8801L21.6198 15.8901Z" fill="url(#paint53_linear_358_36238)"/>
<path d="M21.3995 15.75C21.0495 21.28 16.6595 26.5 11.5995 27.42C10.6795 27.59 9.79949 27.59 8.97949 27.47C9.81949 27.6 10.7095 27.6 11.6495 27.43C16.7095 26.52 21.0995 21.29 21.4495 15.76C21.5895 13.52 21.0395 11.59 20.0095 10.13L19.8995 10.04C20.9695 11.51 21.5395 13.48 21.3995 15.76V15.75Z" fill="url(#paint54_radial_358_36238)"/>
<path d="M21.3995 15.75C21.0495 21.28 16.6595 26.5 11.5995 27.42C10.6795 27.59 9.79949 27.59 8.97949 27.47C9.81949 27.6 10.7095 27.6 11.6495 27.43C16.7095 26.52 21.0995 21.29 21.4495 15.76C21.5895 13.52 21.0395 11.59 20.0095 10.13L19.8995 10.04C20.9695 11.51 21.5395 13.48 21.3995 15.76V15.75Z" fill="url(#paint55_linear_358_36238)"/>
<path d="M16.3997 7.22066C16.3997 7.22066 16.4497 7.26066 16.4697 7.28066C12.5897 4.34066 6.5497 5.72066 2.9197 10.3907C-0.710296 15.0607 -0.550296 21.2607 3.2597 24.2907C3.2397 24.2707 3.2097 24.2607 3.1897 24.2407C-0.680296 21.2307 -0.870296 14.9807 2.7897 10.2807C6.4397 5.58066 12.5397 4.22066 16.4197 7.23066L16.3997 7.22066Z" fill="url(#paint56_linear_358_36238)"/>
<path d="M16.7997 21.1803C20.4297 16.5103 20.2697 10.3103 16.4597 7.28027C16.4797 7.30027 16.5097 7.31027 16.5297 7.33027C20.3997 10.3403 20.5897 16.5903 16.9397 21.2903C13.2897 25.9903 7.18975 27.3503 3.30975 24.3403C3.28975 24.3203 3.25975 24.3003 3.23975 24.2803C7.11975 27.2203 13.1597 25.8403 16.7897 21.1703L16.7997 21.1803Z" fill="url(#paint57_linear_358_36238)"/>
<path d="M2.91957 10.3907C6.54957 5.72068 12.5896 4.35068 16.4696 7.28068C20.2796 10.3107 20.4296 16.5107 16.8096 21.1807C13.1896 25.8507 7.13957 27.2207 3.25957 24.2907C-0.550428 21.2607 -0.700428 15.0607 2.91957 10.3907Z" fill="url(#paint58_linear_358_36238)"/>
<path d="M2.91957 10.3907C6.54957 5.72068 12.5896 4.35068 16.4696 7.28068C20.2796 10.3107 20.4296 16.5107 16.8096 21.1807C13.1896 25.8507 7.13957 27.2207 3.25957 24.2907C-0.550428 21.2607 -0.700428 15.0607 2.91957 10.3907Z" fill="url(#paint59_linear_358_36238)"/>
<path style="mix-blend-mode:overlay" opacity="0.7" d="M16.3997 7.22066C16.3997 7.22066 16.4497 7.26066 16.4697 7.28066C12.5897 4.34066 6.5497 5.72066 2.9197 10.3907C-0.710296 15.0607 -0.550296 21.2607 3.2597 24.2907C3.2397 24.2707 3.2097 24.2607 3.1897 24.2407C-0.680296 21.2307 -0.870296 14.9807 2.7897 10.2807C6.4397 5.58066 12.5397 4.22066 16.4197 7.23066L16.3997 7.22066Z" fill="url(#paint60_linear_358_36238)"/>
<path d="M2.91957 10.3907C6.54957 5.72068 12.5896 4.35068 16.4696 7.28068C20.2796 10.3107 20.4296 16.5107 16.8096 21.1807C13.1896 25.8507 7.13957 27.2207 3.25957 24.2907C-0.550428 21.2607 -0.700428 15.0607 2.91957 10.3907Z" fill="url(#paint61_linear_358_36238)"/>
<path d="M2.91957 10.3907C6.54957 5.72068 12.5896 4.35068 16.4696 7.28068C20.2796 10.3107 20.4296 16.5107 16.8096 21.1807C13.1896 25.8507 7.13957 27.2207 3.25957 24.2907C-0.550428 21.2607 -0.700428 15.0607 2.91957 10.3907Z" fill="url(#paint62_linear_358_36238)"/>
<path style="mix-blend-mode:overlay" d="M16.7997 21.1803C20.4297 16.5103 20.2697 10.3103 16.4597 7.28027C16.4797 7.30027 16.5097 7.31027 16.5297 7.33027C20.3997 10.3403 20.5897 16.5903 16.9397 21.2903C13.2897 25.9903 7.18975 27.3503 3.30975 24.3403C3.28975 24.3203 3.25975 24.3003 3.23975 24.2803C7.11975 27.2203 13.1597 25.8403 16.7897 21.1703L16.7997 21.1803Z" fill="url(#paint63_linear_358_36238)"/>
<path style="mix-blend-mode:overlay" d="M16.7997 21.1803C20.4297 16.5103 20.2697 10.3103 16.4597 7.28027C16.4797 7.30027 16.5097 7.31027 16.5297 7.33027C20.3997 10.3403 20.5897 16.5903 16.9397 21.2903C13.2897 25.9903 7.18975 27.3503 3.30975 24.3403C3.28975 24.3203 3.25975 24.3003 3.23975 24.2803C7.11975 27.2203 13.1597 25.8403 16.7897 21.1703L16.7997 21.1803Z" fill="url(#paint64_linear_358_36238)"/>
<path style="mix-blend-mode:overlay" opacity="0.5" d="M17.8698 15.2911C17.5598 17.0211 17.6598 18.4111 18.0898 18.3811C18.5198 18.3511 19.1098 16.9211 19.4198 15.1911C19.7298 13.4611 19.6298 12.0711 19.1998 12.1011C18.7698 12.1311 18.1798 13.5611 17.8698 15.2911Z" fill="url(#paint65_linear_358_36238)"/>
<path d="M8.55947 23.231C7.26947 23.231 6.01947 22.851 4.99947 22.051C3.60947 20.971 2.81947 19.311 2.75947 17.361C2.69947 15.421 3.38947 13.431 4.67947 11.761C5.97947 10.091 7.73947 8.94096 9.62947 8.51096C11.5295 8.08096 13.3395 8.44096 14.7295 9.52096C16.1195 10.601 16.9095 12.261 16.9695 14.211C17.0295 16.151 16.3395 18.141 15.0495 19.811C13.3295 22.021 10.8695 23.231 8.56947 23.231H8.55947ZM11.1695 8.55096C10.6795 8.55096 10.1895 8.61096 9.67947 8.72096C7.82947 9.13096 6.11947 10.261 4.84947 11.891C3.57947 13.521 2.90947 15.461 2.96947 17.351C3.01947 19.231 3.78947 20.841 5.12947 21.881C7.88947 24.031 12.2695 23.041 14.8795 19.681C16.1495 18.051 16.8195 16.111 16.7595 14.221C16.7095 12.341 15.9395 10.731 14.5995 9.69096C13.6295 8.94096 12.4495 8.55096 11.1695 8.55096Z" fill="url(#paint66_linear_358_36238)"/>
<path d="M14.7967 19.5808C17.3558 16.2888 17.2282 11.9081 14.5117 9.79645C11.7952 7.68476 7.51849 8.64164 4.95938 11.9337C2.40026 15.2258 2.52784 19.6064 5.24435 21.7181C7.96085 23.8298 12.2376 22.8729 14.7967 19.5808Z" fill="url(#paint67_linear_358_36238)"/>
<path style="mix-blend-mode:multiply" opacity="0.59" d="M5.90961 12.4407C8.11961 9.60069 11.6096 8.50069 14.2696 9.61069C11.5496 7.74069 7.44961 8.74069 4.96961 11.9307C2.40961 15.2207 2.53961 19.6007 5.24961 21.7107C5.61961 22.0007 6.01961 22.2307 6.43961 22.4007C6.34961 22.3407 6.26961 22.2807 6.18961 22.2207C3.46961 20.1107 3.34961 15.7307 5.90961 12.4407Z" fill="url(#paint68_linear_358_36238)"/>
<path d="M14.7996 19.5802C17.3596 16.2902 17.2296 11.9102 14.5196 9.80023C14.4396 9.74023 14.3496 9.67023 14.2696 9.62023C11.6096 8.51023 8.11955 9.61023 5.90955 12.4502C3.34955 15.7402 3.47955 20.1202 6.18955 22.2302C6.26955 22.2902 6.35955 22.3602 6.43955 22.4102C9.09955 23.5202 12.5896 22.4202 14.7996 19.5802Z" fill="url(#paint69_linear_358_36238)"/>
<g style="mix-blend-mode:multiply">
<g opacity="0.63">
<path d="M11.7697 16.2908L12.3497 15.5408C12.4097 15.4608 12.4097 15.3508 12.3397 15.3008C12.4297 14.8408 11.9697 14.5308 11.9697 14.5308C11.9097 13.9708 11.7297 13.6208 11.4897 13.4108C11.5997 13.2708 11.7497 13.0908 11.9197 12.9108C12.0697 12.9308 12.1997 12.9608 12.3297 13.0208C12.5497 13.6108 13.4497 13.6708 13.6197 13.6508C14.0297 13.6008 14.6597 13.6308 14.7297 13.6508C14.6797 13.5608 14.6297 13.4908 14.5797 13.4108C13.6297 12.0408 12.8097 12.5508 12.4897 12.8508C12.3697 12.8008 12.2497 12.7508 12.1197 12.7308C12.3997 12.4808 12.6397 12.3408 12.8297 12.3408C12.8797 12.3408 12.9297 12.2908 12.9397 12.2408C12.9397 12.1808 12.9097 12.1408 12.8597 12.1408C12.7297 12.1408 12.5797 12.1908 12.4197 12.2808C12.4497 12.1208 12.4697 11.9008 12.4497 11.7308C12.4597 11.7108 12.4797 11.6908 12.4997 11.6608C12.4797 11.6608 12.4597 11.6408 12.4297 11.6408C12.4497 11.6408 12.4697 11.6608 12.4997 11.6608C12.6997 11.3408 13.1997 10.3008 11.4697 9.67082C11.5397 9.89082 11.6497 10.2908 11.6897 10.5908C11.7097 10.7308 11.9097 11.3408 12.3397 11.5908C11.9097 11.3508 11.7097 10.7308 11.6897 10.5908C11.6497 10.2908 11.5397 9.88082 11.4697 9.67082C11.3897 9.64082 11.3097 9.61082 11.2297 9.59082C11.2697 9.64082 11.4497 10.2508 11.4997 10.6708C11.5197 10.8208 11.7497 11.5208 12.2497 11.7208C12.2497 11.7208 12.2497 11.7208 12.2497 11.7308C12.2897 11.9008 12.2297 12.2708 12.1997 12.4308C12.0897 12.5208 11.9697 12.6208 11.8497 12.7408C11.6497 12.9408 11.4797 13.1508 11.3597 13.3108C10.6997 12.9008 9.76971 13.3008 9.76971 13.3008L9.73971 13.2708C9.66971 13.2208 9.56971 13.2408 9.49971 13.3208L8.92971 14.0508C7.85971 13.9808 6.77971 14.5008 5.93971 15.5808C4.61971 17.2708 4.73971 19.2508 6.25971 20.4408C7.77971 21.6308 9.76971 21.1908 11.0497 19.5508C11.8597 18.5108 12.1097 17.3208 11.7797 16.2908H11.7697ZM7.08971 19.3508C6.01971 18.5208 6.17971 17.3508 6.93971 16.3708C7.69971 15.3908 8.75971 15.0008 9.82971 15.8308C10.8997 16.6608 10.7797 17.7908 10.0197 18.7608C9.25971 19.7308 8.14971 20.1808 7.08971 19.3508Z" fill="url(#paint70_linear_358_36238)"/>
</g>
</g>
<path d="M11.6794 16.2215L12.2594 15.4715C12.3194 15.3915 12.3194 15.2815 12.2494 15.2315C12.3394 14.7715 11.8794 14.4615 11.8794 14.4615C11.8194 13.9015 11.6394 13.5515 11.3994 13.3415C11.5094 13.2015 11.6594 13.0215 11.8294 12.8415C11.9794 12.8615 12.1094 12.8915 12.2394 12.9515C12.4594 13.5415 13.3594 13.6015 13.5294 13.5815C13.9394 13.5315 14.5694 13.5615 14.6394 13.5815C14.5894 13.4915 14.5394 13.4215 14.4894 13.3415C13.5394 11.9715 12.7194 12.4815 12.3994 12.7815C12.2794 12.7315 12.1594 12.6815 12.0294 12.6615C12.3094 12.4115 12.5494 12.2715 12.7394 12.2715C12.7894 12.2715 12.8394 12.2215 12.8494 12.1715C12.8494 12.1115 12.8194 12.0715 12.7694 12.0715C12.6394 12.0715 12.4894 12.1215 12.3294 12.2115C12.3594 12.0515 12.3794 11.8315 12.3594 11.6615C12.3694 11.6415 12.3894 11.6215 12.4094 11.5915C12.3894 11.5915 12.3694 11.5715 12.3394 11.5715C12.3594 11.5715 12.3794 11.5915 12.4094 11.5915C12.6094 11.2715 13.1094 10.2315 11.3794 9.60148C11.4494 9.82148 11.5594 10.2215 11.5994 10.5215C11.6194 10.6615 11.8194 11.2715 12.2494 11.5215C11.8194 11.2815 11.6194 10.6615 11.5994 10.5215C11.5594 10.2215 11.4494 9.81148 11.3794 9.60148C11.2994 9.57148 11.2194 9.54148 11.1394 9.52148C11.1794 9.57148 11.3594 10.1815 11.4094 10.6015C11.4294 10.7515 11.6594 11.4515 12.1594 11.6515C12.1594 11.6515 12.1594 11.6515 12.1594 11.6615C12.1994 11.8315 12.1394 12.2015 12.1094 12.3615C11.9994 12.4515 11.8794 12.5515 11.7594 12.6715C11.5594 12.8715 11.3894 13.0815 11.2694 13.2415C10.6094 12.8315 9.67938 13.2315 9.67938 13.2315L9.64938 13.2015C9.57938 13.1515 9.47938 13.1715 9.40938 13.2515L8.83938 13.9815C7.76938 13.9115 6.68938 14.4315 5.84938 15.5115C4.52938 17.2015 4.64938 19.1815 6.16938 20.3715C7.68938 21.5615 9.67938 21.1215 10.9594 19.4815C11.7694 18.4415 12.0194 17.2515 11.6894 16.2215H11.6794ZM6.99938 19.2815C5.92938 18.4515 6.08938 17.2815 6.84938 16.3015C7.60938 15.3215 8.66938 14.9315 9.73938 15.7615C10.8094 16.5915 10.6894 17.7215 9.92938 18.6915C9.16938 19.6615 8.05938 20.1115 6.99938 19.2815Z" fill="url(#paint71_linear_358_36238)"/>
<g style="mix-blend-mode:multiply">
<path d="M8.41977 25.7204C6.73977 25.7204 5.12977 25.2304 3.78977 24.1904C0.0797722 21.3104 -0.0902276 15.2804 3.40977 10.7704C5.10977 8.59044 7.39977 7.08044 9.86977 6.52044C12.3498 5.96044 14.7098 6.43044 16.5098 7.83044C18.3098 9.23044 19.3498 11.4004 19.4198 13.9404C19.4898 16.4704 18.5898 19.0704 16.8998 21.2504C14.6498 24.1404 11.4298 25.7204 8.42977 25.7204H8.41977ZM11.8798 6.53044C11.2398 6.53044 10.5798 6.60044 9.91977 6.75044C7.49977 7.29044 5.25977 8.77044 3.58977 10.9104C0.169772 15.3304 0.329772 21.2004 3.93977 24.0104C7.55977 26.8204 13.2798 25.5204 16.7098 21.1104C18.3698 18.9704 19.2498 16.4304 19.1798 13.9504C19.1098 11.4804 18.1098 9.38044 16.3598 8.02044C15.0998 7.04044 13.5498 6.53044 11.8798 6.53044Z" fill="url(#paint72_linear_358_36238)"/>
</g>
<path d="M8.11987 25.621C6.36987 25.621 4.74987 25.091 3.42987 24.061C1.59987 22.641 0.54987 20.431 0.47987 17.861C0.40987 15.301 1.30987 12.681 3.02987 10.481C6.56987 5.92101 12.5199 4.59101 16.2899 7.52101C20.0599 10.451 20.2399 16.541 16.6899 21.101C14.9799 23.301 12.6599 24.831 10.1599 25.391C9.46987 25.551 8.77987 25.621 8.11987 25.621ZM11.5799 6.42101C8.67987 6.42101 5.56987 7.95101 3.38987 10.761C1.73987 12.881 0.87987 15.391 0.93987 17.841C1.00987 20.271 1.98987 22.351 3.70987 23.681C5.42987 25.011 7.67987 25.461 10.0599 24.921C12.4499 24.381 14.6699 22.921 16.3199 20.801C19.7099 16.441 19.5599 10.651 15.9999 7.88101C14.7299 6.89101 13.1899 6.42101 11.5899 6.42101H11.5799Z" fill="#C1F471"/>
<path style="mix-blend-mode:overlay" opacity="0.5" d="M15.8896 20.3209C14.6096 21.6409 13.8596 22.9709 14.2196 23.2909C14.5796 23.6109 15.9196 22.7909 17.2096 21.4709C18.4896 20.1509 19.2396 18.8209 18.8796 18.5009C18.5196 18.1809 17.1796 19.0009 15.8896 20.3209Z" fill="url(#paint73_radial_358_36238)"/>
<path style="mix-blend-mode:overlay" opacity="0.4" d="M8.78981 6.12087L0.159805 17.2209C0.0598055 19.3709 0.619805 21.4209 1.82981 23.0109L14.8098 6.31087C12.9698 5.53087 10.8498 5.49087 8.78981 6.12087Z" fill="url(#paint74_linear_358_36238)"/>
<path style="mix-blend-mode:overlay" opacity="0.4" d="M16.7697 21.2313C19.9497 17.1413 20.2297 11.8813 17.7197 8.57129L4.73975 25.2713C8.56975 26.8913 13.5897 25.3213 16.7697 21.2313Z" fill="url(#paint75_linear_358_36238)"/>
<defs>
<radialGradient id="paint0_radial_358_36238" cx="0" cy="0" r="1" gradientUnits="userSpaceOnUse" gradientTransform="translate(29 17.5) rotate(94.7637) scale(12.0416)">
<stop offset="0.17" stop-color="#ACF465"/>
<stop offset="0.18" stop-color="#A3F360"/>
<stop offset="0.19" stop-color="#8CF352"/>
<stop offset="0.21" stop-color="#79F248"/>
<stop offset="0.22" stop-color="#6CF240"/>
<stop offset="0.25" stop-color="#65F23C"/>
<stop offset="0.3" stop-color="#63F23B"/>
<stop offset="0.36" stop-color="#64F23C"/>
<stop offset="0.38" stop-color="#6BF23F"/>
<stop offset="0.4" stop-color="#77F246"/>
<stop offset="0.41" stop-color="#88F350"/>
<stop offset="0.42" stop-color="#9EF35C"/>
<stop offset="0.43" stop-color="#ACF465"/>
<stop offset="0.45" stop-color="#C3F47E"/>
<stop offset="0.48" stop-color="#D8F495"/>
<stop offset="0.51" stop-color="#E7F4A5"/>
<stop offset="0.54" stop-color="#F0F4AE"/>
<stop offset="0.59" stop-color="#E1F098"/>
<stop offset="0.6" stop-color="#CFED7E"/>
<stop offset="0.61" stop-color="#C0EA68"/>
<stop offset="0.62" stop-color="#B5E857"/>
<stop offset="0.63" stop-color="#ACE74B"/>
<stop offset="0.65" stop-color="#A8E644"/>
<stop offset="0.69" stop-color="#A7E643"/>
<stop offset="0.7" stop-color="#9EDE3A"/>
<stop offset="0.71" stop-color="#8FD029"/>
<stop offset="0.73" stop-color="#84C61D"/>
<stop offset="0.76" stop-color="#7DC016"/>
<stop offset="0.83" stop-color="#7CBF15"/>
<stop offset="0.84" stop-color="#6DB81B"/>
<stop offset="0.85" stop-color="#5CB122"/>
<stop offset="0.86" stop-color="#50AB27"/>
<stop offset="0.87" stop-color="#49A82A"/>
<stop offset="0.91" stop-color="#48A82B"/>
<stop offset="0.93" stop-color="#45A329"/>
<stop offset="0.95" stop-color="#3F9425"/>
<stop offset="0.97" stop-color="#347D1F"/>
<stop offset="1" stop-color="#265C17"/>
</radialGradient>
<linearGradient id="paint1_linear_358_36238" x1="19.4179" y1="34.8274" x2="19.7667" y2="47.0124" gradientUnits="userSpaceOnUse">
<stop offset="0.74" stop-color="#0C6337"/>
<stop offset="1" stop-color="#339911"/>
</linearGradient>
<radialGradient id="paint2_radial_358_36238" cx="0" cy="0" r="1" gradientUnits="userSpaceOnUse" gradientTransform="translate(19.6263 40.704) rotate(88.36) scale(8.82)">
<stop stop-color="#C1F471"/>
<stop offset="0.11" stop-color="#BFF46F"/>
<stop offset="0.15" stop-color="#B8F46C"/>
<stop offset="0.17" stop-color="#ACF465"/>
<stop offset="0.18" stop-color="#A3F360"/>
<stop offset="0.19" stop-color="#8CF352"/>
<stop offset="0.21" stop-color="#79F248"/>
<stop offset="0.22" stop-color="#6CF240"/>
<stop offset="0.25" stop-color="#65F23C"/>
<stop offset="0.3" stop-color="#63F23B"/>
<stop offset="0.36" stop-color="#64F23C"/>
<stop offset="0.38" stop-color="#6BF23F"/>
<stop offset="0.4" stop-color="#77F246"/>
<stop offset="0.41" stop-color="#88F350"/>
<stop offset="0.42" stop-color="#9EF35C"/>
<stop offset="0.43" stop-color="#ACF465"/>
<stop offset="0.45" stop-color="#C3F47E"/>
<stop offset="0.48" stop-color="#D8F495"/>
<stop offset="0.51" stop-color="#E7F4A5"/>
<stop offset="0.54" stop-color="#F0F4AE"/>
<stop offset="0.59" stop-color="#EEF4AC"/>
<stop offset="0.6" stop-color="#DDF496"/>
<stop offset="0.62" stop-color="#D0F485"/>
<stop offset="0.64" stop-color="#C7F479"/>
<stop offset="0.67" stop-color="#C2F472"/>
<stop offset="0.75" stop-color="#C1F471"/>
<stop offset="0.76" stop-color="#C1F471"/>
<stop offset="0.83" stop-color="#C1F471"/>
<stop offset="0.84" stop-color="#A3F35F"/>
<stop offset="0.85" stop-color="#7CF249"/>
<stop offset="0.86" stop-color="#70F242"/>
<stop offset="0.87" stop-color="#69F23F"/>
<stop offset="0.91" stop-color="#68F23E"/>
</radialGradient>
<linearGradient id="paint3_linear_358_36238" x1="19.8279" y1="34.8158" x2="20.1767" y2="47.0008" gradientUnits="userSpaceOnUse">
<stop stop-color="#0E6033"/>
<stop offset="1" stop-color="#339911"/>
</linearGradient>
<radialGradient id="paint4_radial_358_36238" cx="0" cy="0" r="1" gradientUnits="userSpaceOnUse" gradientTransform="translate(21.6741 112.234) rotate(88.36) scale(8.82 8.82)">
<stop stop-color="#C1F471"/>
<stop offset="0.11" stop-color="#BFF46F"/>
<stop offset="0.15" stop-color="#B8F46C"/>
<stop offset="0.17" stop-color="#ACF465"/>
<stop offset="0.18" stop-color="#A3F360"/>
<stop offset="0.19" stop-color="#8CF352"/>
<stop offset="0.21" stop-color="#79F248"/>
<stop offset="0.22" stop-color="#6CF240"/>
<stop offset="0.25" stop-color="#65F23C"/>
<stop offset="0.3" stop-color="#63F23B"/>
<stop offset="0.36" stop-color="#64F23C"/>
<stop offset="0.38" stop-color="#6BF23F"/>
<stop offset="0.4" stop-color="#77F246"/>
<stop offset="0.41" stop-color="#88F350"/>
<stop offset="0.42" stop-color="#9EF35C"/>
<stop offset="0.43" stop-color="#ACF465"/>
<stop offset="0.45" stop-color="#C3F47E"/>
<stop offset="0.48" stop-color="#D8F495"/>
<stop offset="0.51" stop-color="#E7F4A5"/>
<stop offset="0.54" stop-color="#F0F4AE"/>
<stop offset="0.59" stop-color="#EEF4AC"/>
<stop offset="0.6" stop-color="#DDF496"/>
<stop offset="0.62" stop-color="#D0F485"/>
<stop offset="0.64" stop-color="#C7F479"/>
<stop offset="0.67" stop-color="#C2F472"/>
<stop offset="0.75" stop-color="#C1F471"/>
<stop offset="0.76" stop-color="#C1F471"/>
<stop offset="0.83" stop-color="#C1F471"/>
<stop offset="0.84" stop-color="#A3F35F"/>
<stop offset="0.85" stop-color="#7CF249"/>
<stop offset="0.86" stop-color="#70F242"/>
<stop offset="0.87" stop-color="#69F23F"/>
<stop offset="0.91" stop-color="#68F23E"/>
</radialGradient>
<linearGradient id="paint5_linear_358_36238" x1="9.34191" y1="35.1157" x2="9.69078" y2="47.3007" gradientUnits="userSpaceOnUse">
<stop stop-color="#0E6033"/>
<stop offset="1" stop-color="#339911"/>
</linearGradient>
<linearGradient id="paint6_linear_358_36238" x1="26.5915" y1="25.5433" x2="26.0117" y2="7.78272" gradientUnits="userSpaceOnUse">
<stop stop-color="#63F23B"/>
<stop offset="1" stop-color="#339911"/>
</linearGradient>
<linearGradient id="paint7_linear_358_36238" x1="26.5973" y1="25.7231" x2="26.0175" y2="7.96253" gradientUnits="userSpaceOnUse">
<stop stop-color="#63F23B"/>
<stop offset="1" stop-color="#339911"/>
</linearGradient>
<linearGradient id="paint8_linear_358_36238" x1="26.5916" y1="25.5428" x2="26.0117" y2="7.78224" gradientUnits="userSpaceOnUse">
<stop stop-color="#63F23B"/>
<stop offset="1" stop-color="#339911"/>
</linearGradient>
<linearGradient id="paint9_linear_358_36238" x1="26.5975" y1="25.7227" x2="26.0176" y2="7.96214" gradientUnits="userSpaceOnUse">
<stop stop-color="#63F23B"/>
<stop offset="1" stop-color="#339911"/>
</linearGradient>
<linearGradient id="paint10_linear_358_36238" x1="26.5915" y1="25.5433" x2="26.0117" y2="7.78272" gradientUnits="userSpaceOnUse">
<stop stop-color="#63F23B"/>
<stop offset="1" stop-color="#339911"/>
</linearGradient>
<linearGradient id="paint11_linear_358_36238" x1="26.5916" y1="25.5428" x2="26.0117" y2="7.78224" gradientUnits="userSpaceOnUse">
<stop stop-color="#63F23B"/>
<stop offset="1" stop-color="#339911"/>
</linearGradient>
<linearGradient id="paint12_linear_358_36238" x1="26.5975" y1="25.7227" x2="26.0176" y2="7.96214" gradientUnits="userSpaceOnUse">
<stop stop-color="#63F23B"/>
<stop offset="1" stop-color="#339911"/>
</linearGradient>
<linearGradient id="paint13_linear_358_36238" x1="26.5973" y1="25.7231" x2="26.0175" y2="7.96253" gradientUnits="userSpaceOnUse">
<stop stop-color="white" stop-opacity="0"/>
<stop offset="0.48" stop-color="white"/>
<stop offset="1" stop-color="white" stop-opacity="0"/>
</linearGradient>
<linearGradient id="paint14_linear_358_36238" x1="26.5973" y1="25.7231" x2="26.0175" y2="7.96253" gradientUnits="userSpaceOnUse">
<stop stop-color="white" stop-opacity="0"/>
<stop offset="0.48" stop-color="white"/>
<stop offset="1" stop-color="white" stop-opacity="0"/>
</linearGradient>
<linearGradient id="paint15_linear_358_36238" x1="91.2954" y1="99.1115" x2="90.2643" y2="97.7904" gradientUnits="userSpaceOnUse">
<stop stop-color="#63F23B"/>
<stop offset="1" stop-color="#339911"/>
</linearGradient>
<linearGradient id="paint16_linear_358_36238" x1="22.797" y1="10.2974" x2="23.2252" y2="23.4104" gradientUnits="userSpaceOnUse">
<stop stop-color="#63F23B"/>
<stop offset="1" stop-color="#339911"/>
</linearGradient>
<linearGradient id="paint17_linear_358_36238" x1="26.6546" y1="22.8953" x2="26.2484" y2="10.452" gradientUnits="userSpaceOnUse">
<stop stop-color="#0E6033"/>
<stop offset="1" stop-color="#339911"/>
</linearGradient>
<linearGradient id="paint18_linear_358_36238" x1="26.5372" y1="22.9741" x2="26.1309" y2="10.5308" gradientUnits="userSpaceOnUse">
<stop stop-color="#292738"/>
<stop offset="1" stop-color="#292738"/>
</linearGradient>
<linearGradient id="paint19_linear_358_36238" x1="26.6263" y1="22.9709" x2="26.22" y2="10.5275" gradientUnits="userSpaceOnUse">
<stop stop-color="#0A4726"/>
<stop offset="1" stop-color="#1E590A"/>
</linearGradient>
<linearGradient id="paint20_linear_358_36238" x1="22.9454" y1="13.6142" x2="23.1569" y2="20.0908" gradientUnits="userSpaceOnUse">
<stop stop-color="#CFAD05"/>
<stop offset="1" stop-color="#853903"/>
</linearGradient>
<linearGradient id="paint21_linear_358_36238" x1="20.1495" y1="12.757" x2="26.6242" y2="20.14" gradientUnits="userSpaceOnUse">
<stop stop-color="#339911"/>
<stop offset="0.67" stop-color="#63F23B"/>
</linearGradient>
<linearGradient id="paint22_linear_358_36238" x1="22.7448" y1="8.69817" x2="23.3018" y2="25.7591" gradientUnits="userSpaceOnUse">
<stop offset="0.16" stop-color="#7CCF04"/>
<stop offset="1" stop-color="#EDEDED"/>
</linearGradient>
<radialGradient id="paint23_radial_358_36238" cx="0" cy="0" r="1" gradientUnits="userSpaceOnUse" gradientTransform="translate(20.1983 49.8366) rotate(-88.68) scale(0.8932 3.3176)">
<stop stop-color="white"/>
<stop offset="0.09" stop-color="white" stop-opacity="0.96"/>
<stop offset="0.24" stop-color="white" stop-opacity="0.85"/>
<stop offset="0.43" stop-color="white" stop-opacity="0.66"/>
<stop offset="0.66" stop-color="white" stop-opacity="0.41"/>
<stop offset="0.93" stop-color="white" stop-opacity="0.09"/>
<stop offset="1" stop-color="white" stop-opacity="0"/>
</radialGradient>
<linearGradient id="paint24_linear_358_36238" x1="22.7089" y1="9.43915" x2="23.0033" y2="18.4543" gradientUnits="userSpaceOnUse">
<stop stop-color="white"/>
<stop offset="1" stop-color="white" stop-opacity="0"/>
</linearGradient>
<linearGradient id="paint25_linear_358_36238" x1="22.8672" y1="15.5176" x2="23.6214" y2="31.2614" gradientUnits="userSpaceOnUse">
<stop stop-color="white"/>
<stop offset="1" stop-color="white" stop-opacity="0"/>
</linearGradient>
<radialGradient id="paint26_radial_358_36238" cx="0" cy="0" r="1" gradientUnits="userSpaceOnUse" gradientTransform="translate(27 14.5) rotate(78.6901) scale(10.198 10.198)">
<stop offset="0.17" stop-color="#ACF465"/>
<stop offset="0.18" stop-color="#A3F360"/>
<stop offset="0.19" stop-color="#8CF352"/>
<stop offset="0.21" stop-color="#79F248"/>
<stop offset="0.22" stop-color="#6CF240"/>
<stop offset="0.25" stop-color="#65F23C"/>
<stop offset="0.3" stop-color="#63F23B"/>
<stop offset="0.36" stop-color="#64F23C"/>
<stop offset="0.38" stop-color="#6BF23F"/>
<stop offset="0.4" stop-color="#77F246"/>
<stop offset="0.41" stop-color="#88F350"/>
<stop offset="0.42" stop-color="#9EF35C"/>
<stop offset="0.43" stop-color="#ACF465"/>
<stop offset="0.45" stop-color="#C3F47E"/>
<stop offset="0.48" stop-color="#D8F495"/>
<stop offset="0.51" stop-color="#E7F4A5"/>
<stop offset="0.54" stop-color="#F0F4AE"/>
<stop offset="0.59" stop-color="#E1F098"/>
<stop offset="0.6" stop-color="#CFED7E"/>
<stop offset="0.61" stop-color="#C0EA68"/>
<stop offset="0.62" stop-color="#B5E857"/>
<stop offset="0.63" stop-color="#ACE74B"/>
<stop offset="0.65" stop-color="#A8E644"/>
<stop offset="0.69" stop-color="#A7E643"/>
<stop offset="0.7" stop-color="#9EDE3A"/>
<stop offset="0.71" stop-color="#8FD029"/>
<stop offset="0.73" stop-color="#84C61D"/>
<stop offset="0.76" stop-color="#7DC016"/>
<stop offset="0.83" stop-color="#7CBF15"/>
<stop offset="0.84" stop-color="#6DB81B"/>
<stop offset="0.85" stop-color="#5CB122"/>
<stop offset="0.86" stop-color="#50AB27"/>
<stop offset="0.87" stop-color="#49A82A"/>
<stop offset="0.91" stop-color="#48A82B"/>
<stop offset="0.93" stop-color="#45A329"/>
<stop offset="0.95" stop-color="#3F9425"/>
<stop offset="0.97" stop-color="#347D1F"/>
<stop offset="1" stop-color="#265C17"/>
</radialGradient>
<linearGradient id="paint27_linear_358_36238" x1="19.4182" y1="30.2945" x2="19.767" y2="42.4795" gradientUnits="userSpaceOnUse">
<stop offset="0.74" stop-color="#0C6337"/>
<stop offset="1" stop-color="#339911"/>
</linearGradient>
<radialGradient id="paint28_radial_358_36238" cx="0" cy="0" r="1" gradientUnits="userSpaceOnUse" gradientTransform="translate(19.6269 36.1813) rotate(88.36) scale(0.5)">
<stop stop-color="#C1F471"/>
<stop offset="0.11" stop-color="#BFF46F"/>
<stop offset="0.15" stop-color="#B8F46C"/>
<stop offset="0.17" stop-color="#ACF465"/>
<stop offset="0.18" stop-color="#A3F360"/>
<stop offset="0.19" stop-color="#8CF352"/>
<stop offset="0.21" stop-color="#79F248"/>
<stop offset="0.22" stop-color="#6CF240"/>
<stop offset="0.25" stop-color="#65F23C"/>
<stop offset="0.3" stop-color="#63F23B"/>
<stop offset="0.36" stop-color="#64F23C"/>
<stop offset="0.38" stop-color="#6BF23F"/>
<stop offset="0.4" stop-color="#77F246"/>
<stop offset="0.41" stop-color="#88F350"/>
<stop offset="0.42" stop-color="#9EF35C"/>
<stop offset="0.43" stop-color="#ACF465"/>
<stop offset="0.45" stop-color="#C3F47E"/>
<stop offset="0.48" stop-color="#D8F495"/>
<stop offset="0.51" stop-color="#E7F4A5"/>
<stop offset="0.54" stop-color="#F0F4AE"/>
<stop offset="0.59" stop-color="#EEF4AC"/>
<stop offset="0.6" stop-color="#DDF496"/>
<stop offset="0.62" stop-color="#D0F485"/>
<stop offset="0.64" stop-color="#C7F479"/>
<stop offset="0.67" stop-color="#C2F472"/>
<stop offset="0.75" stop-color="#C1F471"/>
<stop offset="0.76" stop-color="#C1F471"/>
<stop offset="0.83" stop-color="#C1F471"/>
<stop offset="0.84" stop-color="#A3F35F"/>
<stop offset="0.85" stop-color="#7CF249"/>
<stop offset="0.86" stop-color="#70F242"/>
<stop offset="0.87" stop-color="#69F23F"/>
<stop offset="0.91" stop-color="#68F23E"/>
</radialGradient>
<linearGradient id="paint29_linear_358_36238" x1="19.8282" y1="30.2832" x2="20.177" y2="42.4682" gradientUnits="userSpaceOnUse">
<stop stop-color="#0E6033"/>
<stop offset="1" stop-color="#339911"/>
</linearGradient>
<radialGradient id="paint30_radial_358_36238" cx="0" cy="0" r="1" gradientUnits="userSpaceOnUse" gradientTransform="translate(19.6266 36.1811) rotate(88.36) scale(8.82002 8.82)">
<stop stop-color="#C1F471"/>
<stop offset="0.11" stop-color="#BFF46F"/>
<stop offset="0.15" stop-color="#B8F46C"/>
<stop offset="0.17" stop-color="#ACF465"/>
<stop offset="0.18" stop-color="#A3F360"/>
<stop offset="0.19" stop-color="#8CF352"/>
<stop offset="0.21" stop-color="#79F248"/>
<stop offset="0.22" stop-color="#6CF240"/>
<stop offset="0.25" stop-color="#65F23C"/>
<stop offset="0.3" stop-color="#63F23B"/>
<stop offset="0.36" stop-color="#64F23C"/>
<stop offset="0.38" stop-color="#6BF23F"/>
<stop offset="0.4" stop-color="#77F246"/>
<stop offset="0.41" stop-color="#88F350"/>
<stop offset="0.42" stop-color="#9EF35C"/>
<stop offset="0.43" stop-color="#ACF465"/>
<stop offset="0.45" stop-color="#C3F47E"/>
<stop offset="0.48" stop-color="#D8F495"/>
<stop offset="0.51" stop-color="#E7F4A5"/>
<stop offset="0.54" stop-color="#F0F4AE"/>
<stop offset="0.59" stop-color="#EEF4AC"/>
<stop offset="0.6" stop-color="#DDF496"/>
<stop offset="0.62" stop-color="#D0F485"/>
<stop offset="0.64" stop-color="#C7F479"/>
<stop offset="0.67" stop-color="#C2F472"/>
<stop offset="0.75" stop-color="#C1F471"/>
<stop offset="0.76" stop-color="#C1F471"/>
<stop offset="0.83" stop-color="#C1F471"/>
<stop offset="0.84" stop-color="#A3F35F"/>
<stop offset="0.85" stop-color="#7CF249"/>
<stop offset="0.86" stop-color="#70F242"/>
<stop offset="0.87" stop-color="#69F23F"/>
<stop offset="0.91" stop-color="#68F23E"/>
</radialGradient>
<linearGradient id="paint31_linear_358_36238" x1="9.34221" y1="30.5831" x2="9.69108" y2="42.7681" gradientUnits="userSpaceOnUse">
<stop stop-color="#0E6033"/>
<stop offset="1" stop-color="#339911"/>
</linearGradient>
<linearGradient id="paint32_linear_358_36238" x1="26.5915" y1="20.9908" x2="26.0116" y2="3.23026" gradientUnits="userSpaceOnUse">
<stop stop-color="#63F23B"/>
<stop offset="1" stop-color="#339911"/>
</linearGradient>
<linearGradient id="paint33_linear_358_36238" x1="26.5973" y1="21.1708" x2="26.0174" y2="3.41031" gradientUnits="userSpaceOnUse">
<stop stop-color="#63F23B"/>
<stop offset="1" stop-color="#339911"/>
</linearGradient>
<linearGradient id="paint34_linear_358_36238" x1="26.5915" y1="20.9905" x2="26.0117" y2="3.23001" gradientUnits="userSpaceOnUse">
<stop stop-color="#63F23B"/>
<stop offset="1" stop-color="#339911"/>
</linearGradient>
<linearGradient id="paint35_linear_358_36238" x1="26.5974" y1="21.1705" x2="26.0175" y2="3.40992" gradientUnits="userSpaceOnUse">
<stop stop-color="#63F23B"/>
<stop offset="1" stop-color="#339911"/>
</linearGradient>
<linearGradient id="paint36_linear_358_36238" x1="26.5915" y1="20.9908" x2="26.0116" y2="3.23026" gradientUnits="userSpaceOnUse">
<stop stop-color="#63F23B"/>
<stop offset="1" stop-color="#339911"/>
</linearGradient>
<linearGradient id="paint37_linear_358_36238" x1="26.5915" y1="20.9905" x2="26.0117" y2="3.23001" gradientUnits="userSpaceOnUse">
<stop stop-color="#63F23B"/>
<stop offset="1" stop-color="#339911"/>
</linearGradient>
<linearGradient id="paint38_linear_358_36238" x1="26.5974" y1="21.1705" x2="26.0175" y2="3.40992" gradientUnits="userSpaceOnUse">
<stop stop-color="#63F23B"/>
<stop offset="1" stop-color="#339911"/>
</linearGradient>
<linearGradient id="paint39_linear_358_36238" x1="26.5973" y1="21.1708" x2="26.0174" y2="3.41031" gradientUnits="userSpaceOnUse">
<stop stop-color="white" stop-opacity="0"/>
<stop offset="0.48" stop-color="white"/>
<stop offset="1" stop-color="white" stop-opacity="0"/>
</linearGradient>
<linearGradient id="paint40_linear_358_36238" x1="26.5973" y1="21.1708" x2="26.0174" y2="3.41031" gradientUnits="userSpaceOnUse">
<stop stop-color="white" stop-opacity="0"/>
<stop offset="0.48" stop-color="white"/>
<stop offset="1" stop-color="white" stop-opacity="0"/>
</linearGradient>
<linearGradient id="paint41_linear_358_36238" x1="91.1429" y1="94.3861" x2="90.111" y2="93.0639" gradientUnits="userSpaceOnUse">
<stop stop-color="#63F23B"/>
<stop offset="1" stop-color="#339911"/>
</linearGradient>
<linearGradient id="paint42_linear_358_36238" x1="22.7988" y1="5.74465" x2="23.2272" y2="18.8677" gradientUnits="userSpaceOnUse">
<stop stop-color="#63F23B"/>
<stop offset="1" stop-color="#339911"/>
</linearGradient>
<linearGradient id="paint43_linear_358_36238" x1="26.6551" y1="18.3475" x2="26.2488" y2="5.90418" gradientUnits="userSpaceOnUse">
<stop stop-color="#0E6033"/>
<stop offset="1" stop-color="#339911"/>
</linearGradient>
<linearGradient id="paint44_linear_358_36238" x1="26.5372" y1="18.4209" x2="26.131" y2="5.97757" gradientUnits="userSpaceOnUse">
<stop stop-color="#292738"/>
<stop offset="1" stop-color="#292738"/>
</linearGradient>
<linearGradient id="paint45_linear_358_36238" x1="26.6263" y1="18.4177" x2="26.22" y2="5.9743" gradientUnits="userSpaceOnUse">
<stop stop-color="#0A4726"/>
<stop offset="1" stop-color="#1E590A"/>
</linearGradient>
<linearGradient id="paint46_linear_358_36238" x1="22.9472" y1="9.07172" x2="23.1583" y2="15.5383" gradientUnits="userSpaceOnUse">
<stop stop-color="#CFAD05"/>
<stop offset="1" stop-color="#853903"/>
</linearGradient>
<linearGradient id="paint47_linear_358_36238" x1="20.15" y1="8.20758" x2="26.6248" y2="15.5906" gradientUnits="userSpaceOnUse">
<stop stop-color="#339911"/>
<stop offset="0.67" stop-color="#63F23B"/>
</linearGradient>
<linearGradient id="paint48_linear_358_36238" x1="22.7465" y1="4.14492" x2="23.3039" y2="21.2158" gradientUnits="userSpaceOnUse">
<stop offset="0.16" stop-color="#7CCF04"/>
<stop offset="1" stop-color="#EDEDED"/>
</linearGradient>
<radialGradient id="paint49_radial_358_36238" cx="0" cy="0" r="1" gradientUnits="userSpaceOnUse" gradientTransform="translate(20.2012 45.1964) rotate(-88.68) scale(0.8932 3.3176)">
<stop stop-color="white"/>
<stop offset="0.09" stop-color="white" stop-opacity="0.96"/>
<stop offset="0.24" stop-color="white" stop-opacity="0.85"/>
<stop offset="0.43" stop-color="white" stop-opacity="0.66"/>
<stop offset="0.66" stop-color="white" stop-opacity="0.41"/>
<stop offset="0.93" stop-color="white" stop-opacity="0.09"/>
<stop offset="1" stop-color="white" stop-opacity="0"/>
</radialGradient>
<linearGradient id="paint50_linear_358_36238" x1="22.7104" y1="4.88687" x2="23.005" y2="13.9121" gradientUnits="userSpaceOnUse">
<stop stop-color="white"/>
<stop offset="1" stop-color="white" stop-opacity="0"/>
</linearGradient>
<linearGradient id="paint51_linear_358_36238" x1="22.859" y1="10.9757" x2="23.6132" y2="26.7195" gradientUnits="userSpaceOnUse">
<stop stop-color="white"/>
<stop offset="1" stop-color="white" stop-opacity="0"/>
</linearGradient>
<radialGradient id="paint52_radial_358_36238" cx="0" cy="0" r="1" gradientUnits="userSpaceOnUse" gradientTransform="translate(14 18) rotate(66.0375) scale(9.84886)">
<stop offset="0.17" stop-color="#ACF465"/>
<stop offset="0.18" stop-color="#A3F360"/>
<stop offset="0.19" stop-color="#8CF352"/>
<stop offset="0.21" stop-color="#79F248"/>
<stop offset="0.22" stop-color="#6CF240"/>
<stop offset="0.25" stop-color="#65F23C"/>
<stop offset="0.3" stop-color="#63F23B"/>
<stop offset="0.36" stop-color="#64F23C"/>
<stop offset="0.38" stop-color="#6BF23F"/>
<stop offset="0.4" stop-color="#77F246"/>
<stop offset="0.41" stop-color="#88F350"/>
<stop offset="0.42" stop-color="#9EF35C"/>
<stop offset="0.43" stop-color="#ACF465"/>
<stop offset="0.45" stop-color="#C3F47E"/>
<stop offset="0.48" stop-color="#D8F495"/>
<stop offset="0.51" stop-color="#E7F4A5"/>
<stop offset="0.54" stop-color="#F0F4AE"/>
<stop offset="0.59" stop-color="#E1F098"/>
<stop offset="0.6" stop-color="#CFED7E"/>
<stop offset="0.61" stop-color="#C0EA68"/>
<stop offset="0.62" stop-color="#B5E857"/>
<stop offset="0.63" stop-color="#ACE74B"/>
<stop offset="0.65" stop-color="#A8E644"/>
<stop offset="0.69" stop-color="#A7E643"/>
<stop offset="0.7" stop-color="#9EDE3A"/>
<stop offset="0.71" stop-color="#8FD029"/>
<stop offset="0.73" stop-color="#84C61D"/>
<stop offset="0.76" stop-color="#7DC016"/>
<stop offset="0.83" stop-color="#7CBF15"/>
<stop offset="0.84" stop-color="#6DB81B"/>
<stop offset="0.85" stop-color="#5CB122"/>
<stop offset="0.86" stop-color="#50AB27"/>
<stop offset="0.87" stop-color="#49A82A"/>
<stop offset="0.91" stop-color="#48A82B"/>
<stop offset="0.93" stop-color="#45A329"/>
<stop offset="0.95" stop-color="#3F9425"/>
<stop offset="0.97" stop-color="#347D1F"/>
<stop offset="1" stop-color="#265C17"/>
</radialGradient>
<linearGradient id="paint53_linear_358_36238" x1="16.5387" y1="24.6962" x2="26.1327" y2="32.2162" gradientUnits="userSpaceOnUse">
<stop offset="0.74" stop-color="#0C6337"/>
<stop offset="1" stop-color="#339911"/>
</linearGradient>
<radialGradient id="paint54_radial_358_36238" cx="0" cy="0" r="1" gradientUnits="userSpaceOnUse" gradientTransform="translate(21.197 28.2841) rotate(38.09) scale(8.82)">
<stop stop-color="#C1F471"/>
<stop offset="0.11" stop-color="#BFF46F"/>
<stop offset="0.15" stop-color="#B8F46C"/>
<stop offset="0.17" stop-color="#ACF465"/>
<stop offset="0.18" stop-color="#A3F360"/>
<stop offset="0.19" stop-color="#8CF352"/>
<stop offset="0.21" stop-color="#79F248"/>
<stop offset="0.22" stop-color="#6CF240"/>
<stop offset="0.25" stop-color="#65F23C"/>
<stop offset="0.3" stop-color="#63F23B"/>
<stop offset="0.36" stop-color="#64F23C"/>
<stop offset="0.38" stop-color="#6BF23F"/>
<stop offset="0.4" stop-color="#77F246"/>
<stop offset="0.41" stop-color="#88F350"/>
<stop offset="0.42" stop-color="#9EF35C"/>
<stop offset="0.43" stop-color="#ACF465"/>
<stop offset="0.45" stop-color="#C3F47E"/>
<stop offset="0.48" stop-color="#D8F495"/>
<stop offset="0.51" stop-color="#E7F4A5"/>
<stop offset="0.54" stop-color="#F0F4AE"/>
<stop offset="0.59" stop-color="#EEF4AC"/>
<stop offset="0.6" stop-color="#DDF496"/>
<stop offset="0.62" stop-color="#D0F485"/>
<stop offset="0.64" stop-color="#C7F479"/>
<stop offset="0.67" stop-color="#C2F472"/>
<stop offset="0.75" stop-color="#C1F471"/>
<stop offset="0.76" stop-color="#C1F471"/>
<stop offset="0.83" stop-color="#C1F471"/>
<stop offset="0.84" stop-color="#A3F35F"/>
<stop offset="0.85" stop-color="#7CF249"/>
<stop offset="0.86" stop-color="#70F242"/>
<stop offset="0.87" stop-color="#69F23F"/>
<stop offset="0.91" stop-color="#68F23E"/>
</radialGradient>
<linearGradient id="paint55_linear_358_36238" x1="16.7975" y1="24.3656" x2="26.3915" y2="31.8856" gradientUnits="userSpaceOnUse">
<stop stop-color="#0E6033"/>
<stop offset="1" stop-color="#339911"/>
</linearGradient>
<linearGradient id="paint56_linear_358_36238" x1="18.1842" y1="19.6032" x2="4.15453" y2="8.69713" gradientUnits="userSpaceOnUse">
<stop stop-color="#63F23B"/>
<stop offset="1" stop-color="#339911"/>
</linearGradient>
<linearGradient id="paint57_linear_358_36238" x1="18.3263" y1="19.7133" x2="4.29669" y2="8.80721" gradientUnits="userSpaceOnUse">
<stop stop-color="#63F23B"/>
<stop offset="1" stop-color="#339911"/>
</linearGradient>
<linearGradient id="paint58_linear_358_36238" x1="18.184" y1="19.6032" x2="4.1544" y2="8.69715" gradientUnits="userSpaceOnUse">
<stop stop-color="#63F23B"/>
<stop offset="1" stop-color="#339911"/>
</linearGradient>
<linearGradient id="paint59_linear_358_36238" x1="18.3262" y1="19.7137" x2="4.29651" y2="8.80762" gradientUnits="userSpaceOnUse">
<stop stop-color="#63F23B"/>
<stop offset="1" stop-color="#339911"/>
</linearGradient>
<linearGradient id="paint60_linear_358_36238" x1="18.1842" y1="19.6032" x2="4.15453" y2="8.69713" gradientUnits="userSpaceOnUse">
<stop stop-color="#63F23B"/>
<stop offset="1" stop-color="#339911"/>
</linearGradient>
<linearGradient id="paint61_linear_358_36238" x1="18.184" y1="19.6032" x2="4.1544" y2="8.69715" gradientUnits="userSpaceOnUse">
<stop stop-color="#63F23B"/>
<stop offset="1" stop-color="#339911"/>
</linearGradient>
<linearGradient id="paint62_linear_358_36238" x1="18.3262" y1="19.7137" x2="4.29651" y2="8.80762" gradientUnits="userSpaceOnUse">
<stop stop-color="#63F23B"/>
<stop offset="1" stop-color="#339911"/>
</linearGradient>
<linearGradient id="paint63_linear_358_36238" x1="18.3263" y1="19.7133" x2="4.29669" y2="8.80721" gradientUnits="userSpaceOnUse">
<stop stop-color="white" stop-opacity="0"/>
<stop offset="0.48" stop-color="white"/>
<stop offset="1" stop-color="white" stop-opacity="0"/>
</linearGradient>
<linearGradient id="paint64_linear_358_36238" x1="18.3263" y1="19.7133" x2="4.29669" y2="8.80721" gradientUnits="userSpaceOnUse">
<stop stop-color="white" stop-opacity="0"/>
<stop offset="0.48" stop-color="white"/>
<stop offset="1" stop-color="white" stop-opacity="0"/>
</linearGradient>
<linearGradient id="paint65_linear_358_36238" x1="165.512" y1="13.9719" x2="163.836" y2="13.9204" gradientUnits="userSpaceOnUse">
<stop stop-color="#63F23B"/>
<stop offset="1" stop-color="#339911"/>
</linearGradient>
<linearGradient id="paint66_linear_358_36238" x1="4.75505" y1="11.8645" x2="15.1214" y2="19.9229" gradientUnits="userSpaceOnUse">
<stop stop-color="#63F23B"/>
<stop offset="1" stop-color="#339911"/>
</linearGradient>
<linearGradient id="paint67_linear_358_36238" x1="16.2719" y1="17.6832" x2="6.44244" y2="10.0422" gradientUnits="userSpaceOnUse">
<stop stop-color="#0E6033"/>
<stop offset="1" stop-color="#339911"/>
</linearGradient>
<linearGradient id="paint68_linear_358_36238" x1="16.1793" y1="17.9947" x2="6.34991" y2="10.3537" gradientUnits="userSpaceOnUse">
<stop stop-color="#292738"/>
<stop offset="1" stop-color="#292738"/>
</linearGradient>
<linearGradient id="paint69_linear_358_36238" x1="16.234" y1="17.9238" x2="6.40453" y2="10.2829" gradientUnits="userSpaceOnUse">
<stop stop-color="#0A4726"/>
<stop offset="1" stop-color="#1E590A"/>
</linearGradient>
<linearGradient id="paint70_linear_358_36238" x1="7.40891" y1="13.8766" x2="12.5171" y2="17.8474" gradientUnits="userSpaceOnUse">
<stop stop-color="#CFAD05"/>
<stop offset="1" stop-color="#853903"/>
</linearGradient>
<linearGradient id="paint71_linear_358_36238" x1="4.85563" y1="15.4029" x2="14.6721" y2="15.1407" gradientUnits="userSpaceOnUse">
<stop stop-color="#339911"/>
<stop offset="0.67" stop-color="#63F23B"/>
</linearGradient>
<linearGradient id="paint72_linear_358_36238" x1="3.49213" y1="10.8821" x2="16.977" y2="21.3646" gradientUnits="userSpaceOnUse">
<stop offset="0.16" stop-color="#7CCF04"/>
<stop offset="1" stop-color="#EDEDED"/>
</linearGradient>
<radialGradient id="paint73_radial_358_36238" cx="0" cy="0" r="1" gradientUnits="userSpaceOnUse" gradientTransform="translate(70.8506 68.3539) rotate(-138.95) scale(0.8932 3.3176)">
<stop stop-color="white"/>
<stop offset="0.09" stop-color="white" stop-opacity="0.96"/>
<stop offset="0.24" stop-color="white" stop-opacity="0.85"/>
<stop offset="0.43" stop-color="white" stop-opacity="0.66"/>
<stop offset="0.66" stop-color="white" stop-opacity="0.41"/>
<stop offset="0.93" stop-color="white" stop-opacity="0.09"/>
<stop offset="1" stop-color="white" stop-opacity="0"/>
</radialGradient>
<linearGradient id="paint74_linear_358_36238" x1="4.03958" y1="11.384" x2="11.1689" y2="16.926" gradientUnits="userSpaceOnUse">
<stop stop-color="white"/>
<stop offset="1" stop-color="white" stop-opacity="0"/>
</linearGradient>
<linearGradient id="paint75_linear_358_36238" x1="8.8231" y1="15.1537" x2="21.4052" y2="24.6305" gradientUnits="userSpaceOnUse">
<stop stop-color="white"/>
<stop offset="1" stop-color="white" stop-opacity="0"/>
</linearGradient>
</defs>
</svg>
