<svg width="27" height="27" viewBox="0 0 27 27" fill="none" xmlns="http://www.w3.org/2000/svg">
<path d="M10.2713 10.5798C10.2934 10.5331 10.318 10.4863 10.3402 10.4396C10.3303 10.5725 10.2295 10.6684 10.1187 10.6733C10.0375 10.6733 9.96123 10.6266 9.91693 10.5479C9.91693 10.4888 9.91201 10.4273 9.90709 10.3682C9.84311 9.57593 9.52813 8.3727 8.25097 7.03906C8.05656 7.40077 7.87692 7.74525 7.71943 8.07497C4.92641 13.8352 6.53086 15.7717 8.00735 16.4188C8.23128 16.9085 8.60286 17.408 9.20576 17.75C8.50197 16.5566 8.40846 14.4184 10.2713 10.5823V10.5798Z" fill="url(#paint0_linear_358_20998)"/>
<path d="M12.4713 13.4099C13.1726 12.561 14.2455 11.6974 15.8549 10.91C16.2117 10.1472 16.5488 9.26385 16.854 8.24271L16.8589 8.23779C16.9795 7.8441 17.0976 7.4258 17.2034 6.98535C16.7678 7.10346 16.352 7.22895 15.9582 7.35198L15.9533 7.3569C15.2003 7.46517 14.0437 7.72599 12.7961 8.41741C11.3295 9.2294 10.4116 10.2629 9.92188 10.9051C10.4928 12.0246 11.0637 13.1442 11.6346 14.2613C11.9151 13.9783 12.1932 13.6929 12.4737 13.4099H12.4713Z" fill="url(#paint1_linear_358_20998)"/>
<path d="M10.9038 9.92534C10.8423 9.73341 10.8054 9.59808 10.8029 9.54395C10.6356 9.85398 10.483 10.1517 10.3428 10.4396C10.5126 10.2674 10.6996 10.0976 10.9038 9.92534Z" fill="url(#paint2_linear_358_20998)"/>
<path d="M8.43795 25.9907C8.80215 26.158 9.17866 26.3131 9.57485 26.4287C9.64375 26.4484 9.71511 26.4656 9.78401 26.4853C10.7733 26.751 11.8486 26.8667 13.0003 26.7879C19.332 26.3573 25.4274 20.5528 26.6159 13.8231C27.1057 11.0451 26.6701 8.55748 25.5603 6.60869L21.9109 2.9375C23.5744 5.00193 24.32 7.93495 23.7294 11.2813C22.5408 18.011 16.443 23.818 10.1138 24.2462C7.5053 24.4233 5.26351 23.6581 3.6123 22.2285L6.56528 24.7875C6.76214 24.9573 6.96885 25.1172 7.18294 25.2698C7.44378 25.4518 7.71201 25.6216 7.99501 25.7742C8.14019 25.8529 8.2903 25.9243 8.44041 25.9932L8.43795 25.9907Z" fill="url(#paint3_radial_358_20998)"/>
<path d="M26.8004 14.0099C27.2803 11.2885 26.8693 8.84763 25.8112 6.91361L25.6193 6.72168C26.6823 8.6557 27.0957 11.1015 26.6134 13.8278C25.4249 20.56 19.3294 26.3645 12.9978 26.7927C11.8215 26.8714 10.724 26.7508 9.71751 26.4753C9.6486 26.4556 9.57724 26.4408 9.50834 26.4187C9.11215 26.2981 8.73564 26.1505 8.37144 25.9807C8.22133 25.9118 8.07369 25.838 7.92604 25.7617C7.64304 25.6091 7.37236 25.4418 7.11397 25.2573C7.02784 25.1958 6.92695 25.1539 6.84082 25.0899C8.4748 26.4334 10.6575 27.147 13.1848 26.9772C19.5165 26.5491 25.6119 20.7421 26.8004 14.0124V14.0099Z" fill="#FB9503"/>
<path d="M26.6161 13.8771C25.4275 20.6068 19.3297 26.4137 13.0005 26.8419C11.8488 26.9206 10.7734 26.805 9.78418 26.5392C10.7907 26.8173 11.8882 26.9378 13.0644 26.8566C19.3961 26.4285 25.4915 20.6215 26.6801 13.8918C27.1624 11.1655 26.749 8.71967 25.6859 6.78565L25.5604 6.66016C26.6703 8.60894 27.1058 11.0991 26.6161 13.8746V13.8771Z" fill="url(#paint4_radial_358_20998)"/>
<path d="M26.6161 13.8771C25.4275 20.6068 19.3297 26.4137 13.0005 26.8419C11.8488 26.9206 10.7734 26.805 9.78418 26.5392C10.7907 26.8173 11.8882 26.9378 13.0644 26.8566C19.3961 26.4285 25.4915 20.6215 26.6801 13.8918C27.1624 11.1655 26.749 8.71967 25.6859 6.78565L25.5604 6.66016C26.6703 8.60894 27.1058 11.0991 26.6161 13.8746V13.8771Z" fill="#FB9503"/>
<path d="M9.57488 26.4849C9.17869 26.3668 8.80219 26.2142 8.43799 26.0469C8.80219 26.2167 9.17869 26.3643 9.57488 26.4849Z" fill="url(#paint5_radial_358_20998)"/>
<path d="M9.57488 26.4849C9.17869 26.3668 8.80219 26.2142 8.43799 26.0469C8.80219 26.2167 9.17869 26.3643 9.57488 26.4849Z" fill="url(#paint6_linear_358_20998)"/>
<path d="M7.18066 25.3242C7.43905 25.5088 7.7122 25.6736 7.99273 25.8286C7.70974 25.6761 7.43905 25.5063 7.18066 25.3242Z" fill="url(#paint7_radial_358_20998)"/>
<path d="M7.18066 25.3242C7.43905 25.5088 7.7122 25.6736 7.99273 25.8286C7.70974 25.6761 7.43905 25.5063 7.18066 25.3242Z" fill="url(#paint8_linear_358_20998)"/>
<path d="M21.4261 2.59803C21.4532 2.62264 21.4753 2.65216 21.5024 2.67677C17.2501 -1.38074 9.70037 -0.450635 4.57204 4.78549C-0.553821 10.0216 -1.32159 17.5904 2.82487 21.7512C2.7978 21.7266 2.77073 21.702 2.74366 21.6774C-1.49139 17.5338 -0.740842 9.90105 4.41701 4.63293C9.57487 -0.635179 17.1911 -1.5456 21.4261 2.59803Z" fill="url(#paint9_linear_358_20998)"/>
<path style="mix-blend-mode:overlay" opacity="0.4" d="M19.7531 19.537C24.879 14.3009 25.6492 6.73214 21.5003 2.57129C21.5273 2.59589 21.5544 2.6205 21.5815 2.64511C25.8165 6.79119 25.0685 14.4215 19.9106 19.6896C14.7527 24.9577 7.13653 25.8681 2.90148 21.7245C2.87441 21.6999 2.85226 21.6704 2.8252 21.6457C7.07501 25.7032 14.6272 24.7731 19.7531 19.537Z" fill="url(#paint10_linear_358_20998)"/>
<path d="M21.5001 2.67685C17.2503 -1.38065 9.70053 -0.450549 4.5722 4.78558C-0.553663 10.0217 -1.32144 17.5905 2.82503 21.7513C7.07485 25.8088 14.6271 24.8787 19.7529 19.6426C24.8788 14.4065 25.649 6.8377 21.5001 2.67685ZM16.3939 16.5275C10.7365 19.3596 8.77527 17.7873 8.09608 16.3282C6.62452 15.6761 5.01761 13.7421 7.75403 8.04093C7.90906 7.71367 8.08378 7.37411 8.27326 7.01733C8.28064 7.27323 9.10994 9.48283 9.88017 10.7279C9.90232 10.7599 9.93185 10.8115 9.95645 10.8681C10.9728 9.63785 12.7815 8.37311 15.9264 7.38395L15.9313 7.37903C16.3226 7.25846 16.736 7.13789 17.1666 7.02471C17.0633 7.46023 16.9501 7.87607 16.8344 8.2673L16.8295 8.27222C15.8895 11.4685 14.6418 13.2992 13.4139 14.3326C13.5246 14.3745 13.6181 14.4163 13.6674 14.4483C14.9248 15.1963 17.1494 15.9862 17.4078 15.9935C17.0534 16.1904 16.7138 16.3675 16.389 16.5275H16.3915H16.3939Z" fill="url(#paint11_linear_358_20998)"/>
<path d="M21.5001 2.67685C17.2503 -1.38065 9.70053 -0.450549 4.5722 4.78558C-0.553663 10.0217 -1.32144 17.5905 2.82503 21.7513C7.07485 25.8088 14.6271 24.8787 19.7529 19.6426C24.8788 14.4065 25.649 6.8377 21.5001 2.67685ZM16.3939 16.5275C10.7365 19.3596 8.77527 17.7873 8.09608 16.3282C6.62452 15.6761 5.01761 13.7421 7.75403 8.04093C7.90906 7.71367 8.08378 7.37411 8.27326 7.01733C8.28064 7.27323 9.10994 9.48283 9.88017 10.7279C9.90232 10.7599 9.93185 10.8115 9.95645 10.8681C10.9728 9.63785 12.7815 8.37311 15.9264 7.38395L15.9313 7.37903C16.3226 7.25846 16.736 7.13789 17.1666 7.02471C17.0633 7.46023 16.9501 7.87607 16.8344 8.2673L16.8295 8.27222C15.8895 11.4685 14.6418 13.2992 13.4139 14.3326C13.5246 14.3745 13.6181 14.4163 13.6674 14.4483C14.9248 15.1963 17.1494 15.9862 17.4078 15.9935C17.0534 16.1904 16.7138 16.3675 16.389 16.5275H16.3915H16.3939Z" fill="url(#paint12_linear_358_20998)"/>
<path d="M21.4261 2.59803C21.4532 2.62264 21.4753 2.65216 21.5024 2.67677C17.2501 -1.38074 9.70037 -0.450635 4.57204 4.78549C-0.553821 10.0216 -1.32159 17.5904 2.82487 21.7512C2.7978 21.7266 2.77073 21.702 2.74366 21.6774C-1.49139 17.5338 -0.740842 9.90105 4.41701 4.63293C9.57487 -0.635179 17.1911 -1.5456 21.4261 2.59803Z" fill="url(#paint13_linear_358_20998)"/>
<path d="M21.5001 2.67685C17.2503 -1.38065 9.70053 -0.450549 4.5722 4.78558C-0.553663 10.0217 -1.32144 17.5905 2.82503 21.7513C7.07485 25.8088 14.6271 24.8787 19.7529 19.6426C24.8788 14.4065 25.649 6.8377 21.5001 2.67685ZM16.3939 16.5275C10.7365 19.3596 8.77527 17.7873 8.09608 16.3282C6.62452 15.6761 5.01761 13.7421 7.75403 8.04093C7.90906 7.71367 8.08378 7.37411 8.27326 7.01733C8.28064 7.27323 9.10994 9.48283 9.88017 10.7279C9.90232 10.7599 9.93185 10.8115 9.95645 10.8681C10.9728 9.63785 12.7815 8.37311 15.9264 7.38395L15.9313 7.37903C16.3226 7.25846 16.736 7.13789 17.1666 7.02471C17.0633 7.46023 16.9501 7.87607 16.8344 8.2673L16.8295 8.27222C15.8895 11.4685 14.6418 13.2992 13.4139 14.3326C13.5246 14.3745 13.6181 14.4163 13.6674 14.4483C14.9248 15.1963 17.1494 15.9862 17.4078 15.9935C17.0534 16.1904 16.7138 16.3675 16.389 16.5275H16.3915H16.3939Z" fill="url(#paint14_linear_358_20998)"/>
<path d="M21.5001 2.67685C17.2503 -1.38065 9.70053 -0.450549 4.5722 4.78558C-0.553663 10.0217 -1.32144 17.5905 2.82503 21.7513C7.07485 25.8088 14.6271 24.8787 19.7529 19.6426C24.8788 14.4065 25.649 6.8377 21.5001 2.67685ZM16.3939 16.5275C10.7365 19.3596 8.77527 17.7873 8.09608 16.3282C6.62452 15.6761 5.01761 13.7421 7.75403 8.04093C7.90906 7.71367 8.08378 7.37411 8.27326 7.01733C8.28064 7.27323 9.10994 9.48283 9.88017 10.7279C9.90232 10.7599 9.93185 10.8115 9.95645 10.8681C10.9728 9.63785 12.7815 8.37311 15.9264 7.38395L15.9313 7.37903C16.3226 7.25846 16.736 7.13789 17.1666 7.02471C17.0633 7.46023 16.9501 7.87607 16.8344 8.2673L16.8295 8.27222C15.8895 11.4685 14.6418 13.2992 13.4139 14.3326C13.5246 14.3745 13.6181 14.4163 13.6674 14.4483C14.9248 15.1963 17.1494 15.9862 17.4078 15.9935C17.0534 16.1904 16.7138 16.3675 16.389 16.5275H16.3915H16.3939Z" fill="url(#paint15_linear_358_20998)"/>
<path d="M21.5001 2.67685C17.2503 -1.38065 9.70053 -0.450549 4.5722 4.78558C-0.553663 10.0217 -1.32144 17.5905 2.82503 21.7513C7.07485 25.8088 14.6271 24.8787 19.7529 19.6426C24.8788 14.4065 25.649 6.8377 21.5001 2.67685ZM16.3939 16.5275C10.7365 19.3596 8.77527 17.7873 8.09608 16.3282C6.62452 15.6761 5.01761 13.7421 7.75403 8.04093C7.90906 7.71367 8.08378 7.37411 8.27326 7.01733C8.28064 7.27323 9.10994 9.48283 9.88017 10.7279C9.90232 10.7599 9.93185 10.8115 9.95645 10.8681C10.9728 9.63785 12.7815 8.37311 15.9264 7.38395L15.9313 7.37903C16.3226 7.25846 16.736 7.13789 17.1666 7.02471C17.0633 7.46023 16.9501 7.87607 16.8344 8.2673L16.8295 8.27222C15.8895 11.4685 14.6418 13.2992 13.4139 14.3326C13.5246 14.3745 13.6181 14.4163 13.6674 14.4483C14.9248 15.1963 17.1494 15.9862 17.4078 15.9935C17.0534 16.1904 16.7138 16.3675 16.389 16.5275H16.3915H16.3939Z" fill="url(#paint16_linear_358_20998)"/>
<path d="M9.46911 24.3842C6.92217 24.3842 4.53519 23.555 2.74126 21.8424C-1.44212 17.6422 -0.659579 9.95531 4.48597 4.6995C9.62907 -0.553848 17.3019 -1.50117 21.5861 2.58832C25.7671 6.78608 24.9845 14.4754 19.839 19.7288C16.8491 22.7823 13.0028 24.3817 9.46665 24.3817L9.46911 24.3842ZM14.8558 0.290133C11.3836 0.290133 7.60382 1.86491 4.66069 4.87174C-0.388889 10.0316 -1.17389 17.5634 2.91352 21.6652C7.09935 25.6588 14.6147 24.7164 19.6667 19.5565C24.7163 14.3991 25.5013 6.86482 21.4163 2.76548C19.6692 1.0972 17.3437 0.290133 14.8583 0.290133H14.8558ZM11.1695 18.2229C10.6503 18.2229 10.1827 18.1515 9.76687 18.0039C8.97203 17.7258 8.37897 17.1944 8.00739 16.4193C7.22732 16.06 6.68348 15.4793 6.39064 14.687C5.82465 13.1516 6.24791 10.8977 7.64565 7.98438C7.78838 7.68173 7.96064 7.34463 8.16734 6.95586L8.3839 6.55232L8.39866 7.00999C8.40604 7.20684 9.20581 9.39184 9.98096 10.6467C11.1917 9.2565 13.1702 8.12217 15.8598 7.27081L15.8943 7.25605C16.224 7.15516 16.6645 7.02229 17.1345 6.89926L17.3314 6.84759L17.2846 7.0469C17.1936 7.43567 17.0829 7.84413 16.95 8.29442L16.9377 8.32886C16.133 11.0503 15.0256 13.0532 13.6426 14.2884C13.6796 14.3056 13.7091 14.3228 13.7337 14.3376C15.0207 15.1029 17.2034 15.8558 17.4101 15.8632L17.858 15.8755L17.4667 16.0945C17.1813 16.2519 16.8885 16.4094 16.5882 16.5595L16.448 16.6358C14.3366 17.6914 12.5697 18.2229 11.1671 18.2229H11.1695ZM8.23625 7.35447C8.09598 7.62514 7.97294 7.86873 7.86713 8.09265C6.49892 10.9445 6.07812 13.1344 6.6195 14.6058C6.89265 15.3465 7.40449 15.8878 8.1452 16.215L8.18703 16.2347L8.20672 16.2766C8.54877 17.0098 9.09999 17.5142 9.84316 17.775C11.295 18.2819 13.4261 17.8513 16.1797 16.4955H16.1748L16.3323 16.4143C16.5809 16.2913 16.8269 16.1658 17.0656 16.0354C16.3175 15.814 14.6122 15.1521 13.6008 14.5517C13.5787 14.5369 13.5196 14.5049 13.367 14.4434L13.1726 14.3696L13.3326 14.2367C14.7525 13.0433 15.8869 11.0257 16.7088 8.23536L16.7211 8.20091C16.8269 7.84413 16.918 7.51195 16.9967 7.19699C16.6202 7.30034 16.2708 7.40368 15.9927 7.4898L15.9607 7.50211C13.212 8.36823 11.2212 9.52717 10.0499 10.9469L9.9219 11.1019L9.84316 10.9149C9.81855 10.8583 9.7964 10.8165 9.78164 10.7993C9.15167 9.78553 8.4651 8.09757 8.23133 7.35693L8.23625 7.35447Z" fill="#FFE471"/>
<path style="mix-blend-mode:overlay" d="M19.7531 19.578C24.879 14.3419 25.6492 6.77315 21.5003 2.6123C21.5273 2.63691 21.5544 2.66152 21.5815 2.68612C25.8165 6.83221 25.0685 14.4625 19.9106 19.7306C14.7527 24.9987 7.13653 25.9091 2.90148 21.7655C2.87441 21.7409 2.85226 21.7114 2.8252 21.6868C7.07501 25.7443 14.6272 24.8142 19.7531 19.578Z" fill="url(#paint17_linear_358_20998)"/>
<path style="mix-blend-mode:overlay" opacity="0.5" d="M21.9576 12.6C21.3178 14.6742 21.2243 16.3671 21.7484 16.3843C22.2726 16.4016 23.2175 14.7357 23.8574 12.6615C24.4972 10.5872 24.5907 8.89431 24.0665 8.87709C23.5424 8.85986 22.5974 10.5257 21.9576 12.6Z" fill="url(#paint18_linear_358_20998)"/>
<g style="mix-blend-mode:multiply" opacity="0.7">
<path d="M9.83601 23.159C7.52531 23.159 5.36226 22.3913 3.74797 20.8116C1.89252 18.9957 1.02877 16.3948 1.31423 13.484C1.59968 10.5854 2.99004 7.72621 5.23676 5.43294C10.1904 0.371518 16.4999 -0.37404 20.5799 3.61703C22.4354 5.43294 23.2991 8.03378 23.0136 10.9447C22.7282 13.8432 21.3378 16.7024 19.0911 18.9957C16.4138 21.7319 12.9883 23.159 9.83601 23.159ZM5.42132 5.61502C3.21889 7.86646 1.85068 10.6691 1.57261 13.5086C1.29454 16.3383 2.13122 18.8653 3.93007 20.6246C7.64835 24.2638 14.3664 23.4493 18.9066 18.8136C21.109 16.5622 22.4772 13.7596 22.7553 10.92C23.0333 8.09037 22.1967 5.56335 20.3978 3.80403C16.4285 -0.0812302 10.2691 0.664327 5.42132 5.61502Z" fill="#9B470D"/>
</g>
<path style="mix-blend-mode:overlay" opacity="0.4" d="M12.6434 0.329184C8.53881 4.5171 4.43172 8.70502 0.324629 12.8929C0.157294 13.7172 -0.0125016 15.0952 0.307404 16.7487C0.595318 18.2324 1.16377 19.352 1.58456 20.0409L6.52587 14.7704C6.41759 14.4087 6.27487 13.8107 6.27241 13.0701C6.26994 12.5878 6.32408 11.7537 7.30841 9.25619C7.5225 8.71486 7.83502 7.95208 8.25336 7.04412C8.8095 8.33347 9.36564 9.62035 9.92179 10.9097C10.1802 10.6218 10.4804 10.3167 10.8249 10.0091C11.2875 9.59575 11.7379 9.26111 12.1488 8.99044C14.7228 6.48065 17.2968 3.96839 19.8733 1.45859C19.733 1.37985 19.5362 1.27159 19.2925 1.15348C18.9923 1.00831 17.7841 0.442371 16.0689 0.22584C14.6761 0.051138 13.49 0.174167 12.6434 0.334105V0.329184Z" fill="url(#paint19_linear_358_20998)"/>
<path style="mix-blend-mode:overlay" opacity="0.4" d="M19.893 19.5835C24.384 14.997 25.5406 8.62903 23.0059 4.29102L4.66797 23.021C9.06051 25.4643 15.4045 24.1701 19.893 19.5835Z" fill="url(#paint20_linear_358_20998)"/>
<path style="mix-blend-mode:overlay" opacity="0.5" d="M18.9211 18.8849C17.1567 20.3342 16.0444 21.8598 16.4381 22.2904C16.8318 22.721 18.579 21.8967 20.3434 20.4474C22.1078 18.9981 23.2201 17.4726 22.8264 17.042C22.4326 16.6114 20.6855 17.4357 18.9211 18.8849Z" fill="url(#paint21_radial_358_20998)"/>
<defs>
<linearGradient id="paint0_linear_358_20998" x1="6.22818" y1="8.60892" x2="12.7607" y2="20.6712" gradientUnits="userSpaceOnUse">
<stop offset="0.04" stop-color="#AB3D05"/>
<stop offset="0.43" stop-color="#BA7C00"/>
<stop offset="1" stop-color="#E4B405"/>
</linearGradient>
<linearGradient id="paint1_linear_358_20998" x1="12.9659" y1="7.45778" x2="16.6098" y2="16.5671" gradientUnits="userSpaceOnUse">
<stop offset="0.04" stop-color="#AB3D05"/>
<stop offset="0.43" stop-color="#BA7C00"/>
<stop offset="1" stop-color="#E4B405"/>
</linearGradient>
<linearGradient id="paint2_linear_358_20998" x1="22.6121" y1="21.833" x2="7.27775" y2="6.82033" gradientUnits="userSpaceOnUse">
<stop stop-color="#63F23B"/>
<stop offset="1" stop-color="#339911"/>
</linearGradient>
<radialGradient id="paint3_radial_358_20998" cx="0" cy="0" r="1" gradientUnits="userSpaceOnUse" gradientTransform="translate(14.2516 13.8645) rotate(47.6474) scale(13.7159 10.8356)">
<stop stop-color="#F67805"/>
<stop offset="0.1" stop-color="#F67905"/>
<stop offset="0.13" stop-color="#F68005"/>
<stop offset="0.15" stop-color="#F68C05"/>
<stop offset="0.17" stop-color="#F69F05"/>
<stop offset="0.3" stop-color="#F6A105"/>
<stop offset="0.4" stop-color="#F6A205"/>
<stop offset="0.44" stop-color="#F6A905"/>
<stop offset="0.47" stop-color="#F7B811"/>
<stop offset="0.48" stop-color="#F6C73B"/>
<stop offset="0.5" stop-color="#F5D560"/>
<stop offset="0.51" stop-color="#F4E07D"/>
<stop offset="0.53" stop-color="#F3E994"/>
<stop offset="0.54" stop-color="#F3EFA5"/>
<stop offset="0.56" stop-color="#F3F2AE"/>
<stop offset="0.59" stop-color="#F3F4B2"/>
<stop offset="0.61" stop-color="#F3E694"/>
<stop offset="0.67" stop-color="#F4C249"/>
<stop offset="0.72" stop-color="#F6A205"/>
<stop offset="0.86" stop-color="#E58F05"/>
<stop offset="0.87" stop-color="#E38D04"/>
<stop offset="0.97" stop-color="#C27400"/>
</radialGradient>
<radialGradient id="paint4_radial_358_20998" cx="0" cy="0" r="1" gradientUnits="userSpaceOnUse" gradientTransform="translate(16.6256 16.1357) rotate(44.4574) scale(10.8812 10.8812)">
<stop stop-color="#C1F471"/>
<stop offset="0.11" stop-color="#BFF46F"/>
<stop offset="0.15" stop-color="#B8F46C"/>
<stop offset="0.17" stop-color="#ACF465"/>
<stop offset="0.18" stop-color="#A3F360"/>
<stop offset="0.19" stop-color="#8CF352"/>
<stop offset="0.21" stop-color="#79F248"/>
<stop offset="0.22" stop-color="#6CF240"/>
<stop offset="0.25" stop-color="#65F23C"/>
<stop offset="0.3" stop-color="#63F23B"/>
<stop offset="0.36" stop-color="#64F23C"/>
<stop offset="0.38" stop-color="#6BF23F"/>
<stop offset="0.4" stop-color="#77F246"/>
<stop offset="0.41" stop-color="#88F350"/>
<stop offset="0.42" stop-color="#9EF35C"/>
<stop offset="0.43" stop-color="#ACF465"/>
<stop offset="0.45" stop-color="#C3F47E"/>
<stop offset="0.48" stop-color="#D8F495"/>
<stop offset="0.51" stop-color="#E7F4A5"/>
<stop offset="0.54" stop-color="#F0F4AE"/>
<stop offset="0.59" stop-color="#EEF4AC"/>
<stop offset="0.6" stop-color="#DDF496"/>
<stop offset="0.62" stop-color="#D0F485"/>
<stop offset="0.64" stop-color="#C7F479"/>
<stop offset="0.67" stop-color="#C2F472"/>
<stop offset="0.75" stop-color="#C1F471"/>
<stop offset="0.76" stop-color="#C1F471"/>
<stop offset="0.83" stop-color="#C1F471"/>
<stop offset="0.84" stop-color="#A3F35F"/>
<stop offset="0.85" stop-color="#7CF249"/>
<stop offset="0.86" stop-color="#70F242"/>
<stop offset="0.87" stop-color="#69F23F"/>
<stop offset="0.91" stop-color="#68F23E"/>
</radialGradient>
<radialGradient id="paint5_radial_358_20998" cx="0" cy="0" r="1" gradientUnits="userSpaceOnUse" gradientTransform="translate(16.6255 16.1355) rotate(44.4574) scale(10.8812 10.8812)">
<stop stop-color="#C1F471"/>
<stop offset="0.11" stop-color="#BFF46F"/>
<stop offset="0.15" stop-color="#B8F46C"/>
<stop offset="0.17" stop-color="#ACF465"/>
<stop offset="0.18" stop-color="#A3F360"/>
<stop offset="0.19" stop-color="#8CF352"/>
<stop offset="0.21" stop-color="#79F248"/>
<stop offset="0.22" stop-color="#6CF240"/>
<stop offset="0.25" stop-color="#65F23C"/>
<stop offset="0.3" stop-color="#63F23B"/>
<stop offset="0.36" stop-color="#64F23C"/>
<stop offset="0.38" stop-color="#6BF23F"/>
<stop offset="0.4" stop-color="#77F246"/>
<stop offset="0.41" stop-color="#88F350"/>
<stop offset="0.42" stop-color="#9EF35C"/>
<stop offset="0.43" stop-color="#ACF465"/>
<stop offset="0.45" stop-color="#C3F47E"/>
<stop offset="0.48" stop-color="#D8F495"/>
<stop offset="0.51" stop-color="#E7F4A5"/>
<stop offset="0.54" stop-color="#F0F4AE"/>
<stop offset="0.59" stop-color="#EEF4AC"/>
<stop offset="0.6" stop-color="#DDF496"/>
<stop offset="0.62" stop-color="#D0F485"/>
<stop offset="0.64" stop-color="#C7F479"/>
<stop offset="0.67" stop-color="#C2F472"/>
<stop offset="0.75" stop-color="#C1F471"/>
<stop offset="0.76" stop-color="#C1F471"/>
<stop offset="0.83" stop-color="#C1F471"/>
<stop offset="0.84" stop-color="#A3F35F"/>
<stop offset="0.85" stop-color="#7CF249"/>
<stop offset="0.86" stop-color="#70F242"/>
<stop offset="0.87" stop-color="#69F23F"/>
<stop offset="0.91" stop-color="#68F23E"/>
</radialGradient>
<linearGradient id="paint6_linear_358_20998" x1="2.69701" y1="19.9642" x2="13.4293" y2="30.497" gradientUnits="userSpaceOnUse">
<stop stop-color="#0E6033"/>
<stop offset="1" stop-color="#339911"/>
</linearGradient>
<radialGradient id="paint7_radial_358_20998" cx="0" cy="0" r="1" gradientUnits="userSpaceOnUse" gradientTransform="translate(-87.5117 -86.0473) rotate(44.4574) scale(10.8812 10.8812)">
<stop stop-color="#C1F471"/>
<stop offset="0.11" stop-color="#BFF46F"/>
<stop offset="0.15" stop-color="#B8F46C"/>
<stop offset="0.17" stop-color="#ACF465"/>
<stop offset="0.18" stop-color="#A3F360"/>
<stop offset="0.19" stop-color="#8CF352"/>
<stop offset="0.21" stop-color="#79F248"/>
<stop offset="0.22" stop-color="#6CF240"/>
<stop offset="0.25" stop-color="#65F23C"/>
<stop offset="0.3" stop-color="#63F23B"/>
<stop offset="0.36" stop-color="#64F23C"/>
<stop offset="0.38" stop-color="#6BF23F"/>
<stop offset="0.4" stop-color="#77F246"/>
<stop offset="0.41" stop-color="#88F350"/>
<stop offset="0.42" stop-color="#9EF35C"/>
<stop offset="0.43" stop-color="#ACF465"/>
<stop offset="0.45" stop-color="#C3F47E"/>
<stop offset="0.48" stop-color="#D8F495"/>
<stop offset="0.51" stop-color="#E7F4A5"/>
<stop offset="0.54" stop-color="#F0F4AE"/>
<stop offset="0.59" stop-color="#EEF4AC"/>
<stop offset="0.6" stop-color="#DDF496"/>
<stop offset="0.62" stop-color="#D0F485"/>
<stop offset="0.64" stop-color="#C7F479"/>
<stop offset="0.67" stop-color="#C2F472"/>
<stop offset="0.75" stop-color="#C1F471"/>
<stop offset="0.76" stop-color="#C1F471"/>
<stop offset="0.83" stop-color="#C1F471"/>
<stop offset="0.84" stop-color="#A3F35F"/>
<stop offset="0.85" stop-color="#7CF249"/>
<stop offset="0.86" stop-color="#70F242"/>
<stop offset="0.87" stop-color="#69F23F"/>
<stop offset="0.91" stop-color="#68F23E"/>
</radialGradient>
<linearGradient id="paint8_linear_358_20998" x1="2.34555" y1="20.3232" x2="13.0778" y2="30.856" gradientUnits="userSpaceOnUse">
<stop stop-color="#0E6033"/>
<stop offset="1" stop-color="#339911"/>
</linearGradient>
<linearGradient id="paint9_linear_358_20998" x1="19.7246" y1="19.6717" x2="4.39021" y2="4.6591" gradientUnits="userSpaceOnUse">
<stop stop-color="#63F23B"/>
<stop offset="1" stop-color="#339911"/>
</linearGradient>
<linearGradient id="paint10_linear_358_20998" x1="19.8797" y1="19.7179" x2="4.54536" y2="4.70529" gradientUnits="userSpaceOnUse">
<stop stop-color="white"/>
<stop offset="1" stop-color="white" stop-opacity="0"/>
</linearGradient>
<linearGradient id="paint11_linear_358_20998" x1="4.59145" y1="4.76894" x2="19.8996" y2="19.8083" gradientUnits="userSpaceOnUse">
<stop stop-color="#63F23B"/>
<stop offset="1" stop-color="#339911"/>
</linearGradient>
<linearGradient id="paint12_linear_358_20998" x1="4.43522" y1="4.61548" x2="19.7433" y2="19.6548" gradientUnits="userSpaceOnUse">
<stop stop-color="#63F23B"/>
<stop offset="1" stop-color="#339911"/>
</linearGradient>
<linearGradient id="paint13_linear_358_20998" x1="19.7246" y1="19.6717" x2="4.39021" y2="4.6591" gradientUnits="userSpaceOnUse">
<stop stop-color="#FFDD02"/>
<stop offset="1" stop-color="#F59905"/>
</linearGradient>
<linearGradient id="paint14_linear_358_20998" x1="4.59145" y1="4.76894" x2="19.8996" y2="19.8083" gradientUnits="userSpaceOnUse">
<stop stop-color="#63F23B"/>
<stop offset="1" stop-color="#339911"/>
</linearGradient>
<linearGradient id="paint15_linear_358_20998" x1="4.43522" y1="4.61548" x2="19.7433" y2="19.6548" gradientUnits="userSpaceOnUse">
<stop stop-color="#63F23B"/>
<stop offset="1" stop-color="#339911"/>
</linearGradient>
<linearGradient id="paint16_linear_358_20998" x1="22.5927" y1="16.0551" x2="1.73288" y2="8.37188" gradientUnits="userSpaceOnUse">
<stop stop-color="#FFDD02"/>
<stop offset="1" stop-color="#F59905"/>
</linearGradient>
<linearGradient id="paint17_linear_358_20998" x1="19.8804" y1="19.7587" x2="4.54601" y2="4.74602" gradientUnits="userSpaceOnUse">
<stop stop-color="white" stop-opacity="0"/>
<stop offset="0.48" stop-color="white"/>
<stop offset="1" stop-color="white" stop-opacity="0"/>
</linearGradient>
<linearGradient id="paint18_linear_358_20998" x1="46.7214" y1="14.6518" x2="44.6647" y2="14.352" gradientUnits="userSpaceOnUse">
<stop stop-color="#63F23B"/>
<stop offset="1" stop-color="#339911"/>
</linearGradient>
<linearGradient id="paint19_linear_358_20998" x1="5.9249" y1="6.04857" x2="13.8198" y2="13.7778" gradientUnits="userSpaceOnUse">
<stop stop-color="white"/>
<stop offset="1" stop-color="white" stop-opacity="0"/>
</linearGradient>
<linearGradient id="paint20_linear_358_20998" x1="11.0996" y1="11.0624" x2="24.9104" y2="24.1771" gradientUnits="userSpaceOnUse">
<stop stop-color="white"/>
<stop offset="1" stop-color="white" stop-opacity="0"/>
</linearGradient>
<radialGradient id="paint21_radial_358_20998" cx="0" cy="0" r="1" gradientUnits="userSpaceOnUse" gradientTransform="translate(23.2914 25.8879) rotate(-132.343) scale(1.01725 4.14728)">
<stop stop-color="white"/>
<stop offset="0.09" stop-color="white" stop-opacity="0.96"/>
<stop offset="0.24" stop-color="white" stop-opacity="0.85"/>
<stop offset="0.43" stop-color="white" stop-opacity="0.66"/>
<stop offset="0.66" stop-color="white" stop-opacity="0.41"/>
<stop offset="0.93" stop-color="white" stop-opacity="0.09"/>
<stop offset="1" stop-color="white" stop-opacity="0"/>
</radialGradient>
</defs>
</svg>
