<svg width="110" height="110" viewBox="0 0 110 110" fill="none" xmlns="http://www.w3.org/2000/svg">
<g filter="url(#filter0_d_400_8826)">
<path d="M95 57C95 79.0914 77.0914 97 55 97C32.9086 97 15 79.0914 15 57C15 34.9086 32.9086 17 55 17C77.0914 17 95 34.9086 95 57Z" fill="#0052B5"/>
<path d="M45 39V18.2602C46.6288 17.8409 48.2978 17.5217 50 17.3095C51.638 17.1052 53.3067 17 55 17C56.6933 17 58.362 17.1052 60 17.3095C61.7022 17.5217 63.3712 17.8409 65 18.2602V44.5L82 27.487C83.8325 29.1644 86.5054 32.5102 88 34.5L75 47H93.7398C94.159 48.6288 94.4783 50.2978 94.6905 52C94.8948 53.638 95 55.3067 95 57C95 58.6933 94.8948 60.362 94.6905 62C94.4783 63.7022 94.159 65.3712 93.7398 67H72L87.0029 81C84.8528 83.8626 82.3274 86.4273 79.5 88.6212L65 74V95.7398C63.3712 96.159 61.7022 96.4783 60 96.6905C58.362 96.8948 56.6933 97 55 97C53.3067 97 51.638 96.8948 50 96.6905C48.2978 96.4783 46.6288 96.159 45 95.7398L45 70L28.5 86.9631C26.2623 84.9825 24.2481 82.7552 22.5 80.3236L37 67H16.2602C15.8409 65.3712 15.5217 63.7022 15.3095 62C15.1052 60.362 15 58.6933 15 57C15 55.3067 15.1052 53.638 15.3095 52C15.5217 50.2978 15.8409 48.6288 16.2602 47H37.5L23 32.9961C25.2193 30.0422 27.8381 27.4056 30.7761 25.1664L45 39Z" fill="white"/>
<path d="M45 47L26.7449 28.6866C25.7796 29.6499 24.8633 30.6622 24 31.7196L40 47H45Z" fill="#D90026"/>
<path d="M65 47L83.2551 28.6866C84.2204 29.6499 85.1367 30.6622 86 31.7196L70 47H65Z" fill="#D90026"/>
<path d="M65 67.3433L83.2551 85.6567C84.2204 84.6934 85.1367 83.6811 86 82.6237L70 67.3433H65Z" fill="#D90026"/>
<path d="M45 67.3433L26.7449 85.6567C25.7796 84.6934 24.8633 83.6811 24 82.6237L40 67.3433H45Z" fill="#D90026"/>
<path d="M15.3095 52C15.1052 53.638 15 55.3067 15 57C15 58.6933 15.1052 60.362 15.3095 62H50V96.6905C51.638 96.8948 53.3067 97 55 97C56.6933 97 58.362 96.8948 60 96.6905V62H94.6905C94.8948 60.362 95 58.6933 95 57C95 55.3067 94.8948 53.638 94.6905 52H60V17.3095C58.0428 17.0151 57.0392 17 55 17C53.3067 17 51.638 17.1052 50 17.3095V52H15.3095Z" fill="#D90026"/>
</g>
<defs>
<filter id="filter0_d_400_8826" x="0" y="0" width="110" height="110" filterUnits="userSpaceOnUse" color-interpolation-filters="sRGB">
<feFlood flood-opacity="0" result="BackgroundImageFix"/>
<feColorMatrix in="SourceAlpha" type="matrix" values="0 0 0 0 0 0 0 0 0 0 0 0 0 0 0 0 0 0 127 0" result="hardAlpha"/>
<feOffset dy="-2"/>
<feGaussianBlur stdDeviation="7.5"/>
<feComposite in2="hardAlpha" operator="out"/>
<feColorMatrix type="matrix" values="0 0 0 0 0 0 0 0 0 0 0 0 0 0 0 0 0 0 0.25 0"/>
<feBlend mode="normal" in2="BackgroundImageFix" result="effect1_dropShadow_400_8826"/>
<feBlend mode="normal" in="SourceGraphic" in2="effect1_dropShadow_400_8826" result="shape"/>
</filter>
</defs>
</svg>
