<svg width="16" height="18" viewBox="0 0 16 18" fill="none" xmlns="http://www.w3.org/2000/svg">
<path d="M10.418 4.8C10.418 7.45097 8.32166 9.6 5.7357 9.6C3.14975 9.6 1.05342 7.45097 1.05342 4.8C1.05342 2.14903 3.14975 0 5.7357 0C8.32166 0 10.418 2.14903 10.418 4.8Z" fill="#C1C1C1"/>
<path d="M12.5999 16.5753C12.6246 16.702 12.729 16.8 12.8549 16.8H14.9448C15.6489 16.8 16.1787 16.1653 15.9433 15.485C15.4516 14.0639 14.2751 12 11.5886 12C11.4415 12 11.299 12.0062 11.1609 12.0181C10.7212 12.0561 10.6086 12.6104 10.9038 12.9466C11.9628 14.153 12.4077 15.5902 12.5999 16.5753Z" fill="#C1C1C1"/>
<path d="M11.0356 15.3998C11.3208 16.0991 10.7595 16.8 10.0202 16.8H8.23227C7.52818 16.8 6.9984 16.1653 7.23377 15.4851C7.45629 14.8419 7.81908 14.0671 8.39864 13.4115C8.72457 13.0428 9.27311 13.0162 9.63674 13.3457C10.3066 13.9528 10.7466 14.6915 11.0356 15.3998Z" fill="#C1C1C1"/>
<path d="M5.7357 12C9.91644 12 11.1108 15.0614 11.4521 16.8107C11.5789 17.4605 11.0645 18 10.418 18H1.05342C0.406928 18 -0.10745 17.4605 0.0193234 16.8107C0.360556 15.0614 1.55496 12 5.7357 12Z" fill="#C1C1C1"/>
<path d="M9.81172 9.10584C10.9076 8.01544 11.5886 6.48924 11.5886 4.8C11.5886 3.9592 11.4199 3.1588 11.1153 2.43242C11.2701 2.41104 11.428 2.4 11.5886 2.4C13.528 2.4 15.1003 4.01178 15.1003 6C15.1003 7.98822 13.528 9.6 11.5886 9.6C10.9402 9.6 10.333 9.4199 9.81172 9.10584Z" fill="#C1C1C1"/>
<path d="M8.91018 8.32843C9.83731 7.45141 10.418 6.19522 10.418 4.8C10.418 4.08368 10.2649 3.40402 9.99051 2.79349C8.85444 3.3897 8.07684 4.60176 8.07684 6C8.07684 6.88789 8.3904 7.70071 8.91018 8.32843Z" fill="#C1C1C1"/>
</svg>
