<svg width="19" height="19" viewBox="0 0 19 19" fill="none" xmlns="http://www.w3.org/2000/svg">
<g clip-path="url(#clip0_340_13511)">
<path d="M7.22822 7.44576C7.2438 7.41286 7.26112 7.37996 7.2767 7.34707C7.26978 7.44057 7.19878 7.5081 7.12085 7.51156C7.06371 7.51156 7.01002 7.47866 6.97885 7.42325C6.97885 7.3817 6.97539 7.33841 6.97193 7.29685C6.9269 6.7393 6.70525 5.89259 5.80651 4.9541C5.6697 5.20864 5.54329 5.45105 5.43246 5.68307C3.46701 9.73657 4.59606 11.0993 5.63507 11.5547C5.79265 11.8992 6.05414 12.2507 6.4784 12.4914C5.98314 11.6516 5.91733 10.1469 7.22822 7.44749V7.44576Z" fill="url(#paint0_linear_340_13511)"/>
<path d="M8.77644 9.43702C9.26997 8.83965 10.025 8.23188 11.1575 7.67779C11.4086 7.14102 11.6458 6.51941 11.8606 5.80082L11.864 5.79736C11.9489 5.52032 12.032 5.22596 12.1065 4.91602C11.8 4.99913 11.5073 5.08744 11.2302 5.17401L11.2268 5.17748C10.6969 5.25366 9.88299 5.4372 9.00502 5.92376C7.97294 6.49516 7.32703 7.2224 6.98242 7.67433C7.38417 8.46217 7.78592 9.25002 8.18767 10.0361C8.38508 9.837 8.58076 9.63615 8.77817 9.43702H8.77644Z" fill="url(#paint1_linear_340_13511)"/>
<path d="M7.67314 6.98518C7.62985 6.85012 7.60388 6.75489 7.60215 6.7168C7.48439 6.93497 7.37703 7.14448 7.27832 7.34707C7.39781 7.22586 7.52941 7.10639 7.67314 6.98518Z" fill="url(#paint2_linear_340_13511)"/>
<path d="M5.93782 18.29C6.19411 18.4078 6.45905 18.5168 6.73785 18.5982C6.78634 18.6121 6.83656 18.6242 6.88505 18.6381C7.58118 18.8251 8.33793 18.9064 9.14835 18.851C13.604 18.548 17.8933 14.4634 18.7297 9.72764C19.0743 7.77275 18.7678 6.02218 17.9869 4.65082L15.4188 2.06738C16.5894 3.52013 17.1141 5.58411 16.6985 7.93898C15.8621 12.6747 11.571 16.7611 7.11709 17.0624C5.28151 17.187 3.70395 16.6485 2.54199 15.6425L4.62001 17.4433C4.75854 17.5628 4.904 17.6753 5.05466 17.7827C5.23822 17.9108 5.42697 18.0303 5.62612 18.1376C5.72828 18.1931 5.83392 18.2433 5.93955 18.2918L5.93782 18.29Z" fill="url(#paint3_radial_340_13511)"/>
<path d="M18.8596 9.85924C19.1973 7.94417 18.9081 6.2265 18.1635 4.86553L18.0284 4.73047C18.7765 6.09145 19.0674 7.81258 18.728 9.73111C17.8916 14.4686 13.6022 18.5532 9.14663 18.8545C8.31889 18.9099 7.54656 18.8251 6.8383 18.6311C6.78981 18.6173 6.73959 18.6069 6.69111 18.5913C6.41231 18.5065 6.14736 18.4026 5.89107 18.2831C5.78544 18.2346 5.68154 18.1827 5.57764 18.129C5.37849 18.0216 5.18801 17.9039 5.00618 17.774C4.94557 17.7307 4.87457 17.7013 4.81396 17.6563C5.9638 18.6017 7.4998 19.1038 9.27824 18.9844C13.7339 18.6831 18.0232 14.5967 18.8596 9.86097V9.85924Z" fill="#FB9503"/>
<path d="M18.73 9.76557C17.8935 14.5013 13.6024 18.5877 9.14856 18.889C8.33813 18.9444 7.58139 18.863 6.88525 18.676C7.59351 18.8716 8.36584 18.9565 9.19358 18.8994C13.6492 18.5981 17.9386 14.5117 18.775 9.77596C19.1144 7.85743 18.8235 6.1363 18.0754 4.77532L17.9871 4.68701C18.768 6.05838 19.0746 7.81068 18.73 9.76384V9.76557Z" fill="url(#paint4_radial_340_13511)"/>
<path d="M18.73 9.76557C17.8935 14.5013 13.6024 18.5877 9.14856 18.889C8.33813 18.9444 7.58139 18.863 6.88525 18.676C7.59351 18.8716 8.36584 18.9565 9.19358 18.8994C13.6492 18.5981 17.9386 14.5117 18.775 9.77596C19.1144 7.85743 18.8235 6.1363 18.0754 4.77532L17.9871 4.68701C18.768 6.05838 19.0746 7.81068 18.73 9.76384V9.76557Z" fill="#FB9503"/>
<path d="M6.73802 18.6383C6.45922 18.5552 6.19428 18.4478 5.93799 18.3301C6.19428 18.4496 6.45922 18.5534 6.73802 18.6383Z" fill="url(#paint5_radial_340_13511)"/>
<path d="M6.73802 18.6383C6.45922 18.5552 6.19428 18.4478 5.93799 18.3301C6.19428 18.4496 6.45922 18.5534 6.73802 18.6383Z" fill="url(#paint6_linear_340_13511)"/>
<path d="M5.05273 17.8208C5.23456 17.9507 5.42678 18.0667 5.62419 18.1758C5.42505 18.0684 5.23456 17.9489 5.05273 17.8208Z" fill="url(#paint7_radial_340_13511)"/>
<path d="M5.05273 17.8208C5.23456 17.9507 5.42678 18.0667 5.62419 18.1758C5.42505 18.0684 5.23456 17.9489 5.05273 17.8208Z" fill="url(#paint8_linear_340_13511)"/>
<path d="M15.0775 1.82873C15.0965 1.84605 15.1121 1.86682 15.1312 1.88414C12.1388 -0.971141 6.82604 -0.316625 3.21722 3.36806C-0.38987 7.05274 -0.930155 12.3789 1.98773 15.3069C1.96868 15.2896 1.94963 15.2723 1.93058 15.255C-1.04964 12.3391 -0.521478 6.96789 3.10812 3.2607C6.73773 -0.44649 12.0973 -1.08715 15.0775 1.82873Z" fill="url(#paint9_linear_340_13511)"/>
<path style="mix-blend-mode:overlay" opacity="0.4" d="M13.9 13.7484C17.5071 10.0637 18.0491 4.73758 15.1295 1.80957C15.1486 1.82689 15.1676 1.8442 15.1867 1.86152C18.1669 4.77913 17.6405 10.1486 14.0109 13.8558C10.3813 17.563 5.0217 18.2036 2.04148 15.2877C2.02243 15.2704 2.00684 15.2497 1.98779 15.2323C4.97841 18.0876 10.2929 17.4331 13.9 13.7484Z" fill="url(#paint10_linear_340_13511)"/>
<path d="M15.1296 1.88373C12.139 -0.97155 6.82615 -0.317035 3.21733 3.36765C-0.389759 7.05233 -0.930043 12.3785 1.98784 15.3065C4.97845 18.1618 10.293 17.5073 13.9001 13.8226C17.5072 10.1379 18.0492 4.81174 15.1296 1.88373ZM11.5363 11.6305C7.55519 13.6235 6.17504 12.517 5.6971 11.4902C4.66155 11.0314 3.53077 9.67039 5.45639 5.65845C5.56549 5.42816 5.68844 5.18921 5.82178 4.93814C5.82697 5.11821 6.41055 6.67312 6.95257 7.54927C6.96815 7.57178 6.98893 7.60814 7.00625 7.64797C7.72143 6.78221 8.99422 5.89221 11.2073 5.19613L11.2108 5.19267C11.4861 5.10783 11.777 5.02298 12.0801 4.94333C12.0073 5.24981 11.9277 5.54244 11.8463 5.81775L11.8428 5.82121C11.1813 8.07046 10.3034 9.35871 9.43926 10.086C9.51718 10.1154 9.58299 10.1448 9.61762 10.1673C10.5025 10.6937 12.068 11.2495 12.2498 11.2547C12.0004 11.3933 11.7614 11.5179 11.5329 11.6305H11.5346H11.5363Z" fill="url(#paint11_linear_340_13511)"/>
<path d="M15.1296 1.88373C12.139 -0.97155 6.82615 -0.317035 3.21733 3.36765C-0.389759 7.05233 -0.930043 12.3785 1.98784 15.3065C4.97845 18.1618 10.293 17.5073 13.9001 13.8226C17.5072 10.1379 18.0492 4.81174 15.1296 1.88373ZM11.5363 11.6305C7.55519 13.6235 6.17504 12.517 5.6971 11.4902C4.66155 11.0314 3.53077 9.67039 5.45639 5.65845C5.56549 5.42816 5.68844 5.18921 5.82178 4.93814C5.82697 5.11821 6.41055 6.67312 6.95257 7.54927C6.96815 7.57178 6.98893 7.60814 7.00625 7.64797C7.72143 6.78221 8.99422 5.89221 11.2073 5.19613L11.2108 5.19267C11.4861 5.10783 11.777 5.02298 12.0801 4.94333C12.0073 5.24981 11.9277 5.54244 11.8463 5.81775L11.8428 5.82121C11.1813 8.07046 10.3034 9.35871 9.43926 10.086C9.51718 10.1154 9.58299 10.1448 9.61762 10.1673C10.5025 10.6937 12.068 11.2495 12.2498 11.2547C12.0004 11.3933 11.7614 11.5179 11.5329 11.6305H11.5346H11.5363Z" fill="url(#paint12_linear_340_13511)"/>
<path d="M15.0775 1.82873C15.0965 1.84605 15.1121 1.86682 15.1312 1.88414C12.1388 -0.971141 6.82604 -0.316625 3.21722 3.36806C-0.38987 7.05274 -0.930155 12.3789 1.98773 15.3069C1.96868 15.2896 1.94963 15.2723 1.93058 15.255C-1.04964 12.3391 -0.521478 6.96789 3.10812 3.2607C6.73773 -0.44649 12.0973 -1.08715 15.0775 1.82873Z" fill="url(#paint13_linear_340_13511)"/>
<path d="M15.1296 1.88373C12.139 -0.97155 6.82615 -0.317035 3.21733 3.36765C-0.389759 7.05233 -0.930043 12.3785 1.98784 15.3065C4.97845 18.1618 10.293 17.5073 13.9001 13.8226C17.5072 10.1379 18.0492 4.81174 15.1296 1.88373ZM11.5363 11.6305C7.55519 13.6235 6.17504 12.517 5.6971 11.4902C4.66155 11.0314 3.53077 9.67039 5.45639 5.65845C5.56549 5.42816 5.68844 5.18921 5.82178 4.93814C5.82697 5.11821 6.41055 6.67312 6.95257 7.54927C6.96815 7.57178 6.98893 7.60814 7.00625 7.64797C7.72143 6.78221 8.99422 5.89221 11.2073 5.19613L11.2108 5.19267C11.4861 5.10783 11.777 5.02298 12.0801 4.94333C12.0073 5.24981 11.9277 5.54244 11.8463 5.81775L11.8428 5.82121C11.1813 8.07046 10.3034 9.35871 9.43926 10.086C9.51718 10.1154 9.58299 10.1448 9.61762 10.1673C10.5025 10.6937 12.068 11.2495 12.2498 11.2547C12.0004 11.3933 11.7614 11.5179 11.5329 11.6305H11.5346H11.5363Z" fill="url(#paint14_linear_340_13511)"/>
<path d="M15.1296 1.88373C12.139 -0.97155 6.82615 -0.317035 3.21733 3.36765C-0.389759 7.05233 -0.930043 12.3785 1.98784 15.3065C4.97845 18.1618 10.293 17.5073 13.9001 13.8226C17.5072 10.1379 18.0492 4.81174 15.1296 1.88373ZM11.5363 11.6305C7.55519 13.6235 6.17504 12.517 5.6971 11.4902C4.66155 11.0314 3.53077 9.67039 5.45639 5.65845C5.56549 5.42816 5.68844 5.18921 5.82178 4.93814C5.82697 5.11821 6.41055 6.67312 6.95257 7.54927C6.96815 7.57178 6.98893 7.60814 7.00625 7.64797C7.72143 6.78221 8.99422 5.89221 11.2073 5.19613L11.2108 5.19267C11.4861 5.10783 11.777 5.02298 12.0801 4.94333C12.0073 5.24981 11.9277 5.54244 11.8463 5.81775L11.8428 5.82121C11.1813 8.07046 10.3034 9.35871 9.43926 10.086C9.51718 10.1154 9.58299 10.1448 9.61762 10.1673C10.5025 10.6937 12.068 11.2495 12.2498 11.2547C12.0004 11.3933 11.7614 11.5179 11.5329 11.6305H11.5346H11.5363Z" fill="url(#paint15_linear_340_13511)"/>
<path d="M15.1296 1.88373C12.139 -0.97155 6.82615 -0.317035 3.21733 3.36765C-0.389759 7.05233 -0.930043 12.3785 1.98784 15.3065C4.97845 18.1618 10.293 17.5073 13.9001 13.8226C17.5072 10.1379 18.0492 4.81174 15.1296 1.88373ZM11.5363 11.6305C7.55519 13.6235 6.17504 12.517 5.6971 11.4902C4.66155 11.0314 3.53077 9.67039 5.45639 5.65845C5.56549 5.42816 5.68844 5.18921 5.82178 4.93814C5.82697 5.11821 6.41055 6.67312 6.95257 7.54927C6.96815 7.57178 6.98893 7.60814 7.00625 7.64797C7.72143 6.78221 8.99422 5.89221 11.2073 5.19613L11.2108 5.19267C11.4861 5.10783 11.777 5.02298 12.0801 4.94333C12.0073 5.24981 11.9277 5.54244 11.8463 5.81775L11.8428 5.82121C11.1813 8.07046 10.3034 9.35871 9.43926 10.086C9.51718 10.1154 9.58299 10.1448 9.61762 10.1673C10.5025 10.6937 12.068 11.2495 12.2498 11.2547C12.0004 11.3933 11.7614 11.5179 11.5329 11.6305H11.5346H11.5363Z" fill="url(#paint16_linear_340_13511)"/>
<path d="M6.6635 17.1595C4.87121 17.1595 3.19148 16.5759 1.92909 15.3708C-1.01477 12.4151 -0.464094 7.00581 3.15685 3.30727C6.77606 -0.389528 12.1754 -1.05616 15.1903 1.82163C18.1324 4.7756 17.5818 10.1866 13.9608 13.8834C11.8568 16.0322 9.1502 17.1577 6.66177 17.1577L6.6635 17.1595ZM10.4542 0.204385C8.01075 0.204385 5.35089 1.31256 3.2798 3.42848C-0.273609 7.05948 -0.826015 12.3597 2.05031 15.2461C4.9959 18.0564 10.2844 17.3932 13.8396 13.7622C17.393 10.1329 17.9454 4.83101 15.0708 1.9463C13.8413 0.772324 12.2049 0.204385 10.4559 0.204385H10.4542ZM7.8601 12.8237C7.49471 12.8237 7.16569 12.7735 6.87304 12.6696C6.3137 12.474 5.89637 12.0999 5.63489 11.5545C5.08594 11.3017 4.70324 10.8931 4.49717 10.3355C4.09889 9.25505 4.39673 7.66898 5.38033 5.61886C5.48077 5.40588 5.60198 5.16866 5.74745 4.89508L5.89983 4.61111L5.91022 4.93317C5.91542 5.0717 6.47821 6.60929 7.02369 7.49236C7.87568 6.51405 9.26795 5.71582 11.1607 5.11671L11.1849 5.10633C11.417 5.03533 11.7269 4.94183 12.0577 4.85526L12.1962 4.81889L12.1633 4.95915C12.0992 5.23273 12.0213 5.52016 11.9278 5.83703L11.9192 5.86127C11.3529 7.77633 10.5736 9.18579 9.60044 10.055C9.62641 10.0671 9.64719 10.0793 9.66451 10.0896C10.5702 10.6282 12.1062 11.158 12.2516 11.1632L12.5668 11.1718L12.2915 11.326C12.0906 11.4368 11.8845 11.5476 11.6733 11.6532L11.5745 11.7069C10.0888 12.4497 8.84542 12.8237 7.85836 12.8237H7.8601ZM5.79593 5.17559C5.69723 5.36605 5.61064 5.53747 5.53618 5.69504C4.57337 7.70188 4.27725 9.24293 4.65822 10.2784C4.85043 10.7996 5.21062 11.1805 5.73186 11.4108L5.7613 11.4247L5.77515 11.4541C6.01586 11.9701 6.40375 12.325 6.92672 12.5086C7.94841 12.8653 9.44805 12.5623 11.3858 11.6082H11.3823L11.4932 11.5511C11.6681 11.4645 11.8412 11.3762 12.0092 11.2844C11.4828 11.1286 10.2827 10.6628 9.571 10.2403C9.55541 10.2299 9.51385 10.2074 9.40649 10.1641L9.26968 10.1122L9.38224 10.0187C10.3814 9.17887 11.1797 7.75902 11.7581 5.79547L11.7668 5.77123C11.8412 5.52016 11.9053 5.2864 11.9607 5.06477C11.6958 5.13749 11.4499 5.21022 11.2542 5.27082L11.2317 5.27948C9.29739 5.88897 7.89646 6.70452 7.07218 7.70361L6.98213 7.8127L6.92672 7.6811C6.9094 7.64127 6.89382 7.61184 6.88343 7.59972C6.44012 6.88633 5.95698 5.69851 5.79247 5.17732L5.79593 5.17559Z" fill="#FFE471"/>
<path style="mix-blend-mode:overlay" d="M13.9 13.7777C17.5071 10.093 18.0491 4.76687 15.1295 1.83887C15.1486 1.85618 15.1676 1.8735 15.1867 1.89081C18.1669 4.80843 17.6405 10.1779 14.0109 13.8851C10.3813 17.5923 5.0217 18.2329 2.04148 15.317C2.02243 15.2997 2.00684 15.2789 1.98779 15.2616C4.97841 18.1169 10.2929 17.4624 13.9 13.7777Z" fill="url(#paint17_linear_340_13511)"/>
<path style="mix-blend-mode:overlay" opacity="0.5" d="M15.4519 8.86696C15.0016 10.3266 14.9358 11.5179 15.3047 11.53C15.6735 11.5422 16.3385 10.3699 16.7887 8.91024C17.2389 7.45057 17.3047 6.25928 16.9359 6.24716C16.5671 6.23504 15.9021 7.40728 15.4519 8.86696Z" fill="url(#paint18_linear_340_13511)"/>
<g style="mix-blend-mode:multiply" opacity="0.7">
<path d="M6.92165 16.2969C5.29561 16.2969 3.77346 15.7567 2.63748 14.6451C1.33179 13.3672 0.723969 11.537 0.924844 9.4886C1.12572 7.44886 2.10412 5.43683 3.68514 3.82305C7.17102 0.261312 11.611 -0.26334 14.4822 2.54519C15.7879 3.82305 16.3957 5.65327 16.1948 7.70167C15.9939 9.7414 15.0155 11.7534 13.4345 13.3672C11.5504 15.2927 9.13994 16.2969 6.92165 16.2969ZM3.81502 3.95119C2.26517 5.53553 1.30235 7.50774 1.10667 9.50591C0.910991 11.4972 1.49976 13.2754 2.76562 14.5135C5.38219 17.0744 10.1097 16.5013 13.3046 13.2391C14.8545 11.6547 15.8173 9.68253 16.013 7.68435C16.2087 5.6931 15.6199 3.91482 14.354 2.67679C11.5608 -0.0572885 7.22643 0.467363 3.81502 3.95119Z" fill="#9B470D"/>
</g>
<path style="mix-blend-mode:overlay" opacity="0.4" d="M8.89725 0.232299C6.00881 3.17935 3.11864 6.1264 0.228461 9.07345C0.110707 9.65351 -0.0087793 10.6232 0.216339 11.7868C0.418946 12.8309 0.818964 13.6187 1.11508 14.1035L4.5923 10.3946C4.5161 10.1401 4.41566 9.71931 4.41393 9.19812C4.4122 8.85875 4.4503 8.27176 5.14297 6.51426C5.29363 6.13333 5.51355 5.59656 5.80794 4.95762C6.1993 5.86494 6.59066 6.77053 6.98202 7.67785C7.16384 7.47526 7.37511 7.26055 7.61754 7.04411C7.9431 6.75321 8.26 6.51773 8.54919 6.32726C10.3605 4.56111 12.1719 2.79322 13.9849 1.02707C13.8862 0.971659 13.7477 0.895472 13.5763 0.812359C13.365 0.710199 12.5147 0.311949 11.3078 0.159575C10.3276 0.036637 9.49295 0.123213 8.89725 0.235762V0.232299Z" fill="url(#paint19_linear_340_13511)"/>
<path style="mix-blend-mode:overlay" opacity="0.4" d="M13.9986 13.7814C17.1589 10.5539 17.9728 6.07269 16.1892 3.02002L3.28467 16.2004C6.37572 17.9198 10.84 17.009 13.9986 13.7814Z" fill="url(#paint20_linear_340_13511)"/>
<path style="mix-blend-mode:overlay" opacity="0.5" d="M13.3147 13.2894C12.0731 14.3093 11.2904 15.3828 11.5675 15.6858C11.8445 15.9888 13.074 15.4088 14.3156 14.3889C15.5573 13.369 16.34 12.2955 16.0629 11.9925C15.7858 11.6895 14.5563 12.2695 13.3147 13.2894Z" fill="url(#paint21_radial_340_13511)"/>
</g>
<defs>
<linearGradient id="paint0_linear_340_13511" x1="4.38306" y1="6.05881" x2="8.98003" y2="14.5471" gradientUnits="userSpaceOnUse">
<stop offset="0.04" stop-color="#AB3D05"/>
<stop offset="0.43" stop-color="#BA7C00"/>
<stop offset="1" stop-color="#E4B405"/>
</linearGradient>
<linearGradient id="paint1_linear_340_13511" x1="9.12451" y1="5.24847" x2="11.6887" y2="11.6587" gradientUnits="userSpaceOnUse">
<stop offset="0.04" stop-color="#AB3D05"/>
<stop offset="0.43" stop-color="#BA7C00"/>
<stop offset="1" stop-color="#E4B405"/>
</linearGradient>
<linearGradient id="paint2_linear_340_13511" x1="15.9123" y1="15.3646" x2="5.12145" y2="4.80018" gradientUnits="userSpaceOnUse">
<stop stop-color="#63F23B"/>
<stop offset="1" stop-color="#339911"/>
</linearGradient>
<radialGradient id="paint3_radial_340_13511" cx="0" cy="0" r="1" gradientUnits="userSpaceOnUse" gradientTransform="translate(10.0289 9.75674) rotate(47.6474) scale(9.65191 7.62507)">
<stop stop-color="#F67805"/>
<stop offset="0.1" stop-color="#F67905"/>
<stop offset="0.13" stop-color="#F68005"/>
<stop offset="0.15" stop-color="#F68C05"/>
<stop offset="0.17" stop-color="#F69F05"/>
<stop offset="0.3" stop-color="#F6A105"/>
<stop offset="0.4" stop-color="#F6A205"/>
<stop offset="0.44" stop-color="#F6A905"/>
<stop offset="0.47" stop-color="#F7B811"/>
<stop offset="0.48" stop-color="#F6C73B"/>
<stop offset="0.5" stop-color="#F5D560"/>
<stop offset="0.51" stop-color="#F4E07D"/>
<stop offset="0.53" stop-color="#F3E994"/>
<stop offset="0.54" stop-color="#F3EFA5"/>
<stop offset="0.56" stop-color="#F3F2AE"/>
<stop offset="0.59" stop-color="#F3F4B2"/>
<stop offset="0.61" stop-color="#F3E694"/>
<stop offset="0.67" stop-color="#F4C249"/>
<stop offset="0.72" stop-color="#F6A205"/>
<stop offset="0.86" stop-color="#E58F05"/>
<stop offset="0.87" stop-color="#E38D04"/>
<stop offset="0.97" stop-color="#C27400"/>
</radialGradient>
<radialGradient id="paint4_radial_340_13511" cx="0" cy="0" r="1" gradientUnits="userSpaceOnUse" gradientTransform="translate(11.6996 11.355) rotate(44.4574) scale(7.65715 7.65714)">
<stop stop-color="#C1F471"/>
<stop offset="0.11" stop-color="#BFF46F"/>
<stop offset="0.15" stop-color="#B8F46C"/>
<stop offset="0.17" stop-color="#ACF465"/>
<stop offset="0.18" stop-color="#A3F360"/>
<stop offset="0.19" stop-color="#8CF352"/>
<stop offset="0.21" stop-color="#79F248"/>
<stop offset="0.22" stop-color="#6CF240"/>
<stop offset="0.25" stop-color="#65F23C"/>
<stop offset="0.3" stop-color="#63F23B"/>
<stop offset="0.36" stop-color="#64F23C"/>
<stop offset="0.38" stop-color="#6BF23F"/>
<stop offset="0.4" stop-color="#77F246"/>
<stop offset="0.41" stop-color="#88F350"/>
<stop offset="0.42" stop-color="#9EF35C"/>
<stop offset="0.43" stop-color="#ACF465"/>
<stop offset="0.45" stop-color="#C3F47E"/>
<stop offset="0.48" stop-color="#D8F495"/>
<stop offset="0.51" stop-color="#E7F4A5"/>
<stop offset="0.54" stop-color="#F0F4AE"/>
<stop offset="0.59" stop-color="#EEF4AC"/>
<stop offset="0.6" stop-color="#DDF496"/>
<stop offset="0.62" stop-color="#D0F485"/>
<stop offset="0.64" stop-color="#C7F479"/>
<stop offset="0.67" stop-color="#C2F472"/>
<stop offset="0.75" stop-color="#C1F471"/>
<stop offset="0.76" stop-color="#C1F471"/>
<stop offset="0.83" stop-color="#C1F471"/>
<stop offset="0.84" stop-color="#A3F35F"/>
<stop offset="0.85" stop-color="#7CF249"/>
<stop offset="0.86" stop-color="#70F242"/>
<stop offset="0.87" stop-color="#69F23F"/>
<stop offset="0.91" stop-color="#68F23E"/>
</radialGradient>
<radialGradient id="paint5_radial_340_13511" cx="0" cy="0" r="1" gradientUnits="userSpaceOnUse" gradientTransform="translate(11.6996 11.3554) rotate(44.4574) scale(7.65715 7.65713)">
<stop stop-color="#C1F471"/>
<stop offset="0.11" stop-color="#BFF46F"/>
<stop offset="0.15" stop-color="#B8F46C"/>
<stop offset="0.17" stop-color="#ACF465"/>
<stop offset="0.18" stop-color="#A3F360"/>
<stop offset="0.19" stop-color="#8CF352"/>
<stop offset="0.21" stop-color="#79F248"/>
<stop offset="0.22" stop-color="#6CF240"/>
<stop offset="0.25" stop-color="#65F23C"/>
<stop offset="0.3" stop-color="#63F23B"/>
<stop offset="0.36" stop-color="#64F23C"/>
<stop offset="0.38" stop-color="#6BF23F"/>
<stop offset="0.4" stop-color="#77F246"/>
<stop offset="0.41" stop-color="#88F350"/>
<stop offset="0.42" stop-color="#9EF35C"/>
<stop offset="0.43" stop-color="#ACF465"/>
<stop offset="0.45" stop-color="#C3F47E"/>
<stop offset="0.48" stop-color="#D8F495"/>
<stop offset="0.51" stop-color="#E7F4A5"/>
<stop offset="0.54" stop-color="#F0F4AE"/>
<stop offset="0.59" stop-color="#EEF4AC"/>
<stop offset="0.6" stop-color="#DDF496"/>
<stop offset="0.62" stop-color="#D0F485"/>
<stop offset="0.64" stop-color="#C7F479"/>
<stop offset="0.67" stop-color="#C2F472"/>
<stop offset="0.75" stop-color="#C1F471"/>
<stop offset="0.76" stop-color="#C1F471"/>
<stop offset="0.83" stop-color="#C1F471"/>
<stop offset="0.84" stop-color="#A3F35F"/>
<stop offset="0.85" stop-color="#7CF249"/>
<stop offset="0.86" stop-color="#70F242"/>
<stop offset="0.87" stop-color="#69F23F"/>
<stop offset="0.91" stop-color="#68F23E"/>
</radialGradient>
<linearGradient id="paint6_linear_340_13511" x1="1.89804" y1="14.0497" x2="9.45037" y2="21.4616" gradientUnits="userSpaceOnUse">
<stop stop-color="#0E6033"/>
<stop offset="1" stop-color="#339911"/>
</linearGradient>
<radialGradient id="paint7_radial_340_13511" cx="0" cy="0" r="1" gradientUnits="userSpaceOnUse" gradientTransform="translate(-61.5826 -60.5518) rotate(44.4574) scale(7.65715 7.65714)">
<stop stop-color="#C1F471"/>
<stop offset="0.11" stop-color="#BFF46F"/>
<stop offset="0.15" stop-color="#B8F46C"/>
<stop offset="0.17" stop-color="#ACF465"/>
<stop offset="0.18" stop-color="#A3F360"/>
<stop offset="0.19" stop-color="#8CF352"/>
<stop offset="0.21" stop-color="#79F248"/>
<stop offset="0.22" stop-color="#6CF240"/>
<stop offset="0.25" stop-color="#65F23C"/>
<stop offset="0.3" stop-color="#63F23B"/>
<stop offset="0.36" stop-color="#64F23C"/>
<stop offset="0.38" stop-color="#6BF23F"/>
<stop offset="0.4" stop-color="#77F246"/>
<stop offset="0.41" stop-color="#88F350"/>
<stop offset="0.42" stop-color="#9EF35C"/>
<stop offset="0.43" stop-color="#ACF465"/>
<stop offset="0.45" stop-color="#C3F47E"/>
<stop offset="0.48" stop-color="#D8F495"/>
<stop offset="0.51" stop-color="#E7F4A5"/>
<stop offset="0.54" stop-color="#F0F4AE"/>
<stop offset="0.59" stop-color="#EEF4AC"/>
<stop offset="0.6" stop-color="#DDF496"/>
<stop offset="0.62" stop-color="#D0F485"/>
<stop offset="0.64" stop-color="#C7F479"/>
<stop offset="0.67" stop-color="#C2F472"/>
<stop offset="0.75" stop-color="#C1F471"/>
<stop offset="0.76" stop-color="#C1F471"/>
<stop offset="0.83" stop-color="#C1F471"/>
<stop offset="0.84" stop-color="#A3F35F"/>
<stop offset="0.85" stop-color="#7CF249"/>
<stop offset="0.86" stop-color="#70F242"/>
<stop offset="0.87" stop-color="#69F23F"/>
<stop offset="0.91" stop-color="#68F23E"/>
</radialGradient>
<linearGradient id="paint8_linear_340_13511" x1="1.65025" y1="14.3016" x2="9.20259" y2="21.7135" gradientUnits="userSpaceOnUse">
<stop stop-color="#0E6033"/>
<stop offset="1" stop-color="#339911"/>
</linearGradient>
<linearGradient id="paint9_linear_340_13511" x1="13.8801" y1="13.8436" x2="3.08926" y2="3.27911" gradientUnits="userSpaceOnUse">
<stop stop-color="#63F23B"/>
<stop offset="1" stop-color="#339911"/>
</linearGradient>
<linearGradient id="paint10_linear_340_13511" x1="13.9891" y1="13.8757" x2="3.19828" y2="3.31128" gradientUnits="userSpaceOnUse">
<stop stop-color="white"/>
<stop offset="1" stop-color="white" stop-opacity="0"/>
</linearGradient>
<linearGradient id="paint11_linear_340_13511" x1="3.23088" y1="3.35594" x2="14.0033" y2="13.9392" gradientUnits="userSpaceOnUse">
<stop stop-color="#63F23B"/>
<stop offset="1" stop-color="#339911"/>
</linearGradient>
<linearGradient id="paint12_linear_340_13511" x1="3.12093" y1="3.24795" x2="13.8933" y2="13.8312" gradientUnits="userSpaceOnUse">
<stop stop-color="#63F23B"/>
<stop offset="1" stop-color="#339911"/>
</linearGradient>
<linearGradient id="paint13_linear_340_13511" x1="13.8801" y1="13.8436" x2="3.08926" y2="3.27911" gradientUnits="userSpaceOnUse">
<stop stop-color="#FFDD02"/>
<stop offset="1" stop-color="#F59905"/>
</linearGradient>
<linearGradient id="paint14_linear_340_13511" x1="3.23088" y1="3.35594" x2="14.0033" y2="13.9392" gradientUnits="userSpaceOnUse">
<stop stop-color="#63F23B"/>
<stop offset="1" stop-color="#339911"/>
</linearGradient>
<linearGradient id="paint15_linear_340_13511" x1="3.12093" y1="3.24795" x2="13.8933" y2="13.8312" gradientUnits="userSpaceOnUse">
<stop stop-color="#63F23B"/>
<stop offset="1" stop-color="#339911"/>
</linearGradient>
<linearGradient id="paint16_linear_340_13511" x1="15.8984" y1="11.298" x2="1.21929" y2="5.89134" gradientUnits="userSpaceOnUse">
<stop stop-color="#FFDD02"/>
<stop offset="1" stop-color="#F59905"/>
</linearGradient>
<linearGradient id="paint17_linear_340_13511" x1="13.9896" y1="13.9048" x2="3.19874" y2="3.34037" gradientUnits="userSpaceOnUse">
<stop stop-color="white" stop-opacity="0"/>
<stop offset="0.48" stop-color="white"/>
<stop offset="1" stop-color="white" stop-opacity="0"/>
</linearGradient>
<linearGradient id="paint18_linear_340_13511" x1="32.8782" y1="10.3108" x2="31.4309" y2="10.0999" gradientUnits="userSpaceOnUse">
<stop stop-color="#63F23B"/>
<stop offset="1" stop-color="#339911"/>
</linearGradient>
<linearGradient id="paint19_linear_340_13511" x1="4.16939" y1="4.25705" x2="9.72505" y2="9.69615" gradientUnits="userSpaceOnUse">
<stop stop-color="white"/>
<stop offset="1" stop-color="white" stop-opacity="0"/>
</linearGradient>
<linearGradient id="paint20_linear_340_13511" x1="7.81061" y1="7.78505" x2="17.5293" y2="17.0139" gradientUnits="userSpaceOnUse">
<stop stop-color="white"/>
<stop offset="1" stop-color="white" stop-opacity="0"/>
</linearGradient>
<radialGradient id="paint21_radial_340_13511" cx="0" cy="0" r="1" gradientUnits="userSpaceOnUse" gradientTransform="translate(16.3901 18.2174) rotate(-132.343) scale(0.715841 2.91845)">
<stop stop-color="white"/>
<stop offset="0.09" stop-color="white" stop-opacity="0.96"/>
<stop offset="0.24" stop-color="white" stop-opacity="0.85"/>
<stop offset="0.43" stop-color="white" stop-opacity="0.66"/>
<stop offset="0.66" stop-color="white" stop-opacity="0.41"/>
<stop offset="0.93" stop-color="white" stop-opacity="0.09"/>
<stop offset="1" stop-color="white" stop-opacity="0"/>
</radialGradient>
<clipPath id="clip0_340_13511">
<rect width="19" height="19" fill="white"/>
</clipPath>
</defs>
</svg>
