<svg width="19" height="19" viewBox="0 0 19 19" fill="none" xmlns="http://www.w3.org/2000/svg">
<path d="M5.845 18.2907C6.10449 18.4084 6.3692 18.5156 6.65132 18.5969C6.70008 18.6108 6.75059 18.6229 6.79935 18.635C7.49944 18.8201 8.26049 18.8979 9.07552 18.8408C13.5547 18.526 17.8562 14.4312 18.6835 9.69637C19.0248 7.74327 18.7096 5.99429 17.9207 4.62591L15.3293 2.05176C16.5118 3.49799 17.0447 5.56008 16.6337 7.91453C15.8065 12.6494 11.5049 16.7424 7.02575 17.059C5.17974 17.1887 3.59148 16.6559 2.41943 15.6543L4.51448 17.4465C4.6538 17.5659 4.80009 17.6783 4.9516 17.7838C5.1362 17.9119 5.32777 18.0295 5.52804 18.1368C5.63079 18.1921 5.73703 18.2406 5.84326 18.2907H5.845Z" fill="url(#paint0_radial_340_13463)"/>
<path d="M18.8625 9.83645C19.1969 7.92313 18.9008 6.20703 18.1485 4.85076L18.0127 4.71582C18.7685 6.07209 19.0663 7.79166 18.7319 9.70843C17.9047 14.4433 13.6031 18.5363 9.12394 18.8529C8.2915 18.9117 7.51478 18.8287 6.8025 18.6367C6.752 18.6228 6.70323 18.6124 6.65447 18.5986C6.37409 18.5156 6.10589 18.4118 5.84815 18.2924C5.74018 18.244 5.63568 18.1938 5.53293 18.1384C5.33266 18.0312 5.13935 17.9153 4.95649 17.7855C4.8938 17.7423 4.82414 17.7129 4.76318 17.6679C5.92303 18.609 7.46776 19.1072 9.2563 18.9809C13.7355 18.6661 18.037 14.5713 18.8643 9.83645H18.8625Z" fill="#145017"/>
<path d="M18.6854 9.69644C17.8582 14.4313 13.5566 18.5243 9.07743 18.8409C8.2624 18.898 7.50136 18.8202 6.80127 18.635C7.51355 18.8288 8.29027 18.9101 9.12271 18.8513C13.6019 18.5364 17.9034 14.4417 18.7307 9.70682C19.065 7.79004 18.769 6.07048 18.0114 4.7142L17.9226 4.62598C18.7115 5.99436 19.025 7.74333 18.6854 9.69644Z" fill="url(#paint1_radial_340_13463)"/>
<path d="M18.6854 9.69644C17.8582 14.4313 13.5566 18.5243 9.07743 18.8409C8.2624 18.898 7.50136 18.8202 6.80127 18.635C7.51355 18.8288 8.29027 18.9101 9.12271 18.8513C13.6019 18.5364 17.9034 14.4417 18.7307 9.70682C19.065 7.79004 18.769 6.07048 18.0114 4.7142L17.9226 4.62598C18.7115 5.99436 19.025 7.74333 18.6854 9.69644Z" fill="url(#paint2_linear_340_13463)"/>
<path d="M6.65105 18.5967C6.37066 18.5154 6.10421 18.4082 5.84473 18.2905C6.10247 18.4099 6.37066 18.5137 6.65105 18.5967Z" fill="url(#paint3_radial_340_13463)"/>
<path d="M6.65105 18.5967C6.37066 18.5154 6.10421 18.4082 5.84473 18.2905C6.10247 18.4099 6.37066 18.5137 6.65105 18.5967Z" fill="url(#paint4_linear_340_13463)"/>
<path d="M4.95264 17.7837C5.1355 17.9117 5.3288 18.0293 5.52908 18.1366C5.3288 18.0311 5.13724 17.9117 4.95264 17.7837Z" fill="url(#paint5_radial_340_13463)"/>
<path d="M4.95264 17.7837C5.1355 17.9117 5.3288 18.0293 5.52908 18.1366C5.3288 18.0311 5.13724 17.9117 4.95264 17.7837Z" fill="url(#paint6_linear_340_13463)"/>
<path d="M15.1494 1.87672C15.1686 1.89575 15.186 1.91478 15.2052 1.93381C12.1157 -0.965572 6.73617 -0.344523 3.1469 3.34198C-0.444108 7.02849 -0.889936 12.3896 2.12637 15.3599C2.10722 15.3426 2.08632 15.3253 2.06716 15.3063C-1.01184 12.3481 -0.579946 6.94199 3.03196 3.233C6.64561 -0.475999 12.0704 -1.08321 15.1494 1.87672Z" fill="url(#paint7_linear_340_13463)"/>
<path d="M14.1865 13.9515C17.7757 10.265 18.2233 4.9039 15.2053 1.93359C15.2244 1.95089 15.2453 1.96819 15.2645 1.98722C18.3435 4.94715 17.9133 10.3532 14.2997 14.0622C10.6878 17.7712 5.26294 18.3784 2.18219 15.4185C2.16304 15.3995 2.14562 15.3804 2.12646 15.3614C5.21592 18.2591 10.5955 17.638 14.1847 13.9515H14.1865Z" fill="url(#paint8_linear_340_13463)"/>
<path d="M3.14707 3.34191C6.73634 -0.344595 12.1159 -0.965644 15.2053 1.93201C18.2234 4.90405 17.7758 10.2651 14.1866 13.9499C10.5973 17.6347 5.21774 18.2575 2.12828 15.3598C-0.889766 12.3895 -0.443938 7.02842 3.14707 3.34191Z" fill="url(#paint9_linear_340_13463)"/>
<path d="M3.14707 3.34191C6.73634 -0.344595 12.1159 -0.965644 15.2053 1.93201C18.2234 4.90405 17.7758 10.2651 14.1866 13.9499C10.5973 17.6347 5.21774 18.2575 2.12828 15.3598C-0.889766 12.3895 -0.443938 7.02842 3.14707 3.34191Z" fill="url(#paint10_linear_340_13463)"/>
<path style="mix-blend-mode:overlay" opacity="0.7" d="M15.1494 1.87672C15.1686 1.89575 15.186 1.91478 15.2052 1.93381C12.1157 -0.965572 6.73617 -0.344523 3.1469 3.34198C-0.444108 7.02849 -0.889936 12.3896 2.12637 15.3599C2.10722 15.3426 2.08632 15.3253 2.06716 15.3063C-1.01184 12.3481 -0.579946 6.94199 3.03196 3.233C6.64561 -0.475999 12.0704 -1.08321 15.1494 1.87672Z" fill="url(#paint11_linear_340_13463)"/>
<path d="M3.14707 3.34191C6.73634 -0.344595 12.1159 -0.965644 15.2053 1.93201C18.2234 4.90405 17.7758 10.2651 14.1866 13.9499C10.5973 17.6347 5.21774 18.2575 2.12828 15.3598C-0.889766 12.3895 -0.443938 7.02842 3.14707 3.34191Z" fill="url(#paint12_linear_340_13463)"/>
<path d="M3.14707 3.34191C6.73634 -0.344595 12.1159 -0.965644 15.2053 1.93201C18.2234 4.90405 17.7758 10.2651 14.1866 13.9499C10.5973 17.6347 5.21774 18.2575 2.12828 15.3598C-0.889766 12.3895 -0.443938 7.02842 3.14707 3.34191Z" fill="url(#paint13_linear_340_13463)"/>
<path style="mix-blend-mode:overlay" d="M14.1865 13.9515C17.7757 10.265 18.2233 4.9039 15.2053 1.93359C15.2244 1.95089 15.2453 1.96819 15.2645 1.98722C18.3435 4.94715 17.9133 10.3532 14.2997 14.0622C10.6878 17.7712 5.26294 18.3784 2.18219 15.4185C2.16304 15.3995 2.14562 15.3804 2.12646 15.3614C5.21592 18.2591 10.5955 17.638 14.1847 13.9515H14.1865Z" fill="url(#paint14_linear_340_13463)"/>
<path style="mix-blend-mode:overlay" d="M14.1865 13.9515C17.7757 10.265 18.2233 4.9039 15.2053 1.93359C15.2244 1.95089 15.2453 1.96819 15.2645 1.98722C18.3435 4.94715 17.9133 10.3532 14.2997 14.0622C10.6878 17.7712 5.26294 18.3784 2.18219 15.4185C2.16304 15.3995 2.14562 15.3804 2.12646 15.3614C5.21592 18.2591 10.5955 17.638 14.1847 13.9515H14.1865Z" fill="url(#paint15_linear_340_13463)"/>
<path style="mix-blend-mode:overlay" opacity="0.5" d="M15.6651 8.97C15.2367 10.437 15.1915 11.6376 15.5659 11.6514C15.9403 11.667 16.5934 10.4889 17.0218 9.02189C17.4502 7.5549 17.4955 6.35432 17.1193 6.34048C16.7449 6.32492 16.0918 7.50301 15.6634 8.97H15.6651Z" fill="url(#paint16_linear_340_13463)"/>
<path d="M7.46579 14.9813C6.05864 14.9813 4.7943 14.4987 3.84866 13.5922C2.74628 12.5335 2.21337 11.0215 2.34747 9.33652C2.48157 7.65847 3.26177 6.00811 4.54701 4.68989C5.8305 3.37168 7.46579 2.54131 9.14984 2.35274C10.8409 2.16245 12.3786 2.64337 13.481 3.7021C14.5834 4.76082 15.1163 6.27279 14.9822 7.95775C14.8481 9.6358 14.0679 11.2862 12.7826 12.6044C11.4991 13.9226 9.86386 14.753 8.17981 14.9415C7.93774 14.9692 7.69915 14.9813 7.46579 14.9813ZM4.6811 4.81791C3.42721 6.10499 2.66442 7.71556 2.53381 9.35036C2.4032 10.9782 2.91694 12.4383 3.97753 13.4572C5.03811 14.4762 6.52363 14.9398 8.15717 14.7547C9.79768 14.5713 11.3929 13.76 12.6468 12.4729C13.9007 11.1858 14.6635 9.57525 14.7941 7.94046C14.9247 6.31258 14.411 4.85251 13.3504 3.83357C12.2881 2.81291 10.8043 2.35274 9.17074 2.53612C7.53023 2.71949 5.935 3.53083 4.6811 4.81791Z" fill="url(#paint17_linear_340_13463)"/>
<path d="M12.5973 12.3759C15.1285 9.77681 15.4309 5.98856 13.2727 3.91465C11.1145 1.84073 7.31297 2.2665 4.78181 4.86563C2.25064 7.46477 1.9483 11.253 4.1065 13.3269C6.2647 15.4008 10.0662 14.9751 12.5973 12.3759Z" fill="url(#paint18_linear_340_13463)"/>
<path style="mix-blend-mode:multiply" opacity="0.59" d="M5.54839 5.39203C7.73399 3.14829 10.867 2.52551 13.0717 3.73301C10.8844 1.86987 7.23592 2.34733 4.78212 4.86612C2.24996 7.4645 1.94867 11.2531 4.10641 13.3273C4.40073 13.611 4.72639 13.8445 5.0747 14.0365C5.00504 13.9777 4.93886 13.9172 4.87268 13.8532C2.71494 11.779 3.01622 7.9904 5.54839 5.39203Z" fill="url(#paint19_linear_340_13463)"/>
<path d="M12.5984 12.3777C15.1306 9.77928 15.4318 5.99071 13.2741 3.91651C13.2079 3.8525 13.14 3.79195 13.0721 3.73314C10.8673 2.52564 7.73607 3.14842 5.54872 5.39215C3.01656 7.99052 2.71527 11.7791 4.87301 13.8533C4.93919 13.9173 5.00711 13.9779 5.07503 14.0367C7.27979 15.2442 10.411 14.6214 12.5984 12.3777Z" fill="url(#paint20_linear_340_13463)"/>
<g style="mix-blend-mode:multiply">
<g opacity="0.63">
<path d="M10.2749 9.2564L10.8478 8.66822C10.9088 8.60421 10.9157 8.51079 10.86 8.45889C10.9802 8.06793 10.6127 7.76346 10.6127 7.76346C10.6162 7.27734 10.4891 6.96076 10.3027 6.7549C10.409 6.64418 10.5552 6.5006 10.7207 6.3622C10.8461 6.39161 10.961 6.43486 11.0655 6.49368C11.2031 7.02304 11.9798 7.15798 12.1243 7.15798C12.4848 7.15279 13.0334 7.23582 13.0874 7.26177C13.0508 7.18393 13.0125 7.10954 12.976 7.04207C12.2828 5.77402 11.5218 6.13558 11.2101 6.36566C11.1143 6.30685 11.008 6.26014 10.8966 6.22554C11.1613 6.03352 11.3859 5.93837 11.5514 5.95394C11.5967 5.9574 11.6437 5.9228 11.6559 5.87609C11.6681 5.82938 11.6385 5.78786 11.5932 5.78267C11.4782 5.77229 11.3459 5.79997 11.2013 5.86225C11.2379 5.72732 11.2815 5.54048 11.2832 5.39344C11.2954 5.38133 11.3111 5.3623 11.332 5.33635C11.3128 5.3277 11.2954 5.31905 11.2762 5.30867C11.2936 5.31905 11.3128 5.3277 11.332 5.33635C11.5375 5.08205 12.0686 4.22573 10.6266 3.51991C10.6667 3.71539 10.7242 4.07522 10.7276 4.33817C10.7329 4.45754 10.8461 5.00939 11.1944 5.26023C10.8461 5.00939 10.7329 4.45927 10.7276 4.3399C10.7224 4.07695 10.6667 3.71712 10.6266 3.52164C10.5622 3.4905 10.4943 3.45936 10.4229 3.42822C10.449 3.47666 10.5535 4.02159 10.5605 4.38142C10.5657 4.50944 10.6963 5.13914 11.1125 5.35365C11.1125 5.35711 11.1125 5.3623 11.1125 5.36576C11.1317 5.51972 11.0463 5.82765 11.0011 5.96778C10.8948 6.03179 10.7834 6.10963 10.6667 6.20478C10.4769 6.35874 10.3097 6.52309 10.1913 6.64764C9.65836 6.23073 8.81198 6.48676 8.81198 6.48676L8.78586 6.46081C8.73187 6.40891 8.63783 6.41756 8.57513 6.47984L8.01262 7.05764C7.08962 6.89503 6.0987 7.24447 5.27147 8.09561C3.96882 9.43285 3.88 11.149 5.09384 12.3167C6.30942 13.4844 8.07358 13.2958 9.33444 12.0018C10.1355 11.1801 10.4612 10.1785 10.2766 9.25813L10.2749 9.2564ZM5.9228 11.4621C5.07642 10.649 5.3185 9.65255 6.0778 8.87408C6.82839 8.10426 7.78797 7.86379 8.63609 8.6786C9.48246 9.49167 9.27348 10.4535 8.52289 11.2233C7.76533 12.0018 6.76395 12.2682 5.92454 11.4621H5.9228Z" fill="url(#paint21_linear_340_13463)"/>
</g>
</g>
<path d="M10.2055 9.18901L10.7785 8.60083C10.8394 8.53683 10.8464 8.44341 10.7907 8.39151C10.9108 8.00054 10.5434 7.69607 10.5434 7.69607C10.5469 7.20996 10.4197 6.89338 10.2334 6.68752C10.3396 6.5768 10.4859 6.43322 10.6513 6.29482C10.7767 6.32423 10.8917 6.36748 10.9962 6.4263C11.1337 6.95566 11.9105 7.09059 12.055 7.09059C12.4155 7.0854 12.9641 7.16844 13.0181 7.19439C12.9815 7.11654 12.9432 7.04216 12.9066 6.97469C12.2135 5.70664 11.4524 6.0682 11.1407 6.29828C11.0449 6.23946 10.9387 6.19275 10.8272 6.15816C11.092 5.96613 11.3166 5.87099 11.4821 5.88655C11.5273 5.89001 11.5744 5.85542 11.5865 5.80871C11.5987 5.762 11.5691 5.72048 11.5238 5.71529C11.4089 5.70491 11.2766 5.73259 11.132 5.79487C11.1686 5.65993 11.2121 5.4731 11.2139 5.32605C11.226 5.31394 11.2417 5.29491 11.2626 5.26897C11.2435 5.26032 11.226 5.25167 11.2069 5.24129C11.2243 5.25167 11.2435 5.26032 11.2626 5.26897C11.4681 5.01466 11.9993 4.15834 10.5573 3.45253C10.5974 3.64801 10.6548 4.00784 10.6583 4.27079C10.6635 4.39016 10.7767 4.94201 11.125 5.19285C10.7767 4.94201 10.6635 4.39189 10.6583 4.27252C10.6531 4.00957 10.5974 3.64974 10.5573 3.45426C10.4929 3.42312 10.425 3.39198 10.3535 3.36084C10.3797 3.40928 10.4842 3.95421 10.4911 4.31404C10.4964 4.44205 10.627 5.07175 11.0432 5.28626C11.0432 5.28972 11.0432 5.29491 11.0432 5.29837C11.0623 5.45234 10.977 5.76027 10.9317 5.90039C10.8255 5.9644 10.714 6.04225 10.5974 6.1374C10.4075 6.29136 10.2403 6.45571 10.1219 6.58026C9.58902 6.16335 8.74264 6.41938 8.74264 6.41938L8.71652 6.39343C8.66253 6.34153 8.56849 6.35018 8.5058 6.41246L7.94329 6.99026C7.02028 6.82764 6.02936 7.17709 5.20214 8.02822C3.89948 9.36547 3.81067 11.0816 5.0245 12.2493C6.24008 13.417 8.00424 13.2284 9.2651 11.9344C10.0662 11.1127 10.3919 10.1111 10.2073 9.19074L10.2055 9.18901ZM5.85347 11.3947C5.00709 10.5816 5.24916 9.58517 6.00846 8.8067C6.75905 8.03687 7.71863 7.79641 8.56675 8.61121C9.41313 9.42429 9.20415 10.3861 8.45355 11.156C7.69599 11.9344 6.69462 12.2008 5.85521 11.3947H5.85347Z" fill="url(#paint22_linear_340_13463)"/>
<g style="mix-blend-mode:multiply">
<path d="M7.31668 17.1298C5.54382 17.1298 3.87022 16.5416 2.6111 15.3307C1.17609 13.9519 0.484708 11.9832 0.664085 9.78795C0.841719 7.59958 1.86399 5.44407 3.54281 3.72278C5.2199 1.99975 7.35326 0.913351 9.54931 0.66424C11.7541 0.413398 13.7568 1.03618 15.1918 2.41321C16.6268 3.79197 17.3182 5.76065 17.1388 7.95594C16.9612 10.1443 15.9389 12.2998 14.2601 14.0211C12.2713 16.0642 9.70256 17.1281 7.31668 17.1281V17.1298ZM10.4932 0.813015C10.1919 0.813015 9.88368 0.830314 9.57195 0.866643C7.42292 1.11056 5.33309 2.17448 3.6891 3.86463C2.04511 5.55305 1.04199 7.66358 0.867842 9.80525C0.69369 11.94 1.36243 13.8499 2.75216 15.1854C5.62567 17.9464 10.7214 17.3616 14.1103 13.881C15.7543 12.1926 16.7575 10.082 16.9316 7.94037C17.1058 5.80563 16.4353 3.89577 15.0473 2.56026C13.8596 1.41849 12.2678 0.814745 10.4915 0.814745L10.4932 0.813015Z" fill="url(#paint23_linear_340_13463)"/>
</g>
<path d="M7.0725 17.0114C5.21778 17.0114 3.5494 16.3765 2.30422 15.1794C0.846568 13.7781 0.144737 11.78 0.325855 9.55361C0.505231 7.34101 1.53795 5.16474 3.23245 3.42442C6.74161 -0.177315 12.0323 -0.765495 15.0277 2.11313C16.4837 3.51265 17.1872 5.51073 17.0061 7.7389C16.8267 9.95149 15.794 12.1278 14.0995 13.8681C12.405 15.6084 10.249 16.7052 8.03033 16.956C7.70641 16.9924 7.38771 17.0114 7.07424 17.0114H7.0725ZM10.2508 0.692846C7.94674 0.692846 5.45985 1.72562 3.53025 3.70813C1.90019 5.38099 0.909263 7.4673 0.736853 9.58648C0.566184 11.6901 1.22448 13.5723 2.58983 14.8853C3.95692 16.1983 5.87259 16.79 7.98157 16.5495C10.108 16.309 12.1751 15.2538 13.8017 13.5826C15.4283 11.9115 16.421 9.82348 16.5934 7.70603C16.764 5.60242 16.1057 3.72024 14.7404 2.40722C13.5388 1.25335 11.9435 0.692846 10.249 0.692846H10.2508Z" fill="#C1F471"/>
<path style="mix-blend-mode:overlay" opacity="0.5" d="M13.4764 13.1254C12.2364 14.1443 11.4632 15.2186 11.7488 15.5266C12.0344 15.8345 13.2726 15.2584 14.5126 14.2395C15.7525 13.2205 16.5258 12.1445 16.2401 11.8383C15.9545 11.5304 14.7163 12.1065 13.4764 13.1254Z" fill="url(#paint24_radial_340_13463)"/>
<path style="mix-blend-mode:overlay" opacity="0.4" d="M8.645 0.207309L0.10634 8.97465C-0.181011 10.8205 0.111564 12.6369 1.01367 14.1247L13.8556 0.937345C12.3301 0.0914031 10.4928 -0.140409 8.645 0.207309Z" fill="url(#paint25_linear_340_13463)"/>
<path style="mix-blend-mode:overlay" opacity="0.4" d="M14.1519 13.9861C17.2954 10.7581 18.0373 6.2481 16.1669 3.16016L3.32666 16.3458C6.49622 18.0999 11.0085 17.2142 14.1519 13.9861Z" fill="url(#paint26_linear_340_13463)"/>
<defs>
<radialGradient id="paint0_radial_340_13463" cx="0" cy="0" r="1" gradientUnits="userSpaceOnUse" gradientTransform="translate(11.825 11.6133) rotate(44.099) scale(7.67607 7.67464)">
<stop stop-color="#C1F471"/>
<stop offset="0.11" stop-color="#BFF46F"/>
<stop offset="0.15" stop-color="#B8F46C"/>
<stop offset="0.17" stop-color="#ACF465"/>
<stop offset="0.18" stop-color="#A3F360"/>
<stop offset="0.19" stop-color="#8CF352"/>
<stop offset="0.21" stop-color="#79F248"/>
<stop offset="0.22" stop-color="#6CF240"/>
<stop offset="0.25" stop-color="#65F23C"/>
<stop offset="0.3" stop-color="#63F23B"/>
<stop offset="0.36" stop-color="#64F23C"/>
<stop offset="0.38" stop-color="#6BF23F"/>
<stop offset="0.4" stop-color="#77F246"/>
<stop offset="0.41" stop-color="#88F350"/>
<stop offset="0.42" stop-color="#9EF35C"/>
<stop offset="0.43" stop-color="#ACF465"/>
<stop offset="0.45" stop-color="#C3F47E"/>
<stop offset="0.48" stop-color="#D8F495"/>
<stop offset="0.51" stop-color="#E7F4A5"/>
<stop offset="0.54" stop-color="#F0F4AE"/>
<stop offset="0.59" stop-color="#EEF4AC"/>
<stop offset="0.6" stop-color="#DDF496"/>
<stop offset="0.62" stop-color="#D0F485"/>
<stop offset="0.64" stop-color="#C7F479"/>
<stop offset="0.67" stop-color="#C2F472"/>
<stop offset="0.75" stop-color="#C1F471"/>
<stop offset="0.76" stop-color="#C1F471"/>
<stop offset="0.83" stop-color="#C1F471"/>
<stop offset="0.84" stop-color="#A3F35F"/>
<stop offset="0.85" stop-color="#7CF249"/>
<stop offset="0.86" stop-color="#70F242"/>
<stop offset="0.87" stop-color="#69F23F"/>
<stop offset="0.91" stop-color="#2F8914"/>
</radialGradient>
<radialGradient id="paint1_radial_340_13463" cx="0" cy="0" r="1" gradientUnits="userSpaceOnUse" gradientTransform="translate(-56.8365 -54.9222) rotate(44.099) scale(7.67608 7.67464)">
<stop stop-color="#C1F471"/>
<stop offset="0.11" stop-color="#BFF46F"/>
<stop offset="0.15" stop-color="#B8F46C"/>
<stop offset="0.17" stop-color="#ACF465"/>
<stop offset="0.18" stop-color="#A3F360"/>
<stop offset="0.19" stop-color="#8CF352"/>
<stop offset="0.21" stop-color="#79F248"/>
<stop offset="0.22" stop-color="#6CF240"/>
<stop offset="0.25" stop-color="#65F23C"/>
<stop offset="0.3" stop-color="#63F23B"/>
<stop offset="0.36" stop-color="#64F23C"/>
<stop offset="0.38" stop-color="#6BF23F"/>
<stop offset="0.4" stop-color="#77F246"/>
<stop offset="0.41" stop-color="#88F350"/>
<stop offset="0.42" stop-color="#9EF35C"/>
<stop offset="0.43" stop-color="#ACF465"/>
<stop offset="0.45" stop-color="#C3F47E"/>
<stop offset="0.48" stop-color="#D8F495"/>
<stop offset="0.51" stop-color="#E7F4A5"/>
<stop offset="0.54" stop-color="#F0F4AE"/>
<stop offset="0.59" stop-color="#EEF4AC"/>
<stop offset="0.6" stop-color="#DDF496"/>
<stop offset="0.62" stop-color="#D0F485"/>
<stop offset="0.64" stop-color="#C7F479"/>
<stop offset="0.67" stop-color="#C2F472"/>
<stop offset="0.75" stop-color="#C1F471"/>
<stop offset="0.76" stop-color="#C1F471"/>
<stop offset="0.83" stop-color="#C1F471"/>
<stop offset="0.84" stop-color="#A3F35F"/>
<stop offset="0.85" stop-color="#7CF249"/>
<stop offset="0.86" stop-color="#70F242"/>
<stop offset="0.87" stop-color="#69F23F"/>
<stop offset="0.91" stop-color="#68F23E"/>
</radialGradient>
<linearGradient id="paint2_linear_340_13463" x1="8.3727" y1="7.82067" x2="15.9411" y2="15.2532" gradientUnits="userSpaceOnUse">
<stop stop-color="#0E6033"/>
<stop offset="1" stop-color="#339911"/>
</linearGradient>
<radialGradient id="paint3_radial_340_13463" cx="0" cy="0" r="1" gradientUnits="userSpaceOnUse" gradientTransform="translate(11.8247 11.6131) rotate(44.099) scale(7.67607 7.67463)">
<stop stop-color="#C1F471"/>
<stop offset="0.11" stop-color="#BFF46F"/>
<stop offset="0.15" stop-color="#B8F46C"/>
<stop offset="0.17" stop-color="#ACF465"/>
<stop offset="0.18" stop-color="#A3F360"/>
<stop offset="0.19" stop-color="#8CF352"/>
<stop offset="0.21" stop-color="#79F248"/>
<stop offset="0.22" stop-color="#6CF240"/>
<stop offset="0.25" stop-color="#65F23C"/>
<stop offset="0.3" stop-color="#63F23B"/>
<stop offset="0.36" stop-color="#64F23C"/>
<stop offset="0.38" stop-color="#6BF23F"/>
<stop offset="0.4" stop-color="#77F246"/>
<stop offset="0.41" stop-color="#88F350"/>
<stop offset="0.42" stop-color="#9EF35C"/>
<stop offset="0.43" stop-color="#ACF465"/>
<stop offset="0.45" stop-color="#C3F47E"/>
<stop offset="0.48" stop-color="#D8F495"/>
<stop offset="0.51" stop-color="#E7F4A5"/>
<stop offset="0.54" stop-color="#F0F4AE"/>
<stop offset="0.59" stop-color="#EEF4AC"/>
<stop offset="0.6" stop-color="#DDF496"/>
<stop offset="0.62" stop-color="#D0F485"/>
<stop offset="0.64" stop-color="#C7F479"/>
<stop offset="0.67" stop-color="#C2F472"/>
<stop offset="0.75" stop-color="#C1F471"/>
<stop offset="0.76" stop-color="#C1F471"/>
<stop offset="0.83" stop-color="#C1F471"/>
<stop offset="0.84" stop-color="#A3F35F"/>
<stop offset="0.85" stop-color="#7CF249"/>
<stop offset="0.86" stop-color="#70F242"/>
<stop offset="0.87" stop-color="#69F23F"/>
<stop offset="0.91" stop-color="#68F23E"/>
</radialGradient>
<linearGradient id="paint4_linear_340_13463" x1="1.97442" y1="14.3352" x2="9.54285" y2="21.7678" gradientUnits="userSpaceOnUse">
<stop stop-color="#0E6033"/>
<stop offset="1" stop-color="#339911"/>
</linearGradient>
<radialGradient id="paint5_radial_340_13463" cx="0" cy="0" r="1" gradientUnits="userSpaceOnUse" gradientTransform="translate(11.8243 11.6132) rotate(44.0989) scale(7.67606 7.67462)">
<stop stop-color="#C1F471"/>
<stop offset="0.11" stop-color="#BFF46F"/>
<stop offset="0.15" stop-color="#B8F46C"/>
<stop offset="0.17" stop-color="#ACF465"/>
<stop offset="0.18" stop-color="#A3F360"/>
<stop offset="0.19" stop-color="#8CF352"/>
<stop offset="0.21" stop-color="#79F248"/>
<stop offset="0.22" stop-color="#6CF240"/>
<stop offset="0.25" stop-color="#65F23C"/>
<stop offset="0.3" stop-color="#63F23B"/>
<stop offset="0.36" stop-color="#64F23C"/>
<stop offset="0.38" stop-color="#6BF23F"/>
<stop offset="0.4" stop-color="#77F246"/>
<stop offset="0.41" stop-color="#88F350"/>
<stop offset="0.42" stop-color="#9EF35C"/>
<stop offset="0.43" stop-color="#ACF465"/>
<stop offset="0.45" stop-color="#C3F47E"/>
<stop offset="0.48" stop-color="#D8F495"/>
<stop offset="0.51" stop-color="#E7F4A5"/>
<stop offset="0.54" stop-color="#F0F4AE"/>
<stop offset="0.59" stop-color="#EEF4AC"/>
<stop offset="0.6" stop-color="#DDF496"/>
<stop offset="0.62" stop-color="#D0F485"/>
<stop offset="0.64" stop-color="#C7F479"/>
<stop offset="0.67" stop-color="#C2F472"/>
<stop offset="0.75" stop-color="#C1F471"/>
<stop offset="0.76" stop-color="#C1F471"/>
<stop offset="0.83" stop-color="#C1F471"/>
<stop offset="0.84" stop-color="#A3F35F"/>
<stop offset="0.85" stop-color="#7CF249"/>
<stop offset="0.86" stop-color="#70F242"/>
<stop offset="0.87" stop-color="#69F23F"/>
<stop offset="0.91" stop-color="#68F23E"/>
</radialGradient>
<linearGradient id="paint6_linear_340_13463" x1="1.72712" y1="14.5866" x2="9.29554" y2="22.0192" gradientUnits="userSpaceOnUse">
<stop stop-color="#0E6033"/>
<stop offset="1" stop-color="#339911"/>
</linearGradient>
<linearGradient id="paint7_linear_340_13463" x1="14.2073" y1="13.9302" x2="3.12541" y2="3.1381" gradientUnits="userSpaceOnUse">
<stop stop-color="#63F23B"/>
<stop offset="1" stop-color="#339911"/>
</linearGradient>
<linearGradient id="paint8_linear_340_13463" x1="14.32" y1="14.0382" x2="3.2394" y2="3.24734" gradientUnits="userSpaceOnUse">
<stop stop-color="#63F23B"/>
<stop offset="1" stop-color="#339911"/>
</linearGradient>
<linearGradient id="paint9_linear_340_13463" x1="14.2074" y1="13.9301" x2="3.12558" y2="3.13802" gradientUnits="userSpaceOnUse">
<stop stop-color="#63F23B"/>
<stop offset="1" stop-color="#339911"/>
</linearGradient>
<linearGradient id="paint10_linear_340_13463" x1="14.3201" y1="14.0383" x2="3.23948" y2="3.24749" gradientUnits="userSpaceOnUse">
<stop stop-color="#63F23B"/>
<stop offset="1" stop-color="#339911"/>
</linearGradient>
<linearGradient id="paint11_linear_340_13463" x1="14.2073" y1="13.9302" x2="3.12541" y2="3.1381" gradientUnits="userSpaceOnUse">
<stop stop-color="#63F23B"/>
<stop offset="1" stop-color="#339911"/>
</linearGradient>
<linearGradient id="paint12_linear_340_13463" x1="14.2074" y1="13.9301" x2="3.12558" y2="3.13802" gradientUnits="userSpaceOnUse">
<stop stop-color="#63F23B"/>
<stop offset="1" stop-color="#339911"/>
</linearGradient>
<linearGradient id="paint13_linear_340_13463" x1="14.3201" y1="14.0383" x2="3.23948" y2="3.24749" gradientUnits="userSpaceOnUse">
<stop stop-color="#63F23B"/>
<stop offset="1" stop-color="#339911"/>
</linearGradient>
<linearGradient id="paint14_linear_340_13463" x1="14.32" y1="14.0382" x2="3.2394" y2="3.24734" gradientUnits="userSpaceOnUse">
<stop stop-color="white" stop-opacity="0"/>
<stop offset="0.48" stop-color="white"/>
<stop offset="1" stop-color="white" stop-opacity="0"/>
</linearGradient>
<linearGradient id="paint15_linear_340_13463" x1="14.32" y1="14.0382" x2="3.2394" y2="3.24734" gradientUnits="userSpaceOnUse">
<stop stop-color="white" stop-opacity="0"/>
<stop offset="0.48" stop-color="white"/>
<stop offset="1" stop-color="white" stop-opacity="0"/>
</linearGradient>
<linearGradient id="paint16_linear_340_13463" x1="33.9018" y1="10.4264" x2="32.4522" y2="10.2226" gradientUnits="userSpaceOnUse">
<stop stop-color="#63F23B"/>
<stop offset="1" stop-color="#339911"/>
</linearGradient>
<linearGradient id="paint17_linear_340_13463" x1="4.54976" y1="4.68652" x2="12.7327" y2="12.6555" gradientUnits="userSpaceOnUse">
<stop stop-color="#63F23B"/>
<stop offset="1" stop-color="#339911"/>
</linearGradient>
<linearGradient id="paint18_linear_340_13463" x1="12.6168" y1="12.3584" x2="4.85046" y2="4.79514" gradientUnits="userSpaceOnUse">
<stop stop-color="#0E6033"/>
<stop offset="1" stop-color="#339911"/>
</linearGradient>
<linearGradient id="paint19_linear_340_13463" x1="12.6154" y1="12.3601" x2="4.84903" y2="4.7968" gradientUnits="userSpaceOnUse">
<stop stop-color="#292738"/>
<stop offset="1" stop-color="#292738"/>
</linearGradient>
<linearGradient id="paint20_linear_340_13463" x1="12.6721" y1="12.3023" x2="4.9057" y2="4.73907" gradientUnits="userSpaceOnUse">
<stop stop-color="#0A4726"/>
<stop offset="1" stop-color="#1E590A"/>
</linearGradient>
<linearGradient id="paint21_linear_340_13463" x1="6.66053" y1="6.66618" x2="10.6985" y2="10.5986" gradientUnits="userSpaceOnUse">
<stop stop-color="#CFAD05"/>
<stop offset="1" stop-color="#853903"/>
</linearGradient>
<linearGradient id="paint22_linear_340_13463" x1="4.35864" y1="7.85062" x2="12.9081" y2="8.55368" gradientUnits="userSpaceOnUse">
<stop stop-color="#339911"/>
<stop offset="0.67" stop-color="#63F23B"/>
</linearGradient>
<linearGradient id="paint23_linear_340_13463" x1="3.54407" y1="3.71938" x2="14.1931" y2="14.09" gradientUnits="userSpaceOnUse">
<stop offset="0.16" stop-color="#7CCF04"/>
<stop offset="1" stop-color="#EDEDED"/>
</linearGradient>
<radialGradient id="paint24_radial_340_13463" cx="0" cy="0" r="1" gradientUnits="userSpaceOnUse" gradientTransform="translate(26.3316 25.5946) rotate(-132.951) scale(0.777409 2.88896)">
<stop stop-color="white"/>
<stop offset="0.09" stop-color="white" stop-opacity="0.96"/>
<stop offset="0.24" stop-color="white" stop-opacity="0.85"/>
<stop offset="0.43" stop-color="white" stop-opacity="0.66"/>
<stop offset="0.66" stop-color="white" stop-opacity="0.41"/>
<stop offset="0.93" stop-color="white" stop-opacity="0.09"/>
<stop offset="1" stop-color="white" stop-opacity="0"/>
</radialGradient>
<linearGradient id="paint25_linear_340_13463" x1="3.97533" y1="4.20141" x2="9.60393" y2="9.68282" gradientUnits="userSpaceOnUse">
<stop stop-color="white"/>
<stop offset="1" stop-color="white" stop-opacity="0"/>
</linearGradient>
<linearGradient id="paint26_linear_340_13463" x1="7.76667" y1="7.90205" x2="17.7413" y2="17.3225" gradientUnits="userSpaceOnUse">
<stop stop-color="white"/>
<stop offset="1" stop-color="white" stop-opacity="0"/>
</linearGradient>
</defs>
</svg>
