<svg width="127" height="127" viewBox="0 0 127 127" fill="none" xmlns="http://www.w3.org/2000/svg">
<mask id="mask0_344_17663" style="mask-type:luminance" maskUnits="userSpaceOnUse" x="18" y="19" width="90" height="90">
<path d="M95.9001 19.46H30.0001C23.4058 19.46 18.0601 24.8057 18.0601 31.4V96.74C18.0601 103.334 23.4058 108.68 30.0001 108.68H95.9001C102.494 108.68 107.84 103.334 107.84 96.74V31.4C107.84 24.8057 102.494 19.46 95.9001 19.46Z" fill="white"/>
</mask>
<g mask="url(#mask0_344_17663)">
<path d="M109.73 17.7402H14.8696V112.6H109.73V17.7402Z" fill="url(#paint0_linear_344_17663)"/>
<path d="M41.0998 51.9805C40.0798 52.6205 38.9998 53.1705 37.8798 53.6205C36.8598 54.0305 35.7798 54.3705 34.8898 55.0205C34.4398 55.3505 33.9898 55.7805 33.7198 56.4605C33.2498 57.6505 33.5298 59.3905 34.8398 60.3605C35.9398 61.1805 37.3998 61.1705 38.4198 60.6005C39.4598 60.0305 39.9098 59.0205 40.0698 58.4305C40.3098 57.5205 40.3198 56.5705 40.4098 55.6405C40.5298 54.4105 40.8098 53.2005 41.0998 51.9905V51.9805Z" fill="#51D5F4"/>
<path d="M34.8099 56.6707C34.5299 57.8207 35.2199 59.5107 36.8099 59.7207C38.8399 59.8707 39.6799 57.9707 39.8899 56.3807C40.1499 54.9307 40.3999 53.3207 41.0899 52.0207C41.0899 52.0007 41.0899 51.9907 41.0999 51.9707C40.0799 52.6107 38.9999 53.1607 37.8799 53.6107C37.2399 53.8707 36.5799 54.0907 35.9599 54.3907C35.3999 55.0407 35.0199 55.8707 34.8099 56.6607V56.6707Z" fill="#51D5F4"/>
<path opacity="0.46" d="M40.0801 58.4303C40.3201 57.5203 40.3301 56.5703 40.4201 55.6403C40.5401 54.4203 40.8201 53.2303 41.0901 52.0303C40.4001 53.3203 40.1601 54.9303 39.8901 56.3903C39.6701 57.9803 38.8301 59.8803 36.8101 59.7303C36.6501 59.7103 36.5101 59.6703 36.3701 59.6303C36.2501 59.6303 36.1401 59.5903 36.0201 59.5203C35.0801 58.9903 34.4001 58.5003 34.1101 57.4103C33.9701 56.8903 33.9501 56.3703 34.0501 55.8703C33.9301 56.0503 33.8201 56.2403 33.7301 56.4703C33.2601 57.6603 33.5401 59.4003 34.8501 60.3703C35.9501 61.1903 37.4101 61.1803 38.4301 60.6103C39.4801 60.0403 39.9201 59.0303 40.0801 58.4403V58.4303Z" fill="#32AFCC"/>
<path opacity="0.46" d="M35.31 59.0311C35.31 58.8311 35.19 58.6911 35.16 58.6611C34.86 58.6911 34.57 58.7311 34.27 58.7611C34.29 58.8211 34.32 58.9211 34.37 59.0311C34.44 59.2011 34.47 59.2811 34.52 59.3411C34.65 59.4811 34.86 59.5611 35.04 59.4911C35.24 59.4111 35.31 59.1911 35.31 59.0311Z" fill="white"/>
<path opacity="0.46" d="M34.6099 56.8903C34.7099 56.8703 35.5699 56.9603 35.5699 56.9303C35.7399 56.3303 36.1399 55.8003 36.6899 55.3903C37.2099 55.0003 37.8499 54.7903 38.3999 54.4403C38.9099 54.1203 39.3599 53.7403 39.7599 53.2803C39.1599 53.5903 38.5299 53.8403 37.8999 54.0903C37.4199 54.2803 36.9299 54.4303 36.4799 54.6803C35.6599 55.1203 34.8599 55.7903 34.6399 56.7503C34.6299 56.8003 34.6199 56.8503 34.6099 56.8903Z" fill="white"/>
<path d="M27.9998 57.6807C27.1998 59.0207 26.2698 60.2807 25.2398 61.4507C24.2998 62.5207 23.2498 63.5407 22.5898 64.8107C22.2598 65.4507 21.9898 66.2107 22.0698 67.1607C22.2198 68.8007 23.5598 70.6507 25.6398 71.0107C27.3898 71.3107 29.0698 70.4607 29.9298 69.2107C30.7998 67.9407 30.7298 66.5107 30.5698 65.7407C30.3198 64.5507 29.7698 63.4507 29.3298 62.3107C28.7498 60.8107 28.3798 59.2507 27.9998 57.6907V57.6807Z" fill="#51D5F4"/>
<path d="M23.4497 66.7609C23.7997 68.2609 25.5697 69.8009 27.5397 69.1309C29.9697 68.1309 29.8397 65.4409 29.1597 63.4709C28.6197 61.6409 27.9597 59.6309 28.0097 57.7309C28.0097 57.7109 28.0097 57.6909 27.9997 57.6709C27.1997 59.0109 26.2697 60.2709 25.2397 61.4409C24.6497 62.1109 24.0197 62.7609 23.4697 63.4609C23.1997 64.5309 23.2397 65.7209 23.4597 66.7509L23.4497 66.7609Z" fill="#51D5F4"/>
<path opacity="0.46" d="M30.5699 65.7402C30.3199 64.5502 29.7699 63.4502 29.3299 62.3102C28.7599 60.8302 28.3899 59.2902 28.0099 57.7402C27.9599 59.6402 28.6199 61.6402 29.1599 63.4802C29.8299 65.4502 29.9699 68.1402 27.5399 69.1402C27.3499 69.2102 27.1599 69.2502 26.9699 69.2802C26.8299 69.3402 26.6699 69.3702 26.4999 69.3602C25.0999 69.2902 24.0299 69.1202 23.0599 68.0302C22.5999 67.5102 22.2599 66.9202 22.0999 66.2902C22.0599 66.5702 22.0499 66.8602 22.0799 67.1702C22.2299 68.8102 23.5699 70.6602 25.6499 71.0202C27.3999 71.3202 29.0799 70.4702 29.9399 69.2202C30.8199 67.9502 30.7399 66.5202 30.5799 65.7502L30.5699 65.7402Z" fill="#32AFCC"/>
<path opacity="0.46" d="M25.4 69.2111C25.28 68.9811 25.06 68.8911 25.01 68.8711C24.69 69.0811 24.36 69.2911 24.04 69.5111C24.1 69.5711 24.19 69.6711 24.31 69.7711C24.48 69.9211 24.57 70.0011 24.67 70.0411C24.9 70.1311 25.19 70.1011 25.36 69.9111C25.54 69.7011 25.5 69.4111 25.41 69.2211L25.4 69.2111Z" fill="white"/>
<path opacity="0.46" d="M23.3499 67.1409C23.4499 67.0609 24.4999 66.6609 24.4899 66.6209C24.3399 65.8309 24.4899 64.9809 24.8899 64.1809C25.2599 63.4209 25.8799 62.8109 26.3099 62.0909C26.7099 61.4309 27.0199 60.7109 27.2099 59.9609C26.6899 60.6709 26.1099 61.3209 25.5299 61.9809C25.0899 62.4809 24.6099 62.9409 24.2299 63.4809C23.5399 64.4709 23.0099 65.7009 23.3099 66.9409C23.3299 67.0009 23.3399 67.0609 23.3599 67.1209L23.3499 67.1409Z" fill="white"/>
<path d="M41.07 63.0811C40.57 63.6211 40.02 64.1311 39.43 64.5711C38.89 64.9811 38.3 65.3511 37.88 65.8811C37.67 66.1511 37.47 66.4711 37.42 66.9211C37.33 67.7011 37.78 68.6911 38.71 69.0511C39.5 69.3611 40.36 69.1211 40.87 68.6211C41.4 68.1111 41.5 67.4411 41.5 67.0711C41.5 66.4911 41.35 65.9311 41.25 65.3611C41.12 64.6111 41.1 63.8511 41.07 63.0811Z" fill="#51D5F4"/>
<path d="M38.0898 66.8703C38.1098 67.6003 38.7898 68.4903 39.7698 68.3603C40.9998 68.1303 41.1898 66.8603 41.0598 65.8803C40.9798 64.9803 40.8698 63.9803 41.0698 63.1003C41.0698 63.1003 41.0698 63.0803 41.0698 63.0703C40.5698 63.6203 40.0198 64.1203 39.4298 64.5603C39.0898 64.8203 38.7398 65.0603 38.4098 65.3303C38.1798 65.8003 38.0898 66.3603 38.0898 66.8603V66.8703Z" fill="#51D5F4"/>
<path opacity="0.46" d="M41.4997 67.0704C41.4997 66.4904 41.3497 65.9304 41.2497 65.3604C41.1297 64.6204 41.0997 63.8604 41.0697 63.1104C40.8697 63.9904 40.9797 64.9804 41.0597 65.8904C41.1897 66.8704 40.9897 68.1304 39.7697 68.3704C39.6697 68.3804 39.5797 68.3804 39.4897 68.3704C39.4197 68.3804 39.3397 68.3804 39.2597 68.3704C38.6197 68.2104 38.1297 68.0204 37.7897 67.4304C37.6197 67.1404 37.5197 66.8403 37.5097 66.5303C37.4597 66.6503 37.4297 66.7904 37.4097 66.9404C37.3197 67.7204 37.7697 68.7104 38.6997 69.0704C39.4897 69.3804 40.3497 69.1404 40.8697 68.6404C41.3997 68.1304 41.4997 67.4603 41.4997 67.0903V67.0704Z" fill="#32AFCC"/>
<path opacity="0.46" d="M38.7699 68.191C38.7399 68.071 38.6399 68.011 38.6199 68.001C38.4499 68.071 38.2799 68.141 38.1099 68.201C38.1299 68.231 38.1699 68.291 38.2099 68.351C38.2799 68.441 38.3099 68.481 38.3499 68.511C38.4499 68.571 38.5899 68.591 38.6799 68.511C38.7799 68.431 38.7899 68.291 38.7699 68.191Z" fill="white"/>
<path opacity="0.46" d="M38.0096 67.0403C38.0696 67.0103 38.5896 66.9303 38.5896 66.9103C38.5896 66.5303 38.7396 66.1503 39.0096 65.8103C39.2596 65.4903 39.5996 65.2703 39.8696 64.9703C40.1196 64.7003 40.3296 64.4003 40.4896 64.0703C40.1796 64.3503 39.8496 64.6003 39.5196 64.8503C39.2696 65.0403 38.9996 65.2103 38.7696 65.4303C38.3496 65.8303 37.9896 66.3503 38.0096 66.9503C38.0096 66.9803 38.0096 67.0103 38.0096 67.0403Z" fill="white"/>
<path d="M19.9697 94.5803C15.3597 94.5803 11.8997 96.3903 10.7397 97.2903L12.2797 118.22H111.47C113.78 105.82 117.01 81.0903 111.47 81.4003C105.93 81.7103 96.5997 85.1503 92.6297 86.8303C86.0897 89.4103 69.7197 95.1304 56.4897 97.3004C39.9597 100.01 25.7297 94.5903 19.9697 94.5903V94.5803Z" fill="#6E4931"/>
<path d="M79.54 71.9502C75.73 72.5202 71.82 74.7302 70.07 78.2702C69.33 79.7602 68.95 81.4902 69.03 83.1602C69.14 85.4502 70.85 87.3702 73.27 86.7002C74.85 86.2602 76.11 84.9102 76.94 83.5502C77.57 82.5202 78.05 81.4102 78.42 80.2702C78.8 79.1402 79.08 77.9802 79.34 76.8102C79.47 76.2302 79.59 75.6502 79.74 75.0802C79.85 74.6402 80 74.2002 80.2 73.7902C80.56 73.0502 81.08 72.4202 81.75 71.9402C81.85 71.8702 81.95 71.8102 82.05 71.7402C81.21 71.7402 80.37 71.8202 79.55 71.9502H79.54Z" fill="#63F23B"/>
<path d="M80.6399 72.7205C80.3399 73.1105 80.0699 73.5305 79.8399 73.9605C79.6299 74.3505 79.4399 74.7605 79.2699 75.1705C79.0999 75.5905 78.9499 76.0205 78.7999 76.4405C78.6299 76.9105 78.4699 77.3905 78.2999 77.8605C78.1199 78.3405 77.9299 78.8205 77.7099 79.2905C77.4999 79.7505 77.2599 80.1905 76.9799 80.6105C76.7099 81.0105 76.3999 81.3905 76.0499 81.7205C75.6999 82.0405 75.2899 82.3205 74.8499 82.5105C74.4599 82.6705 73.9899 82.7505 73.6299 82.4805C73.4599 82.3605 73.3399 82.1805 73.2599 81.9905C73.1399 81.7305 73.0699 81.4305 73.0499 81.1505C73.0099 80.5205 73.1999 79.8905 73.4599 79.3205C73.5899 79.0305 73.7399 78.7505 73.8899 78.4705C74.0399 78.2005 74.1899 77.9405 74.3499 77.6805C74.6599 77.1805 75.0099 76.7005 75.3799 76.2505C75.7499 75.8005 76.1499 75.3805 76.5699 74.9805C76.9899 74.5905 77.4199 74.2205 77.8799 73.8705C78.3399 73.5205 78.8199 73.2005 79.3099 72.8905C79.7999 72.5905 80.3099 72.3005 80.8299 72.0405C81.0199 71.9405 81.2099 71.8505 81.3999 71.7605C81.2999 71.7605 81.1999 71.7705 81.0999 71.7805C80.1899 72.1105 79.3199 72.5205 78.4799 73.0005C77.6599 73.4705 76.8899 74.0005 76.1699 74.6105C75.3899 75.2705 74.6799 76.0105 74.0399 76.8105C73.3999 77.6005 72.8399 78.4505 72.3299 79.3305C72.0699 79.8005 71.8099 80.2605 71.5999 80.7505C71.3799 81.2505 71.1999 81.7605 71.0299 82.2805C70.8699 82.7705 70.7199 83.2605 70.5899 83.7605C70.5399 83.9305 70.4999 84.1105 70.4199 84.2705C70.3599 84.3805 70.2699 84.4805 70.1499 84.4805C69.9699 84.4805 69.8099 84.3205 69.6999 84.2005C69.5799 84.0705 69.4899 83.9205 69.4199 83.7605C69.2599 83.3905 69.2099 82.9705 69.1899 82.5705C69.1699 82.1705 69.1899 81.7705 69.2199 81.3805C69.2499 81.0105 69.2899 80.6405 69.3499 80.2705C69.1099 81.2105 68.9999 82.2005 69.0499 83.1505C69.1599 85.4405 70.8699 87.3605 73.2899 86.6905C74.8699 86.2505 76.1299 84.9005 76.9599 83.5405C77.5899 82.5105 78.0699 81.4005 78.4399 80.2605C78.8199 79.1305 79.0999 77.9705 79.3599 76.8005C79.4899 76.2205 79.6099 75.6405 79.7599 75.0705C79.8699 74.6305 80.0199 74.1905 80.2199 73.7805C80.5799 73.0405 81.0999 72.4105 81.7699 71.9305C81.8699 71.8605 81.9699 71.8005 82.0699 71.7305C81.9299 71.7305 81.7899 71.7305 81.6499 71.7305C81.2799 72.0005 80.9599 72.3405 80.6699 72.7105L80.6399 72.7205Z" fill="#64D340"/>
<path d="M64.5797 81.8612C64.1797 81.3812 63.7296 80.9512 63.2496 80.5612C62.7996 80.2412 62.3197 79.9612 61.8297 79.7112C60.8997 79.3312 59.9196 79.0512 58.9196 78.9212C58.3896 78.8512 57.8596 78.8512 57.3196 78.8612C56.7896 78.8712 56.2596 78.9112 55.7296 78.9812C54.6796 79.1112 53.6396 79.3612 52.6596 79.7512C52.0396 80.0012 51.4496 80.3012 50.8896 80.6612C51.6596 80.5412 52.4196 80.9312 53.0196 81.3912C53.7496 81.9412 54.3696 82.6412 55.0196 83.2812C55.7296 83.9812 56.4696 84.6612 57.2796 85.2412C58.0896 85.8212 58.9896 86.3212 59.9496 86.6212C60.6896 86.8612 61.4696 86.9912 62.2496 87.0212C63.0496 87.0512 63.8896 86.9612 64.6096 86.5812C64.9496 86.4012 65.2597 86.1512 65.4797 85.8512C65.7697 85.4612 65.9196 84.9812 65.8896 84.4912C65.8396 83.4912 65.1997 82.6012 64.5797 81.8712V81.8612Z" fill="#63F23B"/>
<path d="M64.5798 81.8612C64.1798 81.3812 63.7298 80.9512 63.2498 80.5612C62.7998 80.2412 62.3198 79.9612 61.8298 79.7112C60.8998 79.3312 59.9198 79.0512 58.9198 78.9212C58.3898 78.8512 57.8598 78.8512 57.3198 78.8612C56.7898 78.8712 56.2598 78.9112 55.7298 78.9812C55.7298 78.9812 55.7298 78.9812 55.7198 78.9812C56.0798 78.9812 56.4398 78.9912 56.7898 79.0312C57.4498 79.1112 58.0798 79.2712 58.6998 79.5112C59.2798 79.7412 59.8398 80.0112 60.3898 80.3112C60.8298 80.5512 61.3498 80.8012 61.5998 81.2712C61.5998 81.2812 61.5998 81.3112 61.5798 81.3112C61.3598 81.3212 61.1398 81.2512 60.9398 81.1712C60.7198 81.0912 60.5098 80.9912 60.2898 80.9212C59.7798 80.7612 59.2498 80.6312 58.7198 80.5312C58.2698 80.4512 57.8098 80.4012 57.3498 80.3512C56.8898 80.3012 56.4298 80.2612 55.9698 80.2612C55.5798 80.2612 55.1698 80.2812 54.7898 80.3912C54.9798 80.4112 55.1698 80.4312 55.3598 80.4412C55.8398 80.4712 56.3298 80.4712 56.7998 80.5712C57.2598 80.6712 57.7198 80.8012 58.1598 80.9712C58.8398 81.2212 59.5098 81.5412 60.1298 81.9212C60.6398 82.2312 61.1298 82.5812 61.5498 83.0012C61.9198 83.3712 62.2998 83.8512 62.3198 84.3912C62.3198 84.6512 62.2398 84.8912 62.0898 85.1012C61.8898 85.3712 61.6098 85.5512 61.2898 85.6312C60.9298 85.7312 60.5398 85.7112 60.1698 85.6612C59.8098 85.6112 59.4598 85.5212 59.1098 85.4112C58.2798 85.1412 57.5098 84.7112 56.8098 84.2012C56.4398 83.9412 56.0898 83.6512 55.7498 83.3512C55.4298 83.0712 55.1298 82.7812 54.8298 82.4912C54.2298 81.9212 53.5898 81.3512 52.8098 81.0312C52.5698 80.9312 52.3098 80.8612 52.0498 80.8112C52.4098 80.9512 52.7498 81.1612 53.0498 81.3912C53.7798 81.9412 54.3998 82.6412 55.0498 83.2812C55.7598 83.9812 56.4998 84.6612 57.3098 85.2412C58.1198 85.8212 59.0198 86.3212 59.9798 86.6212C60.7198 86.8512 61.4998 86.9912 62.2798 87.0212C63.0798 87.0512 63.9198 86.9612 64.6398 86.5812C64.9798 86.4012 65.2898 86.1512 65.5198 85.8512C65.8098 85.4612 65.9598 84.9812 65.9298 84.4912C65.8798 83.4912 65.2398 82.6112 64.6198 81.8712L64.5798 81.8612Z" fill="#64D340"/>
<path d="M73.5399 77.6605C73.0199 78.3905 72.5799 79.1805 72.1999 80.0005C71.7899 80.8805 71.4599 81.7905 71.1499 82.7005C70.6799 84.0705 70.2599 85.5105 70.1399 86.9705C70.0099 88.5405 69.9799 90.1305 70.0199 91.7105C69.8599 91.2305 69.6599 90.7705 69.4499 90.3205C69.3399 90.0805 69.2199 89.8305 69.0999 89.5905C68.6899 88.6505 68.2099 87.7605 67.6199 86.9205C67.2899 86.4505 66.9399 86.0105 66.5499 85.5905C66.4299 85.4405 66.3199 85.3005 66.1899 85.1605C65.8199 84.7305 65.3899 84.3205 64.9299 83.9505C64.4899 83.6505 64.0399 83.3705 63.5799 83.1105C63.1099 82.8405 62.6299 82.5605 62.1399 82.3305C61.6199 82.0905 61.0799 81.8805 60.5099 81.7705C60.2199 81.7105 59.9199 81.6905 59.6299 81.7105C59.8899 81.7405 60.1499 81.8905 60.3899 81.9905C60.7299 82.1305 61.0599 82.3005 61.3999 82.4505C62.0499 82.7505 62.6499 83.0805 63.2199 83.5205C64.3299 84.3705 65.3499 85.3105 66.2099 86.4105C67.0899 87.5305 67.7699 88.7805 68.4199 90.0505C68.7599 90.7105 69.0699 91.3905 69.3099 92.0905C69.5599 92.8105 69.7299 93.5605 69.8699 94.3205C70.0399 95.1905 70.1699 96.0705 70.2699 96.9605C70.2999 97.2505 70.3299 97.5405 70.3599 97.8305C70.5699 97.7105 70.8299 97.6505 71.0699 97.6705C71.0699 97.6605 71.0699 97.6505 71.0699 97.6405C71.0499 96.9605 70.9699 96.2805 70.8699 95.6005C70.8699 95.5405 70.8499 95.4905 70.8399 95.4305C70.8299 95.2905 70.8199 95.1605 70.8099 95.0205C70.7799 94.6805 70.7599 94.3405 70.7299 94.0105C70.7299 94.0105 70.7299 94.0105 70.7299 93.9905C70.7499 93.3205 70.6799 92.6605 70.6399 91.9905C70.5999 91.3205 70.6099 90.6505 70.6299 89.9905C70.6599 88.7005 70.7499 87.4105 70.9299 86.1405C71.1099 84.8705 71.3699 83.6005 71.7499 82.3705C72.1199 81.1705 72.6199 80.0105 73.1699 78.8805C73.4699 78.2705 73.8299 77.6805 74.2299 77.1205C74.4199 76.8605 74.6299 76.6205 74.8399 76.3705C74.9999 76.1805 75.1299 75.9705 75.2599 75.7705C74.6299 76.3305 74.0599 76.9705 73.5599 77.6605H73.5399Z" fill="#405621"/>
<path opacity="0.58" d="M75.4199 73.9707C75.2999 73.8007 75.0599 73.8107 74.8799 73.8507C74.3299 73.9607 73.8099 74.3407 73.3999 74.7107C73.2299 74.8607 72.6799 75.2907 72.7399 75.6107C72.7299 75.6807 72.7399 75.7507 72.7399 75.8207C72.8299 76.1707 73.2399 76.1207 73.5099 76.0307C73.9199 75.8807 74.2899 75.6307 74.6199 75.3607C74.9099 75.1307 75.2399 74.8507 75.4099 74.5107C75.4899 74.3507 75.5299 74.1307 75.4099 73.9807L75.4199 73.9707Z" fill="white"/>
<path opacity="0.58" d="M71.9097 77.0306C71.9097 77.0306 71.9097 77.0106 71.8897 77.0006C71.8597 76.9706 71.7997 76.9907 71.7697 77.0107C71.6297 77.0307 71.5297 77.1507 71.4897 77.2907C71.4897 77.3107 71.4897 77.3406 71.4897 77.3606C71.4597 77.4406 71.5197 77.5206 71.6097 77.5206C71.6897 77.5206 71.7697 77.4706 71.8297 77.4306C71.8897 77.3806 71.9297 77.3206 71.9597 77.2506C72.0097 77.1606 71.9897 77.0606 71.9097 77.0206V77.0306Z" fill="white"/>
<path opacity="0.58" d="M56.7398 82.031C56.5698 81.831 56.3598 81.661 56.1498 81.501C55.8998 81.321 55.6398 81.141 55.3398 81.071C55.0298 80.991 54.7098 81.131 54.5998 81.441C54.4998 81.721 54.6398 81.961 54.8198 82.161C55.1398 82.521 55.7698 83.011 56.3098 82.971C56.4198 82.981 56.5298 82.981 56.6298 82.951C56.7998 82.891 56.9398 82.721 56.9598 82.531C56.9798 82.331 56.8698 82.161 56.7498 82.021L56.7398 82.031Z" fill="white"/>
<path opacity="0.58" d="M57.8797 83.4406C57.8797 83.4406 57.8397 83.3806 57.8097 83.3606C57.7897 83.3506 57.7697 83.3506 57.7497 83.3506C57.7497 83.3506 57.7397 83.3506 57.7297 83.3506C57.7097 83.3506 57.6897 83.3506 57.6797 83.3506C57.6597 83.3506 57.6397 83.3506 57.6297 83.3606C57.5797 83.3606 57.5297 83.3806 57.4997 83.4106C57.4797 83.4306 57.4597 83.4506 57.4497 83.4806C57.4397 83.5006 57.4297 83.5506 57.4397 83.5806C57.4397 83.6106 57.4397 83.6506 57.4397 83.6706C57.4497 83.7006 57.4697 83.7306 57.4997 83.7506C57.4997 83.7506 57.5097 83.7606 57.5197 83.7706C57.5397 83.7806 57.5697 83.7906 57.5997 83.7806C57.5997 83.7806 57.6197 83.7806 57.6297 83.7806C57.6597 83.7806 57.6797 83.7806 57.7097 83.7706C57.7497 83.7606 57.7797 83.7406 57.8097 83.7106C57.8597 83.6706 57.8797 83.6206 57.8897 83.5706C57.8897 83.5306 57.8897 83.4806 57.8897 83.4406H57.8797Z" fill="white"/>
<path d="M58.8598 95.6812C58.8398 95.5312 58.7597 95.4012 58.5897 95.3312C58.2297 95.1812 57.7397 95.4012 57.4197 95.5712C57.0497 95.7612 56.6997 95.9912 56.3897 96.2612C56.1597 96.4712 55.7997 96.8412 55.9997 97.1812C56.1997 97.5212 56.7397 97.4812 57.0697 97.4412C57.5597 97.3712 58.0698 97.2112 58.4898 96.9312C58.8198 96.7112 59.1197 96.3312 59.0197 95.9112C58.9897 95.8012 58.9397 95.7211 58.8598 95.6711V95.6812Z" fill="#6E4931"/>
<path d="M61.2099 95.241C61.0399 95.171 60.8099 95.161 60.5999 95.221C60.5599 95.221 60.5199 95.221 60.4799 95.221C60.1599 95.271 59.7999 95.541 59.8299 95.891C59.8599 96.241 60.2699 96.201 60.5099 96.121C60.8099 96.021 61.1899 95.791 61.2699 95.461C61.2899 95.381 61.2899 95.281 61.1999 95.241H61.2099Z" fill="#6E4931"/>
<path d="M67.6199 94.0712C67.3799 93.5712 66.5199 93.5312 66.0399 93.5712C65.6999 93.6012 65.3999 93.7812 65.2099 94.0712C65.0799 94.2912 65.0399 94.5812 65.1899 94.7712C65.2199 94.8212 65.2799 94.8712 65.3499 94.9212C65.7499 95.1412 66.3399 95.0712 66.7699 94.9912C67.1799 94.9112 67.8799 94.6212 67.6099 94.0712H67.6199Z" fill="#6E4931"/>
<path d="M70.8397 93.2804C70.5697 92.8604 70.0398 92.9204 69.6798 93.1904C69.3898 93.4004 69.0798 93.8304 69.2198 94.2004C69.2098 94.2604 69.2098 94.3204 69.2198 94.3904C69.2398 94.4704 69.2898 94.5204 69.3698 94.5304C69.9298 94.6104 71.3198 94.0304 70.8498 93.2904L70.8397 93.2804Z" fill="#6E4931"/>
<path d="M77.75 91.801C77.51 91.641 77.13 91.631 76.86 91.681C76.58 91.731 76.29 91.881 76.07 92.051C75.9 92.181 75.62 92.431 75.74 92.681C75.87 92.971 76.45 92.911 76.69 92.891C76.96 92.871 77.34 92.761 77.58 92.561C77.6 92.561 77.63 92.561 77.65 92.531C77.84 92.331 78.07 92.011 77.75 91.801Z" fill="#6E4931"/>
<path d="M80.2397 91.3506C80.1797 91.0906 79.8697 91.0406 79.6497 91.0606C79.1497 91.0906 78.4897 91.3606 78.2797 91.8506C78.1997 92.0306 78.1797 92.2706 78.3697 92.3906C78.5297 92.4806 78.7397 92.4606 78.9097 92.4306C79.2897 92.3606 79.7897 92.2206 80.0597 91.9306C80.1597 91.8306 80.2697 91.6706 80.2397 91.5206C80.2497 91.4706 80.2597 91.4106 80.2397 91.3506Z" fill="#6E4931"/>
<path d="M82.0699 91.0312C81.9599 90.8512 81.7499 90.8612 81.5899 90.9712C81.4999 91.0312 81.4299 91.1412 81.4399 91.2612C81.4399 91.3412 81.5099 91.3812 81.5699 91.3812C81.5899 91.3912 81.6099 91.4012 81.6299 91.4012C81.7399 91.4112 81.8199 91.3912 81.9199 91.3312C82.0099 91.2812 82.1499 91.1412 82.0699 91.0212V91.0312Z" fill="#6E4931"/>
<path d="M54.3099 96.981C54.2499 96.781 53.9399 96.711 53.7499 96.741C53.5299 96.771 53.3499 96.971 53.3199 97.191C53.3199 97.221 53.3199 97.251 53.3199 97.281C53.3099 97.341 53.3199 97.391 53.3699 97.431C53.3699 97.431 53.3899 97.441 53.3999 97.451C53.4299 97.481 53.4699 97.501 53.5099 97.511C53.5099 97.511 53.5199 97.511 53.5299 97.511C53.6799 97.561 53.8399 97.551 53.9899 97.491C54.1699 97.421 54.3899 97.211 54.3199 96.991L54.3099 96.981Z" fill="#6E4931"/>
<path d="M63.8799 94.6105C63.8799 94.6105 63.7998 94.5905 63.7598 94.6105C63.7298 94.6105 63.6998 94.6105 63.6698 94.6105C63.6498 94.6105 63.6298 94.6204 63.6098 94.6304C63.5998 94.6304 63.5798 94.6405 63.5698 94.6505C63.4698 94.7005 63.3598 94.8504 63.4598 94.9504C63.5098 95.0104 63.6098 95.0205 63.6798 95.0105C63.7998 94.9905 63.8998 94.9005 63.9398 94.7905C63.9698 94.7205 63.9499 94.6505 63.8799 94.6105Z" fill="#6E4931"/>
<path d="M72.7199 93.0611C72.7199 93.0611 72.7099 93.0611 72.6999 93.0511C72.6999 93.0411 72.6999 93.0311 72.6999 93.0211C72.6999 92.9511 72.6399 92.9211 72.5799 92.9111C72.5499 92.9111 72.4999 92.9111 72.4799 92.9311C72.4699 92.9311 72.4399 92.9511 72.4299 92.9611C72.4099 92.9811 72.3799 93.0011 72.3699 93.0211C72.3399 93.0611 72.3499 93.0511 72.3899 93.0011C72.3899 93.0011 72.3699 93.0211 72.3599 93.0311C72.3599 93.0411 72.3399 93.0511 72.3299 93.0711C72.3299 93.0811 72.3099 93.1011 72.2999 93.1111C72.2699 93.1711 72.2399 93.2511 72.2899 93.3111C72.3299 93.3711 72.4199 93.3711 72.4799 93.3411C72.5099 93.3211 72.5399 93.3011 72.5699 93.2811C72.5699 93.2811 72.5699 93.2811 72.5799 93.2811C72.6299 93.2811 72.6899 93.2411 72.7199 93.2011C72.7399 93.1611 72.7599 93.0911 72.7199 93.0611Z" fill="#6E4931"/>
<path d="M82.49 91.1211C81.91 91.1811 81.34 91.3411 80.78 91.5111C80.2 91.6911 79.63 91.8811 79.05 92.0611C78.47 92.2411 77.87 92.4211 77.26 92.4911C76.68 92.5611 76.09 92.5911 75.5 92.6311C74.87 92.6711 74.24 92.7211 73.61 92.8311C73.01 92.9311 72.42 93.1111 71.85 93.3211C70.73 93.7311 69.64 94.2111 68.47 94.4511C67.31 94.6911 66.13 94.7011 64.96 94.7611C64.33 94.8011 63.7 94.8411 63.08 94.9911C62.47 95.1311 61.88 95.3411 61.3 95.5511C60.2 95.9611 59.12 96.4011 57.97 96.6611C56.08 97.0811 54.14 97.1411 52.23 97.4311C52.24 97.4911 52.25 97.5511 52.27 97.6211C54.01 106.081 68.81 113.271 77.27 111.521C85.73 109.781 113.87 98.8411 112.13 90.3811C112.12 90.3111 82.89 91.1611 82.88 91.0911C82.75 91.0911 82.63 91.1111 82.51 91.1211H82.49Z" fill="#6E4931"/>
<path d="M55.3297 98.5603C55.9097 98.6503 56.4797 98.6804 57.0597 98.5704C57.6297 98.4704 58.1797 98.2503 58.6997 97.9903C59.6797 97.4903 60.5397 96.7803 61.5997 96.4203C62.1697 96.2303 62.7697 96.1403 63.3497 96.0303C63.9497 95.9103 64.5497 95.7904 65.1397 95.6404C66.2697 95.3604 67.3797 94.9904 68.5597 95.1204C69.1197 95.1904 69.6697 95.2903 70.2297 95.2703C70.8397 95.2403 71.3897 95.0403 71.9397 94.7703C72.4397 94.5203 72.9297 94.2503 73.4597 94.0603C73.9497 93.8903 74.4597 93.8104 74.9797 93.7904C75.5497 93.7704 76.1197 93.8204 76.6797 93.8204C77.2697 93.8204 77.8697 93.7703 78.4497 93.6303C79.5097 93.3703 80.4797 92.8304 81.5397 92.6104C82.0397 92.5104 82.5497 92.4603 83.0597 92.3803C83.0597 92.3803 83.0697 92.3803 83.0797 92.3803C83.0297 92.0303 82.9697 91.6704 82.8997 91.3204C82.8897 91.2504 82.8697 91.1804 82.8497 91.1104C82.7297 91.1104 82.5997 91.1304 82.4797 91.1404C81.8997 91.2004 81.3297 91.3603 80.7697 91.5303C80.1897 91.7103 79.6197 91.9004 79.0397 92.0804C78.4597 92.2604 77.8597 92.4404 77.2497 92.5104C76.6697 92.5804 76.0797 92.6104 75.4897 92.6504C74.8597 92.6904 74.2297 92.7403 73.5997 92.8503C72.9997 92.9503 72.4097 93.1303 71.8397 93.3403C70.7197 93.7503 69.6297 94.2304 68.4597 94.4704C67.2997 94.7104 66.1197 94.7203 64.9497 94.7803C64.3197 94.8203 63.6897 94.8604 63.0697 95.0104C62.4597 95.1504 61.8697 95.3604 61.2897 95.5704C60.1897 95.9804 59.1097 96.4204 57.9597 96.6804C56.0697 97.1004 54.1297 97.1603 52.2197 97.4503C52.2297 97.5103 52.2397 97.5704 52.2597 97.6404C52.3197 97.9504 52.3997 98.2604 52.4797 98.5704C53.4197 98.3804 54.3897 98.4304 55.3397 98.5704L55.3297 98.5603Z" fill="#6E4931"/>
<path d="M55.2299 97.7906C55.5799 97.6206 55.8899 97.3706 56.2599 97.2606C56.4699 97.2006 56.6899 97.1906 56.8999 97.1606C57.1299 97.1306 57.3599 97.0906 57.5899 97.0206C57.9999 96.8906 58.3799 96.6306 58.8099 96.5906C58.9999 96.5706 59.1899 96.5906 59.3799 96.6006C59.6199 96.6006 59.8599 96.5606 60.0699 96.4506C60.4499 96.2606 60.7499 95.9706 61.1699 95.8706C61.3799 95.8306 61.5899 95.8206 61.8099 95.8106C62.0599 95.8006 62.2999 95.7606 62.5499 95.7006C62.7899 95.6506 63.0299 95.5806 63.2699 95.5206C63.4699 95.4706 63.6599 95.4306 63.8699 95.4406C64.0999 95.4506 64.3399 95.4906 64.5699 95.4506C64.7999 95.4106 64.9999 95.2806 65.1899 95.1606C65.3599 95.0606 65.5299 94.9706 65.7299 94.9506C65.9399 94.9306 66.1499 94.9506 66.3499 94.9506C66.5799 94.9506 66.7999 94.9206 67.0299 94.9106C67.2199 94.9106 67.4099 94.9306 67.5899 94.9506C67.8299 94.9706 68.0699 94.9806 68.3099 94.9306C68.5299 94.8906 68.7399 94.8106 68.9399 94.7306C69.1199 94.6606 69.2999 94.5806 69.4899 94.5206C69.6999 94.4606 69.9299 94.4406 70.1499 94.4006C70.3599 94.3606 70.5399 94.2806 70.7399 94.2306C70.9399 94.1806 71.1399 94.1806 71.3399 94.1606C71.5899 94.1506 71.7999 94.0906 72.0199 93.9706C72.1899 93.8706 72.3399 93.7606 72.5099 93.6706C72.7999 93.5206 73.1399 93.4506 73.4599 93.3806C73.6199 93.3506 73.7799 93.3206 73.9299 93.3006C74.0999 93.2406 74.2799 93.2006 74.4499 93.1606C74.7499 93.1006 75.0499 93.0706 75.3499 93.0406C75.4699 93.0306 75.5899 93.0106 75.7099 93.0006C75.8799 92.9806 76.0499 92.9306 76.2299 92.9106C76.5999 92.8506 76.9599 92.8306 77.3299 92.8606C77.6699 92.8906 78.0099 92.9906 78.3499 92.9406C78.7399 92.8806 79.0699 92.6506 79.4099 92.4706C79.5699 92.3806 79.7399 92.3006 79.9199 92.2406C80.1199 92.1706 80.3299 92.1406 80.5299 92.1106C80.9399 92.0506 81.3599 92.0006 81.7499 91.8406C82.0999 91.6906 82.4599 91.6106 82.8299 91.5306C82.8599 91.5306 82.8799 91.5206 82.9099 91.5106C82.9099 91.4906 87.2699 89.6706 87.2699 89.6706C91.6099 89.2006 89.9599 87.6106 93.0199 87.2906C96.0799 86.9706 97.7599 85.3206 97.7499 85.3006C101.64 84.1806 107.48 82.0706 105.56 82.5106C105.44 82.5106 87.6999 87.5306 82.4499 91.1206C81.8699 91.1806 81.2999 91.3406 80.7399 91.5106C80.1599 91.6906 79.5899 91.8806 79.0099 92.0606C78.4299 92.2406 77.8299 92.4206 77.2199 92.4906C76.6399 92.5606 76.0499 92.5906 75.4599 92.6306C74.8299 92.6706 74.1999 92.7206 73.5699 92.8306C72.9699 92.9306 72.3899 93.1106 71.8099 93.3206C70.6899 93.7306 69.5999 94.2106 68.4299 94.4506C67.2699 94.6906 66.0899 94.7006 64.9199 94.7606C64.2899 94.8006 63.6599 94.8406 63.0399 94.9906C62.4299 95.1306 61.8399 95.3406 61.2599 95.5506C60.1599 95.9606 59.0799 96.4006 57.9299 96.6606C56.0399 97.0806 54.0999 97.1406 52.1899 97.4306C52.1999 97.4906 52.2099 97.5506 52.2299 97.6206C52.2699 97.8006 52.3099 97.9806 52.3499 98.1606C52.9399 98.2106 53.5599 98.1106 54.1399 98.0406C54.5099 97.9906 54.8699 97.9706 55.2099 97.8006L55.2299 97.7906Z" fill="#986749"/>
<path opacity="0.57" d="M79.12 100.551C78.1 100.771 77.16 101.301 76.24 101.781C75.35 102.251 74.43 102.711 73.43 102.901C72.37 103.111 71.28 103.051 70.21 103.081C69.64 103.101 69.06 103.141 68.5 103.261C67.94 103.381 67.4 103.551 66.87 103.741C65.83 104.111 64.83 104.571 63.79 104.921C63.3 105.091 62.8 105.241 62.27 105.281C61.82 105.321 61.36 105.281 60.92 105.221C59.92 105.081 58.95 104.821 57.93 104.851C57.3 104.871 56.67 104.951 56.04 105.041C59.64 108.961 65.7 111.501 71.29 110.351C76.84 109.211 104.37 103.101 106.15 98.1406C105.1 98.4906 80.19 100.311 79.11 100.551H79.12Z" fill="#8C664B"/>
<g opacity="0.57">
<path d="M55.7697 100.581C55.5297 100.611 55.3197 100.711 55.2297 100.891C55.1397 101.051 55.1297 101.261 55.1597 101.441C55.2397 101.881 55.5197 102.271 56.0197 102.111C56.4297 101.981 56.7597 101.571 56.7297 101.131C56.6997 100.721 56.1997 100.531 55.7797 100.581H55.7697Z" fill="#8C664B"/>
<path d="M57.8496 102.131C57.8496 102.131 57.8496 102.131 57.8496 102.121C57.8496 102.121 57.8496 102.111 57.8496 102.101C57.8496 102.081 57.8296 102.071 57.8096 102.061C57.7796 102.041 57.7396 102.031 57.7096 102.041C57.6796 102.041 57.6496 102.061 57.6196 102.081C57.5996 102.101 57.5796 102.111 57.5596 102.141C57.5396 102.161 57.5296 102.181 57.5196 102.211C57.5196 102.251 57.4996 102.291 57.5096 102.321C57.5096 102.331 57.5096 102.341 57.5096 102.351C57.5096 102.371 57.5096 102.391 57.5196 102.401C57.5296 102.421 57.5496 102.441 57.5696 102.451C57.6096 102.471 57.6596 102.451 57.6896 102.451C57.7696 102.421 57.8496 102.331 57.8596 102.241C57.8596 102.201 57.8596 102.171 57.8496 102.141V102.131Z" fill="#8C664B"/>
<path d="M54.9696 99.7607C54.9096 99.6707 54.8196 99.5907 54.6996 99.6307C54.6096 99.6607 54.5296 99.7307 54.4796 99.8207C54.3596 100.011 54.4496 100.281 54.7096 100.211C54.7396 100.211 54.7796 100.211 54.8096 100.201C54.9396 100.171 55.1096 100.001 55.0296 99.8607C55.0096 99.8307 54.9896 99.8007 54.9796 99.7707L54.9696 99.7607Z" fill="#8C664B"/>
<path d="M57.3699 103.391C57.2399 103.341 57.1099 103.361 57.0099 103.421C57.0099 103.421 56.9999 103.421 56.9899 103.421C56.8699 103.441 56.7599 103.531 56.6899 103.641C56.5799 103.821 56.5299 104.111 56.7099 104.261C56.9599 104.481 57.4099 104.221 57.5599 104.001C57.7099 103.771 57.6299 103.491 57.3699 103.391Z" fill="#8C664B"/>
<path d="M60.3397 102.431C60.2297 102.451 60.1697 102.661 60.3097 102.631C60.4197 102.611 60.4797 102.401 60.3397 102.431Z" fill="#8C664B"/>
<path d="M60.2596 98.5906C60.1196 98.5206 59.9596 98.5407 59.8196 98.6207C59.8196 98.6207 59.8096 98.6207 59.7996 98.6207C59.5996 98.6607 59.4196 98.8506 59.4296 99.0706C59.4496 99.2706 59.6296 99.4607 59.8296 99.4807C60.0496 99.5107 60.2796 99.3606 60.3896 99.1706C60.4996 98.9706 60.4796 98.7007 60.2596 98.5807V98.5906Z" fill="#8C664B"/>
<path d="M61.5396 98.4513C61.4096 98.4813 61.3296 98.7513 61.5096 98.7113C61.6396 98.6813 61.7196 98.4113 61.5396 98.4513Z" fill="#8C664B"/>
<path d="M64.4195 100.381C64.1895 100.451 63.9595 100.441 63.7995 100.311C63.6495 100.201 63.5595 100.011 63.5195 99.8314C63.4195 99.3914 63.5195 98.9314 64.0395 98.8714C64.4695 98.8314 64.9295 99.0814 65.0795 99.4914C65.2195 99.8814 64.8395 100.251 64.4195 100.371V100.381Z" fill="#8C664B"/>
<path d="M67.4795 98.3312C67.4195 98.3512 67.3595 98.3412 67.2995 98.3312C67.1595 98.3612 67.0095 98.2712 66.9295 98.1612C66.8595 98.0712 66.8495 97.9412 66.9095 97.8412C66.9595 97.7512 67.0395 97.6812 67.1395 97.6612C67.3595 97.6112 67.5495 97.7812 67.6195 97.9712C67.6695 98.1112 67.6495 98.2912 67.4795 98.3412V98.3312Z" fill="#8C664B"/>
<path d="M62.9497 103.301C62.9697 103.141 62.7497 103.051 62.6197 103.071C62.5897 103.071 62.5497 103.091 62.5197 103.101C62.2497 103.141 62.2797 103.421 62.4597 103.551C62.5397 103.611 62.6397 103.651 62.7297 103.631C62.8597 103.611 62.9097 103.511 62.9297 103.401C62.9297 103.371 62.9397 103.331 62.9497 103.301Z" fill="#8C664B"/>
<path d="M63.6299 97.3813C63.5299 97.4813 63.3999 97.5113 63.2899 97.5013C63.2899 97.5013 63.2799 97.5013 63.2699 97.5013C63.1499 97.5313 63.0099 97.4913 62.9099 97.4213C62.7399 97.3013 62.5799 97.0513 62.6799 96.8413C62.8199 96.5413 63.3399 96.6013 63.5599 96.7413C63.7899 96.8913 63.8299 97.1913 63.6299 97.3813Z" fill="#8C664B"/>
<path d="M66.7099 102.711C66.6099 102.831 66.4499 102.871 66.2899 102.861C66.2899 102.861 66.2799 102.861 66.2699 102.861C66.0699 102.901 65.8299 102.801 65.7599 102.591C65.6899 102.401 65.7899 102.151 65.9599 102.051C66.1499 101.941 66.4199 101.981 66.5899 102.111C66.7699 102.251 66.8599 102.511 66.6999 102.701L66.7099 102.711Z" fill="#8C664B"/>
<path d="M69.4896 102.011C69.3596 102.041 69.1796 101.821 69.3596 101.791C69.4896 101.761 69.6696 101.981 69.4896 102.011Z" fill="#8C664B"/>
<path d="M70.1997 98.4014C70.0797 98.4114 69.9797 98.4714 69.9297 98.5514C69.8797 98.6314 69.8797 98.7414 69.8997 98.8314C69.9397 99.0514 70.0797 99.2414 70.3297 99.1714C70.5397 99.1014 70.6997 98.9014 70.6897 98.6814C70.6797 98.4714 70.4297 98.3814 70.2097 98.4114L70.1997 98.4014Z" fill="#8C664B"/>
<path d="M72.4995 99.1115C72.4995 99.1115 72.4995 99.1115 72.4995 99.1015C72.4995 99.1015 72.4995 99.0915 72.4995 99.0815C72.4995 99.0615 72.4795 99.0515 72.4595 99.0415C72.4295 99.0215 72.3895 99.0115 72.3595 99.0215C72.3295 99.0215 72.2995 99.0415 72.2695 99.0615C72.2495 99.0815 72.2295 99.0915 72.2095 99.1215C72.1895 99.1415 72.1795 99.1615 72.1695 99.1915C72.1695 99.2315 72.1495 99.2715 72.1595 99.3015C72.1595 99.3115 72.1595 99.3215 72.1595 99.3315C72.1595 99.3515 72.1595 99.3715 72.1695 99.3815C72.1795 99.4015 72.1995 99.4215 72.2195 99.4315C72.2595 99.4515 72.3095 99.4315 72.3395 99.4315C72.4195 99.4015 72.4995 99.3115 72.5095 99.2215C72.5095 99.1815 72.5095 99.1515 72.4995 99.1215V99.1115Z" fill="#8C664B"/>
<path d="M75.1096 101.201C75.1096 101.201 75.0296 101.231 74.9996 101.251C74.9096 101.271 74.8396 101.361 74.8296 101.451C74.8096 101.521 74.8296 101.601 74.8996 101.651C74.9496 101.691 75.0196 101.711 75.0896 101.701C75.2296 101.671 75.3096 101.521 75.2896 101.391C75.2896 101.291 75.2196 101.191 75.1096 101.211V101.201Z" fill="#8C664B"/>
<path d="M69.6196 96.7412C69.5596 96.6512 69.4696 96.5712 69.3496 96.6112C69.2596 96.6412 69.1795 96.7112 69.1295 96.8012C69.0095 96.9912 69.0996 97.2612 69.3596 97.1912C69.3896 97.1912 69.4296 97.1912 69.4596 97.1812C69.5896 97.1512 69.7596 96.9812 69.6796 96.8412C69.6596 96.8112 69.6495 96.7812 69.6295 96.7512L69.6196 96.7412Z" fill="#8C664B"/>
<path d="M72.0095 100.371C71.8795 100.321 71.7495 100.341 71.6495 100.401C71.6495 100.401 71.6395 100.401 71.6295 100.401C71.5095 100.421 71.3995 100.511 71.3295 100.621C71.2195 100.801 71.1695 101.091 71.3495 101.241C71.5995 101.461 72.0495 101.201 72.1995 100.981C72.3495 100.751 72.2695 100.461 72.0095 100.371Z" fill="#8C664B"/>
<path d="M74.9799 99.4209C74.8699 99.4409 74.8098 99.6509 74.9498 99.6209C75.0598 99.6009 75.1199 99.3909 74.9799 99.4209Z" fill="#8C664B"/>
<path d="M74.9095 95.5711C74.7695 95.5011 74.6095 95.5211 74.4695 95.6011C74.4695 95.6011 74.4595 95.6011 74.4495 95.6011C74.2495 95.6411 74.0695 95.8311 74.0795 96.0511C74.0995 96.2511 74.2795 96.4411 74.4795 96.4611C74.6995 96.4911 74.9295 96.3411 75.0395 96.1511C75.1495 95.9511 75.1295 95.6811 74.9095 95.5611V95.5711Z" fill="#8C664B"/>
<path d="M76.1895 95.4308C76.0595 95.4608 75.9795 95.7308 76.1595 95.6908C76.2895 95.6608 76.3695 95.3908 76.1895 95.4308Z" fill="#8C664B"/>
<path d="M78.3198 97.9213C78.1498 97.9713 77.9698 97.9613 77.8498 97.8713C77.7398 97.7913 77.6698 97.6413 77.6398 97.5113C77.5598 97.1813 77.6398 96.8313 78.0298 96.7913C78.3598 96.7613 78.6998 96.9413 78.8098 97.2613C78.9198 97.5513 78.6298 97.8313 78.3198 97.9213Z" fill="#8C664B"/>
<path d="M82.1294 95.3107C82.0694 95.3307 82.0094 95.3207 81.9494 95.3107C81.8094 95.3407 81.6594 95.2507 81.5794 95.1407C81.5094 95.0507 81.4994 94.9207 81.5594 94.8207C81.6094 94.7307 81.6894 94.6607 81.7894 94.6407C82.0094 94.5907 82.1994 94.7607 82.2694 94.9507C82.3194 95.0907 82.2994 95.2707 82.1294 95.3207V95.3107Z" fill="#8C664B"/>
<path d="M77.5996 100.281C77.6196 100.121 77.3996 100.021 77.2696 100.051C77.2396 100.051 77.1996 100.071 77.1696 100.081C76.8996 100.121 76.9296 100.401 77.1096 100.531C77.1896 100.591 77.2796 100.631 77.3796 100.611C77.5096 100.591 77.5596 100.491 77.5796 100.381C77.5796 100.351 77.5896 100.311 77.5996 100.281Z" fill="#8C664B"/>
<path d="M78.8396 94.8611C78.7796 94.9211 78.6996 94.9411 78.6196 94.9311C78.6196 94.9311 78.6196 94.9311 78.6096 94.9311C78.5296 94.9511 78.4496 94.9311 78.3796 94.8811C78.2696 94.8011 78.1696 94.6511 78.2396 94.5111C78.3296 94.3211 78.6596 94.3611 78.7996 94.4511C78.9396 94.5511 78.9696 94.7311 78.8396 94.8511V94.8611Z" fill="#8C664B"/>
<path d="M81.3598 99.6906C81.2598 99.8106 81.0998 99.8506 80.9398 99.8406C80.9398 99.8406 80.9298 99.8406 80.9198 99.8406C80.7198 99.8806 80.4798 99.7806 80.4098 99.5706C80.3398 99.3806 80.4398 99.1306 80.6098 99.0306C80.7998 98.9206 81.0698 98.9606 81.2398 99.0906C81.4198 99.2306 81.5098 99.4906 81.3498 99.6806L81.3598 99.6906Z" fill="#8C664B"/>
</g>
<g opacity="0.57">
<path d="M70.4197 103.97C70.4197 103.97 70.3597 103.97 70.3397 103.97C70.2797 103.98 70.2097 103.94 70.1797 103.89C70.1497 103.85 70.1397 103.79 70.1797 103.75C70.1997 103.71 70.2397 103.68 70.2797 103.67C70.3797 103.65 70.4597 103.72 70.4897 103.81C70.5097 103.88 70.4997 103.95 70.4297 103.98L70.4197 103.97Z" fill="#8C664B"/>
</g>
<g opacity="0.57">
<path d="M72.2798 103.731C72.2898 103.811 72.3298 103.881 72.3898 103.911C72.4498 103.941 72.5198 103.941 72.5798 103.931C72.7298 103.901 72.8598 103.801 72.8098 103.641C72.7598 103.501 72.6198 103.391 72.4698 103.401C72.3298 103.401 72.2698 103.581 72.2898 103.731H72.2798Z" fill="#8C664B"/>
<path d="M73.3399 103.231C73.3299 103.231 73.3199 103.241 73.3199 103.251C73.3199 103.271 73.3099 103.281 73.3199 103.301C73.3199 103.321 73.3299 103.331 73.3399 103.351C73.3399 103.361 73.3599 103.371 73.3699 103.381C73.3699 103.381 73.3899 103.401 73.4099 103.401C73.4299 103.401 73.4499 103.411 73.4699 103.401H73.4799C73.4799 103.401 73.4999 103.401 73.5099 103.401C73.5199 103.401 73.5299 103.381 73.5399 103.371C73.5399 103.351 73.5399 103.331 73.5399 103.311C73.5199 103.271 73.4799 103.231 73.4299 103.221C73.4099 103.221 73.3899 103.221 73.3799 103.221L73.3399 103.231Z" fill="#8C664B"/>
<path d="M76.5499 103.291C76.5499 103.291 76.4799 103.391 76.5399 103.381C76.5899 103.381 76.6099 103.281 76.5499 103.291Z" fill="#8C664B"/>
<path d="M76.4397 102.391C76.3797 102.361 76.3097 102.371 76.2497 102.401C76.1597 102.421 76.0797 102.501 76.0897 102.601C76.0897 102.691 76.1797 102.771 76.2697 102.781C76.3697 102.791 76.4697 102.731 76.5197 102.641C76.5697 102.551 76.5597 102.431 76.4597 102.381L76.4397 102.391Z" fill="#8C664B"/>
<path d="M77.08 101.531C77.02 101.541 76.99 101.661 77.07 101.641C77.13 101.631 77.16 101.511 77.08 101.531Z" fill="#8C664B"/>
<path d="M78.3399 102.951C78.2399 102.981 78.1299 102.971 78.0599 102.921C77.9899 102.871 77.9499 102.791 77.9399 102.711C77.8999 102.521 77.9399 102.311 78.1699 102.291C78.3599 102.271 78.5599 102.381 78.6299 102.571C78.6899 102.741 78.5199 102.911 78.3399 102.961V102.951Z" fill="#8C664B"/>
<path d="M79.71 101.481C79.71 101.481 79.66 101.481 79.63 101.481C79.57 101.491 79.5 101.451 79.47 101.401C79.44 101.361 79.43 101.301 79.46 101.261C79.48 101.221 79.52 101.191 79.56 101.181C79.66 101.161 79.74 101.231 79.77 101.321C79.79 101.381 79.78 101.461 79.71 101.481Z" fill="#8C664B"/>
<path d="M77.7099 103.681C77.7099 103.611 77.6199 103.571 77.5599 103.581C77.5399 103.581 77.5299 103.581 77.5199 103.591C77.3999 103.611 77.4099 103.731 77.4899 103.791C77.5199 103.821 77.5699 103.831 77.6099 103.831C77.6699 103.831 77.6899 103.781 77.6999 103.731C77.6999 103.711 77.6999 103.701 77.6999 103.691L77.7099 103.681Z" fill="#8C664B"/>
<path d="M79.0699 101.461C79.0699 101.461 78.9699 101.521 78.9199 101.511C78.8699 101.521 78.8099 101.511 78.7599 101.471C78.6799 101.421 78.6099 101.311 78.6599 101.211C78.7199 101.081 78.9499 101.101 79.0499 101.171C79.1499 101.241 79.1699 101.371 79.0799 101.451L79.0699 101.461Z" fill="#8C664B"/>
<path d="M79.6297 103.331C79.6297 103.331 79.5697 103.371 79.5397 103.361C79.4897 103.361 79.4397 103.351 79.4297 103.301C79.4097 103.261 79.4297 103.201 79.4697 103.181C79.5097 103.161 79.5697 103.171 79.6097 103.191C79.6497 103.221 79.6697 103.281 79.6297 103.321V103.331Z" fill="#8C664B"/>
<path d="M80.6 103.111C80.54 103.121 80.46 103.031 80.54 103.011C80.6 103.001 80.68 103.091 80.6 103.111Z" fill="#8C664B"/>
<path d="M80.6597 100.771C80.6597 100.771 80.5897 100.701 80.5397 100.711C80.4997 100.721 80.4697 100.751 80.4397 100.791C80.3897 100.871 80.4297 100.991 80.5397 100.961C80.5597 100.961 80.5697 100.961 80.5797 100.961C80.6397 100.951 80.7097 100.871 80.6797 100.811C80.6797 100.801 80.6597 100.781 80.6497 100.771H80.6597Z" fill="#8C664B"/>
<path d="M75.1399 103.691C75.1499 103.741 75.2599 103.771 75.2399 103.701C75.2299 103.651 75.1299 103.621 75.1399 103.691Z" fill="#8C664B"/>
<path d="M74.7098 102.881C74.7098 102.881 74.7598 102.971 74.7598 103.011C74.7698 103.061 74.7598 103.111 74.7298 103.151C74.6798 103.221 74.5898 103.281 74.4998 103.241C74.3798 103.191 74.3998 102.991 74.4598 102.901C74.5198 102.811 74.6298 102.791 74.7098 102.871V102.881Z" fill="#8C664B"/>
</g>
<path d="M53.7098 96.9906C53.6498 96.8406 53.4898 96.7706 53.3498 96.7406C53.0298 96.6606 52.6198 96.7406 52.3998 97.0006C52.2798 97.1406 52.2298 97.3306 52.3298 97.4906C52.4198 97.6306 52.5798 97.6806 52.7298 97.6206C52.7398 97.6206 52.7498 97.6106 52.7598 97.6006C53.0098 97.6606 53.3198 97.5906 53.5098 97.4506C53.6498 97.3506 53.7798 97.1706 53.7098 97.0006V96.9906Z" fill="#5A3B25"/>
<path d="M55.8998 96.2304C55.6098 96.1204 55.2598 96.1604 54.9598 96.2304C54.6398 96.3004 54.2198 96.4404 54.0698 96.7604C53.9398 97.0404 54.1698 97.1704 54.4098 97.2304C54.5198 97.3304 54.7098 97.3704 54.8398 97.3904C55.2998 97.4504 56.0798 97.3904 56.2398 96.8704C56.3298 96.5904 56.1598 96.3304 55.8998 96.2304Z" fill="#5A3B25"/>
<path d="M59.84 95.6507C59.54 95.5307 59.17 95.6907 58.94 95.8907C58.83 95.9807 58.71 96.1307 58.74 96.2807C58.74 96.3107 58.75 96.3307 58.76 96.3507C58.76 96.4107 58.81 96.4707 58.89 96.4807C58.93 96.4807 58.98 96.4807 59.03 96.4807C59.03 96.4807 59.03 96.4807 59.04 96.4807C59.04 96.4807 59.05 96.4807 59.06 96.4807C59.29 96.4707 59.54 96.3807 59.72 96.2807C59.85 96.2107 59.98 96.1207 60.03 95.9707C60.08 95.8107 59.99 95.6907 59.84 95.6407V95.6507Z" fill="#5A3B25"/>
<path d="M62.9799 94.4703C62.4599 94.2903 61.9099 94.4403 61.5299 94.8203C61.3799 94.9703 61.2199 95.1903 61.2299 95.4203C61.2499 95.6503 61.4199 95.6203 61.5999 95.6103C61.8599 95.7203 62.1999 95.6603 62.4599 95.5903C62.7599 95.5103 63.1099 95.3803 63.2799 95.1103C63.4799 94.8103 63.2799 94.5703 62.9799 94.4603V94.4703Z" fill="#5A3B25"/>
<path d="M65.4699 94.471C65.2199 94.201 64.7299 94.251 64.4099 94.321C64.1599 94.381 63.5099 94.721 63.8299 95.061C63.8299 95.101 63.8699 95.141 63.9099 95.171C64.1999 95.341 64.6999 95.271 64.9999 95.191C65.2799 95.111 65.7699 94.801 65.4699 94.471Z" fill="#5A3B25"/>
<path d="M69.06 93.7008C68.67 93.6208 68.17 93.6808 67.81 93.8608C67.64 93.9508 67.42 94.1108 67.4 94.3208C67.4 94.3608 67.4 94.4008 67.41 94.4308C67.4 94.4508 67.39 94.4708 67.37 94.4908C67.31 94.6108 67.38 94.7208 67.5 94.7508C68.03 94.8708 68.6 94.7308 69.07 94.4808C69.23 94.3908 69.43 94.2508 69.45 94.0508C69.47 93.8208 69.24 93.7508 69.06 93.7108V93.7008Z" fill="#5A3B25"/>
<path d="M72.2799 93.011C71.8999 92.851 71.4399 92.981 71.1099 93.221C70.8999 93.281 70.7199 93.411 70.5999 93.671C70.5799 93.721 70.5799 93.811 70.6299 93.841C71.0999 94.241 71.9499 93.711 72.2899 93.351C72.3699 93.261 72.4299 93.071 72.2899 93.001L72.2799 93.011Z" fill="#5A3B25"/>
<path d="M74.73 92.4911C74.37 92.2511 73.94 92.3411 73.54 92.4211C73.28 92.4711 72.62 92.7511 73.01 93.0911C73.23 93.2911 73.65 93.2811 73.92 93.2511C74.26 93.2111 74.65 93.0511 74.76 92.6911C74.78 92.6311 74.79 92.5311 74.73 92.4911Z" fill="#5A3B25"/>
<path d="M75.6098 92.0207C75.2998 91.9907 74.8698 92.1707 74.8298 92.5207C74.8098 92.7007 74.9698 92.8807 75.1298 92.9307C75.3398 93.0107 75.5598 92.8607 75.7198 92.7207C75.9498 92.5207 76.0098 92.0407 75.6098 92.0107V92.0207Z" fill="#5A3B25"/>
<path d="M78.51 92.3812C78.53 92.3212 78.52 92.2612 78.47 92.2212C78.33 91.9812 77.94 92.1112 77.75 92.3012C77.69 92.3612 77.66 92.4512 77.69 92.5412C77.69 92.5712 77.71 92.6112 77.73 92.6412C77.77 92.7012 77.83 92.7212 77.89 92.7112C78.07 92.7512 78.31 92.6512 78.43 92.5212C78.45 92.4912 78.48 92.4612 78.49 92.4212C78.49 92.4112 78.49 92.4012 78.5 92.3912L78.51 92.3812Z" fill="#5A3B25"/>
<path d="M86.3996 89.5706C86.4196 89.5106 86.4096 89.4506 86.3596 89.4106C86.2196 89.1706 85.8296 89.3006 85.6396 89.4906C85.5796 89.5506 85.5496 89.6406 85.5796 89.7306C85.5796 89.7606 85.5996 89.8006 85.6196 89.8306C85.6596 89.8906 85.7196 89.9106 85.7796 89.9006C85.9596 89.9406 86.1996 89.8406 86.3196 89.7106C86.3396 89.6806 86.3696 89.6506 86.3796 89.6106C86.3796 89.6006 86.3796 89.5906 86.3896 89.5806L86.3996 89.5706Z" fill="#5A3B25"/>
<path d="M81.7296 91.0111C81.5796 90.8311 81.2896 90.8311 81.0696 90.8711C80.9096 90.8511 80.7296 90.8711 80.5996 90.9211C80.3396 90.9911 79.9196 91.2411 80.0396 91.5711C80.1496 91.8511 80.5596 91.7911 80.7896 91.7311C81.0996 91.6611 81.4396 91.5511 81.6796 91.3411C81.7696 91.2611 81.7996 91.1111 81.7196 91.0111H81.7296Z" fill="#5A3B25"/>
<path d="M85.07 89.5307C84.92 89.3507 84.63 89.3507 84.41 89.3907C84.25 89.3707 84.07 89.3907 83.94 89.4407C83.68 89.5107 83.26 89.7607 83.38 90.0907C83.49 90.3707 83.9 90.3107 84.13 90.2507C84.44 90.1807 84.78 90.0707 85.02 89.8607C85.11 89.7807 85.14 89.6307 85.06 89.5307H85.07Z" fill="#5A3B25"/>
<path d="M82.42 90.9007C82.38 90.8307 82.29 90.8106 82.21 90.8406C82.15 90.8706 82.1 90.9107 82.06 90.9707C82.04 90.9907 82.02 91.0207 82 91.0507C82 91.0607 81.99 91.0707 81.98 91.0807C81.98 91.0807 81.98 91.0806 81.98 91.0906C81.98 91.0906 81.98 91.1007 81.98 91.1107C81.96 91.1907 81.99 91.2706 82.08 91.2806C82.08 91.2806 82.08 91.2806 82.09 91.2806C82.11 91.2806 82.13 91.2806 82.15 91.2806C82.24 91.2806 82.34 91.2007 82.38 91.1207C82.38 91.1107 82.4 91.0907 82.41 91.0807C82.44 91.0607 82.47 91.0206 82.48 90.9906C82.49 90.9506 82.48 90.9007 82.43 90.9007H82.42Z" fill="#5A3B25"/>
<path d="M54.32 97.1605C54.19 96.9505 53.92 96.9905 53.7 97.1105C53.5 97.1505 53.32 97.2505 53.26 97.4505C53.15 97.8205 53.64 97.7805 53.86 97.7305C54.1 97.6805 54.5 97.4605 54.32 97.1505V97.1605Z" fill="#82583D"/>
<path d="M57.0498 96.6507C56.9998 96.6307 56.9398 96.6307 56.8898 96.6507C56.8698 96.6507 56.8498 96.6507 56.8298 96.6507C56.6998 96.6707 56.6198 96.7907 56.5898 96.9107C56.5798 96.9607 56.6098 97.0107 56.6498 97.0307C56.7898 97.0907 56.9498 97.0307 57.0498 96.9307C57.1098 96.8707 57.1698 96.6907 57.0498 96.6507Z" fill="#82583D"/>
<path d="M60.2398 95.8412C60.1898 95.8212 60.1298 95.8212 60.0798 95.8412C59.9798 95.8412 59.8798 95.9012 59.8198 95.9812C59.7698 96.0412 59.7298 96.1212 59.7598 96.2012C59.7998 96.3012 59.9098 96.3412 60.0198 96.3212C60.1698 96.2912 60.2798 96.1612 60.3098 96.0112C60.3198 95.9512 60.2898 95.8812 60.2298 95.8612L60.2398 95.8412Z" fill="#82583D"/>
<path d="M63.5896 94.8112C63.5896 94.8112 63.5296 94.7912 63.4896 94.7812C63.4796 94.7812 63.4696 94.7612 63.4496 94.7512C63.3496 94.7012 63.2196 94.7212 63.1196 94.7512C62.9396 94.8212 62.6796 95.0612 62.8696 95.2512C63.0096 95.3812 63.2796 95.3512 63.4396 95.2812C63.5496 95.2312 63.6396 95.1412 63.6696 95.0312C63.6896 94.9412 63.6696 94.8412 63.5796 94.8012L63.5896 94.8112Z" fill="#82583D"/>
<path d="M66.7799 94.4511C66.7799 94.4511 66.6999 94.4011 66.6399 94.4011C66.6399 94.4011 66.6299 94.4011 66.6199 94.3911C66.5399 94.3411 66.4299 94.3411 66.3299 94.3611C66.1499 94.4011 65.8899 94.5411 65.8699 94.7611C65.8499 95.0211 66.2299 94.9811 66.3799 94.9511C66.5099 94.9311 66.6499 94.8911 66.7399 94.8011C66.8299 94.7111 66.8699 94.5611 66.7699 94.4711L66.7799 94.4511Z" fill="#82583D"/>
<path d="M70.2799 93.8111C70.1099 93.7311 69.8699 93.8111 69.7599 93.9511C69.7099 94.0211 69.6499 94.1311 69.7299 94.2111C69.7599 94.2411 69.7899 94.2511 69.8299 94.2511C69.8999 94.2711 69.9699 94.2511 70.0299 94.2411C70.1499 94.2011 70.2599 94.1411 70.3199 94.0311C70.3599 93.9611 70.3799 93.8511 70.2899 93.8111H70.2799Z" fill="#82583D"/>
<path d="M72.9696 92.9611C72.9696 92.9611 72.8496 92.9011 72.7696 92.9211C72.6096 92.9511 72.4296 93.0711 72.4096 93.2411C72.3996 93.3211 72.4296 93.3911 72.4896 93.4311C72.5596 93.4911 72.6396 93.4911 72.7196 93.4811C72.9096 93.4611 73.1596 93.3711 73.1796 93.1511C73.1896 93.0011 73.0896 92.9511 72.9696 92.9511V92.9611Z" fill="#82583D"/>
<path d="M76.3997 92.4311C76.3997 92.4311 76.3197 92.3911 76.2697 92.3811C76.2097 92.3511 76.1297 92.3311 76.0697 92.3311C75.8797 92.3311 75.6297 92.4211 75.6097 92.6411C75.5897 92.8211 75.7997 92.8611 75.9397 92.8611C76.1197 92.8611 76.3297 92.8011 76.4297 92.6411C76.4697 92.5711 76.4797 92.4811 76.3997 92.4311Z" fill="#82583D"/>
<path d="M85.1699 89.3204C85.0099 89.2304 84.7399 89.2804 84.5899 89.3804C84.5499 89.4104 84.5199 89.4504 84.4999 89.5004C84.4499 89.5604 84.4299 89.6304 84.4599 89.7104C84.5299 89.8604 84.7199 89.8104 84.8399 89.7704C84.9899 89.7204 85.1399 89.6204 85.2099 89.4804C85.2399 89.4204 85.2099 89.3604 85.1599 89.3304L85.1699 89.3204Z" fill="#82583D"/>
<path d="M81.9297 91.2509C81.8597 91.1909 81.7797 91.1909 81.7097 91.2209C81.6297 91.2209 81.5497 91.2809 81.5097 91.3509C81.4897 91.3909 81.4597 91.4509 81.4897 91.4909C81.5297 91.5509 81.5797 91.5909 81.6497 91.5909C81.7197 91.5909 81.8097 91.5609 81.8597 91.5209C81.9097 91.4809 81.9397 91.4409 81.9597 91.3809C81.9697 91.3409 81.9597 91.2809 81.9297 91.2509Z" fill="#82583D"/>
<path d="M54.0498 70.421C48.6498 67.271 43.5198 67.381 38.5798 71.041C36.5098 72.581 35.6398 74.001 34.9798 76.241C34.0798 79.331 35.9598 81.781 39.0998 82.341C41.1498 82.701 43.4398 81.781 45.0898 80.651C46.3398 79.801 47.2098 78.791 48.1298 77.751C49.0398 76.711 49.7098 75.671 50.5998 74.681C51.0398 74.191 51.3798 73.801 51.9298 73.411C52.3498 73.111 52.7498 72.891 53.3098 72.691C54.3098 72.331 55.3698 72.211 56.4498 72.411C56.6098 72.441 56.7598 72.481 56.9198 72.531C55.9798 71.641 55.2098 71.101 54.0398 70.421H54.0498Z" fill="#67AD14"/>
<path d="M54.6497 72.0803C54.0397 72.1703 53.3397 72.3703 52.7897 72.5303C52.2397 72.7003 51.8297 72.8303 51.3697 73.0803C50.9097 73.3303 50.5897 73.5703 50.1797 73.9103C49.7697 74.2503 49.3697 74.6503 48.9697 75.0403C48.5697 75.4303 48.1297 75.8603 47.6897 76.2503C47.2497 76.6303 46.7797 77.0103 46.2797 77.3203C45.7797 77.6303 45.2797 77.8903 44.7097 78.0803C44.1397 78.2603 43.5297 78.3703 42.9197 78.3503C42.3097 78.3303 41.7797 78.1503 41.3797 77.6903C41.1997 77.4703 41.1197 77.2003 41.0797 76.9403C41.0197 76.5703 41.0297 76.2203 41.1297 75.8703C41.3497 75.1003 41.8197 74.5303 42.3897 73.9903C42.6797 73.7203 42.9997 73.4903 43.3197 73.2603C43.6297 73.0303 43.9297 72.8303 44.2697 72.6303C44.9197 72.2503 45.5697 71.9203 46.2797 71.6303C46.9897 71.3503 47.7197 71.0603 48.4597 70.8403C49.1997 70.6203 49.9297 70.5603 50.7097 70.6603C51.4897 70.7603 52.2297 71.0203 53.0197 71.1303C53.8097 71.2403 54.6397 71.3803 55.4097 71.6003C55.6897 71.6803 55.9597 71.7903 56.2297 71.8803C56.1497 71.8103 55.9797 71.6703 55.9197 71.6203C55.8797 71.5903 55.9097 71.6203 55.9097 71.6203C54.6497 71.0803 53.2997 70.8903 52.0097 70.4703C50.7297 70.0503 49.4497 69.8903 48.1797 70.2103C46.7997 70.5603 45.5297 70.9603 44.2797 71.4903C43.0297 72.0203 41.9997 72.6703 40.9197 73.4203C40.3497 73.8103 39.8497 74.2403 39.3497 74.7003C38.8497 75.1603 38.3897 75.6803 37.9597 76.1703C37.5297 76.6703 37.1497 77.1503 36.7597 77.6603C36.6197 77.8403 36.4897 78.0403 36.3097 78.1503C36.1397 78.2703 36.0497 78.3203 35.8397 78.2503C35.6297 78.1803 35.4497 77.9203 35.3497 77.7203C35.2497 77.5103 35.1797 77.3003 35.1597 77.0803C35.1097 76.5703 35.1997 76.0903 35.3397 75.6103C35.4797 75.1303 35.6897 74.6903 35.8897 74.2503C36.0997 73.8103 36.3197 73.4303 36.5497 73.0203C35.9097 74.0903 35.1797 74.9403 34.9297 76.2403C34.3097 79.3703 35.8497 81.7703 39.1097 82.3403C41.2297 82.7103 43.4297 81.7703 45.1097 80.6503C46.3797 79.8003 47.2197 78.7903 48.1497 77.7503C49.0697 76.7103 49.7297 75.6703 50.6197 74.6803C51.0597 74.1903 51.3997 73.8003 51.9497 73.4103C52.3697 73.1103 52.7697 72.8903 53.3297 72.6903C54.3297 72.3303 55.3897 72.2103 56.4697 72.4103C56.6297 72.4403 56.7897 72.4803 56.9397 72.5203C56.7997 72.3803 56.6497 72.2503 56.5097 72.1103C55.8897 72.0003 55.2797 71.9803 54.6697 72.0703L54.6497 72.0803Z" fill="#409100"/>
<path d="M47.5697 69.041C47.4997 68.771 47.2097 68.641 46.9297 68.601C46.0797 68.461 45.3697 68.551 44.4897 68.751C44.1297 68.831 43.3797 68.951 43.1897 69.381C43.1497 69.481 43.0897 69.531 43.0997 69.631C43.1097 70.101 43.5897 70.251 43.9797 70.301C44.5797 70.371 45.1897 70.301 45.7497 70.201C46.3097 70.091 46.7797 69.981 47.2397 69.671C47.4597 69.531 47.6297 69.311 47.5697 69.041Z" fill="#92C10B"/>
<path d="M41.4398 70.5609C41.4398 70.5609 41.4498 70.5609 41.4298 70.5109C41.4098 70.4809 41.3298 70.4609 41.2698 70.4609C41.0698 70.4609 40.9198 70.4809 40.7698 70.6409C40.7498 70.6709 40.7698 70.6609 40.7198 70.7309C40.6798 70.7909 40.6898 70.9309 40.8098 70.9609C40.9298 70.9909 41.0298 71.0009 41.1398 70.9609C41.2498 70.9309 41.3098 70.9009 41.3998 70.8209C41.4898 70.7509 41.5098 70.6409 41.4298 70.5409L41.4398 70.5609Z" fill="#92C10B"/>
<path d="M56.61 83.361C51.34 82.451 45.25 83.651 41.39 87.551C39.77 89.181 38.51 91.3009 37.89 93.5309C37.04 96.6009 38.45 99.871 41.93 100.041C44.2 100.151 46.45 98.9209 48.13 97.4909C49.4 96.4109 50.52 95.1609 51.51 93.8209C52.5 92.4909 53.37 91.0909 54.23 89.6709C54.66 88.9709 55.07 88.2609 55.51 87.5609C55.85 87.0209 56.23 86.5109 56.68 86.0609C57.47 85.2509 58.44 84.6409 59.52 84.3109C59.68 84.2609 59.84 84.2209 60 84.1809C58.9 83.8009 57.75 83.561 56.61 83.361Z" fill="#67AD14"/>
<path d="M57.7298 84.851C57.1598 85.231 56.6298 85.661 56.1398 86.131C55.6898 86.551 55.2698 87.001 54.8598 87.471C54.4498 87.951 54.0698 88.451 53.6798 88.941C53.2598 89.491 52.8298 90.041 52.3998 90.581C51.9498 91.141 51.4898 91.681 50.9898 92.201C50.5098 92.711 49.9998 93.191 49.4498 93.621C48.9198 94.031 48.3498 94.401 47.7398 94.671C47.1298 94.941 46.4798 95.131 45.8198 95.191C45.2398 95.241 44.5898 95.131 44.2298 94.621C44.0598 94.381 43.9798 94.101 43.9598 93.811C43.9198 93.411 43.9598 93.001 44.0498 92.611C44.2698 91.761 44.7998 91.021 45.3798 90.381C45.6798 90.051 45.9998 89.751 46.3198 89.441C46.6298 89.151 46.9398 88.871 47.2598 88.611C47.8898 88.091 48.5498 87.621 49.2398 87.181C49.9198 86.751 50.6298 86.371 51.3598 86.031C52.0798 85.691 52.8198 85.401 53.5698 85.141C54.3298 84.881 55.0998 84.661 55.8698 84.481C56.6498 84.291 57.4398 84.141 58.2398 84.021C58.5298 83.971 58.8198 83.941 59.0998 83.901C58.9698 83.861 58.8298 83.831 58.6998 83.791C57.3698 83.821 56.0298 83.991 54.7298 84.261C53.4498 84.521 52.1998 84.891 50.9898 85.381C49.6798 85.911 48.4198 86.581 47.2298 87.351C46.0398 88.111 44.9298 88.981 43.8898 89.921C43.3398 90.421 42.8098 90.921 42.3098 91.471C41.8098 92.031 41.3398 92.621 40.8898 93.231C40.4698 93.811 40.0498 94.391 39.6698 94.991C39.5398 95.201 39.3998 95.421 39.2198 95.591C39.0998 95.701 38.9398 95.801 38.7698 95.741C38.5398 95.661 38.3898 95.381 38.2998 95.171C38.1998 94.951 38.1498 94.711 38.1298 94.471C38.0798 93.911 38.1898 93.341 38.3498 92.811C38.4998 92.281 38.6998 91.761 38.9098 91.251C39.1098 90.771 39.3198 90.301 39.5698 89.841C38.8398 90.981 38.2698 92.221 37.9198 93.501C37.0698 96.571 38.4798 99.841 41.9598 100.011C44.2298 100.121 46.4798 98.891 48.1598 97.461C49.4298 96.381 50.5498 95.131 51.5398 93.791C52.5298 92.461 53.3998 91.061 54.2598 89.641C54.6898 88.941 55.0998 88.231 55.5398 87.531C55.8798 86.991 56.2598 86.481 56.7098 86.031C57.4998 85.221 58.4698 84.611 59.5498 84.281C59.7098 84.231 59.8698 84.191 60.0298 84.151C59.8498 84.091 59.6598 84.031 59.4698 83.971C58.8598 84.161 58.2898 84.471 57.7498 84.821L57.7298 84.851Z" fill="#409100"/>
<path d="M50.3099 84.2312C50.2199 83.9612 49.8999 83.8612 49.6499 83.8312C48.8699 83.7312 48.0299 84.0112 47.3299 84.3112C47.0399 84.4312 46.1199 84.7612 46.0699 85.2012C46.0199 85.2912 45.9999 85.3812 45.9899 85.4812C45.9599 85.9812 46.5199 86.1012 46.9099 86.0912C47.5099 86.0712 48.0999 85.9012 48.6599 85.7012C49.1499 85.5212 49.6999 85.2912 50.0799 84.9212C50.2499 84.7412 50.3999 84.4712 50.3199 84.2212L50.3099 84.2312Z" fill="#92C10B"/>
<path d="M44.3699 86.7209C44.3699 86.7209 44.3699 86.6909 44.3599 86.6809C44.3299 86.6209 44.2499 86.6209 44.1899 86.6409C43.9999 86.6109 43.8099 86.7209 43.6999 86.8809C43.6799 86.9109 43.6699 86.9409 43.6599 86.9709C43.5899 87.0709 43.6299 87.1909 43.7499 87.2309C43.8499 87.2709 43.9799 87.2309 44.0799 87.2009C44.1799 87.1609 44.2599 87.1009 44.3299 87.0309C44.4299 86.9309 44.4499 86.8009 44.3599 86.7209H44.3699Z" fill="#92C10B"/>
<path d="M49.2897 86.5205C46.9597 88.1105 44.8497 89.9505 43.0697 92.0705C39.5197 96.3405 37.4297 101.661 35.6697 106.871C34.8297 109.531 34.1997 112.261 33.6997 115.031C33.7997 109.361 35.3797 103.781 37.7697 98.6605C40.0697 93.4705 44.1097 88.9205 49.2897 86.5205Z" fill="#405621"/>
<path d="M47.9196 70.6709C41.2696 72.9009 38.7296 77.0509 37.1196 83.5809C36.1396 87.4309 35.6696 91.4109 35.3396 95.3709C34.8396 101.361 34.5296 107.371 33.8896 113.351C33.9196 105.311 33.8996 97.2509 34.9396 89.2709C35.5296 85.2809 36.4497 81.2709 38.3097 77.6109C40.1997 73.9509 43.9396 71.4409 47.9196 70.6709Z" fill="#405621"/>
<path d="M16.6198 71.611C19.9098 71.071 23.7098 71.861 26.0998 74.311C27.0998 75.341 27.8798 76.671 28.2498 78.061C28.7598 79.981 27.8698 82.011 25.6898 82.101C24.2698 82.161 22.8698 81.371 21.8298 80.481C21.0398 79.801 20.3498 79.011 19.7398 78.171C19.1298 77.341 18.5898 76.451 18.0698 75.561C17.8098 75.121 17.5598 74.671 17.2898 74.241C17.0798 73.901 16.8398 73.581 16.5698 73.301C16.0798 72.791 15.4798 72.401 14.8098 72.191C14.7098 72.161 14.6098 72.131 14.5098 72.111C15.1998 71.881 15.9198 71.731 16.6298 71.611H16.6198Z" fill="#67AD14"/>
<path d="M15.92 72.5411C16.27 72.7811 16.6 73.0511 16.91 73.3511C17.19 73.6211 17.45 73.9011 17.7 74.2011C17.95 74.5011 18.19 74.8111 18.43 75.1311C18.69 75.4811 18.95 75.8211 19.22 76.1611C19.5 76.5111 19.78 76.8611 20.09 77.1811C20.39 77.5011 20.7 77.8011 21.04 78.0711C21.37 78.3311 21.72 78.5611 22.1 78.7411C22.48 78.9111 22.88 79.0411 23.29 79.0711C23.65 79.1011 24.06 79.0411 24.28 78.7211C24.38 78.5711 24.43 78.3911 24.46 78.2211C24.49 77.9711 24.46 77.7111 24.41 77.4711C24.28 76.9411 23.95 76.4711 23.59 76.0711C23.41 75.8611 23.21 75.6711 23.01 75.4811C22.82 75.3011 22.63 75.1211 22.42 74.9511C22.03 74.6211 21.62 74.3211 21.19 74.0511C20.77 73.7811 20.33 73.5411 19.88 73.3211C19.43 73.1111 18.98 72.9211 18.51 72.7511C18.04 72.5811 17.56 72.4411 17.08 72.3211C16.59 72.2011 16.1 72.1011 15.6 72.0211C15.42 71.9911 15.24 71.9611 15.06 71.9411C15.14 71.9211 15.23 71.8911 15.31 71.8711C16.14 71.9011 16.97 72.0111 17.79 72.1811C18.59 72.3511 19.37 72.5911 20.12 72.9011C20.94 73.2411 21.72 73.6611 22.46 74.1511C23.2 74.6311 23.89 75.1811 24.53 75.7811C24.87 76.0911 25.2 76.4111 25.51 76.7611C25.82 77.1111 26.11 77.4911 26.38 77.8711C26.64 78.2311 26.89 78.6011 27.13 78.9811C27.21 79.1111 27.3 79.2511 27.41 79.3611C27.48 79.4311 27.58 79.4911 27.69 79.4611C27.84 79.4111 27.93 79.2411 27.99 79.1111C28.05 78.9711 28.09 78.8211 28.1 78.6811C28.13 78.3311 28.07 77.9811 27.97 77.6411C27.88 77.3111 27.76 76.9811 27.63 76.6611C27.51 76.3611 27.38 76.0711 27.23 75.7811C27.68 76.4911 28.03 77.2811 28.24 78.0811C28.75 80.0011 27.86 82.0311 25.68 82.1211C24.26 82.1811 22.86 81.3911 21.82 80.5011C21.03 79.8211 20.34 79.0311 19.73 78.1911C19.12 77.3611 18.58 76.4711 18.06 75.5811C17.8 75.1411 17.55 74.6911 17.28 74.2611C17.07 73.9211 16.83 73.6011 16.56 73.3211C16.07 72.8111 15.47 72.4211 14.8 72.2111C14.7 72.1811 14.6 72.1511 14.5 72.1311C14.61 72.0911 14.73 72.0611 14.85 72.0211C15.22 72.1411 15.58 72.3411 15.91 72.5611L15.92 72.5411Z" fill="#409100"/>
<path d="M20.5497 72.1905C20.6097 72.0205 20.8097 71.9605 20.9697 71.9405C21.4597 71.8805 21.9797 72.0605 22.4197 72.2505C22.5997 72.3305 23.1697 72.5405 23.1997 72.8105C23.2297 72.8605 23.2497 72.9205 23.2497 72.9905C23.2697 73.3005 22.9097 73.3705 22.6697 73.3605C22.2997 73.3505 21.9297 73.2405 21.5797 73.1005C21.2797 72.9805 20.9297 72.8405 20.6997 72.6105C20.5897 72.5005 20.5097 72.3305 20.5597 72.1805L20.5497 72.1905Z" fill="#92C10B"/>
<path d="M24.25 73.7806C24.25 73.7806 24.25 73.7606 24.25 73.7506C24.27 73.7206 24.32 73.7206 24.35 73.7306C24.47 73.7106 24.59 73.7806 24.65 73.8806C24.66 73.9006 24.67 73.9206 24.67 73.9406C24.72 74.0006 24.69 74.0806 24.61 74.1006C24.55 74.1206 24.46 74.1006 24.4 74.0806C24.34 74.0606 24.29 74.0206 24.24 73.9706C24.18 73.9106 24.17 73.8206 24.22 73.7706L24.25 73.7806Z" fill="#92C10B"/>
<path d="M22.1997 74.3403C24.5997 75.7103 26.5097 77.7803 28.0097 80.0703L28.0597 80.2403C28.0597 80.2403 28.0597 80.1803 28.0597 80.1503C28.0597 80.1303 28.0297 80.0803 28.0397 80.1003L28.0597 80.1303L28.1097 80.2003C29.0097 81.5703 29.8297 83.0003 30.5397 84.4803C32.6297 89.1403 33.2797 94.2903 33.8297 99.3003C34.4797 106 34.5897 112.71 34.5697 119.43C33.6997 111.1 33.4097 102.72 32.1497 94.4403C31.6397 91.1803 31.0097 87.8803 29.7397 84.8303C29.0997 83.3403 28.3197 81.8803 27.5097 80.4703C27.4797 80.4203 27.4197 80.3103 27.4197 80.2303L27.4697 80.4003C26.7797 79.2503 26.0397 78.1103 25.1697 77.0803C24.2797 76.0603 23.2797 75.1303 22.1997 74.3203V74.3403Z" fill="#405621"/>
<path d="M28.6598 93.4408C28.1998 92.7108 27.6598 92.0308 27.0798 91.4008C26.5198 90.8808 25.9198 90.4008 25.2798 89.9608C24.0698 89.2708 22.7798 88.6908 21.4298 88.3308C20.7098 88.1408 19.9798 88.0308 19.2498 87.9508C18.5198 87.8708 17.7798 87.8208 17.0398 87.8208C15.5698 87.8108 14.0998 87.9508 12.6698 88.3108C11.7798 88.5308 10.8998 88.8408 10.0698 89.2308C11.1498 89.2108 12.1198 89.8908 12.8598 90.6308C13.7598 91.5308 14.4798 92.6008 15.2598 93.6108C16.1098 94.7008 16.9898 95.7708 17.9998 96.7208C19.0098 97.6708 20.1498 98.5208 21.3998 99.1108C22.3798 99.5708 23.4198 99.9108 24.4898 100.091C25.5798 100.281 26.7498 100.311 27.8098 99.9308C28.3098 99.7508 28.7798 99.4708 29.1498 99.0808C29.6198 98.6008 29.9098 97.9708 29.9698 97.2908C30.0898 95.9108 29.3798 94.5708 28.6598 93.4408Z" fill="#67AD14"/>
<path d="M28.6598 93.4403C28.1998 92.7103 27.6598 92.0303 27.0798 91.4003C26.5198 90.8803 25.9198 90.4003 25.2798 89.9603C24.0698 89.2703 22.7798 88.6903 21.4298 88.3303C20.7098 88.1403 19.9798 88.0303 19.2498 87.9503C18.5198 87.8703 17.7798 87.8203 17.0398 87.8203H17.0198C17.5098 87.8803 17.9998 87.9703 18.4798 88.0903C19.3698 88.3203 20.2098 88.6603 21.0098 89.1003C21.7598 89.5203 22.4798 90.0003 23.1798 90.5103C23.7498 90.9203 24.4098 91.3603 24.6598 92.0503C24.6598 92.0703 24.6498 92.1003 24.6298 92.1003C24.3298 92.0803 24.0398 91.9303 23.7698 91.7903C23.4898 91.6403 23.2198 91.4603 22.9198 91.3303C22.2398 91.0203 21.5498 90.7403 20.8398 90.5103C20.2298 90.3203 19.6098 90.1603 18.9898 90.0103C18.3698 89.8603 17.7398 89.7103 17.1098 89.6203C16.5698 89.5503 16.0098 89.5003 15.4598 89.5703C15.7098 89.6403 15.9698 89.6903 16.2298 89.7403C16.8798 89.8703 17.5498 89.9603 18.1798 90.1903C18.7998 90.4103 19.3898 90.6803 19.9698 90.9903C20.8598 91.4603 21.7198 92.0203 22.4998 92.6603C23.1398 93.1803 23.7498 93.7603 24.2498 94.4103C24.6898 94.9803 25.1198 95.7103 25.0398 96.4603C24.9998 96.8203 24.8298 97.1403 24.5898 97.4003C24.2698 97.7403 23.8498 97.9303 23.3898 97.9803C22.8698 98.0403 22.3398 97.9603 21.8498 97.8203C21.3598 97.6903 20.8998 97.5003 20.4398 97.2803C19.3498 96.7503 18.3798 96.0203 17.4998 95.1903C17.0398 94.7603 16.6098 94.3003 16.1998 93.8303C15.8098 93.3903 15.4598 92.9303 15.0898 92.4803C14.3698 91.5803 13.5998 90.6803 12.5898 90.1003C12.2698 89.9203 11.9398 89.7703 11.5898 89.6503C12.0598 89.9103 12.4898 90.2703 12.8598 90.6303C13.7598 91.5303 14.4798 92.6003 15.2598 93.6103C16.1098 94.7003 16.9898 95.7703 17.9998 96.7203C19.0098 97.6703 20.1498 98.5203 21.3998 99.1203C22.3798 99.5803 23.4198 99.9203 24.4898 100.1C25.5798 100.29 26.7498 100.32 27.8098 99.9403C28.3098 99.7603 28.7798 99.4803 29.1498 99.0903C29.6198 98.6103 29.9098 97.9803 29.9698 97.3003C30.0898 95.9203 29.3798 94.5803 28.6598 93.4503V93.4403Z" fill="#409100"/>
<path d="M17.8597 92.2111C17.6597 91.9011 17.4097 91.6311 17.1397 91.3811C16.8397 91.0911 16.4997 90.8011 16.1097 90.6411C15.6897 90.4711 15.2397 90.6111 15.0197 91.0211C14.8297 91.3811 14.9797 91.7411 15.1897 92.0511C15.5597 92.6011 16.3297 93.4011 17.0797 93.4411C17.2297 93.4811 17.3797 93.5011 17.5197 93.4711C17.7697 93.4211 17.9897 93.2111 18.0497 92.9611C18.1097 92.6911 17.9897 92.4311 17.8497 92.2211L17.8597 92.2111Z" fill="#92C10B"/>
<path d="M19.1697 94.3608C19.1697 94.3608 19.1297 94.2708 19.0897 94.2408C19.0597 94.2208 19.0397 94.2108 19.0097 94.2108H18.9897C18.9697 94.2108 18.9397 94.2108 18.9197 94.2008C18.8997 94.2008 18.8697 94.2008 18.8497 94.2008C18.7797 94.1908 18.7097 94.2108 18.6597 94.2508C18.6297 94.2708 18.5997 94.3008 18.5797 94.3408C18.5597 94.3708 18.5397 94.4308 18.5497 94.4708C18.5297 94.5108 18.5297 94.5608 18.5497 94.6008C18.5597 94.6508 18.5797 94.6808 18.6197 94.7108C18.6197 94.7208 18.6397 94.7308 18.6497 94.7408C18.6797 94.7608 18.7097 94.7708 18.7497 94.7708C18.7597 94.7708 18.7697 94.7708 18.7897 94.7708C18.8297 94.7708 18.8597 94.7708 18.8997 94.7708C18.9497 94.7608 18.9997 94.7408 19.0497 94.7108C19.1197 94.6608 19.1597 94.6008 19.1897 94.5308C19.2097 94.4808 19.2097 94.4108 19.1997 94.3608H19.1697Z" fill="#92C10B"/>
<path d="M20.6597 90.751C28.1797 92.741 32.4997 99.951 33.7297 107.251C34.1197 109.681 34.1697 112.151 33.8497 114.571C33.7197 112.141 33.4397 109.741 32.9097 107.411C31.1897 100.251 27.5697 93.941 20.6597 90.751Z" fill="#405621"/>
<path d="M39.0297 113.551C42.3097 110.981 44.4797 107.051 43.5797 103.241C43.4597 102.741 43.0497 100.511 40.9997 98.7406C40.0997 97.9606 39.4697 97.7706 38.9597 97.7406C37.2797 97.6206 36.0297 99.0406 35.8897 99.2006C35.6997 99.1406 33.9797 98.6206 32.4797 99.3806C31.3197 99.9706 30.8097 101.101 30.7497 102.151C30.7497 102.231 30.7397 102.341 30.7397 102.481C30.7397 102.481 30.7397 104.631 32.2297 106.451C32.5197 106.801 32.8297 107.101 32.8297 107.101C33.1597 107.411 33.3797 107.561 33.7997 107.891C34.0597 108.071 34.4097 108.351 34.7897 108.711C35.2497 109.141 36.3397 110.211 36.8497 111.861C37.0597 112.531 37.3597 113.591 36.8897 114.801C36.8397 114.941 36.7797 115.051 36.7497 115.121C37.5697 114.661 38.3297 114.121 39.0297 113.571V113.551Z" fill="#67AD14"/>
<path d="M37.3999 113.541C37.4099 113.061 37.3599 112.581 37.2699 112.101C37.1399 111.401 36.9498 110.701 36.6398 110.031C36.3198 109.341 35.8399 108.761 35.2899 108.181C34.7499 107.611 34.1598 107.081 33.6198 106.511C33.3298 106.201 32.9999 105.901 32.7699 105.561C32.5299 105.221 31.8399 104.221 32.0799 102.981C32.1599 102.581 32.3298 101.711 33.2798 101.111C34.2998 100.471 35.5298 100.581 35.9398 100.641C36.8198 100.771 37.3899 101.141 37.6299 101.291C38.1999 101.661 38.4698 102.061 38.7598 102.471C39.2498 103.181 39.4399 103.831 39.5599 104.251C39.6699 104.621 39.7399 105.011 39.7699 105.171C39.8199 105.461 39.8699 105.761 39.8999 106.061C39.9599 106.631 39.9799 107.211 39.9499 107.781C39.9199 108.341 39.8498 108.901 39.7298 109.461C39.6199 110.011 39.4598 110.551 39.2798 111.071C39.0898 111.601 38.8699 112.131 38.6099 112.641C38.3499 113.161 38.0698 113.671 37.7598 114.161C37.6498 114.341 37.5298 114.521 37.4198 114.701C37.5098 114.641 37.6099 114.581 37.6999 114.521C38.3399 113.761 38.8799 112.941 39.3399 112.091C39.7899 111.261 40.1498 110.401 40.3898 109.521C40.6599 108.561 40.7999 107.571 40.8399 106.581C40.8799 105.591 40.8099 104.601 40.6499 103.611C40.5599 103.091 40.4699 102.581 40.3099 102.071C40.1499 101.551 39.9599 101.041 39.7399 100.531C39.5299 100.051 39.3199 99.5709 39.0799 99.1009C38.9999 98.9409 38.9098 98.7709 38.8698 98.5909C38.8498 98.4709 38.8598 98.3409 38.9798 98.2709C39.1498 98.1709 39.4299 98.2109 39.6299 98.2509C39.8399 98.2909 40.0399 98.3609 40.2199 98.4509C40.6499 98.6609 40.9999 98.9609 41.3099 99.2709C41.6199 99.5809 41.8898 99.9109 42.1599 100.251C42.4099 100.561 42.6398 100.881 42.8498 101.211C42.8598 101.231 42.4099 99.8409 41.0199 98.7309C40.4599 98.2809 39.8598 97.8009 38.9798 97.7309C37.2698 97.5909 35.9998 99.0909 35.9098 99.1909C35.4998 99.0609 34.6898 98.8709 33.7298 99.0109C33.4998 99.0409 33.0198 99.1209 32.4998 99.3809C32.3898 99.4409 31.8699 99.7009 31.4499 100.231C31.1599 100.601 31.0499 100.921 30.9499 101.231C30.7999 101.681 30.7799 102.031 30.7699 102.261C30.7699 102.371 30.7399 102.831 30.8499 103.451C30.8999 103.731 31.0399 104.391 31.4399 105.191C31.5999 105.501 31.9099 106.121 32.5399 106.791C33.0499 107.341 33.7099 107.781 34.3099 108.261C35.1899 108.981 35.5198 109.441 35.7798 109.771C36.0898 110.181 36.2898 110.511 36.3398 110.601C36.5398 110.951 36.8998 111.581 37.0698 112.461C37.1598 112.951 37.3198 113.811 36.9198 114.801C36.8798 114.911 36.8298 115.021 36.7798 115.121C36.9198 115.041 37.0498 114.971 37.1898 114.881C37.3498 114.461 37.4198 114.011 37.4299 113.561L37.3999 113.541Z" fill="#409100"/>
<path d="M37.5699 104.951C37.9499 105.011 38.0999 104.821 38.1699 104.651C38.3799 104.131 38.1099 103.411 37.7899 102.771C37.6599 102.511 37.3199 101.711 36.7399 101.471C36.6299 101.401 36.5099 101.341 36.3699 101.291C35.7099 101.051 35.4899 101.401 35.4599 101.691C35.4099 102.131 35.5699 102.631 35.7899 103.121C35.9799 103.551 36.2099 104.051 36.6699 104.481C36.8799 104.681 37.2199 104.911 37.5699 104.961V104.951Z" fill="#92C10B"/>
<path d="M40.52 107.281C40.31 105.131 39.86 102.991 38.7 101.181C37.56 99.3809 35.7 98.0109 33.5 99.0309C33.92 98.6609 34.45 98.4109 35.02 98.2909C36.2 98.0409 37.38 98.6409 38.25 99.4209C40.35 101.371 41.05 104.541 40.51 107.291L40.52 107.281Z" fill="#405621"/>
<path d="M35.3096 98.3911C34.1696 98.3611 33.2396 98.8211 33.2596 98.9111C33.2796 98.9811 33.9196 98.7611 34.9096 98.8511C35.0196 98.8611 35.6896 98.9311 36.4096 99.2111C37.7696 99.7511 38.5896 100.791 38.9396 101.311C38.8396 101.001 38.2696 99.3011 36.6896 98.6611C36.0796 98.4111 35.5096 98.3911 35.3196 98.3911H35.3096Z" fill="#405621" stroke="#405621" stroke-miterlimit="10"/>
<path d="M22.4099 86.6411C23.7499 84.3811 26.0299 82.7011 28.4899 82.9611C28.8199 82.9911 30.2399 83.0711 31.5099 84.2111C32.0699 84.7111 32.2399 85.0911 32.2999 85.4111C32.5099 86.4511 31.7199 87.3511 31.6399 87.4511C31.6899 87.5611 32.1599 88.6011 31.7999 89.6011C31.5299 90.3711 30.8599 90.7811 30.2099 90.9111C30.1599 90.9211 30.0899 90.9311 30.0099 90.9411C30.0099 90.9411 28.6699 91.1211 27.4099 90.3311C27.1599 90.1811 26.9599 90.0111 26.9599 90.0111C26.7399 89.8311 26.6299 89.7011 26.3899 89.4711C26.2499 89.3211 26.0499 89.1211 25.7999 88.9211C25.4899 88.6711 24.7399 88.0711 23.6599 87.8911C23.2199 87.8211 22.5299 87.7111 21.8199 88.1011C21.7399 88.1511 21.6699 88.1911 21.6299 88.2211C21.8499 87.6711 22.1199 87.1511 22.4099 86.6711V86.6411Z" fill="#67AD14"/>
<path d="M22.5496 87.6603C22.8496 87.6103 23.1596 87.6103 23.4596 87.6303C23.9096 87.6603 24.3596 87.7203 24.7996 87.8503C25.2596 87.9903 25.6596 88.2503 26.0696 88.5503C26.4696 88.8403 26.8496 89.1703 27.2496 89.4603C27.4696 89.6203 27.6796 89.8003 27.9096 89.9203C28.1396 90.0403 28.8196 90.3903 29.5796 90.1403C29.8196 90.0603 30.3496 89.8803 30.6496 89.2403C30.9696 88.5503 30.7996 87.7903 30.7296 87.5403C30.5796 87.0003 30.2996 86.6703 30.1896 86.5403C29.9096 86.2103 29.6396 86.0803 29.3596 85.9303C28.8696 85.6803 28.4496 85.6203 28.1796 85.5803C27.9396 85.5403 27.6896 85.5303 27.5896 85.5203C27.3996 85.5103 27.2096 85.5003 27.0296 85.5103C26.6696 85.5103 26.2996 85.5603 25.9496 85.6203C25.5996 85.6803 25.2496 85.7803 24.9196 85.8903C24.5896 86.0003 24.2596 86.1503 23.9496 86.3103C23.6296 86.4703 23.3196 86.6503 23.0196 86.8603C22.7196 87.0603 22.4196 87.2803 22.1296 87.5103C22.0296 87.6003 21.9196 87.6803 21.8196 87.7703C21.8496 87.7103 21.8796 87.6403 21.9096 87.5803C22.3296 87.1203 22.7996 86.7103 23.2896 86.3603C23.7696 86.0103 24.2796 85.7203 24.8096 85.4903C25.3896 85.2403 25.9996 85.0703 26.6196 84.9703C27.2396 84.8703 27.8596 84.8303 28.4896 84.8503C28.8196 84.8603 29.1496 84.8803 29.4796 84.9403C29.8196 85.0003 30.1496 85.0803 30.4896 85.1703C30.8096 85.2603 31.1196 85.3603 31.4396 85.4703C31.5496 85.5103 31.6596 85.5503 31.7696 85.5603C31.8396 85.5603 31.9296 85.5503 31.9596 85.4603C32.0096 85.3403 31.9596 85.1703 31.9196 85.0503C31.8796 84.9203 31.8196 84.8003 31.7496 84.7003C31.5796 84.4503 31.3696 84.2503 31.1396 84.0803C30.9196 83.9103 30.6896 83.7703 30.4596 83.6303C30.2396 83.5003 30.0296 83.3803 29.7996 83.2803C29.7796 83.2803 30.6996 83.4503 31.4996 84.2203C31.8296 84.5303 32.1696 84.8703 32.2896 85.4203C32.5196 86.4803 31.6796 87.4003 31.6296 87.4603C31.7396 87.7103 31.9296 88.2003 31.9196 88.8103C31.9196 88.9603 31.9196 89.2603 31.7896 89.6103C31.7596 89.6903 31.6396 90.0303 31.3496 90.3403C31.1396 90.5503 30.9496 90.6403 30.7696 90.7303C30.4996 90.8603 30.2796 90.9003 30.1396 90.9303C30.0696 90.9403 29.7896 90.9903 29.3896 90.9803C29.2096 90.9803 28.7796 90.9403 28.2496 90.7503C28.0396 90.6803 27.6296 90.5303 27.1596 90.1903C26.7696 89.9203 26.4496 89.5403 26.0896 89.2003C25.5696 88.7103 25.2596 88.5403 25.0296 88.4103C24.7496 88.2503 24.5296 88.1503 24.4596 88.1203C24.2296 88.0203 23.7996 87.8503 23.2396 87.8203C22.9196 87.8003 22.3796 87.7703 21.7896 88.1003C21.7296 88.1403 21.6596 88.1703 21.5996 88.2203C21.6396 88.1303 21.6696 88.0403 21.7096 87.9503C21.9596 87.8103 22.2396 87.7403 22.5196 87.6903L22.5496 87.6603Z" fill="#409100"/>
<path d="M27.9098 86.8605C27.8398 86.6305 27.9498 86.5205 28.0498 86.4605C28.3598 86.2805 28.8298 86.4005 29.2598 86.5505C29.4398 86.6105 29.9598 86.7605 30.1598 87.1005C30.2098 87.1605 30.2598 87.2305 30.2998 87.3205C30.4998 87.7105 30.2998 87.8805 30.1198 87.9205C29.8498 87.9805 29.5198 87.9205 29.1998 87.8305C28.9198 87.7505 28.5898 87.6405 28.2798 87.3905C28.1298 87.2705 27.9698 87.0805 27.9098 86.8605Z" fill="#92C10B"/>
<path d="M26.9997 86.5209C26.9997 86.5209 26.9997 86.5109 26.9897 86.5009C26.9897 86.4709 27.0097 86.4409 27.0297 86.4309C27.0797 86.3509 27.1697 86.3309 27.2597 86.3609C27.2797 86.3609 27.2897 86.3709 27.2997 86.3809C27.3497 86.3909 27.3797 86.4609 27.3597 86.5209C27.3397 86.5709 27.2897 86.6109 27.2497 86.6309C27.2097 86.6509 27.1597 86.6509 27.1097 86.6509C27.0497 86.6509 26.9997 86.5909 26.9997 86.5309V86.5209Z" fill="#92C10B"/>
<path d="M26.1899 85.3211C27.8499 84.5511 29.9699 84.7411 31.3899 86.0411C31.9599 86.5911 32.4399 87.3911 32.3399 88.2411C32.2999 88.6511 32.1599 89.0311 31.9299 89.3311C32.4899 86.1311 28.3599 85.3711 26.1899 85.3111V85.3211Z" fill="#405621"/>
<path d="M32.1998 87.7309C32.3098 88.4409 32.0998 89.0609 32.0398 89.0609C31.9898 89.0609 32.0798 88.6409 31.9398 88.0309C31.9198 87.9609 31.8298 87.5509 31.5898 87.1209C31.1398 86.3109 30.4198 85.8809 30.0698 85.7109C30.2698 85.7509 31.3798 85.9709 31.9098 86.9009C32.1198 87.2609 32.1698 87.6209 32.1898 87.7309H32.1998Z" fill="#405621"/>
</g>
<path d="M107.26 17.3303C106.87 17.3203 106.45 17.2503 106.01 17.1103C102.87 16.0703 100.2 18.9503 99.4898 21.6203C98.4898 25.3703 98.9398 29.2403 99.2898 33.0603C100.4 34.6403 101.45 36.1403 101.45 36.1403C100.39 33.2403 99.6798 20.5603 101.43 19.0003C104.04 16.6803 106.96 17.8403 108.42 21.7203C108.7 22.4503 108.95 23.1703 109.13 23.9003C111.38 33.0603 107.05 43.6403 107.05 43.6403L110.52 48.5403C110.52 48.5403 112.62 41.7403 113.24 36.1703C113.81 31.0203 113.4 21.3703 107.57 17.5103C107.47 17.4403 107.36 17.3903 107.26 17.3303Z" fill="#8AA2A9"/>
<g opacity="0.55">
<g style="mix-blend-mode:multiply" opacity="0.55">
<path d="M107.29 18.1405C107.19 18.0705 107.08 18.0205 106.98 17.9605C106.68 17.9605 106.37 17.9005 106.04 17.8105C111.24 21.9405 111.61 31.0305 111.06 35.9705C110.61 40.0505 109.36 44.7705 108.73 47.0205L110.25 49.1605C110.25 49.1605 112.35 42.3605 112.97 36.7905C113.54 31.6405 113.13 21.9905 107.3 18.1305L107.29 18.1405Z" fill="#8AA2A9"/>
</g>
</g>
<g style="mix-blend-mode:multiply" opacity="0.65">
<path d="M108.02 41.6799C107.66 42.8299 107.38 43.5199 107.38 43.5199L110.19 47.4899C110.19 47.4899 110.75 45.6699 111.32 43.2699C110.23 42.7199 109.01 42.3299 108.02 41.6699V41.6799Z" fill="#A8B6BD"/>
</g>
<g style="mix-blend-mode:multiply" opacity="0.65">
<path d="M108.43 21.7205C108.66 22.3405 108.85 22.9505 109.03 23.5605C110.26 23.3205 111.4 23.7005 112.29 24.4105C111.41 21.6205 109.95 19.0905 107.58 17.5205C107.48 17.4505 107.37 17.4005 107.27 17.3405C106.88 17.3305 106.46 17.2605 106.02 17.1205C105.5 16.9505 105 16.8905 104.52 16.9205C104.61 17.1205 102.55 17.7705 102.6 17.9905C102.62 18.0605 104.03 17.6805 104.79 17.8905C106.26 18.1705 107.59 19.5005 108.44 21.7305L108.43 21.7205Z" fill="#7D929C"/>
</g>
<path d="M108.47 18.14C105.57 15.71 102.89 15.97 100.8 17.18C98.8696 18.29 97.2296 21.29 97.0496 23.54C96.9396 24.98 96.7096 29.36 96.7796 29.46L101.46 36.14C100.59 33.75 100.67 25.03 101.42 21.12C101.65 19.93 102.26 18.83 103.24 18.12C104.96 16.88 106.98 17.24 108.47 18.14Z" fill="#94A9B0"/>
<path d="M100.79 17.1706C98.8599 18.2806 97.2199 21.2806 97.0399 23.5306C96.9299 24.9706 96.6999 29.3506 96.7699 29.4506C96.7699 29.4506 97.2399 30.1206 97.8799 31.0306L98.7499 30.5406L100.09 33.7506C100.02 33.6506 99.7499 26.8506 99.8299 25.3706C100.08 20.8606 100.95 18.8306 102.97 17.6806C104.07 17.0506 105.38 16.8806 106.73 16.9606C104.5 15.8306 102.46 16.2006 100.79 17.1506V17.1706Z" fill="#B3C2C7"/>
<path d="M108.24 18.0107C108.32 18.0507 108.39 18.0907 108.47 18.1407C108.42 18.0907 108.36 18.0607 108.31 18.0107C108.29 18.0107 108.27 18.0107 108.24 18.0107Z" fill="#B3C2C7"/>
<g style="mix-blend-mode:multiply" opacity="0.65">
<path d="M99.4398 30.5198C99.3998 29.5698 99.3198 28.3398 99.4798 27.2998C98.7898 26.8398 98.0298 26.5098 97.2398 26.5198C97.1698 27.8198 97.1098 29.2798 97.1398 29.3298C97.1398 29.3298 98.5198 31.2998 99.5498 32.7698C99.4998 32.0298 99.4698 31.2798 99.4398 30.5298V30.5198Z" fill="#A8B6BD"/>
</g>
<g opacity="0.55">
<g style="mix-blend-mode:screen">
<path d="M100.83 18.0697C99.2099 18.9997 97.8499 21.4997 97.6999 23.3797C97.6699 23.7097 97.6399 24.2297 97.6099 24.8097C98.0699 24.8597 98.5299 24.9897 98.9799 25.2397C99.0899 25.2997 99.2099 25.3597 99.3199 25.4297C99.3199 25.1597 99.3399 24.9197 99.3399 24.7397C99.5899 18.4297 102.61 17.5297 102.82 17.4297C101.89 17.4497 101.6 17.6197 100.83 18.0597V18.0697Z" fill="#D8DFE2"/>
</g>
</g>
<path d="M78.9394 28.3504C79.2094 25.2504 80.1494 19.5604 83.9894 13.8304C85.9794 10.8604 88.1894 8.72043 89.9994 7.25043L91.5194 7.21043L89.8694 6.18043L87.9594 5.94043L87.1594 6.08043C85.9994 6.81043 84.8494 7.67043 83.7494 8.68043C75.7394 16.0404 74.9694 26.9604 74.9194 31.4004L78.9294 28.3404L78.9394 28.3504Z" fill="#7D929C"/>
<g style="mix-blend-mode:multiply" opacity="0.65">
<path d="M77.2995 25.7706C76.2695 26.0906 75.5695 26.6406 75.2195 26.9806C75.1295 28.4606 75.0295 29.9306 74.9395 31.4106C76.2495 30.4806 77.5694 29.5506 78.8794 28.6206C79.0194 27.6006 79.1595 26.5706 79.2995 25.5506C78.8495 25.5206 78.1294 25.5206 77.3094 25.7706H77.2995Z" fill="#7D929C"/>
</g>
<g style="mix-blend-mode:multiply" opacity="0.65">
<path d="M89.8695 6.18043L87.9595 5.94043L87.1595 6.08043C87.1595 6.08043 85.4695 6.85043 83.2695 9.19043C83.3495 9.18043 83.4195 9.16043 83.4995 9.15043C84.5995 9.04043 85.6295 9.47043 86.4095 10.2004C87.5995 8.68043 88.8395 7.51043 89.9895 7.25043L91.5095 7.21043L89.8595 6.18043H89.8695Z" fill="#7D929C"/>
</g>
<path d="M71.1499 36.3803L84.3099 76.9103C84.3099 76.9103 97.0299 78.9503 107.52 70.4603C118.02 61.9703 118.82 57.8003 118.82 57.8003L93.4199 23.4303C93.4199 23.4303 89.6299 22.3403 80.5099 27.4203C72.8599 31.6803 71.1499 36.3803 71.1499 36.3803Z" fill="url(#paint1_linear_344_17663)"/>
<path style="mix-blend-mode:multiply" opacity="0.55" d="M95.7095 59.8398C90.3595 61.8398 85.1095 61.7998 79.7295 60.5398L84.7795 76.2398C84.7795 76.2398 96.7995 78.0898 106.779 70.0498C116.759 62.0098 117.539 58.0898 117.539 58.0898L108.239 45.5498C108.329 49.8798 101.919 57.5098 95.7095 59.8298V59.8398Z" fill="url(#paint2_linear_344_17663)"/>
<path d="M80.5099 27.4203C72.8599 31.6803 71.1499 36.3803 71.1499 36.3803L71.5999 37.7603C77.1699 38.4003 82.3799 35.6303 84.6999 34.3403C89.0999 31.8903 92.7499 27.7303 94.2599 24.5703L93.4199 23.4303C93.4199 23.4303 89.6299 22.3403 80.5099 27.4203Z" fill="#A2B6BD"/>
<path style="mix-blend-mode:multiply" d="M84.7295 53.8897C84.2095 52.1597 82.7095 49.1897 80.6295 48.8897C80.1795 48.8197 78.7095 50.5897 77.9595 51.4697C78.7695 52.4697 79.5795 53.4697 80.6395 54.2897C81.6095 55.0397 85.7895 57.4297 84.7195 53.8997L84.7295 53.8897Z" fill="url(#paint3_linear_344_17663)"/>
<path style="mix-blend-mode:multiply" d="M95.4497 70.62C92.4797 68.49 89.4698 66.3 86.6198 64C86.3598 64.22 86.0997 64.45 85.8497 64.68C85.9397 66.21 85.6298 67.66 84.6198 69.27C84.0198 70.23 83.3897 71.18 82.7397 72.12L84.2897 76.91C84.2897 76.91 92.2597 78.18 100.79 74.51C99.1297 73.02 97.1098 71.81 95.4398 70.62H95.4497Z" fill="url(#paint4_linear_344_17663)"/>
<path opacity="0.55" d="M73.6497 32.7005C74.2097 34.2605 87.9997 74.1705 88.6597 77.1205C89.6697 77.0905 90.8196 77.0205 92.0696 76.8605C88.6096 68.2205 75.7196 38.3205 74.5396 31.7705C74.2096 32.0905 73.9096 32.4005 73.6396 32.7005H73.6497Z" fill="url(#paint5_linear_344_17663)"/>
<g style="mix-blend-mode:multiply" opacity="0.55">
<path d="M84.3496 63.8805C86.6296 70.6405 88.4396 76.1005 88.6696 77.1205C89.6796 77.0905 90.8296 77.0205 92.0796 76.8605C90.9296 73.9805 88.7296 68.7505 86.2696 62.8105L84.3496 63.8805Z" fill="#84949D"/>
</g>
<path opacity="0.55" d="M89.6596 24.6106C89.0196 25.1106 89.0096 25.0906 88.3696 25.6006C90.2096 28.1306 114.45 63.4806 114.71 63.8506C115.62 62.8606 116.33 61.9906 116.88 61.2406C114.61 59.0606 89.6496 24.6006 89.6496 24.6006L89.6596 24.6106Z" fill="url(#paint6_linear_344_17663)"/>
<path opacity="0.55" d="M85.6497 30.7604C85.2297 30.1304 84.7997 29.5004 84.3897 28.8604C83.5097 29.6104 82.5397 30.2804 81.5297 30.8804C81.4297 30.9404 81.3197 31.0004 81.2197 31.0604C81.6397 31.9504 82.0397 32.8504 82.4297 33.7504C84.4097 38.2604 97.6997 65.9904 100.59 74.6104C102.91 73.6304 105.27 72.3004 107.53 70.4704C108.5 69.6904 109.37 68.9503 110.17 68.2403C108.46 65.2903 91.5297 40.6504 85.6497 30.7604Z" fill="url(#paint7_linear_344_17663)"/>
<path d="M84.8199 33.7601C88.5499 31.6701 92.3799 28.1501 93.8899 24.0401L93.4199 23.4401C93.4199 23.4401 89.6299 22.3501 80.5099 27.4301C72.8599 31.6901 71.1499 36.3901 71.1499 36.3901L71.3699 37.0801C76.3099 37.6401 79.9499 36.4901 84.8199 33.7701V33.7601Z" fill="#E7ECEE"/>
<path d="M81.9196 26.6605C81.4096 27.5405 80.6696 28.2305 79.8596 29.0205C77.5496 31.3005 80.4796 32.8105 82.4596 32.7705C83.0496 32.7605 83.5796 32.6905 84.0996 32.6005C84.8396 32.4205 85.5796 32.2305 86.3196 32.0605C86.3996 32.0405 86.4596 32.0605 86.5296 32.0605C91.0696 28.9305 92.7496 25.6605 93.3996 23.4405C93.2596 23.4005 89.8396 22.5605 81.9196 26.6705V26.6605Z" fill="#525656"/>
<path d="M80.6899 32.2105C77.4099 31.3605 80.9499 28.2005 83.6399 25.8105C82.6699 26.2605 81.6299 26.8005 80.5099 27.4205C72.8599 31.6805 71.1499 36.3805 71.1499 36.3805V36.4205C73.9399 36.8305 78.6999 36.7105 84.6999 33.2205C86.7199 32.0505 88.2799 30.8305 89.4899 29.6405C87.4099 30.6905 83.4099 32.9205 80.6899 32.2105Z" fill="#8DA2AD"/>
<path d="M94.9494 29.3502C94.9494 29.3502 97.6394 18.2802 94.8594 10.1802C94.0794 7.89017 92.0894 6.23017 89.6894 5.96017C88.7794 5.86017 87.8594 5.86017 87.1694 6.09017C87.1694 6.09017 90.4494 6.23017 91.7294 8.49017C93.0094 10.7502 93.7694 21.4102 91.9694 28.5302C91.9694 28.5302 94.1494 28.2902 94.9494 29.3502Z" fill="#C6D0D2"/>
<g style="mix-blend-mode:multiply" opacity="0.55">
<path d="M92.4798 27.3599C92.4098 27.7299 92.3297 28.0999 92.2397 28.4599C92.2397 28.4599 94.0697 28.2599 94.7397 29.1499C94.7397 29.1499 94.8397 28.7499 94.9697 28.0499C94.3897 27.4899 93.2298 27.0799 92.4798 27.3599Z" fill="#A2B6BD"/>
</g>
<g style="mix-blend-mode:multiply">
<path d="M95.3994 29.7806C96.1794 31.1806 95.6294 32.9706 94.1794 33.7706C92.7294 34.5706 90.9194 34.1006 90.1394 32.7006C89.3594 31.3006 89.9094 29.5106 91.3594 28.7106C92.8094 27.9106 94.6194 28.3806 95.3994 29.7806Z" fill="#B6B8BB"/>
</g>
<path d="M95.1996 29.4401C95.9296 30.7401 95.4196 32.4101 94.0596 33.1701C92.6996 33.9301 91.0196 33.4801 90.2896 32.1801C89.5596 30.8801 90.0696 29.2101 91.4296 28.4501C92.7896 27.6901 94.4696 28.1401 95.1996 29.4401Z" fill="#E3E4E5"/>
<path d="M94.0997 30.0504C94.4997 30.7704 94.2197 31.6904 93.4697 32.1004C92.7197 32.5104 91.7897 32.2704 91.3897 31.5504C90.9897 30.8304 91.2697 29.9104 92.0197 29.5004C92.7697 29.0904 93.6997 29.3304 94.0997 30.0504Z" fill="#90A2A3"/>
<g style="mix-blend-mode:multiply" opacity="0.55">
<path d="M92.0298 29.5002C91.6698 29.7002 91.4298 30.0202 91.2998 30.3702C91.4398 30.1102 91.6498 29.8902 91.9298 29.7402C92.6798 29.3202 93.6098 29.5702 94.0098 30.2902C94.2198 30.6602 94.2398 31.0902 94.1098 31.4802C94.3398 31.0402 94.3598 30.5102 94.1098 30.0602C93.7098 29.3402 92.7798 29.1002 92.0298 29.5102V29.5002Z" fill="#90A2A3"/>
</g>
<path d="M70.9395 57.0199L78.7995 48.7099C78.7995 48.7099 79.9495 47.7499 80.9795 48.4599C82.0095 49.1699 81.6694 50.2799 81.6694 50.2799L72.6495 58.2299L70.9395 57.0199Z" fill="#90A2AB"/>
<path opacity="0.65" d="M72.5298 57.0798L73.0898 57.4698L81.3198 50.2198C81.3198 50.2198 81.5698 49.3898 80.9098 48.7598C79.4498 50.3898 73.7298 55.8198 72.5298 57.0798Z" fill="#5E737F"/>
<path d="M88.9397 63.2506C90.2597 66.3806 89.9797 69.4906 88.3097 70.2006C86.6397 70.9106 84.2097 68.9406 82.8897 65.8106C81.5697 62.6806 81.8497 59.5706 83.5197 58.8606C85.1897 58.1506 87.6197 60.1206 88.9397 63.2506Z" fill="#677B86"/>
<path d="M57.4795 57.47C57.4795 57.47 76.8195 66.79 86.9095 69.09C86.9095 69.09 88.7495 67.54 87.3395 63.72C85.9295 59.9 83.7895 59.71 83.7895 59.71L58.8895 53.29L57.4795 57.46V57.47Z" fill="#8AA2A9"/>
<path d="M85.8399 61.3906C84.9599 60.5906 84.2299 60.5206 84.2299 60.5206L59.3299 54.1006L57.8599 54.3806C59.7899 54.6106 80.6799 61.0406 85.8299 61.4006L85.8399 61.3906Z" fill="url(#paint8_linear_344_17663)"/>
<path opacity="0.65" d="M56.4395 55.5198L56.8295 56.6698C56.8295 56.6698 76.1695 65.9898 86.2595 68.2898C86.2595 68.2898 87.4495 67.2098 87.0195 64.9098C87.0195 64.9098 60.2395 57.0998 56.4395 55.5098V55.5198Z" fill="#6D808B"/>
<path d="M52.8999 46.5198L59.3299 53.4098C59.3299 53.4098 60.1399 54.5098 60.0699 55.9498C60.0299 57.0098 59.3299 58.3398 59.3299 58.3398L51.1499 64.0798L52.8999 46.5098V46.5198Z" fill="#6D808B"/>
<path d="M54.7997 47.3599C53.9997 46.2799 52.6897 45.8199 51.4997 46.1399C49.6497 46.6299 46.8497 48.4099 46.5297 54.6599C46.3197 58.7699 48.4997 63.7999 50.8397 64.2099C52.1997 64.4499 53.7097 63.3599 54.7097 61.4699C56.8597 57.4099 57.1897 50.5999 54.7997 47.3599Z" fill="#C6D0D2"/>
<path d="M54.1995 48.1703C53.4995 47.2203 52.3495 46.8203 51.3095 47.1003C49.6895 47.5303 47.2395 49.0903 46.9595 54.5703C46.7795 58.1703 48.6895 62.5703 50.7295 62.9403C51.9195 63.1503 53.2395 62.2003 54.1195 60.5403C55.9995 56.9903 56.2895 51.0203 54.1995 48.1803V48.1703Z" fill="#B0BEC1"/>
<g style="mix-blend-mode:multiply" opacity="0.55">
<path d="M49.8398 57.2905C48.6898 57.2105 47.7098 56.8205 46.8398 56.2305C47.0698 59.7605 48.8898 63.5305 50.8298 63.8805C52.0898 64.1005 53.4998 63.0905 54.4298 61.3305C55.7298 58.8705 56.3098 55.3205 55.9498 52.3105C55.2798 55.0305 52.6998 57.5005 49.8398 57.3005V57.2905Z" fill="#B0BEC1"/>
</g>
<path d="M52.4693 48.5299C52.6093 48.8199 52.5193 49.1899 52.2593 49.3399C51.9993 49.4999 51.6693 49.3799 51.5193 49.0899C51.3793 48.7899 51.4693 48.4299 51.7293 48.2799C51.9893 48.1299 52.3193 48.2399 52.4693 48.5299Z" fill="#6D808B"/>
<path d="M54.2894 51.1896C54.4294 51.4796 54.3394 51.8496 54.0794 52.0096C53.8194 52.1696 53.4894 52.0596 53.3494 51.7596C53.2094 51.4696 53.2994 51.0996 53.5594 50.9396C53.8194 50.7796 54.1494 50.8896 54.2894 51.1896Z" fill="#6D808B"/>
<path d="M54.2994 54.9601C54.4494 55.2601 54.3494 55.6301 54.0894 55.7901C53.8294 55.9501 53.4994 55.8501 53.3494 55.5501C53.1994 55.2501 53.2995 54.8801 53.5595 54.7201C53.8195 54.5601 54.1494 54.6701 54.2994 54.9601Z" fill="#6D808B"/>
<path d="M51.7293 56.7C51.8793 57 51.7793 57.38 51.5093 57.55C51.2393 57.72 50.8993 57.61 50.7593 57.31C50.6093 57.01 50.7093 56.63 50.9793 56.46C51.2493 56.29 51.5893 56.4 51.7293 56.7Z" fill="#6D808B"/>
<path d="M51.8597 53.1202C52.0097 53.4202 51.9097 53.7902 51.6397 53.9502C51.3697 54.1102 51.0397 54.0002 50.8897 53.7002C50.7397 53.4002 50.8397 53.0302 51.1097 52.8702C51.3797 52.7102 51.7097 52.8202 51.8597 53.1202Z" fill="#6D808B"/>
<path d="M49.9192 50.88C50.0692 51.18 49.9692 51.55 49.6992 51.71C49.4292 51.87 49.0892 51.76 48.9492 51.46C48.7992 51.16 48.8992 50.79 49.1692 50.63C49.4392 50.47 49.7792 50.58 49.9192 50.88Z" fill="#6D808B"/>
<path d="M53.3697 58.7496C53.5197 59.0496 53.4197 59.4296 53.1597 59.5996C52.8897 59.7696 52.5597 59.6696 52.4097 59.3696C52.2597 59.0696 52.3597 58.6896 52.6297 58.5196C52.8997 58.3496 53.2297 58.4596 53.3797 58.7596L53.3697 58.7496Z" fill="#6D808B"/>
<path d="M49.2294 54.73C49.3794 55.03 49.2794 55.41 48.9994 55.58C48.7294 55.75 48.3794 55.64 48.2394 55.34C48.0894 55.04 48.1894 54.66 48.4694 54.49C48.7394 54.32 49.0794 54.43 49.2294 54.74V54.73Z" fill="#6D808B"/>
<path d="M49.7394 58.4002C49.8894 58.7002 49.7894 59.0902 49.5094 59.2602C49.2394 59.4302 48.8894 59.3302 48.7394 59.0202C48.5894 58.7202 48.6894 58.3302 48.9694 58.1602C49.2394 57.9902 49.5894 58.1002 49.7394 58.4002Z" fill="#6D808B"/>
<path d="M51.3794 61.1198C51.5294 61.4198 51.4294 61.8098 51.1594 61.9898C50.8894 62.1698 50.5494 62.0598 50.3994 61.7598C50.2494 61.4598 50.3494 61.0698 50.6194 60.8898C50.8894 60.7098 51.2294 60.8198 51.3794 61.1198Z" fill="#6D808B"/>
<path d="M106.31 68.28C97.0699 75.75 86.1199 75.07 83.6299 74.8L84.3199 76.92C84.3199 76.92 97.0399 78.96 107.53 70.47C118.03 61.98 118.83 57.81 118.83 57.81L117.49 56C117.04 57.19 115 61.26 106.31 68.29V68.28Z" fill="#80959F"/>
<path d="M106.75 69.0799C97.2401 76.7699 85.9201 75.8199 83.8701 75.5799L84.1101 76.3199C85.5701 76.5199 97.3401 77.7999 107.17 69.8499C116.67 62.1599 118.23 58.0199 118.44 57.2999L117.97 56.6699C117.63 57.6699 115.79 61.7699 106.74 69.0899L106.75 69.0799Z" fill="#DAE4E7"/>
<g style="mix-blend-mode:multiply" opacity="0.65">
<path d="M101.48 71.4202C93.5796 75.5202 85.6896 75.0302 83.6196 74.8002L83.9996 75.9702L84.1096 76.3102L84.2996 76.9102C84.2996 76.9102 94.1996 78.4902 103.73 73.0402C102.92 72.5802 102.17 72.0302 101.47 71.4102L101.48 71.4202Z" fill="#8E9EA9"/>
</g>
<g style="mix-blend-mode:screen" opacity="0.55">
<path d="M56.3295 51.7C56.2495 51.09 56.1395 50.51 55.9895 49.96C53.4795 50.12 50.8895 50.82 48.4695 51.17C47.9795 51.24 47.4995 51.32 47.0095 51.39C46.8995 51.81 46.8095 52.27 46.7295 52.76C49.9295 52.39 53.1295 52.06 56.3295 51.7Z" fill="#C6D0D2"/>
</g>
<g style="mix-blend-mode:screen" opacity="0.55">
<path d="M55.3597 48.2999C55.1897 47.9599 55.0097 47.6399 54.7997 47.3599C53.9997 46.2799 52.6897 45.8199 51.4997 46.1399C50.3297 46.4499 48.7897 47.2799 47.7197 49.4199C50.2697 49.0699 52.8097 48.7199 55.3497 48.3099L55.3597 48.2999Z" fill="#C6D0D2"/>
</g>
<g style="mix-blend-mode:screen" opacity="0.55">
<path d="M90.9195 32.2702C91.9195 30.9702 92.7995 29.5902 93.6895 28.2202C92.9695 27.9902 92.1595 28.0402 91.4295 28.4402C90.0795 29.1902 89.5695 30.8602 90.2895 32.1702C90.3795 32.3402 90.4895 32.4902 90.6095 32.6302C90.7095 32.5102 90.8095 32.3902 90.9095 32.2702H90.9195Z" fill="#E3E4E5"/>
</g>
<g style="mix-blend-mode:screen" opacity="0.55">
<path d="M93.2299 33.3801C93.2299 33.3801 93.1699 33.4501 93.1499 33.4801C93.4599 33.4301 93.7799 33.3301 94.0699 33.1601C95.1899 32.5301 95.7199 31.2801 95.4599 30.1201C94.7499 31.2301 94.0299 32.3301 93.2299 33.3701V33.3801Z" fill="#E3E4E5"/>
</g>
<g style="mix-blend-mode:screen" opacity="0.55">
<path d="M84.1094 41.08C84.5694 42.26 83.8594 43.64 82.5194 44.17C81.1794 44.7 79.7094 44.17 79.2494 43C78.7894 41.82 79.4994 40.44 80.8394 39.91C82.1794 39.38 83.6494 39.91 84.1094 41.08Z" fill="#F6F6F7"/>
</g>
<g style="mix-blend-mode:screen" opacity="0.55">
<path d="M85.2397 45.53C85.4097 46.01 85.0197 46.58 84.3597 46.81C83.7097 47.04 83.0397 46.83 82.8797 46.36C82.7197 45.89 83.0997 45.31 83.7597 45.08C84.4197 44.85 85.0797 45.06 85.2397 45.53Z" fill="#F6F6F7"/>
</g>
<g style="mix-blend-mode:screen" opacity="0.55">
<path d="M95.0499 24.8103C94.8399 25.1803 94.3199 25.2803 93.8999 25.0303C93.4799 24.7903 93.2999 24.2903 93.5099 23.9203C93.7199 23.5503 94.2399 23.4503 94.6599 23.7003C95.0799 23.9403 95.2599 24.4403 95.0499 24.8103Z" fill="#F6F6F7"/>
</g>
<path d="M28.6598 93.4799C28.1998 92.7499 27.6598 92.0699 27.0798 91.4399C26.5198 90.9199 25.9198 90.4399 25.2798 89.9999C24.0698 89.3099 22.7798 88.7299 21.4298 88.3699C20.7098 88.1799 19.9798 88.0699 19.2498 87.9899C18.5198 87.9099 17.7798 87.8599 17.0398 87.8599C15.5698 87.8499 14.0998 87.9899 12.6698 88.3499C11.7798 88.5699 10.8998 88.8799 10.0698 89.2699C11.1498 89.2499 12.1198 89.9299 12.8598 90.6699C13.7598 91.5699 14.4798 92.6399 15.2598 93.6499C16.1098 94.7399 16.9898 95.8099 17.9998 96.7599C19.0098 97.7099 20.1498 98.5599 21.3998 99.1499C22.3798 99.6099 23.4198 99.9499 24.4898 100.13C25.5798 100.32 26.7498 100.35 27.8098 99.9699C28.3098 99.7899 28.7798 99.5099 29.1498 99.1199C29.6198 98.6399 29.9098 98.0099 29.9698 97.3299C30.0898 95.9499 29.3798 94.6099 28.6598 93.4799Z" fill="#67AD14"/>
<path d="M28.6598 93.4804C28.1998 92.7504 27.6598 92.0704 27.0798 91.4404C26.5198 90.9204 25.9198 90.4404 25.2798 90.0004C24.0698 89.3104 22.7798 88.7304 21.4298 88.3704C20.7098 88.1804 19.9798 88.0703 19.2498 87.9903C18.5198 87.9103 17.7798 87.8604 17.0398 87.8604H17.0198C17.5098 87.9204 17.9998 88.0103 18.4798 88.1303C19.3698 88.3603 20.2098 88.7004 21.0098 89.1404C21.7598 89.5604 22.4798 90.0404 23.1798 90.5504C23.7498 90.9604 24.4098 91.4003 24.6598 92.0903C24.6598 92.1103 24.6498 92.1404 24.6298 92.1404C24.3298 92.1204 24.0398 91.9704 23.7698 91.8304C23.4898 91.6804 23.2198 91.5004 22.9198 91.3704C22.2398 91.0604 21.5498 90.7804 20.8398 90.5504C20.2298 90.3604 19.6098 90.2004 18.9898 90.0504C18.3698 89.9004 17.7398 89.7504 17.1098 89.6604C16.5698 89.5904 16.0098 89.5404 15.4598 89.6104C15.7098 89.6804 15.9698 89.7303 16.2298 89.7803C16.8798 89.9103 17.5498 90.0004 18.1798 90.2304C18.7998 90.4504 19.3898 90.7203 19.9698 91.0303C20.8598 91.5003 21.7198 92.0603 22.4998 92.7003C23.1398 93.2203 23.7498 93.8003 24.2498 94.4503C24.6898 95.0203 25.1198 95.7504 25.0398 96.5004C24.9998 96.8604 24.8298 97.1804 24.5898 97.4404C24.2698 97.7804 23.8498 97.9703 23.3898 98.0203C22.8698 98.0803 22.3398 98.0004 21.8498 97.8604C21.3598 97.7304 20.8998 97.5404 20.4398 97.3204C19.3498 96.7904 18.3798 96.0604 17.4998 95.2304C17.0398 94.8004 16.6098 94.3404 16.1998 93.8704C15.8098 93.4304 15.4598 92.9703 15.0898 92.5203C14.3698 91.6203 13.5998 90.7204 12.5898 90.1404C12.2698 89.9604 11.9398 89.8104 11.5898 89.6904C12.0598 89.9504 12.4898 90.3103 12.8598 90.6703C13.7598 91.5703 14.4798 92.6404 15.2598 93.6504C16.1098 94.7404 16.9898 95.8104 17.9998 96.7604C19.0098 97.7104 20.1498 98.5604 21.3998 99.1604C22.3798 99.6204 23.4198 99.9604 24.4898 100.14C25.5798 100.33 26.7498 100.36 27.8098 99.9804C28.3098 99.8004 28.7798 99.5203 29.1498 99.1303C29.6198 98.6503 29.9098 98.0203 29.9698 97.3403C30.0898 95.9603 29.3798 94.6203 28.6598 93.4903V93.4804Z" fill="#409100"/>
<path d="M31.1097 99.5203C28.8897 95.3903 25.4097 92.0403 20.6597 90.7803C25.1197 92.8403 28.1997 96.2003 30.2997 100.25C30.5397 99.9803 30.8097 99.7403 31.1097 99.5203Z" fill="#405621"/>
<defs>
<linearGradient id="paint0_linear_344_17663" x1="64.9896" y1="-147.64" x2="61.2196" y2="150.85" gradientUnits="userSpaceOnUse">
<stop offset="0.36" stop-color="white"/>
<stop offset="0.81" stop-color="#CAF5FF"/>
</linearGradient>
<linearGradient id="paint1_linear_344_17663" x1="85.7273" y1="29.2945" x2="103.624" y2="72.3369" gradientUnits="userSpaceOnUse">
<stop offset="0.08" stop-color="#D1E0E6"/>
<stop offset="0.5" stop-color="#CFD4D3"/>
<stop offset="1" stop-color="#AFC0CC"/>
</linearGradient>
<linearGradient id="paint2_linear_344_17663" x1="86.3174" y1="31.4835" x2="103.099" y2="71.8271" gradientUnits="userSpaceOnUse">
<stop offset="0.08" stop-color="#D1E0E6"/>
<stop offset="0.5" stop-color="#CFD4D3"/>
<stop offset="1" stop-color="#AFC0CC"/>
</linearGradient>
<linearGradient id="paint3_linear_344_17663" x1="73.7205" y1="34.2905" x2="91.6119" y2="77.3241" gradientUnits="userSpaceOnUse">
<stop offset="0.08" stop-color="#D1E0E6"/>
<stop offset="0.5" stop-color="#CFD4D3"/>
<stop offset="1" stop-color="#AFC0CC"/>
</linearGradient>
<linearGradient id="paint4_linear_344_17663" x1="75.0876" y1="33.7237" x2="92.979" y2="76.7573" gradientUnits="userSpaceOnUse">
<stop offset="0.08" stop-color="#D1E0E6"/>
<stop offset="0.5" stop-color="#CFD4D3"/>
<stop offset="1" stop-color="#AFC0CC"/>
</linearGradient>
<linearGradient id="paint5_linear_344_17663" x1="75.783" y1="52.947" x2="107.327" y2="61.0692" gradientUnits="userSpaceOnUse">
<stop offset="0.1" stop-color="#47606D"/>
<stop offset="0.5" stop-color="#84949D"/>
<stop offset="1" stop-color="#86969F"/>
</linearGradient>
<linearGradient id="paint6_linear_344_17663" x1="79.5276" y1="38.4049" x2="111.08" y2="46.5222" gradientUnits="userSpaceOnUse">
<stop offset="0.1" stop-color="#47606D"/>
<stop offset="0.5" stop-color="#84949D"/>
<stop offset="1" stop-color="#86969F"/>
</linearGradient>
<linearGradient id="paint7_linear_344_17663" x1="87.9107" y1="34.5687" x2="101.537" y2="63.3339" gradientUnits="userSpaceOnUse">
<stop offset="0.1" stop-color="#47606D"/>
<stop offset="0.5" stop-color="#84949D"/>
<stop offset="1" stop-color="#86969F"/>
</linearGradient>
<linearGradient id="paint8_linear_344_17663" x1="62.6695" y1="63.0026" x2="81.0309" y2="52.7702" gradientUnits="userSpaceOnUse">
<stop offset="0.08" stop-color="#D1E0E6"/>
<stop offset="1" stop-color="#AFC0CC"/>
</linearGradient>
</defs>
</svg>
