<svg width="280" height="250" viewBox="0 0 280 250" fill="none" xmlns="http://www.w3.org/2000/svg">
<path d="M120.435 20.2414C119.831 20.2414 119.747 19.9347 120.184 19.3213L126.876 9.92553L120.658 1.17099C120.221 0.557614 120.305 0.250926 120.909 0.250926H122.624C123.033 0.250926 123.358 0.432151 123.6 0.7946L128.493 8.07146L133.386 0.7946C133.627 0.432151 133.953 0.250926 134.362 0.250926H136.076C136.68 0.250926 136.764 0.557614 136.327 1.17099L130.11 9.92553L136.801 19.3213C137.238 19.9347 137.154 20.2414 136.55 20.2414H134.822C134.413 20.2414 134.087 20.0602 133.846 19.6977L128.493 11.7796L123.14 19.6977C122.898 20.0602 122.573 20.2414 122.164 20.2414H120.435Z" fill="#292738"/>
<path d="M139.059 20.2414C138.548 20.2414 138.293 20.0323 138.293 19.6141V18.9449C138.293 18.5825 138.446 18.2479 138.753 17.9412L144.217 12.4348C145.835 10.8084 146.894 9.55379 147.396 8.6709C147.907 7.77871 148.163 6.75178 148.163 5.59008C148.163 4.61426 147.874 3.78713 147.298 3.1087C146.731 2.43027 145.867 2.09105 144.705 2.09105C143.664 2.09105 142.8 2.35592 142.112 2.88565C141.425 3.41539 140.927 4.30292 140.621 5.54826C140.491 6.07799 140.217 6.28245 139.798 6.16163L138.711 5.84101C138.423 5.75736 138.353 5.36239 138.502 4.65608C138.771 3.43862 139.422 2.36057 140.454 1.42192C141.494 0.473972 142.875 0 144.594 0C146.778 0 148.372 0.54832 149.375 1.64496C150.388 2.7416 150.895 4.08452 150.895 5.67372C150.895 7.22575 150.477 8.56402 149.64 9.68854C148.813 10.8131 147.675 12.077 146.225 13.4803L141.638 17.9273V17.9831C141.889 17.9645 142.261 17.9552 142.754 17.9552H150.351C150.862 17.9552 151.118 18.1643 151.118 18.5825V19.6141C151.118 20.0323 150.862 20.2414 150.351 20.2414H139.059Z" fill="#292738"/>
<path d="M0.525875 196.435C-0.078207 196.435 -0.161849 196.128 0.274948 195.515L6.96632 186.119L0.74892 177.364C0.312123 176.751 0.395765 176.444 0.999847 176.444H2.71451C3.12343 176.444 3.4487 176.625 3.69033 176.988L8.5834 184.265L13.4765 176.988C13.7181 176.625 14.0434 176.444 14.4523 176.444H16.1669C16.771 176.444 16.8547 176.751 16.4179 177.364L10.2005 186.119L16.8918 195.515C17.3286 196.128 17.245 196.435 16.6409 196.435H14.9123C14.5034 196.435 14.1781 196.253 13.9365 195.891L8.5834 187.973L3.2303 195.891C2.98867 196.253 2.6634 196.435 2.25448 196.435H0.525875Z" fill="#292738"/>
<path d="M19.1502 196.435C18.639 196.435 18.3835 196.226 18.3835 195.807V195.138C18.3835 194.776 18.5368 194.441 18.8435 194.135L24.3081 188.628C25.9252 187.002 26.9847 185.747 27.4865 184.864C27.9977 183.972 28.2532 182.945 28.2532 181.783C28.2532 180.808 27.9651 179.98 27.3889 179.302C26.822 178.624 25.9577 178.284 24.796 178.284C23.7551 178.284 22.8908 178.549 22.2031 179.079C21.5154 179.609 21.0182 180.496 20.7115 181.742C20.5814 182.271 20.3072 182.476 19.889 182.355L18.8017 182.034C18.5136 181.951 18.4439 181.556 18.5926 180.849C18.8621 179.632 19.5126 178.554 20.5442 177.615C21.5851 176.667 22.9652 176.193 24.6845 176.193C26.8685 176.193 28.4623 176.742 29.466 177.838C30.479 178.935 30.9855 180.278 30.9855 181.867C30.9855 183.419 30.5673 184.757 29.7309 185.882C28.9038 187.006 27.7653 188.27 26.3155 189.674L21.7291 194.121V194.176C21.9801 194.158 22.3518 194.148 22.8444 194.148H30.4419C30.953 194.148 31.2086 194.358 31.2086 194.776V195.807C31.2086 196.226 30.953 196.435 30.4419 196.435H19.1502Z" fill="#292738"/>
<path d="M249.317 204.592C248.713 204.592 248.63 204.285 249.066 203.672L255.758 194.276L249.54 185.521C249.104 184.908 249.187 184.601 249.791 184.601H251.506C251.915 184.601 252.24 184.783 252.482 185.145L257.375 192.422L262.268 185.145C262.51 184.783 262.835 184.601 263.244 184.601H264.958C265.562 184.601 265.646 184.908 265.209 185.521L258.992 194.276L265.683 203.672C266.12 204.285 266.036 204.592 265.432 204.592H263.704C263.295 204.592 262.97 204.411 262.728 204.048L257.375 196.13L252.022 204.048C251.78 204.411 251.455 204.592 251.046 204.592H249.317Z" fill="#292738"/>
<path d="M267.942 204.592C267.43 204.592 267.175 204.383 267.175 203.964V203.295C267.175 202.933 267.328 202.598 267.635 202.292L273.1 196.785C274.717 195.159 275.776 193.904 276.278 193.021C276.789 192.129 277.045 191.102 277.045 189.94C277.045 188.965 276.757 188.137 276.18 187.459C275.613 186.781 274.749 186.441 273.587 186.441C272.547 186.441 271.682 186.706 270.995 187.236C270.307 187.766 269.81 188.653 269.503 189.899C269.373 190.428 269.099 190.633 268.68 190.512L267.593 190.191C267.305 190.108 267.235 189.713 267.384 189.006C267.654 187.789 268.304 186.711 269.336 185.772C270.377 184.824 271.757 184.35 273.476 184.35C275.66 184.35 277.254 184.899 278.257 185.995C279.27 187.092 279.777 188.435 279.777 190.024C279.777 191.576 279.359 192.914 278.522 194.039C277.695 195.163 276.557 196.427 275.107 197.831L270.521 202.278V202.333C270.771 202.315 271.143 202.306 271.636 202.306H279.233C279.744 202.306 280 202.515 280 202.933V203.964C280 204.383 279.744 204.592 279.233 204.592H267.942Z" fill="#292738"/>
<path d="M40.4107 176.745C40.4373 168.756 42.2991 161.509 45.2214 154.49C46.4747 151.478 46.4149 152.177 44.101 150.178C35.4704 142.735 30.4004 133.476 30.6165 121.923C30.7794 113.206 34.0042 105.34 39.1307 98.3683C45.8131 89.2756 54.8227 82.8425 64.3543 77.0744C75.4318 70.3687 87.1376 64.9796 99.2224 60.375C100.685 59.8165 102.128 59.5904 103.501 60.5612C104.455 61.2328 104.924 62.1969 105.14 63.3439C106.423 70.1559 107.138 77.0378 107.697 83.9396C108.352 92.0616 108.511 100.203 108.006 108.335C107.411 117.943 106.124 127.475 101.756 136.199C96.5827 146.535 89.0858 154.46 77.5096 157.652C70.169 159.677 62.9181 159.158 55.7702 156.721C53.0773 155.804 53.0441 155.707 51.9603 158.42C49.0214 165.774 47.3757 173.344 48.5193 181.313C49.7694 190.013 54.3174 196.606 61.5317 201.46C62.4061 202.048 63.3336 202.55 64.2014 203.146C66.1695 204.492 66.6782 206.444 65.5877 208.319C64.5371 210.124 62.4127 210.749 60.3748 209.705C56.0861 207.507 52.326 204.582 49.2241 200.905C43.2698 193.847 40.4406 185.625 40.4107 176.745ZM67.0572 151.063C75.4251 151.093 81.8781 148.513 87.2772 143.273C94.3187 136.441 97.6366 127.854 99.1227 118.382C99.3155 117.155 98.8634 117.139 97.9857 117.588C97.7397 117.714 97.4837 117.82 97.231 117.937C87.3603 122.455 77.493 126.976 67.619 131.481C66.8444 131.833 66.1662 132.242 65.724 133.014C62.9679 137.818 60.2052 142.618 57.4192 147.406C56.8241 148.43 57.0003 148.968 58.154 149.361C61.3289 150.441 64.5903 150.97 67.0572 151.059V151.063ZM38.4957 121.524C38.5157 131.378 42.442 138.293 48.7953 144.058C49.6597 144.843 50.0952 144.666 50.6537 143.679C53.3001 139.005 56.003 134.363 58.7324 129.739C59.3674 128.665 59.5004 127.595 59.3508 126.401C58.0309 115.743 56.7144 105.084 55.4378 94.422C55.2849 93.1454 54.8261 93.1587 54.0016 93.8468C52.0866 95.446 50.2348 97.1182 48.5659 98.9733C42.5218 105.686 38.7152 113.362 38.4957 121.527V121.524ZM92.1211 71.9379C90.3259 72.1673 89.2254 72.9419 88.0519 73.4705C79.6606 77.2506 71.532 81.526 63.8091 86.5494C62.8017 87.2043 62.3928 87.9557 62.5457 89.1625C63.3702 95.6953 64.1382 102.238 64.9394 108.774C65.2586 111.364 65.6176 113.951 65.9567 116.537C66.0764 116.55 66.1961 116.564 66.3158 116.58C74.8566 101.806 83.3941 87.0315 92.1211 71.9346V71.9379ZM73.2575 120.061C73.6764 120.061 73.7961 120.094 73.8825 120.058C82.3336 116.195 90.778 112.322 99.2291 108.458C99.9638 108.123 100.313 107.601 100.336 106.783C100.399 104.795 100.542 102.807 100.595 100.818C100.755 94.8941 100.117 88.9996 99.884 83.0885C99.8042 81.1038 99.4884 79.129 99.2756 77.1508C99.2424 76.8317 99.3288 76.3962 98.9631 76.2731C98.4478 76.0969 98.3747 76.6389 98.1719 76.9314C97.9524 77.2472 97.7663 77.5897 97.5701 77.9255C91.3931 88.6007 85.216 99.2759 79.0456 109.958C77.1406 113.252 75.2589 116.564 73.2542 120.068L73.2575 120.061Z" fill="#292738"/>
<path d="M232.731 111.888C232.638 122.364 231.86 132.783 230.207 143.136C229.991 144.502 229.858 145.885 229.552 147.229C228.887 150.174 226.79 151.321 223.957 150.261C218.043 148.05 212.225 145.603 206.516 142.9C196.739 138.269 187.274 133.092 178.567 126.633C170.295 120.496 162.994 113.478 158.746 103.83C154.394 93.9456 153.589 83.9653 158.107 73.9018C160.581 68.3963 164.351 63.8649 168.959 60.0183C169.713 59.3867 170.092 58.9412 169.378 58.0203C164.783 52.0992 159.623 46.8431 152.788 43.4852C143.06 38.7045 133.542 39.2697 124.203 44.5724C121.663 46.0152 119.542 45.6695 118.282 43.585C117.129 41.68 117.624 39.4858 119.665 38.2756C129.173 32.6504 139.237 30.8352 149.979 34.0833C159.666 37.0156 167.123 43.0996 173.453 50.7627C173.769 51.1484 174.049 51.5706 174.401 51.9164C175.345 52.8406 175.737 54.6059 176.997 54.7722C178.178 54.9284 179.498 54.0773 180.751 53.6584C196.15 48.4854 211.949 53.6584 221.6 66.7307C227.804 75.1352 230.49 84.69 231.733 94.8233C232.428 100.488 232.814 106.173 232.724 111.888H232.731ZM191.732 59.4831C189.205 59.3335 185.871 60.0682 182.573 61.1221C181.263 61.5377 181.236 62.1095 181.861 63.1667C184.587 67.7945 187.27 72.4489 189.95 77.1033C190.409 77.8979 190.967 78.4897 191.832 78.882C201.955 83.5098 212.065 88.1709 222.182 92.8153C222.567 92.9915 222.993 93.3838 223.402 93.048C223.788 92.7322 223.578 92.2169 223.505 91.7913C222.298 84.6734 220.23 77.8979 215.835 72.0034C210.047 64.2406 202.706 59.4166 191.732 59.4831ZM162.911 86.6848C163.077 100.369 170.651 110.303 178.736 116.932C179.501 117.557 179.73 117.231 179.823 116.39C180.159 113.308 180.528 110.233 180.904 107.154C181.881 99.1852 182.859 91.2195 183.863 83.2538C183.952 82.5523 183.836 81.9639 183.487 81.3588C180.681 76.5215 177.875 71.681 175.119 66.8138C174.547 65.8064 174.065 65.7566 173.231 66.4979C166.864 72.1929 163.097 79.1347 162.915 86.6814L162.911 86.6848ZM190.811 94.0321C190.07 94.4909 190.226 95.0461 190.169 95.5082C189.126 104.019 188.131 112.533 187.021 121.034C186.835 122.454 187.161 123.235 188.364 124.026C195.652 128.804 203.361 132.793 211.227 136.49C212.787 137.222 214.309 138.119 216.567 138.581C207.823 123.455 199.322 108.75 190.811 94.0288V94.0321ZM223.438 135.004C224.04 131.055 224.233 127.6 224.516 124.153C225.054 117.633 225.058 111.11 224.901 104.578C224.868 103.165 224.283 102.287 222.92 101.679C217.108 99.0888 211.347 96.3859 205.562 93.7362C203.032 92.5759 200.489 91.4389 197.952 90.2886C197.882 90.3817 197.809 90.4781 197.739 90.5712C206.224 105.239 214.708 119.911 223.435 135.004H223.438Z" fill="#292738"/>
<path d="M156.847 176.114C165.8 176.237 173.689 177.996 180.651 182.919C188.012 188.126 192.284 195.37 194.498 203.96C194.717 204.818 195.057 205.683 195.067 206.547C195.083 208.292 195.844 208.642 197.464 208.399C205.855 207.149 213.791 204.805 220.483 199.289C227.069 193.864 230.287 186.752 230.919 178.361C230.989 177.424 230.929 176.48 230.969 175.539C231.065 173.122 232.538 171.543 234.715 171.503C236.949 171.463 238.592 173.075 238.675 175.529C238.818 179.771 238.213 183.93 236.953 187.979C233.266 199.845 225.048 207.405 213.854 212.059C208.504 214.283 202.889 215.573 197.131 216.162C195.751 216.301 195.392 217.043 195.226 218.196C194.382 224.058 192.251 229.437 188.869 234.274C182.922 242.782 174.62 247.456 164.454 249.098C154.547 250.701 145.168 248.683 136.035 245.069C122.544 239.73 110.406 232.02 98.7868 223.439C95.6684 221.139 92.633 218.725 89.6343 216.271C87.0378 214.147 87.0743 211.524 89.6708 209.423C102.145 199.319 115.283 190.23 129.868 183.391C137.272 179.92 144.905 177.154 153.12 176.333C154.55 176.19 155.993 176.164 156.851 176.114H156.847ZM177.832 216.817C175.342 216.817 172.848 216.88 170.358 216.793C168.892 216.743 167.682 217.162 166.512 218.013C163.2 220.424 159.849 222.781 156.508 225.151C151.089 228.991 145.663 232.821 140.251 236.671C139.869 236.944 139.25 237.156 139.32 237.725C139.38 238.214 139.982 238.257 140.377 238.4C148.12 241.232 155.966 242.851 164.288 241.285C176.402 239.005 185.036 230.547 187.4 218.376C187.633 217.179 187.367 216.773 186.137 216.8C183.371 216.857 180.601 216.817 177.832 216.817ZM177.815 209.047C180.641 209.047 183.464 209.02 186.29 209.06C187.334 209.074 187.669 208.735 187.447 207.681C185.166 196.886 179.268 189.156 168.576 185.606C159.371 182.55 150.331 183.777 141.401 186.955C139.962 187.467 140.294 187.886 141.245 188.598C149.124 194.515 157.053 200.373 164.813 206.444C167.373 208.445 169.956 209.446 173.171 209.077C174.7 208.901 176.269 209.047 177.819 209.044L177.815 209.047ZM155.444 208.971C154.49 208.233 153.928 207.79 153.36 207.362C146.634 202.315 139.885 197.295 133.203 192.191C132.069 191.327 131.205 191.201 129.931 191.862C120.922 196.533 112.398 201.976 104.209 207.953C103.897 208.183 103.365 208.339 103.574 208.971H155.444ZM103.282 216.923C103.621 217.322 103.707 217.472 103.837 217.565C111.919 223.419 120.257 228.862 129.13 233.463C130.098 233.965 130.789 233.908 131.683 233.267C137.445 229.134 143.25 225.065 149.038 220.972C150.823 219.709 152.598 218.429 154.706 216.92H103.282V216.923Z" fill="#292738"/>
</svg>
