<svg width="26" height="26" viewBox="0 0 26 26" fill="none" xmlns="http://www.w3.org/2000/svg">
<path d="M11.7674 12.046C11.1784 11.9946 10.6509 11.9689 10.1321 11.9089C8.04846 11.686 6.17578 11.1715 4.66357 10.1684C3.46787 9.37106 2.71176 8.41085 2.18425 7.36487C1.60398 6.20743 1.34902 5.01569 1.13801 3.81539C0.997339 2.98375 0.803929 2.16069 0.408294 1.36335C0.329166 1.20045 0.223662 1.04609 0.118159 0.90034C-0.215933 0.437365 0.188492 -0.00845191 0.953387 0.000121697C5.068 0.0172689 8.52321 1.0204 11.2223 3.07807C12.6818 4.19264 13.5698 5.51296 14.1676 6.92761C14.7743 8.3594 15.0292 9.82548 14.9853 11.3173C14.9853 11.3859 14.9853 11.463 14.9853 11.5316C14.9853 11.5402 15.0028 11.5488 15.0292 11.5745C15.0732 11.5402 15.1259 11.5145 15.1611 11.4802C16.5063 10.0741 18.4405 9.16532 20.7967 8.64233C21.8166 8.41941 22.8804 8.28222 23.9354 8.14504C24.586 8.05931 24.9904 8.31654 24.9992 8.75379C25.0256 10.5542 24.3662 12.2261 22.6606 13.6664C21.2627 14.8496 19.39 15.5526 17.2184 15.947C17.0074 15.9813 16.7876 16.0156 16.4887 16.067C16.5766 15.8527 16.6293 15.6727 16.7173 15.4926C17.1744 14.5838 17.9833 13.8379 19.1438 13.2549C19.3373 13.1606 19.3724 13.092 19.2054 12.9634C18.9592 12.7748 18.7394 12.569 18.4669 12.329C18.0097 12.6119 17.5437 12.8691 17.1305 13.1606C16.0843 13.8893 15.3106 14.7124 15.0204 15.7156C14.9589 15.9213 14.9413 16.1356 14.9325 16.35C14.9237 17.1645 14.9237 17.979 14.9325 18.7934C14.9325 18.9478 14.871 19.0078 14.6248 18.9992C14.1764 18.9821 13.7192 18.9992 13.2357 18.9992C13.2269 18.922 13.2181 18.8535 13.2181 18.7849C13.2181 16.4871 13.2357 14.198 13.2181 11.9003C13.2005 8.94239 11.4245 6.5332 7.96932 4.65558C7.87261 4.60414 7.76711 4.5527 7.63523 4.49268C7.3451 4.74989 7.07256 4.99855 6.78242 5.26433C10.097 6.97905 11.7674 9.21673 11.7674 12.046Z" fill="#63F23B"/>
<path d="M12.955 25.8497C8.97544 25.8497 4.99588 25.8497 1.01633 25.8497C0.503411 25.8497 0.105455 25.6532 0.0612374 25.3495C0.034707 25.1977 0.0966182 25.0101 0.220426 24.8761C0.627225 24.4206 1.0694 23.983 1.52041 23.5453C2.19252 22.8933 3.12108 22.5361 4.29726 22.5093C4.89861 22.4914 5.40268 22.3575 5.82717 22.0538C6.38431 21.6697 6.97682 21.2946 7.55164 20.9105C8.2768 20.4282 9.14347 20.196 10.1428 20.196C10.9122 20.196 11.6815 20.1424 12.4332 20.3211C12.955 20.4461 13.4149 20.6337 13.804 20.9016C14.0604 21.0803 14.3169 21.2589 14.5733 21.4286C14.9448 21.6787 15.3869 21.8037 15.9087 21.8037C17.1291 21.8037 18.3583 21.8037 19.5787 21.8037C20.6134 21.8037 21.5154 22.0359 22.2494 22.5361C23.3549 23.2863 24.4603 24.0366 25.5569 24.7958C25.8487 24.9923 25.9283 25.2513 25.778 25.4835C25.61 25.7336 25.3004 25.8408 24.8936 25.8408C20.9141 25.8497 16.9345 25.8497 12.955 25.8497Z" fill="#63F23B"/>
<path d="M24.9667 1.69606C24.9667 4.35766 22.1103 6.60842 18.228 7.0014C17.9362 7.0282 17.6355 7.03713 17.3437 7.05499C17.1757 7.06392 17.0961 7.02816 17.0784 6.90312C16.7954 5.00963 17.6886 3.42875 19.7756 2.1694C21.1287 1.35663 22.7293 0.94578 24.5245 0.88326C24.7899 0.874328 24.9048 0.927917 24.9137 1.10655C24.9225 1.30304 24.949 1.49957 24.9667 1.69606Z" fill="#63F23B"/>
</svg>
