<svg width="35" height="36" viewBox="0 0 35 36" fill="none" xmlns="http://www.w3.org/2000/svg">
<mask id="path-1-inside-1_175_3726" fill="white">
<path d="M2.64098 26.1701C4.39098 26.1701 5.20098 27.0101 5.20098 28.2801C5.20098 29.5401 4.38098 30.4901 2.96098 30.4901H1.36098V32.8901H0.720977V26.1701H2.64098ZM2.96098 29.8501C3.83098 29.8501 4.56098 29.4401 4.56098 28.3401C4.56098 27.2401 3.78098 26.8101 2.91098 26.8101H1.36098V29.8501H2.96098ZM10.8004 32.8901H10.0404L8.23043 30.4901H6.80043V32.8901H6.16043V26.1701H8.08043C9.83043 26.1701 10.6404 27.0101 10.6404 28.2801C10.6404 29.3701 10.0304 30.2301 8.94043 30.4401L10.8004 32.8901ZM6.80043 26.8101V29.8501H8.40043C9.27043 29.8501 10.0004 29.4401 10.0004 28.3401C10.0004 27.2401 9.22043 26.8101 8.35043 26.8101H6.80043ZM14.7199 26.0901C16.6199 26.0901 18.1599 27.6301 18.1599 29.5301C18.1599 31.4301 16.6199 32.9701 14.7199 32.9701C12.8199 32.9701 11.2799 31.4301 11.2799 29.5301C11.2799 27.6301 12.8199 26.0901 14.7199 26.0901ZM14.7199 32.3301C16.2799 32.3301 17.5199 31.0901 17.5199 29.5301C17.5199 27.9701 16.2799 26.7301 14.7199 26.7301C13.1599 26.7301 11.9199 27.9701 11.9199 29.5301C11.9199 31.0901 13.1599 32.3301 14.7199 32.3301ZM19.1975 32.8901V26.1701H22.8775V26.8101H19.8375V29.2101H22.3975V29.8501H19.8375V32.8901H19.1975ZM24.6422 32.8901H24.0022V26.1701H24.6422V32.8901ZM26.7223 32.2501H29.6023V32.8901H26.0823V26.1701H26.7223V32.2501ZM34.401 26.8101H31.361V29.2101H33.921V29.8501H31.361V32.2501H34.401V32.8901H30.721V26.1701H34.401V26.8101Z"/>
</mask>
<path d="M1.36098 30.4901V29.4901H0.360977V30.4901H1.36098ZM1.36098 32.8901V33.8901H2.36098V32.8901H1.36098ZM0.720977 32.8901H-0.279023V33.8901H0.720977V32.8901ZM0.720977 26.1701V25.1701H-0.279023V26.1701H0.720977ZM1.36098 26.8101V25.8101H0.360977V26.8101H1.36098ZM1.36098 29.8501H0.360977V30.8501H1.36098V29.8501ZM2.64098 27.1701C3.36991 27.1701 3.74093 27.3458 3.91856 27.5013C4.07657 27.6396 4.20098 27.8655 4.20098 28.2801H6.20098C6.20098 27.4247 5.92039 26.5956 5.23589 25.9964C4.57102 25.4144 3.66204 25.1701 2.64098 25.1701V27.1701ZM4.20098 28.2801C4.20098 28.6929 4.06949 28.9819 3.89509 29.162C3.72644 29.3362 3.43912 29.4901 2.96098 29.4901V31.4901C3.90283 31.4901 4.73552 31.1691 5.33186 30.5533C5.92246 29.9434 6.20098 29.1274 6.20098 28.2801H4.20098ZM2.96098 29.4901H1.36098V31.4901H2.96098V29.4901ZM0.360977 30.4901V32.8901H2.36098V30.4901H0.360977ZM1.36098 31.8901H0.720977V33.8901H1.36098V31.8901ZM1.72098 32.8901V26.1701H-0.279023V32.8901H1.72098ZM0.720977 27.1701H2.64098V25.1701H0.720977V27.1701ZM2.96098 30.8501C3.53446 30.8501 4.19194 30.7171 4.72317 30.2794C5.28759 29.8143 5.56098 29.1288 5.56098 28.3401H3.56098C3.56098 28.5049 3.53376 28.6001 3.51291 28.6492C3.49369 28.6944 3.47281 28.7182 3.45129 28.7359C3.40002 28.7781 3.25749 28.8501 2.96098 28.8501V30.8501ZM5.56098 28.3401C5.56098 27.5297 5.25996 26.844 4.69004 26.3843C4.15429 25.9521 3.49344 25.8101 2.91098 25.8101V27.8101C3.19851 27.8101 3.36266 27.8831 3.43441 27.941C3.46586 27.9664 3.49108 27.9968 3.51179 28.0434C3.53364 28.0925 3.56098 28.184 3.56098 28.3401H5.56098ZM2.91098 25.8101H1.36098V27.8101H2.91098V25.8101ZM0.360977 26.8101V29.8501H2.36098V26.8101H0.360977ZM1.36098 30.8501H2.96098V28.8501H1.36098V30.8501ZM10.8004 32.8901V33.8901H12.8151L11.5969 32.2855L10.8004 32.8901ZM10.0404 32.8901L9.24203 33.4923L9.54209 33.8901H10.0404V32.8901ZM8.23043 30.4901L9.02883 29.888L8.72877 29.4901H8.23043V30.4901ZM6.80043 30.4901V29.4901H5.80043V30.4901H6.80043ZM6.80043 32.8901V33.8901H7.80043V32.8901H6.80043ZM6.16043 32.8901H5.16043V33.8901H6.16043V32.8901ZM6.16043 26.1701V25.1701H5.16043V26.1701H6.16043ZM8.94043 30.4401L8.75125 29.4582L7.17061 29.7627L8.14395 31.0448L8.94043 30.4401ZM6.80043 26.8101V25.8101H5.80043V26.8101H6.80043ZM6.80043 29.8501H5.80043V30.8501H6.80043V29.8501ZM10.8004 31.8901H10.0404V33.8901H10.8004V31.8901ZM10.8388 32.288L9.02883 29.888L7.43203 31.0923L9.24203 33.4923L10.8388 32.288ZM8.23043 29.4901H6.80043V31.4901H8.23043V29.4901ZM5.80043 30.4901V32.8901H7.80043V30.4901H5.80043ZM6.80043 31.8901H6.16043V33.8901H6.80043V31.8901ZM7.16043 32.8901V26.1701H5.16043V32.8901H7.16043ZM6.16043 27.1701H8.08043V25.1701H6.16043V27.1701ZM8.08043 27.1701C8.80937 27.1701 9.18038 27.3458 9.35802 27.5013C9.51602 27.6396 9.64043 27.8655 9.64043 28.2801H11.6404C11.6404 27.4247 11.3598 26.5956 10.6753 25.9964C10.0105 25.4144 9.10149 25.1701 8.08043 25.1701V27.1701ZM9.64043 28.2801C9.64043 28.9567 9.30873 29.3508 8.75125 29.4582L9.12961 31.4221C10.7521 31.1095 11.6404 29.7836 11.6404 28.2801H9.64043ZM8.14395 31.0448L10.004 33.4948L11.5969 32.2855L9.73691 29.8355L8.14395 31.0448ZM5.80043 26.8101V29.8501H7.80043V26.8101H5.80043ZM6.80043 30.8501H8.40043V28.8501H6.80043V30.8501ZM8.40043 30.8501C8.97392 30.8501 9.63139 30.7171 10.1626 30.2794C10.727 29.8143 11.0004 29.1288 11.0004 28.3401H9.00043C9.00043 28.5049 8.97322 28.6001 8.95236 28.6492C8.93315 28.6944 8.91226 28.7182 8.89074 28.7359C8.83947 28.7781 8.69694 28.8501 8.40043 28.8501V30.8501ZM11.0004 28.3401C11.0004 27.5297 10.6994 26.844 10.1295 26.3843C9.59375 25.9521 8.93289 25.8101 8.35043 25.8101V27.8101C8.63797 27.8101 8.80211 27.8831 8.87387 27.941C8.90531 27.9664 8.93054 27.9968 8.95124 28.0434C8.97309 28.0925 9.00043 28.184 9.00043 28.3401H11.0004ZM8.35043 25.8101H6.80043V27.8101H8.35043V25.8101ZM14.7199 27.0901C16.0676 27.0901 17.1599 28.1824 17.1599 29.5301H19.1599C19.1599 27.0779 17.1722 25.0901 14.7199 25.0901V27.0901ZM17.1599 29.5301C17.1599 30.8779 16.0676 31.9701 14.7199 31.9701V33.9701C17.1722 33.9701 19.1599 31.9824 19.1599 29.5301H17.1599ZM14.7199 31.9701C13.3722 31.9701 12.2799 30.8779 12.2799 29.5301H10.2799C10.2799 31.9824 12.2676 33.9701 14.7199 33.9701V31.9701ZM12.2799 29.5301C12.2799 28.1824 13.3722 27.0901 14.7199 27.0901V25.0901C12.2676 25.0901 10.2799 27.0779 10.2799 29.5301H12.2799ZM14.7199 33.3301C16.8322 33.3301 18.5199 31.6424 18.5199 29.5301H16.5199C16.5199 30.5379 15.7276 31.3301 14.7199 31.3301V33.3301ZM18.5199 29.5301C18.5199 27.4179 16.8322 25.7301 14.7199 25.7301V27.7301C15.7276 27.7301 16.5199 28.5224 16.5199 29.5301H18.5199ZM14.7199 25.7301C12.6076 25.7301 10.9199 27.4179 10.9199 29.5301H12.9199C12.9199 28.5224 13.7122 27.7301 14.7199 27.7301V25.7301ZM10.9199 29.5301C10.9199 31.6424 12.6076 33.3301 14.7199 33.3301V31.3301C13.7122 31.3301 12.9199 30.5379 12.9199 29.5301H10.9199ZM19.1975 32.8901H18.1975V33.8901H19.1975V32.8901ZM19.1975 26.1701V25.1701H18.1975V26.1701H19.1975ZM22.8775 26.1701H23.8775V25.1701H22.8775V26.1701ZM22.8775 26.8101V27.8101H23.8775V26.8101H22.8775ZM19.8375 26.8101V25.8101H18.8375V26.8101H19.8375ZM19.8375 29.2101H18.8375V30.2101H19.8375V29.2101ZM22.3975 29.2101H23.3975V28.2101H22.3975V29.2101ZM22.3975 29.8501V30.8501H23.3975V29.8501H22.3975ZM19.8375 29.8501V28.8501H18.8375V29.8501H19.8375ZM19.8375 32.8901V33.8901H20.8375V32.8901H19.8375ZM20.1975 32.8901V26.1701H18.1975V32.8901H20.1975ZM19.1975 27.1701H22.8775V25.1701H19.1975V27.1701ZM21.8775 26.1701V26.8101H23.8775V26.1701H21.8775ZM22.8775 25.8101H19.8375V27.8101H22.8775V25.8101ZM18.8375 26.8101V29.2101H20.8375V26.8101H18.8375ZM19.8375 30.2101H22.3975V28.2101H19.8375V30.2101ZM21.3975 29.2101V29.8501H23.3975V29.2101H21.3975ZM22.3975 28.8501H19.8375V30.8501H22.3975V28.8501ZM18.8375 29.8501V32.8901H20.8375V29.8501H18.8375ZM19.8375 31.8901H19.1975V33.8901H19.8375V31.8901ZM24.6422 32.8901V33.8901H25.6422V32.8901H24.6422ZM24.0022 32.8901H23.0022V33.8901H24.0022V32.8901ZM24.0022 26.1701V25.1701H23.0022V26.1701H24.0022ZM24.6422 26.1701H25.6422V25.1701H24.6422V26.1701ZM24.6422 31.8901H24.0022V33.8901H24.6422V31.8901ZM25.0022 32.8901V26.1701H23.0022V32.8901H25.0022ZM24.0022 27.1701H24.6422V25.1701H24.0022V27.1701ZM23.6422 26.1701V32.8901H25.6422V26.1701H23.6422ZM26.7223 32.2501H25.7223V33.2501H26.7223V32.2501ZM29.6023 32.2501H30.6023V31.2501H29.6023V32.2501ZM29.6023 32.8901V33.8901H30.6023V32.8901H29.6023ZM26.0823 32.8901H25.0823V33.8901H26.0823V32.8901ZM26.0823 26.1701V25.1701H25.0823V26.1701H26.0823ZM26.7223 26.1701H27.7223V25.1701H26.7223V26.1701ZM26.7223 33.2501H29.6023V31.2501H26.7223V33.2501ZM28.6023 32.2501V32.8901H30.6023V32.2501H28.6023ZM29.6023 31.8901H26.0823V33.8901H29.6023V31.8901ZM27.0823 32.8901V26.1701H25.0823V32.8901H27.0823ZM26.0823 27.1701H26.7223V25.1701H26.0823V27.1701ZM25.7223 26.1701V32.2501H27.7223V26.1701H25.7223ZM34.401 26.8101V27.8101H35.401V26.8101H34.401ZM31.361 26.8101V25.8101H30.361V26.8101H31.361ZM31.361 29.2101H30.361V30.2101H31.361V29.2101ZM33.921 29.2101H34.921V28.2101H33.921V29.2101ZM33.921 29.8501V30.8501H34.921V29.8501H33.921ZM31.361 29.8501V28.8501H30.361V29.8501H31.361ZM31.361 32.2501H30.361V33.2501H31.361V32.2501ZM34.401 32.2501H35.401V31.2501H34.401V32.2501ZM34.401 32.8901V33.8901H35.401V32.8901H34.401ZM30.721 32.8901H29.721V33.8901H30.721V32.8901ZM30.721 26.1701V25.1701H29.721V26.1701H30.721ZM34.401 26.1701H35.401V25.1701H34.401V26.1701ZM34.401 25.8101H31.361V27.8101H34.401V25.8101ZM30.361 26.8101V29.2101H32.361V26.8101H30.361ZM31.361 30.2101H33.921V28.2101H31.361V30.2101ZM32.921 29.2101V29.8501H34.921V29.2101H32.921ZM33.921 28.8501H31.361V30.8501H33.921V28.8501ZM30.361 29.8501V32.2501H32.361V29.8501H30.361ZM31.361 33.2501H34.401V31.2501H31.361V33.2501ZM33.401 32.2501V32.8901H35.401V32.2501H33.401ZM34.401 31.8901H30.721V33.8901H34.401V31.8901ZM31.721 32.8901V26.1701H29.721V32.8901H31.721ZM30.721 27.1701H34.401V25.1701H30.721V27.1701ZM33.401 26.1701V26.8101H35.401V26.1701H33.401Z" fill="#C1C1C1" mask="url(#path-1-inside-1_175_3726)"/>
<path d="M18.3234 18.5319C18.355 18.4362 18.3802 18.3661 18.4055 18.2959C18.9237 16.6569 19.4355 15.0116 19.9536 13.3726C20.0421 13.0983 20.4654 12.9261 20.813 13.0218C20.8762 13.0409 20.9394 13.0601 20.9962 13.092C21.8366 13.5766 22.7529 13.8891 23.6691 14.1889C24.0672 14.3164 24.4589 14.4886 24.8381 14.6863C25.7543 15.1582 26.2345 15.9172 26.2535 16.9631C26.2598 17.4159 26.2661 17.8686 26.2535 18.3278C26.2408 18.9974 25.7669 19.4566 25.1034 19.4566C19.7135 19.4566 14.3236 19.4566 8.93365 19.4566C8.2765 19.4566 7.80891 18.9911 7.80259 18.3342C7.79627 17.8623 7.79627 17.384 7.80259 16.912C7.81523 15.9745 8.23859 15.2667 9.0158 14.7692C9.59081 14.3993 10.229 14.1889 10.8735 13.9975C11.5875 13.7871 12.2826 13.5256 12.9334 13.1493C13.2494 12.9708 13.559 12.9899 13.8623 13.1749C14.014 13.2641 14.1087 13.3853 14.1656 13.5639C14.6648 15.1837 15.1766 16.7972 15.6821 18.4107C15.6948 18.449 15.7137 18.4809 15.7706 18.5192C15.8022 18.3533 15.8401 18.1875 15.8654 18.0217C16.0233 17.1416 16.1813 16.2615 16.333 15.3814C16.3456 15.3113 16.2824 15.2284 16.2698 15.1519C16.1876 14.6544 16.1055 14.1506 16.0423 13.6532C16.0233 13.5129 16.1055 13.4172 16.2635 13.4172C16.769 13.4172 17.2808 13.4172 17.7863 13.4172C17.9822 13.4172 18.0454 13.5065 18.0138 13.7424C17.9632 14.0996 17.9063 14.4567 17.8432 14.8138C17.8179 14.9733 17.761 15.1263 17.7168 15.2794C17.7105 15.3049 17.7105 15.3304 17.7105 15.3559C17.8937 16.3891 18.0833 17.4222 18.2728 18.4617C18.2665 18.4745 18.2791 18.4872 18.3234 18.5319Z" stroke="#C1C1C1" stroke-miterlimit="10"/>
<path d="M20.7692 8.17483C20.6491 8.58298 20.5354 8.97203 20.409 9.35468C20.2258 9.91589 19.992 10.4579 19.6634 10.9554C19.1579 11.7015 18.4755 12.1607 17.5782 12.2691C16.6177 12.3839 15.7015 12.2628 14.918 11.625C14.3303 11.1467 13.9765 10.5026 13.7237 9.80745C13.5531 9.3419 13.4267 8.85722 13.2877 8.37891C13.2561 8.27049 13.2056 8.23862 13.1045 8.19398C12.9339 8.11745 12.7443 8.0154 12.6432 7.86234C12.2325 7.26924 12.1567 6.606 12.3841 5.92999C12.441 5.75143 12.6306 5.62385 12.7443 5.46441C12.7949 5.40064 12.8328 5.31136 12.8391 5.22845C12.8707 4.48229 13.016 3.76804 13.3509 3.09841C13.9007 2.00787 14.7853 1.34458 15.9732 1.11499C16.9969 0.910916 18.0015 0.961944 18.962 1.40199C20.1878 1.9632 20.8703 2.97084 21.142 4.27184C21.2115 4.59071 21.2115 4.92235 21.2557 5.2476C21.2684 5.31775 21.3063 5.4198 21.3631 5.45169C21.578 5.5601 21.7043 5.74504 21.7675 5.96187C21.9634 6.61237 21.8939 7.23734 21.5401 7.81769C21.3695 8.08554 21.142 8.27049 20.7692 8.17483Z" stroke="#C1C1C1" stroke-miterlimit="10"/>
</svg>
