<svg width="108" height="108" viewBox="0 0 108 108" fill="none" xmlns="http://www.w3.org/2000/svg">
<path d="M53.55 107.1C83.1248 107.1 107.1 83.1249 107.1 53.55C107.1 23.9752 83.1248 0 53.55 0C23.9751 0 0 23.9752 0 53.55C0 83.1249 23.9751 107.1 53.55 107.1Z" fill="white"/>
<path d="M82.0496 41.6736C82.0148 32.9512 78.295 24.3283 70.8308 20.9218C69.8412 20.4693 65.6292 18.3011 60.0794 19.4151C57.6328 19.9074 56.5139 20.708 55.7978 21.5037C53.4407 24.1194 54.1916 28.0281 54.2761 28.4508C53.928 28.6895 50.8597 30.8576 50.1984 34.3287C49.6861 36.9991 50.8995 39.2916 52.5555 40.7437C52.6848 40.8581 52.8489 41.0073 53.0826 41.1813C53.0826 41.1813 56.6332 43.9512 61.5564 43.802C62.5112 43.7722 63.3914 43.6329 63.3914 43.6329C64.3163 43.4887 64.8484 43.3097 65.9424 43.0312C66.579 42.8423 67.484 42.6085 68.5731 42.4395C69.876 42.2405 73.0487 41.793 76.4352 43.076C77.8127 43.5981 79.961 44.4485 81.3384 46.7758C81.4926 47.0394 81.607 47.2681 81.6865 47.4272C81.9849 45.4928 82.0545 43.5583 82.0496 41.6736Z" fill="#63F23B"/>
<path d="M79.9314 44.364C79.1507 43.7324 78.2854 43.2003 77.3803 42.7378C76.0526 42.0566 74.6602 41.4648 73.1633 41.1266C71.6118 40.7736 70.0404 40.8233 68.3645 40.9973C66.7284 41.1664 65.0924 41.4449 63.4613 41.6189C62.5761 41.7134 61.6561 41.8527 60.7958 41.803C59.9156 41.7582 57.3894 41.6239 55.6489 39.6348C55.0869 38.9983 53.8636 37.6009 54.1023 35.2537C54.3559 32.7374 56.1163 30.8626 56.7429 30.2609C58.0806 28.9729 59.4283 28.4956 59.9803 28.3066C61.3279 27.8441 62.3324 27.8988 63.3717 27.9585C65.1868 28.0579 66.4897 28.5851 67.3401 28.9282C68.096 29.2315 68.822 29.6045 69.1353 29.7686C69.6923 30.057 70.2393 30.3554 70.7664 30.6836C71.7908 31.3201 72.7605 32.0313 73.6706 32.812C74.5657 33.5828 75.3961 34.4282 76.1669 35.3283C76.9228 36.2184 77.619 37.1633 78.2555 38.1529C78.897 39.1524 79.4789 40.1967 80.001 41.2758C80.5281 42.3599 81.0055 43.4838 81.4332 44.6325C81.5874 45.0453 81.7365 45.468 81.8808 45.8857C81.9006 45.6569 81.9255 45.4232 81.9404 45.1895C81.5028 43.1506 80.8464 41.2062 80.0309 39.3613C79.2352 37.5611 78.2754 35.8653 77.1267 34.3188C75.8785 32.638 74.4314 31.1312 72.8401 29.7885C71.2537 28.4558 69.5232 27.3021 67.6832 26.3025C66.7135 25.7754 65.7388 25.2831 64.6945 24.8803C63.6353 24.4725 62.5363 24.1343 61.4174 23.8409C60.3582 23.5625 59.284 23.3089 58.195 23.1C57.817 23.0304 57.4242 22.9608 57.091 22.7967C56.8672 22.6823 56.6633 22.4983 56.7081 22.1999C56.7678 21.7872 57.1905 21.3844 57.4988 21.1009C57.827 20.8025 58.2 20.5688 58.5878 20.3798C59.483 19.9422 60.4378 19.7483 61.3528 19.6289C62.2628 19.5146 63.1629 19.4847 64.053 19.4847C64.8934 19.4798 65.7189 19.5046 66.5295 19.5792C66.5842 19.5842 63.69 18.5498 60.0847 19.4151C58.6326 19.7632 57.0612 20.1362 55.803 21.5037C53.3713 24.1443 54.2217 28.1773 54.2813 28.4508C53.5354 28.968 52.1828 30.0521 51.1733 31.8274C50.9296 32.26 50.4373 33.1352 50.1986 34.3238C50.1439 34.5873 49.9201 35.7858 50.2434 37.1533C50.4721 38.1081 50.87 38.6899 51.2529 39.2568C51.8049 40.0724 52.3618 40.5647 52.7199 40.883C52.8939 41.0371 53.615 41.6587 54.7935 42.2704C55.3256 42.5489 56.5987 43.1655 58.4337 43.5186C59.1548 43.6578 60.572 43.9214 62.4816 43.7523C64.0431 43.6131 65.6245 43.081 67.1959 42.718C69.5083 42.1859 70.7017 42.2207 71.567 42.2256C72.6461 42.2306 73.4368 42.3301 73.6606 42.3599C74.501 42.4743 76.0028 42.6931 77.6638 43.5385C78.6036 44.0159 80.2099 44.8613 81.3387 46.7758C81.463 46.9897 81.5774 47.2085 81.6868 47.4273C81.7365 47.0991 81.7813 46.7758 81.8161 46.4526C81.3238 45.642 80.6624 44.9558 79.9314 44.364Z" fill="#3BC414"/>
<path d="M65.9575 33.0557C66.5344 32.5037 66.42 32.0064 66.226 31.6732C65.6442 30.6538 64.0877 30.1814 62.6257 29.8979C62.024 29.7786 60.2586 29.3111 59.1397 29.9576C58.8811 30.0471 58.6225 30.1715 58.3689 30.3356C57.1307 31.1213 57.429 31.9368 57.8567 32.3496C58.5181 32.9861 59.5624 33.369 60.6465 33.6425C61.5963 33.8812 62.7202 34.1298 64.0181 33.9309C64.6198 33.8414 65.4353 33.558 65.9575 33.0557Z" fill="#63F23B"/>
<path d="M69.13 33.6225C69.1549 33.6125 69.1748 33.5976 69.1947 33.5777C69.2742 33.4932 69.2544 33.3689 69.2096 33.2992C69.1997 32.981 68.9659 32.7671 68.6725 32.7025C68.6228 32.6925 68.5681 32.6925 68.5134 32.7075C68.3344 32.6577 68.1504 32.792 68.1106 33.0108C68.0808 33.1849 68.1603 33.3788 68.2498 33.4981C68.3393 33.6274 68.4686 33.707 68.6079 33.7766C68.7968 33.8761 69.0157 33.8065 69.13 33.6225Z" fill="#63F23B"/>
<path d="M74.5732 32.7452C70.0977 27.2751 62.887 24.7886 58.1628 24.7886C56.1736 24.7886 50.989 24.7261 42.4982 29.7615C41.9313 30.8307 43.7415 31.5019 45.2333 31.1759C46.2279 30.2587 49.9128 28.6774 51.9467 27.7724C58.3567 25.1467 67.8599 26.7778 74.5732 32.7452Z" fill="#405621"/>
<path d="M51.4313 80.9338C58.7626 85.6597 68.0193 87.2421 74.9442 82.8415C75.8631 82.2586 79.9769 79.9095 82.0685 74.6497C82.9895 72.3302 82.9283 70.9557 82.6517 69.9216C81.7438 66.5196 78.0576 65.0183 77.6572 64.8587C77.6468 64.4368 77.5018 60.6826 74.9525 58.2358C72.993 56.3506 70.4096 56.1181 68.2895 56.7148C68.1232 56.7608 67.9086 56.8171 67.6353 56.9181C67.6353 56.9181 63.3776 58.3847 60.8188 62.5933C60.3233 63.41 59.9602 64.2238 59.9602 64.2238C59.5769 65.0779 59.4369 65.6216 59.0739 66.6905C58.8853 67.3272 58.5879 68.2133 58.1359 69.2185C57.5924 70.4192 56.238 73.323 53.3163 75.4626C52.1276 76.3328 50.2436 77.6702 47.5416 77.5562C47.2366 77.5418 46.9825 77.513 46.8057 77.4929C48.2647 78.7976 49.8485 79.9106 51.4313 80.9338Z" fill="#63F23B"/>
<path d="M50.3306 77.6912C51.2857 77.381 52.2035 76.9456 53.0846 76.439C54.3795 75.6973 55.6347 74.8526 56.7342 73.7821C57.876 72.6739 58.691 71.3294 59.4587 69.8295C60.2088 68.3658 60.8673 66.8424 61.6106 65.3801C62.0139 64.5865 62.3987 63.7393 62.9094 63.0452C63.4267 62.3317 64.9165 60.2871 67.5329 59.9123C68.3728 59.7883 70.2112 59.5245 72.0488 61.0042C74.0201 62.5885 74.6321 65.0864 74.7949 65.9397C75.1454 67.7633 74.811 69.1533 74.6685 69.7191C74.3215 71.101 73.7281 71.9133 73.1114 72.7521C72.0386 74.2195 70.8864 75.0244 70.1352 75.5502C69.4688 76.0185 68.7603 76.4239 68.4519 76.5971C67.9065 76.9068 67.3582 77.2027 66.7957 77.4657C65.7036 77.9775 64.5788 78.4028 63.4282 78.74C62.294 79.0703 61.1325 79.3056 59.9578 79.4611C58.7995 79.6095 57.6278 79.6781 56.4512 79.6722C55.2635 79.6651 54.0709 79.5836 52.8815 79.4331C51.6854 79.284 50.4829 79.0715 49.2868 78.8038C48.8567 78.708 48.421 78.6027 47.9922 78.4959C48.1731 78.6372 48.3555 78.7855 48.5433 78.9254C50.4912 79.67 52.4791 80.1797 54.4703 80.5018C56.4132 80.8161 58.3581 80.936 60.2808 80.816C62.3704 80.6859 64.4225 80.2942 66.4156 79.6921C68.3977 79.0887 70.3083 78.2669 72.1493 77.2693C73.1198 76.7437 74.0639 76.195 74.9709 75.5391C75.8902 74.8734 76.7728 74.1364 77.6287 73.3583C78.4396 72.6222 79.2378 71.8599 80.0066 71.0608C80.271 70.7819 80.5435 70.4905 80.8627 70.3006C81.0806 70.1754 81.346 70.1048 81.5718 70.305C81.8853 70.58 81.9925 71.1539 82.0621 71.5669C82.1333 72.0047 82.1259 72.4448 82.0729 72.873C81.9518 73.862 81.5938 74.7682 81.1951 75.6003C80.7949 76.4256 80.3292 77.1964 79.8439 77.9427C79.3899 78.6499 78.9191 79.3284 78.4147 79.9673C78.3807 80.0104 80.8256 78.148 82.0656 74.6538C82.5654 73.2467 83.1094 71.726 82.6488 69.9257C81.7608 66.4476 77.9162 64.9619 77.6543 64.8628C77.6274 63.9555 77.456 62.2306 76.518 60.4165C76.2881 59.9764 75.8228 59.0865 74.9565 58.2385C74.7654 58.0489 73.8827 57.208 72.56 56.7335C71.6348 56.4047 70.9302 56.4211 70.2462 56.433C69.2616 56.4512 68.5452 56.6497 68.0832 56.7764C67.8591 56.8383 66.9449 57.1039 65.7896 57.7585C65.2661 58.0527 64.0551 58.7838 62.7588 60.1297C62.249 60.6583 61.2554 61.7028 60.3561 63.3958C59.6216 64.7808 59.2056 66.3966 58.6533 67.9118C57.8388 70.1405 57.159 71.122 56.6831 71.8447C56.0906 72.7467 55.5762 73.3553 55.4292 73.5267C54.8752 74.1689 53.873 75.3086 52.2588 76.2402C51.3462 76.7678 49.7619 77.6536 47.5414 77.5562C47.2944 77.5438 47.0486 77.5204 46.8055 77.4929C47.0536 77.7135 47.3002 77.9272 47.5522 78.1326C48.5001 78.1618 49.436 77.9814 50.3306 77.6912Z" fill="#3BC414"/>
<path d="M67.4287 72.1411C67.577 72.9256 68.0562 73.1008 68.4412 73.1198C69.6131 73.1878 70.8576 72.1405 71.8923 71.0693C72.3204 70.6299 73.6746 69.4048 73.7426 68.1144C73.8086 67.8488 73.8453 67.5642 73.846 67.2621C73.8623 65.7957 73.016 65.6013 72.4368 65.7348C71.5426 65.9423 70.6523 66.609 69.832 67.3687C69.1141 68.0349 68.293 68.8415 67.7522 70.038C67.4992 70.5913 67.2923 71.4295 67.4287 72.1411Z" fill="#63F23B"/>
<path d="M65.2237 74.4918C65.2185 74.5181 65.2201 74.5429 65.226 74.5704C65.2535 74.6832 65.3685 74.7343 65.4513 74.7347C65.7235 74.8999 66.0302 74.8205 66.2444 74.6098C66.2798 74.5735 66.3096 74.5277 66.3269 74.4737C66.4662 74.3507 66.454 74.1233 66.2922 73.9706C66.1626 73.8507 65.9566 73.8117 65.8078 73.8217C65.6506 73.8262 65.5134 73.8913 65.3791 73.97C65.1927 74.0742 65.1318 74.2956 65.2237 74.4918Z" fill="#63F23B"/>
<path d="M62.9918 79.5335C70.0175 78.7635 76.0328 74.0741 78.6082 70.1136C79.6926 68.446 82.5714 64.1336 82.9788 54.2704C82.3915 53.2123 80.842 54.3638 80.302 55.7923C80.5287 57.126 79.8456 61.0773 79.4955 63.2758C78.2023 70.0809 71.6543 77.1586 62.9918 79.5335Z" fill="#405621"/>
<path d="M30.141 38.8546C22.6046 43.2459 16.9967 50.7787 17.7788 58.9462C17.8817 60.0295 18.11 64.7613 21.8496 69.0105C23.4993 70.8832 24.7521 71.4519 25.7992 71.6742C29.243 72.4077 32.2526 69.8031 32.5764 69.5185C32.9572 69.7006 36.369 71.2737 39.7057 70.111C42.2745 69.2193 43.6531 67.0223 44.0827 64.8621C44.1171 64.693 44.1642 64.4763 44.1981 64.1868C44.1981 64.1868 44.8216 59.727 42.2308 55.538C41.7276 54.726 41.1669 54.0334 41.1669 54.0334C40.5795 53.3044 40.1585 52.9332 39.3703 52.1249C38.8884 51.6682 38.2334 51.0012 37.5425 50.1426C36.7187 49.1137 34.7448 46.5899 34.1626 43.0156C33.9261 41.5616 33.5884 39.2759 34.9152 36.9193C35.0663 36.654 35.2072 36.4406 35.3053 36.2921C33.4808 37.001 31.7707 37.9079 30.141 38.8546Z" fill="#63F23B"/>
<path d="M33.53 39.344C33.3734 40.3359 33.3453 41.3513 33.3973 42.3664C33.4712 43.8569 33.6549 45.3586 34.1104 46.824C34.5804 48.3442 35.4092 49.6803 36.3979 51.0446C37.3623 52.3769 38.4215 53.6545 39.3878 54.9801C39.9122 55.6994 40.4928 56.4265 40.8799 57.1964C41.2812 57.9811 42.4281 60.236 41.5757 62.7379C41.3054 63.5428 40.7069 65.3009 38.5548 66.2678C36.2488 67.3063 33.745 66.7191 32.9106 66.4774C31.1264 65.9629 30.0391 65.0345 29.5995 64.6509C28.5251 63.7151 28.0702 62.8178 27.6023 61.8878C26.7808 60.2662 26.5859 58.8743 26.4579 57.9663C26.3427 57.16 26.3026 56.3448 26.2881 55.9914C26.2594 55.3648 26.2443 54.7419 26.265 54.1213C26.304 52.9159 26.435 51.7205 26.6561 50.5421C26.8761 49.3815 27.193 48.2396 27.5871 47.122C27.98 46.0223 28.4502 44.947 28.989 43.9009C29.5338 42.8456 30.1473 41.8196 30.8208 40.8278C31.4961 39.8293 32.2307 38.8539 33.0117 37.9091C33.292 37.5693 33.5835 37.2287 33.8732 36.895C33.6651 36.9921 33.4503 37.0875 33.2404 37.1914C31.6935 38.5898 30.3378 40.1305 29.1478 41.7592C27.9866 43.3484 26.998 45.0274 26.233 46.7956C25.4014 48.7169 24.8201 50.7235 24.4529 52.773C24.0919 54.8132 23.9581 56.8888 24.0124 58.982C24.0408 60.0853 24.1018 61.1756 24.2751 62.2814C24.4515 63.4026 24.7082 64.5234 25.0135 65.6391C25.302 66.6957 25.6194 67.7527 25.9831 68.8003C26.1117 69.1624 26.2479 69.5374 26.2724 69.908C26.2852 70.159 26.2278 70.4276 25.947 70.538C25.5597 70.6927 24.9995 70.528 24.5999 70.4028C24.1774 70.2677 23.7885 70.0616 23.4309 69.8201C22.6044 69.2638 21.959 68.5339 21.3981 67.8011C20.8441 67.0702 20.3682 66.3056 19.9231 65.5347C19.4986 64.8094 19.1074 64.082 18.7667 63.3428C18.7437 63.2929 19.295 66.3166 21.847 69.0062C22.8745 70.0897 23.9832 71.2641 25.7966 71.6699C29.2993 72.4556 32.3668 69.7026 32.5738 69.5142C33.3947 69.9016 35.0098 70.531 37.0521 70.5176C37.5486 70.5123 38.5527 70.501 39.7013 70.1135C39.9569 70.0291 41.1067 69.6236 42.1294 68.6599C42.8419 67.9844 43.1469 67.349 43.4464 66.7339C43.8767 65.8481 44.0245 65.1196 44.1211 64.6504C44.1676 64.4226 44.3454 63.4873 44.2859 62.1608C44.261 61.5608 44.1585 60.15 43.5467 58.3843C43.3068 57.6902 42.8264 56.331 41.7252 54.7618C40.8239 53.4792 39.5724 52.3757 38.4723 51.1963C36.8553 49.4598 36.2887 48.4088 35.8603 47.6569C35.3251 46.7199 35.0159 45.9854 34.9298 45.7767C34.6087 44.9917 34.0473 43.5817 33.9489 41.7206C33.8924 40.6679 33.8214 38.8542 34.9151 36.9193C35.0381 36.7047 35.1704 36.4963 35.3052 36.2921C34.9961 36.4132 34.6938 36.536 34.3964 36.6675C33.9406 37.4992 33.677 38.4151 33.53 39.344Z" fill="#3BC414"/>
<path d="M30.7237 57.0997C29.9573 56.8762 29.5838 57.2239 29.3922 57.5584C28.8003 58.572 29.1694 60.1562 29.6549 61.5641C29.8524 62.1448 30.3303 63.9074 31.4496 64.5532C31.6564 64.7324 31.8934 64.8941 32.1623 65.0317C33.4619 65.7112 34.019 65.0451 34.1626 64.4683C34.3831 63.5773 34.1926 62.4814 33.8874 61.4058C33.6192 60.4639 33.2726 59.3663 32.4514 58.3417C32.073 57.8654 31.4198 57.3008 30.7237 57.0997Z" fill="#63F23B"/>
<path d="M29.6282 54.0688C29.6072 54.0523 29.5843 54.0425 29.5571 54.0352C29.4441 54.0086 29.3464 54.088 29.3085 54.1615C29.0379 54.3293 28.9695 54.6386 29.0602 54.925C29.0765 54.9731 29.1038 55.0204 29.1441 55.0604C29.1906 55.2403 29.3988 55.3325 29.6082 55.2575C29.7739 55.1963 29.902 55.0305 29.9607 54.8933C30.0279 54.7511 30.0321 54.5993 30.0228 54.4439C30.0144 54.2306 29.8448 54.0759 29.6282 54.0688Z" fill="#63F23B"/>
<path d="M26.1468 49.7934C23.6473 56.4045 25.0992 63.8923 27.4614 67.9836C28.4559 69.7062 30.9941 74.2275 39.6003 79.063C40.8097 79.0194 40.4859 77.1162 39.4576 75.9872C38.1661 75.5844 34.9542 73.1839 33.1534 71.875C27.6745 67.6366 24.3355 58.5911 26.1468 49.7934Z" fill="#405621"/>
</svg>
