<svg width="31" height="29" viewBox="0 0 31 29" fill="none" xmlns="http://www.w3.org/2000/svg">
<path d="M27.2123 9.41221C27.1991 6.09997 25.7831 2.82549 22.9416 1.53194C22.5649 1.36009 20.9615 0.536754 18.8489 0.959754C17.9175 1.14671 17.4916 1.45074 17.219 1.75288C16.3217 2.74618 16.6075 4.23046 16.6397 4.39097C16.5072 4.48161 15.3392 5.30495 15.0874 6.62305C14.8924 7.63712 15.3543 8.50767 15.9847 9.05908C16.0339 9.10251 16.0964 9.15917 16.1854 9.22526C16.1854 9.22526 17.537 10.2771 19.4111 10.2204C19.7746 10.2091 20.1096 10.1562 20.1096 10.1562C20.4617 10.1015 20.6643 10.0335 21.0808 9.92774C21.3231 9.85598 21.6676 9.76723 22.0822 9.70302C22.5782 9.62749 23.7859 9.45753 25.0751 9.94474C25.5994 10.143 26.4172 10.4659 26.9416 11.3497C27.0003 11.4498 27.0438 11.5367 27.0741 11.5971C27.1877 10.8625 27.2142 10.1279 27.2123 9.41221Z" fill="#57C931"/>
<path d="M26.4056 10.4338C26.1084 10.194 25.779 9.99192 25.4345 9.8163C24.9291 9.55759 24.399 9.33287 23.8292 9.20446C23.2386 9.07038 22.6404 9.08926 22.0024 9.15536C21.3796 9.21956 20.7568 9.32531 20.1359 9.39141C19.7989 9.42729 19.4487 9.48017 19.1212 9.46128C18.7861 9.44429 17.8245 9.3933 17.1619 8.63794C16.948 8.39623 16.4823 7.86559 16.5732 6.97426C16.6697 6.01874 17.3399 5.30681 17.5784 5.07831C18.0876 4.58922 18.6006 4.40794 18.8108 4.33618C19.3238 4.16056 19.7062 4.18133 20.1018 4.20399C20.7928 4.24176 21.2887 4.44193 21.6124 4.57223C21.9002 4.68742 22.1766 4.82905 22.2958 4.89137C22.5079 5.00089 22.7161 5.1142 22.9168 5.23883C23.3067 5.48054 23.6759 5.75058 24.0223 6.04706C24.363 6.33976 24.6792 6.66079 24.9726 7.00259C25.2603 7.34061 25.5254 7.69941 25.7677 8.0752C26.0119 8.45476 26.2334 8.85133 26.4321 9.26111C26.6328 9.67278 26.8145 10.0996 26.9773 10.5358C27.036 10.6925 27.0928 10.853 27.1477 11.0117C27.1553 10.9248 27.1647 10.836 27.1704 10.7473C27.0038 9.97304 26.7539 9.23467 26.4435 8.53408C26.1406 7.85048 25.7752 7.20654 25.338 6.61925C24.8628 5.98097 24.3119 5.40879 23.7062 4.89892C23.1023 4.39283 22.4435 3.95472 21.7431 3.57515C21.3739 3.37498 21.0029 3.18804 20.6054 3.03508C20.2021 2.88023 19.7838 2.75181 19.3578 2.6404C18.9546 2.53465 18.5457 2.43834 18.1312 2.35903C17.9873 2.33259 17.8377 2.30616 17.7109 2.24384C17.6257 2.20041 17.5481 2.13053 17.5651 2.01723C17.5879 1.86049 17.7488 1.70753 17.8661 1.5999C17.9911 1.48659 18.133 1.39784 18.2807 1.32608C18.6215 1.1599 18.9849 1.08625 19.3332 1.04093C19.6797 0.997494 20.0223 0.986167 20.3612 0.986167C20.6811 0.984279 20.9953 0.993721 21.3039 1.02205C21.3247 1.02394 20.223 0.631146 18.8505 0.959727C18.2977 1.09191 17.6995 1.23355 17.2206 1.75286C16.2949 2.75559 16.6186 4.28708 16.6413 4.39094C16.3574 4.58734 15.8425 4.99901 15.4582 5.67316C15.3654 5.83745 15.178 6.16981 15.0871 6.62114C15.0663 6.72122 14.9811 7.17632 15.1042 7.69563C15.1913 8.0582 15.3427 8.27914 15.4885 8.49442C15.6986 8.80412 15.9106 8.99107 16.0469 9.11193C16.1132 9.17047 16.3877 9.40652 16.8363 9.63879C17.0389 9.74454 17.5235 9.9787 18.222 10.1128C18.4965 10.1657 19.036 10.2657 19.763 10.2015C20.3574 10.1487 20.9594 9.9466 21.5576 9.80875C22.4378 9.60669 22.8921 9.6199 23.2215 9.62179C23.6323 9.62368 23.9333 9.66145 24.0185 9.67278C24.3384 9.71622 24.9101 9.7993 25.5424 10.1203C25.9002 10.3016 26.5116 10.6226 26.9414 11.3497C26.9887 11.4309 27.0322 11.514 27.0739 11.5971C27.0928 11.4724 27.1098 11.3497 27.1231 11.2269C26.9357 10.9191 26.6839 10.6585 26.4056 10.4338Z" fill="#57C931"/>
<path d="M21.0867 6.13955C21.3063 5.92993 21.2628 5.7411 21.189 5.61457C20.9675 5.22745 20.375 5.04806 19.8184 4.94042C19.5894 4.8951 18.9173 4.71759 18.4914 4.96308C18.393 4.99707 18.2945 5.04428 18.198 5.1066C17.7266 5.40497 17.8402 5.71466 18.003 5.8714C18.2548 6.11311 18.6523 6.25852 19.065 6.36238C19.4266 6.45302 19.8544 6.54744 20.3485 6.47191C20.5775 6.43791 20.888 6.33027 21.0867 6.13955Z" fill="#57C931"/>
<path d="M22.2937 6.35494C22.3032 6.35116 22.3107 6.34549 22.3183 6.33792C22.3486 6.30577 22.341 6.25849 22.324 6.23202C22.3202 6.11098 22.2313 6.02966 22.1197 6.00508C22.1008 6.00129 22.08 6.0013 22.0592 6.00697C21.9911 5.98806 21.9211 6.03912 21.906 6.12233C21.8947 6.18852 21.9249 6.26228 21.959 6.30766C21.993 6.35683 22.0422 6.38709 22.0951 6.41357C22.167 6.45139 22.2502 6.42491 22.2937 6.35494Z" fill="#57C931"/>
<path d="M24.3662 6.02096C22.6625 3.94373 19.9176 2.99952 18.1192 2.99952C17.362 2.99952 15.3883 2.9758 12.1561 4.88792C11.9403 5.29393 12.6294 5.54884 13.1973 5.42503C13.5759 5.07674 14.9786 4.47626 15.7529 4.13258C18.193 3.1355 21.8106 3.75489 24.3662 6.02096Z" fill="#57C931"/>
<path d="M15.5565 24.3201C18.3473 26.1147 21.8711 26.7156 24.5072 25.0446C24.857 24.8232 26.4231 23.9311 27.2193 21.9338C27.5699 21.053 27.5466 20.531 27.4413 20.1384C27.0957 18.8465 25.6924 18.2764 25.54 18.2158C25.5361 18.0555 25.4809 16.6299 24.5104 15.7008C23.7645 14.9849 22.7811 14.8966 21.974 15.1232C21.9107 15.1407 21.829 15.162 21.725 15.2004C21.725 15.2004 20.1041 15.7573 19.1301 17.3555C18.9415 17.6656 18.8032 17.9747 18.8032 17.9747C18.6573 18.299 18.604 18.5054 18.4659 18.9114C18.3941 19.1531 18.2808 19.4896 18.1088 19.8714C17.9019 20.3273 17.3863 21.43 16.2741 22.2425C15.8216 22.5729 15.1044 23.0808 14.0758 23.0375C13.9597 23.032 13.863 23.0211 13.7957 23.0135C14.3511 23.5089 14.954 23.9315 15.5565 24.3201Z" fill="#57C931"/>
<path d="M15.1372 23.089C15.5008 22.9712 15.8502 22.8059 16.1856 22.6135C16.6785 22.3318 17.1563 22.0111 17.5749 21.6046C18.0095 21.1837 18.3198 20.6732 18.612 20.1036C18.8976 19.5478 19.1482 18.9693 19.4312 18.414C19.5847 18.1126 19.7312 17.7909 19.9256 17.5273C20.1226 17.2564 20.6897 16.48 21.6857 16.3377C22.0054 16.2905 22.7052 16.1904 23.4048 16.7523C24.1551 17.3539 24.3881 18.3024 24.4501 18.6265C24.5836 19.319 24.4562 19.8468 24.402 20.0617C24.2699 20.5864 24.044 20.8949 23.8093 21.2134C23.4008 21.7707 22.9622 22.0763 22.6763 22.276C22.4226 22.4538 22.1529 22.6078 22.0355 22.6735C21.8279 22.7911 21.6191 22.9035 21.405 23.0034C20.9893 23.1977 20.5611 23.3592 20.1231 23.4873C19.6914 23.6127 19.2492 23.7021 18.802 23.7611C18.3611 23.8175 17.9151 23.8435 17.4672 23.8413C17.015 23.8386 16.561 23.8076 16.1083 23.7505C15.6529 23.6938 15.1952 23.6132 14.7398 23.5115C14.5761 23.4751 14.4103 23.4351 14.247 23.3946C14.3159 23.4483 14.3853 23.5045 14.4568 23.5577C15.1983 23.8404 15.9551 24.034 16.7131 24.1563C17.4527 24.2757 18.193 24.3212 18.925 24.2756C19.7204 24.2262 20.5016 24.0775 21.2603 23.8488C22.0149 23.6197 22.7422 23.3076 23.443 22.9288C23.8125 22.7292 24.1718 22.5208 24.5171 22.2718C24.8671 22.019 25.203 21.7391 25.5289 21.4436C25.8376 21.1641 26.1414 20.8746 26.4341 20.5712C26.5347 20.4653 26.6385 20.3546 26.76 20.2825C26.8429 20.235 26.944 20.2081 27.0299 20.2842C27.1492 20.3886 27.19 20.6065 27.2165 20.7634C27.2436 20.9296 27.2408 21.0967 27.2206 21.2593C27.1745 21.6349 27.0383 21.979 26.8865 22.295C26.7341 22.6084 26.5569 22.9011 26.3721 23.1845C26.1993 23.4531 26.0201 23.7107 25.8281 23.9533C25.8151 23.9697 26.7458 23.2625 27.2179 21.9356C27.4081 21.4012 27.6152 20.8238 27.4399 20.1401C27.1018 18.8194 25.6383 18.2552 25.5386 18.2176C25.5284 17.873 25.4631 17.218 25.106 16.5291C25.0185 16.362 24.8414 16.0241 24.5116 15.702C24.4389 15.6301 24.1028 15.3107 23.5993 15.1305C23.2472 15.0057 22.9789 15.0119 22.7185 15.0164C22.3437 15.0233 22.071 15.0987 21.8952 15.1468C21.8098 15.1703 21.4618 15.2712 21.022 15.5198C20.8227 15.6315 20.3618 15.9091 19.8683 16.4202C19.6742 16.6209 19.296 17.0176 18.9537 17.6605C18.674 18.1864 18.5157 18.8 18.3054 19.3754C17.9954 20.2217 17.7366 20.5944 17.5554 20.8689C17.3299 21.2114 17.1341 21.4425 17.0781 21.5076C16.8672 21.7514 16.4857 22.1842 15.8712 22.538C15.5238 22.7384 14.9207 23.0747 14.0754 23.0377C13.9814 23.033 13.8878 23.0242 13.7953 23.0137C13.8897 23.0975 13.9836 23.1786 14.0795 23.2566C14.4404 23.2677 14.7966 23.1992 15.1372 23.089Z" fill="#57C931"/>
<path d="M21.6457 20.9818C21.7022 21.2797 21.8846 21.3462 22.0312 21.3534C22.4773 21.3792 22.9511 20.9815 23.3449 20.5748C23.5079 20.4079 24.0234 19.9427 24.0493 19.4527C24.0744 19.3518 24.0884 19.2437 24.0886 19.129C24.0949 18.5722 23.7727 18.4983 23.5522 18.549C23.2118 18.6278 22.8729 18.881 22.5606 19.1695C22.2874 19.4225 21.9748 19.7288 21.7689 20.1832C21.6726 20.3932 21.5938 20.7116 21.6457 20.9818Z" fill="#57C931"/>
<path d="M20.8075 21.8743C20.8056 21.8843 20.8062 21.8937 20.8084 21.9042C20.8188 21.947 20.8626 21.9664 20.8941 21.9666C20.9978 22.0293 21.1145 21.9991 21.1961 21.919C21.2096 21.9052 21.2209 21.8878 21.2275 21.8673C21.2806 21.8205 21.276 21.7341 21.2144 21.6762C21.1651 21.6306 21.0867 21.6158 21.03 21.6197C20.9702 21.6214 20.9179 21.6461 20.8668 21.6761C20.7958 21.7157 20.7726 21.7998 20.8075 21.8743Z" fill="#57C931"/>
<path d="M19.9574 23.7889C22.6319 23.4965 24.9217 21.7157 25.9021 20.2118C26.3149 19.5785 27.4108 17.9409 27.5659 14.1955C27.3423 13.7937 26.7525 14.231 26.5469 14.7734C26.6332 15.2799 26.3732 16.7803 26.2399 17.6152C25.7476 20.1994 23.255 22.887 19.9574 23.7889Z" fill="#57C931"/>
<path d="M7.45104 8.34109C4.58213 10.0087 2.44737 12.8692 2.74509 15.9707C2.78426 16.3821 2.87118 18.1789 4.29472 19.7925C4.92271 20.5036 5.39963 20.7196 5.79823 20.804C7.10922 21.0826 8.25488 20.0935 8.37814 19.9854C8.52308 20.0546 9.82187 20.6519 11.0921 20.2104C12.0699 19.8718 12.5948 19.0375 12.7583 18.2172C12.7714 18.153 12.7893 18.0707 12.8022 17.9608C12.8022 17.9608 13.0396 16.2672 12.0533 14.6765C11.8617 14.3681 11.6483 14.1051 11.6483 14.1051C11.4247 13.8283 11.2644 13.6873 10.9644 13.3804C10.7809 13.2069 10.5316 12.9537 10.2686 12.6276C9.95502 12.2369 9.20359 11.2785 8.98198 9.92119C8.89193 9.36905 8.76338 8.5011 9.26844 7.60621C9.32599 7.50547 9.37963 7.42442 9.41695 7.36804C8.72242 7.63721 8.07144 7.98161 7.45104 8.34109Z" fill="#57C931"/>
<path d="M8.7417 8.52656C8.68209 8.90323 8.67137 9.28882 8.69117 9.67428C8.71929 10.2403 8.78922 10.8106 8.96264 11.367C9.14156 11.9443 9.45705 12.4516 9.83341 12.9697C10.2006 13.4757 10.6038 13.9608 10.9716 14.4642C11.1712 14.7374 11.3922 15.0135 11.5396 15.3058C11.6924 15.6038 12.1289 16.4601 11.8045 17.4101C11.7016 17.7158 11.4737 18.3834 10.6545 18.7506C9.77668 19.1449 8.82355 18.922 8.50592 18.8302C7.8267 18.6348 7.41281 18.2822 7.24544 18.1366C6.83647 17.7812 6.66331 17.4405 6.48516 17.0873C6.17247 16.4715 6.09826 15.943 6.04952 15.5982C6.00566 15.292 5.99042 14.9824 5.98489 14.8482C5.97397 14.6103 5.96822 14.3738 5.97609 14.1381C5.99095 13.6803 6.04081 13.2264 6.12499 12.7789C6.20873 12.3382 6.32936 11.9046 6.47938 11.4802C6.62897 11.0626 6.80794 10.6542 7.01303 10.257C7.22046 9.85624 7.454 9.46662 7.71037 9.09001C7.96743 8.71082 8.24707 8.34044 8.54438 7.98168C8.65111 7.85262 8.76206 7.7233 8.87232 7.59656C8.79312 7.63345 8.71134 7.66965 8.63145 7.70912C8.04258 8.24016 7.52651 8.82521 7.07351 9.44372C6.63148 10.0472 6.25512 10.6848 5.9639 11.3562C5.64736 12.0858 5.42605 12.8478 5.28629 13.6261C5.14887 14.4008 5.09791 15.189 5.1186 15.9839C5.12939 16.4029 5.15261 16.8169 5.21859 17.2368C5.28576 17.6625 5.38346 18.0882 5.4997 18.5119C5.6095 18.9131 5.73034 19.3145 5.86877 19.7123C5.91776 19.8498 5.96958 19.9922 5.9789 20.1329C5.98378 20.2282 5.96193 20.3302 5.85505 20.3722C5.70762 20.4309 5.49437 20.3684 5.34224 20.3208C5.18141 20.2695 5.03336 20.1912 4.89724 20.0996C4.58259 19.8883 4.33692 19.6111 4.12342 19.3328C3.9125 19.0553 3.73134 18.7649 3.56192 18.4722C3.40032 18.1968 3.25139 17.9206 3.1217 17.6398C3.11293 17.6209 3.3228 18.7691 4.29429 19.7905C4.68543 20.2019 5.10749 20.6479 5.7978 20.802C7.13118 21.1003 8.29889 20.0549 8.3777 19.9834C8.69018 20.1305 9.30503 20.3695 10.0824 20.3644C10.2715 20.3624 10.6537 20.3581 11.0909 20.2109C11.1882 20.1789 11.6259 20.0249 12.0153 19.659C12.2865 19.4025 12.4026 19.1612 12.5166 18.9276C12.6804 18.5912 12.7367 18.3146 12.7735 18.1364C12.7911 18.0499 12.8588 17.6947 12.8362 17.191C12.8267 16.9631 12.7877 16.4274 12.5548 15.7569C12.4635 15.4933 12.2806 14.9772 11.8614 14.3813C11.5183 13.8942 11.0419 13.4752 10.6231 13.0273C10.0075 12.3679 9.79184 11.9688 9.62879 11.6833C9.42503 11.3275 9.30733 11.0486 9.27457 10.9693C9.15232 10.6712 8.9386 10.1358 8.90116 9.42904C8.87966 9.02931 8.85263 8.34056 9.26895 7.60581C9.31578 7.52432 9.36615 7.44516 9.41746 7.36764C9.29979 7.4136 9.18471 7.46026 9.07152 7.51019C8.898 7.82599 8.79765 8.1738 8.7417 8.52656Z" fill="#57C931"/>
<path d="M7.67381 15.2696C7.38204 15.1847 7.23987 15.3168 7.16694 15.4438C6.9416 15.8287 7.08212 16.4303 7.26695 16.9649C7.34213 17.1855 7.52404 17.8548 7.95013 18.1C8.02886 18.168 8.11907 18.2295 8.22144 18.2817C8.71615 18.5398 8.92822 18.2868 8.98289 18.0678C9.06685 17.7294 8.99432 17.3133 8.87815 16.9048C8.77605 16.5471 8.64411 16.1303 8.33149 15.7413C8.18745 15.5604 7.93878 15.346 7.67381 15.2696Z" fill="#57C931"/>
<path d="M7.25679 14.1185C7.24878 14.1122 7.24007 14.1085 7.22973 14.1057C7.18671 14.0956 7.14953 14.1257 7.13512 14.1537C7.03213 14.2174 7.00618 14.3349 7.04077 14.4437C7.04696 14.462 7.05739 14.48 7.07272 14.4952C7.09044 14.5635 7.16974 14.5986 7.24942 14.5702C7.31246 14.547 7.36122 14.484 7.3835 14.4318C7.40906 14.3778 7.41065 14.3202 7.40706 14.2611C7.40384 14.1801 7.33922 14.1213 7.25679 14.1185Z" fill="#57C931"/>
<path d="M5.93217 12.4951C4.98067 15.0056 5.53341 17.849 6.43261 19.4027C6.81121 20.0568 7.77744 21.7737 11.0536 23.61C11.5139 23.5934 11.3907 22.8707 10.9993 22.4419C10.5076 22.289 9.28492 21.3774 8.59942 20.8804C6.51374 19.2709 5.24267 15.836 5.93217 12.4951Z" fill="#57C931"/>
<path d="M27.2123 8.5836C27.1991 5.27135 25.7831 1.99687 22.9416 0.703324C22.5649 0.53148 20.9615 -0.291859 18.8489 0.131141C17.9175 0.318092 17.4916 0.622126 17.219 0.924269C16.3217 1.91756 16.6075 3.40184 16.6397 3.56236C16.5072 3.653 15.3392 4.47634 15.0874 5.79444C14.8924 6.80851 15.3543 7.67906 15.9847 8.23047C16.0339 8.2739 16.0964 8.33055 16.1854 8.39665C16.1854 8.39665 17.537 9.44848 19.4111 9.39183C19.7746 9.3805 20.1096 9.32762 20.1096 9.32762C20.4617 9.27286 20.6643 9.20488 21.0808 9.09913C21.3231 9.02737 21.6676 8.93862 22.0822 8.87441C22.5782 8.79887 23.7859 8.62892 25.0751 9.11613C25.5994 9.31441 26.4172 9.63732 26.9416 10.5211C27.0003 10.6212 27.0438 10.708 27.0741 10.7685C27.1877 10.0339 27.2142 9.2993 27.2123 8.5836Z" fill="#63F23B"/>
<path d="M26.4061 9.60519C26.1089 9.36537 25.7795 9.1633 25.435 8.98768C24.9295 8.72897 24.3995 8.50426 23.8297 8.37584C23.2391 8.24177 22.6409 8.26065 22.0029 8.32675C21.3801 8.39095 20.7573 8.4967 20.1364 8.56279C19.7994 8.59867 19.4492 8.65155 19.1217 8.63267C18.7866 8.61567 17.825 8.56468 17.1624 7.80933C16.9485 7.56761 16.4828 7.03697 16.5737 6.14565C16.6702 5.19012 17.3404 4.4782 17.5789 4.2497C18.0881 3.76061 18.6011 3.57932 18.8112 3.50756C19.3243 3.33194 19.7066 3.35271 20.1023 3.37537C20.7933 3.41314 21.2892 3.61331 21.6129 3.74361C21.9007 3.85881 22.1771 4.00044 22.2963 4.06275C22.5083 4.17228 22.7166 4.28558 22.9172 4.41022C23.3072 4.65193 23.6764 4.92197 24.0228 5.21845C24.3635 5.51115 24.6797 5.83218 24.9731 6.17398C25.2608 6.512 25.5259 6.87079 25.7682 7.24658C26.0124 7.62615 26.2338 8.02272 26.4326 8.4325C26.6333 8.84417 26.815 9.27095 26.9778 9.70717C27.0365 9.8639 27.0933 10.0244 27.1482 10.183C27.1558 10.0962 27.1652 10.0074 27.1709 9.91867C27.0043 9.14442 26.7544 8.40606 26.444 7.70547C26.1411 7.02187 25.7757 6.37792 25.3384 5.79063C24.8633 5.15235 24.3124 4.58017 23.7066 4.07031C23.1028 3.56422 22.444 3.12611 21.7436 2.74654C21.3744 2.54637 21.0034 2.35942 20.6058 2.20646C20.2026 2.05161 19.7843 1.9232 19.3583 1.81178C18.9551 1.70603 18.5462 1.60973 18.1316 1.53041C17.9878 1.50398 17.8382 1.47754 17.7114 1.41523C17.6262 1.37179 17.5486 1.30192 17.5656 1.18862C17.5883 1.03188 17.7492 0.878921 17.8666 0.771282C17.9916 0.657979 18.1335 0.569222 18.2812 0.497463C18.6219 0.331284 18.9854 0.257635 19.3337 0.212313C19.6801 0.16888 20.0228 0.157554 20.3616 0.157554C20.6816 0.155666 20.9958 0.165108 21.3044 0.193434C21.3252 0.195322 20.2234 -0.197467 18.851 0.131114C18.2982 0.263301 17.7 0.404933 17.2211 0.924242C16.2954 1.92698 16.6191 3.45847 16.6418 3.56233C16.3579 3.75872 15.843 4.17039 15.4587 4.84455C15.3659 5.00884 15.1785 5.3412 15.0876 5.79252C15.0668 5.89261 14.9816 6.34771 15.1047 6.86702C15.1918 7.22959 15.3432 7.45053 15.489 7.66581C15.6991 7.9755 15.9111 8.16246 16.0474 8.28332C16.1137 8.34186 16.3882 8.57791 16.8368 8.81018C17.0394 8.91593 17.524 9.15009 18.2225 9.28416C18.497 9.33704 19.0365 9.43712 19.7634 9.37292C20.3579 9.32004 20.9598 9.11799 21.558 8.98013C22.4383 8.77808 22.8926 8.79129 23.222 8.79318C23.6328 8.79507 23.9338 8.83284 24.019 8.84417C24.3389 8.8876 24.9106 8.97069 25.5429 9.29172C25.9007 9.473 26.5121 9.79403 26.9418 10.5211C26.9892 10.6023 27.0327 10.6854 27.0744 10.7684C27.0933 10.6438 27.1103 10.5211 27.1236 10.3983C26.9362 10.0905 26.6844 9.82991 26.4061 9.60519Z" fill="#63F23B"/>
<path d="M21.0872 5.31093C21.3068 5.10132 21.2633 4.91248 21.1895 4.78596C20.968 4.39884 20.3755 4.21945 19.8189 4.11181C19.5898 4.06649 18.9178 3.88898 18.4919 4.13447C18.3934 4.16846 18.295 4.21567 18.1985 4.27799C17.7271 4.57635 17.8407 4.88605 18.0035 5.04278C18.2553 5.2845 18.6528 5.42991 19.0655 5.53377C19.427 5.62441 19.8549 5.71883 20.349 5.64329C20.578 5.6093 20.8885 5.50166 21.0872 5.31093Z" fill="#63F23B"/>
<path d="M22.2942 5.52682C22.3037 5.52303 22.3112 5.51736 22.3188 5.5098C22.349 5.47765 22.3415 5.43037 22.3245 5.40389C22.3207 5.28286 22.2318 5.20154 22.1202 5.17695C22.1013 5.17317 22.0805 5.17317 22.0597 5.17884C21.9916 5.15993 21.9216 5.21099 21.9065 5.2942C21.8952 5.36039 21.9254 5.43415 21.9595 5.47954C21.9935 5.52871 22.0427 5.55897 22.0956 5.58544C22.1675 5.62327 22.2507 5.59679 22.2942 5.52682Z" fill="#63F23B"/>
<path d="M24.3667 5.19284C22.663 3.1156 19.9181 2.1714 18.1197 2.1714C17.3625 2.1714 15.3888 2.14768 12.1566 4.0598C11.9408 4.4658 12.6299 4.72072 13.1978 4.59691C13.5764 4.24862 14.9791 3.64814 15.7534 3.30445C18.1935 2.30738 21.8111 2.92676 24.3667 5.19284Z" fill="#63F23B"/>
<path d="M15.5565 23.492C18.3473 25.2866 21.8711 25.8875 24.5072 24.2164C24.857 23.9951 26.4231 23.103 27.2193 21.1057C27.5699 20.2249 27.5466 19.7029 27.4413 19.3102C27.0957 18.0183 25.6924 17.4482 25.54 17.3876C25.5361 17.2274 25.4809 15.8018 24.5104 14.8727C23.7645 14.1568 22.7811 14.0685 21.974 14.2951C21.9107 14.3125 21.829 14.3339 21.725 14.3723C21.725 14.3723 20.1041 14.9292 19.1301 16.5274C18.9415 16.8375 18.8032 17.1466 18.8032 17.1466C18.6573 17.4709 18.604 17.6773 18.4659 18.0833C18.3941 18.325 18.2808 18.6615 18.1088 19.0432C17.9019 19.4992 17.3863 20.6019 16.2741 21.4144C15.8216 21.7448 15.1044 22.2527 14.0758 22.2094C13.9597 22.2039 13.863 22.193 13.7957 22.1854C14.3511 22.6808 14.954 23.1034 15.5565 23.492Z" fill="#63F23B"/>
<path d="M15.1372 22.2609C15.5008 22.1431 15.8502 21.9778 16.1856 21.7854C16.6785 21.5037 17.1563 21.1829 17.5749 20.7764C18.0095 20.3556 18.3198 19.845 18.612 19.2755C18.8976 18.7196 19.1482 18.1412 19.4312 17.5859C19.5847 17.2845 19.7312 16.9628 19.9256 16.6992C20.1226 16.4283 20.6897 15.6518 21.6857 15.5095C22.0054 15.4624 22.7052 15.3623 23.4048 15.9241C24.1551 16.5258 24.3881 17.4743 24.4501 17.7984C24.5836 18.4908 24.4562 19.0187 24.402 19.2335C24.2699 19.7583 24.044 20.0668 23.8093 20.3853C23.4008 20.9425 22.9622 21.2482 22.6763 21.4479C22.4226 21.6257 22.1529 21.7796 22.0355 21.8454C21.8279 21.963 21.6191 22.0754 21.405 22.1752C20.9893 22.3696 20.5611 22.5311 20.1231 22.6592C19.6914 22.7846 19.2492 22.8739 18.802 22.933C18.3611 22.9893 17.9151 23.0154 17.4672 23.0132C17.015 23.0105 16.561 22.9795 16.1083 22.9223C15.6529 22.8657 15.1952 22.785 14.7398 22.6834C14.5761 22.647 14.4103 22.607 14.247 22.5664C14.3159 22.6201 14.3853 22.6764 14.4568 22.7296C15.1983 23.0123 15.9551 23.2059 16.7131 23.3282C17.4527 23.4475 18.193 23.493 18.925 23.4475C19.7204 23.3981 20.5016 23.2493 21.2603 23.0207C22.0149 22.7916 22.7422 22.4795 23.443 22.1007C23.8125 21.9011 24.1718 21.6927 24.5171 21.4436C24.8671 21.1908 25.203 20.911 25.5289 20.6155C25.8376 20.336 26.1414 20.0465 26.4341 19.743C26.5347 19.6371 26.6385 19.5265 26.76 19.4544C26.8429 19.4068 26.944 19.38 27.0299 19.456C27.1492 19.5605 27.19 19.7784 27.2165 19.9352C27.2436 20.1015 27.2408 20.2686 27.2206 20.4312C27.1745 20.8068 27.0383 21.1509 26.8865 21.4669C26.7341 21.7803 26.5569 22.073 26.3721 22.3564C26.1993 22.6249 26.0201 22.8826 25.8281 23.1252C25.8151 23.1416 26.7458 22.4343 27.2179 21.1075C27.4081 20.5731 27.6152 19.9957 27.4399 19.312C27.1018 17.9912 25.6383 17.4271 25.5386 17.3894C25.5284 17.0449 25.4631 16.3899 25.106 15.701C25.0185 15.5339 24.8414 15.1959 24.5116 14.8739C24.4389 14.8019 24.1028 14.4826 23.5993 14.3024C23.2472 14.1776 22.9789 14.1838 22.7185 14.1883C22.3437 14.1952 22.071 14.2706 21.8952 14.3187C21.8098 14.3422 21.4618 14.4431 21.022 14.6916C20.8227 14.8034 20.3618 15.081 19.8683 15.5921C19.6742 15.7928 19.296 16.1894 18.9537 16.8323C18.674 17.3583 18.5157 17.9719 18.3054 18.5473C17.9954 19.3936 17.7366 19.7663 17.5554 20.0407C17.3299 20.3832 17.1341 20.6144 17.0781 20.6794C16.8672 20.9233 16.4857 21.3561 15.8712 21.7099C15.5238 21.9102 14.9207 22.2466 14.0754 22.2096C13.9814 22.2049 13.8878 22.196 13.7953 22.1856C13.8897 22.2693 13.9836 22.3505 14.0795 22.4285C14.4404 22.4396 14.7966 22.3711 15.1372 22.2609Z" fill="#63F23B"/>
<path d="M21.6457 20.1531C21.7022 20.4511 21.8846 20.5176 22.0312 20.5248C22.4773 20.5506 22.9511 20.1529 23.3449 19.7462C23.5079 19.5793 24.0234 19.1141 24.0493 18.624C24.0744 18.5232 24.0884 18.4151 24.0886 18.3004C24.0949 17.7436 23.7727 17.6697 23.5522 17.7204C23.2118 17.7992 22.8729 18.0524 22.5606 18.3409C22.2874 18.5939 21.9748 18.9002 21.7689 19.3545C21.6726 19.5646 21.5938 19.8829 21.6457 20.1531Z" fill="#63F23B"/>
<path d="M20.8075 21.0457C20.8056 21.0557 20.8062 21.0651 20.8084 21.0756C20.8188 21.1184 20.8626 21.1378 20.8941 21.138C20.9978 21.2007 21.1145 21.1705 21.1961 21.0904C21.2096 21.0766 21.2209 21.0592 21.2275 21.0386C21.2806 20.9919 21.276 20.9055 21.2144 20.8475C21.1651 20.802 21.0867 20.7872 21.03 20.791C20.9702 20.7928 20.9179 20.8175 20.8668 20.8475C20.7958 20.8871 20.7726 20.9712 20.8075 21.0457Z" fill="#63F23B"/>
<path d="M19.9574 22.9603C22.6319 22.6679 24.9217 20.8871 25.9021 19.3831C26.3149 18.7499 27.4108 17.1123 27.5659 13.3669C27.3423 12.9651 26.7525 13.4023 26.5469 13.9448C26.6332 14.4513 26.3732 15.9517 26.2399 16.7866C25.7476 19.3708 23.255 22.0584 19.9574 22.9603Z" fill="#63F23B"/>
<path d="M7.45202 7.51297C4.5831 9.18054 2.44834 12.0411 2.74607 15.1426C2.78524 15.5539 2.87215 17.3508 4.2957 18.9644C4.92369 19.6755 5.4006 19.8915 5.79921 19.9759C7.11019 20.2544 8.25585 19.2653 8.37911 19.1573C8.52406 19.2264 9.82285 19.8238 11.0931 19.3823C12.0709 19.0437 12.5957 18.2094 12.7593 17.3891C12.7723 17.3248 12.7903 17.2425 12.8032 17.1326C12.8032 17.1326 13.0405 15.439 12.0543 13.8483C11.8627 13.54 11.6493 13.277 11.6493 13.277C11.4257 13.0002 11.2654 12.8592 10.9654 12.5523C10.7819 12.3788 10.5326 12.1255 10.2696 11.7995C9.95599 11.4088 9.20457 10.4504 8.98296 9.09307C8.89291 8.54092 8.76435 7.67297 9.26942 6.77808C9.32696 6.67734 9.38061 6.5963 9.41792 6.53992C8.7234 6.80908 8.07241 7.15348 7.45202 7.51297Z" fill="#63F23B"/>
<path d="M8.74218 7.69893C8.68258 8.0756 8.67186 8.46119 8.69166 8.84664C8.71978 9.41265 8.78971 9.98291 8.96313 10.5394C9.14205 11.1167 9.45754 11.624 9.8339 12.1421C10.201 12.648 10.6043 13.1332 10.9721 13.6366C11.1717 13.9097 11.3927 14.1858 11.5401 14.4782C11.6929 14.7762 12.1294 15.6324 11.8049 16.5825C11.7021 16.8882 11.4742 17.5558 10.655 17.923C9.77717 18.3173 8.82404 18.0943 8.50641 18.0025C7.82718 17.8072 7.41329 17.4546 7.24593 17.309C6.83696 16.9536 6.6638 16.6128 6.48565 16.2597C6.17295 15.6439 6.09875 15.1153 6.05001 14.7705C6.00615 14.4644 5.99091 14.1548 5.98538 14.0206C5.97446 13.7827 5.9687 13.5461 5.97657 13.3104C5.99144 12.8527 6.0413 12.3988 6.12548 11.9513C6.20922 11.5105 6.32985 11.0769 6.47987 10.6525C6.62946 10.2349 6.80843 9.82658 7.01352 9.42936C7.22094 9.02861 7.45449 8.63898 7.71085 8.26238C7.96792 7.88319 8.24756 7.5128 8.54487 7.15405C8.65159 7.02498 8.76255 6.89566 8.87281 6.76893C8.79361 6.80582 8.71183 6.84202 8.63194 6.88149C8.04307 7.41252 7.52699 7.99758 7.074 8.61608C6.63197 9.21954 6.25561 9.85715 5.96439 10.5286C5.64784 11.2582 5.42654 12.0202 5.28678 12.7984C5.14936 13.5732 5.0984 14.3614 5.11909 15.1562C5.12988 15.5752 5.1531 15.9892 5.21908 16.4091C5.28625 16.8349 5.38395 17.2605 5.50019 17.6842C5.60999 18.0854 5.73083 18.4868 5.86926 18.8846C5.91825 19.0221 5.97007 19.1646 5.97939 19.3053C5.98427 19.4006 5.96242 19.5026 5.85554 19.5445C5.70811 19.6033 5.49486 19.5407 5.34273 19.4932C5.18189 19.4419 5.03385 19.3636 4.89772 19.2719C4.58308 19.0606 4.33741 18.7835 4.12391 18.5052C3.91299 18.2276 3.73183 17.9373 3.56241 17.6446C3.4008 17.3691 3.25188 17.0929 3.12219 16.8122C3.11342 16.7933 3.32329 17.9415 4.29477 18.9628C4.68592 19.3743 5.10798 19.8202 5.79828 19.9744C7.13166 20.2727 8.29938 19.2273 8.37819 19.1557C8.69067 19.3029 9.30551 19.5418 10.0829 19.5368C10.2719 19.5347 10.6542 19.5305 11.0914 19.3833C11.1887 19.3512 11.6264 19.1973 12.0157 18.8313C12.287 18.5748 12.4031 18.3335 12.5171 18.1C12.6809 17.7636 12.7372 17.4869 12.7739 17.3088C12.7916 17.2223 12.8593 16.8671 12.8366 16.3634C12.8272 16.1355 12.7881 15.5998 12.5553 14.9293C12.4639 14.6657 12.2811 14.1496 11.8619 13.5537C11.5188 13.0666 11.0423 12.6476 10.6236 12.1997C10.008 11.5403 9.79233 11.1412 9.62928 10.8557C9.42552 10.4998 9.30782 10.2209 9.27506 10.1417C9.1528 9.84357 8.93909 9.30814 8.90165 8.6014C8.88014 8.20167 8.85312 7.51292 9.26944 6.77817C9.31627 6.69669 9.36663 6.61753 9.41795 6.54C9.30028 6.58597 9.1852 6.63262 9.07201 6.68255C8.89849 6.99836 8.79814 7.34616 8.74218 7.69893Z" fill="#63F23B"/>
<path d="M7.6743 14.441C7.38253 14.3561 7.24035 14.4882 7.16743 14.6152C6.94209 15.0001 7.08261 15.6017 7.26744 16.1363C7.34262 16.3568 7.52453 17.0262 7.95062 17.2714C8.02935 17.3394 8.11956 17.4009 8.22193 17.4531C8.71664 17.7111 8.92871 17.4582 8.98338 17.2392C9.06734 16.9008 8.99481 16.4847 8.87864 16.0762C8.77654 15.7185 8.6446 15.3017 8.33198 14.9126C8.18794 14.7318 7.93926 14.5174 7.6743 14.441Z" fill="#63F23B"/>
<path d="M7.25679 13.2909C7.24878 13.2846 7.24007 13.2809 7.22973 13.2781C7.18671 13.268 7.14953 13.2981 7.13512 13.3261C7.03213 13.3897 7.00618 13.5072 7.04077 13.6161C7.04696 13.6343 7.05739 13.6523 7.07272 13.6675C7.09044 13.7359 7.16974 13.771 7.24942 13.7425C7.31246 13.7193 7.36122 13.6563 7.3835 13.6042C7.40906 13.5502 7.41065 13.4925 7.40706 13.4335C7.40384 13.3524 7.33922 13.2936 7.25679 13.2909Z" fill="#63F23B"/>
<path d="M5.93168 11.667C4.98019 14.1775 5.53292 17.0209 6.43212 18.5745C6.81072 19.2287 7.77695 20.9456 11.0531 22.7818C11.5135 22.7653 11.3902 22.0425 10.9988 21.6138C10.5071 21.4609 9.28443 20.5493 8.59893 20.0523C6.51325 18.4428 5.24218 15.0078 5.93168 11.667Z" fill="#63F23B"/>
</svg>
