<svg width="110" height="110" viewBox="0 0 110 110" fill="none" xmlns="http://www.w3.org/2000/svg">
<g filter="url(#filter0_d_408_144)">
<path d="M55 97C32.9086 97 15 79.0914 15 57C15 34.9086 32.9086 17 55 17C77.0914 17 95 34.9086 95 57C95 79.0914 77.0914 97 55 97Z" fill="#0052B5"/>
<path d="M92.4814 43C86.8065 27.8133 72.166 17 54.9999 17C37.8338 17 23.1933 27.8133 17.5183 43L92.4814 43Z" fill="white"/>
<path d="M17.5186 71C23.1935 86.1867 37.834 97 55.0001 97C72.1662 97 86.8067 86.1867 92.4817 71L17.5186 71Z" fill="#D90026"/>
</g>
<defs>
<filter id="filter0_d_408_144" x="0" y="0" width="110" height="110" filterUnits="userSpaceOnUse" color-interpolation-filters="sRGB">
<feFlood flood-opacity="0" result="BackgroundImageFix"/>
<feColorMatrix in="SourceAlpha" type="matrix" values="0 0 0 0 0 0 0 0 0 0 0 0 0 0 0 0 0 0 127 0" result="hardAlpha"/>
<feOffset dy="-2"/>
<feGaussianBlur stdDeviation="7.5"/>
<feComposite in2="hardAlpha" operator="out"/>
<feColorMatrix type="matrix" values="0 0 0 0 0 0 0 0 0 0 0 0 0 0 0 0 0 0 0.25 0"/>
<feBlend mode="normal" in2="BackgroundImageFix" result="effect1_dropShadow_408_144"/>
<feBlend mode="normal" in="SourceGraphic" in2="effect1_dropShadow_408_144" result="shape"/>
</filter>
</defs>
</svg>
