<svg width="25" height="25" viewBox="0 0 25 25" fill="none" xmlns="http://www.w3.org/2000/svg">
<path fill-rule="evenodd" clip-rule="evenodd" d="M14.7981 0.273163C15.052 0.519473 15.0914 0.913582 15.1702 1.7018C15.3204 3.20434 15.3956 3.95561 15.8888 4.18999C15.9185 4.20408 15.9488 4.21666 15.9798 4.22766C16.4943 4.41072 17.0786 3.93262 18.2473 2.97641C18.8604 2.4748 19.167 2.224 19.5206 2.22935C19.543 2.22969 19.5654 2.23081 19.5877 2.2327C19.9402 2.26256 20.2202 2.54262 20.7804 3.10275L21.8972 4.21958C22.4573 4.77972 22.7374 5.05979 22.7673 5.41226C22.7692 5.43456 22.7703 5.45692 22.7706 5.4793C22.776 5.83299 22.5252 6.13954 22.0235 6.75263C21.0673 7.92135 20.5892 8.50571 20.7723 9.02024C20.7833 9.05116 20.7958 9.0815 20.8099 9.11115C21.0443 9.60443 21.7956 9.67956 23.2982 9.82982C24.0864 9.90864 24.4805 9.94805 24.7269 10.2019C24.7424 10.218 24.7574 10.2346 24.7719 10.2517C25 10.5221 25 10.9181 25 11.7103V13.2899C25 14.0819 25 14.4779 24.772 14.7482C24.7575 14.7654 24.7424 14.782 24.7268 14.7981C24.4805 15.052 24.0864 15.0914 23.2983 15.1702C21.7961 15.3204 21.0449 15.3955 20.8105 15.8886C20.7963 15.9184 20.7837 15.9489 20.7727 15.9799C20.5898 16.4944 21.0678 17.0786 22.0237 18.247C22.5252 18.8599 22.776 19.1664 22.7707 19.52C22.7703 19.5425 22.7692 19.5649 22.7673 19.5874C22.7374 19.9397 22.4574 20.2197 21.8974 20.7797L20.7804 21.8967C20.2203 22.4568 19.9402 22.7369 19.5878 22.7668C19.5655 22.7686 19.5431 22.7698 19.5207 22.7701C19.167 22.7754 18.8605 22.5246 18.2474 22.023C17.0787 21.0668 16.4944 20.5887 15.9798 20.7718C15.9489 20.7828 15.9185 20.7954 15.8889 20.8094C15.3956 21.0438 15.3205 21.7952 15.1702 23.2979C15.0914 24.0864 15.0519 24.4806 14.798 24.7269C14.782 24.7425 14.7654 24.7574 14.7484 24.7718C14.478 25 14.0819 25 13.2895 25H11.7103C10.9181 25 10.5221 25 10.2517 24.7719C10.2346 24.7574 10.218 24.7424 10.202 24.7269C9.94806 24.4805 9.90865 24.0864 9.82982 23.2982C9.67956 21.7956 9.60443 21.0443 9.11113 20.8099C9.0815 20.7958 9.05117 20.7833 9.02026 20.7723C8.50572 20.5892 7.92135 21.0673 6.7526 22.0236C6.13948 22.5252 5.83293 22.776 5.47923 22.7707C5.45686 22.7703 5.43451 22.7692 5.41222 22.7673C5.05974 22.7375 4.77966 22.4574 4.21951 21.8972L3.10271 20.7804C2.54257 20.2203 2.2625 19.9402 2.23264 19.5877C2.23075 19.5655 2.22964 19.5431 2.2293 19.5207C2.22394 19.167 2.47475 18.8605 2.97638 18.2474C3.9326 17.0787 4.41072 16.4943 4.22765 15.9798C4.21665 15.9488 4.20408 15.9185 4.18999 15.8888C3.95562 15.3956 3.20434 15.3204 1.70179 15.1702C0.91358 15.0914 0.519474 15.0519 0.273164 14.7981C0.257576 14.782 0.24255 14.7654 0.228113 14.7483C0 14.4779 0 14.0819 0 13.2897V11.7104C0 10.9181 0 10.522 0.228195 10.2516C0.24258 10.2346 0.257549 10.218 0.273077 10.202C0.519403 9.94806 0.913584 9.90864 1.70195 9.8298C3.20479 9.67952 3.95621 9.60438 4.19054 9.11094C4.20457 9.0814 4.2171 9.05117 4.22806 9.02036C4.41127 8.50575 3.93305 7.92126 2.9766 6.75227C2.47482 6.13899 2.22394 5.83234 2.22936 5.47855C2.2297 5.45629 2.23081 5.43405 2.23269 5.41187C2.26249 5.05929 2.54264 4.77915 3.10292 4.21886L4.21957 3.10221C4.77972 2.54206 5.0598 2.26198 5.41228 2.23212C5.43457 2.23024 5.45692 2.22912 5.47929 2.22878C5.83299 2.22342 6.13958 2.47426 6.75275 2.97595C7.92136 3.93209 8.50567 4.41015 9.02011 4.22723C9.05116 4.21619 9.08163 4.20357 9.11139 4.18942C9.6045 3.955 9.67962 3.20388 9.82984 1.70163C9.90865 0.913575 9.94805 0.519547 10.2018 0.273255C10.218 0.257604 10.2346 0.24252 10.2518 0.22803C10.5221 0 10.9181 0 11.7101 0H13.2897C14.0819 0 14.4779 0 14.7483 0.228115C14.7654 0.242551 14.782 0.257576 14.7981 0.273163ZM12.5 17.5C15.2614 17.5 17.5 15.2614 17.5 12.5C17.5 9.73857 15.2614 7.5 12.5 7.5C9.73858 7.5 7.50001 9.73857 7.50001 12.5C7.50001 15.2614 9.73858 17.5 12.5 17.5Z" fill="#292738"/>
</svg>
