<svg width="22" height="20" viewBox="0 0 22 20" fill="none" xmlns="http://www.w3.org/2000/svg">
<path d="M8.7614 4.17766C9.59951 2.16994 10.0186 1.16608 10.6994 1.02695C10.8784 0.990366 11.0634 0.990366 11.2425 1.02695C11.9233 1.16608 12.3424 2.16994 13.1805 4.17766C13.6571 5.31942 13.8954 5.89029 14.3413 6.27858C14.4664 6.38749 14.6022 6.48449 14.7467 6.56821C15.2621 6.8667 15.9055 6.92207 17.1923 7.0328C19.3706 7.22026 20.4597 7.31398 20.7923 7.9107C20.8612 8.03429 20.908 8.1681 20.9309 8.30656C21.0411 8.97513 20.2404 9.6751 18.6391 11.075L18.1944 11.4638C17.4457 12.1183 17.0714 12.4455 16.8549 12.8539C16.725 13.0989 16.6379 13.3628 16.5971 13.6349C16.5291 14.0885 16.6387 14.5633 16.8579 15.5128L16.9363 15.852C17.3294 17.5547 17.526 18.4061 17.2806 18.8246C17.0602 19.2005 16.6542 19.4411 16.2057 19.4617C15.7063 19.4846 15.0028 18.9337 13.5957 17.832C12.6686 17.1061 12.2051 16.7432 11.6905 16.6014C11.2203 16.4718 10.7216 16.4718 10.2514 16.6014C9.73678 16.7432 9.27326 17.1061 8.3462 17.832C6.93909 18.9337 6.23553 19.4846 5.73622 19.4617C5.28771 19.4411 4.88169 19.2005 4.66127 18.8246C4.41587 18.4061 4.61245 17.5547 5.00561 15.852L5.08394 15.5128C5.30318 14.5633 5.41279 14.0885 5.34477 13.6349C5.30396 13.3628 5.21688 13.0989 5.08699 12.8539C4.87048 12.4455 4.49614 12.1183 3.74748 11.4638L3.30279 11.075C1.70143 9.6751 0.900746 8.97513 1.01101 8.30656C1.03385 8.1681 1.08068 8.03429 1.14957 7.9107C1.48216 7.31398 2.5713 7.22026 4.74959 7.0328C6.03636 6.92207 6.67975 6.8667 7.19514 6.56821C7.3397 6.48449 7.47547 6.38749 7.60055 6.27858C8.04646 5.89029 8.28477 5.31942 8.7614 4.17766Z" stroke="#C1C1C1"/>
</svg>
