<svg width="18" height="21" viewBox="0 0 18 21" fill="none" xmlns="http://www.w3.org/2000/svg">
<path d="M5.68097 5.76354C5.44142 5.75629 5.25076 5.75629 5.06011 5.74179C4.04327 5.66566 3.51041 4.87176 4.10683 4.25911C5.33876 2.99393 6.59514 1.73964 7.88573 0.507089C8.59458 -0.174437 9.41588 -0.167187 10.1247 0.517964C11.3958 1.74689 12.6277 2.99756 13.8743 4.24098C14.1774 4.54187 14.2458 4.87538 14.0014 5.21614C13.7423 5.57503 13.3219 5.73817 12.7793 5.75267C12.6424 5.75629 12.4566 5.69829 12.3833 5.81067C12.3051 5.92305 12.481 5.99917 12.5642 6.08255C13.8303 7.3441 15.0965 8.60927 16.3724 9.86357C16.7097 10.1971 16.8564 10.5378 16.5875 10.9257C16.3186 11.3173 15.864 11.4804 15.2822 11.4695C14.8667 11.4623 14.4463 11.4695 14.0259 11.4695C13.9036 11.4695 13.7325 11.4296 13.669 11.5166C13.5908 11.6254 13.7521 11.7051 13.8352 11.7885C15.0427 12.9921 16.2551 14.1956 17.4626 15.4028C17.5701 15.5079 17.6777 15.6094 17.7754 15.7218C18.3278 16.3671 17.8096 17.1501 16.783 17.1755C15.7075 17.2045 14.6272 17.1827 13.5517 17.1864C12.6033 17.1864 11.6549 17.1972 10.7065 17.1864C10.3545 17.1864 10.2763 17.306 10.2812 17.538C10.2958 18.3355 10.2909 19.1367 10.2812 19.9342C10.2763 20.5867 9.77764 20.9964 9.00523 21C8.24261 21 7.71463 20.5795 7.70974 19.9378C7.69997 19.1729 7.70974 18.4116 7.70974 17.6467C7.70974 17.3398 7.49302 17.1864 7.05956 17.1864C5.1921 17.1864 3.32953 17.1827 1.46208 17.1864C1.00743 17.1864 0.601676 17.1138 0.298581 16.842C-0.112064 16.4722 -0.102285 16.0517 0.347469 15.5985C1.59896 14.3442 2.86023 13.0936 4.1166 11.8393C4.21438 11.7414 4.43436 11.6471 4.32681 11.513C4.2486 11.4115 4.02861 11.4768 3.87217 11.4659C3.28554 11.4224 2.67446 11.571 2.11227 11.3716C1.1932 11.0454 1.0661 10.4001 1.7114 9.77657C3.03133 8.50052 4.30726 7.20272 5.60275 5.91217C5.63208 5.8868 5.64186 5.85054 5.69074 5.75992L5.68097 5.76354Z" fill="#C1C1C1"/>
</svg>
