<svg width="127" height="127" viewBox="0 0 127 127" fill="none" xmlns="http://www.w3.org/2000/svg">
<mask id="mask0_341_14699" style="mask-type:luminance" maskUnits="userSpaceOnUse" x="18" y="19" width="91" height="90">
<path d="M96.7101 19.3604H30.8101C24.2158 19.3604 18.8701 24.7061 18.8701 31.3004V96.6404C18.8701 103.235 24.2158 108.58 30.8101 108.58H96.7101C103.304 108.58 108.65 103.235 108.65 96.6404V31.3004C108.65 24.7061 103.304 19.3604 96.7101 19.3604Z" fill="white"/>
</mask>
<g mask="url(#mask0_341_14699)">
<path d="M96.7101 19.3604H30.8101C24.2158 19.3604 18.8701 24.7061 18.8701 31.3004V96.6404C18.8701 103.235 24.2158 108.58 30.8101 108.58H96.7101C103.304 108.58 108.65 103.235 108.65 96.6404V31.3004C108.65 24.7061 103.304 19.3604 96.7101 19.3604Z" fill="url(#paint0_linear_341_14699)"/>
<path d="M22.5102 99.6302C17.8602 99.6302 14.3802 101.44 13.2202 102.34L14.7702 123.27H114.69C117.01 110.87 120.27 86.1402 114.69 86.4502C109.11 86.7602 99.7102 90.2002 95.7102 91.8802C89.1302 94.4602 72.6302 100.18 59.3002 102.35C42.6502 105.06 28.3202 99.6402 22.5102 99.6402V99.6302Z" fill="#6E4931"/>
<path d="M61.69 100.73C61.67 100.58 61.59 100.45 61.41 100.38C61.05 100.23 60.56 100.45 60.24 100.62C59.87 100.81 59.51 101.04 59.2 101.31C58.97 101.52 58.61 101.89 58.8 102.23C59 102.57 59.55 102.53 59.88 102.49C60.38 102.42 60.89 102.26 61.31 101.98C61.64 101.76 61.94 101.38 61.84 100.96C61.81 100.85 61.76 100.77 61.68 100.72L61.69 100.73Z" fill="#6E4931"/>
<path d="M64.0602 100.291C63.8802 100.221 63.6602 100.211 63.4402 100.271H63.3202C63.0002 100.321 62.6402 100.591 62.6702 100.941C62.7002 101.291 63.1102 101.251 63.3602 101.171C63.6602 101.071 64.0402 100.841 64.1302 100.511C64.1502 100.431 64.1502 100.331 64.0602 100.291Z" fill="#6E4931"/>
<path d="M70.5201 99.12C70.2801 98.62 69.4101 98.58 68.9301 98.62C68.5901 98.65 68.2801 98.83 68.1001 99.12C67.9701 99.34 67.9301 99.63 68.0801 99.82C68.1201 99.87 68.1701 99.92 68.2401 99.97C68.6401 100.19 69.2401 100.12 69.6701 100.04C70.0801 99.96 70.7801 99.67 70.5201 99.12Z" fill="#6E4931"/>
<path d="M73.7701 98.3302C73.5001 97.9102 72.9601 97.9702 72.6001 98.2402C72.3101 98.4502 72.0001 98.8802 72.1301 99.2502C72.1201 99.3102 72.1201 99.3702 72.1301 99.4402C72.1501 99.5202 72.2001 99.5702 72.2801 99.5802C72.8401 99.6602 74.2501 99.0802 73.7701 98.3402V98.3302Z" fill="#6E4931"/>
<path d="M80.7299 96.8508C80.4899 96.6908 80.1099 96.6808 79.8299 96.7308C79.5499 96.7808 79.2599 96.9308 79.0299 97.1008C78.8599 97.2308 78.5799 97.4808 78.6999 97.7308C78.8299 98.0208 79.4199 97.9608 79.6599 97.9408C79.9299 97.9208 80.3099 97.8108 80.5499 97.6108C80.5699 97.6108 80.5999 97.6108 80.6199 97.5808C80.8099 97.3808 81.0499 97.0608 80.7199 96.8508H80.7299Z" fill="#6E4931"/>
<path d="M83.2299 96.4004C83.1699 96.1404 82.8599 96.0904 82.6299 96.1104C82.1299 96.1404 81.4699 96.4104 81.2499 96.9004C81.1699 97.0804 81.1499 97.3204 81.3399 97.4404C81.4999 97.5304 81.7099 97.5104 81.8799 97.4804C82.2599 97.4104 82.7599 97.2604 83.0399 96.9804C83.1399 96.8804 83.2499 96.7204 83.2199 96.5704C83.2299 96.5204 83.2399 96.4604 83.2199 96.4004H83.2299Z" fill="#6E4931"/>
<path d="M85.0701 96.08C84.9601 95.9 84.7401 95.91 84.5901 96.02C84.5001 96.08 84.4201 96.19 84.4401 96.31C84.4401 96.39 84.5101 96.43 84.5701 96.43C84.5901 96.44 84.6101 96.45 84.6301 96.45C84.7401 96.46 84.8201 96.44 84.9201 96.38C85.0101 96.33 85.1501 96.19 85.0801 96.07L85.0701 96.08Z" fill="#6E4931"/>
<path d="M57.1101 102.031C57.0501 101.831 56.7401 101.761 56.5501 101.791C56.3301 101.821 56.1401 102.021 56.1201 102.241V102.331C56.1201 102.391 56.1201 102.441 56.1701 102.481C56.1701 102.481 56.1901 102.491 56.2001 102.501C56.2301 102.531 56.2701 102.551 56.3101 102.561H56.3301C56.4801 102.611 56.6401 102.601 56.7901 102.551C56.9701 102.481 57.1901 102.271 57.1201 102.051V102.031H57.1101Z" fill="#6E4931"/>
<path d="M66.75 99.6603C66.75 99.6603 66.6699 99.6403 66.6299 99.6603H66.54C66.54 99.6603 66.5 99.6703 66.48 99.6803C66.47 99.6803 66.45 99.6902 66.44 99.7002C66.34 99.7502 66.23 99.9003 66.32 100C66.37 100.06 66.47 100.07 66.54 100.06C66.66 100.04 66.76 99.9502 66.8 99.8402C66.83 99.7702 66.8099 99.7003 66.7399 99.6603H66.75Z" fill="#6E4931"/>
<path d="M75.6501 98.1109C75.6501 98.1109 75.6401 98.1109 75.6301 98.1009V98.0709C75.6301 98.0009 75.5701 97.9709 75.5101 97.9609C75.4801 97.9609 75.4301 97.9609 75.4101 97.9809C75.4001 97.9809 75.3701 98.0009 75.3601 98.0109C75.3401 98.0309 75.3101 98.0509 75.3001 98.0709C75.2701 98.1109 75.2701 98.1009 75.3201 98.0509L75.2901 98.0809C75.2901 98.0809 75.2701 98.1009 75.2601 98.1209C75.2601 98.1309 75.2401 98.1509 75.2301 98.1609C75.1901 98.2209 75.1701 98.3009 75.2201 98.3609C75.2601 98.4209 75.3501 98.4209 75.4101 98.3909C75.4401 98.3709 75.4701 98.3509 75.5001 98.3309H75.5101C75.5601 98.3309 75.6201 98.2909 75.6501 98.2509C75.6701 98.2109 75.6901 98.1409 75.6501 98.1109Z" fill="#6E4931"/>
<path d="M65.57 78.2105C64.56 78.1205 63.55 78.2905 62.56 78.4605C61.53 78.6405 60.51 78.8705 59.49 79.0505C58.45 79.2405 57.4 79.4205 56.34 79.3505C55.33 79.2805 54.32 79.1405 53.31 79.0105C52.22 78.8705 51.14 78.7505 50.05 78.7605C49 78.7605 47.97 78.9405 46.94 79.2005C44.94 79.7105 42.98 80.3805 40.93 80.4805C38.9 80.5805 36.89 80.1605 34.87 79.8705C33.78 79.7105 32.7 79.5805 31.61 79.6805C30.54 79.7705 29.49 80.0105 28.44 80.2905C26.47 80.8105 24.52 81.4005 22.5 81.5505C19.18 81.8005 15.86 81.1905 12.54 81.1305C12.54 81.2805 12.55 81.4205 12.56 81.5705C13.6 101.38 37.17 123.19 51.99 122.42C66.81 121.65 117.26 107.48 116.22 87.6805C116.22 87.5105 66.22 78.4705 66.2 78.3005C65.98 78.2705 65.77 78.2405 65.56 78.2205H65.57V78.2105Z" fill="#7F5137"/>
<path opacity="0.57" d="M82.0999 105.6C81.0699 105.82 80.1299 106.35 79.1999 106.83C78.2999 107.3 77.3799 107.76 76.3699 107.95C75.2999 108.16 74.2099 108.1 73.1299 108.13C72.5499 108.15 71.9799 108.19 71.4099 108.31C70.8499 108.43 70.2999 108.6 69.7599 108.79C68.7199 109.16 67.7099 109.62 66.6599 109.97C66.1599 110.14 65.6599 110.29 65.1299 110.33C64.6699 110.37 64.2199 110.33 63.7699 110.27C62.7599 110.13 61.7799 109.87 60.7599 109.9C60.1199 109.92 59.4899 110 58.8599 110.09C62.4799 114.01 68.5899 116.55 74.2199 115.4C79.8099 114.26 107.54 108.15 109.34 103.19C108.29 103.54 83.1899 105.37 82.1099 105.6H82.0999Z" fill="#8C664B"/>
<g opacity="0.57">
<path d="M58.5801 105.631C58.3401 105.661 58.1301 105.761 58.0301 105.941C57.9401 106.101 57.9201 106.311 57.9601 106.491C58.0401 106.931 58.3201 107.321 58.8201 107.161C59.2401 107.031 59.5601 106.621 59.5301 106.181C59.5001 105.761 59.0001 105.581 58.5701 105.631H58.5801Z" fill="#8C664B"/>
<path d="M60.6797 107.171V107.141C60.6797 107.141 60.6597 107.111 60.6397 107.101C60.6097 107.081 60.5697 107.071 60.5397 107.081C60.5097 107.081 60.4797 107.101 60.4497 107.121C60.4297 107.141 60.4097 107.151 60.3897 107.181C60.3697 107.201 60.3597 107.221 60.3497 107.251C60.3497 107.291 60.3297 107.331 60.3497 107.361V107.391C60.3497 107.391 60.3497 107.431 60.3497 107.441C60.3497 107.461 60.3797 107.481 60.3997 107.491C60.4397 107.511 60.4897 107.491 60.5197 107.491C60.6097 107.461 60.6797 107.371 60.6897 107.281C60.6897 107.241 60.6897 107.211 60.6897 107.181L60.6797 107.171Z" fill="#8C664B"/>
<path d="M57.7799 104.81C57.7199 104.72 57.6299 104.641 57.4999 104.681C57.4099 104.711 57.3299 104.781 57.2799 104.871C57.1599 105.061 57.2499 105.331 57.5099 105.261C57.5399 105.261 57.5799 105.261 57.6099 105.251C57.7399 105.221 57.9099 105.051 57.8299 104.911C57.8099 104.881 57.7899 104.851 57.7799 104.821V104.81Z" fill="#8C664B"/>
<path d="M60.1899 108.44C60.0599 108.39 59.9299 108.41 59.8199 108.47H59.7999C59.6699 108.49 59.5699 108.58 59.4999 108.69C59.3899 108.87 59.3399 109.16 59.5199 109.31C59.7699 109.53 60.2199 109.27 60.3799 109.05C60.5399 108.82 60.4499 108.53 60.1899 108.44Z" fill="#8C664B"/>
<path d="M63.18 107.48C63.07 107.5 63.01 107.71 63.15 107.68C63.26 107.66 63.32 107.45 63.18 107.48Z" fill="#8C664B"/>
<path d="M63.1001 103.64C62.9601 103.57 62.8001 103.59 62.6601 103.67H62.6401C62.4301 103.71 62.2501 103.9 62.2701 104.12C62.2901 104.32 62.4701 104.51 62.6701 104.53C62.8901 104.56 63.1201 104.41 63.2301 104.22C63.3401 104.02 63.3201 103.75 63.1001 103.63V103.64Z" fill="#8C664B"/>
<path d="M64.3898 103.501C64.2498 103.531 64.1798 103.801 64.3598 103.761C64.4998 103.731 64.5698 103.461 64.3898 103.501Z" fill="#8C664B"/>
<path d="M67.2898 105.431C67.0598 105.501 66.8198 105.491 66.6598 105.361C66.5098 105.251 66.4098 105.061 66.3798 104.881C66.2798 104.441 66.3798 103.981 66.8998 103.921C67.3398 103.881 67.7998 104.131 67.9498 104.541C68.0898 104.931 67.6998 105.301 67.2898 105.421V105.431Z" fill="#8C664B"/>
<path d="M70.3799 103.381C70.3199 103.401 70.2599 103.391 70.1999 103.381C70.0599 103.411 69.9099 103.321 69.8299 103.211C69.7599 103.121 69.7499 102.991 69.8099 102.891C69.8599 102.801 69.9399 102.731 70.0399 102.711C70.2599 102.661 70.4499 102.831 70.5199 103.021C70.5699 103.161 70.5499 103.341 70.3799 103.391V103.381Z" fill="#8C664B"/>
<path d="M65.8201 108.351C65.8401 108.191 65.6201 108.091 65.4801 108.121C65.4501 108.121 65.4101 108.141 65.3801 108.151C65.1101 108.191 65.1401 108.471 65.3201 108.601C65.4001 108.661 65.5001 108.701 65.5901 108.681C65.7201 108.661 65.7701 108.561 65.7901 108.451C65.7901 108.421 65.8001 108.381 65.8101 108.351H65.8201Z" fill="#8C664B"/>
<path d="M66.49 102.431C66.39 102.531 66.26 102.561 66.14 102.551H66.12C66 102.581 65.86 102.541 65.76 102.471C65.59 102.351 65.43 102.101 65.53 101.891C65.67 101.591 66.19 101.651 66.42 101.791C66.65 101.941 66.69 102.241 66.49 102.431Z" fill="#8C664B"/>
<path d="M69.5998 107.761C69.4998 107.881 69.3398 107.921 69.1798 107.911H69.1598C68.9498 107.951 68.7098 107.851 68.6398 107.641C68.5698 107.451 68.6698 107.201 68.8398 107.101C69.0298 106.991 69.2998 107.031 69.4798 107.161C69.6698 107.301 69.7498 107.561 69.5898 107.751L69.5998 107.761Z" fill="#8C664B"/>
<path d="M72.3997 107.061C72.2597 107.091 72.0897 106.871 72.2697 106.841C72.4097 106.811 72.5797 107.031 72.3997 107.061Z" fill="#8C664B"/>
<path d="M73.1199 103.451C72.9999 103.461 72.8899 103.511 72.8399 103.601C72.7899 103.681 72.7899 103.791 72.8099 103.881C72.8499 104.101 72.9899 104.291 73.2399 104.221C73.4499 104.151 73.6099 103.951 73.5999 103.731C73.5899 103.521 73.3399 103.431 73.1199 103.461V103.451Z" fill="#8C664B"/>
<path d="M75.44 104.161V104.131C75.44 104.131 75.42 104.101 75.4 104.091C75.37 104.071 75.33 104.061 75.3 104.071C75.27 104.071 75.24 104.091 75.21 104.111C75.19 104.131 75.17 104.141 75.15 104.171C75.13 104.191 75.12 104.211 75.11 104.241C75.11 104.281 75.09 104.321 75.1 104.351V104.381C75.1 104.381 75.1 104.421 75.11 104.431C75.12 104.451 75.14 104.471 75.16 104.481C75.2 104.501 75.25 104.481 75.28 104.481C75.37 104.451 75.44 104.361 75.45 104.271C75.45 104.231 75.45 104.201 75.44 104.171V104.161Z" fill="#8C664B"/>
<path d="M78.06 106.251C78.06 106.251 77.98 106.281 77.95 106.301C77.86 106.321 77.79 106.411 77.77 106.501C77.75 106.571 77.77 106.651 77.84 106.701C77.89 106.741 77.96 106.761 78.03 106.751C78.17 106.721 78.25 106.571 78.24 106.441C78.24 106.341 78.17 106.241 78.06 106.261V106.251Z" fill="#8C664B"/>
<path d="M72.5299 101.791C72.4699 101.701 72.3799 101.621 72.2499 101.661C72.1599 101.691 72.0799 101.761 72.0299 101.851C71.9099 102.041 71.9999 102.311 72.2599 102.241C72.2899 102.241 72.3299 102.241 72.3599 102.231C72.4899 102.201 72.6599 102.031 72.5799 101.891C72.5599 101.861 72.5499 101.831 72.5299 101.801V101.791Z" fill="#8C664B"/>
<path d="M74.9399 105.421C74.8099 105.371 74.6799 105.391 74.5699 105.451H74.5499C74.4199 105.471 74.3199 105.561 74.2499 105.671C74.1399 105.851 74.0899 106.141 74.2699 106.291C74.5199 106.511 74.9699 106.251 75.1299 106.031C75.2899 105.801 75.1999 105.511 74.9399 105.421Z" fill="#8C664B"/>
<path d="M77.9398 104.461C77.8298 104.481 77.7698 104.691 77.9098 104.661C78.0198 104.641 78.0798 104.431 77.9398 104.461Z" fill="#8C664B"/>
<path d="M77.8598 100.621C77.7198 100.551 77.5598 100.571 77.4198 100.651H77.3998C77.1898 100.691 77.0098 100.881 77.0298 101.101C77.0498 101.301 77.2298 101.491 77.4298 101.511C77.6498 101.541 77.8798 101.391 77.9898 101.201C78.0998 101.001 78.0798 100.731 77.8598 100.611V100.621Z" fill="#8C664B"/>
<path d="M79.1501 100.481C79.0101 100.511 78.9401 100.781 79.1201 100.741C79.2601 100.711 79.3301 100.441 79.1501 100.481Z" fill="#8C664B"/>
<path d="M81.2998 102.971C81.1298 103.021 80.9498 103.011 80.8298 102.921C80.7198 102.841 80.6498 102.691 80.6198 102.561C80.5398 102.231 80.6198 101.881 81.0098 101.841C81.3398 101.811 81.6798 101.991 81.7998 102.311C81.9098 102.601 81.6198 102.881 81.2998 102.971Z" fill="#8C664B"/>
<path d="M85.1402 100.36C85.0802 100.38 85.0202 100.37 84.9602 100.36C84.8202 100.39 84.6702 100.3 84.5902 100.19C84.5202 100.1 84.5102 99.9705 84.5702 99.8705C84.6202 99.7805 84.7002 99.7105 84.8002 99.6905C85.0202 99.6405 85.2102 99.8105 85.2802 100C85.3302 100.14 85.3102 100.32 85.1402 100.37V100.36Z" fill="#8C664B"/>
<path d="M80.5701 105.331C80.5901 105.171 80.3701 105.071 80.2301 105.101C80.2001 105.101 80.1601 105.121 80.1301 105.131C79.8601 105.171 79.8901 105.451 80.0701 105.581C80.1501 105.641 80.2501 105.681 80.3401 105.661C80.4701 105.641 80.5201 105.541 80.5401 105.431C80.5401 105.401 80.5501 105.361 80.5601 105.331H80.5701Z" fill="#8C664B"/>
<path d="M81.8199 99.9109C81.7499 99.9709 81.6799 99.9909 81.5999 99.9809H81.5899C81.5099 100.001 81.4299 99.9809 81.3599 99.9309C81.2499 99.8509 81.1499 99.7009 81.2099 99.5609C81.2999 99.3709 81.6299 99.4109 81.7699 99.5009C81.9199 99.6009 81.9399 99.7809 81.8099 99.9009H81.8199V99.9109Z" fill="#8C664B"/>
<path d="M84.3599 104.74C84.2599 104.86 84.0999 104.9 83.9399 104.89H83.9199C83.7099 104.93 83.4699 104.83 83.3999 104.62C83.3299 104.43 83.4299 104.18 83.6099 104.08C83.7999 103.97 84.0699 104.01 84.2499 104.14C84.4399 104.28 84.5199 104.54 84.3599 104.73V104.74Z" fill="#8C664B"/>
</g>
<g opacity="0.57">
<path d="M75.2099 108.781C75.2199 108.861 75.2599 108.931 75.3199 108.961C75.3799 108.991 75.4499 108.991 75.5099 108.981C75.6599 108.951 75.7899 108.851 75.7399 108.691C75.6899 108.551 75.5499 108.441 75.3999 108.451C75.2599 108.461 75.1899 108.631 75.2099 108.781Z" fill="#8C664B"/>
<path d="M76.2798 108.281C76.2798 108.281 76.2598 108.291 76.2598 108.301C76.2598 108.321 76.2498 108.331 76.2598 108.351C76.2598 108.371 76.2698 108.381 76.2798 108.401C76.2798 108.411 76.2998 108.421 76.3098 108.431C76.3098 108.431 76.3298 108.451 76.3498 108.451C76.3698 108.451 76.3898 108.461 76.4098 108.451H76.4598C76.4598 108.451 76.4798 108.431 76.4898 108.421V108.361C76.4898 108.361 76.4298 108.281 76.3798 108.271H76.2798V108.281Z" fill="#8C664B"/>
<path d="M79.5099 108.341C79.5099 108.341 79.4399 108.441 79.4999 108.431C79.5499 108.431 79.5699 108.331 79.5099 108.341Z" fill="#8C664B"/>
<path d="M79.3999 107.441C79.3399 107.411 79.2699 107.421 79.1999 107.451C79.1099 107.471 79.0299 107.551 79.0399 107.651C79.0399 107.741 79.1299 107.821 79.2199 107.831C79.3199 107.841 79.4199 107.781 79.4699 107.691C79.5199 107.601 79.5099 107.481 79.4099 107.431H79.3999V107.441Z" fill="#8C664B"/>
<path d="M80.0501 106.58C79.9901 106.59 79.9501 106.71 80.0401 106.69C80.1001 106.68 80.1401 106.56 80.0501 106.58Z" fill="#8C664B"/>
<path d="M81.3201 108.001C81.2201 108.031 81.1101 108.021 81.0401 107.971C80.9701 107.921 80.9301 107.841 80.9101 107.761C80.8701 107.571 80.9101 107.361 81.1401 107.341C81.3301 107.321 81.5401 107.431 81.6001 107.621C81.6601 107.791 81.4901 107.961 81.3101 108.011L81.3201 108.001Z" fill="#8C664B"/>
<path d="M82.6998 106.531H82.6198C82.5598 106.541 82.4898 106.501 82.4598 106.451C82.4298 106.411 82.4198 106.351 82.4498 106.311C82.4698 106.271 82.5098 106.241 82.5498 106.231C82.6498 106.211 82.7298 106.281 82.7598 106.371C82.7798 106.431 82.7698 106.511 82.6998 106.531Z" fill="#8C664B"/>
<path d="M82.0498 106.511C82.0498 106.511 81.9498 106.571 81.8998 106.561C81.8498 106.571 81.7898 106.561 81.7398 106.521C81.6598 106.471 81.5898 106.361 81.6398 106.261C81.6998 106.131 81.9298 106.151 82.0298 106.221C82.1298 106.291 82.1498 106.421 82.0598 106.501L82.0498 106.511Z" fill="#8C664B"/>
<path d="M82.6198 108.381C82.6198 108.381 82.5598 108.421 82.5298 108.411C82.4798 108.411 82.4298 108.401 82.4198 108.351C82.3998 108.311 82.4198 108.251 82.4698 108.231C82.5098 108.211 82.5698 108.221 82.6098 108.241C82.6498 108.271 82.6698 108.331 82.6298 108.371H82.6198V108.381Z" fill="#8C664B"/>
<path d="M83.5898 108.16C83.5298 108.17 83.4498 108.08 83.5298 108.06C83.5898 108.05 83.6698 108.14 83.5898 108.16Z" fill="#8C664B"/>
<path d="M83.6499 105.821C83.6499 105.821 83.5799 105.751 83.5299 105.761C83.4899 105.771 83.4599 105.811 83.4299 105.841C83.3799 105.921 83.4099 106.041 83.5299 106.011H83.5699C83.6299 106.001 83.6999 105.921 83.6699 105.861C83.6699 105.851 83.6499 105.831 83.6399 105.821H83.6499Z" fill="#8C664B"/>
<path d="M77.66 107.931C77.66 107.931 77.71 108.021 77.71 108.061C77.72 108.111 77.71 108.161 77.68 108.201C77.63 108.271 77.54 108.331 77.45 108.291C77.33 108.241 77.35 108.041 77.41 107.951C77.47 107.861 77.58 107.841 77.66 107.921V107.931Z" fill="#8C664B"/>
</g>
<path d="M56.5001 102.04C56.4401 101.89 56.2801 101.82 56.1401 101.79C55.8201 101.71 55.4101 101.79 55.1801 102.05C55.0601 102.19 55.0101 102.38 55.1101 102.54C55.2001 102.68 55.3601 102.73 55.5101 102.67C55.5101 102.67 55.5301 102.66 55.5401 102.65C55.8001 102.71 56.1001 102.63 56.3001 102.5C56.4401 102.4 56.5701 102.22 56.5001 102.05V102.04Z" fill="#5A3B25"/>
<path d="M58.7101 101.28C58.4201 101.17 58.0701 101.21 57.7701 101.28C57.4501 101.35 57.0301 101.49 56.8701 101.81C56.7401 102.09 56.9701 102.22 57.2101 102.28C57.3201 102.38 57.5101 102.42 57.6401 102.44C58.1001 102.5 58.8901 102.44 59.0601 101.92C59.1501 101.64 58.9801 101.38 58.7101 101.28Z" fill="#5A3B25"/>
<path d="M62.6801 100.701C62.3801 100.581 62.0101 100.741 61.7801 100.941C61.6701 101.031 61.5501 101.181 61.5701 101.331C61.5701 101.361 61.5701 101.381 61.5901 101.401C61.5901 101.461 61.6401 101.521 61.7301 101.531H61.9001C62.1301 101.521 62.3801 101.431 62.5701 101.331C62.7001 101.261 62.8301 101.171 62.8801 101.021C62.9301 100.861 62.8401 100.741 62.6901 100.691L62.6801 100.701Z" fill="#5A3B25"/>
<path d="M65.8402 99.5201C65.3202 99.3401 64.7602 99.4901 64.3802 99.8701C64.2302 100.02 64.0602 100.24 64.0802 100.47C64.1002 100.7 64.2802 100.67 64.4502 100.66C64.7202 100.76 65.0602 100.71 65.3202 100.64C65.6202 100.56 65.9702 100.43 66.1502 100.16C66.3502 99.8601 66.1502 99.6201 65.8402 99.5101V99.5201Z" fill="#5A3B25"/>
<path d="M68.3603 99.5208C68.1103 99.2508 67.6103 99.3008 67.2903 99.3708C67.0403 99.4308 66.3903 99.7708 66.7003 100.111C66.7003 100.151 66.7403 100.191 66.7903 100.221C67.0903 100.391 67.5803 100.321 67.8903 100.241C68.1703 100.161 68.6703 99.8508 68.3603 99.5208Z" fill="#5A3B25"/>
<path d="M45.8898 101.541C45.4898 101.461 44.9898 101.521 44.6298 101.701C44.4598 101.791 44.2398 101.951 44.2098 102.161C44.2098 102.201 44.2098 102.241 44.2098 102.271C44.2098 102.291 44.1898 102.311 44.1698 102.331C44.1098 102.451 44.1698 102.561 44.2998 102.591C44.8298 102.711 45.4098 102.571 45.8798 102.321C46.0498 102.231 46.2398 102.091 46.2598 101.891C46.2798 101.661 46.0498 101.591 45.8698 101.551L45.8898 101.541Z" fill="#5A3B25"/>
<path d="M94.1998 102.5C93.8198 102.34 93.3598 102.47 93.0198 102.71C92.8098 102.77 92.6298 102.9 92.4998 103.16C92.4798 103.21 92.4798 103.3 92.5298 103.33C92.9998 103.73 93.8598 103.2 94.2098 102.84C94.2898 102.75 94.3598 102.56 94.2098 102.49H94.1998V102.5Z" fill="#5A3B25"/>
<path d="M78.5703 97.0608C78.2603 97.0308 77.8203 97.2108 77.7903 97.5608C77.7703 97.7408 77.9303 97.9208 78.0903 97.9708C78.3003 98.0508 78.5303 97.9008 78.6803 97.7608C78.9103 97.5608 78.9703 97.0808 78.5703 97.0508V97.0608Z" fill="#5A3B25"/>
<path d="M81.4899 97.43C81.5099 97.37 81.4999 97.31 81.4499 97.27C81.3099 97.03 80.9099 97.16 80.7299 97.35C80.6699 97.41 80.6299 97.5 80.6699 97.59C80.6699 97.59 80.6899 97.66 80.7099 97.69C80.7499 97.75 80.8099 97.77 80.8699 97.76C81.0499 97.8 81.2899 97.7 81.4099 97.57C81.4299 97.54 81.4599 97.51 81.4699 97.47C81.4699 97.46 81.4699 97.45 81.4799 97.44L81.4899 97.43Z" fill="#5A3B25"/>
<path d="M89.4401 94.6204C89.4601 94.5604 89.4501 94.5004 89.4001 94.4604C89.2601 94.2204 88.8601 94.3504 88.6801 94.5404C88.6201 94.6004 88.5801 94.6904 88.6201 94.7804C88.6201 94.7804 88.6401 94.8504 88.6601 94.8804C88.7001 94.9404 88.7601 94.9604 88.8201 94.9504C89.0001 94.9904 89.2401 94.8904 89.3601 94.7604C89.3801 94.7304 89.4101 94.7004 89.4201 94.6604C89.4201 94.6504 89.4201 94.6404 89.4301 94.6304L89.4401 94.6204Z" fill="#5A3B25"/>
<path d="M84.73 96.0609C84.58 95.8809 84.29 95.8809 84.07 95.9209C83.91 95.9009 83.73 95.9209 83.6 95.9709C83.34 96.0409 82.91 96.2909 83.04 96.6209C83.15 96.9009 83.56 96.8409 83.79 96.7809C84.1 96.7109 84.45 96.6009 84.69 96.3909C84.78 96.3109 84.81 96.1609 84.73 96.0609Z" fill="#5A3B25"/>
<path d="M88.0899 94.5805C87.9399 94.4005 87.6499 94.4005 87.4299 94.4405C87.2699 94.4205 87.0899 94.4405 86.9599 94.4905C86.6999 94.5605 86.2699 94.8105 86.3999 95.1405C86.5099 95.4205 86.9199 95.3605 87.1499 95.3005C87.4599 95.2305 87.7999 95.1205 88.0499 94.9105C88.1399 94.8305 88.1699 94.6805 88.0899 94.5805Z" fill="#5A3B25"/>
<path d="M85.4298 95.9505C85.3898 95.8805 85.2998 95.8605 85.2198 95.8905C85.1598 95.9205 85.1098 95.9605 85.0698 96.0205C85.0498 96.0405 85.0298 96.0705 85.0098 96.1005C85.0098 96.1105 84.9998 96.1205 84.9898 96.1305V96.1605C84.9698 96.2405 84.9998 96.3205 85.0898 96.3305H85.1598C85.2498 96.3305 85.3498 96.2505 85.3898 96.1705C85.3898 96.1605 85.4098 96.1405 85.4198 96.1305C85.4498 96.1105 85.4798 96.0705 85.4898 96.0405C85.4998 96.0005 85.4898 95.9505 85.4398 95.9505H85.4298Z" fill="#5A3B25"/>
<path d="M57.1203 102.21C56.9903 102 56.7203 102.04 56.5003 102.16C56.3003 102.2 56.1103 102.3 56.0503 102.5C55.9403 102.87 56.4403 102.83 56.6603 102.78C56.9003 102.73 57.3103 102.51 57.1203 102.21Z" fill="#82583D"/>
<path d="M59.8799 101.7C59.8799 101.7 59.7699 101.68 59.7199 101.7H59.6599C59.5299 101.72 59.4499 101.84 59.4199 101.96C59.4199 102.01 59.4399 102.06 59.4799 102.08C59.6199 102.15 59.7899 102.08 59.8899 101.98C59.9499 101.92 60.0099 101.74 59.8899 101.7H59.8799Z" fill="#82583D"/>
<path d="M63.0802 100.891C63.0802 100.891 62.9702 100.871 62.9202 100.891C62.8202 100.891 62.7202 100.951 62.6602 101.031C62.6102 101.091 62.5702 101.171 62.6002 101.251C62.6402 101.351 62.7602 101.391 62.8602 101.371C63.0202 101.341 63.1202 101.211 63.1602 101.061C63.1602 101.001 63.1402 100.931 63.0802 100.911V100.891Z" fill="#82583D"/>
<path d="M66.4602 99.86C66.4602 99.86 66.4002 99.84 66.3602 99.83C66.3502 99.83 66.3402 99.81 66.3202 99.8C66.2202 99.75 66.0902 99.77 65.9902 99.8C65.8102 99.87 65.5502 100.11 65.7402 100.3C65.8802 100.43 66.1602 100.4 66.3102 100.33C66.4202 100.28 66.5102 100.19 66.5502 100.08C66.5702 99.99 66.5502 99.89 66.4602 99.85V99.86Z" fill="#82583D"/>
<path d="M69.6703 99.5009C69.6703 99.5009 69.5903 99.4509 69.5303 99.4509C69.5303 99.4509 69.5203 99.4409 69.5103 99.4409C69.4303 99.3909 69.3103 99.3909 69.2203 99.4109C69.0303 99.4509 68.7703 99.5909 68.7503 99.8109C68.7303 100.071 69.1103 100.031 69.2703 100.001C69.4003 99.9809 69.5403 99.9409 69.6403 99.8509C69.7303 99.7609 69.7703 99.6109 69.6703 99.5209V99.5009Z" fill="#82583D"/>
<path d="M73.1898 98.8609C73.0198 98.7809 72.7798 98.8609 72.6598 99.0009C72.6098 99.0709 72.5498 99.1809 72.6298 99.2609C72.6598 99.2909 72.6898 99.3009 72.7298 99.3009C72.7998 99.3209 72.8798 99.3009 72.9298 99.2909C73.0498 99.2509 73.1598 99.1909 73.2298 99.0809C73.2698 99.0109 73.2898 98.9009 73.1998 98.8609H73.1898Z" fill="#82583D"/>
<path d="M75.91 98.0109C75.91 98.0109 75.79 97.9509 75.71 97.9709C75.55 98.0009 75.37 98.1209 75.35 98.2909C75.34 98.3709 75.37 98.4409 75.43 98.4809C75.5 98.5409 75.58 98.5409 75.67 98.5309C75.86 98.5209 76.11 98.4209 76.13 98.2009C76.14 98.0509 76.04 98.0009 75.92 98.0009H75.91V98.0109Z" fill="#82583D"/>
<path d="M79.3699 97.4809C79.3699 97.4809 79.2899 97.4409 79.2399 97.4309C79.1799 97.4009 79.0999 97.3809 79.0399 97.3809C78.8499 97.3809 78.5999 97.4709 78.5799 97.6909C78.5599 97.8709 78.7699 97.9109 78.9099 97.9109C79.0899 97.9109 79.2999 97.8509 79.3999 97.6909C79.4499 97.6209 79.4499 97.5309 79.3699 97.4809Z" fill="#82583D"/>
<path d="M88.2002 94.3702C88.0402 94.2802 87.7602 94.3302 87.6202 94.4302C87.5802 94.4602 87.5402 94.5002 87.5302 94.5502C87.4802 94.6102 87.4602 94.6802 87.4902 94.7602C87.5602 94.9102 87.7502 94.8602 87.8802 94.8202C88.0302 94.7702 88.1802 94.6702 88.2502 94.5302C88.2802 94.4702 88.2502 94.4102 88.2002 94.3802V94.3702Z" fill="#82583D"/>
<path d="M84.9402 96.3007C84.8702 96.2407 84.7902 96.2407 84.7102 96.2707C84.6302 96.2707 84.5502 96.3307 84.5102 96.4007C84.4902 96.4407 84.4602 96.5007 84.4902 96.5407C84.5302 96.6007 84.5802 96.6407 84.6502 96.6407C84.7202 96.6407 84.8102 96.6107 84.8602 96.5707C84.9102 96.5307 84.9402 96.4907 84.9602 96.4307C84.9702 96.3807 84.9602 96.3307 84.9302 96.3007H84.9402Z" fill="#82583D"/>
<g style="mix-blend-mode:multiply" opacity="0.5">
<path d="M83.8601 86.1999C82.5201 85.8999 37.1501 75.9099 29.4201 82.7799C29.3601 82.8299 29.3301 82.9099 29.3301 82.9899C29.3401 83.8499 29.7101 90.2299 47.5701 94.4599C67.7401 99.2299 85.0001 92.8799 85.0001 92.8799L86.3501 96.7099C86.4201 96.7299 106.26 99.9799 106.32 99.9399L115.8 94.9399C115.97 94.8499 115.99 94.6199 115.85 94.4999C114.05 92.9799 103.85 85.2399 83.9101 86.1999H83.8401H83.8601Z" fill="#616469"/>
</g>
<path d="M54.5798 100.65C55.8098 100.37 56.2498 99.4802 57.2398 98.8602C58.1998 98.2602 58.4398 98.2702 59.7698 98.2702C61.0998 98.2702 62.5598 98.1302 63.8898 98.4702C64.9998 98.7502 66.5198 99.7102 67.7398 99.2202C68.9198 98.7402 68.9998 98.1702 69.9398 97.2702C70.9398 96.3202 71.9898 96.0302 73.3998 96.1402C75.6998 96.3102 76.7798 97.3202 78.3598 98.7402C81.8298 101.85 88.7798 98.1302 91.6098 102.23C95.5598 107.94 82.6198 104.36 80.6698 104.93C79.3698 105.31 78.1798 106.29 76.9698 106.81C75.4398 107.47 73.9698 107.57 72.2898 107.64C70.4898 107.71 70.0798 107.62 68.7098 106.58C67.8498 105.92 67.7398 105.74 66.6498 105.57C64.2498 105.21 61.7998 106.02 59.3898 106.05C57.5498 106.07 53.2498 105.57 52.3398 103.83C53.2598 103.27 54.7398 102.22 54.1098 100.98C54.8498 100.5 53.7498 100.86 54.5898 100.67V100.65H54.5798Z" fill="#6E4931"/>
<path d="M49.9799 102.261C48.9599 102.261 46.7799 102.541 46.6099 103.821C47.6199 104.151 48.2499 104.141 48.1999 105.411C48.5599 105.451 50.5299 104.441 50.6999 104.141C51.1099 103.401 50.6999 102.251 49.9799 102.261Z" fill="#6E4931"/>
<path d="M51.97 97.2705C51.16 97.2705 49.59 96.8005 49.01 97.4805C47.94 98.7305 50.09 98.6305 50.73 98.8305C51.48 99.0705 52.31 99.6405 52.85 98.4605C53.31 97.4405 52.76 97.2805 51.98 97.2705H51.97Z" fill="#6E4931"/>
<path d="M83.6001 105.86C82.9901 105.52 80.8801 105.38 80.8701 106.48C81.4501 106.7 81.7101 107.24 82.3301 107.34C83.0401 107.45 83.7801 106.97 84.5301 107C85.2601 105.74 84.2101 106.2 83.6001 105.86Z" fill="#6E4931"/>
<path d="M94.2701 101.21C94.8501 101.03 95.4401 100.61 96.0701 100.49C96.9301 100.33 97.1101 100.76 97.7801 100.99C98.3101 101.17 99.0101 100.84 99.4501 101.01C100.16 101.29 100.17 102.13 99.4702 102.5C98.9702 102.77 98.3902 102.36 97.8602 102.36C97.1902 102.36 97.0101 102.53 96.2701 102.44C95.8401 102.39 94.9001 102.5 94.5901 102.12C94.0601 101.47 93.5702 101.11 94.2602 101.19V101.21H94.2701Z" fill="#6E4931"/>
<path d="M80.3201 94.7607C79.7401 94.9807 78.0001 94.3407 78.4401 95.8007C79.0701 95.9307 79.7201 96.2407 79.3901 96.9907C79.9801 97.1907 81.1901 97.0907 81.4601 96.3207C81.6801 95.6907 80.7201 95.3107 80.3201 94.7607Z" fill="#6E4931"/>
<path d="M64.5201 107.02C63.8101 106.8 62.5601 106.69 62.1001 107.44C61.9101 107.76 62.2801 108.11 62.1201 108.42C62.0401 108.58 61.4901 108.73 61.3301 108.92C61.8001 109.25 64.3501 109.69 64.8601 109.26C65.1301 109.04 65.3501 108.13 65.2301 107.83C65.0701 107.43 64.4401 107.42 64.5101 107.01L64.5201 107.02Z" fill="#6E4931"/>
<path d="M69.22 107.881C67.74 107.361 68.02 108.511 67.75 109.451C69.39 109.551 71.13 108.561 69.22 107.881Z" fill="#6E4931"/>
<path d="M23.92 86.6503C23.03 86.6203 20.83 86.8103 20.45 87.9203C19.96 89.3603 22.83 88.2203 23.58 88.3603C24.17 88.4703 24.2 88.9403 24.98 88.6303C25.22 88.5303 25.85 87.9703 25.83 87.7103C25.81 87.4803 24.16 86.6603 23.92 86.6503Z" fill="#6E4931"/>
</g>
<path d="M37.2599 13.8809C37.2599 13.8809 25.4199 47.9309 25.4199 79.3709C25.4199 79.3709 30.7799 81.5909 32.9999 81.2709C32.9999 81.2709 34.5499 88.3509 37.2599 89.9409C39.9699 91.5309 46.2099 27.5509 37.2599 13.8809Z" fill="#D3A535"/>
<path d="M33.0499 81.5007C33.6699 51.9307 37.0299 27.0907 36.9799 14.7607C35.1899 20.4307 25.4199 50.8107 25.4199 79.3707C25.4199 79.3707 30.7799 81.5907 32.9999 81.2707C32.9999 81.2707 33.0199 81.3607 33.0499 81.4907V81.5007Z" fill="#A56F21"/>
<path d="M76.1501 13.8801H36.3901C36.3901 13.8801 39.4901 43.9101 38.2201 60.1201C36.9501 76.3301 36.3901 89.9401 36.3901 89.9401C36.3901 89.9401 55.5601 92.8301 65.5701 91.2801C75.5801 89.7301 92.3601 84.6501 92.3601 84.6501C92.3601 84.6501 90.0901 34.3201 76.1501 13.8701V13.8801Z" fill="#FCDD5E"/>
<path d="M64.05 45.5608C63.85 44.2908 63.7 43.5608 63.33 42.2208C63.04 41.1608 62.79 39.4208 63.41 38.3008" stroke="#57C931" stroke-width="0.69" stroke-linecap="round" stroke-linejoin="round"/>
<path d="M58.4597 48.1906C60.9097 44.6206 64.4997 43.8606 68.3297 45.5706C69.3697 45.5706 71.6397 45.2406 71.6297 47.2206C71.6197 49.2006 64.9597 50.7506 62.9497 50.5706C61.3797 49.8506 59.9697 48.9606 58.4497 48.1906H58.4597Z" fill="#292738"/>
<path d="M65.6998 40.4609C64.7998 40.9409 64.0498 41.5709 63.3398 42.2909" stroke="#57C931" stroke-width="0.69" stroke-linecap="round" stroke-linejoin="round"/>
<path d="M72.7997 34.4404C71.4297 35.8204 71.0297 36.4404 69.7497 38.4104C69.2397 39.2004 66.7897 41.8104 65.0197 41.2904C64.9297 41.2604 64.9097 41.1504 64.9097 41.0004C66.4397 41.0004 68.3797 38.8304 68.8897 38.0104C69.9597 36.2804 70.3897 35.8004 71.4997 34.5004C71.9097 34.5004 72.3397 34.4804 72.7897 34.4404H72.7997Z" fill="#64D340"/>
<path d="M71.4997 34.5107C70.3897 35.8107 69.9597 36.2907 68.8897 38.0207C68.3797 38.8507 66.4397 41.0007 64.9097 41.0107C63.7797 36.4007 67.5797 35.1507 71.4997 34.5107Z" fill="#63F23B"/>
<path d="M63.02 40.5804C62.16 39.8904 61.27 39.2704 60.23 38.9004" stroke="#57C931" stroke-width="0.69" stroke-linecap="round" stroke-linejoin="round"/>
<path d="M60.6598 38.7211C59.6398 40.3011 55.5698 40.3011 54.6398 40.0611C52.2998 39.4611 51.7598 39.2111 49.7998 39.0511C50.1298 38.8111 50.4198 38.5711 50.6698 38.3411C52.3698 38.6211 52.7398 38.7511 54.7798 39.2711C55.8198 39.5411 59.2798 39.5211 60.4898 38.3311C60.6198 38.4711 60.7098 38.6111 60.6598 38.7211Z" fill="#64D340"/>
<path d="M49.8296 39.0509C49.8296 39.0509 49.8296 39.0709 49.8096 39.0509C49.8096 39.0509 49.8296 39.0309 49.8296 39.0509Z" fill="#63F23B"/>
<path d="M60.4897 38.3204C59.2897 39.5104 55.8197 39.5304 54.7797 39.2604C52.7497 38.7404 52.3697 38.6104 50.6797 38.3304C53.9897 36.1904 57.9997 34.2404 60.4897 38.3304V38.3204Z" fill="#63F23B"/>
<path d="M50.01 38.2709C50.01 38.2709 50.01 38.2909 49.99 38.2709C49.97 38.2509 50.01 38.2509 50.01 38.2709Z" fill="#63F23B"/>
<path d="M65.2099 49.9905C72.8899 48.9905 79.9799 52.4505 80.4699 61.0505C80.9499 69.6505 75.1099 76.0505 66.2399 76.4405C57.3699 76.8405 52.8599 70.9305 52.7999 62.6605C52.7399 54.3905 57.5299 50.9905 65.2199 49.9805H65.2099V49.9905ZM66.1499 71.3105C71.7999 70.9905 75.1099 67.0805 74.8799 61.6405C74.6499 56.1905 70.6499 54.2605 65.7499 54.8005C60.8499 55.3405 58.3999 57.6005 58.3099 62.7105C58.2199 67.8205 60.4999 71.6405 66.1599 71.3205H66.1499V71.3105Z" fill="#292738"/>
<path d="M65.2099 49.9905C72.8899 48.9905 79.9799 52.4505 80.4699 61.0505C80.9499 69.6505 75.1099 76.0505 66.2399 76.4405C57.3699 76.8405 52.8599 70.9305 52.7999 62.6605C52.7399 54.3905 57.5299 50.9905 65.2199 49.9805H65.2099V49.9905ZM66.1499 71.3105C71.7999 70.9905 75.1099 67.0805 74.8799 61.6405C74.6499 56.1905 70.6499 54.2605 65.7499 54.8005C60.8499 55.3405 58.3999 57.6005 58.3099 62.7105C58.2199 67.8205 60.4999 71.6405 66.1599 71.3205H66.1499V71.3105Z" fill="#63F23B"/>
<path d="M72.4898 52.1803C67.9798 52.9703 63.3698 53.6303 58.7798 53.5703C58.2998 53.5703 58.0998 53.3503 58.0398 52.9203C57.8698 51.6503 57.7298 50.1503 57.6498 48.8803C57.6198 48.4403 57.8298 48.2303 58.2998 48.2103C62.7798 48.0903 67.0798 47.1703 71.4998 46.5503C71.9598 46.4803 72.2298 46.6903 72.2998 47.1503C72.5098 48.5003 72.8498 50.0703 73.0798 51.4103C73.1598 51.8703 72.9598 52.1103 72.4898 52.1903V52.1803Z" fill="#63F23B"/>
<g style="mix-blend-mode:multiply">
<path d="M83.9101 31.3706C81.8401 24.6406 79.3001 18.5006 76.1501 13.8906H36.3901C36.3901 13.8906 37.5501 25.1306 38.1601 37.5706C49.8101 39.6206 68.2101 38.6006 83.9101 31.3706Z" fill="#EDBF3B"/>
</g>
<g style="mix-blend-mode:multiply" opacity="0.75">
<path d="M43.9601 33.6209C44.6901 34.1809 48.3401 32.3309 50.9401 32.1109C55.6301 31.7109 60.3201 31.1409 64.9401 30.2409C70.6501 29.1209 76.4901 27.8509 82.2101 26.2909C80.4901 21.5709 78.4801 17.3109 76.1501 13.8809H36.3901C36.3901 13.8809 37.1001 20.2609 37.7201 30.0509C40.2201 33.2309 43.9501 33.6109 43.9501 33.6109L43.9601 33.6209Z" fill="#C4AE41"/>
</g>
<path d="M46.69 22.0107L40.13 23.7007C40.13 23.7007 37.36 31.9107 43.95 33.6207L49.8 31.4707L46.68 22.0107H46.69Z" fill="#E0B732"/>
<path d="M46.9497 25.5204L42.5397 27.1804C42.5397 27.1804 41.3097 25.7304 40.9497 25.5204C40.5997 25.3104 39.6097 28.9704 43.0597 30.5604L48.1397 28.8004L46.9397 25.5204H46.9497Z" fill="#C18E1B"/>
<path opacity="0.35" d="M40.9198 28.0108C41.4698 27.5908 42.0298 27.3708 42.5898 27.1908C42.5898 27.1808 42.5898 27.1608 42.5898 27.1508L42.5298 27.1708C42.5298 27.1708 41.2998 25.7208 40.9398 25.5108C40.7198 25.3808 40.2698 26.7108 40.7498 28.1308C40.7998 28.0908 40.8498 28.0508 40.8998 28.0108H40.9098H40.9198Z" fill="#E7AA11"/>
<path d="M36.3901 13.8804C36.3901 13.8804 48.4701 9.79039 82.3101 9.65039C82.3101 9.65039 88.4401 18.6004 87.6701 26.9904C87.6701 26.9904 62.5701 33.8304 43.9601 33.6204C43.9601 33.6204 47.4801 28.9304 43.6801 21.6404C39.9201 14.4304 36.3901 13.8804 36.3901 13.8804Z" fill="#FCDD5E"/>
<g style="mix-blend-mode:multiply" opacity="0.75">
<path d="M81.7098 11.04C81.9998 13.37 79.2098 19.5 77.1498 21.25C73.3698 24.47 68.2598 25.86 63.3598 25.76C57.7698 25.65 53.4498 24.56 49.0798 20.96C46.4898 18.83 43.3498 14.9 39.8098 14.64C39.4598 14.61 39.1198 14.57 38.7798 14.5C38.6498 14.54 38.5698 14.56 38.5698 14.56C38.5698 14.56 41.8598 15.06 45.3798 21.66C48.9398 28.33 45.6398 32.62 45.6398 32.62C63.0298 32.81 86.4798 26.56 86.4798 26.56C87.1198 19.81 82.7598 12.66 81.6998 11.04H81.7098Z" fill="#EDBF3B"/>
</g>
<g style="mix-blend-mode:multiply" opacity="0.35">
<path d="M64.9997 66.7705C55.5497 67.5405 42.9597 56.6705 40.6997 51.2305C40.6997 54.3705 40.6297 57.3505 40.4197 59.9305C39.2597 74.7805 38.7397 87.2305 38.7397 87.2305C38.7397 87.2305 56.2997 89.8805 65.4597 88.4605C74.6297 87.0405 89.9897 82.3905 89.9897 82.3905C89.9897 82.3905 89.4997 71.5505 87.5397 58.2405C83.4397 61.5205 74.8897 65.9505 64.9897 66.7705H64.9997Z" fill="#E59500"/>
</g>
<path opacity="0.35" d="M75.6499 91.6002C82.7499 89.9302 90.1399 87.6802 90.1399 87.6802C90.1399 87.6802 89.6399 76.5602 87.5599 63.5902C87.3899 63.5902 87.2199 63.5202 87.0699 63.4002C85.4699 62.1202 85.4699 60.5702 84.9899 58.6802C84.3199 56.0102 83.5999 53.3102 82.7799 50.6902C82.2999 49.1502 81.0899 47.3102 81.4699 45.6402C81.6399 44.9002 82.4499 44.4802 83.2099 44.1902C82.9899 43.4902 82.7699 42.8002 82.5399 42.1202C84.9299 41.5502 86.3799 41.1502 86.3799 41.1502C86.5399 39.3902 86.3299 37.6102 85.9199 35.9202C84.8799 35.7802 83.8999 35.4102 82.8099 35.2402C82.9199 36.0702 83.1399 36.9502 82.7699 37.6702C82.0599 39.0702 80.8999 40.1302 80.1799 41.5202C79.5999 42.6302 79.0599 43.4902 78.8599 44.3902C78.5199 44.5102 78.2499 44.7502 77.8999 45.0902C77.4299 45.5502 77.2599 46.1302 76.7599 46.5702C76.2999 46.9702 75.7099 47.0202 75.2899 47.3402C75.8599 48.3902 79.2099 49.4902 80.2599 48.4402C80.7599 49.2602 81.2199 50.1102 81.5699 51.0202C82.8899 54.4702 83.2599 58.2102 84.0799 61.8002C84.4899 63.6302 83.1599 64.4202 81.6299 65.0002C79.6599 65.7502 77.5799 66.3802 75.5199 66.8602C74.3899 67.1302 73.1099 67.1302 72.0399 67.5902C70.9399 68.0602 72.2799 70.2102 72.4899 70.9502C72.6699 71.5802 72.5499 72.5302 72.9599 73.0702C73.6899 74.0102 73.8199 73.7002 74.3699 74.2302C76.2199 76.0002 75.8199 80.0002 75.8099 82.2902C75.7999 85.3902 75.6999 88.4902 75.6599 91.6002H75.6499Z" fill="#916620"/>
<path d="M83.8896 66.5203L89.4596 95.5804L105.58 98.1504L111.84 95.1604L121.21 64.6104L111.84 68.5104L83.8896 66.5203Z" fill="#CC7E48"/>
<g style="mix-blend-mode:multiply" opacity="0.55">
<path d="M110.01 86.1411C109.71 86.1411 109.41 86.1411 109.11 86.1111L106.68 96.3311L111.39 94.0811L114.31 84.5811C112.97 85.3611 111.6 86.1111 110.01 86.1411Z" fill="#C6ADA7"/>
</g>
<g style="mix-blend-mode:multiply" opacity="0.55">
<path d="M119.63 69.7703L121.21 64.6104L111.84 68.5104L109.38 68.3304L110.98 72.5804C112.71 72.2004 117.77 70.6004 119.63 69.7604V69.7703Z" fill="#B27A6D"/>
</g>
<path d="M83.8896 66.5205L89.4596 95.5805L105.58 98.1505L111.84 68.5105L83.8896 66.5205Z" fill="#AD5934"/>
<path d="M100.74 87.2207C96.9398 87.4907 93.2398 86.7107 89.9398 84.7707C89.4598 84.4907 88.9898 84.2107 88.5098 83.9307L90.5298 94.4607L104.56 96.7007L106.92 85.5407C105.03 86.4807 102.94 87.0607 100.74 87.2207Z" fill="#A54B28"/>
<g style="mix-blend-mode:multiply" opacity="0.55">
<path d="M110.9 72.9805L111.84 68.5105L83.8896 66.5205L84.7496 71.0005C88.8396 71.1205 106 73.4605 110.89 72.9805H110.9Z" fill="#B27A6D"/>
</g>
<path d="M80.5298 63.6107L99.4198 58.7607L124.2 61.5807L122.89 65.3807L99.7898 62.2007L84.6098 66.5707L80.5298 63.6107Z" fill="#B75630"/>
<path d="M80.5298 63.6107L99.4198 58.7607L99.7898 62.2007L84.6098 66.5707L80.5298 63.6107Z" fill="#6D3922"/>
<path d="M87.4897 65.6309C87.5597 64.8309 88.3897 63.9609 88.9597 63.4609C89.8497 62.6709 90.9098 62.1509 92.1198 62.1509C92.8098 62.1509 93.4697 62.3109 94.1397 62.4009C94.7897 62.4809 95.4397 62.2909 96.0297 62.0209C96.8197 61.6509 97.5197 61.0709 98.3497 60.8009C99.2497 60.5109 100.19 60.3109 101.14 60.3409C101.84 60.3709 102.7 60.5209 103.29 60.9209C103.83 61.2909 104.21 61.8709 104.84 62.1309C105.65 62.4609 106.56 62.0909 107.4 61.8309C109.16 61.3009 111.08 61.3209 112.84 61.8609C114.58 62.3909 117.76 63.4709 118.95 64.8509C118.31 64.9109 117.46 66.3209 116.86 66.5709C115.9 66.9809 114.48 68.2509 113.49 68.5509C112.7 68.7909 111.25 67.2009 110.54 67.6009C109.94 67.9409 109.5 67.8409 108.81 67.7409C103.27 66.9709 97.6997 67.0009 92.1697 66.1009C91.2297 65.9509 90.3098 65.8509 89.3698 65.7409C88.8298 65.6809 87.9197 65.9309 87.4997 65.6209H87.4897V65.6309Z" fill="#6E4931"/>
<path d="M114.2 66.5703L111.97 66.3703C111.81 67.7403 111.57 69.1003 111.34 70.4503L112.87 70.5903L122.75 66.0103L124.2 61.5703L114.2 66.5603V66.5703Z" fill="#DD6D22"/>
<path d="M112.87 70.2405L111.39 70.1105C111.37 70.2305 111.35 70.3405 111.33 70.4605L112.86 70.6005L122.74 66.0205L122.89 65.5605L112.86 70.2405H112.87Z" fill="#EA875E"/>
<path opacity="0.5" d="M117.24 65.0505C116.24 66.5305 115.48 68.2505 114.58 69.8005L118.48 67.9905C118.91 66.9805 119.36 65.9705 119.79 64.9505C119.99 64.4705 120.19 63.9705 120.39 63.4805L117.24 65.0505Z" fill="#D86142"/>
<path d="M80.5298 63.6104L82.2298 67.8503L112.87 70.6003L114.2 66.5704L80.5298 63.6104Z" fill="#964224"/>
<path d="M82.0898 67.4912L82.2299 67.8512L112.87 70.6012L112.99 70.2312L82.0898 67.4912Z" fill="#EA875E"/>
<path d="M115.7 32.4302C110.9 32.8502 105.87 35.3002 103.42 39.5802C102.39 41.3802 101.77 43.5102 101.75 45.5902C101.71 48.4602 103.69 50.9802 106.76 50.3302C108.76 49.9102 110.44 48.3102 111.57 46.6902C112.43 45.4602 113.11 44.1102 113.67 42.7202C114.22 41.3402 114.66 39.9102 115.08 38.4802C115.29 37.7702 115.49 37.0602 115.71 36.3502C115.88 35.8002 116.1 35.2702 116.38 34.7702C116.88 33.8802 117.58 33.1302 118.45 32.5902C118.58 32.5102 118.7 32.4402 118.84 32.3702C117.8 32.3002 116.74 32.3502 115.71 32.4302H115.7Z" fill="#67AD14"/>
<path d="M117.01 33.4798C116.6 33.9398 116.24 34.4398 115.91 34.9598C115.61 35.4298 115.35 35.9198 115.11 36.4198C114.86 36.9298 114.64 37.4498 114.43 37.9698C114.19 38.5498 113.95 39.1298 113.69 39.6998C113.43 40.2898 113.15 40.8698 112.84 41.4398C112.54 41.9898 112.21 42.5298 111.82 43.0298C111.45 43.5098 111.04 43.9598 110.57 44.3398C110.11 44.7098 109.58 45.0298 109.02 45.2298C108.52 45.4098 107.93 45.4598 107.51 45.0998C107.31 44.9298 107.18 44.6998 107.08 44.4598C106.95 44.1198 106.89 43.7498 106.89 43.3898C106.89 42.5998 107.18 41.8298 107.54 41.1398C107.72 40.7898 107.93 40.4498 108.14 40.1098C108.34 39.7898 108.55 39.4698 108.77 39.1698C109.2 38.5698 109.67 38.0098 110.17 37.4698C110.66 36.9398 111.19 36.4398 111.75 35.9798C112.3 35.5198 112.87 35.0898 113.46 34.6998C114.06 34.2998 114.68 33.9298 115.31 33.5898C115.95 33.2498 116.6 32.9298 117.27 32.6398C117.51 32.5298 117.75 32.4298 118 32.3398H117.63C116.47 32.6798 115.36 33.1298 114.28 33.6598C113.23 34.1798 112.22 34.7898 111.28 35.4898C110.26 36.2598 109.32 37.1298 108.46 38.0698C107.6 39.0098 106.83 40.0198 106.14 41.0798C105.77 41.6398 105.43 42.1998 105.12 42.7998C104.81 43.4098 104.54 44.0298 104.29 44.6598C104.05 45.2598 103.83 45.8598 103.63 46.4698C103.56 46.6798 103.49 46.8998 103.38 47.0898C103.3 47.2198 103.18 47.3398 103.02 47.3298C102.8 47.3298 102.61 47.0998 102.48 46.9398C102.34 46.7698 102.24 46.5798 102.17 46.3698C102 45.8898 101.97 45.3798 101.98 44.8798C101.98 44.3798 102.04 43.8898 102.11 43.3998C102.17 42.9398 102.25 42.4798 102.36 42.0298C101.99 43.1898 101.78 44.3998 101.76 45.5998C101.72 48.4698 103.7 50.9898 106.77 50.3398C108.77 49.9198 110.45 48.3298 111.58 46.6998C112.44 45.4698 113.12 44.1198 113.68 42.7298C114.23 41.3498 114.67 39.9198 115.09 38.4898C115.3 37.7798 115.5 37.0698 115.72 36.3598C115.89 35.8098 116.11 35.2798 116.39 34.7798C116.89 33.8898 117.59 33.1398 118.46 32.5998C118.59 32.5198 118.71 32.4498 118.85 32.3798C118.68 32.3798 118.5 32.3598 118.32 32.3498C117.84 32.6598 117.41 33.0598 117.02 33.4898L117.01 33.4798Z" fill="#409100"/>
<path d="M97.8801 45.4899C97.4601 44.8299 96.9801 44.2199 96.4501 43.6499C95.9401 43.1799 95.4001 42.7499 94.8301 42.3599C93.7401 41.7399 92.5801 41.2199 91.3601 40.8899C90.7101 40.7199 90.0601 40.6199 89.4001 40.5399C88.7401 40.4699 88.0801 40.4199 87.4101 40.4199C86.0901 40.4199 84.7601 40.5399 83.4801 40.8599C82.6801 41.0599 81.8901 41.3399 81.1401 41.6899C82.1201 41.6699 82.9801 42.2899 83.6501 42.9499C84.4601 43.7599 85.1101 44.7199 85.8101 45.6299C86.5701 46.6099 87.3701 47.5799 88.2801 48.4299C89.1901 49.2899 90.2101 50.0499 91.3401 50.5899C92.2201 51.0099 93.1601 51.3099 94.1201 51.4699C95.1001 51.6399 96.1601 51.6699 97.1101 51.3199C97.5601 51.1599 97.9801 50.8999 98.3201 50.5599C98.7501 50.1299 99.0101 49.5599 99.0601 48.9499C99.1701 47.7099 98.5301 46.4999 97.8801 45.4799V45.4899Z" fill="#67AD14"/>
<path d="M97.88 45.4899C97.46 44.8299 96.98 44.2199 96.45 43.6499C95.94 43.1799 95.4 42.7499 94.83 42.3599C93.74 41.7399 92.58 41.2199 91.36 40.8899C90.71 40.7199 90.06 40.6199 89.4 40.5399C88.74 40.4699 88.08 40.4199 87.41 40.4199H87.4C87.84 40.4799 88.28 40.5499 88.72 40.6699C89.52 40.8699 90.28 41.1799 91 41.5799C91.68 41.9599 92.33 42.3899 92.95 42.8499C93.46 43.2199 94.06 43.6099 94.28 44.2399C94.28 44.2599 94.27 44.2799 94.25 44.2799C93.98 44.2599 93.72 44.1299 93.48 43.9999C93.23 43.8599 92.98 43.6999 92.72 43.5799C92.11 43.2999 91.49 43.0399 90.84 42.8399C90.29 42.6599 89.74 42.5299 89.18 42.3899C88.62 42.2499 88.06 42.1199 87.48 42.0399C86.99 41.9699 86.49 41.9299 86 41.9999C86.23 42.0599 86.46 42.1099 86.69 42.1499C87.28 42.2599 87.88 42.3499 88.45 42.5499C89 42.7499 89.54 42.9899 90.06 43.2699C90.86 43.6999 91.63 44.1999 92.34 44.7699C92.92 45.2399 93.47 45.7599 93.92 46.3499C94.31 46.8599 94.71 47.5199 94.63 48.1999C94.59 48.5199 94.45 48.8099 94.22 49.0399C93.93 49.3499 93.55 49.5099 93.14 49.5599C92.67 49.6199 92.2 49.5399 91.75 49.4099C91.31 49.2899 90.89 49.1199 90.48 48.9199C89.5 48.4399 88.62 47.7899 87.83 47.0399C87.42 46.6499 87.03 46.2399 86.66 45.8099C86.31 45.4199 85.99 44.9999 85.66 44.5899C85.01 43.7799 84.32 42.9699 83.4 42.4499C83.11 42.2899 82.81 42.1499 82.5 42.0499C82.92 42.2899 83.31 42.5999 83.64 42.9399C84.45 43.7499 85.1 44.7099 85.8 45.6199C86.56 46.5999 87.36 47.5699 88.27 48.4199C89.18 49.2799 90.2 50.0399 91.33 50.5799C92.21 50.9999 93.15 51.2999 94.11 51.4599C95.09 51.6299 96.15 51.6599 97.1 51.3099C97.55 51.1499 97.97 50.8899 98.31 50.5499C98.74 50.1199 99 49.5499 99.05 48.9399C99.16 47.6999 98.52 46.4999 97.87 45.4799H97.88V45.4899Z" fill="#409100"/>
<path d="M107.79 39.0806C107.08 39.9506 106.47 40.9006 105.94 41.8906C105.37 42.9506 104.88 44.0606 104.42 45.1806C103.73 46.8506 103.09 48.6106 102.83 50.4206C102.55 52.3706 102.39 54.3506 102.32 56.3206C102.15 55.7106 101.94 55.1206 101.72 54.5406C101.6 54.2306 101.47 53.9206 101.35 53.6106C100.91 52.4106 100.38 51.2606 99.7099 50.1706C99.3399 49.5606 98.9299 48.9806 98.4799 48.4306C98.3499 48.2406 98.2099 48.0606 98.0699 47.8706C97.6399 47.3006 97.1399 46.7706 96.5899 46.2606C96.0699 45.8606 95.5299 45.4706 94.9799 45.1106C94.4099 44.7406 93.8399 44.3606 93.2399 44.0306C92.6099 43.6906 91.9499 43.3806 91.2499 43.2106C90.8899 43.1206 90.5199 43.0606 90.1499 43.0706C90.4799 43.1306 90.7899 43.3306 91.0799 43.4806C91.4999 43.6806 91.8899 43.9106 92.2999 44.1306C93.0899 44.5506 93.8099 45.0106 94.4899 45.6006C95.7999 46.7406 96.9999 47.9906 97.9899 49.4306C98.9999 50.9006 99.7499 52.5106 100.46 54.1406C100.83 54.9906 101.17 55.8606 101.42 56.7506C101.68 57.6706 101.83 58.6206 101.95 59.5706C102.09 60.6706 102.19 61.7806 102.24 62.8806C102.26 63.2406 102.27 63.6106 102.28 63.9706C102.56 63.8406 102.88 63.7906 103.17 63.8206V63.7806C103.19 62.9306 103.15 62.0806 103.07 61.2306C103.07 61.1606 103.06 61.0906 103.05 61.0106V60.4906C103.05 60.0706 103.04 59.6406 103.03 59.2206V59.2006C103.1 58.3706 103.06 57.5406 103.07 56.7006C103.07 55.8706 103.14 55.0306 103.21 54.2006C103.34 52.6006 103.55 51.0006 103.88 49.4306C104.2 47.8606 104.62 46.3006 105.19 44.8006C105.74 43.3306 106.45 41.9206 107.22 40.5606C107.64 39.8206 108.13 39.1106 108.68 38.4506C108.93 38.1406 109.22 37.8506 109.5 37.5706C109.72 37.3506 109.89 37.1006 110.07 36.8506C109.24 37.5006 108.48 38.2506 107.81 39.0706H107.79V39.0806Z" fill="#405621"/>
<path d="M110.42 34.64C110.28 34.42 109.98 34.41 109.75 34.45C109.05 34.55 108.38 34.98 107.84 35.4C107.62 35.58 106.9 36.07 106.94 36.47C106.92 36.56 106.92 36.64 106.94 36.73C107.03 37.17 107.55 37.15 107.88 37.05C108.4 36.9 108.88 36.61 109.31 36.31C109.69 36.04 110.12 35.72 110.36 35.31C110.47 35.12 110.54 34.85 110.41 34.65L110.42 34.64Z" fill="#92C10B"/>
<path d="M105.81 38.18C105.81 38.18 105.81 38.16 105.79 38.15C105.75 38.11 105.68 38.13 105.64 38.15C105.46 38.17 105.33 38.31 105.27 38.47C105.27 38.5 105.26 38.53 105.26 38.56C105.22 38.66 105.28 38.76 105.39 38.77C105.48 38.77 105.6 38.72 105.67 38.67C105.75 38.61 105.8 38.54 105.85 38.46C105.92 38.35 105.9 38.23 105.81 38.17V38.18Z" fill="#92C10B"/>
<path d="M88.1502 44.3902C87.9702 44.1102 87.7402 43.8702 87.5002 43.6402C87.2302 43.3802 86.9202 43.1102 86.5702 42.9702C86.2002 42.8202 85.7802 42.9402 85.5902 43.3102C85.4202 43.6402 85.5502 43.9602 85.7402 44.2402C86.0702 44.7302 86.7702 45.4502 87.4502 45.5002C87.5802 45.5402 87.7202 45.5502 87.8502 45.5202C88.0802 45.4702 88.2702 45.2802 88.3302 45.0602C88.3902 44.8202 88.2802 44.5902 88.1502 44.3902Z" fill="#92C10B"/>
<path d="M89.3301 46.3207C89.3301 46.3207 89.2901 46.2407 89.2601 46.2107C89.2401 46.1907 89.2101 46.1907 89.1901 46.1807H89.0401C88.9801 46.1807 88.9101 46.1807 88.8601 46.2207C88.8301 46.2407 88.8001 46.2707 88.7901 46.3007C88.7701 46.3307 88.7501 46.3807 88.7601 46.4207C88.7501 46.4607 88.7401 46.5007 88.7601 46.5407C88.7701 46.5807 88.7901 46.6107 88.8201 46.6407C88.8201 46.6407 88.8301 46.6607 88.8501 46.6607C88.8801 46.6807 88.9101 46.6907 88.9401 46.6907H89.0701C89.1201 46.6907 89.1601 46.6607 89.2001 46.6307C89.2601 46.5907 89.3001 46.5307 89.3301 46.4707C89.3501 46.4207 89.3501 46.3607 89.3301 46.3107V46.3207Z" fill="#92C10B"/>
<path d="M12.8999 35.8506C12.8999 35.8506 10.9099 30.2806 7.0499 32.2606C3.5099 34.0706 6.6499 39.0706 6.6499 39.0706L12.8999 35.8506Z" fill="#9D9D9D"/>
<path d="M6.71994 32.4404C3.70994 34.3904 6.64994 39.0604 6.64994 39.0604L10.3199 37.1704C8.57994 36.4804 6.70994 34.5304 6.71994 32.4404Z" fill="#6E6E6E"/>
<path d="M8.41984 34.9003C7.11984 35.4403 6.46984 36.3603 5.83984 37.4403C6.17984 38.3803 6.64984 39.0703 6.64984 39.0703L12.8998 35.8503C12.8998 35.8503 12.6698 35.2103 12.1798 34.5003C10.9298 34.3103 9.54984 34.4303 8.41984 34.9003Z" fill="#404140"/>
<path d="M22.7599 59.2707L12.8999 35.8507C12.8999 35.8507 7.6699 35.3407 6.6499 39.0707L18.2499 61.1207L22.7499 59.2707H22.7599Z" fill="#63F23B"/>
<g style="mix-blend-mode:multiply" opacity="0.55">
<path d="M7.6099 37.3809C7.1799 37.8109 6.8399 38.3709 6.6499 39.0709L18.2499 61.1209L19.9599 60.7309L7.6099 37.3809Z" fill="#CE924F"/>
</g>
<g style="mix-blend-mode:multiply" opacity="0.55">
<path d="M21.0801 60.7007L22.1401 60.6707L10.6101 35.9707C9.96012 36.0807 9.26012 36.2907 8.62012 36.6407C9.67012 38.6407 20.6301 59.4107 21.0801 60.7007Z" fill="#E69A4F"/>
</g>
<path d="M18.2498 61.1106C18.2498 61.1106 19.0298 58.5806 22.7498 59.2606C22.7498 59.2606 23.6198 63.3906 24.6298 64.9106C25.6398 66.4206 27.6598 67.7306 30.1198 67.5706C32.5798 67.4106 32.9398 66.7606 33.6098 68.3906C34.2798 70.0206 38.0298 83.8006 45.5898 91.5006C45.5898 91.5006 46.3398 92.4706 44.9898 92.3806C43.6298 92.2906 41.3398 90.6006 39.2298 87.3606C37.1198 84.1206 31.8698 74.2106 31.3598 73.8706C30.8498 73.5206 29.9398 73.9406 30.2798 75.3906C30.6198 76.8306 32.4298 81.3006 35.1398 85.9806C37.8498 90.6606 41.6498 93.8806 41.8298 94.6306C42.1198 95.8306 38.7198 95.5806 34.7798 90.5806C31.1598 85.9906 26.5998 78.3106 25.0098 77.0306C23.4198 75.7606 22.2798 77.3106 23.4498 80.0806C24.5698 82.7306 31.9098 92.4906 36.1998 96.3906C36.7798 96.9206 36.4398 97.3306 36.0998 97.3706C35.0598 97.5106 33.1098 96.6106 30.6698 94.1806C27.0298 90.5606 22.8598 85.9206 20.0298 81.6306C17.8398 78.3206 15.6098 74.3506 17.9098 73.0506C20.2098 71.7506 22.6598 68.9106 21.3598 66.0106C20.0498 63.1106 18.2498 61.1206 18.2498 61.1206V61.1106Z" fill="#343533"/>
<path d="M22.61 64.7702C22.61 64.7702 19.44 60.1702 20.49 59.8602C21.06 59.6902 22.43 64.1802 22.61 64.7702Z" fill="#717270"/>
<path d="M21.7699 60.2908C21.7699 60.2908 21.5199 59.5708 21.8499 59.4908C22.1799 59.4208 22.5199 60.8208 23.1199 62.5608C23.7199 64.3008 24.0899 65.1708 24.4899 65.7508C24.8899 66.3308 27.2299 67.5708 28.3199 68.3108C29.4099 69.0508 28.0199 69.2608 27.5299 68.8608C27.2699 68.6508 23.9099 66.1808 23.8499 65.9608C23.7899 65.7408 21.7699 60.2808 21.7699 60.2808V60.2908Z" fill="#717270"/>
<path opacity="0.75" d="M27.9099 70.7203C27.5499 70.9603 27.1699 71.1803 26.7799 71.3703C26.2499 71.6403 25.6799 71.7703 25.1199 71.9403C24.6599 72.0803 24.0799 72.0303 23.7299 72.4003C23.4099 72.7303 23.1699 73.2603 23.5699 73.6403C24.5099 74.5603 25.8399 73.1503 26.5799 72.6503C27.1599 72.2503 27.7799 72.0803 28.4399 71.8403C29.0199 71.6303 29.8299 71.3103 30.2899 70.8903C30.9799 70.2603 30.4099 69.2903 29.5299 69.4403C28.8799 69.5603 28.3799 70.3903 27.8999 70.7203H27.9099Z" fill="#717270"/>
<path opacity="0.75" d="M44.1 90.4607C44.1 90.4607 39.19 86.2307 35.26 77.1607C35.07 76.7307 34.87 76.3007 34.67 75.8707C34.16 74.8007 33.69 73.7007 33.39 72.5607C33.31 72.2707 32.94 70.4207 33.86 70.9707C34.08 71.1007 35.15 74.3107 35.45 75.1907C36.8 79.1307 39.85 84.9007 44.1 90.4507V90.4607Z" fill="#717270"/>
<path opacity="0.75" d="M39.96 93.3809C39.96 93.3809 34.77 89.3509 30.02 80.3809C29.8 79.9609 27.49 76.3109 27.27 75.1609C27.05 74.0209 27.87 73.4209 28.78 73.9909C29.41 74.3909 30.35 77.2509 30.65 78.1409C32 82.0809 34.83 87.2809 39.96 93.3909V93.3809Z" fill="#717270"/>
<path opacity="0.75" d="M22.9999 81.2102C22.5999 80.3702 20.3099 76.1002 21.7199 74.7402C22.3599 74.1302 21.1599 73.7002 21.1599 73.7002C18.9699 73.7402 19.3599 76.0402 20.1899 77.8902C20.5499 78.7402 22.7899 82.7802 23.0199 83.1802C27.9399 91.7602 34.0299 95.5902 34.0299 95.5902C29.1799 90.5402 24.7699 84.9702 22.9899 81.2002H22.9999V81.2102Z" fill="#717270"/>
<path d="M52.3498 94.6403C50.4998 93.3603 49.6598 91.1502 47.2798 90.7702C45.1098 90.4202 44.3198 90.8003 42.5098 91.8503C39.6698 93.5003 37.0398 89.7303 33.9998 90.9003C32.5998 91.4403 31.5298 93.0602 30.0698 93.4502C28.2098 93.9502 27.4198 92.0003 25.9698 91.4103C24.8098 90.9403 22.9398 90.6603 21.9798 91.4403C20.9898 92.2403 20.0698 93.3703 19.8198 94.6103C20.9298 94.5203 23.2698 94.7903 24.1098 95.5103C24.5898 95.9203 24.5098 96.3903 24.9598 96.7203C25.6798 97.2303 27.4398 97.1703 28.3098 97.3103C31.8898 97.8503 34.6198 101.2 38.4498 99.5403C39.8398 98.9403 40.4898 98.3403 41.9898 98.3103C43.4298 98.2803 45.5698 98.3103 46.7898 97.5403C47.2498 97.2503 47.3498 96.8102 47.8598 96.5202C48.4198 96.2102 49.5198 96.1402 50.1298 96.0902C51.0498 96.0002 52.6098 96.1403 52.6298 94.8103C52.4798 94.8103 52.4298 94.6903 52.3498 94.6403Z" fill="#6E4931"/>
<defs>
<linearGradient id="paint0_linear_341_14699" x1="91.0201" y1="1.60035" x2="53.2301" y2="88.0604" gradientUnits="userSpaceOnUse">
<stop offset="0.36" stop-color="white"/>
<stop offset="0.81" stop-color="#CAF5FF"/>
</linearGradient>
</defs>
</svg>
