<svg width="19" height="19" viewBox="0 0 19 19" fill="none" xmlns="http://www.w3.org/2000/svg">
<path d="M12.2926 6.4922L9.45001 0.148534C9.36479 -0.0462561 9.10305 -0.0462561 9.01175 0.148534L6.16917 6.4922C6.09004 6.66102 6.21178 6.86231 6.3883 6.86231H7.58133C7.71524 6.86231 7.8248 6.9792 7.8248 7.12205V13.8877C7.8248 14.0306 7.93436 14.1474 8.06827 14.1474H10.3996C10.5335 14.1474 10.643 14.0306 10.643 13.8877V7.12205C10.643 6.9792 10.7526 6.86231 10.8865 6.86231H12.0795C12.25 6.86231 12.3656 6.66752 12.2926 6.4922Z" fill="#63F23B"/>
<path d="M18.4244 10.8052L15.5818 4.46152C15.4966 4.26673 15.2349 4.26673 15.1436 4.46152L12.301 10.8052C12.2219 10.974 12.3436 11.1753 12.5201 11.1753H13.7132C13.8471 11.1753 13.9566 11.2921 13.9566 11.435V18.2007C13.9566 18.3435 14.0662 18.4604 14.2001 18.4604H16.5314C16.6653 18.4604 16.7749 18.3435 16.7749 18.2007V11.435C16.7749 11.2921 16.8844 11.1753 17.0183 11.1753H18.2114C18.3879 11.1753 18.5035 10.9805 18.4244 10.8052Z" fill="#63F23B"/>
<path d="M2.86673 4.46152L0.0241468 10.8052C-0.0549828 10.974 0.0667647 11.1753 0.243285 11.1753H1.43631C1.57022 11.1753 1.67978 11.2921 1.67978 11.435V18.2007C1.67978 18.3435 1.78936 18.4604 1.92327 18.4604H4.25454C4.38845 18.4604 4.49801 18.3435 4.49801 18.2007V11.435C4.49801 11.2921 4.60757 11.1753 4.74149 11.1753H5.93453C6.11105 11.1753 6.22669 10.9805 6.15365 10.8052L3.31108 4.46152C3.21369 4.26673 2.95195 4.26673 2.86673 4.46152Z" fill="#63F23B"/>
</svg>
