<?xml version="1.0" standalone="no"?>
  <!DOCTYPE svg PUBLIC "-//W3C//DTD SVG 1.1//EN" "http://www.w3.org/Graphics/SVG/1.1/DTD/svg11.dtd" >
  <svg>
  <metadata>
  Created by font-carrier
  </metadata>
  <defs>
  <font id="NoirPro-Regular" horiz-adv-x="1152" vert-adv-y="1152" >
    <font-face
      
      font-family="NoirPro-Regular"
      
      font-weight="400"
      
      font-stretch="normal"
      
      units-per-em="1000"
      
      ascent="730"
      
      descent="-270"
      
    />
      <missing-glyph />

      

      
      <glyph glyph-name="uni21" unicode="&#x21;" d="M112 192L80 672L208 672L176 192L112 192M144-8Q114-8 93 13Q72 34 72 64Q72 94 93 115Q114 136 144 136Q175 136 195.50 115Q216 94 216 64Q216 34 195.50 13Q175-8 144-8Z"  horiz-adv-x="288" vert-adv-y="1000"  />

      
      <glyph glyph-name="uni22" unicode="&#x22;" d="M144 464L72 464L56 672L160 672L144 464M344 464L272 464L256 672L360 672L344 464Z"  horiz-adv-x="416" vert-adv-y="1000"  />

      
      <glyph glyph-name="uni23" unicode="&#x23;" d="M632 416L509 416L480 240L592 240L592 176L469 176L440 0L368 0L398 176L241 176L212 0L137 0L168 176L56 176L56 240L179 240L208 416L96 416L96 480L219 480L251 672L323 672L291 480L448 480L480 672L552 672L520 480L632 480L632 416M408 240L437 416L280 416L251 240L408 240Z"  horiz-adv-x="688" vert-adv-y="1000"  />

      
      <glyph glyph-name="uni24" unicode="&#x24;" d="M552 197Q552 114 491.50 57.50Q431 1 328-7L328-80L280-80L280-8Q228-6 182 9Q136 24 106 45.50Q76 67 62 79Q48 91 40 101L88 187Q177 88 300 88Q375 88 415.50 116Q456 144 456 193Q456 269 303 296Q170 319 116.50 365.50Q63 412 63 485Q63 565 120 619Q177 673 280 679L280 752L328 752L328 679Q445 671 522 600L476 513Q403 584 303 584Q234 584 196.50 559Q159 534 159 489Q159 451 194 429.50Q229 408 311 392Q436 368 494 323.50Q552 279 552 197Z"  horiz-adv-x="592" vert-adv-y="1000"  />

      
      <glyph glyph-name="uni25" unicode="&#x25;" d="M201 392Q140 392 98 433.50Q56 475 56 536Q56 596 98 638Q140 680 201 680Q261 680 302.50 638Q344 596 344 536Q344 475 302.50 433.50Q261 392 201 392M190 0L126 0L594 672L658 672L190 0M144 480Q144 480 156 468Q168 456 200 456Q232 456 256 480Q280 504 280 536Q280 568 256 592Q232 616 200 616Q168 616 144 592Q120 568 120 536Q120 504 144 480M585-8Q524-8 482 33.50Q440 75 440 136Q440 196 482 238Q524 280 585 280Q645 280 686.50 238Q728 196 728 136Q728 75 686.50 33.50Q645-8 585-8M528 80Q528 80 540 68Q552 56 584 56Q616 56 640 80Q664 104 664 136Q664 168 640 192Q616 216 584 216Q552 216 528 192Q504 168 504 136Q504 104 528 80Z"  horiz-adv-x="784" vert-adv-y="1000"  />

      
      <glyph glyph-name="uni26" unicode="&#x26;" d="M680 320L528 152L681 0L546 0L465 83Q376-8 266-8Q170-8 113 45.50Q56 99 56 187Q56 250 92.50 296Q129 342 182 365Q98 445 98 512Q98 580 152 630Q206 680 306 680Q397 680 450.50 629Q504 578 504 506Q504 468 487.50 436.50Q471 405 444.50 384.50Q418 364 394 351.50Q370 339 345 331L461 218L555 320L680 320M278 397Q343 420 375.50 446Q408 472 408 507Q408 540 378.50 562Q349 584 301 584Q248 584 221 562Q194 540 194 512Q194 495 204.50 476Q215 457 226 446Q237 435 256 417.50Q275 400 278 397M268 88Q336 88 397 151L251 298Q152 258 152 184Q152 140 183 114Q214 88 268 88Z"  horiz-adv-x="737" vert-adv-y="1000"  />

      
      <glyph glyph-name="uni27" unicode="&#x27;" d="M144 464L72 464L56 672L160 672L144 464Z"  horiz-adv-x="216" vert-adv-y="1000"  />

      
      <glyph glyph-name="uni28" unicode="&#x28;" d="M264 724Q152 545 152 304Q152 63 264-116L184-160Q126-70 91 52Q56 174 56 304Q56 434 91 556Q126 678 184 768L264 724Z"  horiz-adv-x="304" vert-adv-y="1000"  />

      
      <glyph glyph-name="uni29" unicode="&#x29;" d="M40 724L120 768Q178 678 213 556Q248 434 248 304Q248 174 213 52Q178-70 120-160L40-116Q152 63 152 304Q152 545 40 724Z"  horiz-adv-x="304" vert-adv-y="1000"  />

      
      <glyph glyph-name="uni2a" unicode="&#x2a;" d="M253 584L360 632L388 563L274 525L351 429L293 387L222 487L154 387L94 429L170 525L56 563L84 632L191 584L186 704L258 704L253 584Z"  horiz-adv-x="444" vert-adv-y="1000"  />

      
      <glyph glyph-name="uni2b" unicode="&#x2b;" d="M424 336L424 272L272 272L272 120L208 120L208 272L56 272L56 336L208 336L208 488L272 488L272 336L424 336Z"  horiz-adv-x="480" vert-adv-y="1000"  />

      
      <glyph glyph-name="uni2c" unicode="&#x2c;" d="M40-112L88 112L208 112L104-112L40-112Z"  horiz-adv-x="264" vert-adv-y="1000"  />

      
      <glyph glyph-name="uni2d" unicode="&#x2d;" d="M328 224L56 224L56 304L328 304L328 224Z"  horiz-adv-x="384" vert-adv-y="1000"  />

      
      <glyph glyph-name="uni2e" unicode="&#x2e;" d="M128-8Q98-8 77 13Q56 34 56 64Q56 95 77 115.50Q98 136 128 136Q159 136 179.50 115.50Q200 95 200 64Q200 34 179.50 13Q159-8 128-8Z"  horiz-adv-x="256" vert-adv-y="1000"  />

      
      <glyph glyph-name="uni2f" unicode="&#x2f;" d="M136-80L56-80L376 752L456 752L136-80Z"  horiz-adv-x="512" vert-adv-y="1000"  />

      
      <glyph glyph-name="uni30" unicode="&#x30;" d="M125.50 580.50Q125.50 580.50 160.25 630.25Q195 680 304 680Q413 680 482.50 580.50Q552 481 552 336Q552 191 482.50 91.50Q413-8 304-8Q194-8 125 91.50Q56 191 56 336Q56 481 125.50 580.50M196.50 160.50Q196.50 160.50 218.75 124.25Q241 88 304 88Q367 88 411.50 160.50Q456 233 456 336Q456 439 411.50 511.50Q367 584 304 584Q241 584 196.50 511.50Q152 439 152 336Q152 233 196.50 160.50Z"  horiz-adv-x="608" vert-adv-y="1000"  />

      
      <glyph glyph-name="uni31" unicode="&#x31;" d="M72 616L280 688L280 0L184 0L184 564L72 528L72 616Z"  horiz-adv-x="368" vert-adv-y="1000"  />

      
      <glyph glyph-name="uni32" unicode="&#x32;" d="M71 472Q77 558 137.50 619Q198 680 296 680Q393 680 456.50 619.50Q520 559 520 464Q520 402 484.50 346.50Q449 291 370 208L265 96L552 96L552 0L56 0L302 270Q344 316 363.50 339Q383 362 403.50 397Q424 432 424 458Q424 515 388.50 549.50Q353 584 296 584Q241 584 207 547.50Q173 511 169 456L71 472Z"  horiz-adv-x="608" vert-adv-y="1000"  />

      
      <glyph glyph-name="uni33" unicode="&#x33;" d="M440 355Q479 342 507.50 300Q536 258 536 208Q536 122 476.50 57Q417-8 296-8Q189-8 126 51Q63 110 56 208L152 224Q169 88 302 88Q366 88 403 120Q440 152 440 200Q440 257 395.50 276.50Q351 296 264 296L264 392Q290 392 314 396.50Q338 401 365 410.50Q392 420 408 440Q424 460 424 488Q424 525 392 554.50Q360 584 302 584Q232 584 202.50 549Q173 514 167 456L71 472Q79 563 141.50 621.50Q204 680 296 680Q403 680 461.50 621Q520 562 520 496Q520 402 440 355Z"  horiz-adv-x="592" vert-adv-y="1000"  />

      
      <glyph glyph-name="uni34" unicode="&#x34;" d="M472 208L552 208L552 112L472 112L472 0L376 0L376 112L24 112L472 688L472 208M376 208L376 430L214 208L376 208Z"  horiz-adv-x="608" vert-adv-y="1000"  />

      
      <glyph glyph-name="uni35" unicode="&#x35;" d="M317 448Q405 448 470.50 388.50Q536 329 536 227Q536 125 465 58.50Q394-8 296-8Q198-8 130 52.50Q62 113 56 200L156 210Q161 161 200 124.50Q239 88 296 88Q355 88 397.50 127.50Q440 167 440 224Q440 280 404 316Q368 352 311 352Q270 352 230.50 331Q191 310 169 272L71 272L131 672L472 672L472 576L213 576L187 404Q240 448 317 448Z"  horiz-adv-x="592" vert-adv-y="1000"  />

      
      <glyph glyph-name="uni36" unicode="&#x36;" d="M323 470Q424 470 488 403.50Q552 337 552 245Q552 133 482.50 62.50Q413-8 304-8Q194-8 125 63Q56 134 56 252Q56 364 115 480.50Q174 597 291 672L461 672Q454 670 441 664.50Q428 659 392 639.50Q356 620 324.50 596Q293 572 256.50 530.50Q220 489 197 441Q249 470 323 470M195 130Q195 130 216.50 109Q238 88 304 88Q370 88 413 130Q456 172 456 233Q456 294 414.50 334Q373 374 304 374Q238 374 195 333.50Q152 293 152 233Q152 172 195 130Z"  horiz-adv-x="608" vert-adv-y="1000"  />

      
      <glyph glyph-name="uni37" unicode="&#x37;" d="M56 672L536 672L248 0L136 0L384 576L56 576L56 672Z"  horiz-adv-x="544" vert-adv-y="1000"  />

      
      <glyph glyph-name="uni38" unicode="&#x38;" d="M461 369Q552 317 552 207Q552 112 480 52Q408-8 304-8Q200-8 128 52Q56 112 56 207Q56 315 146 369Q88 410 88 492Q88 572 150.50 626Q213 680 304 680Q394 680 457 626Q520 572 520 492Q520 412 461 369M389 558Q389 558 371.50 571Q354 584 304 584Q254 584 219 558Q184 532 184 496Q184 460 219 434Q254 408 304 408Q354 408 389 434Q424 460 424 496Q424 532 389 558M196.50 121.50Q196.50 121.50 218.75 104.75Q241 88 304 88Q367 88 411.50 121.50Q456 155 456 204Q456 253 411.50 286.50Q367 320 304 320Q241 320 196.50 286.50Q152 253 152 204Q152 155 196.50 121.50Z"  horiz-adv-x="608" vert-adv-y="1000"  />

      
      <glyph glyph-name="uni39" unicode="&#x39;" d="M285 202Q184 202 120 268.50Q56 335 56 427Q56 539 125.50 609.50Q195 680 304 680Q414 680 483 609Q552 538 552 420Q552 308 493 191.50Q434 75 317 0L147 0Q154 2 167 7.50Q180 13 216 32.50Q252 52 283.50 76Q315 100 351.50 141.50Q388 183 411 231Q359 202 285 202M413 542Q413 542 391.50 563Q370 584 304 584Q238 584 195 542Q152 500 152 439Q152 378 193.50 338Q235 298 304 298Q370 298 413 338.50Q456 379 456 439Q456 500 413 542Z"  horiz-adv-x="608" vert-adv-y="1000"  />

      
      <glyph glyph-name="uni3a" unicode="&#x3a;" d="M128 344Q98 344 77 365Q56 386 56 416Q56 447 77 467.50Q98 488 128 488Q159 488 179.50 467.50Q200 447 200 416Q200 386 179.50 365Q159 344 128 344M128-8Q98-8 77 13Q56 34 56 64Q56 94 77 115Q98 136 128 136Q159 136 179.50 115Q200 94 200 64Q200 34 179.50 13Q159-8 128-8Z"  horiz-adv-x="256" vert-adv-y="1000"  />

      
      <glyph glyph-name="uni3b" unicode="&#x3b;" d="M148 344Q118 344 97 365Q76 386 76 416Q76 447 97 467.50Q118 488 148 488Q179 488 199.50 467.50Q220 447 220 416Q220 386 199.50 365Q179 344 148 344M40-112L88 112L208 112L104-112L40-112Z"  horiz-adv-x="276" vert-adv-y="1000"  />

      
      <glyph glyph-name="uni3c" unicode="&#x3c;" d="M472 80L56 272L56 336L472 528L472 448L152 304L472 160L472 80Z"  horiz-adv-x="528" vert-adv-y="1000"  />

      
      <glyph glyph-name="uni3d" unicode="&#x3d;" d="M56 408L456 408L456 344L56 344L56 408M56 264L456 264L456 200L56 200L56 264Z"  horiz-adv-x="512" vert-adv-y="1000"  />

      
      <glyph glyph-name="uni3e" unicode="&#x3e;" d="M56 80L56 160L376 304L56 448L56 528L472 336L472 272L56 80Z"  horiz-adv-x="528" vert-adv-y="1000"  />

      
      <glyph glyph-name="uni3f" unicode="&#x3f;" d="M256 680Q362 680 417 621.50Q472 563 472 488Q472 437 449 400.50Q426 364 378 324Q305 264 304 192L208 192Q204 281 269 349Q278 358 312.50 389Q347 420 361.50 441Q376 462 376 488Q376 529 344.50 556.50Q313 584 257 584Q163 584 112 506L56 584Q143 680 256 680M256 136Q287 136 307.50 115Q328 94 328 64Q328 34 307.50 13Q287-8 256-8Q226-8 205 13Q184 34 184 64Q184 94 205 115Q226 136 256 136Z"  horiz-adv-x="528" vert-adv-y="1000"  />

      
      <glyph glyph-name="uni40" unicode="&#x40;" d="M1032 330Q1032 219 969.50 141.50Q907 64 801 64Q699 64 660 153Q610 82 511 82Q417 82 363 145.50Q309 209 316 298Q323 388 384.50 449Q446 510 532 510Q573 510 609.50 491.50Q646 473 660 450L664 496L758 496L735 260Q731 216 749.50 188Q768 160 813 160Q856 160 896 199.50Q936 239 936 329Q936 479 822.50 583.50Q709 688 552 688Q386 688 269 571.50Q152 455 152 288Q152 123 269 6.50Q386-110 552-112Q643-113 705-84L733-174Q656-208 552-208Q417-208 303-141.50Q189-75 122.50 39Q56 153 56 288Q56 423 122.50 537Q189 651 303 717.50Q417 784 552 784Q678 784 788.50 723Q899 662 965.50 556.50Q1032 451 1032 330M645 297Q649 344 621.50 385Q594 426 536 426Q488 426 451.50 389.50Q415 353 410 299Q405 249 433.50 208.50Q462 168 518 168Q572 168 606 205Q640 242 645 297Z"  horiz-adv-x="1088" vert-adv-y="1000"  />

      
      <glyph glyph-name="uni41" unicode="&#x41;" d="M544 0L479 144L177 144L112 0L8 0L328 688L648 0L544 0M221 240L435 240L328 476L221 240Z"  horiz-adv-x="656" vert-adv-y="1000"  />

      
      <glyph glyph-name="uni42" unicode="&#x42;" d="M424 361Q480 348 508 302.50Q536 257 536 202Q536 113 477.50 56.50Q419 0 320 0L72 0L72 672L273 672Q383 672 443.50 627Q504 582 504 496Q504 447 481 410.50Q458 374 424 361M168 576L168 408L288 408Q408 408 408 492Q408 576 288 576L168 576M304 96Q368 96 404 123Q440 150 440 204Q440 258 404 285Q368 312 304 312L168 312L168 96L304 96Z"  horiz-adv-x="576" vert-adv-y="1000"  />

      
      <glyph glyph-name="uni43" unicode="&#x43;" d="M384 88Q489 88 559 161L600 71Q559 33 502.50 12.50Q446-8 390-8Q245-8 142.50 93Q40 194 40 336Q40 478 142.50 579Q245 680 390 680Q447 680 503 660Q559 640 600 602L559 512Q489 584 384 584Q281 584 208.50 511.50Q136 439 136 336Q136 233 208.50 160.50Q281 88 384 88Z"  horiz-adv-x="640" vert-adv-y="1000"  />

      
      <glyph glyph-name="uni44" unicode="&#x44;" d="M273 672Q435 672 525.50 577Q616 482 616 336Q616 191 524 95.50Q432 0 273 0L72 0L72 672L273 672M298 96Q395 96 457.50 165.50Q520 235 520 336Q520 437 457.50 506.50Q395 576 298 576L168 576L168 96L298 96Z"  horiz-adv-x="656" vert-adv-y="1000"  />

      
      <glyph glyph-name="uni45" unicode="&#x45;" d="M456 576L168 576L168 384L408 384L408 288L168 288L168 96L456 96L456 0L72 0L72 672L456 672L456 576Z"  horiz-adv-x="512" vert-adv-y="1000"  />

      
      <glyph glyph-name="uni46" unicode="&#x46;" d="M168 0L72 0L72 672L456 672L456 576L168 576L168 384L408 384L408 288L168 288L168 0Z"  horiz-adv-x="496" vert-adv-y="1000"  />

      
      <glyph glyph-name="uni47" unicode="&#x47;" d="M710 367Q712 349 712 336Q712 192 618.50 92Q525-8 384-8Q242-8 141 93Q40 194 40 336Q40 478 141 579Q242 680 384 680Q483 680 560 629.50Q637 579 681 492L584 464Q555 519 502.50 551.50Q450 584 384 584Q281 584 208.50 511.50Q136 439 136 336Q136 233 208.50 160.50Q281 88 384 88Q473 88 533 139.50Q593 191 610 272L360 272L360 368L710 367Z"  horiz-adv-x="752" vert-adv-y="1000"  />

      
      <glyph glyph-name="uni48" unicode="&#x48;" d="M488 672L584 672L584 0L488 0L488 288L168 288L168 0L72 0L72 672L168 672L168 384L488 384L488 672Z"  horiz-adv-x="656" vert-adv-y="1000"  />

      
      <glyph glyph-name="uni49" unicode="&#x49;" d="M168 0L72 0L72 672L168 672L168 0Z"  horiz-adv-x="240" vert-adv-y="1000"  />

      
      <glyph glyph-name="uni4a" unicode="&#x4a;" d="M312 672L408 672L408 256Q408 124 347 58Q286-8 184-8Q142-8 100.50 11Q59 30 40 54L88 136Q121 88 184 88Q249 88 280.50 130.50Q312 173 312 248L312 672Z"  horiz-adv-x="464" vert-adv-y="1000"  />

      
      <glyph glyph-name="uni4b" unicode="&#x4b;" d="M256 343L568 0L440 0L168 296L168 0L72 0L72 672L168 672L168 376L424 672L552 672L256 343Z"  horiz-adv-x="592" vert-adv-y="1000"  />

      
      <glyph glyph-name="uni4c" unicode="&#x4c;" d="M168 96L440 96L440 0L72 0L72 672L168 672L168 96Z"  horiz-adv-x="480" vert-adv-y="1000"  />

      
      <glyph glyph-name="uni4d" unicode="&#x4d;" d="M416-16L202 398L138 0L40 0L154 688L416 180L678 688L792 0L694 0L630 398L416-16Z"  horiz-adv-x="832" vert-adv-y="1000"  />

      
      <glyph glyph-name="uni4e" unicode="&#x4e;" d="M632-16L168 460L168 0L72 0L72 688L536 212L536 672L632 672L632-16Z"  horiz-adv-x="704" vert-adv-y="1000"  />

      
      <glyph glyph-name="uni4f" unicode="&#x4f;" d="M141 579Q141 579 191.50 629.50Q242 680 384 680Q526 680 627 579Q728 478 728 336Q728 194 627 93Q526-8 384-8Q242-8 141 93Q40 194 40 336Q40 478 141 579M208 160Q208 160 244 124Q280 88 384 88Q488 88 560 160Q632 232 632 336Q632 440 560 512Q488 584 384 584Q280 584 208 512Q136 440 136 336Q136 232 208 160Z"  horiz-adv-x="768" vert-adv-y="1000"  />

      
      <glyph glyph-name="uni50" unicode="&#x50;" d="M280 672Q407 672 471.50 614Q536 556 536 457Q536 360 475 296Q414 232 310 232L168 232L168 0L72 0L72 672L280 672M311 328Q368 328 404 358.50Q440 389 440 451Q440 513 401 544.50Q362 576 305 576L168 576L168 328L311 328Z"  horiz-adv-x="576" vert-adv-y="1000"  />

      
      <glyph glyph-name="uni51" unicode="&#x51;" d="M744 0L624 0L577 51Q489-8 384-8Q242-8 141 93Q40 194 40 336Q40 478 141 579Q242 680 384 680Q526 680 627 579Q728 478 728 336Q728 205 642 109L744 0M384 88Q453 88 512 123L392 256L504 256L576 179Q632 246 632 336Q632 440 560 512Q488 584 384 584Q280 584 208 512Q136 440 136 336Q136 232 208 160Q280 88 384 88Z"  horiz-adv-x="768" vert-adv-y="1000"  />

      
      <glyph glyph-name="uni52" unicode="&#x52;" d="M552 0L440 0L273 232L168 232L168 0L72 0L72 672L280 672Q407 672 471.50 614Q536 556 536 457Q536 378 494.50 319.50Q453 261 379 241L552 0M168 576L168 328L311 328Q368 328 404 358.50Q440 389 440 451Q440 514 404.50 545Q369 576 313 576L168 576Z"  horiz-adv-x="592" vert-adv-y="1000"  />

      
      <glyph glyph-name="uni53" unicode="&#x53;" d="M311 392Q436 368 494 323.50Q552 279 552 197Q552 107 483 49.50Q414-8 298-8Q242-8 192.50 6.50Q143 21 110.50 43Q78 65 63 78Q48 91 40 101L88 187Q177 88 300 88Q375 88 415.50 116Q456 144 456 193Q456 269 303 296Q170 319 116.50 365.50Q63 412 63 485Q63 570 127 625Q191 680 305 680Q436 680 522 600L476 513Q403 584 303 584Q234 584 196.50 559Q159 534 159 489Q159 451 194 429.50Q229 408 311 392Z"  horiz-adv-x="592" vert-adv-y="1000"  />

      
      <glyph glyph-name="uni54" unicode="&#x54;" d="M40 672L488 672L488 576L312 576L312 0L216 0L216 576L40 576L40 672Z"  horiz-adv-x="528" vert-adv-y="1000"  />

      
      <glyph glyph-name="uni55" unicode="&#x55;" d="M472 672L568 672L568 296Q568 157 503.50 74.50Q439-8 312-8Q182-8 119 74Q56 156 56 296L56 672L152 672L152 264Q152 185 194.50 136.50Q237 88 312 88Q386 88 429 136.50Q472 185 472 264L472 672Z"  horiz-adv-x="624" vert-adv-y="1000"  />

      
      <glyph glyph-name="uni56" unicode="&#x56;" d="M312-16L8 672L112 672L312 210L512 672L616 672L312-16Z"  horiz-adv-x="624" vert-adv-y="1000"  />

      
      <glyph glyph-name="uni57" unicode="&#x57;" d="M840 672L944 672L664-16L480 448L296-16L16 672L120 672L296 230L480 688L664 230L840 672Z"  horiz-adv-x="960" vert-adv-y="1000"  />

      
      <glyph glyph-name="uni58" unicode="&#x58;" d="M632 0L516 0L328 271L140 0L24 0L268 347L40 672L155 672L328 422L501 672L616 672L388 347L632 0Z"  horiz-adv-x="656" vert-adv-y="1000"  />

      
      <glyph glyph-name="uni59" unicode="&#x59;" d="M476 672L584 672L344 272L344 0L248 0L248 272L8 672L116 672L296 364L476 672Z"  horiz-adv-x="592" vert-adv-y="1000"  />

      
      <glyph glyph-name="uni5a" unicode="&#x5a;" d="M552 0L40 0L402 576L56 576L56 672L568 672L206 96L552 96L552 0Z"  horiz-adv-x="608" vert-adv-y="1000"  />

      
      <glyph glyph-name="uni5b" unicode="&#x5b;" d="M168 736L168-112L264-112L264-208L72-208L72 832L264 832L264 736L168 736Z"  horiz-adv-x="336" vert-adv-y="1000"  />

      
      <glyph glyph-name="uni5c" unicode="&#x5c;" d="M376-80L56 752L136 752L456-80L376-80Z"  horiz-adv-x="512" vert-adv-y="1000"  />

      
      <glyph glyph-name="uni5d" unicode="&#x5d;" d="M168 736L72 736L72 832L264 832L264-208L72-208L72-112L168-112L168 736Z"  horiz-adv-x="336" vert-adv-y="1000"  />

      
      <glyph glyph-name="uni5e" unicode="&#x5e;" d="M56 448L234 704L310 704L488 448L400 448L272 640L144 448L56 448Z"  horiz-adv-x="544" vert-adv-y="1000"  />

      
      <glyph glyph-name="uni5f" unicode="&#x5f;" d="M520-112L40-112L40-32L520-32L520-112Z"  horiz-adv-x="560" vert-adv-y="1000"  />

      
      <glyph glyph-name="uni60" unicode="&#x60;" d="M480 736L416 736L288 864L400 864L480 736Z"  horiz-adv-x="816" vert-adv-y="1000"  />

      
      <glyph glyph-name="uni61" unicode="&#x61;" d="M440 480L536 480L536 0L440 0L440 70Q380-8 280-8Q176-8 108 64Q40 136 40 240Q40 344 108 416Q176 488 280 488Q380 488 440 410L440 480M180.50 132.50Q180.50 132.50 202.75 110.25Q225 88 288 88Q351 88 395.50 132.50Q440 177 440 240Q440 303 395.50 347.50Q351 392 288 392Q225 392 180.50 347.50Q136 303 136 240Q136 177 180.50 132.50Z"  horiz-adv-x="608" vert-adv-y="1000"  />

      
      <glyph glyph-name="uni62" unicode="&#x62;" d="M168 704L168 410Q228 488 328 488Q432 488 500 416Q568 344 568 240Q568 136 500 64Q432-8 328-8Q228-8 168 70L168 0L72 0L72 704L168 704M212.50 132.50Q212.50 132.50 234.75 110.25Q257 88 320 88Q383 88 427.50 132.50Q472 177 472 240Q472 303 427.50 347.50Q383 392 320 392Q257 392 212.50 347.50Q168 303 168 240Q168 177 212.50 132.50Z"  horiz-adv-x="608" vert-adv-y="1000"  />

      
      <glyph glyph-name="uni63" unicode="&#x63;" d="M109.50 63Q109.50 63 74.75 98.50Q40 134 40 240Q40 346 110 417Q180 488 296 488Q395 488 456 433L415 344Q365 392 297 392Q231 392 183.50 347.50Q136 303 136 241Q136 178 183 133Q230 88 297 88Q366 88 415 137L456 47Q398-8 296-8Q179-8 109.50 63Z"  horiz-adv-x="496" vert-adv-y="1000"  />

      
      <glyph glyph-name="uni64" unicode="&#x64;" d="M440 704L536 704L536 0L440 0L440 70Q380-8 280-8Q176-8 108 64Q40 136 40 240Q40 344 108 416Q176 488 280 488Q380 488 440 410L440 704M180.50 132.50Q180.50 132.50 202.75 110.25Q225 88 288 88Q351 88 395.50 132.50Q440 177 440 240Q440 303 395.50 347.50Q351 392 288 392Q225 392 180.50 347.50Q136 303 136 240Q136 177 180.50 132.50Z"  horiz-adv-x="608" vert-adv-y="1000"  />

      
      <glyph glyph-name="uni65" unicode="&#x65;" d="M504 238Q504 216 501 196L138 196Q149 142 191.50 115Q234 88 294 88Q372 88 440 136L472 50Q403-8 292-8Q171-8 105.50 62.50Q40 133 40 240Q40 346 105.50 417Q171 488 279 488Q377 488 440.50 420Q504 352 504 238M138 284L406 284Q404 325 371 358.50Q338 392 275 392Q214 392 177 358Q140 324 138 284Z"  horiz-adv-x="544" vert-adv-y="1000"  />

      
      <glyph glyph-name="uni66" unicode="&#x66;" d="M40 480L104 480L104 538Q104 623 144 667.50Q184 712 250 712Q286 712 312 696L312 602Q291 616 264 616Q200 616 200 535L200 480L312 480L312 384L200 384L200 0L104 0L104 384L40 384L40 480Z"  horiz-adv-x="368" vert-adv-y="1000"  />

      
      <glyph glyph-name="uni67" unicode="&#x67;" d="M440 480L536 480L536 30Q536-116 467.50-190Q399-264 280-264Q160-264 56-184L104-98Q132-119 150-131Q168-143 204.50-155.50Q241-168 280-168Q355-168 397.50-120Q440-72 440 16L440 70Q380-8 280-8Q176-8 108 64Q40 136 40 240Q40 344 108 416Q176 488 280 488Q380 488 440 410L440 480M180.50 132.50Q180.50 132.50 202.75 110.25Q225 88 288 88Q351 88 395.50 132.50Q440 177 440 240Q440 303 395.50 347.50Q351 392 288 392Q225 392 180.50 347.50Q136 303 136 240Q136 177 180.50 132.50Z"  horiz-adv-x="608" vert-adv-y="1000"  />

      
      <glyph glyph-name="uni68" unicode="&#x68;" d="M318 488Q409 488 456.50 431.50Q504 375 504 268L504 0L408 0L408 268Q408 329 383.50 360.50Q359 392 300 392Q252 392 210 356.50Q168 321 168 264L168 0L72 0L72 704L168 704L168 424Q224 488 318 488Z"  horiz-adv-x="560" vert-adv-y="1000"  />

      
      <glyph glyph-name="uni69" unicode="&#x69;" d="M171 581Q171 581 160.50 570.50Q150 560 120 560Q90 560 69 581Q48 602 48 632Q48 662 69 683Q90 704 120 704Q150 704 171 683Q192 662 192 632Q192 602 171 581M72 0L72 480L168 480L168 0L72 0Z"  horiz-adv-x="240" vert-adv-y="1000"  />

      
      <glyph glyph-name="uni6a" unicode="&#x6a;" d="M171 581Q171 581 160.50 570.50Q150 560 120 560Q90 560 69 581Q48 602 48 632Q48 662 69 683Q90 704 120 704Q150 704 171 683Q192 662 192 632Q192 602 171 581M72-32L72 480L168 480L168-18Q168-63 161-99.50Q154-136 144-160Q134-184 117-203Q100-222 86.50-232Q73-242 52.50-249.50Q32-257 20.50-259Q9-261-8-264L-32-176Q17-166 44.50-134Q72-102 72-32Z"  horiz-adv-x="240" vert-adv-y="1000"  />

      
      <glyph glyph-name="uni6b" unicode="&#x6b;" d="M248 248L504 0L376 0L168 204L168 0L72 0L72 704L168 704L168 284L360 480L488 480L248 248Z"  horiz-adv-x="512" vert-adv-y="1000"  />

      
      <glyph glyph-name="uni6c" unicode="&#x6c;" d="M72 704L168 704L168 0L72 0L72 704Z"  horiz-adv-x="240" vert-adv-y="1000"  />

      
      <glyph glyph-name="uni6d" unicode="&#x6d;" d="M606 488Q686 488 731 431Q776 374 776 268L776 0L680 0L680 268Q680 392 588 392Q542 392 507 357Q472 322 472 264L472 0L376 0L376 268Q376 392 284 392Q238 392 203 357Q168 322 168 264L168 0L72 0L72 480L168 480L168 424Q186 444 199 455.50Q212 467 239.50 477.50Q267 488 302 488Q396 488 440 412Q478 453 516.50 470.50Q555 488 606 488Z"  horiz-adv-x="832" vert-adv-y="1000"  />

      
      <glyph glyph-name="uni6e" unicode="&#x6e;" d="M318 488Q405 488 454.50 434Q504 380 504 276L504 0L408 0L408 268Q408 329 383.50 360.50Q359 392 300 392Q252 392 210 356.50Q168 321 168 264L168 0L72 0L72 480L168 480L168 424Q224 488 318 488Z"  horiz-adv-x="560" vert-adv-y="1000"  />

      
      <glyph glyph-name="uni6f" unicode="&#x6f;" d="M112.50 415.50Q112.50 415.50 148.75 451.75Q185 488 288 488Q391 488 463.50 415.50Q536 343 536 240Q536 137 463.50 64.50Q391-8 288-8Q185-8 112.50 64.50Q40 137 40 240Q40 343 112.50 415.50M181 133Q181 133 203.50 110.50Q226 88 288 88Q350 88 395 133Q440 178 440 240Q440 302 395 347Q350 392 288 392Q226 392 181 347Q136 302 136 240Q136 178 181 133Z"  horiz-adv-x="576" vert-adv-y="1000"  />

      
      <glyph glyph-name="uni70" unicode="&#x70;" d="M328 488Q432 488 500 416Q568 344 568 240Q568 136 500 64Q432-8 328-8Q228-8 168 70L168-256L72-256L72 480L168 480L168 410Q228 488 328 488M212.50 132.50Q212.50 132.50 234.75 110.25Q257 88 320 88Q383 88 427.50 132.50Q472 177 472 240Q472 303 427.50 347.50Q383 392 320 392Q257 392 212.50 347.50Q168 303 168 240Q168 177 212.50 132.50Z"  horiz-adv-x="608" vert-adv-y="1000"  />

      
      <glyph glyph-name="uni71" unicode="&#x71;" d="M280 488Q380 488 440 410L440 480L536 480L536-256L440-256L440 70Q380-8 280-8Q176-8 108 64Q40 136 40 240Q40 344 108 416Q176 488 280 488M180.50 132.50Q180.50 132.50 202.75 110.25Q225 88 288 88Q351 88 395.50 132.50Q440 177 440 240Q440 303 395.50 347.50Q351 392 288 392Q225 392 180.50 347.50Q136 303 136 240Q136 177 180.50 132.50Z"  horiz-adv-x="608" vert-adv-y="1000"  />

      
      <glyph glyph-name="uni72" unicode="&#x72;" d="M168 377Q193 429 243 458.50Q293 488 360 488L360 383Q318 396 272 379Q168 339 168 214L168 0L72 0L72 480L168 480L168 377Z"  horiz-adv-x="400" vert-adv-y="1000"  />

      
      <glyph glyph-name="uni73" unicode="&#x73;" d="M265 296Q440 262 440 150Q440 77 390 34.50Q340-8 248-8Q178-8 120.50 15Q63 38 40 60L78 154Q106 126 154.50 107.50Q203 89 245 88Q290 87 317 102Q344 117 344 139Q344 164 321 177.50Q298 191 250 200Q138 220 97 255Q56 290 56 351Q56 412 109.50 450Q163 488 251 488Q340 488 425 442L392 352Q373 366 332.50 378.50Q292 391 251 392Q210 393 181 383Q152 373 152 350Q152 338 159.50 329.50Q167 321 182.50 315.50Q198 310 212 306.50Q226 303 249 299Q260 297 265 296Z"  horiz-adv-x="480" vert-adv-y="1000"  />

      
      <glyph glyph-name="uni74" unicode="&#x74;" d="M104 157L104 384L40 384L40 480L104 480L104 672L200 672L200 480L296 480L296 384L200 384L200 184Q200 115 219 101Q248 79 296 103L296 6Q267-8 225-8Q104-8 104 157Z"  horiz-adv-x="352" vert-adv-y="1000"  />

      
      <glyph glyph-name="uni75" unicode="&#x75;" d="M242-8Q155-8 105.50 46Q56 100 56 204L56 480L152 480L152 212Q152 151 176.50 119.50Q201 88 260 88Q308 88 350 123.50Q392 159 392 216L392 480L488 480L488 0L392 0L392 56Q336-8 242-8Z"  horiz-adv-x="560" vert-adv-y="1000"  />

      
      <glyph glyph-name="uni76" unicode="&#x76;" d="M240-16L8 480L112 480L240 200L368 480L472 480L240-16Z"  horiz-adv-x="480" vert-adv-y="1000"  />

      
      <glyph glyph-name="uni77" unicode="&#x77;" d="M632 480L736 480L528-16L376 292L224-16L16 480L120 480L232 194L376 496L520 194L632 480Z"  horiz-adv-x="752" vert-adv-y="1000"  />

      
      <glyph glyph-name="uni78" unicode="&#x78;" d="M321 255L504 0L390 0L264 181L138 0L24 0L207 255L39 480L153 480L264 322L375 480L489 480L321 255Z"  horiz-adv-x="528" vert-adv-y="1000"  />

      
      <glyph glyph-name="uni79" unicode="&#x79;" d="M397 480L504 480L179-256L74-256L202 31L8 480L115 480L256 148L397 480Z"  horiz-adv-x="512" vert-adv-y="1000"  />

      
      <glyph glyph-name="uni7a" unicode="&#x7a;" d="M424 0L40 0L276 384L56 384L56 480L440 480L202 96L424 96L424 0Z"  horiz-adv-x="480" vert-adv-y="1000"  />

      
      <glyph glyph-name="uni7b" unicode="&#x7b;" d="M248-30Q248-69 268-98Q288-127 328-136L296-224Q152-176 152-42L152 192Q152 232 120.50 263.50Q89 295 56 304Q89 313 120.50 344.50Q152 376 152 416L152 650Q152 784 296 832L328 744Q288 735 268 706Q248 677 248 638L248 450Q248 333 181 304Q248 275 248 158L248-30Z"  horiz-adv-x="384" vert-adv-y="1000"  />

      
      <glyph glyph-name="uni7c" unicode="&#x7c;" d="M136-256L72-256L72 768L136 768L136-256Z"  horiz-adv-x="208" vert-adv-y="1000"  />

      
      <glyph glyph-name="uni7d" unicode="&#x7d;" d="M136-30L136 158Q136 275 203 304Q136 333 136 450L136 638Q136 677 116 706Q96 735 56 744L88 832Q232 784 232 650L232 416Q232 376 263.50 344.50Q295 313 328 304Q295 295 263.50 263.50Q232 232 232 192L232-42Q232-176 88-224L56-136Q96-127 116-98Q136-69 136-30Z"  horiz-adv-x="384" vert-adv-y="1000"  />

      
      <glyph glyph-name="uni7e" unicode="&#x7e;" d="M404 341L464 312Q440 267 410.50 252Q381 237 341 237Q329 237 312 241Q295 245 283.50 249Q272 253 250.50 260.50Q229 268 226 269Q187 285 160 278Q133 271 116 237L56 266Q80 311 109.50 326Q139 341 179 341Q190 341 207 337Q224 333 236.50 328.50Q249 324 269 317Q289 310 294 308Q333 293 360 300Q387 307 404 341Z"  horiz-adv-x="520" vert-adv-y="1000"  />

      
      <glyph glyph-name="unia1" unicode="&#xa1;" d="M144 488Q175 488 195.50 467Q216 446 216 416Q216 386 195.50 365Q175 344 144 344Q114 344 93 365Q72 386 72 416Q72 446 93 467Q114 488 144 488M112 288L176 288L208-192L80-192L112 288Z"  horiz-adv-x="288" vert-adv-y="1000"  />

      
      <glyph glyph-name="unia2" unicode="&#xa2;" d="M415 137L456 47Q405-1 312-8L312-80L264-80L264-6Q160 4 100 72.50Q40 141 40 240Q40 338 100.50 407Q161 476 264 486L264 560L312 560L312 488Q402 483 456 433L415 344Q365 392 297 392Q231 392 183.50 347.50Q136 303 136 241Q136 178 183 133Q230 88 297 88Q366 88 415 137Z"  horiz-adv-x="496" vert-adv-y="1000"  />

      
      <glyph glyph-name="unia3" unicode="&#xa3;" d="M472 152L552 106Q523 46 476.50 19Q430-8 384-8Q375-8 367.50-7.50Q360-7 354.50-6.50Q349-6 341.50-4.50Q334-3 331-2Q328-1 320 2Q312 5 310.50 5.50Q309 6 299.50 10Q290 14 288 15Q183 61 144 0L40 112Q51 141 86 168Q112 188 124 213Q136 238 134.50 259.50Q133 281 130 304L40 304L40 368L112 368Q88 440 88 488Q88 566 149 623Q210 680 313 680Q376 680 425 662Q474 644 522 600L472 520Q407 584 322 584Q264 584 224 555.50Q184 527 184 465Q184 446 195.50 408.50Q207 371 208 368L376 368L376 304L224 304Q234 255 220.50 203Q207 151 159 115Q222 126 253.50 120Q285 114 324 101Q363 88 384 88Q407 88 431.50 103.50Q456 119 472 152Z"  horiz-adv-x="592" vert-adv-y="1000"  />

      
      <glyph glyph-name="unia4" unicode="&#xa4;" d="M399 320Q399 275 375 240L454 162L415 121L335 199Q300 176 256 176Q210 176 174 201L95 121L56 161L134 241Q111 276 111 320Q111 364 135 399L56 480L97 519L175 440Q212 464 256 464Q301 464 337 439L413 519L454 480L375 400Q399 363 399 320M311 376Q311 376 299 388Q287 400 255 400Q223 400 199 376Q175 352 175 320Q175 288 199 264Q223 240 255 240Q287 240 311 264Q335 288 335 320Q335 352 311 376Z"  horiz-adv-x="510" vert-adv-y="1000"  />

      
      <glyph glyph-name="unia5" unicode="&#xa5;" d="M616 672L376 272L488 272L488 224L376 224L376 160L488 160L488 112L376 112L376 0L280 0L280 112L168 112L168 160L280 160L280 224L168 224L168 272L280 272L40 672L148 672L328 364L508 672L616 672Z"  horiz-adv-x="656" vert-adv-y="1000"  />

      
      <glyph glyph-name="unia6" unicode="&#xa6;" d="M136 416L72 416L72 768L136 768L136 416M136-256L72-256L72 96L136 96L136-256Z"  horiz-adv-x="208" vert-adv-y="1000"  />

      
      <glyph glyph-name="unia7" unicode="&#xa7;" d="M514 160Q568 115 568 37Q568-53 499-110.50Q430-168 314-168Q258-168 208.50-153.50Q159-139 126.50-117Q94-95 79-82Q64-69 56-59L104 27Q193-72 316-72Q391-72 431.50-44Q472-16 472 33Q472 109 319 136Q186 159 132.50 205.50Q79 252 79 325Q79 406 136 459Q79 504 79 581Q79 666 143 721Q207 776 321 776Q452 776 538 696L492 609Q419 680 319 680Q250 680 212.50 655Q175 630 175 585Q175 547 210 525.50Q245 504 327 488Q452 464 510 419.50Q568 375 568 293Q568 214 514 160M175 329Q175 291 210 269.50Q245 248 327 232Q384 221 424 207Q472 236 472 289Q472 365 319 392Q279 398 236 411Q175 388 175 329Z"  horiz-adv-x="624" vert-adv-y="1000"  />

      
      <glyph glyph-name="unia8" unicode="&#xa8;" d="M320 736Q297 736 280.50 752.50Q264 769 264 792Q264 816 280.50 832Q297 848 320 848Q344 848 360 832Q376 816 376 792Q376 769 360 752.50Q344 736 320 736M496 736Q473 736 456.50 752.50Q440 769 440 792Q440 816 456.50 832Q473 848 496 848Q520 848 536 832Q552 816 552 792Q552 769 536 752.50Q520 736 496 736Z"  horiz-adv-x="816" vert-adv-y="1000"  />

      
      <glyph glyph-name="unia9" unicode="&#xa9;" d="M348 148Q225 148 140.50 233.50Q56 319 56 440Q56 564 140 648Q224 732 348 732Q472 732 556 648Q640 564 640 440Q640 316 556 232Q472 148 348 148M172 264Q172 264 208 228Q244 192 348 192Q452 192 524 264Q596 336 596 440Q596 544 524 616Q452 688 348 688Q244 688 172 616Q100 544 100 440Q100 336 172 264M361 331Q409 331 438 363L457 323Q419 288 364 288Q300 288 254.50 332.50Q209 377 209 440Q209 503 254.50 547.50Q300 592 364 592Q418 592 457 558L438 518Q409 549 361 549Q316 549 284 517Q252 485 252 440Q252 395 284 363Q316 331 361 331Z"  horiz-adv-x="696" vert-adv-y="1000"  />

      
      <glyph glyph-name="uniaa" unicode="&#xaa;" d="M256 672L304 672L304 432L256 432L256 467Q226 428 176 428Q124 428 90 464Q56 500 56 552Q56 604 90 640Q124 676 176 676Q228 676 256 637L256 672M126 498Q126 498 137 487Q148 476 180 476Q212 476 234 498Q256 520 256 552Q256 584 234 606Q212 628 180 628Q148 628 126 606Q104 584 104 552Q104 520 126 498Z"  horiz-adv-x="360" vert-adv-y="1000"  />

      
      <glyph glyph-name="uniab" unicode="&#xab;" d="M304 480L144 264L304 48L216 48L56 264L216 480L304 480M536 480L376 264L536 48L448 48L288 264L448 480L536 480Z"  horiz-adv-x="624" vert-adv-y="1000"  />

      
      <glyph glyph-name="uniac" unicode="&#xac;" d="M552 336L552 112L488 112L488 272L56 272L56 336L552 336Z"  horiz-adv-x="608" vert-adv-y="1000"  />

      
      <glyph glyph-name="uniae" unicode="&#xae;" d="M348 148Q225 148 140.50 233.50Q56 319 56 440Q56 564 140 648Q224 732 348 732Q472 732 556 648Q640 564 640 440Q640 316 556 232Q472 148 348 148M172 264Q172 264 208 228Q244 192 348 192Q452 192 524 264Q596 336 596 440Q596 544 524 616Q452 688 348 688Q244 688 172 616Q100 544 100 440Q100 336 172 264M465 290L415 290L341 394L294 394L294 290L251 290L251 590L344 590Q401 590 429.50 564Q458 538 458 494Q458 459 439.50 433Q421 407 388 398L465 290M294 547L294 436L358 436Q383 436 399 450Q415 464 415 491Q415 547 358 547L294 547Z"  horiz-adv-x="696" vert-adv-y="1000"  />

      
      <glyph glyph-name="uniaf" unicode="&#xaf;" d="M544 752L272 752L272 808L544 808L544 752Z"  horiz-adv-x="816" vert-adv-y="1000"  />

      
      <glyph glyph-name="unib0" unicode="&#xb0;" d="M201 392Q140 392 98 433.50Q56 475 56 536Q56 596 98 638Q140 680 201 680Q261 680 302.50 638Q344 596 344 536Q344 475 302.50 433.50Q261 392 201 392M144 480Q144 480 156 468Q168 456 200 456Q232 456 256 480Q280 504 280 536Q280 568 256 592Q232 616 200 616Q168 616 144 592Q120 568 120 536Q120 504 144 480Z"  horiz-adv-x="400" vert-adv-y="1000"  />

      
      <glyph glyph-name="unib1" unicode="&#xb1;" d="M424 456L424 392L272 392L272 240L208 240L208 392L56 392L56 456L208 456L208 608L272 608L272 456L424 456M56 112L424 112L424 48L56 48L56 112Z"  horiz-adv-x="480" vert-adv-y="1000"  />

      
      <glyph glyph-name="unib2" unicode="&#xb2;" d="M64 652Q67 695 97 725.50Q127 756 176 756Q224 756 256 726Q288 696 288 648Q288 617 270.50 589.50Q253 562 213 520L161 464L304 464L304 416L56 416L179 551Q240 618 240 645Q240 673 222.50 690.50Q205 708 176 708Q149 708 132 690Q115 672 113 644L64 652Z"  horiz-adv-x="360" vert-adv-y="1000"  />

      
      <glyph glyph-name="unib3" unicode="&#xb3;" d="M248 594Q268 587 282 566Q296 545 296 520Q296 477 266.50 444.50Q237 412 176 412Q123 412 91.50 441.50Q60 471 56 520L104 528Q113 460 179 460Q211 460 229.50 476Q248 492 248 516Q248 544 226 554Q204 564 160 564L160 612Q240 615 240 660Q240 679 224 693.50Q208 708 179 708Q118 708 112 644L64 652Q68 697 99 726.50Q130 756 176 756Q230 756 259 727Q288 698 288 664Q288 617 248 594Z"  horiz-adv-x="352" vert-adv-y="1000"  />

      
      <glyph glyph-name="unib4" unicode="&#xb4;" d="M336 736L416 864L528 864L400 736L336 736Z"  horiz-adv-x="816" vert-adv-y="1000"  />

      
      <glyph glyph-name="unib6" unicode="&#xb6;" d="M632 592L536 592L536-228L456-228L456 592L296 592L296-228L216-228L216 338Q147 338 101.50 386.50Q56 435 56 506Q56 575 101.50 623.50Q147 672 216 672L632 672L632 592Z"  horiz-adv-x="688" vert-adv-y="1000"  />

      
      <glyph glyph-name="unib7" unicode="&#xb7;" d="M128 264Q98 264 77 285Q56 306 56 336Q56 367 77 387.50Q98 408 128 408Q159 408 179.50 387.50Q200 367 200 336Q200 306 179.50 285Q159 264 128 264Z"  horiz-adv-x="256" vert-adv-y="1000"  />

      
      <glyph glyph-name="unib8" unicode="&#xb8;" d="M382 0L454 0L409-48Q465-35 506.50-69Q548-103 548-160Q548-222 505-263Q462-304 397-304Q318-304 276-241L324-196Q349-240 404-240Q442-240 467-217Q492-194 492-159Q492-129 471-108.50Q450-88 420-88Q383-88 353-112L321-64L382 0Z"  horiz-adv-x="816" vert-adv-y="1000"  />

      
      <glyph glyph-name="unib9" unicode="&#xb9;" d="M104 732L208 768L208 424L160 424L160 706L104 688L104 732Z"  horiz-adv-x="328" vert-adv-y="1000"  />

      
      <glyph glyph-name="uniba" unicode="&#xba;" d="M180 676Q232 676 268 640Q304 604 304 552Q304 501 268 464.50Q232 428 180 428Q129 428 92.50 464.50Q56 501 56 552Q56 604 92.50 640Q129 676 180 676M126.50 498.50Q126.50 498.50 137.75 487.25Q149 476 180 476Q211 476 233.50 498.50Q256 521 256 552Q256 584 234 606Q212 628 180 628Q149 628 126.50 605.50Q104 583 104 552Q104 521 126.50 498.50Z"  horiz-adv-x="360" vert-adv-y="1000"  />

      
      <glyph glyph-name="unibb" unicode="&#xbb;" d="M88 480L176 480L336 264L176 48L88 48L248 264L88 480M320 480L408 480L568 264L408 48L320 48L480 264L320 480Z"  horiz-adv-x="624" vert-adv-y="1000"  />

      
      <glyph glyph-name="unibc" unicode="&#xbc;" d="M104 644L208 680L208 336L160 336L160 618L104 600L104 644M240 0L176 0L644 672L708 672L240 0M804 104L844 104L844 56L804 56L804 0L756 0L756 56L580 56L804 344L804 104M756 104L756 215L675 104L756 104Z"  horiz-adv-x="900" vert-adv-y="1000"  />

      
      <glyph glyph-name="unibd" unicode="&#xbd;" d="M104 644L208 680L208 336L160 336L160 618L104 600L104 644M240 0L176 0L644 672L708 672L240 0M620 236Q623 279 653 309.50Q683 340 732 340Q780 340 812 310Q844 280 844 232Q844 201 826.50 173.50Q809 146 769 104L717 48L860 48L860 0L612 0L735 135Q796 202 796 229Q796 257 778.50 274.50Q761 292 732 292Q705 292 688 274Q671 256 669 228L620 236Z"  horiz-adv-x="916" vert-adv-y="1000"  />

      
      <glyph glyph-name="unibe" unicode="&#xbe;" d="M248 514Q268 507 282 486Q296 465 296 440Q296 397 266.50 364.50Q237 332 176 332Q123 332 91.50 361.50Q60 391 56 440L104 448Q113 380 179 380Q211 380 229.50 396Q248 412 248 436Q248 464 226 474Q204 484 160 484L160 532Q240 535 240 580Q240 599 224 613.50Q208 628 179 628Q118 628 112 564L64 572Q68 617 99 646.50Q130 676 176 676Q230 676 259 647Q288 618 288 584Q288 537 248 514M264 0L200 0L668 672L732 672L264 0M828 104L868 104L868 56L828 56L828 0L780 0L780 56L604 56L828 344L828 104M780 104L780 215L699 104L780 104Z"  horiz-adv-x="924" vert-adv-y="1000"  />

      
      <glyph glyph-name="unibf" unicode="&#xbf;" d="M272 344Q241 344 220.50 365Q200 386 200 416Q200 446 220.50 467Q241 488 272 488Q302 488 323 467Q344 446 344 416Q344 386 323 365Q302 344 272 344M272-200Q166-200 111-141.50Q56-83 56-8Q56 43 79 79.50Q102 116 150 156Q223 216 224 288L320 288Q324 199 259 131Q250 122 215.50 91Q181 60 166.50 39Q152 18 152-8Q152-49 183.50-76.50Q215-104 271-104Q365-104 416-26L472-104Q385-200 272-200Z"  horiz-adv-x="528" vert-adv-y="1000"  />

      
      <glyph glyph-name="unic0" unicode="&#xc0;" d="M376 736L312 736L184 864L296 864L376 736M544 0L479 144L177 144L112 0L8 0L328 688L648 0L544 0M221 240L435 240L328 476L221 240Z"  horiz-adv-x="656" vert-adv-y="1000"  />

      
      <glyph glyph-name="unic1" unicode="&#xc1;" d="M280 736L360 864L472 864L344 736L280 736M544 0L479 144L177 144L112 0L8 0L328 688L648 0L544 0M221 240L435 240L328 476L221 240Z"  horiz-adv-x="656" vert-adv-y="1000"  />

      
      <glyph glyph-name="unic2" unicode="&#xc2;" d="M381 736L328 788L275 736L176 736L328 872L480 736L381 736M544 0L479 144L177 144L112 0L8 0L328 688L648 0L544 0M221 240L435 240L328 476L221 240Z"  horiz-adv-x="656" vert-adv-y="1000"  />

      
      <glyph glyph-name="unic3" unicode="&#xc3;" d="M443 832L504 811Q467 736 396 736Q370 736 324 754Q286 772 257.50 769.50Q229 767 213 736L152 759Q192 832 262 832Q287 832 330 815Q369 796 398 798Q427 800 443 832M544 0L479 144L177 144L112 0L8 0L328 688L648 0L544 0M221 240L435 240L328 476L221 240Z"  horiz-adv-x="656" vert-adv-y="1000"  />

      
      <glyph glyph-name="unic4" unicode="&#xc4;" d="M240 736Q217 736 200.50 752.50Q184 769 184 792Q184 816 200.50 832Q217 848 240 848Q264 848 280 832Q296 816 296 792Q296 769 280 752.50Q264 736 240 736M416 736Q393 736 376.50 752.50Q360 769 360 792Q360 816 376.50 832Q393 848 416 848Q440 848 456 832Q472 816 472 792Q472 769 456 752.50Q440 736 416 736M544 0L479 144L177 144L112 0L8 0L328 688L648 0L544 0M221 240L435 240L328 476L221 240Z"  horiz-adv-x="656" vert-adv-y="1000"  />

      
      <glyph glyph-name="unic5" unicode="&#xc5;" d="M249 911Q249 911 265.50 927.50Q282 944 328 944Q374 944 407 911Q440 878 440 832Q440 786 407 753Q374 720 328 720Q282 720 249 753Q216 786 216 832Q216 878 249 911M288.50 792.50Q288.50 792.50 296.75 784.25Q305 776 328 776Q351 776 367.50 792.50Q384 809 384 832Q384 855 367.50 871.50Q351 888 328 888Q305 888 288.50 871.50Q272 855 272 832Q272 809 288.50 792.50M544 0L479 144L177 144L112 0L8 0L328 688L648 0L544 0M221 240L435 240L328 476L221 240Z"  horiz-adv-x="656" vert-adv-y="1000"  />

      
      <glyph glyph-name="unic6" unicode="&#xc6;" d="M744 576L456 576L456 384L696 384L696 288L456 288L456 96L744 96L744 0L360 0L360 144L186 144L112 0L8 0L360 672L744 672L744 576M236 240L360 240L360 480L236 240Z"  horiz-adv-x="800" vert-adv-y="1000"  />

      
      <glyph glyph-name="unic7" unicode="&#xc7;" d="M600 71Q526 3 419-7L381-48Q437-35 478.50-69Q520-103 520-160Q520-222 477-263Q434-304 369-304Q290-304 248-241L296-196Q321-240 376-240Q414-240 439-217Q464-194 464-159Q464-129 443-108.50Q422-88 392-88Q355-88 325-112L293-64L349-6Q218 10 129 107.50Q40 205 40 336Q40 478 142.50 579Q245 680 390 680Q447 680 503 660Q559 640 600 602L559 512Q489 584 384 584Q281 584 208.50 511.50Q136 439 136 336Q136 233 208.50 160.50Q281 88 384 88Q489 88 559 161L600 71Z"  horiz-adv-x="640" vert-adv-y="1000"  />

      
      <glyph glyph-name="unic8" unicode="&#xc8;" d="M336 736L272 736L144 864L256 864L336 736M456 576L168 576L168 384L408 384L408 288L168 288L168 96L456 96L456 0L72 0L72 672L456 672L456 576Z"  horiz-adv-x="512" vert-adv-y="1000"  />

      
      <glyph glyph-name="unic9" unicode="&#xc9;" d="M192 736L272 864L384 864L256 736L192 736M456 576L168 576L168 384L408 384L408 288L168 288L168 96L456 96L456 0L72 0L72 672L456 672L456 576Z"  horiz-adv-x="512" vert-adv-y="1000"  />

      
      <glyph glyph-name="unica" unicode="&#xca;" d="M309 736L256 788L203 736L104 736L256 872L408 736L309 736M456 576L168 576L168 384L408 384L408 288L168 288L168 96L456 96L456 0L72 0L72 672L456 672L456 576Z"  horiz-adv-x="512" vert-adv-y="1000"  />

      
      <glyph glyph-name="unicb" unicode="&#xcb;" d="M168 736Q145 736 128.50 752.50Q112 769 112 792Q112 816 128.50 832Q145 848 168 848Q192 848 208 832Q224 816 224 792Q224 769 208 752.50Q192 736 168 736M344 736Q321 736 304.50 752.50Q288 769 288 792Q288 816 304.50 832Q321 848 344 848Q368 848 384 832Q400 816 400 792Q400 769 384 752.50Q368 736 344 736M456 576L168 576L168 384L408 384L408 288L168 288L168 96L456 96L456 0L72 0L72 672L456 672L456 576Z"  horiz-adv-x="512" vert-adv-y="1000"  />

      
      <glyph glyph-name="unicc" unicode="&#xcc;" d="M168 736L104 736L-24 864L88 864L168 736M168 0L72 0L72 672L168 672L168 0Z"  horiz-adv-x="240" vert-adv-y="1000"  />

      
      <glyph glyph-name="unicd" unicode="&#xcd;" d="M72 736L152 864L264 864L136 736L72 736M168 0L72 0L72 672L168 672L168 0Z"  horiz-adv-x="240" vert-adv-y="1000"  />

      
      <glyph glyph-name="unice" unicode="&#xce;" d="M173 736L120 788L67 736L-32 736L120 872L272 736L173 736M168 0L72 0L72 672L168 672L168 0Z"  horiz-adv-x="240" vert-adv-y="1000"  />

      
      <glyph glyph-name="unicf" unicode="&#xcf;" d="M32 736Q9 736-7.50 752.50Q-24 769-24 792Q-24 816-7.50 832Q9 848 32 848Q56 848 72 832Q88 816 88 792Q88 769 72 752.50Q56 736 32 736M208 736Q185 736 168.50 752.50Q152 769 152 792Q152 816 168.50 832Q185 848 208 848Q232 848 248 832Q264 816 264 792Q264 769 248 752.50Q232 736 208 736M168 0L72 0L72 672L168 672L168 0Z"  horiz-adv-x="240" vert-adv-y="1000"  />

      
      <glyph glyph-name="unid0" unicode="&#xd0;" d="M289 672Q451 672 541.50 577Q632 482 632 336Q632 191 540 95.50Q448 0 289 0L88 0L88 304L24 304L24 368L88 368L88 672L289 672M314 96Q411 96 473.50 165.50Q536 235 536 336Q536 437 473.50 506.50Q411 576 314 576L184 576L184 368L248 368L248 304L184 304L184 96L314 96Z"  horiz-adv-x="672" vert-adv-y="1000"  />

      
      <glyph glyph-name="unid1" unicode="&#xd1;" d="M467 832L528 811Q491 736 420 736Q394 736 348 754Q310 772 281.50 769.50Q253 767 237 736L176 759Q216 832 286 832Q311 832 354 815Q393 796 422 798Q451 800 467 832M632-16L168 460L168 0L72 0L72 688L536 212L536 672L632 672L632-16Z"  horiz-adv-x="704" vert-adv-y="1000"  />

      
      <glyph glyph-name="unid2" unicode="&#xd2;" d="M440 736L376 736L248 864L360 864L440 736M141 579Q141 579 191.50 629.50Q242 680 384 680Q526 680 627 579Q728 478 728 336Q728 194 627 93Q526-8 384-8Q242-8 141 93Q40 194 40 336Q40 478 141 579M208 160Q208 160 244 124Q280 88 384 88Q488 88 560 160Q632 232 632 336Q632 440 560 512Q488 584 384 584Q280 584 208 512Q136 440 136 336Q136 232 208 160Z"  horiz-adv-x="768" vert-adv-y="1000"  />

      
      <glyph glyph-name="unid3" unicode="&#xd3;" d="M328 736L408 864L520 864L392 736L328 736M141 579Q141 579 191.50 629.50Q242 680 384 680Q526 680 627 579Q728 478 728 336Q728 194 627 93Q526-8 384-8Q242-8 141 93Q40 194 40 336Q40 478 141 579M208 160Q208 160 244 124Q280 88 384 88Q488 88 560 160Q632 232 632 336Q632 440 560 512Q488 584 384 584Q280 584 208 512Q136 440 136 336Q136 232 208 160Z"  horiz-adv-x="768" vert-adv-y="1000"  />

      
      <glyph glyph-name="unid4" unicode="&#xd4;" d="M437 736L384 788L331 736L232 736L384 872L536 736L437 736M141 579Q141 579 191.50 629.50Q242 680 384 680Q526 680 627 579Q728 478 728 336Q728 194 627 93Q526-8 384-8Q242-8 141 93Q40 194 40 336Q40 478 141 579M208 160Q208 160 244 124Q280 88 384 88Q488 88 560 160Q632 232 632 336Q632 440 560 512Q488 584 384 584Q280 584 208 512Q136 440 136 336Q136 232 208 160Z"  horiz-adv-x="768" vert-adv-y="1000"  />

      
      <glyph glyph-name="unid5" unicode="&#xd5;" d="M499 832L560 811Q523 736 452 736Q426 736 380 754Q342 772 313.50 769.50Q285 767 269 736L208 759Q248 832 318 832Q343 832 386 815Q425 796 454 798Q483 800 499 832M141 579Q141 579 191.50 629.50Q242 680 384 680Q526 680 627 579Q728 478 728 336Q728 194 627 93Q526-8 384-8Q242-8 141 93Q40 194 40 336Q40 478 141 579M208 160Q208 160 244 124Q280 88 384 88Q488 88 560 160Q632 232 632 336Q632 440 560 512Q488 584 384 584Q280 584 208 512Q136 440 136 336Q136 232 208 160Z"  horiz-adv-x="768" vert-adv-y="1000"  />

      
      <glyph glyph-name="unid6" unicode="&#xd6;" d="M296 736Q273 736 256.50 752.50Q240 769 240 792Q240 816 256.50 832Q273 848 296 848Q320 848 336 832Q352 816 352 792Q352 769 336 752.50Q320 736 296 736M472 736Q449 736 432.50 752.50Q416 769 416 792Q416 816 432.50 832Q449 848 472 848Q496 848 512 832Q528 816 528 792Q528 769 512 752.50Q496 736 472 736M141 579Q141 579 191.50 629.50Q242 680 384 680Q526 680 627 579Q728 478 728 336Q728 194 627 93Q526-8 384-8Q242-8 141 93Q40 194 40 336Q40 478 141 579M208 160Q208 160 244 124Q280 88 384 88Q488 88 560 160Q632 232 632 336Q632 440 560 512Q488 584 384 584Q280 584 208 512Q136 440 136 336Q136 232 208 160Z"  horiz-adv-x="768" vert-adv-y="1000"  />

      
      <glyph glyph-name="unid7" unicode="&#xd7;" d="M336 467L382 421L264 304L382 187L336 141L219 259L102 141L56 187L174 304L56 421L102 467L219 349L336 467Z"  horiz-adv-x="438" vert-adv-y="1000"  />

      
      <glyph glyph-name="unid8" unicode="&#xd8;" d="M624 583Q728 481 728 336Q728 194 627 93Q526-8 384-8Q268-8 177 61L124 0L68 0L144 89Q40 191 40 336Q40 478 141 579Q242 680 384 680Q500 680 591 611L644 672L700 672L624 583M136 336Q136 233 207 162L529 538Q464 584 384 584Q280 584 208 512Q136 440 136 336M384 88Q488 88 560 160Q632 232 632 336Q632 439 561 510L239 134Q304 88 384 88Z"  horiz-adv-x="768" vert-adv-y="1000"  />

      
      <glyph glyph-name="unid9" unicode="&#xd9;" d="M376 736L312 736L184 864L296 864L376 736M472 672L568 672L568 296Q568 157 503.50 74.50Q439-8 312-8Q182-8 119 74Q56 156 56 296L56 672L152 672L152 264Q152 185 194.50 136.50Q237 88 312 88Q386 88 429 136.50Q472 185 472 264L472 672Z"  horiz-adv-x="624" vert-adv-y="1000"  />

      
      <glyph glyph-name="unida" unicode="&#xda;" d="M248 736L328 864L440 864L312 736L248 736M472 672L568 672L568 296Q568 157 503.50 74.50Q439-8 312-8Q182-8 119 74Q56 156 56 296L56 672L152 672L152 264Q152 185 194.50 136.50Q237 88 312 88Q386 88 429 136.50Q472 185 472 264L472 672Z"  horiz-adv-x="624" vert-adv-y="1000"  />

      
      <glyph glyph-name="unidb" unicode="&#xdb;" d="M365 736L312 788L259 736L160 736L312 872L464 736L365 736M472 672L568 672L568 296Q568 157 503.50 74.50Q439-8 312-8Q182-8 119 74Q56 156 56 296L56 672L152 672L152 264Q152 185 194.50 136.50Q237 88 312 88Q386 88 429 136.50Q472 185 472 264L472 672Z"  horiz-adv-x="624" vert-adv-y="1000"  />

      
      <glyph glyph-name="unidc" unicode="&#xdc;" d="M224 736Q201 736 184.50 752.50Q168 769 168 792Q168 816 184.50 832Q201 848 224 848Q248 848 264 832Q280 816 280 792Q280 769 264 752.50Q248 736 224 736M400 736Q377 736 360.50 752.50Q344 769 344 792Q344 816 360.50 832Q377 848 400 848Q424 848 440 832Q456 816 456 792Q456 769 440 752.50Q424 736 400 736M472 672L568 672L568 296Q568 157 503.50 74.50Q439-8 312-8Q182-8 119 74Q56 156 56 296L56 672L152 672L152 264Q152 185 194.50 136.50Q237 88 312 88Q386 88 429 136.50Q472 185 472 264L472 672Z"  horiz-adv-x="624" vert-adv-y="1000"  />

      
      <glyph glyph-name="unidd" unicode="&#xdd;" d="M248 736L328 864L440 864L312 736L248 736M476 672L584 672L344 272L344 0L248 0L248 272L8 672L116 672L296 364L476 672Z"  horiz-adv-x="592" vert-adv-y="1000"  />

      
      <glyph glyph-name="unide" unicode="&#xde;" d="M280 572Q407 572 471.50 514Q536 456 536 357Q536 260 475 196Q414 132 310 132L168 132L168 0L72 0L72 704L168 704L168 572L280 572M311 228Q368 228 404 258.50Q440 289 440 351Q440 413 401 444.50Q362 476 305 476L168 476L168 228L311 228Z"  horiz-adv-x="576" vert-adv-y="1000"  />

      
      <glyph glyph-name="unidf" unicode="&#xdf;" d="M152 0L152 504Q152 552 182.50 584Q213 616 258 616Q301 616 330.50 593Q360 570 360 528Q360 484 320 453Q271 416 184 416L184 320Q278 320 327 304Q363 292 385.50 264Q408 236 408 200Q408 153 382.50 126Q357 99 317.50 93Q278 87 246 88.50Q214 90 184 96L184 0Q227-8 271-8Q378-8 441 55Q504 118 504 204Q504 268 467 319Q430 370 369 384Q401 400 430 440Q459 480 459 532Q459 602 409.50 657Q360 712 266 712Q251 712 235 710.50Q219 709 183.50 696.50Q148 684 122.50 663Q97 642 76.50 596Q56 550 56 488L56 0L152 0Z"  horiz-adv-x="544" vert-adv-y="1000"  />

      
      <glyph glyph-name="unie0" unicode="&#xe0;" d="M424 544L360 544L232 672L344 672L424 544M440 480L536 480L536 0L440 0L440 70Q380-8 280-8Q176-8 108 64Q40 136 40 240Q40 344 108 416Q176 488 280 488Q380 488 440 410L440 480M180.50 132.50Q180.50 132.50 202.75 110.25Q225 88 288 88Q351 88 395.50 132.50Q440 177 440 240Q440 303 395.50 347.50Q351 392 288 392Q225 392 180.50 347.50Q136 303 136 240Q136 177 180.50 132.50Z"  horiz-adv-x="608" vert-adv-y="1000"  />

      
      <glyph glyph-name="unie1" unicode="&#xe1;" d="M264 544L344 672L456 672L328 544L264 544M440 480L536 480L536 0L440 0L440 70Q380-8 280-8Q176-8 108 64Q40 136 40 240Q40 344 108 416Q176 488 280 488Q380 488 440 410L440 480M180.50 132.50Q180.50 132.50 202.75 110.25Q225 88 288 88Q351 88 395.50 132.50Q440 177 440 240Q440 303 395.50 347.50Q351 392 288 392Q225 392 180.50 347.50Q136 303 136 240Q136 177 180.50 132.50Z"  horiz-adv-x="608" vert-adv-y="1000"  />

      
      <glyph glyph-name="unie2" unicode="&#xe2;" d="M373 544L320 596L267 544L168 544L320 680L472 544L373 544M440 480L536 480L536 0L440 0L440 70Q380-8 280-8Q176-8 108 64Q40 136 40 240Q40 344 108 416Q176 488 280 488Q380 488 440 410L440 480M180.50 132.50Q180.50 132.50 202.75 110.25Q225 88 288 88Q351 88 395.50 132.50Q440 177 440 240Q440 303 395.50 347.50Q351 392 288 392Q225 392 180.50 347.50Q136 303 136 240Q136 177 180.50 132.50Z"  horiz-adv-x="608" vert-adv-y="1000"  />

      
      <glyph glyph-name="unie3" unicode="&#xe3;" d="M435 640L496 619Q459 544 388 544Q362 544 316 562Q278 580 249.50 577.50Q221 575 205 544L144 567Q184 640 254 640Q279 640 322 623Q361 604 390 606Q419 608 435 640M440 480L536 480L536 0L440 0L440 70Q380-8 280-8Q176-8 108 64Q40 136 40 240Q40 344 108 416Q176 488 280 488Q380 488 440 410L440 480M180.50 132.50Q180.50 132.50 202.75 110.25Q225 88 288 88Q351 88 395.50 132.50Q440 177 440 240Q440 303 395.50 347.50Q351 392 288 392Q225 392 180.50 347.50Q136 303 136 240Q136 177 180.50 132.50Z"  horiz-adv-x="608" vert-adv-y="1000"  />

      
      <glyph glyph-name="unie4" unicode="&#xe4;" d="M232 544Q209 544 192.50 560.50Q176 577 176 600Q176 624 192.50 640Q209 656 232 656Q256 656 272 640Q288 624 288 600Q288 577 272 560.50Q256 544 232 544M408 544Q385 544 368.50 560.50Q352 577 352 600Q352 624 368.50 640Q385 656 408 656Q432 656 448 640Q464 624 464 600Q464 577 448 560.50Q432 544 408 544M440 480L536 480L536 0L440 0L440 70Q380-8 280-8Q176-8 108 64Q40 136 40 240Q40 344 108 416Q176 488 280 488Q380 488 440 410L440 480M180.50 132.50Q180.50 132.50 202.75 110.25Q225 88 288 88Q351 88 395.50 132.50Q440 177 440 240Q440 303 395.50 347.50Q351 392 288 392Q225 392 180.50 347.50Q136 303 136 240Q136 177 180.50 132.50Z"  horiz-adv-x="608" vert-adv-y="1000"  />

      
      <glyph glyph-name="unie5" unicode="&#xe5;" d="M249 703Q249 703 265.50 719.50Q282 736 328 736Q374 736 407 703Q440 670 440 624Q440 578 407 545Q374 512 328 512Q282 512 249 545Q216 578 216 624Q216 670 249 703M288.50 584.50Q288.50 584.50 296.75 576.25Q305 568 328 568Q351 568 367.50 584.50Q384 601 384 624Q384 647 367.50 663.50Q351 680 328 680Q305 680 288.50 663.50Q272 647 272 624Q272 601 288.50 584.50M440 480L536 480L536 0L440 0L440 70Q380-8 280-8Q176-8 108 64Q40 136 40 240Q40 344 108 416Q176 488 280 488Q380 488 440 410L440 480M180.50 132.50Q180.50 132.50 202.75 110.25Q225 88 288 88Q351 88 395.50 132.50Q440 177 440 240Q440 303 395.50 347.50Q351 392 288 392Q225 392 180.50 347.50Q136 303 136 240Q136 177 180.50 132.50Z"  horiz-adv-x="608" vert-adv-y="1000"  />

      
      <glyph glyph-name="unie6" unicode="&#xe6;" d="M840 238Q840 216 837 196L474 196Q485 142 527.50 115Q570 88 630 88Q708 88 776 136L808 50Q739-8 628-8Q536-8 472 37L472 0L376 0L376 49Q354 22 308.50 7Q263-8 220-8Q139-8 89.50 36Q40 80 40 152Q40 241 137 284Q223 323 376 290Q376 321 363 342.50Q350 364 328.50 374Q307 384 287.50 388Q268 392 246 392Q167 392 105 347L60 424Q75 436 95.50 448Q116 460 161.50 474Q207 488 254 488Q384 488 435 410Q503 488 615 488Q713 488 776.50 420Q840 352 840 238M474 284L742 284Q740 325 707 358.50Q674 392 611 392Q550 392 513 358Q476 324 474 284M376 168L376 206Q262 231 199 213.50Q136 196 136 150Q136 121 161 104.50Q186 88 222 88Q279 88 327.50 111.50Q376 135 376 168Z"  horiz-adv-x="880" vert-adv-y="1000"  />

      
      <glyph glyph-name="unie7" unicode="&#xe7;" d="M456 47Q407 1 323-7L285-48Q341-35 382.50-69Q424-103 424-160Q424-222 381-263Q338-304 273-304Q194-304 152-241L200-196Q225-240 280-240Q318-240 343-217Q368-194 368-159Q368-129 347-108.50Q326-88 296-88Q259-88 229-112L197-64L253-5Q154 8 97 76.50Q40 145 40 240Q40 346 110 417Q180 488 296 488Q395 488 456 433L415 344Q365 392 297 392Q231 392 183.50 347.50Q136 303 136 241Q136 178 183 133Q230 88 297 88Q366 88 415 137L456 47Z"  horiz-adv-x="496" vert-adv-y="1000"  />

      
      <glyph glyph-name="unie8" unicode="&#xe8;" d="M344 544L280 544L152 672L264 672L344 544M504 238Q504 216 501 196L138 196Q149 142 191.50 115Q234 88 294 88Q372 88 440 136L472 50Q403-8 292-8Q171-8 105.50 62.50Q40 133 40 240Q40 346 105.50 417Q171 488 279 488Q377 488 440.50 420Q504 352 504 238M138 284L406 284Q404 325 371 358.50Q338 392 275 392Q214 392 177 358Q140 324 138 284Z"  horiz-adv-x="544" vert-adv-y="1000"  />

      
      <glyph glyph-name="unie9" unicode="&#xe9;" d="M224 544L304 672L416 672L288 544L224 544M504 238Q504 216 501 196L138 196Q149 142 191.50 115Q234 88 294 88Q372 88 440 136L472 50Q403-8 292-8Q171-8 105.50 62.50Q40 133 40 240Q40 346 105.50 417Q171 488 279 488Q377 488 440.50 420Q504 352 504 238M138 284L406 284Q404 325 371 358.50Q338 392 275 392Q214 392 177 358Q140 324 138 284Z"  horiz-adv-x="544" vert-adv-y="1000"  />

      
      <glyph glyph-name="uniea" unicode="&#xea;" d="M325 544L272 596L219 544L120 544L272 680L424 544L325 544M504 238Q504 216 501 196L138 196Q149 142 191.50 115Q234 88 294 88Q372 88 440 136L472 50Q403-8 292-8Q171-8 105.50 62.50Q40 133 40 240Q40 346 105.50 417Q171 488 279 488Q377 488 440.50 420Q504 352 504 238M138 284L406 284Q404 325 371 358.50Q338 392 275 392Q214 392 177 358Q140 324 138 284Z"  horiz-adv-x="544" vert-adv-y="1000"  />

      
      <glyph glyph-name="unieb" unicode="&#xeb;" d="M184 544Q161 544 144.50 560.50Q128 577 128 600Q128 624 144.50 640Q161 656 184 656Q208 656 224 640Q240 624 240 600Q240 577 224 560.50Q208 544 184 544M360 544Q337 544 320.50 560.50Q304 577 304 600Q304 624 320.50 640Q337 656 360 656Q384 656 400 640Q416 624 416 600Q416 577 400 560.50Q384 544 360 544M504 238Q504 216 501 196L138 196Q149 142 191.50 115Q234 88 294 88Q372 88 440 136L472 50Q403-8 292-8Q171-8 105.50 62.50Q40 133 40 240Q40 346 105.50 417Q171 488 279 488Q377 488 440.50 420Q504 352 504 238M138 284L406 284Q404 325 371 358.50Q338 392 275 392Q214 392 177 358Q140 324 138 284Z"  horiz-adv-x="544" vert-adv-y="1000"  />

      
      <glyph glyph-name="uniec" unicode="&#xec;" d="M168 544L104 544L-24 672L88 672L168 544M72 0L72 480L168 480L168 0L72 0Z"  horiz-adv-x="240" vert-adv-y="1000"  />

      
      <glyph glyph-name="unied" unicode="&#xed;" d="M72 544L152 672L264 672L136 544L72 544M72 0L72 480L168 480L168 0L72 0Z"  horiz-adv-x="240" vert-adv-y="1000"  />

      
      <glyph glyph-name="uniee" unicode="&#xee;" d="M173 544L120 596L67 544L-32 544L120 680L272 544L173 544M72 0L72 480L168 480L168 0L72 0Z"  horiz-adv-x="240" vert-adv-y="1000"  />

      
      <glyph glyph-name="unief" unicode="&#xef;" d="M32 544Q9 544-7.50 560.50Q-24 577-24 600Q-24 624-7.50 640Q9 656 32 656Q56 656 72 640Q88 624 88 600Q88 577 72 560.50Q56 544 32 544M208 544Q185 544 168.50 560.50Q152 577 152 600Q152 624 168.50 640Q185 656 208 656Q232 656 248 640Q264 624 264 600Q264 577 248 560.50Q232 544 208 544M72 0L72 480L168 480L168 0L72 0Z"  horiz-adv-x="240" vert-adv-y="1000"  />

      
      <glyph glyph-name="unif0" unicode="&#xf0;" d="M317 603Q536 413 536 240Q536 137 463.50 64.50Q391-8 288-8Q185-8 112.50 64.50Q40 137 40 240Q40 342 111 413.50Q182 485 287 485Q308 485 323 482Q284 527 227 571L56 511L56 575L170 615L90 672L160 720L258 648L424 705L424 640L317 603M181 133Q181 133 203.50 110.50Q226 88 288 88Q350 88 395 133Q440 178 440 240Q440 302 395 347Q350 392 288 392Q226 392 181 347Q136 302 136 240Q136 178 181 133Z"  horiz-adv-x="576" vert-adv-y="1000"  />

      
      <glyph glyph-name="unif1" unicode="&#xf1;" d="M395 640L456 619Q419 544 348 544Q322 544 276 562Q238 580 209.50 577.50Q181 575 165 544L104 567Q144 640 214 640Q239 640 282 623Q321 604 350 606Q379 608 395 640M318 488Q405 488 454.50 434Q504 380 504 276L504 0L408 0L408 268Q408 329 383.50 360.50Q359 392 300 392Q252 392 210 356.50Q168 321 168 264L168 0L72 0L72 480L168 480L168 424Q224 488 318 488Z"  horiz-adv-x="560" vert-adv-y="1000"  />

      
      <glyph glyph-name="unif2" unicode="&#xf2;" d="M344 544L280 544L152 672L264 672L344 544M112.50 415.50Q112.50 415.50 148.75 451.75Q185 488 288 488Q391 488 463.50 415.50Q536 343 536 240Q536 137 463.50 64.50Q391-8 288-8Q185-8 112.50 64.50Q40 137 40 240Q40 343 112.50 415.50M181 133Q181 133 203.50 110.50Q226 88 288 88Q350 88 395 133Q440 178 440 240Q440 302 395 347Q350 392 288 392Q226 392 181 347Q136 302 136 240Q136 178 181 133Z"  horiz-adv-x="576" vert-adv-y="1000"  />

      
      <glyph glyph-name="unif3" unicode="&#xf3;" d="M232 544L312 672L424 672L296 544L232 544M112.50 415.50Q112.50 415.50 148.75 451.75Q185 488 288 488Q391 488 463.50 415.50Q536 343 536 240Q536 137 463.50 64.50Q391-8 288-8Q185-8 112.50 64.50Q40 137 40 240Q40 343 112.50 415.50M181 133Q181 133 203.50 110.50Q226 88 288 88Q350 88 395 133Q440 178 440 240Q440 302 395 347Q350 392 288 392Q226 392 181 347Q136 302 136 240Q136 178 181 133Z"  horiz-adv-x="576" vert-adv-y="1000"  />

      
      <glyph glyph-name="unif4" unicode="&#xf4;" d="M341 544L288 596L235 544L136 544L288 680L440 544L341 544M112.50 415.50Q112.50 415.50 148.75 451.75Q185 488 288 488Q391 488 463.50 415.50Q536 343 536 240Q536 137 463.50 64.50Q391-8 288-8Q185-8 112.50 64.50Q40 137 40 240Q40 343 112.50 415.50M181 133Q181 133 203.50 110.50Q226 88 288 88Q350 88 395 133Q440 178 440 240Q440 302 395 347Q350 392 288 392Q226 392 181 347Q136 302 136 240Q136 178 181 133Z"  horiz-adv-x="576" vert-adv-y="1000"  />

      
      <glyph glyph-name="unif5" unicode="&#xf5;" d="M403 640L464 619Q427 544 356 544Q330 544 284 562Q246 580 217.50 577.50Q189 575 173 544L112 567Q152 640 222 640Q247 640 290 623Q329 604 358 606Q387 608 403 640M112.50 415.50Q112.50 415.50 148.75 451.75Q185 488 288 488Q391 488 463.50 415.50Q536 343 536 240Q536 137 463.50 64.50Q391-8 288-8Q185-8 112.50 64.50Q40 137 40 240Q40 343 112.50 415.50M181 133Q181 133 203.50 110.50Q226 88 288 88Q350 88 395 133Q440 178 440 240Q440 302 395 347Q350 392 288 392Q226 392 181 347Q136 302 136 240Q136 178 181 133Z"  horiz-adv-x="576" vert-adv-y="1000"  />

      
      <glyph glyph-name="unif6" unicode="&#xf6;" d="M200 544Q177 544 160.50 560.50Q144 577 144 600Q144 624 160.50 640Q177 656 200 656Q224 656 240 640Q256 624 256 600Q256 577 240 560.50Q224 544 200 544M376 544Q353 544 336.50 560.50Q320 577 320 600Q320 624 336.50 640Q353 656 376 656Q400 656 416 640Q432 624 432 600Q432 577 416 560.50Q400 544 376 544M112.50 415.50Q112.50 415.50 148.75 451.75Q185 488 288 488Q391 488 463.50 415.50Q536 343 536 240Q536 137 463.50 64.50Q391-8 288-8Q185-8 112.50 64.50Q40 137 40 240Q40 343 112.50 415.50M181 133Q181 133 203.50 110.50Q226 88 288 88Q350 88 395 133Q440 178 440 240Q440 302 395 347Q350 392 288 392Q226 392 181 347Q136 302 136 240Q136 178 181 133Z"  horiz-adv-x="576" vert-adv-y="1000"  />

      
      <glyph glyph-name="unif7" unicode="&#xf7;" d="M240 416Q210 416 189 437Q168 458 168 488Q168 519 189 539.50Q210 560 240 560Q271 560 291.50 539.50Q312 519 312 488Q312 458 291.50 437Q271 416 240 416M56 336L424 336L424 272L56 272L56 336M240 48Q210 48 189 69Q168 90 168 120Q168 151 189 171.50Q210 192 240 192Q271 192 291.50 171.50Q312 151 312 120Q312 90 291.50 69Q271 48 240 48Z"  horiz-adv-x="480" vert-adv-y="1000"  />

      
      <glyph glyph-name="unif8" unicode="&#xf8;" d="M466 413Q536 340 536 240Q536 137 463.50 64.50Q391-8 288-8Q208-8 142 39L108 0L52 0L110 67Q40 140 40 240Q40 343 112.50 415.50Q185 488 288 488Q368 488 434 441L468 480L524 480L466 413M136 240Q136 183 174 140L370 367Q332 392 288 392Q226 392 181 347Q136 302 136 240M288 88Q350 88 395 133Q440 178 440 240Q440 297 402 340L206 113Q243 88 288 88Z"  horiz-adv-x="576" vert-adv-y="1000"  />

      
      <glyph glyph-name="unif9" unicode="&#xf9;" d="M328 544L264 544L136 672L248 672L328 544M242-8Q155-8 105.50 46Q56 100 56 204L56 480L152 480L152 212Q152 151 176.50 119.50Q201 88 260 88Q308 88 350 123.50Q392 159 392 216L392 480L488 480L488 0L392 0L392 56Q336-8 242-8Z"  horiz-adv-x="560" vert-adv-y="1000"  />

      
      <glyph glyph-name="unifa" unicode="&#xfa;" d="M216 544L296 672L408 672L280 544L216 544M242-8Q155-8 105.50 46Q56 100 56 204L56 480L152 480L152 212Q152 151 176.50 119.50Q201 88 260 88Q308 88 350 123.50Q392 159 392 216L392 480L488 480L488 0L392 0L392 56Q336-8 242-8Z"  horiz-adv-x="560" vert-adv-y="1000"  />

      
      <glyph glyph-name="unifb" unicode="&#xfb;" d="M325 544L272 596L219 544L120 544L272 680L424 544L325 544M242-8Q155-8 105.50 46Q56 100 56 204L56 480L152 480L152 212Q152 151 176.50 119.50Q201 88 260 88Q308 88 350 123.50Q392 159 392 216L392 480L488 480L488 0L392 0L392 56Q336-8 242-8Z"  horiz-adv-x="560" vert-adv-y="1000"  />

      
      <glyph glyph-name="unifc" unicode="&#xfc;" d="M184 544Q161 544 144.50 560.50Q128 577 128 600Q128 624 144.50 640Q161 656 184 656Q208 656 224 640Q240 624 240 600Q240 577 224 560.50Q208 544 184 544M360 544Q337 544 320.50 560.50Q304 577 304 600Q304 624 320.50 640Q337 656 360 656Q384 656 400 640Q416 624 416 600Q416 577 400 560.50Q384 544 360 544M242-8Q155-8 105.50 46Q56 100 56 204L56 480L152 480L152 212Q152 151 176.50 119.50Q201 88 260 88Q308 88 350 123.50Q392 159 392 216L392 480L488 480L488 0L392 0L392 56Q336-8 242-8Z"  horiz-adv-x="560" vert-adv-y="1000"  />

      
      <glyph glyph-name="unifd" unicode="&#xfd;" d="M196 544L276 672L388 672L260 544L196 544M397 480L504 480L179-256L74-256L202 31L8 480L115 480L256 148L397 480Z"  horiz-adv-x="512" vert-adv-y="1000"  />

      
      <glyph glyph-name="unife" unicode="&#xfe;" d="M328 488Q432 488 500 416Q568 344 568 240Q568 136 500 64Q432-8 328-8Q228-8 168 70L168-256L72-256L72 704L168 704L168 410Q228 488 328 488M212.50 132.50Q212.50 132.50 234.75 110.25Q257 88 320 88Q383 88 427.50 132.50Q472 177 472 240Q472 303 427.50 347.50Q383 392 320 392Q257 392 212.50 347.50Q168 303 168 240Q168 177 212.50 132.50Z"  horiz-adv-x="608" vert-adv-y="1000"  />

      
      <glyph glyph-name="uniff" unicode="&#xff;" d="M168 544Q145 544 128.50 560.50Q112 577 112 600Q112 624 128.50 640Q145 656 168 656Q192 656 208 640Q224 624 224 600Q224 577 208 560.50Q192 544 168 544M344 544Q321 544 304.50 560.50Q288 577 288 600Q288 624 304.50 640Q321 656 344 656Q368 656 384 640Q400 624 400 600Q400 577 384 560.50Q368 544 344 544M397 480L504 480L179-256L74-256L202 31L8 480L115 480L256 148L397 480Z"  horiz-adv-x="512" vert-adv-y="1000"  />

      
      <glyph glyph-name="uni0100" unicode="&#x0100;" d="M464 752L192 752L192 808L464 808L464 752M544 0L479 144L177 144L112 0L8 0L328 688L648 0L544 0M221 240L435 240L328 476L221 240Z"  horiz-adv-x="656" vert-adv-y="1000"  />

      
      <glyph glyph-name="uni0101" unicode="&#x0101;" d="M456 560L184 560L184 616L456 616L456 560M440 480L536 480L536 0L440 0L440 70Q380-8 280-8Q176-8 108 64Q40 136 40 240Q40 344 108 416Q176 488 280 488Q380 488 440 410L440 480M180.50 132.50Q180.50 132.50 202.75 110.25Q225 88 288 88Q351 88 395.50 132.50Q440 177 440 240Q440 303 395.50 347.50Q351 392 288 392Q225 392 180.50 347.50Q136 303 136 240Q136 177 180.50 132.50Z"  horiz-adv-x="608" vert-adv-y="1000"  />

      
      <glyph glyph-name="uni0102" unicode="&#x0102;" d="M400 864L456 864Q456 811 418.50 773.50Q381 736 328 736Q275 736 237.50 773.50Q200 811 200 864L256 864Q256 834 277 813Q298 792 328 792Q358 792 379 813Q400 834 400 864M544 0L479 144L177 144L112 0L8 0L328 688L648 0L544 0M221 240L435 240L328 476L221 240Z"  horiz-adv-x="656" vert-adv-y="1000"  />

      
      <glyph glyph-name="uni0103" unicode="&#x0103;" d="M392 672L448 672Q448 619 410.50 581.50Q373 544 320 544Q267 544 229.50 581.50Q192 619 192 672L248 672Q248 642 269 621Q290 600 320 600Q350 600 371 621Q392 642 392 672M440 480L536 480L536 0L440 0L440 70Q380-8 280-8Q176-8 108 64Q40 136 40 240Q40 344 108 416Q176 488 280 488Q380 488 440 410L440 480M180.50 132.50Q180.50 132.50 202.75 110.25Q225 88 288 88Q351 88 395.50 132.50Q440 177 440 240Q440 303 395.50 347.50Q351 392 288 392Q225 392 180.50 347.50Q136 303 136 240Q136 177 180.50 132.50Z"  horiz-adv-x="608" vert-adv-y="1000"  />

      
      <glyph glyph-name="uni0104" unicode="&#x0104;" d="M664-142L680-192Q658-208 626-208Q574-208 543-173Q512-138 512-84Q512-32 544 0L479 144L177 144L112 0L8 0L328 688L648 0Q618 0 593-22.50Q568-45 568-84Q568-129 599-145Q630-161 664-142M221 240L435 240L328 476L221 240Z"  horiz-adv-x="656" vert-adv-y="1000"  />

      
      <glyph glyph-name="uni0105" unicode="&#x0105;" d="M552-142L568-192Q546-208 514-208Q462-208 431-173Q400-138 400-84Q400-30 440 8L440 70Q380-8 280-8Q176-8 108 64Q40 136 40 240Q40 344 108 416Q176 488 280 488Q380 488 440 410L440 480L536 480L536 0Q508 0 482-26Q456-52 456-84Q456-129 487-145Q518-161 552-142M180.50 132.50Q180.50 132.50 202.75 110.25Q225 88 288 88Q351 88 395.50 132.50Q440 177 440 240Q440 303 395.50 347.50Q351 392 288 392Q225 392 180.50 347.50Q136 303 136 240Q136 177 180.50 132.50Z"  horiz-adv-x="608" vert-adv-y="1000"  />

      
      <glyph glyph-name="uni0106" unicode="&#x0106;" d="M328 736L408 864L520 864L392 736L328 736M384 88Q489 88 559 161L600 71Q559 33 502.50 12.50Q446-8 390-8Q245-8 142.50 93Q40 194 40 336Q40 478 142.50 579Q245 680 390 680Q447 680 503 660Q559 640 600 602L559 512Q489 584 384 584Q281 584 208.50 511.50Q136 439 136 336Q136 233 208.50 160.50Q281 88 384 88Z"  horiz-adv-x="640" vert-adv-y="1000"  />

      
      <glyph glyph-name="uni0107" unicode="&#x0107;" d="M232 544L312 672L424 672L296 544L232 544M109.50 63Q109.50 63 74.75 98.50Q40 134 40 240Q40 346 110 417Q180 488 296 488Q395 488 456 433L415 344Q365 392 297 392Q231 392 183.50 347.50Q136 303 136 241Q136 178 183 133Q230 88 297 88Q366 88 415 137L456 47Q398-8 296-8Q179-8 109.50 63Z"  horiz-adv-x="496" vert-adv-y="1000"  />

      
      <glyph glyph-name="uni010A" unicode="&#x010A;" d="M435 741Q435 741 424.50 730.50Q414 720 384 720Q354 720 333 741Q312 762 312 792Q312 822 333 843Q354 864 384 864Q414 864 435 843Q456 822 456 792Q456 762 435 741M384 88Q489 88 559 161L600 71Q559 33 502.50 12.50Q446-8 390-8Q245-8 142.50 93Q40 194 40 336Q40 478 142.50 579Q245 680 390 680Q447 680 503 660Q559 640 600 602L559 512Q489 584 384 584Q281 584 208.50 511.50Q136 439 136 336Q136 233 208.50 160.50Q281 88 384 88Z"  horiz-adv-x="640" vert-adv-y="1000"  />

      
      <glyph glyph-name="uni010B" unicode="&#x010B;" d="M339 549Q339 549 328.50 538.50Q318 528 288 528Q258 528 237 549Q216 570 216 600Q216 630 237 651Q258 672 288 672Q318 672 339 651Q360 630 360 600Q360 570 339 549M109.50 63Q109.50 63 74.75 98.50Q40 134 40 240Q40 346 110 417Q180 488 296 488Q395 488 456 433L415 344Q365 392 297 392Q231 392 183.50 347.50Q136 303 136 241Q136 178 183 133Q230 88 297 88Q366 88 415 137L456 47Q398-8 296-8Q179-8 109.50 63Z"  horiz-adv-x="496" vert-adv-y="1000"  />

      
      <glyph glyph-name="uni010C" unicode="&#x010C;" d="M421 864L520 864L368 728L216 864L315 864L368 812L421 864M384 88Q489 88 559 161L600 71Q559 33 502.50 12.50Q446-8 390-8Q245-8 142.50 93Q40 194 40 336Q40 478 142.50 579Q245 680 390 680Q447 680 503 660Q559 640 600 602L559 512Q489 584 384 584Q281 584 208.50 511.50Q136 439 136 336Q136 233 208.50 160.50Q281 88 384 88Z"  horiz-adv-x="640" vert-adv-y="1000"  />

      
      <glyph glyph-name="uni010D" unicode="&#x010D;" d="M341 672L440 672L288 536L136 672L235 672L288 620L341 672M109.50 63Q109.50 63 74.75 98.50Q40 134 40 240Q40 346 110 417Q180 488 296 488Q395 488 456 433L415 344Q365 392 297 392Q231 392 183.50 347.50Q136 303 136 241Q136 178 183 133Q230 88 297 88Q366 88 415 137L456 47Q398-8 296-8Q179-8 109.50 63Z"  horiz-adv-x="496" vert-adv-y="1000"  />

      
      <glyph glyph-name="uni010E" unicode="&#x010E;" d="M349 864L448 864L296 728L144 864L243 864L296 812L349 864M273 672Q435 672 525.50 577Q616 482 616 336Q616 191 524 95.50Q432 0 273 0L72 0L72 672L273 672M298 96Q395 96 457.50 165.50Q520 235 520 336Q520 437 457.50 506.50Q395 576 298 576L168 576L168 96L298 96Z"  horiz-adv-x="656" vert-adv-y="1000"  />

      
      <glyph glyph-name="uni010F" unicode="&#x010F;" d="M440 704L536 704L536 0L440 0L440 70Q380-8 280-8Q176-8 108 64Q40 136 40 240Q40 344 108 416Q176 488 280 488Q380 488 440 410L440 704M568 544L600 672L696 672L616 544L568 544M180.50 132.50Q180.50 132.50 202.75 110.25Q225 88 288 88Q351 88 395.50 132.50Q440 177 440 240Q440 303 395.50 347.50Q351 392 288 392Q225 392 180.50 347.50Q136 303 136 240Q136 177 180.50 132.50Z"  horiz-adv-x="736" vert-adv-y="1000"  />

      
      <glyph glyph-name="uni0110" unicode="&#x0110;" d="M289 672Q451 672 541.50 577Q632 482 632 336Q632 191 540 95.50Q448 0 289 0L88 0L88 304L24 304L24 368L88 368L88 672L289 672M314 96Q411 96 473.50 165.50Q536 235 536 336Q536 437 473.50 506.50Q411 576 314 576L184 576L184 368L248 368L248 304L184 304L184 96L314 96Z"  horiz-adv-x="672" vert-adv-y="1000"  />

      
      <glyph glyph-name="uni0111" unicode="&#x0111;" d="M600 608L600 560L536 560L536 0L440 0L440 70Q380-8 280-8Q176-8 108 64Q40 136 40 240Q40 344 108 416Q176 488 280 488Q380 488 440 410L440 560L376 560L376 608L440 608L440 704L536 704L536 608L600 608M180.50 132.50Q180.50 132.50 202.75 110.25Q225 88 288 88Q351 88 395.50 132.50Q440 177 440 240Q440 303 395.50 347.50Q351 392 288 392Q225 392 180.50 347.50Q136 303 136 240Q136 177 180.50 132.50Z"  horiz-adv-x="624" vert-adv-y="1000"  />

      
      <glyph glyph-name="uni0112" unicode="&#x0112;" d="M392 752L120 752L120 808L392 808L392 752M456 576L168 576L168 384L408 384L408 288L168 288L168 96L456 96L456 0L72 0L72 672L456 672L456 576Z"  horiz-adv-x="512" vert-adv-y="1000"  />

      
      <glyph glyph-name="uni0113" unicode="&#x0113;" d="M408 560L136 560L136 616L408 616L408 560M504 238Q504 216 501 196L138 196Q149 142 191.50 115Q234 88 294 88Q372 88 440 136L472 50Q403-8 292-8Q171-8 105.50 62.50Q40 133 40 240Q40 346 105.50 417Q171 488 279 488Q377 488 440.50 420Q504 352 504 238M138 284L406 284Q404 325 371 358.50Q338 392 275 392Q214 392 177 358Q140 324 138 284Z"  horiz-adv-x="544" vert-adv-y="1000"  />

      
      <glyph glyph-name="uni0116" unicode="&#x0116;" d="M307 741Q307 741 296.50 730.50Q286 720 256 720Q226 720 205 741Q184 762 184 792Q184 822 205 843Q226 864 256 864Q286 864 307 843Q328 822 328 792Q328 762 307 741M456 576L168 576L168 384L408 384L408 288L168 288L168 96L456 96L456 0L72 0L72 672L456 672L456 576Z"  horiz-adv-x="512" vert-adv-y="1000"  />

      
      <glyph glyph-name="uni0117" unicode="&#x0117;" d="M329 549Q329 549 318.50 538.50Q308 528 278 528Q248 528 227 549Q206 570 206 600Q206 630 227 651Q248 672 278 672Q308 672 329 651Q350 630 350 600Q350 570 329 549M504 238Q504 216 501 196L138 196Q149 142 191.50 115Q234 88 294 88Q372 88 440 136L472 50Q403-8 292-8Q171-8 105.50 62.50Q40 133 40 240Q40 346 105.50 417Q171 488 279 488Q377 488 440.50 420Q504 352 504 238M138 284L406 284Q404 325 371 358.50Q338 392 275 392Q214 392 177 358Q140 324 138 284Z"  horiz-adv-x="544" vert-adv-y="1000"  />

      
      <glyph glyph-name="uni0118" unicode="&#x0118;" d="M472-142L488-192Q466-208 434-208Q382-208 351-173Q320-138 320-84Q320-32 352 0L72 0L72 672L456 672L456 576L168 576L168 384L408 384L408 288L168 288L168 96L456 96L456 0Q426 0 401-22.50Q376-45 376-84Q376-129 407-145Q438-161 472-142Z"  horiz-adv-x="512" vert-adv-y="1000"  />

      
      <glyph glyph-name="uni0119" unicode="&#x0119;" d="M504 238Q504 216 501 196L138 196Q149 142 191.50 115Q234 88 294 88Q372 88 440 136L472 50Q419 7 337-5Q312-9 296-32.50Q280-56 280-84Q280-129 311-145Q342-161 376-142L392-192Q370-208 338-208Q286-208 255-173Q224-138 224-84Q224-39 251-6Q149 6 94.50 74.50Q40 143 40 240Q40 346 105.50 417Q171 488 279 488Q377 488 440.50 420Q504 352 504 238M138 284L406 284Q404 325 371 358.50Q338 392 275 392Q214 392 177 358Q140 324 138 284Z"  horiz-adv-x="544" vert-adv-y="1000"  />

      
      <glyph glyph-name="uni011A" unicode="&#x011A;" d="M309 864L408 864L256 728L104 864L203 864L256 812L309 864M456 576L168 576L168 384L408 384L408 288L168 288L168 96L456 96L456 0L72 0L72 672L456 672L456 576Z"  horiz-adv-x="512" vert-adv-y="1000"  />

      
      <glyph glyph-name="uni011B" unicode="&#x011B;" d="M325 672L424 672L272 536L120 672L219 672L272 620L325 672M504 238Q504 216 501 196L138 196Q149 142 191.50 115Q234 88 294 88Q372 88 440 136L472 50Q403-8 292-8Q171-8 105.50 62.50Q40 133 40 240Q40 346 105.50 417Q171 488 279 488Q377 488 440.50 420Q504 352 504 238M138 284L406 284Q404 325 371 358.50Q338 392 275 392Q214 392 177 358Q140 324 138 284Z"  horiz-adv-x="544" vert-adv-y="1000"  />

      
      <glyph glyph-name="uni011E" unicode="&#x011E;" d="M448 864L504 864Q504 811 466.50 773.50Q429 736 376 736Q323 736 285.50 773.50Q248 811 248 864L304 864Q304 834 325 813Q346 792 376 792Q406 792 427 813Q448 834 448 864M710 367Q712 349 712 336Q712 192 618.50 92Q525-8 384-8Q242-8 141 93Q40 194 40 336Q40 478 141 579Q242 680 384 680Q483 680 560 629.50Q637 579 681 492L584 464Q555 519 502.50 551.50Q450 584 384 584Q281 584 208.50 511.50Q136 439 136 336Q136 233 208.50 160.50Q281 88 384 88Q473 88 533 139.50Q593 191 610 272L360 272L360 368L710 367Z"  horiz-adv-x="752" vert-adv-y="1000"  />

      
      <glyph glyph-name="uni011F" unicode="&#x011F;" d="M392 672L448 672Q448 619 410.50 581.50Q373 544 320 544Q267 544 229.50 581.50Q192 619 192 672L248 672Q248 642 269 621Q290 600 320 600Q350 600 371 621Q392 642 392 672M440 480L536 480L536 30Q536-116 467.50-190Q399-264 280-264Q160-264 56-184L104-98Q132-119 150-131Q168-143 204.50-155.50Q241-168 280-168Q355-168 397.50-120Q440-72 440 16L440 70Q380-8 280-8Q176-8 108 64Q40 136 40 240Q40 344 108 416Q176 488 280 488Q380 488 440 410L440 480M180.50 132.50Q180.50 132.50 202.75 110.25Q225 88 288 88Q351 88 395.50 132.50Q440 177 440 240Q440 303 395.50 347.50Q351 392 288 392Q225 392 180.50 347.50Q136 303 136 240Q136 177 180.50 132.50Z"  horiz-adv-x="608" vert-adv-y="1000"  />

      
      <glyph glyph-name="uni0120" unicode="&#x0120;" d="M427 741Q427 741 416.50 730.50Q406 720 376 720Q346 720 325 741Q304 762 304 792Q304 822 325 843Q346 864 376 864Q406 864 427 843Q448 822 448 792Q448 762 427 741M710 367Q712 349 712 336Q712 192 618.50 92Q525-8 384-8Q242-8 141 93Q40 194 40 336Q40 478 141 579Q242 680 384 680Q483 680 560 629.50Q637 579 681 492L584 464Q555 519 502.50 551.50Q450 584 384 584Q281 584 208.50 511.50Q136 439 136 336Q136 233 208.50 160.50Q281 88 384 88Q473 88 533 139.50Q593 191 610 272L360 272L360 368L710 367Z"  horiz-adv-x="752" vert-adv-y="1000"  />

      
      <glyph glyph-name="uni0121" unicode="&#x0121;" d="M355 549Q355 549 344.50 538.50Q334 528 304 528Q274 528 253 549Q232 570 232 600Q232 630 253 651Q274 672 304 672Q334 672 355 651Q376 630 376 600Q376 570 355 549M440 480L536 480L536 30Q536-116 467.50-190Q399-264 280-264Q160-264 56-184L104-98Q132-119 150-131Q168-143 204.50-155.50Q241-168 280-168Q355-168 397.50-120Q440-72 440 16L440 70Q380-8 280-8Q176-8 108 64Q40 136 40 240Q40 344 108 416Q176 488 280 488Q380 488 440 410L440 480M180.50 132.50Q180.50 132.50 202.75 110.25Q225 88 288 88Q351 88 395.50 132.50Q440 177 440 240Q440 303 395.50 347.50Q351 392 288 392Q225 392 180.50 347.50Q136 303 136 240Q136 177 180.50 132.50Z"  horiz-adv-x="608" vert-adv-y="1000"  />

      
      <glyph glyph-name="uni0122" unicode="&#x0122;" d="M710 367Q712 349 712 336Q712 192 618.50 92Q525-8 384-8Q242-8 141 93Q40 194 40 336Q40 478 141 579Q242 680 384 680Q483 680 560 629.50Q637 579 681 492L584 464Q555 519 502.50 551.50Q450 584 384 584Q281 584 208.50 511.50Q136 439 136 336Q136 233 208.50 160.50Q281 88 384 88Q473 88 533 139.50Q593 191 610 272L360 272L360 368L710 367M304-192L336-64L432-64L352-192L304-192Z"  horiz-adv-x="752" vert-adv-y="1000"  />

      
      <glyph glyph-name="uni0123" unicode="&#x0123;" d="M400 672L368 544L272 544L352 672L400 672M440 480L536 480L536 30Q536-116 467.50-190Q399-264 280-264Q160-264 56-184L104-98Q132-119 150-131Q168-143 204.50-155.50Q241-168 280-168Q355-168 397.50-120Q440-72 440 16L440 70Q380-8 280-8Q176-8 108 64Q40 136 40 240Q40 344 108 416Q176 488 280 488Q380 488 440 410L440 480M180.50 132.50Q180.50 132.50 202.75 110.25Q225 88 288 88Q351 88 395.50 132.50Q440 177 440 240Q440 303 395.50 347.50Q351 392 288 392Q225 392 180.50 347.50Q136 303 136 240Q136 177 180.50 132.50Z"  horiz-adv-x="608" vert-adv-y="1000"  />

      
      <glyph glyph-name="uni0126" unicode="&#x0126;" d="M632 576L632 528L584 528L584 0L488 0L488 288L168 288L168 0L72 0L72 528L24 528L24 576L72 576L72 672L168 672L168 576L488 576L488 672L584 672L584 576L632 576M488 384L488 528L168 528L168 384L488 384Z"  horiz-adv-x="656" vert-adv-y="1000"  />

      
      <glyph glyph-name="uni0127" unicode="&#x0127;" d="M334 488Q425 488 472.50 431.50Q520 375 520 268L520 0L424 0L424 268Q424 329 399.50 360.50Q375 392 316 392Q268 392 226 356.50Q184 321 184 264L184 0L88 0L88 560L24 560L24 608L88 608L88 704L184 704L184 608L248 608L248 560L184 560L184 424Q240 488 334 488Z"  horiz-adv-x="576" vert-adv-y="1000"  />

      
      <glyph glyph-name="uni012A" unicode="&#x012A;" d="M256 752L-16 752L-16 808L256 808L256 752M168 0L72 0L72 672L168 672L168 0Z"  horiz-adv-x="240" vert-adv-y="1000"  />

      
      <glyph glyph-name="uni012B" unicode="&#x012B;" d="M256 560L-16 560L-16 616L256 616L256 560M72 0L72 480L168 480L168 0L72 0Z"  horiz-adv-x="240" vert-adv-y="1000"  />

      
      <glyph glyph-name="uni012E" unicode="&#x012E;" d="M184-142L200-192Q178-208 146-208Q94-208 63-173Q32-138 32-84Q32-30 72 8L72 672L168 672L168 0Q140 0 114-26Q88-52 88-84Q88-129 119-145Q150-161 184-142Z"  horiz-adv-x="240" vert-adv-y="1000"  />

      
      <glyph glyph-name="uni012F" unicode="&#x012F;" d="M171 581Q171 581 160.50 570.50Q150 560 120 560Q90 560 69 581Q48 602 48 632Q48 662 69 683Q90 704 120 704Q150 704 171 683Q192 662 192 632Q192 602 171 581M184-142L200-192Q178-208 146-208Q94-208 63-173Q32-138 32-84Q32-30 72 8L72 480L168 480L168 0Q140 0 114-26Q88-52 88-84Q88-129 119-145Q150-161 184-142Z"  horiz-adv-x="240" vert-adv-y="1000"  />

      
      <glyph glyph-name="uni0130" unicode="&#x0130;" d="M171 741Q171 741 160.50 730.50Q150 720 120 720Q90 720 69 741Q48 762 48 792Q48 822 69 843Q90 864 120 864Q150 864 171 843Q192 822 192 792Q192 762 171 741M168 0L72 0L72 672L168 672L168 0Z"  horiz-adv-x="240" vert-adv-y="1000"  />

      
      <glyph glyph-name="uni0131" unicode="&#x0131;" d="M72 0L72 480L168 480L168 0L72 0Z"  horiz-adv-x="240" vert-adv-y="1000"  />

      
      <glyph glyph-name="uni0132" unicode="&#x0132;" d="M168 0L72 0L72 672L168 672L168 0M552 672L648 672L648 256Q648 124 587 58Q526-8 424-8Q382-8 340.50 11Q299 30 280 54L328 136Q361 88 424 88Q489 88 520.50 130.50Q552 173 552 248L552 672Z"  horiz-adv-x="704" vert-adv-y="1000"  />

      
      <glyph glyph-name="uni0133" unicode="&#x0133;" d="M171 581Q171 581 160.50 570.50Q150 560 120 560Q90 560 69 581Q48 602 48 632Q48 662 69 683Q90 704 120 704Q150 704 171 683Q192 662 192 632Q192 602 171 581M411 581Q411 581 400.50 570.50Q390 560 360 560Q330 560 309 581Q288 602 288 632Q288 662 309 683Q330 704 360 704Q390 704 411 683Q432 662 432 632Q432 602 411 581M72 0L72 480L168 480L168 0L72 0M312-32L312 480L408 480L408-18Q408-63 401-99.50Q394-136 384-160Q374-184 357-203Q340-222 326.50-232Q313-242 292.50-249.50Q272-257 260.50-259Q249-261 232-264L208-176Q257-166 284.50-134Q312-102 312-32Z"  horiz-adv-x="480" vert-adv-y="1000"  />

      
      <glyph glyph-name="uni0136" unicode="&#x0136;" d="M256 343L568 0L440 0L168 296L168 0L72 0L72 672L168 672L168 376L424 672L552 672L256 343M200-192L232-64L328-64L248-192L200-192Z"  horiz-adv-x="592" vert-adv-y="1000"  />

      
      <glyph glyph-name="uni0137" unicode="&#x0137;" d="M248 248L504 0L376 0L168 204L168 0L72 0L72 704L168 704L168 284L360 480L488 480L248 248M176-192L208-64L304-64L224-192L176-192Z"  horiz-adv-x="512" vert-adv-y="1000"  />

      
      <glyph glyph-name="uni0139" unicode="&#x0139;" d="M72 736L152 864L264 864L136 736L72 736M168 96L440 96L440 0L72 0L72 672L168 672L168 96Z"  horiz-adv-x="480" vert-adv-y="1000"  />

      
      <glyph glyph-name="uni013A" unicode="&#x013A;" d="M72 768L152 896L264 896L136 768L72 768M72 704L168 704L168 0L72 0L72 704Z"  horiz-adv-x="240" vert-adv-y="1000"  />

      
      <glyph glyph-name="uni013B" unicode="&#x013B;" d="M168 96L440 96L440 0L72 0L72 672L168 672L168 96M168-192L200-64L296-64L216-192L168-192Z"  horiz-adv-x="480" vert-adv-y="1000"  />

      
      <glyph glyph-name="uni013C" unicode="&#x013C;" d="M72 704L168 704L168 0L72 0L72 704M40-192L72-64L168-64L88-192L40-192Z"  horiz-adv-x="240" vert-adv-y="1000"  />

      
      <glyph glyph-name="uni013D" unicode="&#x013D;" d="M168 96L440 96L440 0L72 0L72 672L168 672L168 96M312 544L344 672L440 672L360 544L312 544Z"  horiz-adv-x="496" vert-adv-y="1000"  />

      
      <glyph glyph-name="uni013E" unicode="&#x013E;" d="M72 704L168 704L168 0L72 0L72 704M200 544L232 672L328 672L248 544L200 544Z"  horiz-adv-x="352" vert-adv-y="1000"  />

      
      <glyph glyph-name="uni013F" unicode="&#x013F;" d="M168 96L440 96L440 0L72 0L72 672L168 672L168 96M384 304Q354 304 333 325Q312 346 312 376Q312 407 333 427.50Q354 448 384 448Q415 448 435.50 427.50Q456 407 456 376Q456 346 435.50 325Q415 304 384 304Z"  horiz-adv-x="496" vert-adv-y="1000"  />

      
      <glyph glyph-name="uni0140" unicode="&#x0140;" d="M72 704L168 704L168 0L72 0L72 704M339.50 325Q339.50 325 329.25 314.50Q319 304 288 304Q257 304 236.50 325Q216 346 216 376Q216 407 236.50 427.50Q257 448 288 448Q319 448 339.50 427.50Q360 407 360 376Q360 346 339.50 325Z"  horiz-adv-x="384" vert-adv-y="1000"  />

      
      <glyph glyph-name="uni0141" unicode="&#x0141;" d="M184 96L456 96L456 0L88 0L88 306L24 288L24 336L88 354L88 672L184 672L184 380L248 398L248 350L184 332L184 96Z"  horiz-adv-x="496" vert-adv-y="1000"  />

      
      <glyph glyph-name="uni0142" unicode="&#x0142;" d="M248 398L248 350L184 332L184 0L88 0L88 306L24 288L24 336L88 354L88 704L184 704L184 380L248 398Z"  horiz-adv-x="272" vert-adv-y="1000"  />

      
      <glyph glyph-name="uni0143" unicode="&#x0143;" d="M280 736L360 864L472 864L344 736L280 736M632-16L168 460L168 0L72 0L72 688L536 212L536 672L632 672L632-16Z"  horiz-adv-x="704" vert-adv-y="1000"  />

      
      <glyph glyph-name="uni0144" unicode="&#x0144;" d="M208 544L288 672L400 672L272 544L208 544M318 488Q405 488 454.50 434Q504 380 504 276L504 0L408 0L408 268Q408 329 383.50 360.50Q359 392 300 392Q252 392 210 356.50Q168 321 168 264L168 0L72 0L72 480L168 480L168 424Q224 488 318 488Z"  horiz-adv-x="560" vert-adv-y="1000"  />

      
      <glyph glyph-name="uni0145" unicode="&#x0145;" d="M632-16L168 460L168 0L72 0L72 688L536 212L536 672L632 672L632-16M272-192L304-64L400-64L320-192L272-192Z"  horiz-adv-x="704" vert-adv-y="1000"  />

      
      <glyph glyph-name="uni0146" unicode="&#x0146;" d="M318 488Q405 488 454.50 434Q504 380 504 276L504 0L408 0L408 268Q408 329 383.50 360.50Q359 392 300 392Q252 392 210 356.50Q168 321 168 264L168 0L72 0L72 480L168 480L168 424Q224 488 318 488M200-192L232-64L328-64L248-192L200-192Z"  horiz-adv-x="560" vert-adv-y="1000"  />

      
      <glyph glyph-name="uni0147" unicode="&#x0147;" d="M405 864L504 864L352 728L200 864L299 864L352 812L405 864M632-16L168 460L168 0L72 0L72 688L536 212L536 672L632 672L632-16Z"  horiz-adv-x="704" vert-adv-y="1000"  />

      
      <glyph glyph-name="uni0148" unicode="&#x0148;" d="M319 672L418 672L266 536L114 672L213 672L266 620L319 672M318 488Q405 488 454.50 434Q504 380 504 276L504 0L408 0L408 268Q408 329 383.50 360.50Q359 392 300 392Q252 392 210 356.50Q168 321 168 264L168 0L72 0L72 480L168 480L168 424Q224 488 318 488Z"  horiz-adv-x="560" vert-adv-y="1000"  />

      
      <glyph glyph-name="uni014A" unicode="&#x014A;" d="M536 672L632 672L632-18Q632-63 625-99.50Q618-136 608-160Q598-184 581-203Q564-222 550.50-232Q537-242 516.50-249.50Q496-257 484.50-259Q473-261 456-264L432-176Q481-166 508.50-134Q536-102 536-32L536 82L168 460L168 0L72 0L72 688L536 212L536 672Z"  horiz-adv-x="704" vert-adv-y="1000"  />

      
      <glyph glyph-name="uni014B" unicode="&#x014B;" d="M318 488Q405 488 454.50 434Q504 380 504 276L504-18Q504-63 497-99.50Q490-136 480-160Q470-184 453-203Q436-222 422.50-232Q409-242 388.50-249.50Q368-257 356.50-259Q345-261 328-264L304-176Q353-166 380.50-134Q408-102 408-32L408 268Q408 329 383.50 360.50Q359 392 300 392Q252 392 210 356.50Q168 321 168 264L168 0L72 0L72 480L168 480L168 424Q224 488 318 488Z"  horiz-adv-x="560" vert-adv-y="1000"  />

      
      <glyph glyph-name="uni014C" unicode="&#x014C;" d="M520 752L248 752L248 808L520 808L520 752M141 579Q141 579 191.50 629.50Q242 680 384 680Q526 680 627 579Q728 478 728 336Q728 194 627 93Q526-8 384-8Q242-8 141 93Q40 194 40 336Q40 478 141 579M208 160Q208 160 244 124Q280 88 384 88Q488 88 560 160Q632 232 632 336Q632 440 560 512Q488 584 384 584Q280 584 208 512Q136 440 136 336Q136 232 208 160Z"  horiz-adv-x="768" vert-adv-y="1000"  />

      
      <glyph glyph-name="uni014D" unicode="&#x014D;" d="M424 560L152 560L152 616L424 616L424 560M112.50 415.50Q112.50 415.50 148.75 451.75Q185 488 288 488Q391 488 463.50 415.50Q536 343 536 240Q536 137 463.50 64.50Q391-8 288-8Q185-8 112.50 64.50Q40 137 40 240Q40 343 112.50 415.50M181 133Q181 133 203.50 110.50Q226 88 288 88Q350 88 395 133Q440 178 440 240Q440 302 395 347Q350 392 288 392Q226 392 181 347Q136 302 136 240Q136 178 181 133Z"  horiz-adv-x="576" vert-adv-y="1000"  />

      
      <glyph glyph-name="uni0150" unicode="&#x0150;" d="M240 736L272 864L376 864L296 736L240 736M464 736L496 864L600 864L520 736L464 736M141 579Q141 579 191.50 629.50Q242 680 384 680Q526 680 627 579Q728 478 728 336Q728 194 627 93Q526-8 384-8Q242-8 141 93Q40 194 40 336Q40 478 141 579M208 160Q208 160 244 124Q280 88 384 88Q488 88 560 160Q632 232 632 336Q632 440 560 512Q488 584 384 584Q280 584 208 512Q136 440 136 336Q136 232 208 160Z"  horiz-adv-x="768" vert-adv-y="1000"  />

      
      <glyph glyph-name="uni0151" unicode="&#x0151;" d="M144 544L176 672L280 672L200 544L144 544M368 544L400 672L504 672L424 544L368 544M112.50 415.50Q112.50 415.50 148.75 451.75Q185 488 288 488Q391 488 463.50 415.50Q536 343 536 240Q536 137 463.50 64.50Q391-8 288-8Q185-8 112.50 64.50Q40 137 40 240Q40 343 112.50 415.50M181 133Q181 133 203.50 110.50Q226 88 288 88Q350 88 395 133Q440 178 440 240Q440 302 395 347Q350 392 288 392Q226 392 181 347Q136 302 136 240Q136 178 181 133Z"  horiz-adv-x="576" vert-adv-y="1000"  />

      
      <glyph glyph-name="uni0152" unicode="&#x0152;" d="M1016 576L728 576L728 384L968 384L968 288L728 288L728 96L1016 96L1016 0L632 0L632 98Q529-8 384-8Q242-8 141 93Q40 194 40 336Q40 478 141 579Q242 680 384 680Q529 680 632 574L632 672L1016 672L1016 576M208 160Q208 160 244 124Q280 88 384 88Q488 88 560 160Q632 232 632 336Q632 440 560 512Q488 584 384 584Q280 584 208 512Q136 440 136 336Q136 232 208 160Z"  horiz-adv-x="1072" vert-adv-y="1000"  />

      
      <glyph glyph-name="uni0153" unicode="&#x0153;" d="M904 238Q904 216 901 196L538 196Q549 142 591.50 115Q634 88 694 88Q772 88 840 136L872 50Q803-8 692-8Q552-8 484 88Q449 44 398 18Q347-8 288-8Q185-8 112.50 64.50Q40 137 40 240Q40 343 112.50 415.50Q185 488 288 488Q409 488 485 391Q552 488 679 488Q777 488 840.50 420Q904 352 904 238M181 133Q181 133 203.50 110.50Q226 88 288 88Q350 88 395 133Q440 178 440 240Q440 302 395 347Q350 392 288 392Q226 392 181 347Q136 302 136 240Q136 178 181 133M538 284L806 284Q804 325 771 358.50Q738 392 675 392Q614 392 577 358Q540 324 538 284Z"  horiz-adv-x="944" vert-adv-y="1000"  />

      
      <glyph glyph-name="uni0154" unicode="&#x0154;" d="M200 736L280 864L392 864L264 736L200 736M552 0L440 0L273 232L168 232L168 0L72 0L72 672L280 672Q407 672 471.50 614Q536 556 536 457Q536 378 494.50 319.50Q453 261 379 241L552 0M168 576L168 328L311 328Q368 328 404 358.50Q440 389 440 451Q440 514 404.50 545Q369 576 313 576L168 576Z"  horiz-adv-x="592" vert-adv-y="1000"  />

      
      <glyph glyph-name="uni0155" unicode="&#x0155;" d="M112 544L192 672L304 672L176 544L112 544M168 377Q193 429 243 458.50Q293 488 360 488L360 383Q318 396 272 379Q168 339 168 214L168 0L72 0L72 480L168 480L168 377Z"  horiz-adv-x="400" vert-adv-y="1000"  />

      
      <glyph glyph-name="uni0156" unicode="&#x0156;" d="M552 0L440 0L273 232L168 232L168 0L72 0L72 672L280 672Q407 672 471.50 614Q536 556 536 457Q536 378 494.50 319.50Q453 261 379 241L552 0M168 576L168 328L311 328Q368 328 404 358.50Q440 389 440 451Q440 514 404.50 545Q369 576 313 576L168 576M200-192L232-64L328-64L248-192L200-192Z"  horiz-adv-x="592" vert-adv-y="1000"  />

      
      <glyph glyph-name="uni0157" unicode="&#x0157;" d="M168 377Q193 429 243 458.50Q293 488 360 488L360 383Q318 396 272 379Q168 339 168 214L168 0L72 0L72 480L168 480L168 377M48-192L80-64L176-64L96-192L48-192Z"  horiz-adv-x="400" vert-adv-y="1000"  />

      
      <glyph glyph-name="uni0158" unicode="&#x0158;" d="M317 864L416 864L264 728L112 864L211 864L264 812L317 864M552 0L440 0L273 232L168 232L168 0L72 0L72 672L280 672Q407 672 471.50 614Q536 556 536 457Q536 378 494.50 319.50Q453 261 379 241L552 0M168 576L168 328L311 328Q368 328 404 358.50Q440 389 440 451Q440 514 404.50 545Q369 576 313 576L168 576Z"  horiz-adv-x="592" vert-adv-y="1000"  />

      
      <glyph glyph-name="uni0159" unicode="&#x0159;" d="M261 672L360 672L208 536L56 672L155 672L208 620L261 672M168 377Q193 429 243 458.50Q293 488 360 488L360 383Q318 396 272 379Q168 339 168 214L168 0L72 0L72 480L168 480L168 377Z"  horiz-adv-x="400" vert-adv-y="1000"  />

      
      <glyph glyph-name="uni015A" unicode="&#x015A;" d="M248 736L328 864L440 864L312 736L248 736M311 392Q436 368 494 323.50Q552 279 552 197Q552 107 483 49.50Q414-8 298-8Q242-8 192.50 6.50Q143 21 110.50 43Q78 65 63 78Q48 91 40 101L88 187Q177 88 300 88Q375 88 415.50 116Q456 144 456 193Q456 269 303 296Q170 319 116.50 365.50Q63 412 63 485Q63 570 127 625Q191 680 305 680Q436 680 522 600L476 513Q403 584 303 584Q234 584 196.50 559Q159 534 159 489Q159 451 194 429.50Q229 408 311 392Z"  horiz-adv-x="592" vert-adv-y="1000"  />

      
      <glyph glyph-name="uni015B" unicode="&#x015B;" d="M184 544L264 672L376 672L248 544L184 544M265 296Q440 262 440 150Q440 77 390 34.50Q340-8 248-8Q178-8 120.50 15Q63 38 40 60L78 154Q106 126 154.50 107.50Q203 89 245 88Q290 87 317 102Q344 117 344 139Q344 164 321 177.50Q298 191 250 200Q138 220 97 255Q56 290 56 351Q56 412 109.50 450Q163 488 251 488Q340 488 425 442L392 352Q373 366 332.50 378.50Q292 391 251 392Q210 393 181 383Q152 373 152 350Q152 338 159.50 329.50Q167 321 182.50 315.50Q198 310 212 306.50Q226 303 249 299Q260 297 265 296Z"  horiz-adv-x="480" vert-adv-y="1000"  />

      
      <glyph glyph-name="uni015E" unicode="&#x015E;" d="M494 323.50Q494 323.50 523 301.25Q552 279 552 197Q552 115 492.50 58.50Q433 2 332-7L293-48Q349-35 390.50-69Q432-103 432-160Q432-222 389-263Q346-304 281-304Q202-304 160-241L208-196Q233-240 288-240Q326-240 351-217Q376-194 376-159Q376-129 355-108.50Q334-88 304-88Q267-88 237-112L205-64L261-6Q213-2 170.50 13.50Q128 29 100.50 49Q73 69 60 80.50Q47 92 40 101L88 187Q177 88 300 88Q375 88 415.50 116Q456 144 456 193Q456 269 303 296Q170 319 116.50 365.50Q63 412 63 485Q63 570 127 625Q191 680 305 680Q436 680 522 600L476 513Q403 584 303 584Q234 584 196.50 559Q159 534 159 489Q159 451 194 429.50Q229 408 311 392Q436 368 494 323.50Z"  horiz-adv-x="592" vert-adv-y="1000"  />

      
      <glyph glyph-name="uni015F" unicode="&#x015F;" d="M440 150Q440 85 400 43.50Q360 2 285-6L245-48Q301-35 342.50-69Q384-103 384-160Q384-222 341-263Q298-304 233-304Q154-304 112-241L160-196Q185-240 240-240Q278-240 303-217Q328-194 328-159Q328-129 307-108.50Q286-88 256-88Q219-88 189-112L157-64L212-6Q153 0 105.50 21Q58 42 40 60L78 154Q106 126 154.50 107.50Q203 89 245 88Q290 87 317 102Q344 117 344 139Q344 164 321 177.50Q298 191 250 200Q138 220 97 255Q56 290 56 351Q56 412 109.50 450Q163 488 251 488Q340 488 425 442L392 352Q373 366 332.50 378.50Q292 391 251 392Q210 393 181 383Q152 373 152 350Q152 338 159.50 329.50Q167 321 182.50 315.50Q198 310 212 306.50Q226 303 249 299Q260 297 265 296Q440 262 440 150Z"  horiz-adv-x="480" vert-adv-y="1000"  />

      
      <glyph glyph-name="uni0160" unicode="&#x0160;" d="M349 864L448 864L296 728L144 864L243 864L296 812L349 864M311 392Q436 368 494 323.50Q552 279 552 197Q552 107 483 49.50Q414-8 298-8Q242-8 192.50 6.50Q143 21 110.50 43Q78 65 63 78Q48 91 40 101L88 187Q177 88 300 88Q375 88 415.50 116Q456 144 456 193Q456 269 303 296Q170 319 116.50 365.50Q63 412 63 485Q63 570 127 625Q191 680 305 680Q436 680 522 600L476 513Q403 584 303 584Q234 584 196.50 559Q159 534 159 489Q159 451 194 429.50Q229 408 311 392Z"  horiz-adv-x="592" vert-adv-y="1000"  />

      
      <glyph glyph-name="uni0161" unicode="&#x0161;" d="M297 672L396 672L244 536L92 672L191 672L244 620L297 672M265 296Q440 262 440 150Q440 77 390 34.50Q340-8 248-8Q178-8 120.50 15Q63 38 40 60L78 154Q106 126 154.50 107.50Q203 89 245 88Q290 87 317 102Q344 117 344 139Q344 164 321 177.50Q298 191 250 200Q138 220 97 255Q56 290 56 351Q56 412 109.50 450Q163 488 251 488Q340 488 425 442L392 352Q373 366 332.50 378.50Q292 391 251 392Q210 393 181 383Q152 373 152 350Q152 338 159.50 329.50Q167 321 182.50 315.50Q198 310 212 306.50Q226 303 249 299Q260 297 265 296Z"  horiz-adv-x="480" vert-adv-y="1000"  />

      
      <glyph glyph-name="uni0162" unicode="&#x0162;" d="M312 0L306 0L261-48Q317-35 358.50-69Q400-103 400-160Q400-222 357-263Q314-304 249-304Q170-304 128-241L176-196Q201-240 256-240Q294-240 319-217Q344-194 344-159Q344-129 323-108.50Q302-88 272-88Q235-88 205-112L173-64L234 0L216 0L216 576L40 576L40 672L488 672L488 576L312 576L312 0Z"  horiz-adv-x="528" vert-adv-y="1000"  />

      
      <glyph glyph-name="uni0163" unicode="&#x0163;" d="M181-48Q237-35 278.50-69Q320-103 320-160Q320-222 277-263Q234-304 169-304Q90-304 48-241L96-196Q121-240 176-240Q214-240 239-217Q264-194 264-159Q264-129 243-108.50Q222-88 192-88Q155-88 125-112L93-64L161 9Q104 44 104 157L104 384L40 384L40 480L104 480L104 672L200 672L200 480L296 480L296 384L200 384L200 184Q200 115 219 101Q248 79 296 103L296 6Q267-8 225-8L218-8L181-48Z"  horiz-adv-x="352" vert-adv-y="1000"  />

      
      <glyph glyph-name="uni0164" unicode="&#x0164;" d="M317 864L416 864L264 728L112 864L211 864L264 812L317 864M40 672L488 672L488 576L312 576L312 0L216 0L216 576L40 576L40 672Z"  horiz-adv-x="528" vert-adv-y="1000"  />

      
      <glyph glyph-name="uni0165" unicode="&#x0165;" d="M104 157L104 384L40 384L40 480L104 480L104 672L200 672L200 480L296 480L296 384L200 384L200 184Q200 115 219 101Q248 79 296 103L296 6Q267-8 225-8Q104-8 104 157M328 544L360 672L456 672L376 544L328 544Z"  horiz-adv-x="496" vert-adv-y="1000"  />

      
      <glyph glyph-name="uni0166" unicode="&#x0166;" d="M488 576L312 576L312 336L376 336L376 288L312 288L312 0L216 0L216 288L152 288L152 336L216 336L216 576L40 576L40 672L488 672L488 576Z"  horiz-adv-x="528" vert-adv-y="1000"  />

      
      <glyph glyph-name="uni0167" unicode="&#x0167;" d="M296 384L200 384L200 296L296 296L296 248L200 248L200 184Q200 115 219 101Q248 79 296 103L296 6Q267-8 225-8Q104-8 104 157L104 248L40 248L40 296L104 296L104 384L40 384L40 480L104 480L104 672L200 672L200 480L296 480L296 384Z"  horiz-adv-x="352" vert-adv-y="1000"  />

      
      <glyph glyph-name="uni016A" unicode="&#x016A;" d="M448 752L176 752L176 808L448 808L448 752M472 672L568 672L568 296Q568 157 503.50 74.50Q439-8 312-8Q182-8 119 74Q56 156 56 296L56 672L152 672L152 264Q152 185 194.50 136.50Q237 88 312 88Q386 88 429 136.50Q472 185 472 264L472 672Z"  horiz-adv-x="624" vert-adv-y="1000"  />

      
      <glyph glyph-name="uni016B" unicode="&#x016B;" d="M412 560L140 560L140 616L412 616L412 560M242-8Q155-8 105.50 46Q56 100 56 204L56 480L152 480L152 212Q152 151 176.50 119.50Q201 88 260 88Q308 88 350 123.50Q392 159 392 216L392 480L488 480L488 0L392 0L392 56Q336-8 242-8Z"  horiz-adv-x="560" vert-adv-y="1000"  />

      
      <glyph glyph-name="uni016E" unicode="&#x016E;" d="M233 911Q233 911 249.50 927.50Q266 944 312 944Q358 944 391 911Q424 878 424 832Q424 786 391 753Q358 720 312 720Q266 720 233 753Q200 786 200 832Q200 878 233 911M272.50 792.50Q272.50 792.50 280.75 784.25Q289 776 312 776Q335 776 351.50 792.50Q368 809 368 832Q368 855 351.50 871.50Q335 888 312 888Q289 888 272.50 871.50Q256 855 256 832Q256 809 272.50 792.50M472 672L568 672L568 296Q568 157 503.50 74.50Q439-8 312-8Q182-8 119 74Q56 156 56 296L56 672L152 672L152 264Q152 185 194.50 136.50Q237 88 312 88Q386 88 429 136.50Q472 185 472 264L472 672Z"  horiz-adv-x="624" vert-adv-y="1000"  />

      
      </font>
</defs>
</svg>
