<svg width="224" height="42" viewBox="0 0 224 42" fill="none" xmlns="http://www.w3.org/2000/svg">
<path d="M13.2905 0C11.1242 5.66996 8.31594 11.0858 4.91931 16.1139C3.26111 18.5611 1.857 21.1821 0.907545 23.977C0.14531 26.2236 -0.42969 28.8847 0.426153 31.9604C1.77678 36.8682 6.83159 41.7491 13.344 41.7224C18.8268 41.6956 23.4537 38.192 25.3793 33.9395C27.3451 29.6068 26.3421 25.3142 25.4462 23.0543C24.0554 19.564 21.7821 16.5285 19.8431 13.3057C17.2889 9.09335 15.2831 4.54667 13.2905 0Z" fill="white"/>
<path d="M13.2905 6.17822C11.9667 9.64171 10.3352 12.9715 8.40954 16.1408C6.64437 19.0426 4.62513 21.8509 3.62219 25.087C3.11403 26.7185 2.80644 28.604 3.39484 30.7838C4.43789 34.5548 8.32931 38.3259 13.344 38.2991C17.5697 38.2724 21.1135 35.5845 22.6112 32.3082C24.1223 28.9785 23.3467 25.6621 22.6647 23.937C21.5949 21.2491 19.8431 18.909 18.3454 16.435C16.3528 13.1721 14.8284 9.68183 13.2905 6.17822Z" fill="#51D5F4"/>
<path d="M62.537 0C60.3706 5.66996 57.5624 11.0858 54.1658 16.1139C52.5076 18.5611 51.1035 21.1821 50.154 23.977C49.3918 26.2236 48.8168 28.8847 49.6726 31.9604C51.0232 36.8682 56.0781 41.7491 62.5905 41.7224C68.0732 41.6956 72.7001 38.192 74.6258 33.9395C76.5916 29.6068 75.5886 25.3142 74.6926 23.0543C73.3019 19.564 71.0286 16.5285 69.0896 13.3057C66.522 9.09335 64.5295 4.54667 62.537 0Z" fill="white"/>
<path d="M62.5236 6.17822C61.1997 9.64171 59.5683 12.9715 57.6426 16.1408C55.8775 19.0426 53.8582 21.8509 52.8553 25.087C52.3471 26.7185 52.0395 28.604 52.6279 30.7838C53.671 34.5548 57.5624 38.3259 62.5771 38.2991C66.8028 38.2724 70.3466 35.5845 71.8443 32.3082C73.3554 28.9785 72.5798 25.6621 71.8978 23.937C70.828 21.2491 69.0762 18.909 67.5785 16.435C65.5993 13.1721 64.0615 9.68183 62.5236 6.17822Z" fill="#51D5F4"/>
<path d="M111.783 0C109.617 5.66996 106.809 11.0858 103.412 16.1139C101.754 18.5611 100.35 21.1821 99.4004 23.977C98.6381 26.2236 98.0631 28.8847 98.9189 31.9604C100.27 36.8682 105.324 41.7491 111.837 41.7224C117.32 41.6956 121.946 38.192 123.872 33.9395C125.838 29.6068 124.835 25.3142 123.939 23.0543C122.548 19.564 120.275 16.5285 118.336 13.3057C115.782 9.09335 113.789 4.54667 111.783 0Z" fill="white"/>
<path d="M161.03 0C158.864 5.66996 156.055 11.0858 152.659 16.1139C151.001 18.5611 149.596 21.1821 148.647 23.977C147.885 26.2236 147.31 28.8847 148.166 31.9604C149.516 36.8682 154.571 41.7491 161.083 41.7224C166.566 41.6956 171.193 38.192 173.119 33.9395C175.085 29.6068 174.082 25.3142 173.186 23.0543C171.795 19.564 169.522 16.5285 167.583 13.3057C165.015 9.09335 163.022 4.54667 161.03 0Z" fill="white"/>
<path d="M210.2 0C208.033 5.66996 205.225 11.0858 201.828 16.1139C200.17 18.5611 198.766 21.1821 197.817 23.977C197.054 26.2236 196.479 28.8847 197.335 31.9604C198.686 36.8682 203.741 41.7491 210.253 41.7224C215.736 41.6956 220.363 38.192 222.288 33.9395C224.254 29.6068 223.251 25.3142 222.355 23.0543C220.965 19.564 218.691 16.5285 216.752 13.3057C214.185 9.09335 212.192 4.54667 210.2 0Z" fill="white"/>
</svg>
