<svg width="43" height="36" viewBox="0 0 43 36" fill="none" xmlns="http://www.w3.org/2000/svg">
<path d="M24.2931 7.49269L21.4505 1.14902C21.3653 0.954232 21.1035 0.954232 21.0122 1.14902L18.1697 7.49269C18.0905 7.66151 18.2123 7.8628 18.3888 7.8628H19.5818C19.7157 7.8628 19.8253 7.97969 19.8253 8.12253V14.8882C19.8253 15.0311 19.9348 15.1479 20.0688 15.1479H22.4C22.534 15.1479 22.6435 15.0311 22.6435 14.8882V8.12253C22.6435 7.97969 22.7531 7.8628 22.887 7.8628H24.08C24.2505 7.8628 24.3661 7.668 24.2931 7.49269Z" stroke="#C1C1C1" stroke-miterlimit="10"/>
<path d="M30.4249 11.8057L27.5823 5.46201C27.4971 5.26722 27.2354 5.26722 27.1441 5.46201L24.3015 11.8057C24.2224 11.9745 24.3441 12.1758 24.5206 12.1758H25.7137C25.8476 12.1758 25.9571 12.2926 25.9571 12.4355V19.2012C25.9571 19.344 26.0667 19.4609 26.2006 19.4609H28.5319C28.6658 19.4609 28.7754 19.344 28.7754 19.2012V12.4355C28.7754 12.2926 28.8849 12.1758 29.0188 12.1758H30.2119C30.3884 12.1758 30.504 11.981 30.4249 11.8057Z" stroke="#C1C1C1" stroke-miterlimit="10"/>
<path d="M14.8672 5.46201L12.0246 11.8057C11.9455 11.9745 12.0673 12.1758 12.2438 12.1758H13.4368C13.5707 12.1758 13.6803 12.2926 13.6803 12.4355V19.2012C13.6803 19.344 13.7898 19.4609 13.9238 19.4609H16.255C16.3889 19.4609 16.4985 19.344 16.4985 19.2012V12.4355C16.4985 12.2926 16.6081 12.1758 16.742 12.1758H17.935C18.1115 12.1758 18.2272 11.981 18.1541 11.8057L15.3116 5.46201C15.2142 5.26722 14.9524 5.26722 14.8672 5.46201Z" stroke="#C1C1C1" stroke-miterlimit="10"/>
<path d="M4.72 26.1731H5.36V30.0931C5.36 31.9431 4.48 32.9731 2.96 32.9731C1.4 32.9731 0.56 31.9431 0.56 30.0931V26.1731H1.2V30.1731C1.2 31.6131 1.87 32.3331 2.96 32.3331C4.04 32.3331 4.72 31.6131 4.72 30.1731V26.1731ZM8.55797 26.1731C10.308 26.1731 11.118 27.0131 11.118 28.2831C11.118 29.5431 10.298 30.4931 8.87797 30.4931H7.27797V32.8931H6.63797V26.1731H8.55797ZM8.87797 29.8531C9.74797 29.8531 10.478 29.4431 10.478 28.3431C10.478 27.2431 9.69797 26.8131 8.82797 26.8131H7.27797V29.8531H8.87797ZM18.5555 29.3731V29.5331C18.5555 31.4331 17.1755 32.9731 15.2755 32.9731C13.3755 32.9731 11.8355 31.4331 11.8355 29.5331C11.8355 27.6331 13.3755 26.0931 15.2755 26.0931C16.6355 26.0931 17.6755 26.8531 18.2455 27.9731L17.5955 28.1531C17.1655 27.3031 16.3155 26.7331 15.2755 26.7331C13.7255 26.7331 12.4755 27.9831 12.4755 29.5331C12.4755 31.0831 13.7255 32.3331 15.2755 32.3331C16.6555 32.3331 17.6755 31.3331 17.8755 30.0131H15.0355V29.3731H18.5555ZM24.237 32.8931H23.477L21.667 30.4931H20.237V32.8931H19.597V26.1731H21.517C23.267 26.1731 24.077 27.0131 24.077 28.2831C24.077 29.3731 23.467 30.2331 22.377 30.4431L24.237 32.8931ZM20.237 26.8131V29.8531H21.837C22.707 29.8531 23.437 29.4431 23.437 28.3431C23.437 27.2431 22.657 26.8131 21.787 26.8131H20.237ZM30.3987 32.8931L29.7387 31.4531H26.0987L25.4387 32.8931H24.7187L27.9187 26.0131L31.1187 32.8931H30.3987ZM26.3887 30.8131H29.4487L27.9187 27.4531L26.3887 30.8131ZM33.7712 26.1731C36.0112 26.1731 37.2012 27.6731 37.2012 29.5331C37.2012 31.3931 35.9612 32.8931 33.7712 32.8931H31.9212V26.1731H33.7712ZM33.8312 32.2531C35.5212 32.2531 36.5612 31.1131 36.5612 29.5331C36.5612 27.9531 35.5212 26.8131 33.8312 26.8131H32.5612V32.2531H33.8312ZM41.9195 26.8131H38.8795V29.2131H41.4395V29.8531H38.8795V32.2531H41.9195V32.8931H38.2395V26.1731H41.9195V26.8131Z" fill="#C1C1C1"/>
</svg>
