<svg width="20" height="20" viewBox="0 0 20 20" fill="none" xmlns="http://www.w3.org/2000/svg">
<path d="M11.3234 18.5324C11.355 18.4367 11.3802 18.3666 11.4055 18.2964C11.9237 16.6574 12.4355 15.0121 12.9536 13.373C13.0421 13.0988 13.4654 12.9266 13.813 13.0223C13.8762 13.0414 13.9394 13.0606 13.9962 13.0924C14.8366 13.5771 15.7529 13.8896 16.6691 14.1893C17.0672 14.3169 17.4589 14.4891 17.8381 14.6868C18.7543 15.1587 19.2345 15.9176 19.2535 16.9635C19.2598 17.4163 19.2661 17.8691 19.2535 18.3283C19.2408 18.9979 18.7669 19.4571 18.1034 19.4571C12.7135 19.4571 7.32358 19.4571 1.93365 19.4571C1.2765 19.4571 0.808909 18.9916 0.802591 18.3347C0.796272 17.8627 0.796272 17.3844 0.802591 16.9125C0.815228 15.975 1.23859 15.2671 2.0158 14.7697C2.59081 14.3998 3.22901 14.1893 3.87353 13.998C4.58755 13.7876 5.28261 13.5261 5.93345 13.1498C6.24939 12.9712 6.55901 12.9904 6.86231 13.1753C7.01396 13.2646 7.10875 13.3858 7.16562 13.5644C7.6648 15.1842 8.17662 16.7977 8.68212 18.4112C8.69476 18.4495 8.71372 18.4814 8.77059 18.5196C8.80218 18.3538 8.84009 18.188 8.86537 18.0222C9.02334 17.1421 9.18131 16.262 9.33296 15.3819C9.3456 15.3118 9.28241 15.2289 9.26977 15.1523C9.18762 14.6549 9.10548 14.1511 9.0423 13.6537C9.02334 13.5134 9.10548 13.4177 9.26345 13.4177C9.76896 13.4177 10.2808 13.4177 10.7863 13.4177C10.9822 13.4177 11.0454 13.5069 11.0138 13.7429C10.9632 14.1 10.9063 14.4572 10.8432 14.8143C10.8179 14.9738 10.761 15.1268 10.7168 15.2799C10.7105 15.3054 10.7105 15.3309 10.7105 15.3564C10.8937 16.3896 11.0833 17.4227 11.2728 18.4622C11.2665 18.475 11.2791 18.4877 11.3234 18.5324Z" stroke="#C1C1C1" stroke-miterlimit="10"/>
<path d="M13.7692 8.17532C13.6491 8.58347 13.5354 8.97252 13.409 9.35517C13.2258 9.91638 12.992 10.4584 12.6634 10.9559C12.1579 11.702 11.4755 12.1612 10.5782 12.2696C9.61773 12.3844 8.70151 12.2633 7.91798 11.6255C7.33033 11.1472 6.97648 10.5031 6.72373 9.80794C6.55312 9.34239 6.42675 8.85771 6.28773 8.3794C6.25614 8.27098 6.20559 8.23911 6.10449 8.19447C5.93388 8.11794 5.74432 8.01589 5.64322 7.86283C5.2325 7.26972 5.15667 6.60649 5.38415 5.93048C5.44102 5.75191 5.63058 5.62434 5.74432 5.4649C5.79487 5.40113 5.83278 5.31185 5.8391 5.22894C5.8707 4.48278 6.01603 3.76853 6.35092 3.0989C6.90066 2.00835 7.78529 1.34507 8.97322 1.11548C9.99686 0.911405 11.0015 0.962432 11.962 1.40248C13.1878 1.96369 13.8703 2.97133 14.142 4.27232C14.2115 4.5912 14.2115 4.92284 14.2557 5.24809C14.2684 5.31824 14.3063 5.42029 14.3631 5.45217C14.578 5.56059 14.7043 5.74553 14.7675 5.96236C14.9634 6.61286 14.8939 7.23783 14.5401 7.81818C14.3695 8.08603 14.142 8.27098 13.7692 8.17532Z" stroke="#C1C1C1" stroke-miterlimit="10"/>
</svg>
