<svg width="20" height="19" viewBox="0 0 20 19" fill="none" xmlns="http://www.w3.org/2000/svg">
<path d="M7.76091 3.17766C8.59902 1.16994 9.01808 0.16608 9.69891 0.0269492C9.87793 -0.0096341 10.063 -0.0096341 10.242 0.0269492C10.9228 0.16608 11.3419 1.16994 12.18 3.17766C12.6566 4.31942 12.8949 4.89029 13.3408 5.27858C13.4659 5.38749 13.6017 5.48449 13.7462 5.56821C14.2616 5.8667 14.905 5.92207 16.1918 6.0328C18.3701 6.22026 19.4592 6.31398 19.7918 6.9107C19.8607 7.03429 19.9075 7.1681 19.9304 7.30656C20.0406 7.97513 19.24 8.6751 17.6386 10.075L17.1939 10.4638C16.4452 11.1183 16.0709 11.4455 15.8544 11.8539C15.7245 12.0989 15.6374 12.3628 15.5966 12.6349C15.5286 13.0885 15.6382 13.5633 15.8574 14.5128L15.9358 14.852C16.3289 16.5547 16.5255 17.4061 16.2801 17.8246C16.0597 18.2005 15.6537 18.4411 15.2052 18.4617C14.7058 18.4846 14.0023 17.9337 12.5952 16.832C11.6681 16.1061 11.2046 15.7432 10.69 15.6014C10.2198 15.4718 9.72111 15.4718 9.25087 15.6014C8.7363 15.7432 8.27277 16.1061 7.34571 16.832C5.9386 17.9337 5.23504 18.4846 4.73573 18.4617C4.28722 18.4411 3.8812 18.2005 3.66078 17.8246C3.41538 17.4061 3.61196 16.5547 4.00512 14.852L4.08345 14.5128C4.30269 13.5633 4.4123 13.0885 4.34428 12.6349C4.30347 12.3628 4.21639 12.0989 4.08651 11.8539C3.86999 11.4455 3.49566 11.1183 2.74699 10.4638L2.3023 10.075C0.700939 8.6751 -0.0997424 7.97513 0.0105232 7.30656C0.0333602 7.1681 0.0801942 7.03429 0.149078 6.9107C0.481675 6.31398 1.57082 6.22026 3.7491 6.0328C5.03587 5.92207 5.67926 5.8667 6.19465 5.56821C6.33921 5.48449 6.47499 5.38749 6.60006 5.27858C7.04598 4.89029 7.28429 4.31942 7.76091 3.17766Z" fill="#63F23B"/>
</svg>
