<svg width="43" height="35" viewBox="0 0 43 35" fill="none" xmlns="http://www.w3.org/2000/svg">
<path d="M24.2931 6.49172L21.4505 0.148046C21.3653 -0.0467444 21.1035 -0.0467444 21.0122 0.148046L18.1697 6.49172C18.0905 6.66053 18.2123 6.86182 18.3888 6.86182H19.5818C19.7157 6.86182 19.8253 6.97871 19.8253 7.12156V13.8872C19.8253 14.0301 19.9348 14.1469 20.0688 14.1469H22.4C22.534 14.1469 22.6435 14.0301 22.6435 13.8872V7.12156C22.6435 6.97871 22.7531 6.86182 22.887 6.86182H24.08C24.2505 6.86182 24.3661 6.66703 24.2931 6.49172Z" fill="#63F23B"/>
<path d="M30.4249 10.8047L27.5823 4.46103C27.4971 4.26624 27.2354 4.26624 27.1441 4.46103L24.3015 10.8047C24.2224 10.9735 24.3441 11.1748 24.5206 11.1748H25.7137C25.8476 11.1748 25.9571 11.2917 25.9571 11.4345V18.2002C25.9571 18.343 26.0667 18.4599 26.2006 18.4599H28.5319C28.6658 18.4599 28.7754 18.343 28.7754 18.2002V11.4345C28.7754 11.2917 28.8849 11.1748 29.0188 11.1748H30.2119C30.3884 11.1748 30.504 10.98 30.4249 10.8047Z" fill="#63F23B"/>
<path d="M14.8672 4.46103L12.0246 10.8047C11.9455 10.9735 12.0673 11.1748 12.2438 11.1748H13.4368C13.5707 11.1748 13.6803 11.2917 13.6803 11.4345V18.2002C13.6803 18.343 13.7898 18.4599 13.9238 18.4599H16.255C16.3889 18.4599 16.4985 18.343 16.4985 18.2002V11.4345C16.4985 11.2917 16.6081 11.1748 16.742 11.1748H17.935C18.1115 11.1748 18.2272 10.98 18.1541 10.8047L15.3116 4.46103C15.2142 4.26624 14.9524 4.26624 14.8672 4.46103Z" fill="#63F23B"/>
<path d="M4.72 25.1721H5.36V29.0921C5.36 30.9421 4.48 31.9721 2.96 31.9721C1.4 31.9721 0.56 30.9421 0.56 29.0921V25.1721H1.2V29.1721C1.2 30.6121 1.87 31.3321 2.96 31.3321C4.04 31.3321 4.72 30.6121 4.72 29.1721V25.1721ZM8.55797 25.1721C10.308 25.1721 11.118 26.0121 11.118 27.2821C11.118 28.5421 10.298 29.4921 8.87797 29.4921H7.27797V31.8921H6.63797V25.1721H8.55797ZM8.87797 28.8521C9.74797 28.8521 10.478 28.4421 10.478 27.3421C10.478 26.2421 9.69797 25.8121 8.82797 25.8121H7.27797V28.8521H8.87797ZM18.5555 28.3721V28.5321C18.5555 30.4321 17.1755 31.9721 15.2755 31.9721C13.3755 31.9721 11.8355 30.4321 11.8355 28.5321C11.8355 26.6321 13.3755 25.0921 15.2755 25.0921C16.6355 25.0921 17.6755 25.8521 18.2455 26.9721L17.5955 27.1521C17.1655 26.3021 16.3155 25.7321 15.2755 25.7321C13.7255 25.7321 12.4755 26.9821 12.4755 28.5321C12.4755 30.0821 13.7255 31.3321 15.2755 31.3321C16.6555 31.3321 17.6755 30.3321 17.8755 29.0121H15.0355V28.3721H18.5555ZM24.237 31.8921H23.477L21.667 29.4921H20.237V31.8921H19.597V25.1721H21.517C23.267 25.1721 24.077 26.0121 24.077 27.2821C24.077 28.3721 23.467 29.2321 22.377 29.4421L24.237 31.8921ZM20.237 25.8121V28.8521H21.837C22.707 28.8521 23.437 28.4421 23.437 27.3421C23.437 26.2421 22.657 25.8121 21.787 25.8121H20.237ZM30.3987 31.8921L29.7387 30.4521H26.0987L25.4387 31.8921H24.7187L27.9187 25.0121L31.1187 31.8921H30.3987ZM26.3887 29.8121H29.4487L27.9187 26.4521L26.3887 29.8121ZM33.7712 25.1721C36.0112 25.1721 37.2012 26.6721 37.2012 28.5321C37.2012 30.3921 35.9612 31.8921 33.7712 31.8921H31.9212V25.1721H33.7712ZM33.8312 31.2521C35.5212 31.2521 36.5612 30.1121 36.5612 28.5321C36.5612 26.9521 35.5212 25.8121 33.8312 25.8121H32.5612V31.2521H33.8312ZM41.9195 25.8121H38.8795V28.2121H41.4395V28.8521H38.8795V31.2521H41.9195V31.8921H38.2395V25.1721H41.9195V25.8121Z" fill="#63F23B"/>
</svg>
