<svg width="35" height="51" viewBox="0 0 35 51" fill="none" xmlns="http://www.w3.org/2000/svg">
<path d="M16.7684 13.046C16.1794 12.9946 15.6518 12.9689 15.1331 12.9089C13.0494 12.686 11.1768 12.1715 9.66455 11.1684C8.46885 10.3711 7.71274 9.41085 7.18523 8.36487C6.60496 7.20743 6.34999 6.01569 6.13899 4.81539C5.99832 3.98375 5.80491 3.16069 5.40927 2.36335C5.33014 2.20045 5.22464 2.04609 5.11914 1.90034C4.78504 1.43736 5.18947 0.991548 5.95436 1.00012C10.069 1.01727 13.5242 2.0204 16.2233 4.07807C17.6828 5.19264 18.5707 6.51296 19.1686 7.92761C19.7752 9.3594 20.0302 10.8255 19.9862 12.3173C19.9862 12.3859 19.9862 12.463 19.9862 12.5316C19.9862 12.5402 20.0038 12.5488 20.0302 12.5745C20.0742 12.5402 20.1269 12.5145 20.1621 12.4802C21.5072 11.0741 23.4415 10.1653 25.7977 9.64233C26.8175 9.41941 27.8814 9.28222 28.9364 9.14504C29.587 9.05931 29.9914 9.31654 30.0002 9.75379C30.0266 11.5542 29.3672 13.2261 27.6616 14.6664C26.2637 15.8496 24.391 16.5526 22.2194 16.947C22.0084 16.9813 21.7886 17.0156 21.4897 17.067C21.5776 16.8527 21.6303 16.6727 21.7182 16.4926C22.1754 15.5838 22.9843 14.8379 24.1448 14.2549C24.3382 14.1606 24.3734 14.092 24.2064 13.9634C23.9602 13.7748 23.7404 13.569 23.4678 13.329C23.0107 13.6119 22.5447 13.8691 22.1315 14.1606C21.0852 14.8893 20.3115 15.7124 20.0214 16.7156C19.9599 16.9213 19.9423 17.1356 19.9335 17.35C19.9247 18.1645 19.9247 18.979 19.9335 19.7934C19.9335 19.9478 19.872 20.0078 19.6258 19.9992C19.1774 19.9821 18.7202 19.9992 18.2367 19.9992C18.2279 19.922 18.2191 19.8535 18.2191 19.7849C18.2191 17.4871 18.2367 15.198 18.2191 12.9003C18.2015 9.94239 16.4255 7.5332 12.9703 5.65558C12.8736 5.60414 12.7681 5.5527 12.6362 5.49268C12.3461 5.74989 12.0735 5.99854 11.7834 6.26433C15.0979 7.97905 16.7684 10.2167 16.7684 13.046Z" stroke="#C1C1C1" stroke-linejoin="round"/>
<path d="M17.956 26.8497C13.9764 26.8497 9.99686 26.8497 6.01731 26.8497C5.50439 26.8497 5.10643 26.6532 5.06221 26.3495C5.03568 26.1977 5.09759 26.0101 5.2214 25.8761C5.6282 25.4206 6.07038 24.983 6.52139 24.5453C7.19349 23.8933 8.12206 23.5361 9.29823 23.5093C9.89959 23.4914 10.4037 23.3575 10.8281 23.0538C11.3853 22.6697 11.9778 22.2946 12.5526 21.9105C13.2778 21.4282 14.1444 21.196 15.1438 21.196C15.9131 21.196 16.6825 21.1424 17.4342 21.3211C17.956 21.4461 18.4158 21.6337 18.8049 21.9016C19.0614 22.0803 19.3179 22.2589 19.5743 22.4286C19.9457 22.6787 20.3879 22.8037 20.9097 22.8037C22.1301 22.8037 23.3593 22.8037 24.5797 22.8037C25.6144 22.8037 26.5164 23.0359 27.2504 23.5361C28.3559 24.2863 29.4613 25.0366 30.5579 25.7958C30.8497 25.9923 30.9293 26.2513 30.779 26.4835C30.6109 26.7336 30.3014 26.8408 29.8946 26.8408C25.9151 26.8497 21.9355 26.8497 17.956 26.8497Z" stroke="#C1C1C1" stroke-linejoin="round"/>
<path d="M29.9677 2.69606C29.9677 5.35766 27.1113 7.60842 23.229 8.0014C22.9372 8.0282 22.6365 8.03713 22.3447 8.05499C22.1766 8.06392 22.097 8.02816 22.0794 7.90312C21.7964 6.00963 22.6896 4.42875 24.7766 3.16941C26.1297 2.35663 27.7303 1.94578 29.5255 1.88326C29.7908 1.87433 29.9058 1.92792 29.9146 2.10655C29.9235 2.30304 29.95 2.49957 29.9677 2.69606Z" stroke="#C1C1C1" stroke-linejoin="round"/>
<mask id="path-4-inside-1_175_3736" fill="white">
<path d="M4.44373 35.5356C7.24373 35.5356 8.53973 36.8796 8.53973 38.9116C8.53973 40.9276 7.22773 42.4476 4.95573 42.4476H2.39573V46.2876H1.37173V35.5356H4.44373ZM4.95573 41.4236C6.34773 41.4236 7.51573 40.7676 7.51573 39.0076C7.51573 37.2476 6.26773 36.5596 4.87573 36.5596H2.39573V41.4236H4.95573ZM11.0989 45.2636H15.7069V46.2876H10.0749V35.5356H11.0989V45.2636ZM26.0764 46.2876L25.0204 43.9836H19.1964L18.1404 46.2876H16.9884L22.1084 35.2796L27.2284 46.2876H26.0764ZM19.6604 42.9596H24.5564L22.1084 37.5836L19.6604 42.9596ZM33.5091 35.5356H34.6611L30.8211 41.4236V46.2876H29.7971V41.4236L25.9571 35.5356H27.1091L30.3091 40.4636L33.5091 35.5356Z"/>
</mask>
<path d="M2.39573 42.4476V41.4476H1.39573V42.4476H2.39573ZM2.39573 46.2876V47.2876H3.39573V46.2876H2.39573ZM1.37173 46.2876H0.371727V47.2876H1.37173V46.2876ZM1.37173 35.5356V34.5356H0.371727V35.5356H1.37173ZM2.39573 36.5596V35.5596H1.39573V36.5596H2.39573ZM2.39573 41.4236H1.39573V42.4236H2.39573V41.4236ZM4.44373 36.5356C5.69766 36.5356 6.45268 36.8373 6.88306 37.214C7.29382 37.5736 7.53973 38.116 7.53973 38.9116H9.53973C9.53973 37.6752 9.13764 36.5296 8.20039 35.7092C7.28277 34.9059 5.98979 34.5356 4.44373 34.5356V36.5356ZM7.53973 38.9116C7.53973 39.7023 7.28524 40.3229 6.88134 40.7399C6.48319 41.1511 5.85987 41.4476 4.95573 41.4476V43.4476C6.32358 43.4476 7.49227 42.9841 8.31811 42.1312C9.13821 41.2843 9.53973 40.1369 9.53973 38.9116H7.53973ZM4.95573 41.4476H2.39573V43.4476H4.95573V41.4476ZM1.39573 42.4476V46.2876H3.39573V42.4476H1.39573ZM2.39573 45.2876H1.37173V47.2876H2.39573V45.2876ZM2.37173 46.2876V35.5356H0.371727V46.2876H2.37173ZM1.37173 36.5356H4.44373V34.5356H1.37173V36.5356ZM4.95573 42.4236C5.79021 42.4236 6.68769 42.2291 7.39367 41.6473C8.13284 41.0382 8.51573 40.1263 8.51573 39.0076H6.51573C6.51573 39.6489 6.31461 39.945 6.12179 40.1039C5.89577 40.2901 5.51324 40.4236 4.95573 40.4236V42.4236ZM8.51573 39.0076C8.51573 37.8671 8.09771 36.9519 7.34554 36.3452C6.62754 35.7661 5.71919 35.5596 4.87573 35.5596V37.5596C5.42426 37.5596 5.83591 37.6971 6.08991 37.902C6.30974 38.0793 6.51573 38.388 6.51573 39.0076H8.51573ZM4.87573 35.5596H2.39573V37.5596H4.87573V35.5596ZM1.39573 36.5596V41.4236H3.39573V36.5596H1.39573ZM2.39573 42.4236H4.95573V40.4236H2.39573V42.4236ZM11.0989 45.2636H10.0989V46.2636H11.0989V45.2636ZM15.7069 45.2636H16.7069V44.2636H15.7069V45.2636ZM15.7069 46.2876V47.2876H16.7069V46.2876H15.7069ZM10.0749 46.2876H9.07485V47.2876H10.0749V46.2876ZM10.0749 35.5356V34.5356H9.07485V35.5356H10.0749ZM11.0989 35.5356H12.0989V34.5356H11.0989V35.5356ZM11.0989 46.2636H15.7069V44.2636H11.0989V46.2636ZM14.7069 45.2636V46.2876H16.7069V45.2636H14.7069ZM15.7069 45.2876H10.0749V47.2876H15.7069V45.2876ZM11.0749 46.2876V35.5356H9.07485V46.2876H11.0749ZM10.0749 36.5356H11.0989V34.5356H10.0749V36.5356ZM10.0989 35.5356V45.2636H12.0989V35.5356H10.0989ZM26.0764 46.2876L25.1673 46.7043L25.4347 47.2876H26.0764V46.2876ZM25.0204 43.9836L25.9294 43.5669L25.6621 42.9836H25.0204V43.9836ZM19.1964 43.9836V42.9836H18.5547L18.2873 43.5669L19.1964 43.9836ZM18.1404 46.2876V47.2876H18.782L19.0494 46.7043L18.1404 46.2876ZM16.9884 46.2876L16.0816 45.8659L15.4204 47.2876H16.9884V46.2876ZM22.1084 35.2796L23.0151 34.8579L22.1084 32.9084L21.2016 34.8579L22.1084 35.2796ZM27.2284 46.2876V47.2876H28.7963L28.1351 45.8659L27.2284 46.2876ZM19.6604 42.9596L18.7503 42.5452L18.1062 43.9596H19.6604V42.9596ZM24.5564 42.9596V43.9596H26.1105L25.4664 42.5452L24.5564 42.9596ZM22.1084 37.5836L23.0184 37.1692L22.1084 35.1706L21.1983 37.1692L22.1084 37.5836ZM26.9854 45.8709L25.9294 43.5669L24.1113 44.4003L25.1673 46.7043L26.9854 45.8709ZM25.0204 42.9836H19.1964V44.9836H25.0204V42.9836ZM18.2873 43.5669L17.2313 45.8709L19.0494 46.7043L20.1054 44.4003L18.2873 43.5669ZM18.1404 45.2876H16.9884V47.2876H18.1404V45.2876ZM17.8951 46.7093L23.0151 35.7013L21.2016 34.8579L16.0816 45.8659L17.8951 46.7093ZM21.2016 35.7013L26.3216 46.7093L28.1351 45.8659L23.0151 34.8579L21.2016 35.7013ZM27.2284 45.2876H26.0764V47.2876H27.2284V45.2876ZM19.6604 43.9596H24.5564V41.9596H19.6604V43.9596ZM25.4664 42.5452L23.0184 37.1692L21.1983 37.998L23.6463 43.374L25.4664 42.5452ZM21.1983 37.1692L18.7503 42.5452L20.5704 43.374L23.0184 37.998L21.1983 37.1692ZM33.5091 35.5356V34.5356H32.9661L32.6704 34.991L33.5091 35.5356ZM34.6611 35.5356L35.4987 36.0819L36.5071 34.5356H34.6611V35.5356ZM30.8211 41.4236L29.9835 40.8773L29.8211 41.1263V41.4236H30.8211ZM30.8211 46.2876V47.2876H31.8211V46.2876H30.8211ZM29.7971 46.2876H28.7971V47.2876H29.7971V46.2876ZM29.7971 41.4236H30.7971V41.1263L30.6347 40.8773L29.7971 41.4236ZM25.9571 35.5356V34.5356H24.1111L25.1195 36.0819L25.9571 35.5356ZM27.1091 35.5356L27.9478 34.991L27.6521 34.5356H27.1091V35.5356ZM30.3091 40.4636L29.4704 41.0082L30.3091 42.2998L31.1478 41.0082L30.3091 40.4636ZM33.5091 36.5356H34.6611V34.5356H33.5091V36.5356ZM33.8235 34.9893L29.9835 40.8773L31.6587 41.9699L35.4987 36.0819L33.8235 34.9893ZM29.8211 41.4236V46.2876H31.8211V41.4236H29.8211ZM30.8211 45.2876H29.7971V47.2876H30.8211V45.2876ZM30.7971 46.2876V41.4236H28.7971V46.2876H30.7971ZM30.6347 40.8773L26.7947 34.9893L25.1195 36.0819L28.9595 41.9699L30.6347 40.8773ZM25.9571 36.5356H27.1091V34.5356H25.9571V36.5356ZM26.2704 36.0802L29.4704 41.0082L31.1478 39.919L27.9478 34.991L26.2704 36.0802ZM31.1478 41.0082L34.3478 36.0802L32.6704 34.991L29.4704 39.919L31.1478 41.0082Z" fill="#C1C1C1" mask="url(#path-4-inside-1_175_3736)"/>
</svg>
