<svg width="20" height="19" viewBox="0 0 20 19" fill="none" xmlns="http://www.w3.org/2000/svg">
<path d="M11.3224 17.5324C11.354 17.4367 11.3793 17.3666 11.4045 17.2964C11.9227 15.6574 12.4345 14.0121 12.9526 12.373C13.0411 12.0988 13.4645 11.9266 13.812 12.0223C13.8752 12.0414 13.9384 12.0606 13.9952 12.0924C14.8356 12.5771 15.7519 12.8896 16.6681 13.1893C17.0662 13.3169 17.4579 13.4891 17.8371 13.6868C18.7533 14.1587 19.2335 14.9176 19.2525 15.9635C19.2588 16.4163 19.2651 16.8691 19.2525 17.3283C19.2398 17.9979 18.7659 18.4571 18.1025 18.4571C12.7125 18.4571 7.32261 18.4571 1.93268 18.4571C1.27552 18.4571 0.807933 17.9916 0.801614 17.3347C0.795295 16.8627 0.795295 16.3844 0.801614 15.9125C0.814252 14.975 1.23761 14.2671 2.01482 13.7697C2.58983 13.3998 3.22803 13.1893 3.87255 12.998C4.58657 12.7876 5.28164 12.5261 5.93247 12.1498C6.24841 11.9712 6.55803 11.9904 6.86133 12.1753C7.01299 12.2646 7.10777 12.3858 7.16464 12.5644C7.66382 14.1842 8.17564 15.7977 8.68114 17.4112C8.69378 17.4495 8.71274 17.4814 8.76961 17.5196C8.80121 17.3538 8.83912 17.188 8.86439 17.0222C9.02236 16.1421 9.18033 15.262 9.33198 14.3819C9.34462 14.3118 9.28143 14.2289 9.26879 14.1523C9.18665 13.6549 9.10451 13.1511 9.04132 12.6537C9.02236 12.5134 9.10451 12.4177 9.26248 12.4177C9.76798 12.4177 10.2798 12.4177 10.7853 12.4177C10.9812 12.4177 11.0444 12.5069 11.0128 12.7429C10.9622 13.1 10.9054 13.4572 10.8422 13.8143C10.8169 13.9738 10.76 14.1268 10.7158 14.2799C10.7095 14.3054 10.7095 14.3309 10.7095 14.3564C10.8927 15.3896 11.0823 16.4227 11.2719 17.4622C11.2655 17.475 11.2782 17.4877 11.3224 17.5324Z" fill="#63F23B"/>
<path d="M13.7682 7.17532C13.6481 7.58347 13.5344 7.97252 13.408 8.35517C13.2248 8.91638 12.991 9.45843 12.6624 9.95587C12.1569 10.702 11.4745 11.1612 10.5772 11.2696C9.61675 11.3844 8.70053 11.2633 7.917 10.6255C7.32936 10.1472 6.97551 9.50308 6.72276 8.80794C6.55215 8.34239 6.42577 7.85771 6.28676 7.3794C6.25516 7.27098 6.20461 7.23911 6.10351 7.19447C5.93291 7.11794 5.74334 7.01589 5.64224 6.86283C5.23152 6.26972 5.1557 5.60649 5.38317 4.93048C5.44004 4.75191 5.6296 4.62434 5.74334 4.4649C5.79389 4.40113 5.83181 4.31185 5.83813 4.22894C5.86972 3.48278 6.01505 2.76853 6.34995 2.0989C6.89968 1.00835 7.78431 0.345071 8.97224 0.115483C9.99588 -0.0885952 11.0006 -0.0375679 11.961 0.402476C13.1869 0.96369 13.8693 1.97133 14.141 3.27232C14.2105 3.5912 14.2105 3.92284 14.2547 4.24809C14.2674 4.31824 14.3053 4.42029 14.3622 4.45217C14.577 4.56059 14.7034 4.74553 14.7666 4.96236C14.9624 5.61286 14.8929 6.23783 14.5391 6.81818C14.3685 7.08603 14.141 7.27098 13.7682 7.17532Z" fill="#63F23B"/>
</svg>
