<svg width="28" height="37" viewBox="0 0 28 37" fill="none" xmlns="http://www.w3.org/2000/svg">
<path d="M0.400488 26.9148H4.56049V27.5548H2.80049V33.6348H2.16049V27.5548H0.400488V26.9148ZM9.76439 33.6348L9.1044 32.1948H5.46439L4.80439 33.6348H4.08439L7.28439 26.7548L10.4844 33.6348H9.76439ZM5.75439 31.5548H8.81439L7.28439 28.1948L5.75439 31.5548ZM13.5069 29.8348C15.1569 30.1648 15.7669 30.6948 15.7669 31.8248C15.7669 32.8348 14.7769 33.7148 13.3869 33.7148C11.8669 33.7148 11.0869 32.7948 10.9669 32.6248L11.2869 32.0548C11.6969 32.5948 12.4169 33.0748 13.4069 33.0748C14.3469 33.0748 15.1269 32.5048 15.1269 31.7848C15.1269 31.1648 14.7369 30.7148 13.4369 30.4748C11.6269 30.1448 11.2069 29.5248 11.2069 28.6248C11.2069 27.6348 12.0769 26.8348 13.4469 26.8348C13.7169 26.8348 14.6869 26.8648 15.4469 27.6348L15.1469 28.1848C14.8169 27.8248 14.2169 27.4748 13.4369 27.4748C12.5669 27.4748 11.8469 27.8648 11.8469 28.5848C11.8469 29.2848 12.3569 29.6048 13.5069 29.8348ZM18.0826 30.2448L21.2026 33.6348H20.3226L17.5226 30.5948V33.6348H16.8826V26.9148H17.5226V29.9548L20.1626 26.9148H21.0426L18.0826 30.2448ZM24.3858 29.8348C26.0358 30.1648 26.6458 30.6948 26.6458 31.8248C26.6458 32.8348 25.6558 33.7148 24.2658 33.7148C22.7458 33.7148 21.9658 32.7948 21.8458 32.6248L22.1658 32.0548C22.5758 32.5948 23.2958 33.0748 24.2858 33.0748C25.2258 33.0748 26.0058 32.5048 26.0058 31.7848C26.0058 31.1648 25.6158 30.7148 24.3158 30.4748C22.5058 30.1448 22.0858 29.5248 22.0858 28.6248C22.0858 27.6348 22.9558 26.8348 24.3258 26.8348C24.5958 26.8348 25.5658 26.8648 26.3258 27.6348L26.0258 28.1848C25.6958 27.8248 25.0958 27.4748 24.3158 27.4748C23.4458 27.4748 22.7258 27.8648 22.7258 28.5848C22.7258 29.2848 23.2358 29.6048 24.3858 29.8348Z" fill="#C1C1C1"/>
<path d="M11.7614 4.17766C12.5995 2.16994 13.0186 1.16608 13.6994 1.02695C13.8784 0.990366 14.0634 0.990366 14.2425 1.02695C14.9233 1.16608 15.3424 2.16994 16.1805 4.17766C16.6571 5.31942 16.8954 5.89029 17.3413 6.27858C17.4664 6.38749 17.6022 6.48449 17.7467 6.56821C18.2621 6.8667 18.9055 6.92207 20.1923 7.0328C22.3706 7.22026 23.4597 7.31398 23.7923 7.9107C23.8612 8.03429 23.908 8.1681 23.9309 8.30656C24.0411 8.97513 23.2404 9.6751 21.6391 11.075L21.1944 11.4638C20.4457 12.1183 20.0714 12.4455 19.8549 12.8539C19.725 13.0989 19.6379 13.3628 19.5971 13.6349C19.5291 14.0885 19.6387 14.5633 19.8579 15.5128L19.9363 15.852C20.3294 17.5547 20.526 18.4061 20.2806 18.8246C20.0602 19.2005 19.6542 19.4411 19.2057 19.4617C18.7063 19.4846 18.0028 18.9337 16.5957 17.832C15.6686 17.1061 15.2051 16.7432 14.6905 16.6014C14.2203 16.4718 13.7216 16.4718 13.2514 16.6014C12.7368 16.7432 12.2733 17.1061 11.3462 17.832C9.93909 18.9337 9.23553 19.4846 8.73622 19.4617C8.28771 19.4411 7.88169 19.2005 7.66127 18.8246C7.41587 18.4061 7.61245 17.5547 8.00561 15.852L8.08394 15.5128C8.30318 14.5633 8.41279 14.0885 8.34477 13.6349C8.30396 13.3628 8.21688 13.0989 8.08699 12.8539C7.87048 12.4455 7.49614 12.1183 6.74748 11.4638L6.30279 11.075C4.70143 9.6751 3.90075 8.97513 4.01101 8.30656C4.03385 8.1681 4.08068 8.03429 4.14957 7.9107C4.48216 7.31398 5.5713 7.22026 7.74959 7.0328C9.03636 6.92207 9.67975 6.8667 10.1951 6.56821C10.3397 6.48449 10.4755 6.38749 10.6005 6.27858C11.0465 5.89029 11.2848 5.31942 11.7614 4.17766Z" stroke="#C1C1C1"/>
</svg>
