<svg width="193" height="193" viewBox="0 0 193 193" fill="none" xmlns="http://www.w3.org/2000/svg">
<path d="M96.5 193C149.795 193 193 149.795 193 96.5C193 43.2045 149.795 0 96.5 0C43.2045 0 0 43.2045 0 96.5C0 149.795 43.2045 193 96.5 193Z" fill="#FFF2BB"/>
<path d="M49.823 91.9864C49.8724 91.1792 49.5841 90.4214 48.7769 89.8531C47.0637 88.6588 44.288 89.326 42.4347 89.8696C40.3179 90.4873 38.2258 91.2863 36.3149 92.3817C34.8818 93.2054 32.6167 94.7951 33.2756 96.7554C33.951 98.7569 36.8338 99.1357 38.5965 99.2593C41.2322 99.4487 44.0738 99.144 46.5365 98.1226C48.4721 97.3154 50.4572 95.6928 50.3913 93.3948C50.3666 92.7853 50.1524 92.3323 49.823 91.9864Z" fill="#6E4931"/>
<path d="M62.5242 92.2168C61.6923 91.6484 60.5145 91.3766 59.3614 91.4343C59.1472 91.3848 58.9413 91.3519 58.7436 91.3437C57.0386 91.2448 54.8642 92.2744 54.6583 94.1606C54.4523 96.0138 56.6103 96.2609 57.9776 96.0797C59.6332 95.8656 61.8735 95.0749 62.656 93.4522C62.8454 93.0486 62.969 92.5215 62.5242 92.2168Z" fill="#6E4931"/>
<path d="M97.2494 93.0075C96.5246 90.1247 92.0851 88.9963 89.5729 88.708C87.7773 88.5103 85.9817 89.1281 84.7298 90.4542C83.799 91.4426 83.2801 92.9416 83.8814 94.0618C84.0049 94.383 84.2191 94.696 84.5568 94.9925C86.3936 96.574 89.5482 96.8376 91.8627 96.8788C94.0701 96.9117 98.0236 96.1127 97.2494 93.0075Z" fill="#6E4931"/>
<path d="M114.868 92.3322C113.921 89.853 111.071 89.6059 108.921 90.5943C107.208 91.3767 105.124 93.2876 105.42 95.3467C105.297 95.6515 105.223 95.981 105.223 96.3352C105.223 96.7717 105.429 97.06 105.84 97.2165C108.649 98.2378 116.548 96.7305 114.868 92.3322Z" fill="#6E4931"/>
<path d="M152.493 92.0193C151.43 90.9486 149.445 90.4791 147.979 90.4626C146.455 90.4461 144.816 90.9074 143.449 91.5498C142.411 92.044 140.714 93.0571 141.044 94.4656C141.431 96.1211 144.511 96.4424 145.788 96.5989C147.205 96.7801 149.289 96.64 150.771 95.8246C150.895 95.8493 151.035 95.8329 151.166 95.734C152.386 94.9021 153.934 93.4772 152.493 92.0193Z" fill="#6E4931"/>
<path d="M165.935 92.3901C165.91 90.9816 164.328 90.3803 163.151 90.2156C160.507 89.845 156.8 90.5451 155.161 92.8678C154.543 93.7409 154.173 94.9599 155.07 95.7836C155.787 96.4425 156.915 96.5413 157.846 96.566C159.889 96.6155 162.64 96.3848 164.378 95.1987C164.979 94.7869 165.737 94.0786 165.729 93.2714C165.86 93.0078 165.935 92.7113 165.935 92.3901Z" fill="#6E4931"/>
<path d="M175.785 92.67C175.423 91.6157 174.278 91.4263 173.347 91.8463C172.828 92.0852 172.301 92.5794 172.252 93.1807C172.211 93.609 172.466 93.8891 172.787 93.9467C172.87 94.0291 172.969 94.1032 173.092 94.1444C173.636 94.3338 174.113 94.2761 174.649 94.1114C175.168 93.9384 176.024 93.3701 175.785 92.67Z" fill="#6E4931"/>
<path d="M24.7016 93.881C24.5862 92.7443 23.0625 92.0524 22.0658 92.0112C20.8798 91.9536 19.7184 92.7525 19.3478 93.8727C19.2983 94.0127 19.2736 94.1692 19.2572 94.334C19.1254 94.614 19.1171 94.9105 19.3395 95.1494C19.3807 95.1906 19.4301 95.2318 19.4713 95.2729C19.5866 95.4377 19.7678 95.6024 19.9573 95.6848C19.9902 95.7012 20.0149 95.7095 20.0479 95.7095C20.7562 96.1295 21.5964 96.2695 22.4447 96.1213C23.4743 95.9318 24.8251 95.0917 24.7016 93.881Z" fill="#6E4931"/>
<path d="M77.1522 91.8134C76.9793 91.6816 76.7651 91.6404 76.551 91.6404C76.4109 91.5745 76.2462 91.5333 76.0897 91.5416C75.9744 91.5416 75.8509 91.558 75.7355 91.5827C75.6614 91.5992 75.5873 91.6239 75.5214 91.6487C75.4884 91.6569 75.1507 91.7557 75.4802 91.6651C74.8872 91.8216 74.1788 92.4641 74.5577 93.1312C74.7719 93.5019 75.2496 93.6666 75.6532 93.6666C76.3039 93.6666 76.8969 93.3289 77.2511 92.7936C77.457 92.4806 77.4652 92.0523 77.1522 91.8134Z" fill="#6E4931"/>
<path d="M124.883 93.2136C124.858 93.1807 124.834 93.156 124.809 93.123C124.825 93.0654 124.834 93.016 124.85 92.9583C124.916 92.5959 124.628 92.357 124.34 92.2335C124.199 92.1758 123.936 92.1923 123.804 92.2252C123.746 92.2417 123.565 92.2994 123.516 92.3158C123.368 92.3817 123.228 92.4641 123.112 92.5794C122.915 92.7441 122.948 92.7194 123.211 92.4971C123.153 92.5382 123.104 92.5794 123.046 92.6371C122.98 92.6947 122.931 92.7442 122.873 92.8018C122.808 92.8595 122.742 92.9171 122.692 92.9747C122.445 93.2548 122.247 93.6502 122.42 94.0208C122.577 94.3585 123.005 94.4903 123.351 94.3915C123.549 94.3338 123.714 94.2679 123.886 94.1856C123.911 94.1938 123.928 94.202 123.952 94.2102C124.224 94.2926 124.578 94.1444 124.751 93.9385C124.883 93.7655 125.073 93.4113 124.883 93.2136Z" fill="#6E4931"/>
<path d="M177.878 93.6005C174.772 93.2628 171.626 93.5346 168.521 93.8146C165.309 94.1112 162.113 94.5148 158.909 94.8195C155.672 95.1243 152.377 95.4208 149.124 95.1407C146.002 94.8689 142.897 94.4077 139.8 93.9876C136.464 93.5346 133.12 93.1228 129.751 93.0075C126.498 92.8922 123.277 93.1722 120.057 93.6582C113.797 94.5971 107.603 95.915 101.244 95.9067C94.9598 95.8985 88.7823 94.6877 82.5884 93.7652C79.2443 93.271 75.9167 92.8427 72.5233 92.9333C69.2039 93.0239 65.901 93.4522 62.6229 93.9629C56.4454 94.9266 50.3256 96.0632 44.0493 96.1785C33.7454 96.3598 23.5567 94.5395 13.2939 94.0041C13.2939 94.3418 13.2856 94.6795 13.2856 95.0172C13.2856 141.019 50.5727 178.306 96.5741 178.306C142.576 178.306 179.863 141.019 179.863 95.0172C179.863 94.6301 179.863 94.2429 179.854 93.8558C179.195 93.757 178.537 93.6746 177.878 93.6005Z" fill="#6E4931"/>
<path d="M28.334 103.204C31.2497 104.308 34.2149 105.058 37.3448 105.132C40.45 105.206 43.5387 104.687 46.5204 103.855C52.1872 102.282 57.4174 99.5143 63.323 98.773C66.4777 98.3777 69.7064 98.5918 72.8775 98.6165C76.131 98.6413 79.3762 98.633 82.6296 98.5012C88.8318 98.2459 95.001 97.4964 101.022 99.4896C103.855 100.429 106.606 101.565 109.572 102.051C112.792 102.578 115.881 102.076 119.011 101.277C121.894 100.536 124.752 99.6214 127.709 99.2096C130.435 98.8224 133.194 98.9872 135.904 99.4485C138.886 99.9591 141.793 100.807 144.742 101.433C147.839 102.092 151.002 102.463 154.165 102.331C159.955 102.092 165.58 100.338 171.395 100.322C174.122 100.313 176.84 100.651 179.566 100.733C179.599 100.733 179.632 100.733 179.673 100.733C179.805 98.8389 179.871 96.928 179.871 95.0007C179.871 94.6135 179.871 94.2264 179.863 93.8393C179.204 93.7487 178.545 93.6581 177.886 93.5922C174.781 93.2545 171.634 93.5263 168.529 93.8063C165.317 94.1029 162.121 94.5065 158.917 94.8112C155.68 95.116 152.385 95.4125 149.132 95.1324C146.01 94.8606 142.905 94.3994 139.808 93.9793C136.472 93.5263 133.128 93.1145 129.759 92.9992C126.506 92.8839 123.285 93.1639 120.065 93.6499C113.805 94.5888 107.611 95.9067 101.253 95.8985C94.9681 95.8902 88.7906 94.6794 82.5967 93.7569C79.2526 93.2627 75.925 92.8344 72.5316 92.925C69.2122 93.0156 65.9093 93.4439 62.6312 93.9546C56.4537 94.9183 50.3339 96.0549 44.0576 96.1702C33.7537 96.3515 23.565 94.5312 13.3022 93.9958C13.3022 94.3335 13.2939 94.6712 13.2939 95.0089C13.2939 96.7139 13.3434 98.4106 13.4504 100.099C18.5571 100.14 23.5485 101.392 28.334 103.204Z" fill="#6E4931"/>
<path d="M28.6469 99.1106C30.6402 98.5834 32.5181 97.6445 34.5937 97.4633C35.7386 97.3644 36.9 97.5457 38.0449 97.6363C39.2886 97.7269 40.5323 97.7598 41.776 97.6363C44.0329 97.4056 46.3309 96.4502 48.6124 96.6973C49.6255 96.8043 50.581 97.1503 51.5694 97.3727C52.8378 97.661 54.0898 97.6775 55.35 97.3398C57.5162 96.755 59.4188 95.5442 61.7251 95.5277C62.8617 95.5195 63.9984 95.7006 65.1186 95.8736C66.4447 96.0713 67.7543 96.129 69.0968 96.1043C70.4065 96.0796 71.7243 95.9972 73.0339 95.9478C74.1294 95.9066 75.1755 95.8901 76.2462 96.1619C77.4488 96.4666 78.6266 96.9279 79.8703 96.9773C81.114 97.0268 82.2754 96.5573 83.4285 96.1537C84.4252 95.8077 85.4053 95.5442 86.4761 95.6348C87.5715 95.7336 88.6505 96.0301 89.7213 96.269C90.9074 96.5408 92.1099 96.6067 93.3042 96.8126C94.3008 96.9856 95.2398 97.3397 96.2035 97.6363C97.4307 98.0151 98.6992 98.287 99.9841 98.3117C101.17 98.3364 102.34 98.1469 103.509 97.9328C104.539 97.7433 105.577 97.5209 106.623 97.4303C107.809 97.3315 108.995 97.5045 110.181 97.5292C111.293 97.5539 112.364 97.3398 113.459 97.2903C114.546 97.2409 115.584 97.4303 116.663 97.5868C117.973 97.7763 119.142 97.7186 120.403 97.2985C121.375 96.9773 122.297 96.5243 123.285 96.2525C124.957 95.7913 126.819 95.7665 128.532 95.75C129.381 95.7418 130.245 95.75 131.085 95.8571C131.102 95.8571 131.118 95.8654 131.135 95.8654C132.09 95.7089 133.079 95.7006 134.018 95.7171C135.624 95.7418 137.222 95.8983 138.82 96.0466C139.454 96.1043 140.088 96.1702 140.731 96.2113C141.653 96.269 142.592 96.236 143.515 96.2854C145.483 96.3843 147.41 96.6396 149.297 97.2244C151.026 97.768 152.682 98.6493 154.519 98.7482C156.594 98.8635 158.596 98.0151 160.548 97.4139C161.503 97.1173 162.475 96.862 163.48 96.7467C164.584 96.6067 165.712 96.6479 166.824 96.7055C169.04 96.8208 171.264 97.0432 173.455 96.5984C175.431 96.2031 177.416 96.1784 179.426 96.1454C179.566 96.1454 179.714 96.1372 179.854 96.1372C179.863 95.7665 179.863 95.3959 179.863 95.017C179.863 94.6299 179.863 94.2428 179.854 93.8556C179.195 93.765 178.537 93.6744 177.878 93.6085C174.772 93.2708 171.626 93.5427 168.521 93.8227C165.309 94.1192 162.113 94.5228 158.909 94.8275C155.672 95.1323 152.377 95.4288 149.124 95.1488C146.002 94.877 142.897 94.4158 139.8 93.9957C136.464 93.5427 133.12 93.1308 129.751 93.0155C126.498 92.9002 123.277 93.1802 120.057 93.6662C113.797 94.6052 107.603 95.923 101.244 95.9148C94.9598 95.9065 88.7823 94.6958 82.5884 93.7733C79.2443 93.2791 75.9167 92.8508 72.5233 92.9414C69.2039 93.032 65.901 93.4603 62.6229 93.971C56.4454 94.9346 50.3256 96.0713 44.0493 96.1866C33.7454 96.3678 23.5567 94.5475 13.2939 94.0121C13.2939 94.3498 13.2856 94.6876 13.2856 95.0253C13.2856 96.0054 13.3021 96.9773 13.3351 97.9493C16.3744 98.8717 19.702 98.9953 22.8236 99.2259C24.8086 99.3577 26.6948 99.6295 28.6469 99.1106Z" fill="#986749"/>
<path opacity="0.57" d="M150.211 139.108C144.643 139.174 139.19 140.912 133.886 142.436C128.722 143.926 123.458 145.327 118.039 145.277C112.29 145.228 106.689 143.745 101.055 142.749C98.0485 142.213 95.0174 141.834 91.9534 141.842C88.9305 141.851 85.9077 142.147 82.9178 142.576C77.1193 143.399 71.4031 144.709 65.5963 145.442C62.837 145.788 60.0695 146.051 57.2938 145.714C54.8969 145.417 52.566 144.758 50.3009 143.943C45.2436 142.122 40.4417 139.734 35.1044 138.787C31.785 138.202 28.4245 137.963 25.064 137.757C39.6098 162.047 66.1893 178.306 96.5659 178.306C126.704 178.306 153.102 162.302 167.722 138.325C161.899 139.009 156.084 139.042 150.211 139.108Z" fill="#8C664B"/>
<path opacity="0.57" d="M145.145 156.915C139.882 157.294 134.94 159.444 129.71 160.054C124.265 160.688 118.747 160.927 113.27 160.811C107.883 160.696 102.513 160.12 97.1258 160.136C94.4077 160.144 91.6814 160.358 89.021 160.927C86.3029 161.511 83.6096 162.187 80.908 162.854C78.3958 163.48 75.8672 164.057 73.2891 164.345C70.6616 164.641 68.0424 164.551 65.4149 164.23C60.6459 163.645 56.0005 162.335 51.4539 160.82C48.011 159.675 44.5928 158.398 41.1499 157.204C55.8687 170.333 75.2824 178.314 96.5657 178.314C117.775 178.314 137.123 170.391 151.833 157.336C149.618 157.006 147.394 156.751 145.145 156.915Z" fill="#8C664B"/>
<g opacity="0.57">
<path d="M28.4574 114.217C27.1972 114.118 25.9864 114.423 25.2863 115.239C24.6438 115.988 24.3391 117.075 24.3391 118.047C24.2897 120.428 25.3275 122.759 28.0785 122.47C30.3765 122.223 32.5015 120.436 32.831 118.105C33.144 115.914 30.7389 114.398 28.4574 114.217Z" fill="#8C664B"/>
<path d="M37.6493 124.496C37.6493 124.471 37.641 124.447 37.6328 124.422C37.6328 124.389 37.6246 124.364 37.6246 124.331C37.5999 124.216 37.5422 124.126 37.4599 124.06C37.3281 123.928 37.1469 123.854 36.9492 123.862C36.7762 123.862 36.6032 123.903 36.4385 123.969C36.2985 124.027 36.1832 124.101 36.0761 124.208C35.9608 124.29 35.8702 124.397 35.7961 124.521C35.7055 124.702 35.6066 124.892 35.6148 125.106C35.6148 125.163 35.6231 125.213 35.6313 125.27C35.6066 125.369 35.6066 125.468 35.6313 125.567C35.6725 125.699 35.7466 125.806 35.8537 125.888C36.0267 126.02 36.2985 126.012 36.4879 125.979C36.9656 125.896 37.4516 125.518 37.5999 125.048C37.674 124.842 37.6822 124.694 37.6493 124.496Z" fill="#8C664B"/>
<path d="M49.0078 138.185C48.7854 138.169 48.5795 138.235 48.3983 138.342C47.8959 138.342 47.4676 138.745 47.2781 139.174C47.1134 139.528 47.1628 139.981 47.4264 140.269C47.6653 140.533 47.9783 140.722 48.3407 140.722C49.1149 140.739 49.6503 140.039 49.7409 139.322C49.8068 138.811 49.6009 138.227 49.0078 138.185Z" fill="#8C664B"/>
<path d="M25.1791 109.053C24.9485 108.501 24.5943 108.031 23.8942 108.081C23.3753 108.122 22.9223 108.435 22.5681 108.814C21.7609 109.679 21.9092 111.169 23.3423 111.087C23.5153 111.112 23.6965 111.137 23.8777 111.128C24.5861 111.112 25.6403 110.395 25.3685 109.563C25.3109 109.399 25.2532 109.226 25.1791 109.053Z" fill="#8C664B"/>
<path d="M33.7453 130.567C33.1111 130.18 32.4274 130.122 31.8261 130.32C31.7932 130.32 31.7603 130.311 31.7273 130.311C31.0519 130.295 30.4095 130.641 29.9564 131.118C29.1822 131.926 28.6386 133.384 29.3799 134.388C30.4259 135.797 33.0616 134.948 34.083 133.952C35.1373 132.922 35.0055 131.341 33.7453 130.567Z" fill="#8C664B"/>
<path d="M50.2598 128.763C49.6832 128.763 49.1396 129.792 49.9056 129.792C50.4904 129.792 51.034 128.763 50.2598 128.763Z" fill="#8C664B"/>
<path d="M53.9827 108.649C53.3568 108.122 52.459 108.089 51.66 108.328C51.6271 108.328 51.5859 108.319 51.5529 108.319C50.441 108.319 49.3043 109.11 49.1643 110.263C49.0325 111.342 49.7903 112.504 50.8034 112.85C51.9236 113.228 53.2744 112.718 54.0322 111.853C54.8476 110.922 55.0123 109.505 53.9827 108.649Z" fill="#8C664B"/>
<path d="M60.8274 109.275C60.0943 109.275 59.4025 110.585 60.3826 110.585C61.1157 110.585 61.7993 109.275 60.8274 109.275Z" fill="#8C664B"/>
<path d="M93.0077 122.421C85.883 122.791 78.9807 121.679 75.0025 118.673C71.3536 115.922 69.6404 111.927 69.6404 108.353C69.3521 99.5971 75.2331 91.0228 90.8497 92.0935C103.905 92.9913 115.938 99.5641 117.825 108.138C119.595 116.194 105.939 121.753 93.0077 122.421Z" fill="#8C664B"/>
<path d="M91.9289 115.032C91.5912 115.057 91.2782 114.958 90.9981 114.793C90.2321 114.793 89.5732 114.184 89.2767 113.517C89.0296 112.973 89.0955 112.281 89.5073 111.828C89.8697 111.433 90.3474 111.136 90.8993 111.128C92.0936 111.112 92.909 112.182 93.049 113.27C93.1479 114.069 92.8431 114.975 91.9289 115.032Z" fill="#8C664B"/>
<path d="M62.969 136.077C63.2408 135.245 62.1865 134.528 61.4782 134.512C61.297 134.504 61.1158 134.528 60.9428 134.553C59.5014 134.471 59.3614 135.962 60.1686 136.826C60.5228 137.205 60.9758 137.526 61.4947 137.559C62.1948 137.609 62.549 137.139 62.7796 136.587C62.8537 136.423 62.9196 136.25 62.969 136.077Z" fill="#8C664B"/>
<path d="M72.8527 105.939C72.2185 106.326 71.5348 106.384 70.9336 106.186C70.9006 106.186 70.8677 106.194 70.8347 106.194C70.1593 106.211 69.5169 105.865 69.0639 105.387C68.2896 104.58 67.746 103.122 68.4873 102.117C69.5333 100.709 72.169 101.557 73.1904 102.554C74.2447 103.583 74.1046 105.165 72.8527 105.939Z" fill="#8C664B"/>
<path d="M83.1981 137.057C82.5721 137.584 81.6743 137.617 80.8753 137.378C80.8424 137.378 80.8012 137.387 80.7683 137.387C79.6563 137.387 78.5197 136.596 78.3797 135.443C78.2479 134.364 79.0056 133.202 80.0187 132.857C81.1389 132.478 82.4897 132.988 83.2475 133.853C84.0547 134.792 84.2276 136.209 83.1981 137.057Z" fill="#8C664B"/>
<path d="M98.4275 136.374C97.6944 136.374 97.0026 135.064 97.9827 135.064C98.7158 135.064 99.4077 136.374 98.4275 136.374Z" fill="#8C664B"/>
<path d="M106.005 118.352C105.379 118.302 104.77 118.451 104.416 118.862C104.094 119.233 103.946 119.777 103.946 120.263C103.921 121.457 104.44 122.618 105.816 122.47C106.969 122.346 108.032 121.457 108.196 120.287C108.344 119.2 107.142 118.442 106.005 118.352Z" fill="#8C664B"/>
<path d="M117.256 124.496C117.256 124.471 117.248 124.447 117.24 124.422C117.24 124.389 117.232 124.364 117.232 124.331C117.207 124.216 117.149 124.126 117.067 124.06C116.935 123.928 116.754 123.854 116.556 123.862C116.383 123.862 116.21 123.903 116.045 123.969C115.905 124.027 115.79 124.101 115.683 124.208C115.568 124.29 115.477 124.397 115.403 124.521C115.312 124.702 115.214 124.892 115.222 125.106C115.222 125.163 115.23 125.213 115.238 125.27C115.214 125.369 115.214 125.468 115.238 125.567C115.279 125.699 115.354 125.806 115.461 125.888C115.634 126.02 115.905 126.012 116.095 125.979C116.573 125.896 117.059 125.518 117.207 125.048C117.273 124.842 117.281 124.694 117.256 124.496Z" fill="#8C664B"/>
<path d="M128.606 138.185C128.384 138.169 128.178 138.235 127.996 138.342C127.494 138.342 127.066 138.745 126.876 139.174C126.712 139.528 126.761 139.981 127.025 140.269C127.263 140.533 127.576 140.722 127.939 140.722C128.713 140.739 129.248 140.039 129.339 139.322C129.405 138.811 129.207 138.227 128.606 138.185Z" fill="#8C664B"/>
<path d="M104.786 109.053C104.555 108.501 104.201 108.031 103.501 108.081C102.982 108.122 102.529 108.435 102.175 108.814C101.368 109.679 101.516 111.169 102.949 111.087C103.122 111.112 103.303 111.137 103.485 111.128C104.193 111.112 105.247 110.395 104.975 109.563C104.918 109.399 104.852 109.226 104.786 109.053Z" fill="#8C664B"/>
<path d="M113.343 130.567C112.709 130.18 112.026 130.122 111.424 130.32C111.391 130.32 111.358 130.311 111.325 130.311C110.65 130.295 110.008 130.641 109.555 131.118C108.78 131.926 108.237 133.384 108.978 134.388C110.024 135.797 112.66 134.948 113.681 133.952C114.735 132.922 114.604 131.341 113.343 130.567Z" fill="#8C664B"/>
<path d="M129.867 128.763C129.29 128.763 128.747 129.792 129.513 129.792C130.089 129.792 130.633 128.763 129.867 128.763Z" fill="#8C664B"/>
<path d="M133.59 108.649C132.964 108.122 132.066 108.089 131.267 108.328C131.234 108.328 131.193 108.319 131.16 108.319C130.048 108.319 128.911 109.11 128.771 110.263C128.639 111.342 129.397 112.504 130.41 112.85C131.531 113.228 132.881 112.718 133.639 111.853C134.446 110.922 134.619 109.505 133.59 108.649Z" fill="#8C664B"/>
<path d="M140.426 109.275C139.692 109.275 139.001 110.585 139.981 110.585C140.714 110.585 141.406 109.275 140.426 109.275Z" fill="#8C664B"/>
<path d="M148.885 124.546C147.946 124.62 147.031 124.398 146.504 123.78C146.018 123.22 145.796 122.404 145.796 121.671C145.755 119.884 146.537 118.138 148.596 118.352C150.326 118.533 151.916 119.876 152.163 121.63C152.393 123.277 150.59 124.414 148.885 124.546Z" fill="#8C664B"/>
<path d="M171.527 115.032C171.189 115.057 170.876 114.958 170.596 114.793C169.822 114.793 169.171 114.184 168.875 113.517C168.628 112.973 168.694 112.281 169.105 111.828C169.468 111.433 169.946 111.136 170.497 111.128C171.692 111.112 172.507 112.182 172.647 113.27C172.754 114.069 172.449 114.975 171.527 115.032Z" fill="#8C664B"/>
<path d="M142.575 136.077C142.847 135.245 141.793 134.528 141.085 134.512C140.903 134.504 140.722 134.528 140.549 134.553C139.108 134.471 138.968 135.962 139.775 136.826C140.129 137.205 140.582 137.526 141.101 137.559C141.801 137.609 142.155 137.139 142.386 136.587C142.46 136.423 142.518 136.25 142.575 136.077Z" fill="#8C664B"/>
<path d="M154.823 109.176C154.42 109.423 153.991 109.456 153.612 109.333C153.596 109.333 153.571 109.341 153.555 109.341C153.126 109.349 152.723 109.135 152.435 108.83C151.94 108.319 151.603 107.397 152.072 106.763C152.739 105.873 154.403 106.409 155.054 107.035C155.705 107.685 155.622 108.69 154.823 109.176Z" fill="#8C664B"/>
<path d="M162.805 137.057C162.179 137.584 161.281 137.617 160.482 137.378C160.449 137.378 160.408 137.387 160.375 137.387C159.263 137.387 158.127 136.596 157.987 135.443C157.855 134.364 158.613 133.202 159.626 132.857C160.746 132.478 162.097 132.988 162.854 133.853C163.662 134.792 163.826 136.209 162.805 137.057Z" fill="#8C664B"/>
</g>
<g opacity="0.57">
<path d="M39.7833 146.694C39.4209 146.661 39.0667 146.751 38.8608 146.99C38.6714 147.204 38.589 147.526 38.589 147.806C38.5725 148.498 38.8773 149.181 39.6762 149.091C40.3434 149.016 40.9612 148.498 41.06 147.822C41.1506 147.188 40.4505 146.743 39.7833 146.694Z" fill="#8C664B"/>
<path d="M40.9526 151.867C40.9526 151.858 40.9444 151.842 40.9444 151.834C40.9444 151.817 40.9444 151.809 40.9444 151.793C40.9362 151.743 40.9115 151.702 40.8703 151.669C40.8126 151.611 40.7302 151.578 40.6396 151.578C40.5573 151.578 40.4831 151.595 40.409 151.628C40.3431 151.652 40.2937 151.685 40.2443 151.735C40.1949 151.776 40.1537 151.817 40.1207 151.875C40.0796 151.957 40.0384 152.04 40.0384 152.138C40.0384 152.163 40.0384 152.188 40.0466 152.213C40.0384 152.254 40.0301 152.303 40.0466 152.344C40.0631 152.402 40.096 152.451 40.1455 152.493C40.2196 152.55 40.3431 152.55 40.4337 152.534C40.6479 152.501 40.8703 152.328 40.9362 152.114C40.9609 152.023 40.9691 151.957 40.9526 151.867Z" fill="#8C664B"/>
<path d="M35.3435 144.923C35.2365 144.676 35.08 144.462 34.767 144.487C34.5364 144.503 34.3304 144.643 34.1739 144.816C33.8115 145.203 33.8774 145.879 34.5199 145.837C34.6022 145.846 34.6764 145.854 34.7587 145.854C35.08 145.846 35.5495 145.524 35.4259 145.154C35.4012 145.08 35.3765 144.997 35.3435 144.923Z" fill="#8C664B"/>
<path d="M63.0596 162.813C62.7713 162.64 62.4665 162.615 62.1947 162.698C62.1782 162.698 62.17 162.689 62.1535 162.689C61.8488 162.681 61.5605 162.838 61.3546 163.052C61.0086 163.414 60.7615 164.073 61.0992 164.526C61.5687 165.16 62.7548 164.782 63.216 164.329C63.6855 163.876 63.6279 163.159 63.0596 162.813Z" fill="#8C664B"/>
<path d="M46.6277 153.786C46.3641 153.786 46.1253 154.247 46.4712 154.247C46.7265 154.255 46.9736 153.786 46.6277 153.786Z" fill="#8C664B"/>
<path d="M48.2996 144.742C48.0195 144.503 47.616 144.495 47.2535 144.593C47.2371 144.593 47.2206 144.593 47.2041 144.593C46.7017 144.593 46.191 144.948 46.1334 145.467C46.0757 145.952 46.4134 146.471 46.8747 146.628C47.3771 146.801 47.9866 146.57 48.3243 146.175C48.6867 145.763 48.7608 145.129 48.2996 144.742Z" fill="#8C664B"/>
<path d="M51.3802 145.022C51.0508 145.022 50.7378 145.607 51.1743 145.607C51.5038 145.615 51.8168 145.022 51.3802 145.022Z" fill="#8C664B"/>
<path d="M56.5197 153.917C55.9514 153.959 55.4077 153.827 55.0947 153.456C54.8065 153.118 54.6664 152.633 54.6664 152.196C54.6417 151.125 55.1112 150.079 56.3467 150.211C57.3845 150.318 58.34 151.125 58.4882 152.171C58.6283 153.16 57.541 153.835 56.5197 153.917Z" fill="#8C664B"/>
<path d="M65.3656 147.608C65.2091 147.616 65.0691 147.575 64.9455 147.501C64.5996 147.501 64.3031 147.229 64.1713 146.925C64.056 146.678 64.0889 146.373 64.2784 146.167C64.4431 145.986 64.6572 145.854 64.9043 145.854C65.4397 145.846 65.8104 146.332 65.868 146.818C65.9174 147.18 65.7774 147.584 65.3656 147.608Z" fill="#8C664B"/>
<path d="M52.3438 157.08C52.4673 156.702 51.9896 156.389 51.6766 156.38C51.5943 156.38 51.5119 156.389 51.4378 156.397C50.7871 156.356 50.7294 157.031 51.0918 157.418C51.2483 157.591 51.4542 157.731 51.6849 157.748C51.9978 157.772 52.1626 157.558 52.2614 157.311C52.2944 157.237 52.3191 157.155 52.3438 157.08Z" fill="#8C664B"/>
<path d="M62.9195 157.352C62.7794 157.467 62.5735 157.476 62.4006 157.426C62.3923 157.426 62.3841 157.426 62.3758 157.426C62.1287 157.426 61.8734 157.245 61.8405 156.99C61.8075 156.743 61.9805 156.487 62.2111 156.405C62.4664 156.323 62.7712 156.438 62.9359 156.627C63.1171 156.841 63.1501 157.154 62.9195 157.352Z" fill="#8C664B"/>
<path d="M68.2896 157.212C67.9602 157.212 67.6472 156.627 68.0919 156.627C68.4214 156.619 68.7262 157.212 68.2896 157.212Z" fill="#8C664B"/>
<path d="M72.6222 147.246C72.0539 147.205 71.5103 147.336 71.1973 147.707C70.909 148.045 70.769 148.531 70.769 148.967C70.7443 150.038 71.2138 151.084 72.4493 150.952C73.4871 150.845 74.4425 150.038 74.5908 148.992C74.7308 148.004 73.6518 147.328 72.6222 147.246Z" fill="#8C664B"/>
<path d="M76.7573 151.867C76.7573 151.858 76.7491 151.842 76.7491 151.834C76.7491 151.817 76.7491 151.809 76.7491 151.793C76.7409 151.743 76.7162 151.702 76.675 151.669C76.6173 151.611 76.5349 151.578 76.4443 151.578C76.362 151.578 76.2878 151.595 76.2137 151.628C76.1478 151.652 76.0984 151.685 76.049 151.735C75.9996 151.776 75.9584 151.817 75.9254 151.875C75.8843 151.957 75.8431 152.04 75.8431 152.138C75.8431 152.163 75.8431 152.188 75.8513 152.213C75.8431 152.254 75.8348 152.303 75.8513 152.344C75.8678 152.402 75.9007 152.451 75.9502 152.493C76.0243 152.55 76.1478 152.55 76.2384 152.534C76.4526 152.501 76.675 152.328 76.7409 152.114C76.7656 152.023 76.7738 151.957 76.7573 151.867Z" fill="#8C664B"/>
<path d="M81.8637 158.027C81.7649 158.019 81.6743 158.052 81.5919 158.093C81.3696 158.093 81.1719 158.274 81.0895 158.464C81.0154 158.62 81.0401 158.826 81.1554 158.958C81.2625 159.073 81.4025 159.164 81.5672 159.164C81.9132 159.172 82.1603 158.851 82.2015 158.538C82.2262 158.307 82.1356 158.044 81.8637 158.027Z" fill="#8C664B"/>
<path d="M71.1477 144.923C71.0407 144.676 70.8842 144.462 70.5712 144.487C70.3406 144.503 70.1346 144.643 69.9781 144.816C69.6157 145.203 69.6816 145.879 70.3241 145.837C70.4064 145.846 70.4806 145.854 70.5629 145.854C70.8842 145.846 71.3537 145.524 71.2301 145.154C71.2054 145.08 71.1807 144.997 71.1477 144.923Z" fill="#8C664B"/>
<path d="M75.0029 161.709C74.7146 161.536 74.4099 161.511 74.1381 161.594C74.1216 161.594 74.1134 161.586 74.0969 161.586C73.7921 161.577 73.5039 161.734 73.2979 161.948C72.952 162.31 72.7049 162.969 73.0426 163.422C73.5121 164.057 74.6982 163.678 75.1594 163.225C75.6289 162.772 75.563 162.055 75.0029 161.709Z" fill="#8C664B"/>
<path d="M82.4319 153.786C82.1683 153.786 81.9295 154.247 82.2754 154.247C82.5307 154.255 82.7778 153.786 82.4319 153.786Z" fill="#8C664B"/>
<path d="M84.1043 144.742C83.8242 144.503 83.4206 144.495 83.0582 144.593C83.0417 144.593 83.0253 144.593 83.0088 144.593C82.5064 144.593 81.9957 144.948 81.9381 145.467C81.8804 145.952 82.2181 146.471 82.6793 146.628C83.1818 146.801 83.7913 146.57 84.129 146.175C84.4914 145.763 84.5655 145.129 84.1043 144.742Z" fill="#8C664B"/>
<path d="M87.1763 145.022C86.8469 145.022 86.5339 145.607 86.9787 145.607C87.3081 145.615 87.6211 145.022 87.1763 145.022Z" fill="#8C664B"/>
<path d="M92.3244 153.917C91.756 153.959 91.2124 153.827 90.8994 153.456C90.6112 153.118 90.4711 152.633 90.4711 152.196C90.4464 151.125 90.9159 150.079 92.1514 150.211C93.1892 150.318 94.1447 151.125 94.2929 152.171C94.433 153.16 93.3457 153.835 92.3244 153.917Z" fill="#8C664B"/>
<path d="M101.17 147.608C101.014 147.616 100.874 147.575 100.75 147.501C100.404 147.501 100.108 147.229 99.9758 146.925C99.8687 146.678 99.8934 146.373 100.083 146.167C100.248 145.986 100.462 145.854 100.709 145.854C101.244 145.846 101.615 146.332 101.673 146.818C101.714 147.18 101.582 147.584 101.17 147.608Z" fill="#8C664B"/>
<path d="M88.148 157.08C88.2715 156.702 87.7938 156.389 87.4808 156.38C87.3985 156.38 87.3161 156.389 87.242 156.397C86.5913 156.356 86.5336 157.031 86.896 157.418C87.0525 157.591 87.2584 157.731 87.4891 157.748C87.802 157.772 87.9668 157.558 88.0656 157.311C88.0903 157.237 88.1233 157.155 88.148 157.08Z" fill="#8C664B"/>
<path d="M97.2415 157.517C96.9614 157.756 96.5579 157.764 96.1954 157.665C96.179 157.665 96.1625 157.665 96.146 157.665C95.6436 157.665 95.1329 157.311 95.0753 156.792C95.0176 156.306 95.3553 155.787 95.8166 155.63C96.319 155.458 96.9285 155.688 97.2662 156.083C97.6286 156.504 97.7027 157.138 97.2415 157.517Z" fill="#8C664B"/>
</g>
<g opacity="0.57">
<path d="M111.136 148.333C111.103 148.761 111.21 149.173 111.499 149.412C111.754 149.626 112.125 149.725 112.462 149.725C113.278 149.733 114.068 149.371 113.953 148.432C113.862 147.649 113.245 146.932 112.446 146.825C111.696 146.727 111.186 147.558 111.136 148.333Z" fill="#8C664B"/>
<path d="M117.182 146.9C117.165 146.9 117.157 146.908 117.141 146.908C117.124 146.908 117.108 146.908 117.091 146.916C117.034 146.933 116.984 146.957 116.951 147.007C116.885 147.081 116.844 147.172 116.844 147.279C116.844 147.369 116.869 147.46 116.902 147.55C116.935 147.625 116.976 147.682 117.025 147.74C117.067 147.798 117.124 147.847 117.19 147.888C117.289 147.938 117.388 147.987 117.503 147.979C117.528 147.979 117.561 147.979 117.586 147.97C117.635 147.979 117.693 147.987 117.742 147.97C117.808 147.946 117.866 147.905 117.915 147.847C117.981 147.756 117.981 147.616 117.964 147.509C117.923 147.262 117.717 147.007 117.47 146.933C117.371 146.883 117.289 146.883 117.182 146.9Z" fill="#8C664B"/>
<path d="M109.118 153.555C108.83 153.678 108.583 153.868 108.616 154.239C108.64 154.51 108.805 154.749 109.011 154.93C109.472 155.351 110.255 155.268 110.205 154.51C110.222 154.42 110.23 154.321 110.222 154.23C110.205 153.86 109.827 153.308 109.39 153.456C109.299 153.489 109.209 153.522 109.118 153.555Z" fill="#8C664B"/>
<path d="M134.281 164.189C134.001 164.016 133.696 163.991 133.433 164.073C133.416 164.073 133.408 164.065 133.392 164.065C133.095 164.057 132.807 164.213 132.609 164.419C132.263 164.773 132.024 165.424 132.354 165.869C132.815 166.495 133.985 166.116 134.438 165.679C134.899 165.226 134.841 164.526 134.281 164.189Z" fill="#8C664B"/>
<path d="M133.845 150.672C133.589 150.672 133.351 151.125 133.688 151.125C133.952 151.133 134.191 150.672 133.845 150.672Z" fill="#8C664B"/>
<path d="M134.273 145.829C133.992 145.598 133.597 145.582 133.243 145.689C133.226 145.689 133.21 145.689 133.194 145.689C132.699 145.689 132.197 146.035 132.139 146.545C132.082 147.023 132.419 147.534 132.864 147.69C133.358 147.855 133.96 147.633 134.297 147.246C134.651 146.834 134.726 146.208 134.273 145.829Z" fill="#8C664B"/>
<path d="M138.523 142.04C138.193 142.04 137.889 142.617 138.325 142.617C138.655 142.625 138.959 142.04 138.523 142.04Z" fill="#8C664B"/>
<path d="M143.588 150.804C143.028 150.845 142.493 150.713 142.18 150.351C141.891 150.021 141.76 149.535 141.76 149.107C141.735 148.053 142.196 147.023 143.415 147.147C144.437 147.254 145.376 148.045 145.524 149.082C145.664 150.054 144.601 150.722 143.588 150.804Z" fill="#8C664B"/>
<path d="M152.303 144.594C152.154 144.602 152.014 144.561 151.891 144.486C151.553 144.486 151.257 144.215 151.125 143.918C151.018 143.679 151.042 143.374 151.224 143.169C151.388 142.996 151.594 142.864 151.841 142.856C152.368 142.847 152.731 143.325 152.797 143.803C152.838 144.165 152.706 144.569 152.303 144.594Z" fill="#8C664B"/>
<path d="M139.479 153.917C139.602 153.547 139.133 153.234 138.82 153.226C138.737 153.226 138.663 153.234 138.581 153.242C137.947 153.201 137.881 153.868 138.235 154.247C138.391 154.412 138.597 154.552 138.82 154.576C139.133 154.601 139.289 154.387 139.388 154.148C139.429 154.066 139.454 153.992 139.479 153.917Z" fill="#8C664B"/>
<path d="M148.975 143.795C148.695 143.968 148.39 143.992 148.127 143.91C148.11 143.91 148.102 143.91 148.086 143.918C147.789 143.927 147.501 143.77 147.303 143.564C146.957 143.21 146.718 142.559 147.048 142.114C147.509 141.488 148.679 141.867 149.132 142.304C149.593 142.757 149.535 143.457 148.975 143.795Z" fill="#8C664B"/>
<path d="M149.898 154.181C149.758 154.296 149.56 154.304 149.387 154.255C149.379 154.255 149.37 154.255 149.362 154.255C149.115 154.255 148.868 154.082 148.835 153.827C148.802 153.588 148.975 153.332 149.198 153.25C149.445 153.168 149.749 153.283 149.914 153.472C150.087 153.678 150.12 153.991 149.898 154.181Z" fill="#8C664B"/>
<path d="M155.177 154.049C154.848 154.049 154.543 153.472 154.979 153.472C155.309 153.464 155.614 154.049 155.177 154.049Z" fill="#8C664B"/>
<path d="M108.138 161.932C107.578 161.89 107.043 162.022 106.73 162.385C106.441 162.714 106.31 163.2 106.31 163.628C106.285 164.683 106.746 165.712 107.965 165.589C108.986 165.482 109.925 164.691 110.074 163.653C110.214 162.681 109.151 162.014 108.138 161.932Z" fill="#8C664B"/>
<path d="M111.531 170.308C111.457 170.3 111.391 170.324 111.334 170.357C111.169 170.357 111.029 170.489 110.963 170.629C110.914 170.745 110.922 170.893 111.013 170.992C111.087 171.074 111.194 171.14 111.309 171.14C111.564 171.148 111.737 170.918 111.77 170.679C111.795 170.514 111.729 170.316 111.531 170.308Z" fill="#8C664B"/>
<path d="M157.994 141.95C157.887 141.703 157.731 141.497 157.426 141.521C157.195 141.538 156.998 141.678 156.841 141.851C156.487 142.23 156.545 142.897 157.187 142.856C157.27 142.864 157.344 142.872 157.426 142.872C157.739 142.864 158.209 142.551 158.085 142.18C158.052 142.098 158.027 142.024 157.994 141.95Z" fill="#8C664B"/>
<path d="M111.944 167.219C111.754 167.219 111.573 167.557 111.828 167.557C112.018 167.557 112.199 167.219 111.944 167.219Z" fill="#8C664B"/>
<path d="M125.855 153.884C125.657 154.131 125.641 154.477 125.74 154.79C125.74 154.807 125.74 154.815 125.74 154.832C125.748 155.268 126.061 155.705 126.506 155.754C126.926 155.804 127.379 155.499 127.511 155.103C127.651 154.667 127.453 154.14 127.107 153.851C126.736 153.538 126.176 153.481 125.855 153.884Z" fill="#8C664B"/>
<path d="M126.069 151.216C126.069 151.504 126.588 151.768 126.58 151.389C126.571 151.101 126.061 150.837 126.069 151.216Z" fill="#8C664B"/>
<path d="M128.013 168.323C127.601 168.356 127.206 168.257 126.975 167.986C126.761 167.738 126.662 167.384 126.662 167.063C126.646 166.281 126.983 165.515 127.889 165.613C128.647 165.696 129.339 166.281 129.446 167.047C129.553 167.763 128.763 168.257 128.013 168.323Z" fill="#8C664B"/>
<path d="M134.751 158.093C134.635 158.102 134.537 158.069 134.446 158.019C134.191 158.019 133.976 157.822 133.878 157.599C133.795 157.418 133.82 157.196 133.952 157.047C134.075 156.916 134.224 156.825 134.413 156.817C134.8 156.809 135.072 157.163 135.121 157.517C135.146 157.781 135.047 158.077 134.751 158.093Z" fill="#8C664B"/>
<path d="M116.111 169.616C116.202 169.345 115.856 169.114 115.625 169.106C115.567 169.106 115.51 169.114 115.452 169.122C114.983 169.097 114.933 169.583 115.197 169.863C115.312 169.987 115.46 170.094 115.633 170.102C115.864 170.119 115.979 169.962 116.053 169.781C116.07 169.732 116.095 169.674 116.111 169.616Z" fill="#8C664B"/>
<path d="M124.718 146.538C124.875 146.785 124.899 147.048 124.825 147.287C124.825 147.304 124.825 147.312 124.833 147.32C124.842 147.584 124.71 147.839 124.529 148.012C124.216 148.317 123.647 148.539 123.252 148.251C122.7 147.847 123.013 146.818 123.4 146.414C123.787 146.01 124.405 146.052 124.718 146.538Z" fill="#8C664B"/>
<path d="M122.742 169.938C122.536 170.11 122.239 170.119 121.984 170.045C121.976 170.045 121.959 170.045 121.951 170.045C121.589 170.045 121.218 169.789 121.169 169.41C121.127 169.056 121.374 168.677 121.704 168.562C122.075 168.438 122.511 168.603 122.758 168.891C123.022 169.196 123.079 169.657 122.742 169.938Z" fill="#8C664B"/>
<path d="M106.573 170.909C106.236 170.703 105.882 170.679 105.56 170.777C105.544 170.777 105.527 170.769 105.511 170.769C105.157 170.761 104.819 170.942 104.58 171.189C104.168 171.618 103.888 172.384 104.275 172.911C104.827 173.652 106.211 173.207 106.755 172.68C107.315 172.153 107.241 171.321 106.573 170.909Z" fill="#8C664B"/>
<path d="M65.4644 170.152C65.3821 170.143 65.2997 170.168 65.2256 170.209C65.0279 170.209 64.8632 170.366 64.789 170.531C64.7231 170.671 64.7396 170.844 64.8467 170.959C64.9373 171.058 65.0608 171.132 65.2009 171.14C65.5056 171.148 65.7115 170.868 65.7445 170.597C65.7774 170.391 65.6951 170.16 65.4644 170.152Z" fill="#8C664B"/>
<path d="M65.9503 166.478C65.7279 166.478 65.5137 166.882 65.8103 166.882C66.0409 166.882 66.255 166.478 65.9503 166.478Z" fill="#8C664B"/>
<path d="M88.8317 175.003C88.3458 175.044 87.868 174.921 87.5962 174.608C87.3491 174.32 87.2256 173.891 87.2256 173.512C87.2091 172.582 87.6127 171.676 88.6834 171.791C89.5812 171.89 90.4049 172.582 90.5367 173.496C90.6602 174.344 89.7213 174.937 88.8317 175.003Z" fill="#8C664B"/>
<path d="M70.9083 169.328C71.0154 169.007 70.6036 168.727 70.3318 168.719C70.2577 168.719 70.1918 168.727 70.1259 168.735C69.5658 168.702 69.5081 169.287 69.8211 169.625C69.9611 169.773 70.1341 169.896 70.34 169.913C70.6118 169.929 70.7519 169.748 70.8425 169.534C70.8589 169.46 70.8836 169.394 70.9083 169.328Z" fill="#8C664B"/>
<path d="M78.791 169.707C78.5439 169.913 78.198 169.921 77.885 169.83C77.8685 169.83 77.8603 169.83 77.8438 169.83C77.4073 169.83 76.9708 169.526 76.9131 169.073C76.8637 168.653 77.1602 168.2 77.5556 168.068C77.9921 167.919 78.5192 168.117 78.8158 168.455C79.1205 168.825 79.1864 169.377 78.791 169.707Z" fill="#8C664B"/>
</g>
<path d="M21.5552 93.263C21.4234 92.4476 20.6657 91.8957 19.9656 91.558C18.3759 90.792 16.1685 90.8167 14.7271 91.904C13.9611 92.4805 13.5081 93.4442 13.8458 94.3914C14.1423 95.2233 14.933 95.6269 15.7814 95.4704C15.839 95.4622 15.8967 95.4375 15.9461 95.3963C17.2063 95.9646 18.8619 95.9152 20.0232 95.4128C20.8469 95.0503 21.7117 94.2514 21.5552 93.263Z" fill="#5A3B25"/>
<path d="M33.7864 91.6653C32.3779 90.7922 30.5247 90.6275 28.9103 90.6522C27.1559 90.6769 24.8414 90.9651 23.7048 92.4642C22.7164 93.7738 23.7707 94.7211 24.9567 95.2647C25.4015 95.9154 26.3652 96.3354 27.0076 96.5578C29.3139 97.3732 33.4487 97.9333 34.8901 95.3553C35.6478 94.0127 35.0383 92.4395 33.7864 91.6653Z" fill="#5A3B25"/>
<path d="M54.9794 92.876C53.538 91.9535 51.4624 92.39 50.0457 93.1643C49.3703 93.5267 48.6125 94.1609 48.5549 95.001C48.5466 95.1411 48.5631 95.2646 48.5878 95.3799C48.5631 95.7259 48.7114 96.0471 49.1479 96.2118C49.3703 96.2942 49.6092 96.3601 49.8563 96.4013C49.881 96.4095 49.9057 96.4178 49.9304 96.4178C49.9551 96.426 49.9881 96.4259 50.021 96.4259C51.2153 96.6072 52.6155 96.4095 53.678 96.1048C54.4276 95.8906 55.2101 95.5282 55.6054 94.8198C56.0337 94.0291 55.6795 93.3208 54.9794 92.876Z" fill="#5A3B25"/>
<path d="M72.5892 90.0754C70.0936 88.6011 67.0543 88.7905 64.6409 90.3472C63.6937 90.9567 62.5982 91.9534 62.4417 93.1394C62.2853 94.3502 63.2407 94.3914 64.155 94.5232C64.1632 94.5232 64.1632 94.5232 64.1714 94.5232C65.4399 95.3551 67.2519 95.4457 68.6933 95.3633C70.3159 95.2727 72.2845 94.9762 73.4788 93.7654C74.8214 92.3981 74.0224 90.9238 72.5892 90.0754Z" fill="#5A3B25"/>
<path d="M85.6031 92.7522C84.5982 91.0719 81.979 90.8001 80.2328 90.8578C78.8573 90.899 75.1344 91.9944 76.3946 94.0618C76.3946 94.3007 76.4934 94.5313 76.7158 94.7372C78.0584 95.948 80.7023 96.121 82.3991 96.0057C83.9476 95.8904 86.8386 94.8196 85.6031 92.7522Z" fill="#5A3B25"/>
<path d="M105.124 92.6204C103.155 91.7721 100.495 91.5744 98.4273 92.1263C97.4471 92.3898 96.121 93.0323 95.7751 94.0783C95.7009 94.2925 95.6927 94.4819 95.7174 94.6384C95.6268 94.7373 95.5445 94.8361 95.4621 94.9349C95.0338 95.4868 95.2809 96.154 95.8657 96.4176C98.4767 97.5954 101.631 97.513 104.341 96.6729C105.297 96.3764 106.474 95.8739 106.796 94.8278C107.15 93.6747 106.046 93.0158 105.124 92.6204Z" fill="#5A3B25"/>
<path d="M122.651 92.489C120.864 91.2536 118.327 91.4512 116.301 92.3408C115.131 92.4232 114.052 92.9256 113.146 94.1199C112.965 94.367 112.899 94.8035 113.097 95.0589C115.106 97.6699 120.131 95.7837 122.297 94.2929C122.816 93.9305 123.351 92.975 122.651 92.489Z" fill="#5A3B25"/>
<path d="M135.961 92.3897C134.339 90.7588 131.991 90.7341 129.842 90.7341C128.45 90.7341 124.685 91.4425 126.333 93.6664C127.28 94.9348 129.454 95.3466 130.912 95.4949C132.733 95.6678 134.948 95.2231 135.895 93.4687C136.052 93.1886 136.25 92.678 135.961 92.3897Z" fill="#5A3B25"/>
<path d="M141.085 90.8579C139.487 90.3884 137.057 90.8579 136.489 92.6535C136.2 93.5678 136.818 94.655 137.592 95.1327C138.589 95.7504 139.932 95.2151 140.887 94.6879C142.304 93.8972 143.127 91.4592 141.085 90.8579Z" fill="#5A3B25"/>
<path d="M155.828 95.874C155.976 95.5857 156.018 95.2562 155.812 94.9762C155.803 94.968 155.795 94.9514 155.787 94.9432C155.342 93.5265 153.118 93.7819 151.965 94.5973C151.603 94.8526 151.306 95.2974 151.397 95.7586C151.397 95.7669 151.405 95.7751 151.405 95.7834C151.389 95.9646 151.413 96.1622 151.512 96.3681C151.677 96.7223 151.957 96.8788 152.278 96.9118C153.176 97.3401 154.51 97.06 155.293 96.4999C155.449 96.3929 155.606 96.2281 155.738 96.0387C155.77 95.9893 155.803 95.9316 155.828 95.874Z" fill="#5A3B25"/>
<path d="M174.048 92.2085C173.446 91.1213 171.947 90.8166 170.778 90.7507C169.979 90.4624 168.999 90.4377 168.298 90.4953C166.849 90.6024 164.402 91.4096 164.699 93.3122C164.946 94.9101 167.178 94.9925 168.414 94.9678C170.102 94.9349 171.997 94.7289 173.479 93.8723C174.031 93.5511 174.369 92.7851 174.048 92.2085Z" fill="#5A3B25"/>
<path d="M177.771 92.3901C177.647 91.9618 177.194 91.7558 176.725 91.8629C176.362 91.9535 176.057 92.1182 175.81 92.3571C175.678 92.4559 175.547 92.5713 175.44 92.6948C175.398 92.7442 175.357 92.7936 175.316 92.8431C175.308 92.8595 175.291 92.876 175.275 92.8925H175.283C175.258 92.9254 175.242 92.9666 175.217 93.0078C175.036 93.3785 175.11 93.8809 175.571 93.9962C175.596 94.0044 175.613 94.0044 175.629 94.0044C175.72 94.0538 175.818 94.095 175.926 94.1115C176.42 94.1856 176.996 93.9138 177.301 93.5102C177.367 93.4526 177.433 93.3949 177.491 93.329C177.688 93.2632 177.878 93.0984 177.952 92.9254C178.051 92.7442 178.034 92.4395 177.771 92.3901Z" fill="#5A3B25"/>
<path d="M24.5616 94.8033C24.1168 93.5514 22.6672 93.4772 21.3988 93.8808C20.3362 93.8726 19.2408 94.2103 18.7136 95.1822C17.7499 96.9696 20.3527 97.3237 21.547 97.3072C22.8649 97.2825 25.1958 96.6071 24.5616 94.8033Z" fill="#82583D"/>
<path d="M39.3629 95.1246C39.0993 94.9763 38.8193 94.8939 38.531 94.9104C38.4321 94.8857 38.3251 94.8692 38.2097 94.861C37.4932 94.8445 36.9578 95.3469 36.6695 95.9564C36.5542 96.2035 36.653 96.5001 36.8589 96.6566C37.5014 97.1425 38.4404 96.9778 39.0746 96.566C39.4617 96.3106 39.9642 95.4623 39.3629 95.1246Z" fill="#82583D"/>
<path d="M56.8408 94.2926C56.5772 94.1361 56.3137 94.0537 56.0172 94.0784C55.4982 93.9796 54.9134 94.2019 54.5099 94.5149C54.1804 94.7703 53.9086 95.1492 53.9909 95.5775C54.1063 96.1623 54.6499 96.467 55.21 96.4588C56.0501 96.4506 56.7337 95.9069 57.0714 95.1574C57.2032 94.8774 57.1209 94.4573 56.8408 94.2926Z" fill="#82583D"/>
<path d="M75.4391 92.5301C75.299 92.4313 75.1343 92.3489 74.9531 92.2912C74.9037 92.2336 74.8543 92.1677 74.7884 92.11C74.3354 91.7229 73.627 91.7229 73.0669 91.8053C72.0456 91.9618 70.4395 92.9337 71.2466 94.1527C71.8067 95.0011 73.2893 95.1164 74.1871 94.9022C74.8049 94.754 75.3814 94.4081 75.6779 93.8315C75.9003 93.3785 75.8756 92.8431 75.4391 92.5301Z" fill="#82583D"/>
<path d="M92.4309 94.1032C92.2826 93.9137 92.052 93.7655 91.7802 93.6749C91.7555 93.642 91.7226 93.609 91.6896 93.5761C91.3272 93.2054 90.7259 93.1148 90.2235 93.1231C89.2186 93.1478 87.7113 93.5843 87.3901 94.688C86.9947 96.0388 89.0127 96.1953 89.8693 96.2282C90.5612 96.2529 91.3354 96.2035 91.9285 95.8164C92.4803 95.454 92.8839 94.7044 92.4309 94.1032Z" fill="#82583D"/>
<path d="M111.342 94.4983C110.527 93.9053 109.201 94.0453 108.451 94.6878C108.105 94.9843 107.661 95.5279 107.998 95.9974C108.114 96.1621 108.278 96.2692 108.451 96.3186C108.772 96.4751 109.201 96.4916 109.522 96.4669C110.173 96.4092 110.832 96.1704 111.276 95.6762C111.573 95.3632 111.762 94.8031 111.342 94.4983Z" fill="#82583D"/>
<path d="M126.309 92.9584C126.111 92.6866 125.732 92.5383 125.295 92.5383C124.431 92.5383 123.376 92.9502 123.063 93.8315C122.923 94.2186 123.006 94.6222 123.277 94.9352C123.599 95.3058 123.978 95.3964 124.447 95.4541C125.444 95.5776 126.844 95.3717 127.19 94.2516C127.412 93.4856 126.943 93.0902 126.309 92.9584Z" fill="#82583D"/>
<path d="M144.766 93.889C144.594 93.7325 144.388 93.6007 144.165 93.5018C143.885 93.263 143.506 93.0982 143.169 93.0159C142.18 92.7935 140.805 93.0159 140.459 94.136C140.179 95.0585 141.208 95.5115 141.933 95.6516C142.889 95.8328 144 95.7751 144.709 95.0174C145.022 94.6797 145.129 94.2267 144.766 93.889Z" fill="#82583D"/>
<path d="M160.548 94.021C159.815 93.3703 158.332 93.3373 157.476 93.7245C157.228 93.8398 157.006 94.0292 156.874 94.2516C156.561 94.4987 156.372 94.8528 156.471 95.2894C156.668 96.1295 157.731 96.1049 158.406 96.006C159.246 95.8907 160.119 95.5612 160.638 94.8694C160.844 94.5976 160.795 94.2434 160.548 94.021Z" fill="#82583D"/>
<path d="M174.872 93.6502C174.592 93.2466 174.155 93.1642 173.735 93.2631C173.323 93.1395 172.845 93.4031 172.574 93.7078C172.425 93.8726 172.228 94.1773 172.335 94.4162C172.483 94.7539 172.681 95.0257 173.051 95.1327C173.422 95.2398 173.891 95.1657 174.221 94.9763C174.501 94.8198 174.732 94.6551 174.872 94.3585C174.987 94.1362 175.028 93.8726 174.872 93.6502Z" fill="#82583D"/>
<path d="M77.457 96.0473C77.457 96.0473 86.3278 87.0118 104.35 92.0196C113.196 94.9354 115.947 97.3652 116.276 100.026C116.606 102.678 114.736 110.84 101.706 116.136C88.6753 121.424 77.8194 120.362 73.1987 110.939C71.5102 106.401 72.861 100.372 77.457 96.0473Z" fill="#DCDDCF"/>
<path d="M87.6869 119.546C80.8505 119.546 75.7273 116.671 72.9763 111.046C71.1231 106.112 72.8528 100.017 77.2758 95.8576C77.5229 95.6105 86.6244 86.8221 104.424 91.764C112.537 94.4409 116.153 96.8954 116.54 99.9924C116.886 102.743 114.909 111.062 101.813 116.375C96.5742 118.5 91.8134 119.546 87.6869 119.546ZM93.9796 90.7839C83.165 90.7839 77.7124 96.1624 77.6382 96.2365C77.6382 96.2365 77.63 96.2365 77.63 96.2447C73.3552 100.256 71.6749 106.129 73.4458 110.848C77.7206 119.571 87.9916 121.424 101.607 115.897C114.398 110.708 116.342 102.71 116.013 100.067C115.658 97.2084 112.141 94.8774 104.267 92.2747C100.429 91.1957 96.9942 90.7839 93.9796 90.7839Z" fill="#85867F"/>
<path d="M109.86 103.106C112.084 101.599 110.922 101.228 110.922 101.228C110.922 101.228 110.955 100.742 112.907 100.479C92.1347 95.6766 77.4241 102.216 72.6881 104.803C72.3998 106.59 72.4739 108.361 72.9187 109.975C89.2272 113.286 107.71 104.564 109.86 103.106Z" fill="#6E6963"/>
<path d="M114.192 97.9501C106.689 93.56 90.9485 87.2178 74.6813 99.4492C74.0388 100.495 73.5446 101.582 73.1904 102.678C77.9265 99.2021 91.3192 91.855 114.192 97.9501Z" fill="#6E6963"/>
<path d="M111.301 105.824C94.9682 115.544 79.0387 113.567 74.1626 112.636C75.2086 114.259 76.4853 115.56 77.9432 116.573C96.1708 118.962 112.677 104.902 111.301 105.824Z" fill="#6E6963"/>
<path d="M101.088 114.687C93.1478 118.204 85.6196 118.566 81.979 118.492C85.2242 119.488 89.046 119.521 93.2632 118.698C100.841 115.741 102.076 114.168 101.088 114.687Z" fill="#6E6963"/>
<path d="M116.276 100.025C115.955 97.4473 113.344 95.0835 105.115 92.283C105.42 92.4148 105.741 92.5383 106.079 92.6701C118.179 97.2908 113.475 103.954 100.577 109.794C87.6784 115.642 73.8986 111.062 76.8226 102.068C79.2606 94.5563 86.896 91.6159 89.3587 90.8499C81.4022 92.0442 77.4568 96.0554 77.4568 96.0554C72.8608 100.371 71.51 106.409 73.2067 110.939C77.8192 120.362 88.6751 121.424 101.714 116.136C114.736 110.84 116.605 102.678 116.276 100.025Z" fill="#C4C6BA"/>
<path d="M74.6157 99.5639C74.6157 99.5639 74.6157 99.5559 74.6238 99.5559C74.6157 99.5559 74.6157 99.5559 74.6157 99.5639Z" fill="#C4C6BA"/>
<path d="M74.6897 99.4492L74.6816 99.4572L74.6897 99.4492Z" fill="#C4C6BA"/>
<path d="M115.066 97.4885C115.156 97.6038 115.247 97.7191 115.346 97.8427C119.456 102.694 104.284 119.95 85.1337 116.062C71.5845 113.319 71.9799 106.137 73.3719 102.175C72.2764 105.182 72.227 108.303 73.2154 110.922C77.8279 120.345 88.6837 121.408 101.722 116.12C114.753 110.832 116.622 102.669 116.293 100.009C116.169 99.1606 115.799 98.3287 115.066 97.4885Z" fill="#8A8B84"/>
<path d="M109.316 96.006C101.483 89.359 89.2765 90.2651 80.5704 97.0356C80.4221 97.1509 80.7186 97.332 80.8422 97.2579C89.8448 91.7394 100.857 90.4463 109.036 96.1954C109.184 96.2942 109.514 96.1707 109.316 96.006Z" fill="#DCDDCF"/>
</svg>
