<svg width="193" height="245" viewBox="0 0 193 245" fill="none" xmlns="http://www.w3.org/2000/svg">
<path d="M96.5 244.952C149.795 244.952 193 201.748 193 148.452C193 95.1569 149.795 51.9524 96.5 51.9524C43.2045 51.9524 0 95.1569 0 148.452C0 201.748 43.2045 244.952 96.5 244.952Z" fill="#F2E8BD"/>
<path d="M49.8224 143.939C49.8719 143.131 49.5836 142.374 48.7764 141.805C47.0632 140.611 44.2875 141.278 42.4342 141.822C40.3174 142.439 38.2253 143.238 36.3144 144.334C34.8813 145.158 32.6162 146.747 33.2751 148.708C33.9505 150.709 36.8333 151.088 38.596 151.211C41.2317 151.401 44.0733 151.096 46.536 150.075C48.4716 149.268 50.4567 147.645 50.3908 145.347C50.3661 144.737 50.1519 144.284 49.8224 143.939Z" fill="#6E4931"/>
<path d="M62.5237 144.169C61.6918 143.601 60.514 143.329 59.3609 143.387C59.1467 143.337 58.9408 143.305 58.7431 143.296C57.0382 143.197 54.8637 144.227 54.6578 146.113C54.4519 147.966 56.6099 148.214 57.9771 148.032C59.6327 147.818 61.873 147.027 62.6555 145.405C62.845 145.001 62.9685 144.474 62.5237 144.169Z" fill="#6E4931"/>
<path d="M97.2406 144.96C96.5158 142.077 92.0762 140.949 89.5641 140.66C87.7685 140.463 85.9729 141.08 84.721 142.407C83.7902 143.395 83.2713 144.894 83.8726 146.014C83.9962 146.335 84.2103 146.648 84.548 146.945C86.3848 148.526 89.5394 148.79 91.8539 148.831C94.0613 148.864 98.0231 148.065 97.2406 144.96Z" fill="#6E4931"/>
<path d="M114.867 144.284C113.92 141.805 111.07 141.558 108.92 142.546C107.207 143.329 105.123 145.24 105.42 147.299C105.296 147.604 105.222 147.933 105.222 148.287C105.222 148.724 105.428 149.012 105.84 149.169C108.649 150.19 116.548 148.683 114.867 144.284Z" fill="#6E4931"/>
<path d="M152.484 143.971C151.421 142.9 149.436 142.431 147.97 142.414C146.446 142.398 144.807 142.859 143.44 143.502C142.402 143.996 140.705 145.009 141.035 146.417C141.422 148.073 144.503 148.394 145.779 148.551C147.196 148.732 149.28 148.592 150.762 147.777C150.886 147.801 151.026 147.785 151.158 147.686C152.377 146.854 153.933 145.429 152.484 143.971Z" fill="#6E4931"/>
<path d="M165.926 144.342C165.902 142.934 164.32 142.332 163.142 142.168C160.498 141.797 156.792 142.497 155.153 144.82C154.535 145.693 154.164 146.912 155.062 147.736C155.779 148.395 156.907 148.493 157.838 148.518C159.881 148.568 162.632 148.337 164.369 147.151C164.971 146.739 165.729 146.031 165.72 145.224C165.852 144.96 165.934 144.663 165.926 144.342Z" fill="#6E4931"/>
<path d="M175.777 144.622C175.415 143.568 174.27 143.378 173.339 143.798C172.82 144.037 172.293 144.532 172.244 145.133C172.202 145.561 172.458 145.841 172.779 145.899C172.861 145.981 172.96 146.055 173.084 146.097C173.627 146.286 174.105 146.228 174.64 146.064C175.168 145.891 176.024 145.322 175.777 144.622Z" fill="#6E4931"/>
<path d="M24.7011 145.833C24.5858 144.696 23.062 144.005 22.0653 143.963C20.8793 143.906 19.7179 144.705 19.3473 145.825C19.2979 145.965 19.2732 146.121 19.2567 146.286C19.1249 146.566 19.1166 146.863 19.339 147.102C19.3802 147.143 19.4297 147.184 19.4708 147.225C19.5862 147.39 19.7673 147.555 19.9568 147.637C19.9897 147.653 20.0145 147.662 20.0474 147.662C20.7558 148.082 21.5959 148.222 22.4442 148.073C23.4738 147.884 24.8164 147.044 24.7011 145.833Z" fill="#6E4931"/>
<path d="M77.1522 143.766C76.9792 143.634 76.7651 143.593 76.551 143.593C76.4109 143.527 76.2462 143.486 76.0897 143.494C75.9744 143.494 75.8509 143.51 75.7355 143.535C75.6614 143.552 75.5873 143.576 75.5214 143.601C75.4884 143.609 75.1507 143.708 75.4802 143.618C74.8872 143.774 74.1788 144.416 74.5577 145.084C74.7719 145.454 75.2495 145.619 75.6531 145.619C76.3038 145.619 76.8969 145.281 77.251 144.746C77.457 144.433 77.4652 144.005 77.1522 143.766Z" fill="#6E4931"/>
<path d="M124.876 145.166C124.851 145.133 124.826 145.109 124.802 145.076C124.818 145.018 124.826 144.969 124.843 144.911C124.909 144.548 124.62 144.309 124.332 144.186C124.192 144.128 123.928 144.145 123.796 144.178C123.739 144.194 123.557 144.252 123.508 144.268C123.36 144.334 123.22 144.417 123.104 144.532C122.907 144.697 122.939 144.672 123.203 144.45C123.145 144.491 123.096 144.532 123.038 144.59C122.972 144.647 122.923 144.697 122.865 144.754C122.799 144.812 122.733 144.87 122.684 144.927C122.437 145.208 122.239 145.603 122.412 145.974C122.569 146.312 122.997 146.444 123.343 146.345C123.541 146.287 123.706 146.221 123.879 146.139C123.903 146.147 123.92 146.155 123.945 146.163C124.217 146.246 124.571 146.097 124.744 145.891C124.884 145.718 125.073 145.364 124.876 145.166Z" fill="#6E4931"/>
<path d="M177.877 145.553C174.772 145.215 171.626 145.487 168.52 145.767C165.308 146.064 162.112 146.467 158.908 146.772C155.671 147.077 152.377 147.373 149.123 147.093C146.001 146.821 142.896 146.36 139.799 145.94C136.463 145.487 133.119 145.075 129.751 144.96C126.497 144.845 123.277 145.125 120.056 145.611C113.796 146.55 107.602 147.867 101.244 147.859C94.9593 147.851 88.7818 146.64 82.5879 145.718C79.2439 145.223 75.9162 144.795 72.5228 144.886C69.2034 144.976 65.9005 145.405 62.6224 145.915C56.4449 146.879 50.3251 148.016 44.0488 148.131C33.7449 148.312 23.5562 146.492 13.2934 145.956C13.2934 146.294 13.2852 146.632 13.2852 146.97C13.2852 192.971 50.5722 230.258 96.5736 230.258C142.575 230.258 179.862 192.971 179.862 146.97C179.862 146.582 179.862 146.195 179.854 145.808C179.187 145.709 178.536 145.627 177.877 145.553Z" fill="#6E4931"/>
<path d="M28.333 155.157C31.2488 156.261 34.2139 157.01 37.3438 157.084C40.449 157.158 43.5377 156.64 46.5194 155.808C52.1862 154.234 57.4164 151.467 63.3221 150.726C66.4767 150.33 69.7054 150.544 72.8765 150.569C76.13 150.594 79.3752 150.586 82.6287 150.454C88.8308 150.199 95 149.449 101.021 151.442C103.854 152.381 106.605 153.518 109.571 154.004C112.791 154.531 115.88 154.029 119.01 153.23C121.893 152.488 124.751 151.574 127.708 151.162C130.434 150.775 133.193 150.94 135.903 151.401C138.885 151.912 141.792 152.76 144.741 153.386C147.838 154.045 151.001 154.416 154.163 154.284C159.954 154.045 165.579 152.291 171.395 152.274C174.121 152.266 176.839 152.604 179.565 152.686C179.598 152.686 179.631 152.686 179.672 152.686C179.804 150.792 179.87 148.881 179.87 146.953C179.87 146.566 179.87 146.179 179.862 145.792C179.203 145.701 178.544 145.611 177.885 145.545C174.78 145.207 171.633 145.479 168.528 145.759C165.316 146.056 162.12 146.459 158.916 146.764C155.679 147.069 152.384 147.365 149.131 147.085C146.009 146.813 142.904 146.352 139.807 145.932C136.471 145.479 133.127 145.067 129.758 144.952C126.505 144.837 123.285 145.117 120.064 145.602C113.804 146.541 107.61 147.859 101.252 147.851C94.9671 147.843 88.7896 146.632 82.5957 145.71C79.2516 145.215 75.9241 144.787 72.5306 144.878C69.2112 144.968 65.9083 145.397 62.6302 145.907C56.4527 146.871 50.3329 148.008 44.0566 148.123C33.7527 148.304 23.564 146.484 13.3012 145.948C13.3012 146.286 13.293 146.624 13.293 146.962C13.293 148.667 13.3424 150.363 13.4495 152.052C18.5562 152.093 23.5475 153.345 28.333 155.157Z" fill="#6E4931"/>
<path d="M28.6464 151.063C30.6396 150.536 32.5176 149.597 34.5932 149.416C35.7381 149.317 36.8995 149.498 38.0444 149.589C39.2881 149.679 40.5318 149.712 41.7755 149.589C44.0324 149.358 46.3304 148.403 48.6119 148.65C49.625 148.757 50.5805 149.103 51.5689 149.325C52.8373 149.614 54.0893 149.63 55.3495 149.292C57.5157 148.708 59.4184 147.497 61.7246 147.48C62.8612 147.472 63.9979 147.653 65.1181 147.826C66.4442 148.024 67.7538 148.082 69.0964 148.057C70.406 148.032 71.7238 147.95 73.0334 147.9C74.1289 147.859 75.175 147.843 76.2457 148.115C77.4483 148.419 78.6261 148.881 79.8698 148.93C81.1135 148.979 82.2749 148.51 83.428 148.106C84.4246 147.76 85.4048 147.497 86.4756 147.587C87.571 147.686 88.65 147.983 89.7208 148.222C90.9069 148.493 92.1094 148.559 93.3037 148.765C94.3003 148.938 95.2393 149.292 96.203 149.589C97.4302 149.968 98.6987 150.24 99.9836 150.264C101.17 150.289 102.339 150.1 103.509 149.885C104.538 149.696 105.576 149.474 106.622 149.383C107.808 149.284 108.994 149.457 110.181 149.482C111.292 149.507 112.363 149.292 113.459 149.243C114.546 149.194 115.584 149.383 116.663 149.539C117.972 149.729 119.142 149.671 120.402 149.251C121.374 148.93 122.297 148.477 123.285 148.205C124.957 147.744 126.818 147.719 128.532 147.703C129.38 147.694 130.245 147.703 131.085 147.81C131.101 147.81 131.118 147.818 131.134 147.818C132.09 147.662 133.078 147.653 134.017 147.67C135.623 147.694 137.221 147.851 138.819 147.999C139.453 148.057 140.088 148.123 140.73 148.164C141.653 148.222 142.592 148.189 143.514 148.238C145.483 148.337 147.41 148.592 149.296 149.177C151.026 149.721 152.681 150.602 154.518 150.701C156.594 150.816 158.595 149.968 160.547 149.366C161.503 149.07 162.483 148.815 163.48 148.699C164.583 148.559 165.712 148.6 166.824 148.658C169.039 148.773 171.263 148.996 173.454 148.551C175.431 148.156 177.416 148.131 179.426 148.098C179.566 148.098 179.714 148.09 179.854 148.09C179.862 147.719 179.862 147.349 179.862 146.97C179.862 146.583 179.862 146.195 179.854 145.808C179.195 145.718 178.536 145.627 177.877 145.561C174.772 145.223 171.626 145.495 168.52 145.775C165.308 146.072 162.112 146.475 158.908 146.78C155.671 147.085 152.377 147.381 149.123 147.101C146.001 146.83 142.896 146.368 139.799 145.948C136.463 145.495 133.119 145.083 129.751 144.968C126.497 144.853 123.277 145.133 120.056 145.619C113.796 146.558 107.602 147.876 101.244 147.867C94.9593 147.859 88.7818 146.648 82.5879 145.726C79.2439 145.232 75.9162 144.803 72.5228 144.894C69.2034 144.985 65.9005 145.413 62.6224 145.924C56.4449 146.887 50.3251 148.024 44.0488 148.139C33.7449 148.32 23.5562 146.5 13.2934 145.965C13.2934 146.302 13.2852 146.64 13.2852 146.978C13.2852 147.958 13.3016 148.93 13.3346 149.902C16.3739 150.824 19.7015 150.948 22.8232 151.179C24.8082 151.31 26.6861 151.582 28.6464 151.063Z" fill="#986749"/>
<path opacity="0.57" d="M150.21 191.06C144.642 191.126 139.19 192.864 133.885 194.388C128.721 195.878 123.458 197.279 118.038 197.229C112.289 197.18 106.688 195.697 101.054 194.701C98.048 194.165 95.0169 193.786 91.9529 193.795C88.9301 193.803 85.9072 194.099 82.9173 194.528C77.1188 195.351 71.4026 196.661 65.5958 197.394C62.8365 197.74 60.069 198.004 57.2933 197.666C54.8964 197.369 52.5655 196.71 50.3004 195.895C45.2432 194.075 40.4412 191.686 35.1039 190.739C31.7845 190.154 28.424 189.915 25.0635 189.709C39.6093 213.999 66.1888 230.258 96.5654 230.258C126.703 230.258 153.101 214.254 167.721 190.278C161.89 190.961 156.083 190.994 150.21 191.06Z" fill="#8C664B"/>
<path opacity="0.57" d="M145.145 208.868C139.882 209.246 134.94 211.396 129.709 212.006C124.265 212.64 118.746 212.879 113.269 212.764C107.891 212.648 102.512 212.072 97.1253 212.088C94.4072 212.096 91.681 212.31 89.0205 212.879C86.3025 213.464 83.6091 214.139 80.9074 214.806C78.3953 215.432 75.8666 216.009 73.2886 216.297C70.6611 216.594 68.0419 216.503 65.4144 216.182C60.6454 215.597 56 214.287 51.4534 212.772C48.0105 211.627 44.5923 210.35 41.1494 209.156C55.8682 222.285 75.2819 230.266 96.5652 230.266C117.774 230.266 137.122 222.343 151.833 209.288C149.617 208.958 147.385 208.703 145.145 208.868Z" fill="#8C664B"/>
<g opacity="0.57">
<path d="M28.4574 166.169C27.1972 166.07 25.9864 166.375 25.2863 167.19C24.6439 167.94 24.3391 169.027 24.3391 169.999C24.2897 172.379 25.3275 174.71 28.0785 174.422C30.3765 174.175 32.5015 172.388 32.831 170.057C33.144 167.866 30.7389 166.35 28.4574 166.169Z" fill="#8C664B"/>
<path d="M37.65 176.449C37.65 176.424 37.6418 176.399 37.6335 176.375C37.6335 176.342 37.6253 176.317 37.6253 176.284C37.6006 176.169 37.5429 176.078 37.4605 176.012C37.3287 175.88 37.1474 175.806 36.9496 175.814C36.7766 175.814 36.6036 175.856 36.4388 175.921C36.2987 175.979 36.1834 176.053 36.0763 176.16C35.9609 176.243 35.8703 176.35 35.7961 176.474C35.7055 176.655 35.6066 176.844 35.6148 177.059C35.6148 177.116 35.6231 177.166 35.6313 177.223C35.6066 177.322 35.6066 177.421 35.6313 177.52C35.6725 177.652 35.7467 177.759 35.8538 177.841C36.0268 177.973 36.2987 177.965 36.4882 177.932C36.9661 177.85 37.4523 177.471 37.6006 177.001C37.6665 176.795 37.6748 176.647 37.65 176.449Z" fill="#8C664B"/>
<path d="M48.9997 190.138C48.7772 190.121 48.5712 190.187 48.39 190.294C47.8873 190.294 47.4589 190.698 47.2694 191.127C47.1046 191.481 47.154 191.934 47.4177 192.222C47.6566 192.486 47.9697 192.676 48.324 192.676C49.0986 192.692 49.6341 191.992 49.7248 191.275C49.7989 190.764 49.6012 190.179 48.9997 190.138Z" fill="#8C664B"/>
<path d="M25.1796 161.005C24.9489 160.453 24.5948 159.984 23.8947 160.033C23.3758 160.074 22.9228 160.387 22.5686 160.766C21.7614 161.631 21.9097 163.122 23.3428 163.039C23.5158 163.064 23.697 163.089 23.8782 163.081C24.5865 163.064 25.6408 162.348 25.369 161.516C25.3113 161.351 25.2455 161.178 25.1796 161.005Z" fill="#8C664B"/>
<path d="M33.7365 182.519C33.1023 182.132 32.4186 182.074 31.8174 182.272C31.7844 182.272 31.7515 182.263 31.7185 182.263C31.0431 182.247 30.4007 182.593 29.9477 183.071C29.1734 183.878 28.6298 185.336 29.3711 186.341C30.4171 187.749 33.0529 186.901 34.0742 185.904C35.1285 184.874 34.9967 183.293 33.7365 182.519Z" fill="#8C664B"/>
<path d="M50.2601 180.715C49.6833 180.715 49.1395 181.745 49.9058 181.745C50.4825 181.745 51.0263 180.715 50.2601 180.715Z" fill="#8C664B"/>
<path d="M53.9822 160.601C53.3562 160.074 52.4585 160.041 51.6595 160.28C51.6266 160.28 51.5854 160.272 51.5525 160.272C50.4405 160.272 49.3039 161.063 49.1638 162.216C49.0321 163.295 49.7898 164.456 50.8029 164.802C51.9231 165.181 53.2739 164.67 54.0316 163.805C54.8388 162.875 55.0118 161.458 53.9822 160.601Z" fill="#8C664B"/>
<path d="M60.8195 161.227C60.0861 161.227 59.394 162.537 60.3745 162.537C61.1078 162.537 61.8 161.227 60.8195 161.227Z" fill="#8C664B"/>
<path d="M73.7499 174.422C72.4897 174.521 71.2789 174.216 70.5788 173.401C69.9363 172.651 69.6316 171.564 69.6316 170.592C69.5821 168.212 70.62 165.881 73.371 166.169C75.669 166.416 77.794 168.204 78.1235 170.535C78.4365 172.726 76.0314 174.241 73.7499 174.422Z" fill="#8C664B"/>
<path d="M91.92 166.985C91.5823 167.009 91.2694 166.911 90.9893 166.746C90.2233 166.746 89.5644 166.136 89.2679 165.469C89.0208 164.925 89.0867 164.234 89.4985 163.781C89.8609 163.385 90.3386 163.089 90.8905 163.081C92.0848 163.064 92.9002 164.135 93.0403 165.222C93.1473 166.021 92.8425 166.927 91.92 166.985Z" fill="#8C664B"/>
<path d="M62.9681 188.029C63.2399 187.197 62.1856 186.481 61.4772 186.464C61.296 186.456 61.1148 186.481 60.9418 186.505C59.5004 186.423 59.3604 187.914 60.1676 188.779C60.5218 189.158 60.9748 189.479 61.4937 189.512C62.1938 189.561 62.548 189.092 62.7786 188.54C62.8527 188.375 62.9104 188.202 62.9681 188.029Z" fill="#8C664B"/>
<path d="M72.8439 157.891C72.2097 158.279 71.526 158.336 70.9247 158.139C70.8918 158.139 70.8589 158.147 70.8259 158.147C70.1505 158.163 69.5081 157.817 69.0551 157.34C68.2808 156.532 67.7372 155.074 68.4785 154.07C69.5246 152.661 72.1602 153.51 73.1816 154.506C74.2359 155.536 74.1041 157.117 72.8439 157.891Z" fill="#8C664B"/>
<path d="M83.1976 189.009C82.5716 189.536 81.6738 189.569 80.8749 189.331C80.8419 189.331 80.8007 189.339 80.7678 189.339C79.6559 189.339 78.5192 188.548 78.3792 187.395C78.2474 186.316 79.0052 185.155 80.0183 184.809C81.1385 184.43 82.4893 184.94 83.247 185.805C84.0542 186.744 84.2189 188.161 83.1976 189.009Z" fill="#8C664B"/>
<path d="M98.4278 188.326C97.6945 188.326 97.0024 187.016 97.9829 187.016C98.7162 187.016 99.4083 188.326 98.4278 188.326Z" fill="#8C664B"/>
<path d="M105.997 170.304C105.371 170.254 104.762 170.403 104.407 170.815C104.086 171.185 103.938 171.729 103.938 172.215C103.913 173.409 104.432 174.57 105.808 174.422C106.961 174.299 108.023 173.409 108.188 172.239C108.344 171.152 107.142 170.394 105.997 170.304Z" fill="#8C664B"/>
<path d="M117.256 176.449C117.256 176.424 117.248 176.399 117.24 176.375C117.24 176.342 117.231 176.317 117.231 176.284C117.207 176.169 117.149 176.078 117.067 176.012C116.935 175.88 116.753 175.806 116.556 175.814C116.383 175.814 116.21 175.856 116.045 175.921C115.905 175.979 115.789 176.053 115.682 176.16C115.567 176.243 115.476 176.35 115.402 176.474C115.311 176.655 115.213 176.844 115.221 177.059C115.221 177.116 115.229 177.166 115.237 177.223C115.213 177.322 115.213 177.421 115.237 177.52C115.278 177.652 115.353 177.759 115.46 177.841C115.633 177.973 115.905 177.965 116.094 177.932C116.572 177.85 117.058 177.471 117.207 177.001C117.272 176.795 117.281 176.647 117.256 176.449Z" fill="#8C664B"/>
<path d="M128.607 190.138C128.385 190.121 128.179 190.187 127.997 190.294C127.495 190.294 127.066 190.698 126.877 191.127C126.712 191.481 126.761 191.934 127.025 192.222C127.264 192.486 127.577 192.676 127.94 192.676C128.714 192.692 129.25 191.992 129.34 191.275C129.406 190.764 129.209 190.179 128.607 190.138Z" fill="#8C664B"/>
<path d="M104.777 161.005C104.547 160.453 104.192 159.984 103.492 160.033C102.973 160.074 102.52 160.387 102.166 160.766C101.359 161.631 101.507 163.122 102.94 163.039C103.113 163.064 103.295 163.089 103.476 163.081C104.184 163.064 105.239 162.348 104.967 161.516C104.909 161.351 104.851 161.178 104.777 161.005Z" fill="#8C664B"/>
<path d="M113.343 182.519C112.709 182.132 112.026 182.074 111.424 182.272C111.391 182.272 111.358 182.263 111.325 182.263C110.65 182.247 110.008 182.593 109.555 183.071C108.78 183.878 108.237 185.336 108.978 186.341C110.024 187.749 112.66 186.901 113.681 185.904C114.735 184.874 114.604 183.293 113.343 182.519Z" fill="#8C664B"/>
<path d="M129.859 180.715C129.282 180.715 128.738 181.745 129.504 181.745C130.089 181.745 130.633 180.715 129.859 180.715Z" fill="#8C664B"/>
<path d="M133.59 160.601C132.964 160.074 132.066 160.041 131.267 160.28C131.234 160.28 131.193 160.272 131.16 160.272C130.048 160.272 128.911 161.063 128.771 162.216C128.639 163.295 129.397 164.456 130.41 164.802C131.531 165.181 132.881 164.67 133.639 163.805C134.446 162.875 134.611 161.458 133.59 160.601Z" fill="#8C664B"/>
<path d="M140.426 161.227C139.693 161.227 139 162.537 139.981 162.537C140.714 162.537 141.398 161.227 140.426 161.227Z" fill="#8C664B"/>
<path d="M148.877 176.498C147.938 176.572 147.024 176.35 146.496 175.732C146.011 175.172 145.788 174.356 145.788 173.623C145.747 171.836 146.529 170.09 148.589 170.304C150.318 170.485 151.908 171.828 152.155 173.582C152.394 175.23 150.59 176.366 148.877 176.498Z" fill="#8C664B"/>
<path d="M171.527 166.985C171.19 167.009 170.877 166.911 170.597 166.746C169.823 166.746 169.172 166.136 168.875 165.469C168.628 164.925 168.694 164.234 169.106 163.781C169.468 163.385 169.946 163.089 170.498 163.081C171.692 163.064 172.508 164.135 172.648 165.222C172.747 166.021 172.442 166.927 171.527 166.985Z" fill="#8C664B"/>
<path d="M142.576 188.029C142.848 187.197 141.793 186.481 141.085 186.464C140.904 186.456 140.723 186.481 140.55 186.505C139.108 186.423 138.968 187.914 139.776 188.779C140.13 189.158 140.583 189.479 141.102 189.512C141.802 189.561 142.156 189.092 142.386 188.54C142.461 188.375 142.518 188.202 142.576 188.029Z" fill="#8C664B"/>
<path d="M154.823 161.128C154.42 161.376 153.991 161.409 153.612 161.285C153.596 161.285 153.571 161.293 153.555 161.293C153.126 161.301 152.723 161.087 152.435 160.783C151.94 160.272 151.603 159.349 152.072 158.715C152.739 157.826 154.403 158.361 155.054 158.987C155.705 159.638 155.614 160.643 154.823 161.128Z" fill="#8C664B"/>
<path d="M162.796 189.009C162.17 189.536 161.272 189.569 160.474 189.331C160.441 189.331 160.399 189.339 160.366 189.339C159.254 189.339 158.118 188.548 157.978 187.395C157.846 186.316 158.604 185.155 159.617 184.809C160.737 184.43 162.088 184.94 162.846 185.805C163.653 186.744 163.826 188.161 162.796 189.009Z" fill="#8C664B"/>
</g>
<g opacity="0.57">
<path d="M39.7823 198.646C39.4198 198.613 39.0655 198.704 38.8595 198.943C38.67 199.157 38.5875 199.478 38.5875 199.758C38.5711 200.45 38.8759 201.134 39.6752 201.044C40.3426 200.969 40.9605 200.45 41.0594 199.775C41.1418 199.14 40.4415 198.695 39.7823 198.646Z" fill="#8C664B"/>
<path d="M40.9525 203.819C40.9525 203.811 40.9443 203.794 40.9443 203.786C40.9443 203.769 40.9443 203.761 40.9443 203.745C40.936 203.695 40.9113 203.654 40.8701 203.621C40.8124 203.563 40.73 203.531 40.6394 203.531C40.557 203.531 40.4828 203.547 40.4087 203.58C40.3428 203.605 40.2933 203.638 40.2439 203.687C40.1944 203.728 40.1533 203.769 40.1203 203.827C40.0791 203.91 40.0379 203.992 40.0379 204.091C40.0379 204.116 40.0379 204.14 40.0461 204.165C40.0379 204.206 40.0297 204.256 40.0461 204.297C40.0626 204.354 40.0956 204.404 40.145 204.445C40.2192 204.503 40.3428 204.503 40.4334 204.486C40.6477 204.453 40.8701 204.28 40.936 204.066C40.9607 203.975 40.9689 203.91 40.9525 203.819Z" fill="#8C664B"/>
<path d="M35.344 196.875C35.2369 196.628 35.0804 196.414 34.7673 196.438C34.5366 196.455 34.3306 196.595 34.174 196.768C33.8115 197.155 33.8774 197.831 34.5201 197.79C34.6025 197.798 34.6767 197.806 34.7591 197.806C35.0804 197.798 35.5501 197.477 35.4265 197.106C35.4017 197.032 35.377 196.949 35.344 196.875Z" fill="#8C664B"/>
<path d="M63.0598 214.765C62.7715 214.592 62.4666 214.567 62.1947 214.65C62.1782 214.65 62.17 214.641 62.1535 214.641C61.8486 214.633 61.5602 214.79 61.3542 215.004C61.0082 215.367 60.761 216.026 61.0988 216.479C61.5685 217.113 62.755 216.734 63.2164 216.281C63.6861 215.828 63.6201 215.111 63.0598 214.765Z" fill="#8C664B"/>
<path d="M46.6273 205.738C46.3637 205.738 46.1247 206.199 46.4708 206.199C46.7262 206.207 46.9652 205.738 46.6273 205.738Z" fill="#8C664B"/>
<path d="M48.2999 196.694C48.0198 196.455 47.616 196.447 47.2535 196.546C47.237 196.546 47.2205 196.546 47.204 196.546C46.7014 196.546 46.1906 196.9 46.1329 197.419C46.0752 197.905 46.413 198.424 46.8744 198.581C47.377 198.754 47.9868 198.523 48.3246 198.128C48.6871 197.716 48.7613 197.081 48.2999 196.694Z" fill="#8C664B"/>
<path d="M51.3716 196.974C51.042 196.974 50.7289 197.559 51.1656 197.559C51.5034 197.567 51.8165 196.974 51.3716 196.974Z" fill="#8C664B"/>
<path d="M56.5109 205.87C55.9426 205.911 55.399 205.779 55.086 205.408C54.7977 205.071 54.6577 204.585 54.6577 204.148C54.633 203.077 55.1025 202.031 56.338 202.163C57.3758 202.27 58.3312 203.077 58.4795 204.123C58.6195 205.112 57.5405 205.787 56.5109 205.87Z" fill="#8C664B"/>
<path d="M65.3661 199.561C65.2095 199.569 65.0694 199.528 64.9458 199.454C64.5998 199.454 64.3031 199.182 64.1713 198.877C64.0559 198.63 64.0889 198.325 64.2784 198.119C64.4432 197.938 64.6575 197.806 64.9046 197.806C65.4402 197.798 65.811 198.284 65.8687 198.77C65.9099 199.133 65.778 199.536 65.3661 199.561Z" fill="#8C664B"/>
<path d="M52.3438 209.033C52.4674 208.654 51.9895 208.341 51.6764 208.332C51.594 208.332 51.5117 208.34 51.4375 208.349C50.7866 208.308 50.7289 208.983 51.0914 209.37C51.248 209.544 51.454 209.684 51.6847 209.7C51.9978 209.725 52.1626 209.511 52.2615 209.263C52.2862 209.189 52.3191 209.107 52.3438 209.033Z" fill="#8C664B"/>
<path d="M62.9194 209.304C62.7793 209.42 62.5733 209.428 62.4003 209.379C62.392 209.379 62.3838 209.379 62.3755 209.379C62.1283 209.379 61.8729 209.197 61.84 208.942C61.807 208.695 61.98 208.439 62.2107 208.357C62.4661 208.274 62.771 208.39 62.9358 208.579C63.1088 208.794 63.1501 209.107 62.9194 209.304Z" fill="#8C664B"/>
<path d="M68.2898 209.164C67.9602 209.164 67.6471 208.579 68.092 208.579C68.4134 208.571 68.7265 209.164 68.2898 209.164Z" fill="#8C664B"/>
<path d="M72.6217 199.198C72.0534 199.156 71.5098 199.288 71.1968 199.659C70.9085 199.997 70.7685 200.483 70.7685 200.919C70.7438 201.99 71.2133 203.036 72.4488 202.904C73.4866 202.797 74.442 201.99 74.5903 200.944C74.7303 199.955 73.6431 199.28 72.6217 199.198Z" fill="#8C664B"/>
<path d="M76.7576 203.819C76.7576 203.811 76.7494 203.794 76.7494 203.786C76.7494 203.769 76.7494 203.761 76.7494 203.745C76.7412 203.695 76.7165 203.654 76.6753 203.621C76.6176 203.563 76.5352 203.531 76.4445 203.531C76.3621 203.531 76.288 203.547 76.2138 203.58C76.1479 203.605 76.0985 203.638 76.0491 203.687C75.9996 203.728 75.9584 203.769 75.9254 203.827C75.8842 203.91 75.8431 203.992 75.8431 204.091C75.8431 204.116 75.8431 204.14 75.8513 204.165C75.8431 204.206 75.8348 204.256 75.8513 204.297C75.8678 204.354 75.9007 204.404 75.9502 204.445C76.0243 204.503 76.1479 204.503 76.2385 204.486C76.4528 204.453 76.6752 204.28 76.7412 204.066C76.7659 203.975 76.7659 203.91 76.7576 203.819Z" fill="#8C664B"/>
<path d="M81.8634 209.98C81.7645 209.971 81.6739 210.004 81.5915 210.045C81.369 210.045 81.1713 210.227 81.0889 210.416C81.0147 210.573 81.0312 210.779 81.1548 210.911C81.2619 211.026 81.4019 211.117 81.5667 211.117C81.9128 211.125 82.16 210.803 82.2012 210.49C82.2177 210.26 82.1271 209.996 81.8634 209.98Z" fill="#8C664B"/>
<path d="M71.1477 196.875C71.0406 196.628 70.8841 196.414 70.571 196.438C70.3403 196.455 70.1343 196.595 69.9777 196.768C69.6152 197.155 69.6811 197.831 70.3238 197.79C70.4062 197.798 70.4803 197.806 70.5627 197.806C70.8841 197.798 71.3537 197.477 71.2301 197.106C71.2054 197.032 71.1807 196.949 71.1477 196.875Z" fill="#8C664B"/>
<path d="M74.9949 213.662C74.7065 213.488 74.4017 213.464 74.1298 213.546C74.1133 213.546 74.105 213.538 74.0886 213.538C73.7837 213.53 73.4953 213.686 73.2893 213.9C72.9432 214.263 72.6961 214.922 73.0339 215.375C73.5035 216.01 74.69 215.631 75.1515 215.178C75.6211 214.724 75.5634 214.008 74.9949 213.662Z" fill="#8C664B"/>
<path d="M82.4237 205.738C82.1601 205.738 81.9211 206.199 82.2672 206.199C82.5308 206.207 82.7698 205.738 82.4237 205.738Z" fill="#8C664B"/>
<path d="M84.1046 196.694C83.8244 196.455 83.4207 196.447 83.0582 196.546C83.0417 196.546 83.0252 196.546 83.0087 196.546C82.5061 196.546 81.9952 196.9 81.9376 197.419C81.8799 197.905 82.2177 198.424 82.6792 198.581C83.1818 198.754 83.7915 198.523 84.1293 198.128C84.4836 197.716 84.566 197.081 84.1046 196.694Z" fill="#8C664B"/>
<path d="M87.1765 196.974C86.8469 196.974 86.5338 197.559 86.9787 197.559C87.3083 197.567 87.6132 196.974 87.1765 196.974Z" fill="#8C664B"/>
<path d="M92.3161 205.87C91.7477 205.911 91.2041 205.779 90.8911 205.408C90.6028 205.071 90.4628 204.585 90.4628 204.148C90.4381 203.077 90.9076 202.031 92.1431 202.163C93.1809 202.27 94.1363 203.077 94.2846 204.123C94.4246 205.112 93.3456 205.787 92.3161 205.87Z" fill="#8C664B"/>
<path d="M101.162 199.561C101.006 199.569 100.866 199.528 100.742 199.454C100.396 199.454 100.099 199.182 99.9675 198.877C99.8604 198.63 99.8851 198.325 100.075 198.119C100.239 197.938 100.454 197.806 100.701 197.806C101.236 197.798 101.607 198.284 101.665 198.77C101.714 199.133 101.574 199.536 101.162 199.561Z" fill="#8C664B"/>
<path d="M88.1402 209.033C88.2638 208.654 87.7859 208.341 87.4728 208.332C87.3904 208.332 87.308 208.34 87.2339 208.349C86.5829 208.308 86.5253 208.983 86.8878 209.37C87.0444 209.544 87.2504 209.684 87.4811 209.7C87.7942 209.725 87.9589 209.511 88.0578 209.263C88.0908 209.189 88.1155 209.107 88.1402 209.033Z" fill="#8C664B"/>
<path d="M97.2413 209.47C96.9612 209.708 96.5574 209.717 96.1949 209.618C96.1784 209.618 96.1619 209.618 96.1454 209.618C95.6428 209.618 95.132 209.264 95.0743 208.744C95.0166 208.258 95.3545 207.739 95.8159 207.583C96.3185 207.41 96.9282 207.64 97.266 208.036C97.6286 208.456 97.7027 209.091 97.2413 209.47Z" fill="#8C664B"/>
</g>
<g opacity="0.57">
<path d="M111.136 200.285C111.103 200.713 111.21 201.125 111.499 201.364C111.754 201.578 112.124 201.677 112.462 201.677C113.278 201.685 114.068 201.323 113.953 200.384C113.862 199.601 113.245 198.885 112.446 198.778C111.696 198.679 111.186 199.511 111.136 200.285Z" fill="#8C664B"/>
<path d="M117.182 198.852C117.166 198.852 117.157 198.86 117.141 198.86C117.124 198.86 117.108 198.86 117.091 198.868C117.034 198.885 116.984 198.91 116.951 198.959C116.885 199.033 116.844 199.124 116.844 199.231C116.844 199.322 116.869 199.412 116.902 199.503C116.935 199.577 116.976 199.635 117.026 199.692C117.067 199.75 117.124 199.799 117.19 199.841C117.289 199.89 117.388 199.94 117.503 199.931C117.528 199.931 117.561 199.931 117.586 199.923C117.635 199.931 117.693 199.94 117.742 199.923C117.808 199.898 117.866 199.857 117.915 199.799C117.981 199.709 117.981 199.569 117.965 199.462C117.924 199.214 117.718 198.959 117.47 198.885C117.363 198.835 117.289 198.835 117.182 198.852Z" fill="#8C664B"/>
<path d="M109.118 205.507C108.83 205.631 108.583 205.82 108.616 206.191C108.64 206.463 108.805 206.702 109.011 206.883C109.473 207.303 110.255 207.221 110.206 206.463C110.222 206.372 110.231 206.273 110.222 206.183C110.206 205.812 109.827 205.26 109.39 205.408C109.291 205.441 109.201 205.474 109.118 205.507Z" fill="#8C664B"/>
<path d="M134.281 216.141C134.001 215.968 133.697 215.943 133.433 216.025C133.416 216.025 133.408 216.017 133.392 216.017C133.095 216.009 132.807 216.166 132.609 216.371C132.263 216.726 132.024 217.377 132.353 217.822C132.815 218.448 133.985 218.069 134.438 217.632C134.899 217.179 134.842 216.479 134.281 216.141Z" fill="#8C664B"/>
<path d="M133.844 202.625C133.589 202.625 133.35 203.078 133.688 203.078C133.943 203.086 134.182 202.625 133.844 202.625Z" fill="#8C664B"/>
<path d="M134.266 197.781C133.985 197.55 133.59 197.534 133.236 197.641C133.219 197.641 133.203 197.641 133.186 197.641C132.692 197.641 132.189 197.987 132.131 198.498C132.074 198.976 132.412 199.487 132.857 199.643C133.351 199.808 133.952 199.586 134.29 199.198C134.644 198.786 134.719 198.16 134.266 197.781Z" fill="#8C664B"/>
<path d="M138.522 193.992C138.193 193.992 137.888 194.569 138.325 194.569C138.646 194.577 138.959 193.992 138.522 193.992Z" fill="#8C664B"/>
<path d="M143.588 202.756C143.028 202.797 142.493 202.665 142.18 202.303C141.892 201.974 141.76 201.488 141.76 201.059C141.735 200.005 142.196 198.975 143.415 199.099C144.437 199.206 145.376 199.997 145.524 201.035C145.664 202.006 144.593 202.674 143.588 202.756Z" fill="#8C664B"/>
<path d="M152.295 196.547C152.146 196.555 152.006 196.514 151.883 196.439C151.545 196.439 151.248 196.168 151.116 195.871C151.009 195.632 151.034 195.327 151.215 195.121C151.38 194.948 151.586 194.816 151.833 194.808C152.361 194.8 152.723 195.278 152.789 195.756C152.839 196.118 152.707 196.522 152.295 196.547Z" fill="#8C664B"/>
<path d="M139.47 205.87C139.594 205.499 139.124 205.186 138.811 205.177C138.728 205.177 138.654 205.186 138.572 205.194C137.937 205.153 137.871 205.82 138.226 206.199C138.382 206.364 138.588 206.504 138.811 206.529C139.124 206.554 139.28 206.339 139.379 206.1C139.42 206.018 139.445 205.944 139.47 205.87Z" fill="#8C664B"/>
<path d="M148.968 195.748C148.687 195.921 148.383 195.945 148.119 195.863C148.102 195.863 148.094 195.863 148.078 195.871C147.781 195.879 147.493 195.723 147.295 195.517C146.949 195.163 146.71 194.512 147.039 194.067C147.501 193.441 148.671 193.82 149.124 194.256C149.585 194.709 149.528 195.41 148.968 195.748Z" fill="#8C664B"/>
<path d="M149.889 206.133C149.749 206.249 149.551 206.257 149.378 206.207C149.37 206.207 149.362 206.207 149.354 206.207C149.106 206.207 148.859 206.034 148.826 205.779C148.793 205.54 148.966 205.285 149.189 205.202C149.436 205.12 149.741 205.235 149.906 205.425C150.079 205.631 150.12 205.944 149.889 206.133Z" fill="#8C664B"/>
<path d="M155.177 206.001C154.848 206.001 154.543 205.425 154.979 205.425C155.301 205.416 155.614 206.001 155.177 206.001Z" fill="#8C664B"/>
<path d="M108.138 213.884C107.577 213.843 107.042 213.974 106.729 214.337C106.441 214.666 106.309 215.152 106.309 215.58C106.284 216.635 106.746 217.664 107.965 217.541C108.986 217.434 109.925 216.643 110.073 215.605C110.213 214.633 109.151 213.966 108.138 213.884Z" fill="#8C664B"/>
<path d="M111.532 222.26C111.458 222.252 111.392 222.277 111.334 222.31C111.169 222.31 111.029 222.441 110.963 222.581C110.914 222.697 110.922 222.845 111.013 222.944C111.087 223.026 111.194 223.092 111.309 223.092C111.565 223.101 111.738 222.87 111.771 222.631C111.795 222.466 111.729 222.268 111.532 222.26Z" fill="#8C664B"/>
<path d="M157.995 193.902C157.888 193.655 157.731 193.449 157.426 193.473C157.196 193.49 156.998 193.63 156.841 193.803C156.487 194.182 156.545 194.849 157.187 194.808C157.27 194.817 157.344 194.825 157.426 194.825C157.739 194.817 158.209 194.503 158.086 194.133C158.053 194.05 158.02 193.976 157.995 193.902Z" fill="#8C664B"/>
<path d="M111.944 219.172C111.754 219.172 111.573 219.509 111.828 219.509C112.018 219.509 112.199 219.172 111.944 219.172Z" fill="#8C664B"/>
<path d="M125.847 205.837C125.65 206.084 125.633 206.43 125.732 206.743C125.732 206.76 125.732 206.768 125.732 206.784C125.74 207.221 126.053 207.658 126.498 207.707C126.919 207.756 127.372 207.452 127.503 207.056C127.644 206.619 127.446 206.092 127.1 205.804C126.729 205.491 126.177 205.433 125.847 205.837Z" fill="#8C664B"/>
<path d="M126.061 203.168C126.061 203.456 126.58 203.72 126.571 203.341C126.571 203.053 126.061 202.789 126.061 203.168Z" fill="#8C664B"/>
<path d="M128.013 220.275C127.601 220.308 127.206 220.209 126.975 219.938C126.761 219.691 126.662 219.336 126.662 219.015C126.646 218.233 126.983 217.467 127.889 217.566C128.647 217.648 129.339 218.233 129.446 218.999C129.553 219.715 128.763 220.21 128.013 220.275Z" fill="#8C664B"/>
<path d="M134.743 210.046C134.627 210.054 134.528 210.021 134.438 209.972C134.182 209.972 133.968 209.774 133.869 209.551C133.787 209.37 133.812 209.148 133.943 208.999C134.067 208.868 134.224 208.777 134.405 208.769C134.792 208.76 135.064 209.115 135.113 209.469C135.146 209.733 135.048 210.029 134.743 210.046Z" fill="#8C664B"/>
<path d="M116.112 221.569C116.203 221.297 115.857 221.066 115.626 221.058C115.568 221.058 115.51 221.066 115.453 221.075C114.983 221.05 114.934 221.536 115.197 221.816C115.313 221.94 115.461 222.047 115.634 222.055C115.865 222.072 115.98 221.915 116.054 221.734C116.071 221.684 116.095 221.627 116.112 221.569Z" fill="#8C664B"/>
<path d="M124.711 198.489C124.868 198.737 124.892 199 124.818 199.239C124.818 199.256 124.818 199.264 124.826 199.272C124.835 199.536 124.703 199.791 124.521 199.964C124.208 200.269 123.64 200.492 123.244 200.203C122.692 199.8 123.005 198.77 123.393 198.366C123.788 197.962 124.406 198.003 124.711 198.489Z" fill="#8C664B"/>
<path d="M122.734 221.89C122.528 222.063 122.231 222.071 121.976 221.997C121.967 221.997 121.951 221.997 121.943 221.997C121.58 221.997 121.209 221.742 121.16 221.363C121.119 221.008 121.366 220.629 121.695 220.514C122.066 220.39 122.503 220.555 122.75 220.844C123.022 221.148 123.071 221.61 122.734 221.89Z" fill="#8C664B"/>
<path d="M106.573 222.861C106.235 222.655 105.881 222.631 105.56 222.729C105.543 222.729 105.527 222.721 105.51 222.721C105.156 222.713 104.819 222.894 104.58 223.141C104.168 223.57 103.888 224.336 104.275 224.863C104.827 225.604 106.211 225.159 106.754 224.632C107.306 224.105 107.24 223.273 106.573 222.861Z" fill="#8C664B"/>
<path d="M65.4642 222.104C65.3818 222.096 65.2994 222.12 65.2253 222.162C65.0275 222.162 64.8627 222.318 64.7885 222.483C64.7226 222.623 64.7391 222.796 64.8462 222.911C64.9369 223.01 65.0605 223.084 65.2005 223.093C65.5054 223.101 65.7114 222.821 65.7444 222.549C65.7691 222.343 65.6949 222.112 65.4642 222.104Z" fill="#8C664B"/>
<path d="M65.9499 218.43C65.7274 218.43 65.5132 218.834 65.8098 218.834C66.0405 218.834 66.2465 218.43 65.9499 218.43Z" fill="#8C664B"/>
<path d="M88.8312 226.955C88.3452 226.996 87.8675 226.873 87.5957 226.56C87.3486 226.272 87.2251 225.843 87.2251 225.464C87.2086 224.534 87.6122 223.628 88.6829 223.743C89.5807 223.842 90.4044 224.534 90.5362 225.448C90.6597 226.296 89.7207 226.889 88.8312 226.955Z" fill="#8C664B"/>
<path d="M70.9005 221.28C71.0076 220.959 70.5956 220.679 70.3237 220.671C70.2496 220.671 70.1837 220.679 70.1177 220.687C69.5575 220.654 69.4998 221.239 69.8129 221.577C69.953 221.725 70.126 221.849 70.332 221.865C70.6039 221.882 70.744 221.701 70.8346 221.486C70.8593 221.412 70.884 221.346 70.9005 221.28Z" fill="#8C664B"/>
<path d="M78.783 221.66C78.5358 221.866 78.1897 221.874 77.8766 221.783C77.8601 221.783 77.8519 221.783 77.8354 221.783C77.3987 221.783 76.962 221.478 76.9043 221.025C76.8549 220.605 77.1515 220.152 77.547 220.02C77.9837 219.872 78.511 220.069 78.8077 220.407C79.1208 220.778 79.1867 221.33 78.783 221.66Z" fill="#8C664B"/>
</g>
<path d="M21.5469 145.215C21.4151 144.4 20.6574 143.848 19.9572 143.51C18.3676 142.744 16.1602 142.769 14.7188 143.856C13.9528 144.433 13.4998 145.396 13.8375 146.344C14.134 147.175 14.9247 147.579 15.7731 147.423C15.8307 147.414 15.8884 147.39 15.9378 147.348C17.198 147.917 18.8535 147.867 20.0149 147.365C20.8468 147.002 21.7034 146.204 21.5469 145.215Z" fill="#5A3B25"/>
<path d="M33.7864 143.617C32.3779 142.744 30.5247 142.579 28.9103 142.604C27.1559 142.629 24.8414 142.917 23.7048 144.416C22.7164 145.726 23.7707 146.673 24.9567 147.217C25.4015 147.867 26.3652 148.287 27.0076 148.51C29.3139 149.325 33.4487 149.885 34.8901 147.307C35.6396 145.965 35.0384 144.391 33.7864 143.617Z" fill="#5A3B25"/>
<path d="M54.9711 144.828C53.5297 143.906 51.4541 144.342 50.0374 145.116C49.362 145.479 48.6042 146.113 48.5466 146.953C48.5383 147.093 48.5548 147.217 48.5795 147.332C48.5548 147.678 48.703 147.999 49.1396 148.164C49.362 148.246 49.6009 148.312 49.848 148.353C49.8727 148.362 49.8974 148.37 49.9221 148.37C49.9468 148.378 49.9797 148.378 50.0127 148.378C51.207 148.559 52.6072 148.362 53.6697 148.057C54.4192 147.843 55.2017 147.48 55.5971 146.772C56.0336 145.981 55.6795 145.273 54.9711 144.828Z" fill="#5A3B25"/>
<path d="M72.5809 142.028C70.0853 140.553 67.0459 140.743 64.6326 142.299C63.6854 142.909 62.5899 143.906 62.4334 145.092C62.277 146.302 63.2324 146.344 64.1467 146.475C64.1549 146.475 64.1549 146.475 64.1632 146.475C65.4316 147.307 67.2436 147.398 68.685 147.315C70.3077 147.225 72.2762 146.928 73.4705 145.718C74.8213 144.35 74.0141 142.876 72.5809 142.028Z" fill="#5A3B25"/>
<path d="M85.6021 144.705C84.5973 143.025 81.978 142.753 80.2318 142.81C78.8563 142.852 75.1334 143.947 76.3936 146.014C76.3936 146.253 76.4925 146.484 76.7149 146.69C78.0574 147.901 80.7013 148.074 82.3981 147.958C83.9466 147.843 86.8294 146.772 85.6021 144.705Z" fill="#5A3B25"/>
<path d="M105.123 144.573C103.155 143.724 100.494 143.527 98.4268 144.078C97.4466 144.342 96.1205 144.984 95.7746 146.03C95.7004 146.245 95.6922 146.434 95.7169 146.591C95.6263 146.689 95.544 146.788 95.4616 146.887C95.0333 147.439 95.2804 148.106 95.8652 148.37C98.4762 149.548 101.631 149.465 104.341 148.625C105.296 148.329 106.474 147.826 106.795 146.78C107.149 145.627 106.037 144.968 105.123 144.573Z" fill="#5A3B25"/>
<path d="M122.651 144.441C120.864 143.206 118.327 143.403 116.301 144.293C115.131 144.375 114.052 144.878 113.146 146.072C112.965 146.319 112.899 146.756 113.097 147.011C115.106 149.622 120.131 147.736 122.297 146.245C122.816 145.883 123.351 144.927 122.651 144.441Z" fill="#5A3B25"/>
<path d="M135.961 144.342C134.338 142.711 131.991 142.687 129.841 142.687C128.449 142.687 124.685 143.395 126.332 145.619C127.279 146.887 129.454 147.299 130.912 147.447C132.732 147.62 134.948 147.175 135.895 145.421C136.051 145.141 136.241 144.63 135.961 144.342Z" fill="#5A3B25"/>
<path d="M141.076 142.81C139.478 142.341 137.049 142.81 136.48 144.606C136.192 145.52 136.81 146.607 137.584 147.085C138.581 147.703 139.923 147.167 140.879 146.64C142.304 145.849 143.127 143.411 141.076 142.81Z" fill="#5A3B25"/>
<path d="M155.82 147.826C155.968 147.538 156.009 147.209 155.803 146.929C155.795 146.92 155.787 146.904 155.779 146.896C155.334 145.479 153.11 145.734 151.957 146.55C151.594 146.805 151.298 147.25 151.389 147.711C151.389 147.719 151.397 147.728 151.397 147.736C151.38 147.917 151.405 148.115 151.504 148.321C151.669 148.675 151.949 148.831 152.27 148.864C153.168 149.292 154.502 149.012 155.284 148.452C155.441 148.345 155.597 148.181 155.729 147.991C155.77 147.942 155.803 147.884 155.82 147.826Z" fill="#5A3B25"/>
<path d="M174.048 144.161C173.447 143.073 171.948 142.769 170.778 142.703C169.979 142.415 168.999 142.39 168.299 142.447C166.849 142.555 164.403 143.362 164.699 145.264C164.947 146.862 167.179 146.945 168.414 146.92C170.103 146.887 171.997 146.681 173.48 145.824C174.032 145.503 174.361 144.737 174.048 144.161Z" fill="#5A3B25"/>
<path d="M177.77 144.342C177.647 143.914 177.193 143.708 176.724 143.815C176.362 143.905 176.057 144.07 175.81 144.309C175.678 144.408 175.546 144.523 175.439 144.647C175.398 144.696 175.357 144.746 175.316 144.795C175.307 144.811 175.291 144.828 175.274 144.844H175.283C175.258 144.877 175.241 144.919 175.217 144.96C175.036 145.33 175.11 145.833 175.571 145.948C175.596 145.956 175.612 145.956 175.629 145.956C175.719 146.006 175.818 146.047 175.925 146.063C176.419 146.138 176.996 145.866 177.301 145.462C177.366 145.404 177.432 145.347 177.49 145.281C177.688 145.215 177.877 145.05 177.951 144.877C178.05 144.696 178.034 144.391 177.77 144.342Z" fill="#5A3B25"/>
<path d="M24.5612 146.755C24.1164 145.503 22.6667 145.429 21.3983 145.833C20.3358 145.825 19.2403 146.162 18.7131 147.134C17.7495 148.921 20.3522 149.276 21.5465 149.259C22.8561 149.234 25.1871 148.559 24.5612 146.755Z" fill="#82583D"/>
<path d="M39.3624 147.077C39.0988 146.928 38.8187 146.846 38.5305 146.863C38.4316 146.838 38.3246 146.821 38.2093 146.813C37.4927 146.797 36.9573 147.299 36.669 147.909C36.5537 148.156 36.6525 148.452 36.8584 148.609C37.5009 149.095 38.4399 148.93 39.0741 148.518C39.4612 148.263 39.9636 147.414 39.3624 147.077Z" fill="#82583D"/>
<path d="M56.8403 146.245C56.5768 146.088 56.3132 146.006 56.0167 146.031C55.4978 145.932 54.913 146.154 54.5094 146.467C54.1799 146.723 53.9081 147.102 53.9905 147.53C54.1058 148.115 54.6494 148.419 55.2095 148.411C56.0496 148.403 56.7332 147.859 57.0709 147.11C57.2027 146.83 57.1121 146.41 56.8403 146.245Z" fill="#82583D"/>
<path d="M75.4381 144.482C75.2981 144.383 75.1333 144.301 74.9521 144.243C74.9027 144.186 74.8533 144.12 74.7874 144.062C74.3344 143.675 73.6261 143.675 73.066 143.757C72.0446 143.914 70.4385 144.886 71.2457 146.105C71.8058 146.953 73.2883 147.069 74.1861 146.854C74.8039 146.706 75.3804 146.36 75.677 145.784C75.8993 145.331 75.8747 144.795 75.4381 144.482Z" fill="#82583D"/>
<path d="M92.4304 146.055C92.2821 145.866 92.0515 145.717 91.7797 145.627C91.755 145.594 91.7221 145.561 91.6891 145.528C91.3267 145.157 90.7254 145.067 90.223 145.075C89.2181 145.1 87.7108 145.536 87.3896 146.64C86.9943 147.991 89.0122 148.147 89.8688 148.18C90.5607 148.205 91.335 148.155 91.928 147.768C92.4798 147.406 92.8834 146.656 92.4304 146.055Z" fill="#82583D"/>
<path d="M111.342 146.451C110.526 145.858 109.2 145.998 108.451 146.64C108.105 146.937 107.66 147.48 107.998 147.95C108.113 148.115 108.278 148.222 108.451 148.271C108.772 148.427 109.2 148.444 109.522 148.419C110.172 148.362 110.831 148.123 111.276 147.629C111.572 147.316 111.762 146.755 111.342 146.451Z" fill="#82583D"/>
<path d="M126.3 144.91C126.103 144.639 125.724 144.49 125.287 144.49C124.422 144.49 123.368 144.902 123.055 145.783C122.915 146.171 122.997 146.574 123.269 146.887C123.59 147.258 123.969 147.348 124.439 147.406C125.435 147.53 126.836 147.324 127.181 146.203C127.412 145.437 126.943 145.042 126.3 144.91Z" fill="#82583D"/>
<path d="M144.767 145.841C144.594 145.685 144.388 145.553 144.165 145.454C143.885 145.215 143.506 145.051 143.169 144.968C142.18 144.746 140.805 144.968 140.459 146.088C140.179 147.011 141.208 147.464 141.933 147.604C142.889 147.785 144 147.728 144.709 146.97C145.022 146.632 145.129 146.179 144.767 145.841Z" fill="#82583D"/>
<path d="M160.539 145.973C159.806 145.322 158.324 145.289 157.467 145.677C157.22 145.792 156.998 145.981 156.866 146.204C156.553 146.451 156.364 146.805 156.462 147.242C156.66 148.082 157.723 148.057 158.398 147.958C159.238 147.843 160.111 147.513 160.63 146.822C160.836 146.55 160.787 146.196 160.539 145.973Z" fill="#82583D"/>
<path d="M174.872 145.602C174.592 145.199 174.156 145.116 173.735 145.215C173.323 145.092 172.846 145.355 172.574 145.66C172.425 145.825 172.228 146.13 172.335 146.369C172.483 146.707 172.681 146.978 173.052 147.086C173.422 147.193 173.892 147.119 174.222 146.929C174.502 146.773 174.732 146.608 174.872 146.311C174.98 146.089 175.021 145.825 174.872 145.602Z" fill="#82583D"/>
<path d="M167.969 56.3837C151.702 53.5668 132.873 57.2815 120.971 69.3152C115.971 74.3642 112.067 80.9041 110.164 87.7734C107.537 97.2455 111.886 107.344 122.643 107.879C129.644 108.225 136.612 104.42 141.801 100.013C145.73 96.6772 149.173 92.806 152.245 88.6794C155.293 84.5776 158.003 80.2369 160.647 75.8715C161.964 73.7053 163.241 71.5143 164.592 69.3646C165.638 67.709 166.824 66.1276 168.191 64.7274C170.629 62.2152 173.619 60.3455 176.963 59.3159C177.449 59.1677 177.943 59.0359 178.438 58.9206C175.036 57.7592 171.486 56.9932 167.969 56.3837Z" fill="#67AD14"/>
<path d="M171.404 61.0043C169.649 62.1739 168.01 63.5165 166.478 64.9661C165.086 66.2757 163.776 67.6595 162.533 69.1091C161.273 70.5835 160.086 72.1237 158.9 73.6557C157.591 75.3525 156.289 77.0575 154.939 78.7295C153.555 80.4509 152.122 82.1394 150.598 83.7456C149.115 85.3105 147.542 86.8014 145.837 88.1274C144.198 89.4041 142.444 90.5243 140.549 91.3726C138.68 92.2128 136.67 92.8058 134.627 92.9705C132.823 93.1188 130.83 92.7729 129.726 91.1997C129.216 90.4666 128.969 89.5853 128.878 88.704C128.754 87.4767 128.862 86.1918 129.166 85.0058C129.842 82.3701 131.472 80.0968 133.276 78.1117C134.199 77.0986 135.179 76.1514 136.176 75.2207C137.123 74.3394 138.095 73.4663 139.091 72.6426C141.035 71.0447 143.086 69.5704 145.219 68.2278C147.328 66.91 149.511 65.7156 151.759 64.6614C153.975 63.6235 156.256 62.7093 158.571 61.9103C160.91 61.1114 163.29 60.436 165.687 59.8594C168.101 59.2829 170.547 58.8216 173.001 58.4427C173.891 58.3027 174.781 58.1874 175.67 58.0721C175.258 57.9568 174.838 57.8415 174.426 57.7344H174.418C170.3 57.8332 166.182 58.3521 162.146 59.1758C158.2 59.983 154.329 61.1196 150.598 62.6352C146.545 64.2825 142.658 66.3334 138.976 68.7055C135.311 71.0612 131.876 73.7381 128.647 76.6538C126.942 78.1859 125.303 79.7508 123.771 81.4558C122.223 83.1937 120.773 85.014 119.389 86.892C118.08 88.6711 116.803 90.4749 115.609 92.3281C115.197 92.9705 114.777 93.646 114.217 94.1731C113.846 94.5273 113.344 94.8238 112.817 94.6508C112.092 94.412 111.655 93.5307 111.367 92.8882C111.062 92.2046 110.897 91.4797 110.832 90.7384C110.683 89.017 111.029 87.2626 111.499 85.6153C111.96 83.9762 112.578 82.3783 113.237 80.8051C113.854 79.3225 114.513 77.8811 115.263 76.4644C113.014 79.9814 111.252 83.8197 110.156 87.7733C107.529 97.2453 111.878 107.343 122.635 107.879C129.636 108.225 136.604 104.419 141.793 100.013C145.722 96.677 149.165 92.8058 152.237 88.6793C155.285 84.5775 157.994 80.2368 160.638 75.8714C161.956 73.7052 163.233 71.5142 164.584 69.3644C165.63 67.7089 166.816 66.1275 168.183 64.7273C170.613 62.2151 173.611 60.3454 176.955 59.3158C177.441 59.1676 177.935 59.0358 178.429 58.9204C177.861 58.7228 177.284 58.5416 176.708 58.3686C174.822 58.9699 173.051 59.9171 171.404 61.0043Z" fill="#409100"/>
<path d="M148.514 59.0851C148.242 58.2367 147.262 57.9566 146.471 57.8578C144.066 57.5613 141.48 58.4179 139.306 59.3486C138.408 59.7275 135.583 60.7489 135.401 62.0997C135.261 62.3632 135.171 62.6597 135.154 62.9727C135.064 64.5047 136.802 64.8836 137.996 64.8507C139.841 64.8013 141.686 64.2741 143.407 63.6399C144.906 63.0798 146.62 62.3879 147.781 61.243C148.316 60.6994 148.769 59.8593 148.514 59.0851Z" fill="#92C10B"/>
<path d="M130.147 66.7783C130.147 66.7371 130.139 66.6959 130.114 66.6464C130.016 66.4734 129.777 66.4734 129.604 66.5311C129.002 66.4404 128.425 66.7865 128.096 67.2809C128.038 67.3633 128.005 67.4622 127.98 67.561C127.75 67.8577 127.873 68.2367 128.244 68.3685C128.549 68.4838 128.969 68.3932 129.258 68.2861C129.562 68.1707 129.81 67.973 130.04 67.7505C130.362 67.4539 130.403 67.0419 130.147 66.7783Z" fill="#92C10B"/>
<path d="M145.359 66.1357C138.177 71.0365 131.645 76.7363 126.151 83.2843C115.197 96.4794 108.731 112.887 103.303 128.989C100.717 137.201 98.7648 145.619 97.2163 154.185C97.5293 136.682 102.405 119.451 109.777 103.621C116.877 87.5839 129.364 73.5404 145.359 66.1357Z" fill="#405621"/>
<path d="M171.791 4.16364C158.019 -1.51138 140.722 -1.93147 127.882 6.32984C122.495 9.79745 117.767 14.7888 114.744 20.4556C110.568 28.2722 112.421 38.0243 121.786 40.6023C127.882 42.2826 134.759 40.2976 140.195 37.4395C144.305 35.2733 148.094 32.5387 151.611 29.5076C155.103 26.493 158.332 23.2067 161.52 19.8873C163.101 18.24 164.658 16.5597 166.264 14.9371C167.508 13.6851 168.867 12.532 170.341 11.5601C172.977 9.8304 175.975 8.76789 179.121 8.51256C179.583 8.47961 180.036 8.4549 180.497 8.4549C177.746 6.74992 174.764 5.38265 171.791 4.16364Z" fill="#67AD14"/>
<path d="M173.916 8.89944C172.136 9.58308 170.44 10.4479 168.801 11.4198C167.318 12.3012 165.893 13.2648 164.509 14.2944C163.109 15.3405 161.767 16.4689 160.424 17.589C158.933 18.8245 157.459 20.0683 155.943 21.2791C154.387 22.5228 152.797 23.7335 151.141 24.8455C149.527 25.9327 147.847 26.9376 146.092 27.7695C144.404 28.5684 142.633 29.2109 140.796 29.5898C138.992 29.9604 137.098 30.084 135.269 29.8286C133.655 29.6062 131.967 28.9144 131.299 27.3082C130.995 26.5669 130.953 25.735 131.044 24.9443C131.176 23.8406 131.522 22.7287 132.024 21.7403C133.136 19.5576 135.022 17.8691 136.999 16.4771C138.004 15.7688 139.058 15.1263 140.121 14.5003C141.134 13.9073 142.147 13.3307 143.193 12.8036C145.219 11.774 147.311 10.8844 149.453 10.1184C151.561 9.36891 153.728 8.75119 155.91 8.25699C158.068 7.77927 160.251 7.41683 162.442 7.17797C164.658 6.93087 166.881 6.79909 169.114 6.76614C171.354 6.7332 173.594 6.79909 175.835 6.94735C176.642 7.00501 177.449 7.07092 178.256 7.14504C177.919 6.96384 177.573 6.78264 177.227 6.60967H177.218C173.57 5.89309 169.847 5.53891 166.132 5.47302C162.5 5.40712 158.867 5.64599 155.284 6.24726C151.388 6.89795 147.567 7.944 143.86 9.31127C140.17 10.6621 136.628 12.3506 133.21 14.2779C131.415 15.291 129.66 16.3453 127.98 17.5479C126.275 18.7751 124.644 20.093 123.063 21.4767C121.564 22.7863 120.089 24.1207 118.673 25.5209C118.187 26.0069 117.684 26.5175 117.091 26.8717C116.696 27.1105 116.193 27.2753 115.765 27.02C115.172 26.6658 114.958 25.8092 114.834 25.1832C114.694 24.5243 114.694 23.8489 114.785 23.1817C114.991 21.6332 115.642 20.1671 116.375 18.7998C117.108 17.4408 117.964 16.1641 118.846 14.9122C119.678 13.7343 120.542 12.5894 121.481 11.494C118.813 14.1462 116.506 17.1855 114.769 20.4471C110.593 28.2637 112.446 38.0158 121.811 40.5939C127.906 42.2741 134.783 40.2891 140.22 37.431C144.33 35.2648 148.118 32.5302 151.636 29.4992C155.128 26.4846 158.357 23.1982 161.544 19.8788C163.126 18.2315 164.682 16.5512 166.288 14.9286C167.532 13.6767 168.891 12.5235 170.366 11.5516C173.001 9.82194 175.999 8.75941 179.146 8.50408C179.607 8.47113 180.06 8.44642 180.521 8.44642C180.06 8.16637 179.591 7.88633 179.113 7.62276C177.317 7.77925 175.571 8.26523 173.916 8.89944Z" fill="#409100"/>
<path d="M154.14 2.71414C154.066 1.90695 153.259 1.47866 152.584 1.23156C150.524 0.498503 148.078 0.745579 145.986 1.1327C145.121 1.29743 142.436 1.63514 142.008 2.78826C141.835 2.99418 141.695 3.23304 141.621 3.51309C141.242 4.84742 142.691 5.51458 143.754 5.72049C145.385 6.04172 147.114 5.94287 148.754 5.71225C150.187 5.51457 151.826 5.24277 153.07 4.46029C153.646 4.09788 154.206 3.44719 154.14 2.71414Z" fill="#92C10B"/>
<path d="M136.456 5.89357C136.464 5.85238 136.464 5.81942 136.448 5.76999C136.39 5.59695 136.184 5.54752 136.019 5.57224C135.509 5.37449 134.932 5.56401 134.545 5.93479C134.479 6.0007 134.429 6.07485 134.388 6.15725C134.124 6.37148 134.157 6.72577 134.462 6.92352C134.709 7.08007 135.088 7.08833 135.368 7.04714C135.657 7.00594 135.921 6.88233 136.168 6.72578C136.514 6.51979 136.629 6.17372 136.456 5.89357Z" fill="#92C10B"/>
<path d="M147.575 9.17944C135.229 13.5119 123.821 21.3531 117.125 32.6785C110.857 44.0203 107.694 57.1823 105.412 69.9408C101.187 96.092 100.561 122.663 97.7769 149.012C97.9086 122.4 98.0486 95.7873 102.167 69.389C103.855 59.4886 106.475 49.6953 110.305 40.3879C111.573 37.2662 113.08 34.1857 114.95 31.3276C122.281 19.8788 134.553 12.2599 147.575 9.17944Z" fill="#405621"/>
<path d="M44.4612 20.1015C54.6334 18.4377 66.3706 20.8593 73.7341 28.4452C76.8228 31.6245 79.2279 35.7346 80.381 40.0341C81.9707 45.9644 79.1949 52.2407 72.4739 52.5207C68.1002 52.702 63.7678 50.2804 60.5555 47.5047C58.1175 45.3961 55.9924 42.9663 54.098 40.3635C52.2201 37.7855 50.5563 35.0592 48.9255 32.3164C48.1183 30.9573 47.3358 29.5818 46.5039 28.231C45.8614 27.1932 45.1284 26.1966 44.28 25.3153C42.7727 23.7338 40.9195 22.5478 38.8356 21.8888C38.5309 21.79 38.2261 21.7076 37.9131 21.6335C40.0464 20.9169 42.262 20.4639 44.4612 20.1015Z" fill="#67AD14"/>
<path d="M42.2869 22.9678C43.3742 23.7091 44.3872 24.5575 45.3427 25.4717C46.2075 26.2954 47.0147 27.1684 47.789 28.0827C48.5715 29.0052 49.2963 29.9771 50.0293 30.9408C50.8365 32.0116 51.6437 33.0823 52.4756 34.1284C53.3322 35.2156 54.2135 36.2781 55.1525 37.283C56.0668 38.2714 57.0469 39.2104 58.1012 40.0423C59.1143 40.8494 60.2097 41.5578 61.3876 42.1014C62.5489 42.6368 63.8009 43.0157 65.0776 43.131C66.1978 43.2298 67.4497 43.0322 68.1498 42.052C68.4711 41.599 68.6276 41.0471 68.6935 40.4953C68.7758 39.7293 68.7182 38.9303 68.537 38.1808C68.1334 36.5335 67.1203 35.1003 66.0083 33.8566C65.44 33.2224 64.8305 32.6211 64.2128 32.0363C63.628 31.4762 63.0267 30.9326 62.4007 30.4137C61.1982 29.4006 59.9215 28.4698 58.6036 27.6215C57.294 26.7813 55.9349 26.0318 54.543 25.3564C53.1674 24.6975 51.7508 24.1127 50.3094 23.602C48.8515 23.0913 47.3689 22.6548 45.8781 22.2842C44.3708 21.9135 42.847 21.6088 41.315 21.3534C40.7631 21.2628 40.2031 21.1804 39.6512 21.1063C39.9065 21.0404 40.1701 20.9663 40.4337 20.9004C40.4337 20.9004 40.4337 20.9004 40.4419 20.9004C43.0117 20.991 45.5816 21.3369 48.0937 21.8723C50.5565 22.3995 52.9615 23.1243 55.2843 24.0962C57.8047 25.1505 60.2262 26.4519 62.5078 27.9509C64.7811 29.4417 66.9143 31.1302 68.9158 32.9752C69.9701 33.9389 70.9915 34.9273 71.9305 36.0063C72.8859 37.1018 73.7837 38.2467 74.632 39.4245C75.4392 40.5365 76.2217 41.6731 76.963 42.8427C77.2183 43.2463 77.4737 43.6664 77.8196 44.0041C78.0502 44.2265 78.355 44.4159 78.6927 44.3088C79.1457 44.1606 79.4258 43.6169 79.607 43.2216C79.8046 42.8015 79.9117 42.3403 79.9529 41.879C80.0517 40.8 79.8458 39.7128 79.5657 38.675C79.2857 37.6454 78.9068 36.6488 78.5115 35.6604C78.1326 34.7297 77.729 33.8236 77.276 32.9423C78.6597 35.1497 79.7387 37.563 80.4059 40.034C81.9956 45.9644 79.2198 52.2407 72.4988 52.5207C68.1251 52.7019 63.7927 50.2804 60.5804 47.5046C58.1424 45.396 56.0173 42.9662 54.1229 40.3635C52.245 37.7854 50.5812 35.0591 48.9503 32.3163C48.1431 30.9573 47.3607 29.5818 46.5288 28.231C45.8863 27.1932 45.1532 26.1965 44.3049 25.3152C42.7976 23.7338 40.9443 22.5477 38.8605 21.8888C38.5557 21.79 38.251 21.7076 37.938 21.6335C38.2922 21.5181 38.6546 21.4028 39.017 21.2958C40.1701 21.6746 41.2656 22.2759 42.2869 22.9678Z" fill="#409100"/>
<path d="M56.5938 21.8967C56.7668 21.3696 57.3845 21.1966 57.8787 21.1389C59.3778 20.966 60.9921 21.5178 62.3429 22.1108C62.8948 22.3579 64.6574 23.0086 64.7645 23.8488C64.8469 24.0135 64.9045 24.1947 64.9128 24.4006C64.9622 25.3561 63.875 25.5867 63.1254 25.5537C61.9723 25.5126 60.8274 25.1748 59.7566 24.763C58.8259 24.4006 57.7552 23.9641 57.0386 23.2392C56.7091 22.9015 56.4373 22.3744 56.5938 21.8967Z" fill="#92C10B"/>
<path d="M68.0264 26.8059C68.0264 26.7812 68.0346 26.7482 68.0511 26.7235C68.117 26.6164 68.2653 26.6164 68.3724 26.6576C68.7514 26.6081 69.1057 26.8224 69.3117 27.1355C69.3447 27.1931 69.3694 27.2508 69.3776 27.3085C69.5177 27.498 69.4436 27.7287 69.2046 27.8111C69.0151 27.877 68.7514 27.8276 68.5702 27.7534C68.3806 27.6793 68.2241 27.5557 68.084 27.4156C67.8862 27.2261 67.8616 26.9624 68.0264 26.8059Z" fill="#92C10B"/>
<path d="M61.6919 28.519C69.0966 32.7362 75.0105 39.136 79.6394 46.203L79.7959 46.7384C79.8042 46.6561 79.8041 46.5572 79.7794 46.4666C79.7712 46.3925 79.6806 46.2524 79.7135 46.3101L79.7794 46.4089L79.9194 46.6148C82.6952 50.8485 85.2238 55.2551 87.423 59.8346C93.8887 74.2239 95.8985 90.1206 97.587 105.605C99.6049 126.287 99.9344 147.027 99.8768 167.783C97.1916 142.069 96.2856 116.181 92.4144 90.6148C90.8412 80.5332 88.9056 70.3692 84.9685 60.9465C82.9835 56.3341 80.5866 51.8369 78.0909 47.4715C77.9839 47.315 77.8191 46.9855 77.8191 46.7384L77.9756 47.2738C75.8341 43.7156 73.5443 40.215 70.8757 37.0357C68.1329 33.8893 65.0442 31.0147 61.6919 28.519Z" fill="#405621"/>
<path d="M81.6494 87.5181C80.2245 85.2695 78.5689 83.1691 76.7569 81.2171C75.0189 79.6027 73.1657 78.1201 71.2054 76.7775C67.4577 74.6443 63.4795 72.8569 59.3035 71.7367C57.0879 71.1437 54.8393 70.806 52.566 70.5507C50.3009 70.3036 48.0276 70.1553 45.7543 70.1388C41.2242 70.0977 36.6693 70.5424 32.271 71.6379C29.5117 72.3298 26.8184 73.277 24.2485 74.4878C27.5926 74.4219 30.566 76.5304 32.864 78.812C35.6562 81.5795 37.8636 84.8988 40.2687 88.004C42.8797 91.381 45.6225 94.6757 48.7277 97.6079C51.8411 100.548 55.3582 103.159 59.2376 105.004C62.2522 106.429 65.4809 107.467 68.7673 108.035C72.1361 108.612 75.752 108.711 79.0137 107.533C80.5622 106.973 81.9953 106.1 83.1485 104.922C84.6146 103.431 85.5041 101.487 85.6853 99.4035C86.0477 95.1369 83.865 91.0104 81.6494 87.5181Z" fill="#67AD14"/>
<path d="M81.6493 87.5179C80.2244 85.2693 78.5688 83.169 76.7568 81.2169C75.0188 79.6025 73.1656 78.1199 71.2053 76.7774C67.4576 74.6441 63.4794 72.8568 59.3034 71.7366C57.0877 71.1435 54.8392 70.8058 52.5659 70.5505C50.3008 70.3034 48.0275 70.1551 45.7542 70.1387C45.7377 70.1387 45.7212 70.1387 45.7048 70.1387C47.2285 70.3281 48.7358 70.5999 50.2184 70.9788C52.953 71.6789 55.564 72.7332 58.035 74.1005C60.3659 75.3936 62.5816 76.8927 64.7313 78.4576C66.4775 79.7261 68.5284 81.0769 69.2944 83.2102C69.3191 83.2761 69.2532 83.3584 69.1873 83.3502C68.2483 83.2761 67.3588 82.8231 66.5351 82.3865C65.662 81.917 64.8301 81.3734 63.9241 80.9616C61.832 79.9979 59.6905 79.1248 57.4913 78.4165C55.6216 77.8152 53.7025 77.3457 51.7916 76.868C49.8725 76.3903 47.9369 75.9455 45.9766 75.6737C44.3046 75.443 42.5749 75.3113 40.8946 75.5254C41.6771 75.7313 42.476 75.8961 43.2667 76.0526C45.2847 76.4397 47.3521 76.728 49.2877 77.4363C51.1904 78.1282 53.0353 78.9518 54.8227 79.899C57.5819 81.3569 60.2177 83.0784 62.6475 85.0552C64.6242 86.6613 66.5104 88.4404 68.0672 90.4666C69.4179 92.2292 70.7687 94.4861 70.5134 96.8088C70.3898 97.9125 69.8792 98.9009 69.1214 99.6998C68.1248 100.746 66.8399 101.322 65.4149 101.495C63.817 101.693 62.1862 101.421 60.646 100.993C59.1469 100.581 57.6972 99.9964 56.297 99.3127C52.9282 97.6819 49.9302 95.4333 47.2203 92.8717C45.8119 91.5374 44.4775 90.1207 43.1844 88.6628C41.9901 87.312 40.8864 85.8953 39.758 84.4951C37.5341 81.7276 35.1455 78.9271 32.0238 77.148C31.0436 76.5879 30.0058 76.1185 28.9351 75.7643C30.3847 76.5715 31.7026 77.6669 32.8557 78.8036C35.6479 81.5711 37.8553 84.8904 40.2604 87.9956C42.8714 91.3726 45.6142 94.6673 48.7194 97.5995C51.8328 100.54 55.3498 103.151 59.2292 104.996C62.2438 106.421 65.4726 107.459 68.759 108.027C72.1278 108.604 75.7436 108.702 79.0053 107.525C80.5538 106.965 81.987 106.091 83.1401 104.914C84.6062 103.423 85.4958 101.479 85.677 99.3951C86.0476 95.1368 83.8649 91.0102 81.6493 87.5179Z" fill="#409100"/>
<path d="M48.2833 83.721C47.6738 82.7655 46.8831 81.9336 46.0677 81.1511C45.1287 80.2451 44.0909 79.3473 42.8718 78.8531C41.5869 78.3342 40.1702 78.7461 39.5113 80.0145C38.9265 81.1347 39.3878 82.2301 40.0385 83.2103C41.1751 84.907 43.5637 87.3698 45.8865 87.518C46.3395 87.6416 46.8007 87.691 47.2455 87.6004C48.0197 87.4357 48.6951 86.785 48.8928 86.019C49.0987 85.1953 48.7198 84.3881 48.2833 83.721Z" fill="#92C10B"/>
<path d="M52.3279 90.3431C52.2949 90.2031 52.196 90.063 52.0807 89.9806C51.9983 89.9229 51.9159 89.8982 51.8253 89.8817H51.8335C51.8088 89.8735 51.7841 89.8735 51.7594 89.8652C51.6852 89.857 51.6111 89.8405 51.5451 89.8323C51.471 89.8405 51.3886 89.8488 51.3144 89.857C51.1084 89.8158 50.8695 89.89 50.7129 90.0053C50.6141 90.0795 50.5234 90.1701 50.4575 90.269C50.3916 90.3678 50.3339 90.5491 50.3586 90.6727C50.3092 90.8046 50.2927 90.9446 50.3339 91.0765C50.3751 91.2165 50.4328 91.3319 50.5399 91.4308C50.5646 91.472 50.5893 91.4967 50.6305 91.5132C50.7211 91.5791 50.8283 91.612 50.9436 91.6203C50.9848 91.6285 51.026 91.6285 51.059 91.6285C51.1743 91.6532 51.2897 91.6532 51.405 91.6285C51.5698 91.5873 51.7182 91.5214 51.8582 91.4308C52.0725 91.2907 52.196 91.0929 52.2949 90.8787C52.3444 90.7222 52.3691 90.5079 52.3279 90.3431Z" fill="#92C10B"/>
<path d="M56.9482 79.2073C80.159 85.3683 93.5187 107.607 97.3076 130.151C98.5266 137.654 98.6748 145.298 97.6864 152.76C97.2993 145.248 96.4345 137.852 94.7872 130.645C89.4663 108.521 78.2975 89.0418 56.9482 79.2073Z" fill="#405621"/>
<path d="M75.2332 182.692C75.2332 182.692 73.3222 184.199 70.7112 186.077C68.1002 187.963 63.7019 192.098 61.9805 198.061C63.5125 192.04 63.8255 190.846 67.3919 187.765C70.9584 184.693 76.2463 180.361 76.2463 180.361L75.2332 182.692Z" fill="#EBD9B3"/>
<path d="M61.9807 198.3C61.9642 198.3 61.9395 198.3 61.9231 198.292C61.7995 198.259 61.7254 198.135 61.7583 198.012C63.2903 191.991 63.6033 190.739 67.2439 187.6C70.7692 184.561 76.0489 180.237 76.1065 180.187C76.1889 180.122 76.3042 180.113 76.3948 180.179C76.4771 180.245 76.5101 180.36 76.4689 180.459L75.4475 182.782C75.4311 182.815 75.4064 182.848 75.3817 182.873C75.3652 182.889 73.4378 184.405 70.8516 186.266C69.3031 187.378 64.114 191.529 62.2113 198.127C62.1784 198.234 62.0878 198.3 61.9807 198.3ZM75.6535 181.159C74.0638 182.469 70.2832 185.591 67.5487 187.946C64.9212 190.211 64.0728 191.472 63.1997 194.404C65.5966 189.75 69.3031 186.81 70.5797 185.887C72.9354 184.191 74.7474 182.782 75.0522 182.543L75.6535 181.159Z" fill="#BD7A43"/>
<path d="M66.7005 188.276C66.7005 188.276 59.057 190.978 54.2139 197.88C54.6586 194.8 58.2251 191.793 60.902 190.467C63.5789 189.149 66.7005 188.276 66.7005 188.276Z" fill="#EBD9B3"/>
<path d="M54.2135 198.11C54.1888 198.11 54.1558 198.102 54.1311 198.094C54.0322 198.053 53.9746 197.954 53.9911 197.847C54.477 194.511 58.3318 191.488 60.811 190.261C63.4714 188.951 66.6178 188.062 66.6507 188.054C66.7743 188.021 66.8978 188.087 66.9308 188.21C66.972 188.325 66.9061 188.457 66.7908 188.498C66.7167 188.523 59.1554 191.258 54.4111 198.012C54.3535 198.078 54.2794 198.11 54.2135 198.11ZM63.0431 189.783C62.3759 190.047 61.6758 190.352 61.0087 190.681C58.5295 191.908 55.7455 194.322 54.7653 196.751C57.3763 193.424 60.6133 191.159 63.0431 189.783Z" fill="#BD7A43"/>
<path d="M59.6245 191.159C59.6245 191.159 52.7469 191.661 48.2168 194.61C50.2595 191.414 56.7582 190.22 59.6245 191.159Z" fill="#EBD9B3"/>
<path d="M48.225 194.841C48.1674 194.841 48.1097 194.816 48.0603 194.775C47.9862 194.701 47.9697 194.577 48.0274 194.486C50.1359 191.175 56.7005 189.956 59.6986 190.936C59.8057 190.969 59.8716 191.077 59.8551 191.184C59.8386 191.291 59.7562 191.381 59.6409 191.39C59.575 191.398 52.7634 191.925 48.3486 194.799C48.3074 194.832 48.2662 194.841 48.225 194.841ZM57.2606 191.077C54.6249 191.077 51.1985 191.974 49.2793 193.72C52.3351 192.114 56.0416 191.398 58.076 191.109C57.8207 191.085 57.5489 191.077 57.2606 191.077Z" fill="#BD7A43"/>
<path d="M88.1237 170.617C88.1237 170.617 85.3727 175.386 87.9013 182.757C90.4299 190.129 94.9436 194.898 93.181 202.27C93.181 196.957 91.4184 192.946 89.3263 189.264C87.2342 185.574 87.0118 184.059 87.0118 184.059C87.0118 184.059 84.5902 189.157 83.8242 193.704C83.4947 189.907 85.4715 185.352 85.4715 185.352C85.4715 185.352 77.5479 194.569 75.9006 201.067C74.9122 197.6 79.64 189.899 85.142 184.479C86.8058 182.757 84.269 173.112 88.1237 170.617Z" fill="#EBD9B3"/>
<path d="M93.1895 202.509C93.1812 202.509 93.173 202.509 93.1647 202.509C93.0494 202.493 92.9588 202.394 92.9588 202.279C92.9588 196.867 91.122 192.889 89.137 189.38C87.7944 187.008 87.2097 185.525 86.9708 184.751C86.3201 186.217 84.6728 190.179 84.0715 193.745C84.0551 193.861 83.948 193.951 83.8326 193.935C83.7173 193.927 83.6185 193.836 83.6103 193.721C83.3879 191.126 84.2033 188.235 84.7716 186.588C82.6548 189.215 77.4328 196.052 76.1397 201.125C76.115 201.224 76.0244 201.298 75.9173 201.298C75.8102 201.298 75.7196 201.233 75.6949 201.134C74.6406 197.444 79.7061 189.537 85.0023 184.323C85.5871 183.705 85.5871 181.737 85.5788 179.644C85.5788 176.234 85.5706 171.993 88.0086 170.419C88.0992 170.362 88.2145 170.37 88.2969 170.444C88.371 170.518 88.3875 170.634 88.3381 170.732C88.3134 170.782 85.6694 175.51 88.1322 182.684C88.8899 184.883 89.8124 186.843 90.7102 188.729C92.8353 193.21 94.672 197.081 93.4201 202.328C93.3871 202.435 93.2965 202.509 93.1895 202.509ZM87.0203 183.829C87.0285 183.829 87.0449 183.829 87.0532 183.829C87.152 183.845 87.2344 183.919 87.2508 184.026C87.2508 184.043 87.498 185.567 89.5324 189.149C91.2621 192.205 92.8847 195.623 93.3047 200.022C93.626 195.986 92.0528 192.675 90.2737 188.927C89.3676 187.024 88.4369 185.056 87.6709 182.832C85.793 177.371 86.7649 173.352 87.4403 171.548C86.0153 173.368 86.0236 176.803 86.0236 179.644C86.0236 182.017 86.0236 183.895 85.307 184.644C80.5792 189.306 76.082 196.134 75.9914 199.923C78.1577 193.548 85.2164 185.286 85.2905 185.196C85.3647 185.105 85.4882 185.089 85.587 185.146C85.6859 185.204 85.7189 185.328 85.6777 185.435C85.6612 185.468 84.4422 188.309 84.0962 191.324C85.1011 187.527 86.7731 183.985 86.7896 183.944C86.8555 183.878 86.9379 183.829 87.0203 183.829Z" fill="#BD7A43"/>
<path d="M91.056 192.658C91.056 192.658 86.3118 197.748 86.6247 206.883C85.2575 202.311 87.0448 195.047 90.3148 191.101L91.056 192.658Z" fill="#EBD9B3"/>
<path d="M86.6244 207.113C86.5256 207.113 86.435 207.047 86.4021 206.948C85.0348 202.377 86.7398 195.055 90.1332 190.944C90.1827 190.887 90.2568 190.854 90.3392 190.862C90.4215 190.87 90.4874 190.92 90.5204 190.994L91.2617 192.551C91.3028 192.633 91.2864 192.74 91.2205 192.806C91.1711 192.855 86.5421 197.937 86.8551 206.866C86.8551 206.981 86.7727 207.08 86.6574 207.105C86.6492 207.113 86.6409 207.113 86.6244 207.113ZM90.2651 191.529C87.6376 194.898 86.1138 200.252 86.4268 204.452C86.8716 197.542 90.1415 193.366 90.7757 192.616L90.2651 191.529Z" fill="#BD7A43"/>
<path d="M100.429 186.933C100.429 186.933 96.9286 197.073 99.0207 205.309C96.5991 199.132 97.5875 190.78 99.3501 184.709C100.339 186.34 100.429 186.933 100.429 186.933Z" fill="#EBD9B3"/>
<path d="M99.0206 205.54C98.93 205.54 98.8394 205.482 98.8065 205.392C95.7671 197.641 98.2875 187.551 99.1276 184.644C99.1524 184.553 99.2265 184.487 99.3171 184.479C99.4077 184.471 99.4983 184.512 99.5477 184.586C100.536 186.209 100.651 186.826 100.66 186.892C100.668 186.925 100.66 186.967 100.651 186.999C100.618 187.098 97.2003 197.163 99.2512 205.244C99.2842 205.359 99.21 205.482 99.0947 205.524C99.07 205.54 99.0453 205.54 99.0206 205.54ZM99.4242 185.294C98.65 188.12 97.085 195.014 98.1887 201.397C97.7357 194.552 99.9431 187.658 100.19 186.925C100.149 186.777 99.9925 186.283 99.4242 185.294Z" fill="#BD7A43"/>
<path d="M106.22 197.378C106.22 197.378 110.766 201.694 112.455 210.482C112.117 204.173 110.437 199.198 105.635 195.137C106.302 196.793 106.22 197.378 106.22 197.378Z" fill="#EBD9B3"/>
<path d="M112.454 210.712C112.347 210.712 112.248 210.638 112.224 210.523C110.576 201.899 106.104 197.583 106.063 197.542C106.005 197.493 105.98 197.419 105.989 197.344C105.989 197.328 106.038 196.751 105.412 195.219C105.371 195.121 105.404 195.005 105.494 194.948C105.577 194.882 105.7 194.89 105.783 194.956C110.239 198.728 112.306 203.374 112.685 210.465C112.693 210.589 112.603 210.696 112.479 210.704C112.471 210.712 112.463 210.712 112.454 210.712ZM106.458 197.279C106.977 197.814 110.066 201.15 111.911 207.261C111.186 202.402 109.382 198.868 106.17 195.911C106.409 196.661 106.45 197.089 106.458 197.279Z" fill="#BD7A43"/>
<path d="M76.7656 169.991C76.7656 169.991 76.0984 169.81 73.7181 173.113C71.3377 176.416 67.137 180.855 63.7271 180.855C68.6608 177.676 70.7941 175.452 72.1943 172.693C73.5945 169.933 74.9947 169.208 74.9947 169.208L76.7656 169.991Z" fill="#EBD9B3"/>
<path d="M63.7268 181.085C63.628 181.085 63.5374 181.02 63.5044 180.921C63.4715 180.822 63.5127 180.715 63.6033 180.657C68.2487 177.659 70.5221 175.476 71.9882 172.585C73.4049 169.793 74.8298 169.035 74.8874 169.002C74.9533 168.969 75.0192 168.969 75.0851 168.994L76.8477 169.777C76.9548 169.826 77.0125 169.95 76.9713 170.065C76.9384 170.164 76.8395 170.238 76.7324 170.221C76.6583 170.23 75.9417 170.411 73.899 173.244C72.9683 174.554 68.0428 181.085 63.7268 181.085ZM75.0192 169.472C74.698 169.686 73.5531 170.551 72.4082 172.799C70.9915 175.592 68.8582 177.733 64.6823 180.517C67.6886 179.834 71.2468 176.168 73.5366 172.981C74.8627 171.144 75.6864 170.337 76.1888 169.991L75.0192 169.472Z" fill="#BD7A43"/>
<path d="M71.0991 176.358C71.0991 176.358 69.5753 181.761 66.8325 183.985C69.8224 182.543 71.7086 178.466 72.1946 174.925C71.6509 175.814 71.0991 176.358 71.0991 176.358Z" fill="#EBD9B3"/>
<path d="M66.8321 184.207C66.7579 184.207 66.6838 184.166 66.6344 184.1C66.5685 184.001 66.5932 183.869 66.6838 183.795C69.336 181.645 70.8597 176.341 70.868 176.292C70.8762 176.25 70.9009 176.217 70.9256 176.193C70.9339 176.184 71.461 175.657 71.9882 174.792C72.0458 174.702 72.1611 174.661 72.26 174.694C72.367 174.727 72.4247 174.834 72.4082 174.941C71.9223 178.458 70.0361 182.675 66.9144 184.182C66.9062 184.199 66.865 184.207 66.8321 184.207ZM71.3045 176.473C71.1645 176.967 70.2008 180.13 68.4958 182.494C70.1679 180.838 71.2881 178.293 71.7823 175.913C71.5599 176.201 71.3869 176.39 71.3045 176.473Z" fill="#BD7A43"/>
<path d="M64.7644 168.582C64.7644 168.582 63.1171 175.172 57.6645 177.774C52.2201 180.377 51.1411 183.219 51.1411 183.219C51.1411 183.219 54.2793 180.295 56.7502 179.15C59.2295 178.013 63.6854 176.382 65.8269 168.5L64.7644 168.582Z" fill="#EBD9B3"/>
<path d="M51.1416 183.458C51.1004 183.458 51.051 183.441 51.0098 183.416C50.9192 183.359 50.8863 183.243 50.9192 183.145C50.9604 183.021 52.0888 180.179 57.5579 177.568C62.8376 175.048 64.5178 168.599 64.5343 168.533C64.559 168.434 64.6414 168.368 64.7402 168.36L65.811 168.278C65.8851 168.261 65.9593 168.302 66.0087 168.36C66.0581 168.418 66.0746 168.492 66.0499 168.566C63.9907 176.144 59.7653 178.046 57.2449 179.183L56.8413 179.364C54.428 180.476 51.3228 183.359 51.2899 183.392C51.2569 183.433 51.1993 183.458 51.1416 183.458ZM64.9461 168.805C64.6414 169.851 62.7717 175.592 57.7638 177.98C54.8234 179.38 53.176 180.863 52.2947 181.909C53.4396 180.954 55.1611 179.636 56.6601 178.944L57.0719 178.763C59.4853 177.676 63.4965 175.863 65.5309 168.764L64.9461 168.805Z" fill="#BD7A43"/>
<path d="M60.8028 176.638C60.8028 176.638 61.0499 179.479 58.6531 182C56.1738 184.767 56.1738 185.986 56.1738 185.986C56.1738 185.986 61.5358 181.843 61.9559 175.74L60.8028 176.638Z" fill="#EBD9B3"/>
<path d="M56.1818 186.217C56.1489 186.217 56.1159 186.209 56.083 186.192C56.0006 186.151 55.9512 186.069 55.9512 185.986C55.9512 185.937 55.9841 184.644 58.4881 181.843C60.7778 179.43 60.5801 176.679 60.5719 176.654C60.5637 176.572 60.5966 176.498 60.6625 176.448L61.8156 175.559C61.8898 175.501 61.9886 175.493 62.0627 175.534C62.1451 175.575 62.1945 175.666 62.1863 175.756C61.7745 181.884 56.3712 186.126 56.3218 186.167C56.2806 186.2 56.2312 186.217 56.1818 186.217ZM61.0414 176.745C61.0579 177.346 61.0002 179.866 58.8257 182.165C57.4914 183.655 56.8984 184.685 56.6266 185.294C57.9609 184.067 61.1567 180.707 61.6756 176.251L61.0414 176.745Z" fill="#BD7A43"/>
<path d="M64.2707 168.508C64.2707 168.508 57.5002 165.823 52.3853 168.179C55.3587 166.062 61.5444 166.309 65.4238 168.097L64.2707 168.508Z" fill="#EBD9B3"/>
<path d="M64.2709 168.739C64.238 168.739 64.2133 168.731 64.1886 168.723C64.1227 168.698 57.451 166.103 52.4844 168.393C52.3773 168.443 52.2455 168.401 52.1879 168.294C52.1302 168.187 52.1549 168.055 52.2538 167.989C55.3837 165.766 61.7588 166.153 65.5312 167.891C65.6135 167.932 65.6712 168.014 65.6629 168.113C65.6629 168.204 65.597 168.286 65.5064 168.319L64.3533 168.731C64.3204 168.731 64.2956 168.739 64.2709 168.739ZM57.311 166.968C60.7128 166.968 63.7191 168.047 64.2709 168.253L64.7898 168.072C62.5248 167.158 59.4937 166.713 56.8251 166.976C56.9898 166.976 57.1546 166.968 57.311 166.968Z" fill="#BD7A43"/>
<path d="M99.1196 178.466C99.1196 178.466 100.553 180.649 104.531 183.54C108.509 186.431 113.204 188.292 115.552 194.849C114.25 189.001 111.441 187.329 107.859 184.957C104.276 182.584 99.3831 179.174 98.6665 176.283C98.9877 178.145 99.1196 178.466 99.1196 178.466Z" fill="#EBD9B3"/>
<path d="M115.559 195.079C115.461 195.079 115.378 195.022 115.345 194.923C113.476 189.709 110.074 187.485 106.788 185.336C105.997 184.817 105.181 184.289 104.407 183.721C100.437 180.838 98.9957 178.672 98.938 178.582C98.9298 178.565 98.9216 178.557 98.9133 178.54C98.8969 178.507 98.7651 178.145 98.4438 176.308C98.4191 176.185 98.5015 176.069 98.625 176.045C98.7486 176.012 98.8639 176.094 98.8968 176.218C99.6381 179.216 105.28 182.955 107.99 184.751L108.369 184.998C111.795 187.263 114.505 189.05 115.782 194.783C115.807 194.906 115.741 195.022 115.617 195.055C115.601 195.079 115.576 195.079 115.559 195.079ZM99.3334 178.367C99.4981 178.606 100.997 180.69 104.671 183.359C105.437 183.919 106.244 184.446 107.026 184.957C109.596 186.637 112.232 188.358 114.192 191.488C112.767 188.49 110.642 187.082 108.105 185.401L107.726 185.146C104.341 182.906 100.841 180.377 99.2345 178.021C99.2922 178.227 99.3169 178.326 99.3334 178.367Z" fill="#BD7A43"/>
<path d="M102.908 181.744C102.908 181.744 108.707 181.555 112.166 183.095C109.884 181.489 106.952 180.459 102.125 180.715C102.644 181.234 102.71 181.678 102.908 181.744Z" fill="#EBD9B3"/>
<path d="M112.167 183.326C112.134 183.326 112.101 183.318 112.076 183.31C108.707 181.81 102.974 181.975 102.917 181.983C102.892 181.983 102.867 181.983 102.834 181.975C102.661 181.918 102.571 181.769 102.464 181.572C102.357 181.382 102.225 181.152 101.961 180.888C101.895 180.822 101.871 180.723 101.904 180.641C101.937 180.559 102.019 180.501 102.11 180.493C106.45 180.262 109.597 181.003 112.298 182.914C112.397 182.98 112.422 183.112 112.364 183.219C112.323 183.285 112.241 183.326 112.167 183.326ZM103.584 181.506C104.852 181.506 107.645 181.58 110.132 182.181C108.048 181.209 105.635 180.814 102.604 180.921C102.719 181.077 102.802 181.217 102.859 181.324C102.892 181.39 102.942 181.465 102.966 181.506C103.082 181.506 103.296 181.506 103.584 181.506Z" fill="#BD7A43"/>
<path d="M107.257 170.271C107.257 170.271 114.176 175.921 116.729 180.081C119.291 184.232 125.716 190.162 128.763 189.891C124.546 187.37 121.087 184.446 119.291 181.308C117.495 178.17 114.728 173.673 112.1 171.91L107.257 170.271Z" fill="#EBD9B3"/>
<path d="M128.557 190.129C125.271 190.129 119.011 184.232 116.532 180.204C114.019 176.127 107.175 170.51 107.109 170.452C107.018 170.378 107.002 170.255 107.051 170.164C107.109 170.065 107.224 170.024 107.331 170.057L112.174 171.688C112.191 171.696 112.216 171.704 112.232 171.712C114.901 173.508 117.652 177.98 119.497 181.193C121.144 184.067 124.398 187.008 128.887 189.685C128.969 189.734 129.018 189.841 128.994 189.932C128.969 190.031 128.887 190.105 128.788 190.113C128.705 190.121 128.631 190.129 128.557 190.129ZM108.344 170.88C110.338 172.585 114.917 176.687 116.927 179.957C119.332 183.87 124.686 188.779 127.775 189.561C123.656 186.983 120.666 184.183 119.085 181.423C117.273 178.269 114.571 173.87 111.993 172.116L108.344 170.88Z" fill="#BD7A43"/>
<path d="M122.124 185.047C122.124 185.047 132.362 187.362 137.683 193.63C134.504 188.729 128.211 184.504 121.292 183.96L122.124 185.047Z" fill="#EBD9B3"/>
<path d="M137.683 193.869C137.618 193.869 137.552 193.844 137.51 193.787C132.297 187.65 122.182 185.303 122.075 185.278C122.026 185.262 121.976 185.237 121.943 185.196L121.111 184.109C121.054 184.034 121.046 183.936 121.095 183.853C121.136 183.771 121.227 183.721 121.317 183.73C127.865 184.249 134.364 188.087 137.881 193.506C137.947 193.605 137.922 193.745 137.823 193.819C137.782 193.852 137.733 193.869 137.683 193.869ZM122.256 184.842C123.105 185.047 130.147 186.851 135.344 191.052C131.852 187.37 126.786 184.776 121.795 184.24L122.256 184.842Z" fill="#BD7A43"/>
<path d="M128.294 177.017C128.294 177.017 138.746 178.096 143.704 183.417C138.861 177.89 130.938 175.501 126.869 175.938L128.294 177.017Z" fill="#EBD9B3"/>
<path d="M143.704 183.647C143.638 183.647 143.581 183.622 143.531 183.573C138.696 178.384 128.376 177.264 128.269 177.247C128.228 177.239 128.187 177.222 128.154 177.198L126.72 176.11C126.646 176.053 126.613 175.954 126.638 175.863C126.663 175.773 126.745 175.707 126.836 175.699C130.674 175.287 138.754 177.404 143.877 183.26C143.96 183.359 143.951 183.499 143.861 183.581C143.811 183.622 143.762 183.647 143.704 183.647ZM128.384 176.794C129.06 176.868 134.702 177.593 139.495 180.072C135.336 177.296 130.509 176.012 127.495 176.119L128.384 176.794Z" fill="#BD7A43"/>
<path d="M109.366 172.248C109.366 172.248 112.34 176.696 113.88 182.115C115.42 187.535 119.711 191.983 120.156 195.343C120.593 198.704 121.581 204.231 124.67 206.619C121.919 200.763 121.589 200.442 120.708 194.256C119.72 188.293 117.85 188.836 116.087 184.389C114.325 179.941 113.336 177.124 111.903 174.2L109.366 172.248Z" fill="#EBD9B3"/>
<path d="M124.662 206.841C124.612 206.841 124.563 206.825 124.522 206.792C121.062 204.115 120.206 197.534 119.926 195.368C119.72 193.77 118.6 191.908 117.315 189.75C115.972 187.51 114.457 184.973 113.658 182.173C112.15 176.852 109.202 172.412 109.177 172.371C109.111 172.28 109.127 172.149 109.21 172.075C109.292 172 109.424 171.992 109.506 172.058L112.035 174.01C112.06 174.035 112.084 174.06 112.101 174.093C113.163 176.267 114.004 178.425 115.058 181.143C115.428 182.107 115.832 183.145 116.293 184.298C116.985 186.044 117.685 186.999 118.369 187.922C119.374 189.289 120.329 190.582 120.931 194.215C121.738 199.873 122.075 200.581 124.258 205.21L124.876 206.512C124.925 206.611 124.892 206.726 124.81 206.792C124.769 206.825 124.711 206.841 124.662 206.841ZM110.231 173.203C111.203 174.859 113.015 178.227 114.102 182.049C114.877 184.784 116.384 187.296 117.71 189.511C119.028 191.711 120.164 193.613 120.387 195.31C120.634 197.229 121.351 202.69 123.937 205.606L123.846 205.408C121.631 200.722 121.293 200.005 120.478 194.28C119.893 190.763 119.02 189.569 117.998 188.194C117.298 187.246 116.582 186.274 115.865 184.462C115.412 183.309 115 182.272 114.63 181.308C113.583 178.614 112.76 176.481 111.714 174.34L110.231 173.203Z" fill="#BD7A43"/>
<path d="M120.263 193.168C120.263 193.168 125.551 196.957 128.961 201.735C126.539 195.771 120.049 191.323 120.049 191.323L120.263 193.168Z" fill="#EBD9B3"/>
<path d="M128.952 201.965C128.878 201.965 128.812 201.932 128.763 201.866C125.411 197.18 120.172 193.399 120.123 193.358C120.073 193.317 120.032 193.259 120.032 193.193L119.81 191.348C119.801 191.258 119.843 191.167 119.917 191.126C119.991 191.076 120.09 191.085 120.164 191.134C120.23 191.175 126.745 195.689 129.158 201.644C129.199 201.751 129.158 201.874 129.059 201.932C129.035 201.957 128.993 201.965 128.952 201.965ZM120.477 193.045C121.07 193.481 124.719 196.232 127.733 199.799C125.411 195.812 121.597 192.773 120.329 191.826L120.477 193.045Z" fill="#BD7A43"/>
<path d="M109.473 186.554C109.473 186.554 109.695 192.081 111.787 196.743C109.036 192.839 108.484 186.118 108.484 186.118L109.473 186.554Z" fill="#EBD9B3"/>
<path d="M111.787 196.982C111.713 196.982 111.639 196.949 111.598 196.883C108.839 192.971 108.279 186.423 108.254 186.143C108.246 186.06 108.287 185.986 108.353 185.937C108.419 185.887 108.509 185.879 108.583 185.912L109.572 186.349C109.654 186.382 109.704 186.464 109.712 186.555C109.712 186.612 109.951 192.098 112.002 196.661C112.051 196.768 112.01 196.9 111.903 196.957C111.862 196.974 111.829 196.982 111.787 196.982ZM108.756 186.497C108.88 187.576 109.308 190.689 110.412 193.572C109.514 190.352 109.292 187.395 109.251 186.711L108.756 186.497Z" fill="#BD7A43"/>
<path d="M119.884 172.363C119.884 172.363 121.737 171.284 124.191 170.106C126.918 168.804 133.252 167.849 134.924 168.195C131.407 166.375 128.326 167.503 124.018 169.15C119.711 170.798 117.857 171.926 117.857 171.926L119.884 172.363Z" fill="#EBD9B3"/>
<path d="M119.884 172.594C119.868 172.594 119.851 172.594 119.835 172.586L117.809 172.149C117.718 172.133 117.644 172.058 117.628 171.96C117.611 171.869 117.652 171.77 117.735 171.721C117.809 171.671 119.654 170.568 123.929 168.928C128.08 167.339 131.358 166.087 135.023 167.981C135.122 168.031 135.172 168.154 135.139 168.261C135.097 168.368 134.99 168.434 134.875 168.41C133.31 168.088 127.034 168.986 124.291 170.296C121.869 171.449 120.016 172.528 120 172.536C119.967 172.586 119.926 172.594 119.884 172.594ZM118.517 171.836L119.851 172.124C120.23 171.91 121.944 170.938 124.102 169.909C126.325 168.846 131.037 167.973 133.64 167.907C130.633 166.886 127.825 167.957 124.11 169.381C121.145 170.502 119.341 171.399 118.517 171.836Z" fill="#BD7A43"/>
<path d="M131.324 168.294C131.324 168.294 136.25 174.447 143.728 174.101C138.803 174.966 134.668 172.973 130.179 168.467C131.061 168.294 131.324 168.294 131.324 168.294Z" fill="#EBD9B3"/>
<path d="M141.538 174.529C137.658 174.529 134.018 172.651 130.023 168.631C129.965 168.574 129.94 168.483 129.965 168.401C129.99 168.318 130.056 168.261 130.146 168.244C131.019 168.071 131.308 168.071 131.332 168.071C131.407 168.071 131.472 168.104 131.514 168.162C131.563 168.22 136.439 174.199 143.728 173.878C143.852 173.886 143.959 173.96 143.967 174.084C143.984 174.208 143.901 174.315 143.778 174.339C143.012 174.455 142.271 174.529 141.538 174.529ZM130.657 168.607C133.845 171.737 136.801 173.466 139.841 173.927C134.981 172.708 131.761 169.15 131.225 168.524C131.126 168.541 130.945 168.557 130.657 168.607Z" fill="#BD7A43"/>
<path d="M115.437 171.441C107.217 169.892 99.9602 163.583 99.9602 153.938C99.9602 147.975 100.652 142.506 100.454 134.327C98.8565 134.73 97.0856 134.903 95.6854 134.351C95.8007 137.943 95.776 141.385 95.6113 144.606C94.9524 156.969 92.8026 164.827 81.8314 167.751C74.9868 169.406 72.6394 167.932 68.9082 167.619C65.177 167.306 60.3833 168.797 58.5054 171.918C58.5054 171.918 61.7671 167.627 68.9 168.698C76.0329 169.769 81.7161 172.273 89.6892 166.795C85.818 172.627 78.9322 176.086 76.0246 180.962C73.1253 185.847 71.1898 191.324 71.9146 196.562C72.5159 189.66 74.9374 181.44 79.8958 177.388C84.8543 173.343 92.3496 167.627 95.0018 162.026C93.6757 173.574 97.5386 180.485 101.047 188.219C104.556 195.961 107.455 202.509 107.208 208.456C107.571 199.528 106.599 197.262 103.823 191.307C101.047 185.352 97.6622 177.14 98.2635 169.637C98.7494 164.753 99.4742 161.54 100.323 163.567C101.171 165.593 103.23 170.115 115.074 172.734C126.919 175.353 129.818 179.282 131.029 183.096C130.543 176.679 123.657 172.989 115.437 171.441Z" fill="#EBD9B3"/>
<path d="M107.216 208.703H107.208C107.076 208.695 106.977 208.588 106.985 208.464C107.232 202.435 104.127 195.582 100.841 188.326C100.519 187.609 100.19 186.901 99.8605 186.192C96.7471 179.447 93.7984 173.055 94.655 163.188C91.8875 167.973 85.9159 172.808 81.4764 176.407C80.9822 176.811 80.5045 177.198 80.0432 177.569C73.8164 182.651 72.4244 193.408 72.1526 196.579C72.1443 196.694 72.0455 196.785 71.9302 196.793C71.9302 196.793 71.9302 196.793 71.922 196.793C71.8067 196.793 71.7078 196.71 71.6913 196.595C71.0406 191.867 72.4326 186.571 75.8344 180.847C77.284 178.401 79.6973 176.333 82.2589 174.142C84.5651 172.165 86.9455 170.123 88.807 167.652C82.5801 171.49 77.6052 170.543 72.3585 169.546C71.2301 169.332 70.0687 169.11 68.8744 168.928C61.9639 167.891 58.727 172.017 58.7022 172.058C58.6281 172.157 58.4881 172.182 58.3892 172.108C58.2904 172.042 58.2574 171.902 58.3233 171.795C60.3001 168.517 65.2668 167.075 68.9486 167.388C69.937 167.471 70.8512 167.635 71.7325 167.8C74.2282 168.261 76.798 168.731 81.7976 167.52C92.3487 164.711 94.7209 157.29 95.3963 144.581C95.561 141.426 95.5857 137.984 95.4704 134.343C95.4704 134.269 95.5033 134.195 95.5692 134.145C95.6351 134.096 95.7175 134.088 95.7916 134.121C96.9612 134.582 98.5097 134.574 100.412 134.088C100.478 134.071 100.552 134.088 100.61 134.129C100.668 134.17 100.701 134.236 100.701 134.31C100.816 139.145 100.635 142.942 100.454 146.615C100.33 149.119 100.215 151.483 100.215 153.93C100.215 163.871 107.891 169.769 115.502 171.202C128.639 173.681 131.028 179.71 131.283 183.079C131.291 183.194 131.209 183.301 131.094 183.326C130.978 183.351 130.863 183.285 130.83 183.17C129.702 179.603 126.934 175.592 115.049 172.964C102.9 170.279 100.964 165.642 100.141 163.657C99.9594 163.22 99.8441 163.179 99.8358 163.179C99.8193 163.188 99.1439 163.443 98.5262 169.653C97.9414 176.976 101.178 185.015 104.069 191.2C106.738 196.925 107.85 199.297 107.479 208.439V208.448C107.438 208.604 107.339 208.703 107.216 208.703ZM95.0091 161.796C95.0338 161.796 95.0503 161.796 95.075 161.804C95.1821 161.837 95.2563 161.944 95.2398 162.051C94.0372 172.47 97.0765 179.035 100.289 185.995C100.618 186.703 100.94 187.411 101.269 188.128C103.732 193.564 106.096 198.778 107.035 203.629C106.862 198.358 105.774 196.035 103.625 191.423C100.709 185.187 97.4472 177.074 98.0402 169.637C98.7074 162.899 99.4404 162.792 99.7534 162.743C100.149 162.685 100.396 163.146 100.544 163.492C103.221 169.892 111.565 171.737 115.131 172.52C124.817 174.661 128.573 177.733 130.287 180.773C129.1 177.577 125.509 173.574 115.403 171.671C107.611 170.205 99.7452 164.151 99.7452 153.938C99.7452 151.483 99.8605 149.111 99.9841 146.599C100.165 143.008 100.346 139.293 100.239 134.615C98.5344 135.018 97.093 135.035 95.9399 134.672C96.047 138.198 96.014 141.542 95.8493 144.614C95.1574 157.537 92.7358 165.09 81.8965 167.973C76.8063 169.208 74.1788 168.722 71.6337 168.253C70.7194 168.088 69.8628 167.932 68.8909 167.849C66.6423 167.66 63.8913 168.146 61.7003 169.324C63.4218 168.55 65.8269 167.998 68.9321 168.467C70.1346 168.648 71.3042 168.871 72.4409 169.085C78.1077 170.164 83.0084 171.103 89.5565 166.597C89.6471 166.532 89.7707 166.548 89.8531 166.622C89.9354 166.696 89.9437 166.82 89.886 166.919C87.9092 169.9 85.1911 172.231 82.5554 174.488C80.0268 176.654 77.6464 178.697 76.2297 181.077C73.4951 185.682 72.0784 189.998 72.0043 193.951C72.6962 189.363 74.6071 181.415 79.755 177.206C80.2162 176.836 80.694 176.448 81.1881 176.045C85.9242 172.215 92.4146 166.96 94.8032 161.927C94.8362 161.853 94.9185 161.796 95.0091 161.796Z" fill="#BD7A43"/>
<path opacity="0.4" d="M89.6892 166.795C89.1044 167.677 88.4537 168.492 87.7535 169.274C87.9018 169.126 88.0583 168.978 88.2148 168.821C89.615 167.355 90.9411 165.823 92.2425 164.275C92.1684 164.333 92.1025 164.39 92.0283 164.448C91.8142 164.604 91.6001 164.769 91.3859 164.917C90.9494 165.222 90.4963 165.502 90.0351 165.766C88.882 166.425 87.6877 166.976 86.4439 167.446C83.5364 168.55 79.6323 169.406 76.4365 168.508C73.3395 168.566 71.4368 167.825 68.9082 167.611C65.177 167.298 60.3833 168.789 58.5054 171.91C58.5054 171.91 61.7671 167.619 68.9 168.69C76.0329 169.777 81.7161 172.273 89.6892 166.795Z" fill="#CB9049"/>
<path opacity="0.4" d="M115.436 171.44C107.216 169.892 99.959 163.583 99.959 153.938C99.959 147.974 100.651 142.505 100.453 134.326C99.8273 134.483 99.1848 134.59 98.5424 134.648C98.4518 140.076 98.1552 145.495 98.0646 150.931C98.0317 153.048 98.2129 155.165 98.2046 157.282C98.1964 159.201 97.9905 161.112 97.661 163.006C97.3398 164.876 96.9362 166.737 96.7303 168.624C96.5244 170.551 96.5738 172.437 96.8456 174.356C97.1669 176.654 97.7352 178.961 97.9246 181.291C98.8965 183.631 99.992 185.896 101.055 188.243C104.563 195.986 107.463 202.534 107.215 208.481C107.578 199.552 106.606 197.287 103.83 191.332C101.055 185.377 97.6693 177.165 98.2705 169.661C98.7565 164.777 99.4813 161.565 100.33 163.591C101.178 165.617 103.237 170.139 115.081 172.758C126.926 175.378 129.825 179.306 131.036 183.12C130.542 176.679 123.656 172.989 115.436 171.44Z" fill="#CB9049"/>
<path d="M96.9942 137.069C96.9859 136.954 96.8129 137.111 96.8047 137.185C96.5741 141.41 96.2117 145.586 95.7257 149.795C95.3962 152.661 95.1492 155.437 93.9055 158.097C92.9665 160.107 91.3603 161.796 89.9601 163.492C89.7459 163.756 89.9436 164.077 90.2237 163.797C92.95 161.079 94.9762 158.007 95.7422 154.234C96.8541 148.716 97.2495 142.687 96.9942 137.069Z" fill="#EBD9B3"/>
</svg>
