<svg width="17" height="26" viewBox="0 0 17 26" fill="none" xmlns="http://www.w3.org/2000/svg">
<path d="M8.2599 0C6.91354 3.52381 5.16825 6.8897 3.05729 10.0146C2.02674 11.5355 1.1541 13.1644 0.564028 14.9014C0.0903082 16.2976 -0.267047 17.9515 0.264849 19.863C1.10425 22.9131 4.24575 25.9466 8.29314 25.9299C11.7006 25.9133 14.5762 23.7359 15.7729 21.093C16.9946 18.4003 16.3713 15.7325 15.8145 14.3279C14.9502 12.1588 13.5373 10.2722 12.3322 8.26933C10.7448 5.6514 9.49822 2.8257 8.2599 0Z" fill="white"/>
<path d="M8.25962 3.84082C7.43684 5.99334 6.42291 8.06276 5.22614 10.0324C4.12911 11.8359 2.87418 13.5812 2.25086 15.5924C1.93505 16.6063 1.74389 17.7782 2.10957 19.1328C2.75782 21.4765 5.17628 23.8202 8.29286 23.8036C10.9191 23.7869 13.1215 22.1165 14.0523 20.0803C14.9914 18.0109 14.5094 15.9498 14.0855 14.8777C13.4207 13.2072 12.3319 11.7528 11.4011 10.2153C10.1628 8.18744 9.21537 6.01827 8.25962 3.84082Z" fill="#51D5F4"/>
</svg>
