<svg width="28" height="28" viewBox="0 0 28 28" fill="none" xmlns="http://www.w3.org/2000/svg">
<path d="M8.93316 25.7239C10.4923 26.3697 12.1634 26.7021 13.851 26.7021C15.5387 26.7021 17.2098 26.3697 18.7689 25.7239C20.3281 25.078 21.7448 24.1314 22.9381 22.9381C24.1314 21.7448 25.078 20.3281 25.7239 18.7689C26.3697 17.2098 26.7021 15.5387 26.7021 13.851C26.7021 12.1634 26.3697 10.4923 25.7239 8.93316C25.078 7.374 24.1314 5.95731 22.9381 4.76398C21.7448 3.57066 20.3281 2.62405 18.7689 1.97823C17.2098 1.3324 15.5387 1 13.851 1C12.1634 1 10.4923 1.3324 8.93316 1.97823C7.374 2.62405 5.95731 3.57065 4.76398 4.76398C3.57065 5.95731 2.62405 7.374 1.97823 8.93316C1.3324 10.4923 1 12.1634 1 13.851C1 15.5387 1.3324 17.2098 1.97823 18.7689C2.62405 20.3281 3.57065 21.7448 4.76398 22.9381C5.95731 24.1314 7.374 25.078 8.93316 25.7239Z" fill="white"/>
<path d="M9.56736 9.56736L18.1347 18.1347M18.1347 9.56736L9.56736 18.1347M13.851 26.7021C12.1634 26.7021 10.4923 26.3697 8.93316 25.7239C7.374 25.078 5.95731 24.1314 4.76398 22.9381C3.57065 21.7448 2.62405 20.3281 1.97823 18.7689C1.3324 17.2098 1 15.5387 1 13.851C1 12.1634 1.3324 10.4923 1.97823 8.93316C2.62405 7.374 3.57065 5.95731 4.76398 4.76398C5.95731 3.57065 7.374 2.62405 8.93316 1.97823C10.4923 1.3324 12.1634 1 13.851 1C15.5387 1 17.2098 1.3324 18.7689 1.97823C20.3281 2.62405 21.7448 3.57065 22.9381 4.76398C24.1314 5.95731 25.078 7.374 25.7239 8.93316C26.3697 10.4923 26.7021 12.1634 26.7021 13.851C26.7021 15.5387 26.3697 17.2098 25.7239 18.7689C25.078 20.3281 24.1314 21.7448 22.9381 22.9381C21.7448 24.1314 20.3281 25.078 18.7689 25.7239C17.2098 26.3697 15.5387 26.7021 13.851 26.7021Z" stroke="#292738" stroke-width="2" stroke-linecap="round"/>
</svg>
