<svg width="193" height="36" viewBox="0 0 193 36" fill="none" xmlns="http://www.w3.org/2000/svg">
<path d="M11.5295 0C9.65018 4.89229 7.21404 9.56534 4.26748 13.9038C2.829 16.0153 1.61094 18.2769 0.787291 20.6884C0.126056 22.6268 -0.372754 24.923 0.369686 27.5769C1.54135 31.8115 5.92637 36.023 11.5759 35.9999C16.3321 35.9768 20.3459 32.9538 22.0164 29.2845C23.7217 25.5461 22.8517 21.8422 22.0744 19.8922C20.868 16.8807 18.8959 14.2615 17.2138 11.4807C14.9981 7.84614 13.258 3.92307 11.5295 0Z" fill="white"/>
<path d="M53.9429 0C52.0636 4.89229 49.6275 9.56534 46.6809 13.9038C45.2425 16.0153 44.0244 18.2769 43.2008 20.6884C42.5395 22.6268 42.0407 24.923 42.7831 27.5769C43.9548 31.8115 48.3398 36.023 53.9893 35.9999C58.7456 35.9768 62.7594 32.9538 64.4299 29.2845C66.1352 25.5461 65.2651 21.8422 64.4879 19.8922C63.2814 16.8807 61.3093 14.2615 59.6272 11.4807C57.3999 7.84614 55.6714 3.92307 53.9429 0Z" fill="white"/>
<path d="M96.3563 0C94.477 4.89229 92.0409 9.56534 89.0943 13.9038C87.6558 16.0153 86.4378 18.2769 85.6141 20.6884C84.9529 22.6268 84.4541 24.923 85.1965 27.5769C86.3682 31.8115 90.7532 36.023 96.4027 35.9999C101.159 35.9768 105.173 32.9538 106.843 29.2845C108.549 25.5461 107.678 21.8422 106.901 19.8922C105.695 16.8807 103.723 14.2615 102.041 11.4807C99.8249 7.84614 98.0964 3.92307 96.3563 0Z" fill="white"/>
<path d="M138.77 0C136.891 4.89229 134.455 9.56534 131.508 13.9038C130.069 16.0153 128.851 18.2769 128.028 20.6884C127.367 22.6268 126.868 24.923 127.61 27.5769C128.782 31.8115 133.167 36.023 138.816 35.9999C143.573 35.9768 147.586 32.9538 149.257 29.2845C150.962 25.5461 150.092 21.8422 149.315 19.8922C148.108 16.8807 146.136 14.2615 144.454 11.4807C142.227 7.84614 140.498 3.92307 138.77 0Z" fill="white"/>
<path d="M181.117 0C179.238 4.89229 176.802 9.56534 173.855 13.9038C172.417 16.0153 171.199 18.2769 170.375 20.6884C169.714 22.6268 169.215 24.923 169.957 27.5769C171.129 31.8115 175.514 36.023 181.164 35.9999C185.92 35.9768 189.934 32.9538 191.604 29.2845C193.309 25.5461 192.439 21.8422 191.662 19.8922C190.456 16.8807 188.484 14.2615 186.802 11.4807C184.574 7.84614 182.846 3.92307 181.117 0Z" fill="white"/>
</svg>
