<svg width="105" height="105" viewBox="0 0 105 105" fill="none" xmlns="http://www.w3.org/2000/svg">
<path d="M52.5 98C77.6289 98 98 77.629 98 52.5C98 27.3711 77.6289 7 52.5 7C27.371 7 7 27.3711 7 52.5C7 77.629 27.371 98 52.5 98Z" fill="white"/>
<path d="M52.9621 19.0098C50.5106 25.4171 47.4729 31.6095 43.9079 37.4796C40.6457 42.8613 36.8853 48.0575 35.0198 54.0643C34.0821 57.0824 33.496 60.5986 34.5997 64.6227C36.5239 71.6258 43.7419 78.5996 53.0305 78.5507C60.854 78.5117 67.4469 73.5011 70.2013 67.4356C73.0045 61.253 71.5785 55.129 70.299 51.9058C68.3162 46.9343 65.0735 42.5878 62.2996 38.007C58.6467 31.9708 55.8044 25.4952 52.9621 19.0098Z" fill="#51D5F4"/>
<path d="M40.2748 61.8391C42.9412 68.051 51.8196 73.3839 59.8092 68.9398C69.5764 62.7279 66.91 51.183 62.4757 43.1934C58.7153 35.6726 54.3298 27.5072 53.0698 19.2442C53.0308 19.166 53.0015 19.0781 52.9624 19C50.5108 25.4073 47.4732 31.5997 43.9082 37.4698C41.8668 40.8297 39.6399 44.1116 37.7939 47.5692C37.4716 52.4235 38.5557 57.5512 40.2748 61.8391Z" fill="#51D5F4"/>
<path opacity="0.46" d="M70.2989 51.9062C68.3161 46.9347 65.0734 42.5883 62.2995 38.0074C58.6954 32.0494 55.8727 25.6519 53.0598 19.2544C54.31 27.5175 58.7052 35.6731 62.4656 43.2036C66.8999 51.1932 69.5664 62.738 59.7991 68.95C59.0178 69.3895 58.2168 69.7216 57.4257 69.9853C56.8689 70.3369 56.2145 70.5909 55.4527 70.6886C49.3482 71.4797 44.5525 71.5676 39.5224 67.6021C37.1196 65.7073 35.215 63.412 34.0137 60.7944C34.0527 62.0251 34.2188 63.2948 34.5899 64.6329C36.5141 71.636 43.732 78.6098 53.0207 78.561C60.8442 78.5219 67.4371 73.5113 70.1914 67.4459C73.0142 61.2632 71.5784 55.1294 70.2989 51.9062Z" fill="#32AFCC"/>
<path opacity="0.46" d="M50.6279 70.9221C49.9442 70.0039 48.9186 69.8086 48.6647 69.7598C47.4242 70.9318 46.1838 72.0942 44.9531 73.2662C45.2657 73.4909 45.7247 73.8229 46.3108 74.1746C47.1801 74.702 47.6196 74.9657 48.0689 75.0536C49.114 75.2587 50.3642 74.8973 50.9404 73.9499C51.5558 72.9146 51.1748 71.6644 50.6279 70.9221Z" fill="white"/>
<path opacity="0.46" d="M40.1174 63.5671C40.5081 63.1276 44.708 60.6076 44.6494 60.4514C43.3992 57.15 43.3796 53.3701 44.4833 49.5999C45.5187 46.0349 47.6968 42.9094 49.0349 39.4616C50.2753 36.2872 51.0274 32.9566 51.2813 29.5576C49.5721 33.0152 47.56 36.3068 45.5577 39.5983C44.0438 42.0987 42.315 44.4526 41.0844 47.1093C38.8477 51.9441 37.5095 57.6872 39.756 62.815C39.8732 63.069 40.0002 63.3132 40.1174 63.5671Z" fill="white"/>
<circle cx="52.5" cy="52.5" r="52" stroke="#51D5F4"/>
</svg>
