<svg width="16" height="17" viewBox="0 0 16 17" fill="none" xmlns="http://www.w3.org/2000/svg">
<path d="M10.0982 4.52956C10.0982 7.03116 8.0662 9.05912 5.55963 9.05912C3.05306 9.05912 1.02108 7.03116 1.02108 4.52956C1.02108 2.02795 3.05306 0 5.55963 0C8.0662 0 10.0982 2.02795 10.0982 4.52956Z" fill="#63F23B"/>
<path d="M12.6052 15.6415C12.6292 15.761 12.7303 15.8535 12.8524 15.8535H14.8782C15.5606 15.8535 16.0741 15.2545 15.846 14.6125C15.3694 13.2715 14.229 11.3239 11.6249 11.3239C11.4824 11.3239 11.3443 11.3297 11.2104 11.341C10.7842 11.3768 10.675 11.8999 10.9612 12.2172C11.9877 13.3556 12.4189 14.7118 12.6052 15.6415Z" fill="#63F23B"/>
<path d="M5.55963 11.3239C9.61203 11.3239 10.7698 14.2128 11.1005 15.8635C11.2234 16.4768 10.7248 16.9858 10.0982 16.9858H1.02108C0.394436 16.9858 -0.104152 16.4768 0.0187302 15.8635C0.349488 14.2128 1.50723 11.3239 5.55963 11.3239Z" fill="#63F23B"/>
<path d="M9.9026 8.5928C10.9648 7.56383 11.6249 6.12363 11.6249 4.52956C11.6249 3.73613 11.4614 2.98083 11.1661 2.29537C11.3162 2.2752 11.4693 2.26478 11.6249 2.26478C13.5048 2.26478 15.0288 3.78575 15.0288 5.66195C15.0288 7.53815 13.5048 9.05912 11.6249 9.05912C10.9965 9.05912 10.4078 8.88916 9.9026 8.5928Z" fill="#63F23B"/>
</svg>
