<svg width="18" height="19" viewBox="0 0 18 19" fill="none" xmlns="http://www.w3.org/2000/svg">
<path d="M11.9621 13.2172L11.5908 13.552L11.9621 13.2172ZM13.6062 16.6415L13.1159 16.7397V16.7397L13.6062 16.6415ZM12.2114 12.341L12.1695 11.8427L12.2114 12.341ZM16.847 15.6125L17.3181 15.4451L16.847 15.6125ZM1.01971 16.8635L1.50996 16.9617L1.01971 16.8635ZM12.1015 16.8635L12.5918 16.7653L12.1015 16.8635ZM10.9036 9.5928L10.5557 9.23367L10.0833 9.69129L10.6506 10.0241L10.9036 9.5928ZM12.1671 3.29537L12.1005 2.79983L11.4471 2.88768L11.7079 3.49317L12.1671 3.29537ZM10.5992 5.52956C10.5992 7.75409 8.79197 9.55912 6.56061 9.55912V10.5591C9.34239 10.5591 11.5992 8.30824 11.5992 5.52956H10.5992ZM6.56061 9.55912C4.32924 9.55912 2.52206 7.75409 2.52206 5.52956H1.52206C1.52206 8.30824 3.77883 10.5591 6.56061 10.5591V9.55912ZM2.52206 5.52956C2.52206 3.30503 4.32924 1.5 6.56061 1.5V0.5C3.77883 0.5 1.52206 2.75087 1.52206 5.52956H2.52206ZM6.56061 1.5C8.79197 1.5 10.5992 3.30503 10.5992 5.52956H11.5992C11.5992 2.75087 9.34239 0.5 6.56061 0.5V1.5ZM15.8791 16.3535H13.8534V17.3535H15.8791V16.3535ZM12.6259 12.8239C14.9038 12.8239 15.922 14.5029 16.3758 15.78L17.3181 15.4451C16.8188 14.0401 15.5561 11.8239 12.6259 11.8239V12.8239ZM12.2532 12.8392C12.3729 12.8292 12.497 12.8239 12.6259 12.8239V11.8239C12.4697 11.8239 12.3176 11.8303 12.1695 11.8427L12.2532 12.8392ZM11.5908 13.552C12.5338 14.5978 12.9389 15.8562 13.1159 16.7397L14.0965 16.5432C13.9009 15.5674 13.4435 14.1133 12.3335 12.8824L11.5908 13.552ZM12.1695 11.8427C11.7203 11.8805 11.4266 12.1927 11.3353 12.5495C11.2487 12.8876 11.3363 13.2698 11.5908 13.552L12.3335 12.8824C12.3186 12.8659 12.3099 12.848 12.3058 12.8312C12.3013 12.8134 12.3031 12.8012 12.304 12.7976C12.3048 12.7945 12.3025 12.806 12.2866 12.8203C12.2788 12.8273 12.2701 12.8327 12.262 12.8361C12.2539 12.8395 12.2501 12.8395 12.2532 12.8392L12.1695 11.8427ZM13.8534 16.3535C13.9965 16.3535 14.0791 16.4565 14.0965 16.5432L13.1159 16.7397C13.1812 17.0654 13.4661 17.3535 13.8534 17.3535V16.3535ZM15.8791 17.3535C16.8324 17.3535 17.6858 16.4798 17.3181 15.4451L16.3758 15.78C16.4286 15.9285 16.3973 16.058 16.3151 16.1602C16.2278 16.2686 16.0738 16.3535 15.8791 16.3535V17.3535ZM11.0992 17.4858H2.02206V18.4858H11.0992V17.4858ZM1.50996 16.9617C1.66609 16.1826 2.01205 15.1455 2.76586 14.3095C3.50399 13.491 4.66928 12.8239 6.56061 12.8239V11.8239C4.39953 11.8239 2.95975 12.6013 2.02321 13.6399C1.10237 14.661 0.704085 15.8938 0.529452 16.7653L1.50996 16.9617ZM6.56061 12.8239C8.45194 12.8239 9.61723 13.491 10.3553 14.3095C11.1092 15.1455 11.4551 16.1826 11.6113 16.9618L12.5918 16.7653C12.4171 15.8938 12.0188 14.661 11.098 13.6399C10.1615 12.6013 8.72168 11.8239 6.56061 11.8239V12.8239ZM2.02206 17.4858C1.64942 17.4858 1.46063 17.2079 1.50996 16.9617L0.529452 16.7653C0.333018 17.7456 1.14141 18.4858 2.02206 18.4858V17.4858ZM11.0992 18.4858C11.9798 18.4858 12.7882 17.7456 12.5918 16.7653L11.6113 16.9618C11.6606 17.2079 11.4718 17.4858 11.0992 17.4858V18.4858ZM12.1259 5.52956C12.1259 6.98261 11.5248 8.29488 10.5557 9.23367L11.2515 9.95193C12.4068 8.83279 13.1259 7.26464 13.1259 5.52956H12.1259ZM11.7079 3.49317C11.9767 4.11733 12.1259 4.80542 12.1259 5.52956H13.1259C13.1259 4.66684 12.948 3.84432 12.6263 3.09757L11.7079 3.49317ZM12.2337 3.79091C12.3617 3.7737 12.4926 3.76478 12.6259 3.76478V2.76478C12.4479 2.76478 12.2725 2.7767 12.1005 2.79983L12.2337 3.79091ZM12.6259 3.76478C14.2306 3.76478 15.5298 5.06282 15.5298 6.66195H16.5298C16.5298 4.50867 14.781 2.76478 12.6259 2.76478V3.76478ZM15.5298 6.66195C15.5298 8.26108 14.2306 9.55912 12.6259 9.55912V10.5591C14.781 10.5591 16.5298 8.81523 16.5298 6.66195H15.5298ZM12.6259 9.55912C12.0888 9.55912 11.5871 9.41409 11.1566 9.16152L10.6506 10.0241C11.2305 10.3642 11.9062 10.5591 12.6259 10.5591V9.55912Z" fill="#C1C1C1"/>
</svg>
