<svg width="37" height="35" viewBox="0 0 37 35" fill="none" xmlns="http://www.w3.org/2000/svg">
<path d="M0.720977 31.4233V24.7033H4.40098V25.3433H1.36098V27.7433H3.92098V28.3833H1.36098V31.4233H0.720977ZM10.1657 31.4233H9.40566L7.59566 29.0233H6.16566V31.4233H5.52566V24.7033H7.44566C9.19566 24.7033 10.0057 25.5433 10.0057 26.8133C10.0057 27.9033 9.39566 28.7633 8.30566 28.9733L10.1657 31.4233ZM6.16566 25.3433V28.3833H7.76566C8.63566 28.3833 9.36566 27.9733 9.36566 26.8733C9.36566 25.7733 8.58566 25.3433 7.71566 25.3433H6.16566ZM11.8493 31.4233H11.2093V24.7033H11.8493V31.4233ZM16.9693 25.3433H13.9293V27.7433H16.4893V28.3833H13.9293V30.7833H16.9693V31.4233H13.2893V24.7033H16.9693V25.3433ZM23.5303 31.5833L18.8903 26.2233V31.4233H18.2503V24.5433L22.8903 29.9033V24.7033H23.5303V31.5833ZM26.819 24.7033C29.059 24.7033 30.249 26.2033 30.249 28.0633C30.249 29.9233 29.009 31.4233 26.819 31.4233H24.969V24.7033H26.819ZM26.879 30.7833C28.569 30.7833 29.609 29.6433 29.609 28.0633C29.609 26.4833 28.569 25.3433 26.879 25.3433H25.609V30.7833H26.879ZM33.4293 27.6233C35.0793 27.9533 35.6893 28.4833 35.6893 29.6133C35.6893 30.6233 34.6993 31.5033 33.3093 31.5033C31.7893 31.5033 31.0093 30.5833 30.8893 30.4133L31.2093 29.8433C31.6193 30.3833 32.3393 30.8633 33.3293 30.8633C34.2693 30.8633 35.0493 30.2933 35.0493 29.5733C35.0493 28.9533 34.6593 28.5033 33.3593 28.2633C31.5493 27.9333 31.1293 27.3133 31.1293 26.4133C31.1293 25.4233 31.9993 24.6233 33.3693 24.6233C33.6393 24.6233 34.6093 24.6533 35.3693 25.4233L35.0693 25.9733C34.7393 25.6133 34.1393 25.2633 33.3593 25.2633C32.4893 25.2633 31.7693 25.6533 31.7693 26.3733C31.7693 27.0733 32.2793 27.3933 33.4293 27.6233Z" fill="#C1C1C1"/>
<path d="M21.9621 13.2172L21.5908 13.552L21.9621 13.2172ZM23.6062 16.6415L23.1159 16.7397V16.7397L23.6062 16.6415ZM22.2114 12.341L22.1695 11.8427L22.2114 12.341ZM26.847 15.6125L27.3181 15.4451L26.847 15.6125ZM11.0197 16.8635L11.51 16.9617L11.0197 16.8635ZM22.1015 16.8635L22.5918 16.7653L22.1015 16.8635ZM20.9036 9.5928L20.5557 9.23367L20.0833 9.69129L20.6506 10.0241L20.9036 9.5928ZM22.1671 3.29537L22.1005 2.79983L21.4471 2.88768L21.7079 3.49317L22.1671 3.29537ZM20.5992 5.52956C20.5992 7.75409 18.792 9.55912 16.5606 9.55912V10.5591C19.3424 10.5591 21.5992 8.30824 21.5992 5.52956H20.5992ZM16.5606 9.55912C14.3292 9.55912 12.5221 7.75409 12.5221 5.52956H11.5221C11.5221 8.30824 13.7788 10.5591 16.5606 10.5591V9.55912ZM12.5221 5.52956C12.5221 3.30503 14.3292 1.5 16.5606 1.5V0.5C13.7788 0.5 11.5221 2.75087 11.5221 5.52956H12.5221ZM16.5606 1.5C18.792 1.5 20.5992 3.30503 20.5992 5.52956H21.5992C21.5992 2.75087 19.3424 0.5 16.5606 0.5V1.5ZM25.8791 16.3535H23.8534V17.3535H25.8791V16.3535ZM22.6259 12.8239C24.9038 12.8239 25.922 14.5029 26.3758 15.78L27.3181 15.4451C26.8188 14.0401 25.5561 11.8239 22.6259 11.8239V12.8239ZM22.2532 12.8392C22.3729 12.8292 22.497 12.8239 22.6259 12.8239V11.8239C22.4697 11.8239 22.3176 11.8303 22.1695 11.8427L22.2532 12.8392ZM21.5908 13.552C22.5338 14.5978 22.9389 15.8562 23.1159 16.7397L24.0965 16.5432C23.9009 15.5674 23.4435 14.1133 22.3335 12.8824L21.5908 13.552ZM22.1695 11.8427C21.7203 11.8805 21.4266 12.1927 21.3353 12.5495C21.2487 12.8876 21.3363 13.2698 21.5908 13.552L22.3335 12.8824C22.3186 12.8659 22.3099 12.848 22.3058 12.8312C22.3013 12.8134 22.3031 12.8012 22.304 12.7976C22.3048 12.7945 22.3025 12.806 22.2866 12.8203C22.2788 12.8273 22.2701 12.8327 22.262 12.8361C22.2539 12.8395 22.2501 12.8395 22.2532 12.8392L22.1695 11.8427ZM23.8534 16.3535C23.9965 16.3535 24.0791 16.4565 24.0965 16.5432L23.1159 16.7397C23.1812 17.0654 23.4661 17.3535 23.8534 17.3535V16.3535ZM25.8791 17.3535C26.8324 17.3535 27.6858 16.4798 27.3181 15.4451L26.3758 15.78C26.4286 15.9285 26.3973 16.058 26.3151 16.1602C26.2278 16.2686 26.0738 16.3535 25.8791 16.3535V17.3535ZM21.0992 17.4858H12.0221V18.4858H21.0992V17.4858ZM11.51 16.9617C11.6661 16.1826 12.0121 15.1455 12.7659 14.3095C13.504 13.491 14.6693 12.8239 16.5606 12.8239V11.8239C14.3995 11.8239 12.9598 12.6013 12.0232 13.6399C11.1024 14.661 10.7041 15.8938 10.5295 16.7653L11.51 16.9617ZM16.5606 12.8239C18.4519 12.8239 19.6172 13.491 20.3553 14.3095C21.1092 15.1455 21.4551 16.1826 21.6113 16.9618L22.5918 16.7653C22.4171 15.8938 22.0188 14.661 21.098 13.6399C20.1615 12.6013 18.7217 11.8239 16.5606 11.8239V12.8239ZM12.0221 17.4858C11.6494 17.4858 11.4606 17.2079 11.51 16.9617L10.5295 16.7653C10.333 17.7456 11.1414 18.4858 12.0221 18.4858V17.4858ZM21.0992 18.4858C21.9798 18.4858 22.7882 17.7456 22.5918 16.7653L21.6113 16.9618C21.6606 17.2079 21.4718 17.4858 21.0992 17.4858V18.4858ZM22.1259 5.52956C22.1259 6.98261 21.5248 8.29488 20.5557 9.23367L21.2515 9.95193C22.4068 8.83279 23.1259 7.26464 23.1259 5.52956H22.1259ZM21.7079 3.49317C21.9767 4.11733 22.1259 4.80542 22.1259 5.52956H23.1259C23.1259 4.66684 22.948 3.84432 22.6263 3.09757L21.7079 3.49317ZM22.2337 3.79091C22.3617 3.7737 22.4926 3.76478 22.6259 3.76478V2.76478C22.4479 2.76478 22.2725 2.7767 22.1005 2.79983L22.2337 3.79091ZM22.6259 3.76478C24.2306 3.76478 25.5298 5.06282 25.5298 6.66195H26.5298C26.5298 4.50867 24.781 2.76478 22.6259 2.76478V3.76478ZM25.5298 6.66195C25.5298 8.26108 24.2306 9.55912 22.6259 9.55912V10.5591C24.781 10.5591 26.5298 8.81523 26.5298 6.66195H25.5298ZM22.6259 9.55912C22.0888 9.55912 21.5871 9.41409 21.1566 9.16152L20.6506 10.0241C21.2305 10.3642 21.9062 10.5591 22.6259 10.5591V9.55912Z" fill="#C1C1C1"/>
</svg>
