<svg width="25" height="25" viewBox="0 0 25 25" fill="none" xmlns="http://www.w3.org/2000/svg">
<path d="M12.4959 0C19.3953 0 25 5.60472 25 12.5041C25 19.3953 19.3871 25 12.5041 25C5.59652 25 -0.00818506 19.3953 8.97327e-06 12.4877C8.97327e-06 5.60472 5.59653 0 12.4959 0ZM8.62012 3.30219C8.62012 3.32678 8.62833 3.35956 8.62833 3.38414C8.72666 3.42511 8.83317 3.45789 8.9315 3.49886C9.16913 3.59718 9.30023 3.76925 9.31662 4.03146C9.35759 4.85087 9.40676 5.67027 9.44773 6.49787C9.46412 6.85841 9.22649 7.12062 8.85776 7.15339C8.64471 7.16978 8.43167 7.18617 8.21862 7.20256C7.92364 7.23533 7.71058 7.44018 7.66961 7.72697C7.62864 7.99738 7.78435 8.25959 8.04656 8.3743C8.19405 8.43986 8.34152 8.48902 8.48902 8.54638C8.84136 8.68568 8.96429 8.88233 8.91512 9.26745C8.80041 10.1524 8.67748 11.0292 8.56276 11.9141C8.52998 12.1599 8.39889 12.3238 8.18584 12.4385C7.60406 12.7417 7.01409 12.9794 6.36677 13.1105C5.84235 13.217 5.33432 13.3153 4.8099 13.1678C4.66241 13.1268 4.51493 13.1186 4.35924 13.1023C4.12981 13.0777 3.94133 13.1596 3.80203 13.3399C3.67092 13.5038 3.53163 13.6677 3.40053 13.8315C3.15471 14.1429 3.26123 14.3887 3.65454 14.4543C4.5313 14.5854 5.39988 14.7247 6.27664 14.8558C6.53066 14.8968 6.71911 15.0115 6.82563 15.2573C7.06326 15.7899 7.31728 16.3143 7.55491 16.8469C7.80892 17.4041 7.87447 17.9777 7.75156 18.5759C7.59587 19.2888 7.44838 20.0098 7.29269 20.7227C7.25992 20.862 7.2763 20.9521 7.4156 21.0259C7.60406 21.116 7.78433 21.2389 7.97279 21.3373C10.0868 22.4189 12.3074 22.7384 14.6182 22.214C17.8958 21.4684 20.1983 19.5018 21.5831 16.4618C21.6241 16.3799 21.6159 16.257 21.5913 16.175C21.4684 15.8227 21.3209 15.4703 21.1898 15.118C21.1488 15.0115 21.1324 14.8886 21.1406 14.782C21.1816 14.2412 21.2307 13.7004 21.2717 13.1596C21.2881 12.922 21.2307 12.8482 21.0095 12.7909C20.5424 12.668 20.0754 12.6844 19.6001 12.7663C19.2806 12.8237 19.1986 13.0367 19.3953 13.2989C19.5837 13.5529 19.7804 13.7988 19.9607 14.0528C20.0098 14.1265 20.0508 14.2494 20.0344 14.3314C19.9525 14.6427 19.6083 14.8394 19.2888 14.7984C18.9118 14.7493 18.5267 14.7001 18.1498 14.6509C17.9859 14.6264 17.863 14.6755 17.7893 14.823C17.5352 15.3065 17.2894 15.7899 17.2894 16.3635C17.2894 17.3304 17.0928 18.2563 16.6503 19.1167C16.5192 19.3625 16.3635 19.5919 16.2078 19.8296C16.1259 19.9607 15.9702 20.018 15.8473 19.9361C15.5359 19.7312 15.159 19.551 14.9541 19.256C14.6182 18.7807 14.315 18.2563 14.2003 17.6663C14.1265 17.2484 14.1183 16.8224 14.0528 16.4045C14.0364 16.2979 13.9708 16.1586 13.8889 16.1013C13.6021 15.9046 13.3071 15.7325 12.9302 15.7325C12.6762 15.7325 12.4222 15.6834 12.1763 15.6424C11.8568 15.5851 11.5946 15.4212 11.4307 15.1426C10.9636 14.3641 10.6113 13.5611 11.1111 12.6598C11.1439 12.6024 11.1439 12.5205 11.1849 12.4713C11.3324 12.2911 11.4553 12.037 11.6519 11.9551C12.2009 11.7175 12.7663 11.4717 13.3891 11.5454C13.8561 11.6028 14.3232 11.6028 14.7821 11.783C15.3229 11.9961 15.7981 12.2829 16.1914 12.7089C16.2242 12.7417 16.2652 12.7745 16.2979 12.8073C16.4208 12.9138 16.5438 12.9138 16.6667 12.7991C16.9043 12.5778 17.1419 12.3648 17.3795 12.1436C17.5025 12.0288 17.5352 11.8813 17.4287 11.7584C17.1255 11.4061 16.9781 10.98 16.8306 10.5539C16.7568 10.3573 16.5929 10.3245 16.4127 10.431C16.2979 10.5048 16.1586 10.5539 16.0275 10.5785C15.8063 10.6195 15.5851 10.6113 15.4048 10.8079C15.3556 10.8571 15.1835 10.8407 15.0934 10.7997C14.9623 10.7424 14.864 10.6277 14.7493 10.5457C14.4707 10.3491 14.1839 10.2098 13.8315 10.3491C13.725 10.39 13.6021 10.4146 13.4874 10.4228C13.3891 10.4228 13.2743 10.4064 13.2006 10.3573C13.0695 10.2671 12.9466 10.1442 12.8319 10.0295C12.709 9.90659 12.7335 9.71812 12.881 9.61979C12.9466 9.57882 13.0121 9.55425 13.0859 9.52147C13.6103 9.27565 13.6431 9.36578 13.5365 8.74303C13.5365 8.72664 13.5365 8.71845 13.5365 8.70207C13.4628 8.09571 13.3891 8.2432 13.9299 7.8253C14.2167 7.60407 14.4707 7.48115 14.7902 7.75156C14.8148 7.77614 14.8558 7.77614 14.8804 7.80072C15.0852 7.93183 15.2901 7.94002 15.4949 7.80891C15.6916 7.6942 15.8882 7.68601 16.1013 7.76795C16.552 7.94822 17.0272 7.99738 17.5107 7.95641C17.6827 7.94002 17.7892 7.86627 17.8384 7.70239C17.9122 7.44838 18.0023 7.19436 18.0597 6.93215C18.0843 6.80105 18.0924 6.63717 18.0269 6.53884C17.9368 6.39135 17.7647 6.46509 17.6336 6.53065C17.3058 6.70272 16.9616 6.73549 16.6011 6.69452C16.429 6.67814 16.3061 6.62898 16.2406 6.44871C16.1423 6.19469 15.9456 6.16191 15.7325 6.34218C15.5687 6.48148 15.4212 6.62898 15.2573 6.76827C15.1262 6.88299 14.9705 6.89937 14.8558 6.75188C14.6919 6.54703 14.5116 6.33399 14.5936 6.03081C14.6182 5.91609 14.61 5.80138 14.6264 5.68666C14.7493 4.81809 14.7657 3.94133 14.6919 3.06457C14.6837 2.90888 14.6263 2.84333 14.4789 2.81875C14.274 2.78597 14.0774 2.73681 13.8725 2.70403C12.6106 2.52377 11.3569 2.57293 10.1196 2.87611C9.61981 2.97444 9.11996 3.1547 8.62012 3.30219Z" fill="#292738"/>
</svg>
