<svg width="98" height="49" viewBox="0 0 98 49" fill="none" xmlns="http://www.w3.org/2000/svg">
<path d="M74.5337 16.4721C74.5337 16.4721 79.4996 8.74674 86.3461 14.9352C86.3461 14.9352 89.5028 14.7211 90.1976 17.069C90.8925 19.4168 79.3918 19.4168 79.3918 19.4168L74.5337 16.4721Z" fill="#292738"/>
<path d="M94.0462 5.25507C93.7374 5.34746 91.2931 6.83739 89.9209 8.01937C89.36 8.48571 85.8261 10.5446 83.2943 9.20135C83.2943 9.20135 83.29 9.06936 83.3103 8.84646C85.7401 9.5093 88.6739 7.78767 89.1809 7.36532C90.2311 6.45905 91.9122 5.37239 92.7804 4.87526C93.1853 4.98524 93.6063 5.10989 94.0462 5.25507Z" fill="#64D340"/>
<path d="M92.7804 4.87673C91.9122 5.37386 90.2326 6.46051 89.1809 7.36679C88.6725 7.78913 85.7401 9.51077 83.3103 8.84793C83.4269 7.46211 84.4335 2.61689 92.7804 4.87673Z" fill="#63F23B"/>
<path d="M93.6952 5.20961C93.6864 5.20521 93.6748 5.20228 93.666 5.20081C93.6908 5.19495 93.6996 5.19641 93.6952 5.20961Z" fill="#63F23B"/>
<path d="M92.9566 4.55556C92.9479 4.55117 92.9362 4.54823 92.9275 4.54677C92.9523 4.5409 92.961 4.54237 92.9566 4.55556Z" fill="#63F23B"/>
<path d="M79.9993 4.92072C77.466 6.264 73.9321 4.20215 73.3727 3.73874C71.9888 2.5465 69.5256 1.05216 69.2415 0.974442C69.6363 0.843926 70.0194 0.728075 70.385 0.626889C71.2794 1.15189 72.86 2.18135 73.8665 3.04803C74.3909 3.48064 77.4995 5.30346 79.9716 4.45584C80.0051 4.7418 79.9993 4.92072 79.9993 4.92072Z" fill="#64D340"/>
<path d="M69.2415 0.972973C69.2328 0.974439 69.2255 0.977375 69.2153 0.980308C69.2109 0.967109 69.2197 0.96564 69.2415 0.972973Z" fill="#63F23B"/>
<path d="M79.9716 4.45438C77.4981 5.30346 74.3909 3.48064 73.8665 3.04656C72.86 2.17841 71.2794 1.14895 70.385 0.62542C78.6358 -1.65788 79.8084 2.93218 79.9716 4.45438Z" fill="#63F23B"/>
<path d="M69.7353 0.282266C69.7266 0.283732 69.7193 0.286668 69.7091 0.289601C69.7033 0.276403 69.7135 0.274933 69.7353 0.282266Z" fill="#63F23B"/>
<path d="M0 33.2691C0 25.0612 6.29733 18.8361 15.2459 18.8361C24.4158 18.8361 30.1042 25.5012 30.0489 33.0491C30.0489 33.6005 30.0489 34.9218 30.0489 35.3632H6.73871C6.73871 38.6686 9.72204 43.0196 15.9626 43.0196C19.9394 43.0196 22.3706 41.037 22.978 39.3285H29.44C28.6665 42.1925 24.745 48.0878 16.4593 48.0878C5.79914 48.0878 0 41.4769 0 33.2691ZM23.4194 31.1207C23.4194 26.9896 20.3268 23.6285 15.3551 23.6285C10.2741 23.6285 6.79407 27.3739 6.79407 31.1207H23.4194Z" fill="#292738"/>
<path d="M49.1579 18.8361C57.9957 18.8361 62.4154 24.5656 63.0228 28.9166H56.8916C56.5594 27.7595 54.2957 24.2899 49.0487 24.2899C43.4141 24.2899 40.1555 27.9253 40.1555 33.2133C40.1555 38.5014 43.6909 42.5782 49.4347 42.5782C54.6264 42.5782 56.7255 39.1086 57.0576 37.9515H63.1889C62.36 42.4682 58.2172 48.032 49.5454 48.0878C40.5969 48.032 34.4103 41.9726 34.4103 33.2691C34.4103 24.5656 40.3755 18.8361 49.1579 18.8361Z" fill="#292738"/>
<path d="M82.1333 18.8361C91.2479 18.8361 97.3777 24.9512 97.3777 33.3233C97.3777 41.7511 91.2465 48.0863 82.1333 48.0863C73.0187 48.0863 66.8875 42.0268 66.8875 33.3233C66.8875 24.6756 73.0187 18.8361 82.1333 18.8361ZM82.1333 42.524C88.4307 42.524 91.3018 38.3929 91.3018 33.3248C91.3018 28.3124 88.4846 24.4013 82.1333 24.4013C75.7806 24.4013 72.9634 28.3124 72.9634 33.3248C72.9634 38.3929 75.7806 42.524 82.1333 42.524Z" fill="#292738"/>
<path d="M82.1333 18.8361C91.2479 18.8361 97.3777 24.9512 97.3777 33.3233C97.3777 41.7511 91.2465 48.0863 82.1333 48.0863C73.0187 48.0863 66.8875 42.0268 66.8875 33.3233C66.8875 24.6756 73.0187 18.8361 82.1333 18.8361ZM82.1333 42.524C88.4307 42.524 91.3018 38.3929 91.3018 33.3248C91.3018 28.3124 88.4846 24.4013 82.1333 24.4013C75.7806 24.4013 72.9634 28.3124 72.9634 33.3248C72.9634 38.3929 75.7806 42.524 82.1333 42.524Z" fill="#63F23B"/>
<path d="M89.9311 22.797H74.3356C73.9263 22.797 73.5941 22.4626 73.5941 22.0506V17.2185C73.5941 16.8065 73.9263 16.4721 74.3356 16.4721H89.9325C90.3419 16.4721 90.674 16.8065 90.674 17.2185V22.0506C90.6725 22.4626 90.3404 22.797 89.9311 22.797Z" fill="#63F23B"/>
</svg>
