<svg width="23" height="23" viewBox="0 0 23 23" fill="none" xmlns="http://www.w3.org/2000/svg">
<path d="M5.0612 10.4773C2.58856 10.4773 0.5 8.28868 0.5 5.48864C0.5 2.71925 2.59041 0.5 5.0612 0.5C7.49652 0.5 9.5625 2.71322 9.5625 5.48864C9.5625 8.29471 7.49835 10.4773 5.0612 10.4773ZM19.2725 1.02273L5.89527 21.9773H3.7275L17.1047 1.02273H19.2725ZM5.03125 7.81818C6.24589 7.81818 7.20833 6.70305 7.20833 5.48864C7.20833 4.27422 6.24589 3.15909 5.03125 3.15909C3.81661 3.15909 2.85417 4.27422 2.85417 5.48864C2.85417 6.70305 3.81661 7.81818 5.03125 7.81818ZM17.9987 22.5C15.5261 22.5 13.4375 20.3114 13.4375 17.5114C13.4375 14.742 15.5279 12.5227 17.9987 12.5227C20.434 12.5227 22.5 14.7359 22.5 17.5114C22.5 20.3174 20.4359 22.5 17.9987 22.5ZM17.9688 19.8409C19.1834 19.8409 20.1458 18.7258 20.1458 17.5114C20.1458 16.297 19.1834 15.1818 17.9688 15.1818C16.7541 15.1818 15.7917 16.297 15.7917 17.5114C15.7917 18.7258 16.7541 19.8409 17.9688 19.8409Z" fill="#51D5F4" stroke="#51D5F4"/>
</svg>
