<svg width="108" height="108" viewBox="0 0 108 108" fill="none" xmlns="http://www.w3.org/2000/svg">
<path d="M53.55 107.1C83.1248 107.1 107.1 83.1249 107.1 53.55C107.1 23.9752 83.1248 0 53.55 0C23.9751 0 0 23.9752 0 53.55C0 83.1249 23.9751 107.1 53.55 107.1Z" fill="white"/>
<path d="M29.0653 51.9493C29.0653 51.9493 35.0352 35.7293 60.2652 31.8493C72.9052 30.5193 77.6953 31.9992 79.5953 35.1192C81.4953 38.2392 83.7452 49.4393 70.5052 63.3293C57.2552 77.2193 43.1553 81.9792 32.1253 72.8492C27.4653 68.1592 25.7653 59.8993 29.0653 51.9493Z" fill="#DCDDCF"/>
<path d="M54.9652 75.4494C46.4652 79.2794 38.4752 78.5794 31.8952 73.1194C26.8252 68.0194 25.5552 59.4594 28.7352 51.8094C28.9052 51.3594 35.2952 35.3294 60.2152 31.4894C71.8052 30.2694 77.6952 31.2994 79.9052 34.9294C81.8752 38.1594 84.0752 49.6194 70.7652 63.5694C65.4352 69.1594 60.1052 73.1294 54.9652 75.4494ZM46.6652 36.1294C33.2152 42.1894 29.4352 51.9494 29.3952 52.0794C29.3952 52.0794 29.3952 52.0893 29.3852 52.0893C26.3252 59.4793 27.5252 67.7194 32.3652 72.5994C42.5752 81.0594 56.3952 77.5993 70.2352 63.0893C83.2352 49.4593 81.1752 38.4194 79.2852 35.3094C77.2352 31.9494 71.5652 31.0194 60.3052 32.2094C54.9252 33.0294 50.4152 34.4394 46.6652 36.1294Z" fill="#85867F"/>
<path d="M73.3352 42.5594C75.2552 39.4294 73.6052 39.6294 73.6052 39.6294C73.6052 39.6294 73.3752 39.0094 75.6552 37.5894C47.1152 43.2694 32.4852 59.6494 28.0352 65.5194C28.6852 67.9094 29.7652 70.0694 31.2252 71.8294C53.3652 66.7894 71.4752 45.5794 73.3352 42.5594Z" fill="#B29878"/>
<path d="M75.8352 33.7093C64.0352 32.4493 40.8952 33.3893 27.5252 57.7393C27.3152 59.3993 27.3052 61.0293 27.4752 62.5893C31.4152 55.6093 43.9552 38.9593 75.8352 33.7093Z" fill="#B29878"/>
<path d="M76.6552 45.1293C61.7852 66.3793 40.8551 72.8493 34.2651 74.4293C36.4751 75.8593 38.7852 76.7593 41.1852 77.2093C65.1952 69.9593 77.8451 43.2093 76.6552 45.1293Z" fill="#6E6963"/>
<path d="M68.9151 61.8893C61.0051 70.7193 51.8451 75.3893 47.2751 77.3393C51.8751 76.7593 56.6452 74.6593 61.4352 71.2693C69.1952 63.3293 69.8451 60.6793 68.9151 61.8893Z" fill="#6E6963"/>
<path d="M79.5952 35.1193C77.7552 32.0893 73.1752 30.6093 61.3652 31.7393C61.8152 31.7293 62.2852 31.7093 62.7852 31.6793C80.4252 30.6393 78.3152 41.5693 65.5352 56.0693C52.7652 70.5693 33.0452 72.6093 31.6452 59.7693C30.4752 49.0593 38.3152 41.1193 40.9552 38.7793C31.7252 44.7293 29.0653 51.9293 29.0653 51.9293C25.7653 59.8793 27.4752 68.1493 32.1252 72.8293C43.1552 81.9693 57.2552 77.1993 70.5052 63.3093C83.7452 49.4393 81.4953 38.2393 79.5952 35.1193Z" fill="#C4C6BA"/>
<path d="M27.5251 57.7295C27.5251 57.7295 27.5251 57.7395 27.5151 57.7395L27.5251 57.7295Z" fill="#C4C6BA"/>
<path d="M76.6552 32.6494C76.8251 32.7494 77.0051 32.8394 77.2051 32.9294C85.0351 36.6594 75.8351 66.6394 49.8251 72.5394C31.4251 76.7194 27.8952 67.5694 27.4052 61.8594C27.7252 66.2094 29.4251 70.1194 32.1151 72.8394C43.1451 81.9794 57.2451 77.2094 70.4951 63.3194C83.7351 49.4294 81.4851 38.2294 79.5851 35.1094C78.9751 34.1094 78.0452 33.2794 76.6552 32.6494Z" fill="#8A8B84"/>
<path d="M68.6753 34.0195C55.1953 30.1495 40.5153 38.1095 33.4853 51.4195C33.3653 51.6495 33.8353 51.7095 33.9453 51.5395C42.0453 39.6195 55.0253 31.8495 68.4353 34.4095C68.6753 34.4595 69.0053 34.1195 68.6753 34.0195Z" fill="#DCDDCF"/>
</svg>
