<svg width="20" height="20" viewBox="0 0 20 20" fill="none" xmlns="http://www.w3.org/2000/svg">
<path d="M13.2931 7.49318L10.4505 1.14951C10.3653 0.95472 10.1035 0.95472 10.0122 1.14951L7.16965 7.49318C7.09053 7.662 7.21227 7.86329 7.38879 7.86329H8.58182C8.71573 7.86329 8.82529 7.98018 8.82529 8.12302V14.8887C8.82529 15.0316 8.93485 15.1484 9.06876 15.1484H11.4C11.534 15.1484 11.6435 15.0316 11.6435 14.8887V8.12302C11.6435 7.98018 11.7531 7.86329 11.887 7.86329H13.08C13.2505 7.86329 13.3661 7.66849 13.2931 7.49318Z" stroke="#C1C1C1" stroke-miterlimit="10"/>
<path d="M19.4249 11.8062L16.5823 5.4625C16.4971 5.26771 16.2354 5.26771 16.1441 5.4625L13.3015 11.8062C13.2224 11.975 13.3441 12.1763 13.5206 12.1763H14.7137C14.8476 12.1763 14.9571 12.2931 14.9571 12.436V19.2017C14.9571 19.3445 15.0667 19.4614 15.2006 19.4614H17.5319C17.6658 19.4614 17.7754 19.3445 17.7754 19.2017V12.436C17.7754 12.2931 17.8849 12.1763 18.0188 12.1763H19.2119C19.3884 12.1763 19.504 11.9815 19.4249 11.8062Z" stroke="#C1C1C1" stroke-miterlimit="10"/>
<path d="M3.86722 5.4625L1.02464 11.8062C0.945506 11.975 1.06725 12.1763 1.24377 12.1763H2.4368C2.57071 12.1763 2.68027 12.2931 2.68027 12.436V19.2017C2.68027 19.3445 2.78985 19.4614 2.92376 19.4614H5.25503C5.38894 19.4614 5.4985 19.3445 5.4985 19.2017V12.436C5.4985 12.2931 5.60806 12.1763 5.74197 12.1763H6.93502C7.11154 12.1763 7.22718 11.9815 7.15414 11.8062L4.31157 5.4625C4.21418 5.26771 3.95244 5.26771 3.86722 5.4625Z" stroke="#C1C1C1" stroke-miterlimit="10"/>
</svg>
